<?xml version="1.0" encoding="utf-8" standalone="no"?>
<!DOCTYPE svg PUBLIC "-//W3C//DTD SVG 1.1//EN"
  "http://www.w3.org/Graphics/SVG/1.1/DTD/svg11.dtd">
<!-- Created with matplotlib (https://matplotlib.org/) -->
<svg height="1080pt" version="1.1" viewBox="0 0 2880 1080" width="2880pt" xmlns="http://www.w3.org/2000/svg" xmlns:xlink="http://www.w3.org/1999/xlink">
 <defs>
  <style type="text/css">
*{stroke-linecap:butt;stroke-linejoin:round;}
  </style>
 </defs>
 <g id="figure_1">
  <g id="patch_1">
   <path d="M 0 1080 
L 2880 1080 
L 2880 0 
L 0 0 
z
" style="fill:#ffffff;"/>
  </g>
  <g id="axes_1">
   <g id="patch_2">
    <path d="M 94.09774 1021.480385 
L 2876.99976 1021.480385 
L 2876.99976 157.9032 
L 94.09774 157.9032 
z
" style="fill:#ffffff;"/>
   </g>
   <g id="matplotlib.axis_1">
    <g id="xtick_1">
     <g id="line2d_1">
      <defs>
       <path d="M 0 0 
L 0 3.5 
" id="m33272bf08f" style="stroke:#000000;stroke-width:0.8;"/>
      </defs>
      <g>
       <use style="stroke:#000000;stroke-width:0.8;" x="353.841198" xlink:href="#m33272bf08f" y="1021.480385"/>
      </g>
     </g>
     <g id="text_1">
      <!-- 40 -->
      <defs>
       <path d="M 37.796875 64.3125 
L 12.890625 25.390625 
L 37.796875 25.390625 
z
M 35.203125 72.90625 
L 47.609375 72.90625 
L 47.609375 25.390625 
L 58.015625 25.390625 
L 58.015625 17.1875 
L 47.609375 17.1875 
L 47.609375 0 
L 37.796875 0 
L 37.796875 17.1875 
L 4.890625 17.1875 
L 4.890625 26.703125 
z
" id="DejaVuSans-52"/>
       <path d="M 31.78125 66.40625 
Q 24.171875 66.40625 20.328125 58.90625 
Q 16.5 51.421875 16.5 36.375 
Q 16.5 21.390625 20.328125 13.890625 
Q 24.171875 6.390625 31.78125 6.390625 
Q 39.453125 6.390625 43.28125 13.890625 
Q 47.125 21.390625 47.125 36.375 
Q 47.125 51.421875 43.28125 58.90625 
Q 39.453125 66.40625 31.78125 66.40625 
z
M 31.78125 74.21875 
Q 44.046875 74.21875 50.515625 64.515625 
Q 56.984375 54.828125 56.984375 36.375 
Q 56.984375 17.96875 50.515625 8.265625 
Q 44.046875 -1.421875 31.78125 -1.421875 
Q 19.53125 -1.421875 13.0625 8.265625 
Q 6.59375 17.96875 6.59375 36.375 
Q 6.59375 54.828125 13.0625 64.515625 
Q 19.53125 74.21875 31.78125 74.21875 
z
" id="DejaVuSans-48"/>
      </defs>
      <g transform="translate(341.116198 1043.67726)scale(0.2 -0.2)">
       <use xlink:href="#DejaVuSans-52"/>
       <use x="63.623047" xlink:href="#DejaVuSans-48"/>
      </g>
     </g>
    </g>
    <g id="xtick_2">
     <g id="line2d_2">
      <g>
       <use style="stroke:#000000;stroke-width:0.8;" x="886.832847" xlink:href="#m33272bf08f" y="1021.480385"/>
      </g>
     </g>
     <g id="text_2">
      <!-- 60 -->
      <defs>
       <path d="M 33.015625 40.375 
Q 26.375 40.375 22.484375 35.828125 
Q 18.609375 31.296875 18.609375 23.390625 
Q 18.609375 15.53125 22.484375 10.953125 
Q 26.375 6.390625 33.015625 6.390625 
Q 39.65625 6.390625 43.53125 10.953125 
Q 47.40625 15.53125 47.40625 23.390625 
Q 47.40625 31.296875 43.53125 35.828125 
Q 39.65625 40.375 33.015625 40.375 
z
M 52.59375 71.296875 
L 52.59375 62.3125 
Q 48.875 64.0625 45.09375 64.984375 
Q 41.3125 65.921875 37.59375 65.921875 
Q 27.828125 65.921875 22.671875 59.328125 
Q 17.53125 52.734375 16.796875 39.40625 
Q 19.671875 43.65625 24.015625 45.921875 
Q 28.375 48.1875 33.59375 48.1875 
Q 44.578125 48.1875 50.953125 41.515625 
Q 57.328125 34.859375 57.328125 23.390625 
Q 57.328125 12.15625 50.6875 5.359375 
Q 44.046875 -1.421875 33.015625 -1.421875 
Q 20.359375 -1.421875 13.671875 8.265625 
Q 6.984375 17.96875 6.984375 36.375 
Q 6.984375 53.65625 15.1875 63.9375 
Q 23.390625 74.21875 37.203125 74.21875 
Q 40.921875 74.21875 44.703125 73.484375 
Q 48.484375 72.75 52.59375 71.296875 
z
" id="DejaVuSans-54"/>
      </defs>
      <g transform="translate(874.107847 1043.67726)scale(0.2 -0.2)">
       <use xlink:href="#DejaVuSans-54"/>
       <use x="63.623047" xlink:href="#DejaVuSans-48"/>
      </g>
     </g>
    </g>
    <g id="xtick_3">
     <g id="line2d_3">
      <g>
       <use style="stroke:#000000;stroke-width:0.8;" x="1419.824495" xlink:href="#m33272bf08f" y="1021.480385"/>
      </g>
     </g>
     <g id="text_3">
      <!-- 80 -->
      <defs>
       <path d="M 31.78125 34.625 
Q 24.75 34.625 20.71875 30.859375 
Q 16.703125 27.09375 16.703125 20.515625 
Q 16.703125 13.921875 20.71875 10.15625 
Q 24.75 6.390625 31.78125 6.390625 
Q 38.8125 6.390625 42.859375 10.171875 
Q 46.921875 13.96875 46.921875 20.515625 
Q 46.921875 27.09375 42.890625 30.859375 
Q 38.875 34.625 31.78125 34.625 
z
M 21.921875 38.8125 
Q 15.578125 40.375 12.03125 44.71875 
Q 8.5 49.078125 8.5 55.328125 
Q 8.5 64.0625 14.71875 69.140625 
Q 20.953125 74.21875 31.78125 74.21875 
Q 42.671875 74.21875 48.875 69.140625 
Q 55.078125 64.0625 55.078125 55.328125 
Q 55.078125 49.078125 51.53125 44.71875 
Q 48 40.375 41.703125 38.8125 
Q 48.828125 37.15625 52.796875 32.3125 
Q 56.78125 27.484375 56.78125 20.515625 
Q 56.78125 9.90625 50.3125 4.234375 
Q 43.84375 -1.421875 31.78125 -1.421875 
Q 19.734375 -1.421875 13.25 4.234375 
Q 6.78125 9.90625 6.78125 20.515625 
Q 6.78125 27.484375 10.78125 32.3125 
Q 14.796875 37.15625 21.921875 38.8125 
z
M 18.3125 54.390625 
Q 18.3125 48.734375 21.84375 45.5625 
Q 25.390625 42.390625 31.78125 42.390625 
Q 38.140625 42.390625 41.71875 45.5625 
Q 45.3125 48.734375 45.3125 54.390625 
Q 45.3125 60.0625 41.71875 63.234375 
Q 38.140625 66.40625 31.78125 66.40625 
Q 25.390625 66.40625 21.84375 63.234375 
Q 18.3125 60.0625 18.3125 54.390625 
z
" id="DejaVuSans-56"/>
      </defs>
      <g transform="translate(1407.099495 1043.67726)scale(0.2 -0.2)">
       <use xlink:href="#DejaVuSans-56"/>
       <use x="63.623047" xlink:href="#DejaVuSans-48"/>
      </g>
     </g>
    </g>
    <g id="xtick_4">
     <g id="line2d_4">
      <g>
       <use style="stroke:#000000;stroke-width:0.8;" x="1952.816144" xlink:href="#m33272bf08f" y="1021.480385"/>
      </g>
     </g>
     <g id="text_4">
      <!-- 100 -->
      <defs>
       <path d="M 12.40625 8.296875 
L 28.515625 8.296875 
L 28.515625 63.921875 
L 10.984375 60.40625 
L 10.984375 69.390625 
L 28.421875 72.90625 
L 38.28125 72.90625 
L 38.28125 8.296875 
L 54.390625 8.296875 
L 54.390625 0 
L 12.40625 0 
z
" id="DejaVuSans-49"/>
      </defs>
      <g transform="translate(1933.728644 1043.67726)scale(0.2 -0.2)">
       <use xlink:href="#DejaVuSans-49"/>
       <use x="63.623047" xlink:href="#DejaVuSans-48"/>
       <use x="127.246094" xlink:href="#DejaVuSans-48"/>
      </g>
     </g>
    </g>
    <g id="xtick_5">
     <g id="line2d_5">
      <g>
       <use style="stroke:#000000;stroke-width:0.8;" x="2485.807792" xlink:href="#m33272bf08f" y="1021.480385"/>
      </g>
     </g>
     <g id="text_5">
      <!-- 120 -->
      <defs>
       <path d="M 19.1875 8.296875 
L 53.609375 8.296875 
L 53.609375 0 
L 7.328125 0 
L 7.328125 8.296875 
Q 12.9375 14.109375 22.625 23.890625 
Q 32.328125 33.6875 34.8125 36.53125 
Q 39.546875 41.84375 41.421875 45.53125 
Q 43.3125 49.21875 43.3125 52.78125 
Q 43.3125 58.59375 39.234375 62.25 
Q 35.15625 65.921875 28.609375 65.921875 
Q 23.96875 65.921875 18.8125 64.3125 
Q 13.671875 62.703125 7.8125 59.421875 
L 7.8125 69.390625 
Q 13.765625 71.78125 18.9375 73 
Q 24.125 74.21875 28.421875 74.21875 
Q 39.75 74.21875 46.484375 68.546875 
Q 53.21875 62.890625 53.21875 53.421875 
Q 53.21875 48.921875 51.53125 44.890625 
Q 49.859375 40.875 45.40625 35.40625 
Q 44.1875 33.984375 37.640625 27.21875 
Q 31.109375 20.453125 19.1875 8.296875 
z
" id="DejaVuSans-50"/>
      </defs>
      <g transform="translate(2466.720292 1043.67726)scale(0.2 -0.2)">
       <use xlink:href="#DejaVuSans-49"/>
       <use x="63.623047" xlink:href="#DejaVuSans-50"/>
       <use x="127.246094" xlink:href="#DejaVuSans-48"/>
      </g>
     </g>
    </g>
    <g id="text_6">
     <!-- Time [s] -->
     <defs>
      <path d="M -0.296875 72.90625 
L 61.375 72.90625 
L 61.375 64.59375 
L 35.5 64.59375 
L 35.5 0 
L 25.59375 0 
L 25.59375 64.59375 
L -0.296875 64.59375 
z
" id="DejaVuSans-84"/>
      <path d="M 9.421875 54.6875 
L 18.40625 54.6875 
L 18.40625 0 
L 9.421875 0 
z
M 9.421875 75.984375 
L 18.40625 75.984375 
L 18.40625 64.59375 
L 9.421875 64.59375 
z
" id="DejaVuSans-105"/>
      <path d="M 52 44.1875 
Q 55.375 50.25 60.0625 53.125 
Q 64.75 56 71.09375 56 
Q 79.640625 56 84.28125 50.015625 
Q 88.921875 44.046875 88.921875 33.015625 
L 88.921875 0 
L 79.890625 0 
L 79.890625 32.71875 
Q 79.890625 40.578125 77.09375 44.375 
Q 74.3125 48.1875 68.609375 48.1875 
Q 61.625 48.1875 57.5625 43.546875 
Q 53.515625 38.921875 53.515625 30.90625 
L 53.515625 0 
L 44.484375 0 
L 44.484375 32.71875 
Q 44.484375 40.625 41.703125 44.40625 
Q 38.921875 48.1875 33.109375 48.1875 
Q 26.21875 48.1875 22.15625 43.53125 
Q 18.109375 38.875 18.109375 30.90625 
L 18.109375 0 
L 9.078125 0 
L 9.078125 54.6875 
L 18.109375 54.6875 
L 18.109375 46.1875 
Q 21.1875 51.21875 25.484375 53.609375 
Q 29.78125 56 35.6875 56 
Q 41.65625 56 45.828125 52.96875 
Q 50 49.953125 52 44.1875 
z
" id="DejaVuSans-109"/>
      <path d="M 56.203125 29.59375 
L 56.203125 25.203125 
L 14.890625 25.203125 
Q 15.484375 15.921875 20.484375 11.0625 
Q 25.484375 6.203125 34.421875 6.203125 
Q 39.59375 6.203125 44.453125 7.46875 
Q 49.3125 8.734375 54.109375 11.28125 
L 54.109375 2.78125 
Q 49.265625 0.734375 44.1875 -0.34375 
Q 39.109375 -1.421875 33.890625 -1.421875 
Q 20.796875 -1.421875 13.15625 6.1875 
Q 5.515625 13.8125 5.515625 26.8125 
Q 5.515625 40.234375 12.765625 48.109375 
Q 20.015625 56 32.328125 56 
Q 43.359375 56 49.78125 48.890625 
Q 56.203125 41.796875 56.203125 29.59375 
z
M 47.21875 32.234375 
Q 47.125 39.59375 43.09375 43.984375 
Q 39.0625 48.390625 32.421875 48.390625 
Q 24.90625 48.390625 20.390625 44.140625 
Q 15.875 39.890625 15.1875 32.171875 
z
" id="DejaVuSans-101"/>
      <path id="DejaVuSans-32"/>
      <path d="M 8.59375 75.984375 
L 29.296875 75.984375 
L 29.296875 69 
L 17.578125 69 
L 17.578125 -6.203125 
L 29.296875 -6.203125 
L 29.296875 -13.1875 
L 8.59375 -13.1875 
z
" id="DejaVuSans-91"/>
      <path d="M 44.28125 53.078125 
L 44.28125 44.578125 
Q 40.484375 46.53125 36.375 47.5 
Q 32.28125 48.484375 27.875 48.484375 
Q 21.1875 48.484375 17.84375 46.4375 
Q 14.5 44.390625 14.5 40.28125 
Q 14.5 37.15625 16.890625 35.375 
Q 19.28125 33.59375 26.515625 31.984375 
L 29.59375 31.296875 
Q 39.15625 29.25 43.1875 25.515625 
Q 47.21875 21.78125 47.21875 15.09375 
Q 47.21875 7.46875 41.1875 3.015625 
Q 35.15625 -1.421875 24.609375 -1.421875 
Q 20.21875 -1.421875 15.453125 -0.5625 
Q 10.6875 0.296875 5.421875 2 
L 5.421875 11.28125 
Q 10.40625 8.6875 15.234375 7.390625 
Q 20.0625 6.109375 24.8125 6.109375 
Q 31.15625 6.109375 34.5625 8.28125 
Q 37.984375 10.453125 37.984375 14.40625 
Q 37.984375 18.0625 35.515625 20.015625 
Q 33.0625 21.96875 24.703125 23.78125 
L 21.578125 24.515625 
Q 13.234375 26.265625 9.515625 29.90625 
Q 5.8125 33.546875 5.8125 39.890625 
Q 5.8125 47.609375 11.28125 51.796875 
Q 16.75 56 26.8125 56 
Q 31.78125 56 36.171875 55.265625 
Q 40.578125 54.546875 44.28125 53.078125 
z
" id="DejaVuSans-115"/>
      <path d="M 30.421875 75.984375 
L 30.421875 -13.1875 
L 9.71875 -13.1875 
L 9.71875 -6.203125 
L 21.390625 -6.203125 
L 21.390625 69 
L 9.71875 69 
L 9.71875 75.984375 
z
" id="DejaVuSans-93"/>
     </defs>
     <g transform="translate(1432.293437 1071.592572)scale(0.26 -0.26)">
      <use xlink:href="#DejaVuSans-84"/>
      <use x="61.037109" xlink:href="#DejaVuSans-105"/>
      <use x="88.820312" xlink:href="#DejaVuSans-109"/>
      <use x="186.232422" xlink:href="#DejaVuSans-101"/>
      <use x="247.755859" xlink:href="#DejaVuSans-32"/>
      <use x="279.542969" xlink:href="#DejaVuSans-91"/>
      <use x="318.556641" xlink:href="#DejaVuSans-115"/>
      <use x="370.65625" xlink:href="#DejaVuSans-93"/>
     </g>
    </g>
   </g>
   <g id="matplotlib.axis_2">
    <g id="ytick_1">
     <g id="line2d_6">
      <defs>
       <path d="M 0 0 
L -3.5 0 
" id="m26b496ab81" style="stroke:#000000;stroke-width:0.8;"/>
      </defs>
      <g>
       <use style="stroke:#000000;stroke-width:0.8;" x="94.09774" xlink:href="#m26b496ab81" y="920.247653"/>
      </g>
     </g>
     <g id="text_7">
      <!-- −140 -->
      <defs>
       <path d="M 10.59375 35.5 
L 73.1875 35.5 
L 73.1875 27.203125 
L 10.59375 27.203125 
z
" id="DejaVuSans-8722"/>
      </defs>
      <g transform="translate(32.163365 927.84609)scale(0.2 -0.2)">
       <use xlink:href="#DejaVuSans-8722"/>
       <use x="83.789062" xlink:href="#DejaVuSans-49"/>
       <use x="147.412109" xlink:href="#DejaVuSans-52"/>
       <use x="211.035156" xlink:href="#DejaVuSans-48"/>
      </g>
     </g>
    </g>
    <g id="ytick_2">
     <g id="line2d_7">
      <g>
       <use style="stroke:#000000;stroke-width:0.8;" x="94.09774" xlink:href="#m26b496ab81" y="816.948946"/>
      </g>
     </g>
     <g id="text_8">
      <!-- −120 -->
      <g transform="translate(32.163365 824.547384)scale(0.2 -0.2)">
       <use xlink:href="#DejaVuSans-8722"/>
       <use x="83.789062" xlink:href="#DejaVuSans-49"/>
       <use x="147.412109" xlink:href="#DejaVuSans-50"/>
       <use x="211.035156" xlink:href="#DejaVuSans-48"/>
      </g>
     </g>
    </g>
    <g id="ytick_3">
     <g id="line2d_8">
      <g>
       <use style="stroke:#000000;stroke-width:0.8;" x="94.09774" xlink:href="#m26b496ab81" y="713.65024"/>
      </g>
     </g>
     <g id="text_9">
      <!-- −100 -->
      <g transform="translate(32.163365 721.248678)scale(0.2 -0.2)">
       <use xlink:href="#DejaVuSans-8722"/>
       <use x="83.789062" xlink:href="#DejaVuSans-49"/>
       <use x="147.412109" xlink:href="#DejaVuSans-48"/>
       <use x="211.035156" xlink:href="#DejaVuSans-48"/>
      </g>
     </g>
    </g>
    <g id="ytick_4">
     <g id="line2d_9">
      <g>
       <use style="stroke:#000000;stroke-width:0.8;" x="94.09774" xlink:href="#m26b496ab81" y="610.351534"/>
      </g>
     </g>
     <g id="text_10">
      <!-- −80 -->
      <g transform="translate(44.888365 617.949971)scale(0.2 -0.2)">
       <use xlink:href="#DejaVuSans-8722"/>
       <use x="83.789062" xlink:href="#DejaVuSans-56"/>
       <use x="147.412109" xlink:href="#DejaVuSans-48"/>
      </g>
     </g>
    </g>
    <g id="ytick_5">
     <g id="line2d_10">
      <g>
       <use style="stroke:#000000;stroke-width:0.8;" x="94.09774" xlink:href="#m26b496ab81" y="507.052827"/>
      </g>
     </g>
     <g id="text_11">
      <!-- −60 -->
      <g transform="translate(44.888365 514.651265)scale(0.2 -0.2)">
       <use xlink:href="#DejaVuSans-8722"/>
       <use x="83.789062" xlink:href="#DejaVuSans-54"/>
       <use x="147.412109" xlink:href="#DejaVuSans-48"/>
      </g>
     </g>
    </g>
    <g id="ytick_6">
     <g id="line2d_11">
      <g>
       <use style="stroke:#000000;stroke-width:0.8;" x="94.09774" xlink:href="#m26b496ab81" y="403.754121"/>
      </g>
     </g>
     <g id="text_12">
      <!-- −40 -->
      <g transform="translate(44.888365 411.352559)scale(0.2 -0.2)">
       <use xlink:href="#DejaVuSans-8722"/>
       <use x="83.789062" xlink:href="#DejaVuSans-52"/>
       <use x="147.412109" xlink:href="#DejaVuSans-48"/>
      </g>
     </g>
    </g>
    <g id="ytick_7">
     <g id="line2d_12">
      <g>
       <use style="stroke:#000000;stroke-width:0.8;" x="94.09774" xlink:href="#m26b496ab81" y="300.455415"/>
      </g>
     </g>
     <g id="text_13">
      <!-- −20 -->
      <g transform="translate(44.888365 308.053852)scale(0.2 -0.2)">
       <use xlink:href="#DejaVuSans-8722"/>
       <use x="83.789062" xlink:href="#DejaVuSans-50"/>
       <use x="147.412109" xlink:href="#DejaVuSans-48"/>
      </g>
     </g>
    </g>
    <g id="ytick_8">
     <g id="line2d_13">
      <g>
       <use style="stroke:#000000;stroke-width:0.8;" x="94.09774" xlink:href="#m26b496ab81" y="197.156708"/>
      </g>
     </g>
     <g id="text_14">
      <!-- 0 -->
      <g transform="translate(74.37274 204.755146)scale(0.2 -0.2)">
       <use xlink:href="#DejaVuSans-48"/>
      </g>
     </g>
    </g>
    <g id="text_15">
     <!-- Length [m] -->
     <defs>
      <path d="M 9.8125 72.90625 
L 19.671875 72.90625 
L 19.671875 8.296875 
L 55.171875 8.296875 
L 55.171875 0 
L 9.8125 0 
z
" id="DejaVuSans-76"/>
      <path d="M 54.890625 33.015625 
L 54.890625 0 
L 45.90625 0 
L 45.90625 32.71875 
Q 45.90625 40.484375 42.875 44.328125 
Q 39.84375 48.1875 33.796875 48.1875 
Q 26.515625 48.1875 22.3125 43.546875 
Q 18.109375 38.921875 18.109375 30.90625 
L 18.109375 0 
L 9.078125 0 
L 9.078125 54.6875 
L 18.109375 54.6875 
L 18.109375 46.1875 
Q 21.34375 51.125 25.703125 53.5625 
Q 30.078125 56 35.796875 56 
Q 45.21875 56 50.046875 50.171875 
Q 54.890625 44.34375 54.890625 33.015625 
z
" id="DejaVuSans-110"/>
      <path d="M 45.40625 27.984375 
Q 45.40625 37.75 41.375 43.109375 
Q 37.359375 48.484375 30.078125 48.484375 
Q 22.859375 48.484375 18.828125 43.109375 
Q 14.796875 37.75 14.796875 27.984375 
Q 14.796875 18.265625 18.828125 12.890625 
Q 22.859375 7.515625 30.078125 7.515625 
Q 37.359375 7.515625 41.375 12.890625 
Q 45.40625 18.265625 45.40625 27.984375 
z
M 54.390625 6.78125 
Q 54.390625 -7.171875 48.1875 -13.984375 
Q 42 -20.796875 29.203125 -20.796875 
Q 24.46875 -20.796875 20.265625 -20.09375 
Q 16.0625 -19.390625 12.109375 -17.921875 
L 12.109375 -9.1875 
Q 16.0625 -11.328125 19.921875 -12.34375 
Q 23.78125 -13.375 27.78125 -13.375 
Q 36.625 -13.375 41.015625 -8.765625 
Q 45.40625 -4.15625 45.40625 5.171875 
L 45.40625 9.625 
Q 42.625 4.78125 38.28125 2.390625 
Q 33.9375 0 27.875 0 
Q 17.828125 0 11.671875 7.65625 
Q 5.515625 15.328125 5.515625 27.984375 
Q 5.515625 40.671875 11.671875 48.328125 
Q 17.828125 56 27.875 56 
Q 33.9375 56 38.28125 53.609375 
Q 42.625 51.21875 45.40625 46.390625 
L 45.40625 54.6875 
L 54.390625 54.6875 
z
" id="DejaVuSans-103"/>
      <path d="M 18.3125 70.21875 
L 18.3125 54.6875 
L 36.8125 54.6875 
L 36.8125 47.703125 
L 18.3125 47.703125 
L 18.3125 18.015625 
Q 18.3125 11.328125 20.140625 9.421875 
Q 21.96875 7.515625 27.59375 7.515625 
L 36.8125 7.515625 
L 36.8125 0 
L 27.59375 0 
Q 17.1875 0 13.234375 3.875 
Q 9.28125 7.765625 9.28125 18.015625 
L 9.28125 47.703125 
L 2.6875 47.703125 
L 2.6875 54.6875 
L 9.28125 54.6875 
L 9.28125 70.21875 
z
" id="DejaVuSans-116"/>
      <path d="M 54.890625 33.015625 
L 54.890625 0 
L 45.90625 0 
L 45.90625 32.71875 
Q 45.90625 40.484375 42.875 44.328125 
Q 39.84375 48.1875 33.796875 48.1875 
Q 26.515625 48.1875 22.3125 43.546875 
Q 18.109375 38.921875 18.109375 30.90625 
L 18.109375 0 
L 9.078125 0 
L 9.078125 75.984375 
L 18.109375 75.984375 
L 18.109375 46.1875 
Q 21.34375 51.125 25.703125 53.5625 
Q 30.078125 56 35.796875 56 
Q 45.21875 56 50.046875 50.171875 
Q 54.890625 44.34375 54.890625 33.015625 
z
" id="DejaVuSans-104"/>
     </defs>
     <g transform="translate(22.756178 661.697574)rotate(-90)scale(0.26 -0.26)">
      <use xlink:href="#DejaVuSans-76"/>
      <use x="55.697266" xlink:href="#DejaVuSans-101"/>
      <use x="117.220703" xlink:href="#DejaVuSans-110"/>
      <use x="180.599609" xlink:href="#DejaVuSans-103"/>
      <use x="244.076172" xlink:href="#DejaVuSans-116"/>
      <use x="283.285156" xlink:href="#DejaVuSans-104"/>
      <use x="346.664062" xlink:href="#DejaVuSans-32"/>
      <use x="378.451172" xlink:href="#DejaVuSans-91"/>
      <use x="417.464844" xlink:href="#DejaVuSans-109"/>
      <use x="514.876953" xlink:href="#DejaVuSans-93"/>
     </g>
    </g>
   </g>
   <g id="line2d_14">
    <path clip-path="url(#p822cb9a666)" d="M 220.593286 197.156708 
L 222.327315 197.156708 
L 223.193154 200.851966 
L 224.057602 209.611383 
L 224.923714 208.281215 
L 225.790328 204.409658 
L 226.656561 202.889497 
L 227.523385 202.373913 
L 228.389516 197.156708 
L 230.120584 197.156708 
L 230.988285 464.0488 
L 231.852694 982.226877 
L 233.586373 982.226877 
L 234.451367 197.156708 
L 237.050168 197.156708 
L 237.915282 421.839084 
L 238.782246 982.226877 
L 239.647875 982.226877 
L 240.51374 203.019729 
L 241.382476 197.156708 
L 243.11247 197.156708 
L 243.979148 982.226877 
L 245.71061 982.226877 
L 246.577084 197.156708 
L 249.176304 197.156708 
L 250.041158 633.271868 
L 250.908554 982.226877 
L 251.775892 982.226877 
L 252.638986 509.373202 
L 253.506471 197.156708 
L 256.104356 197.156708 
L 256.970329 982.226877 
L 258.704942 982.226877 
L 259.569028 197.156708 
L 262.169772 197.156708 
L 263.032498 870.839458 
L 263.899563 982.226877 
L 264.765936 982.226877 
L 265.632372 197.156708 
L 268.232246 197.156708 
L 269.095607 363.922455 
L 269.962126 982.226877 
L 270.827793 982.226877 
L 271.694249 539.162099 
L 272.561473 197.156708 
L 275.159276 197.156708 
L 276.025153 982.226877 
L 276.894652 982.226877 
L 277.764849 813.942509 
L 278.624233 197.156708 
L 281.221127 197.156708 
L 282.08776 982.226877 
L 282.957081 982.226877 
L 283.819146 940.27167 
L 284.685639 197.156708 
L 287.284414 197.156708 
L 288.150647 982.226877 
L 289.017357 982.226877 
L 289.882452 951.491869 
L 290.753298 197.156708 
L 293.347308 197.156708 
L 294.212702 982.226877 
L 295.079793 982.226877 
L 295.946165 856.251787 
L 296.811407 197.156708 
L 299.414928 197.156708 
L 300.276574 982.226877 
L 301.142641 982.226877 
L 302.008684 647.336266 
L 302.874802 197.156708 
L 304.607008 197.156708 
L 305.473654 211.0643 
L 306.339067 982.226877 
L 307.204429 982.226877 
L 308.071196 311.876411 
L 308.936838 197.156708 
L 310.668751 197.156708 
L 312.401109 982.226877 
L 313.267621 982.226877 
L 314.134337 197.156708 
L 316.732858 197.156708 
L 317.598932 982.226877 
L 318.465057 982.226877 
L 319.331576 831.54265 
L 320.198863 197.156708 
L 322.79713 197.156708 
L 323.660485 982.226877 
L 324.528077 982.226877 
L 325.39295 202.217097 
L 326.258268 197.156708 
L 327.991744 197.156708 
L 328.858289 839.769536 
L 329.722488 982.226877 
L 330.588435 901.862249 
L 331.454802 197.156708 
L 334.054511 197.156708 
L 334.919924 982.226877 
L 335.792333 982.226877 
L 336.652803 197.156708 
L 339.250421 197.156708 
L 340.118421 982.100267 
L 340.983313 982.226877 
L 341.849933 624.874842 
L 342.714858 197.156708 
L 344.448073 197.156708 
L 346.179433 982.226877 
L 347.047293 963.612698 
L 347.913214 197.156708 
L 349.644943 197.156708 
L 350.510827 206.913417 
L 351.377867 982.226877 
L 352.245402 982.226877 
L 353.108445 197.156708 
L 355.706598 197.156708 
L 356.573542 982.226877 
L 357.440912 982.226877 
L 358.307056 197.156708 
L 360.904637 197.156708 
L 361.77099 982.226877 
L 362.635934 982.226877 
L 363.503812 298.677052 
L 364.367764 197.156708 
L 366.099963 197.156708 
L 366.96732 962.681078 
L 367.832505 982.226877 
L 368.698801 330.239317 
L 369.565371 197.156708 
L 371.297379 197.156708 
L 372.164413 958.672088 
L 373.028911 982.226877 
L 373.897444 272.994225 
L 374.763607 197.156708 
L 376.493258 197.156708 
L 377.359771 982.226877 
L 378.23176 982.226877 
L 379.091652 197.156708 
L 381.689932 197.156708 
L 382.556101 982.226877 
L 383.427569 982.226877 
L 384.289355 197.156708 
L 386.020492 197.156708 
L 386.890811 319.820752 
L 387.75292 982.226877 
L 388.618638 787.305228 
L 389.48719 197.156708 
L 391.220146 197.156708 
L 392.086245 641.89726 
L 392.95176 982.226877 
L 393.815737 448.972407 
L 394.681424 197.156708 
L 396.414341 197.156708 
L 397.279627 934.169322 
L 398.146521 978.996454 
L 399.014819 197.156708 
L 400.744527 197.156708 
L 401.61027 379.510654 
L 402.478352 982.226877 
L 404.209045 197.156708 
L 405.94026 197.156708 
L 406.807268 834.543758 
L 407.674549 950.838353 
L 408.539842 197.156708 
L 410.278286 197.156708 
L 411.137619 422.197604 
L 412.004392 982.226877 
L 412.870523 488.486708 
L 413.73586 197.156708 
L 415.468606 197.156708 
L 416.335016 900.34483 
L 417.202933 771.901688 
L 418.068804 197.156708 
L 419.799262 197.156708 
L 420.666569 681.302663 
L 421.53425 904.014264 
L 422.398444 197.156708 
L 424.129137 197.156708 
L 424.996361 445.851838 
L 425.862085 925.642794 
L 426.728369 375.14262 
L 427.593789 197.156708 
L 428.460187 197.156708 
L 429.326528 241.714594 
L 430.192424 879.763786 
L 431.924305 197.156708 
L 433.656491 197.156708 
L 434.522858 804.651342 
L 435.389103 620.95071 
L 436.254955 197.156708 
L 437.987021 197.156708 
L 438.854359 729.794927 
L 439.721691 655.587316 
L 440.587835 197.156708 
L 442.317664 197.156708 
L 443.184469 667.64341 
L 444.050155 654.630755 
L 444.916534 197.156708 
L 446.650474 197.156708 
L 447.520284 619.248734 
L 448.381555 631.051821 
L 449.247369 197.156708 
L 450.978856 197.156708 
L 451.848132 575.386126 
L 452.711099 600.201414 
L 453.578108 197.156708 
L 455.310503 197.156708 
L 456.176597 533.805843 
L 457.041883 564.220615 
L 457.909615 197.156708 
L 459.642329 197.156708 
L 460.507463 494.290301 
L 461.374159 522.431197 
L 462.237914 197.156708 
L 463.970793 197.156708 
L 464.837305 457.009005 
L 465.704612 475.469579 
L 466.56913 197.156708 
L 468.301379 197.156708 
L 469.168483 422.938532 
L 470.033324 424.672303 
L 470.90072 197.156708 
L 472.632976 197.156708 
L 473.500105 393.175814 
L 474.371459 371.251904 
L 475.232132 197.156708 
L 476.961402 197.156708 
L 477.828397 367.387079 
L 478.694472 326.41954 
L 479.560832 197.156708 
L 481.295864 197.156708 
L 482.161525 349.785247 
L 483.028267 290.969064 
L 483.891176 197.156708 
L 485.622842 197.156708 
L 486.490733 338.763953 
L 487.356 258.970682 
L 488.223961 197.156708 
L 489.95475 197.156708 
L 490.820163 327.481431 
L 491.686396 224.497197 
L 492.553588 197.156708 
L 494.285075 197.156708 
L 495.152821 312.328338 
L 496.016512 197.156708 
L 498.615185 197.156708 
L 499.481812 292.407422 
L 500.349437 197.156708 
L 502.948034 197.156708 
L 503.812926 267.38705 
L 504.677875 197.156708 
L 507.276511 197.156708 
L 508.143156 237.230697 
L 509.013233 197.156708 
L 511.608641 197.156708 
L 512.473571 202.570802 
L 513.338711 197.156708 
L 1033.008116 197.156708 
L 1033.871763 333.085257 
L 1034.740544 982.226877 
L 1037.337191 982.226877 
L 1038.208456 197.156708 
L 1042.533108 197.156708 
L 1043.400796 760.557469 
L 1044.265586 829.307376 
L 1045.132232 197.156708 
L 1046.864495 197.156708 
L 1047.730855 662.922588 
L 1048.595766 850.384658 
L 1049.463594 197.156708 
L 1051.199853 197.156708 
L 1052.92639 836.405279 
L 1053.793182 265.565704 
L 1054.660959 197.156708 
L 1055.527154 197.156708 
L 1056.391252 411.458877 
L 1057.257244 799.906243 
L 1058.125211 360.164254 
L 1058.989595 197.156708 
L 1059.856908 197.156708 
L 1060.72377 293.256166 
L 1061.590448 744.462115 
L 1062.454597 431.477034 
L 1063.322354 197.156708 
L 1065.055856 197.156708 
L 1065.918683 672.197124 
L 1066.783614 477.311958 
L 1067.650024 197.156708 
L 1069.382967 197.156708 
L 1070.248545 586.846285 
L 1071.115776 496.552272 
L 1071.983121 197.156708 
L 1073.713051 197.156708 
L 1074.579055 494.800232 
L 1075.444977 490.754923 
L 1076.311788 197.156708 
L 1078.046001 197.156708 
L 1078.910951 402.991142 
L 1079.777794 462.52536 
L 1080.643143 197.156708 
L 1082.373519 197.156708 
L 1083.240711 319.423425 
L 1084.107802 417.923468 
L 1084.975801 197.156708 
L 1086.70509 197.156708 
L 1087.572663 251.680485 
L 1088.437263 359.841981 
L 1089.303325 198.738855 
L 1090.17039 197.156708 
L 1091.035759 197.156708 
L 1091.901801 206.738007 
L 1092.771135 296.835698 
L 1093.633657 197.156708 
L 1096.232737 197.156708 
L 1097.098017 247.579657 
L 1097.963246 197.156708 
L 1100.563336 197.156708 
L 1101.430433 214.812257 
L 1102.295764 197.156708 
L 1841.088885 197.156708 
L 1841.95405 982.226877 
L 1842.82135 982.226877 
L 1843.687634 197.156708 
L 1846.285647 197.156708 
L 1847.151409 982.226877 
L 1850.617224 982.226877 
L 1851.483788 197.156708 
L 1854.947283 197.156708 
L 1855.812176 982.226877 
L 1857.545715 982.226877 
L 1858.410277 669.180704 
L 1859.277457 197.156708 
L 1861.876511 197.156708 
L 1862.747217 386.62481 
L 1863.60906 982.226877 
L 1865.340541 982.226877 
L 1866.204829 197.156708 
L 1869.670746 197.156708 
L 1870.536299 982.226877 
L 1872.268536 982.226877 
L 1873.13468 742.109086 
L 1873.999941 197.156708 
L 1876.597616 197.156708 
L 1878.332007 982.226877 
L 1880.062713 982.226877 
L 1880.928953 197.156708 
L 1884.395098 197.156708 
L 1885.260575 982.226877 
L 1886.991738 982.226877 
L 1887.859197 197.156708 
L 1891.322292 197.156708 
L 1892.188506 982.226877 
L 1893.920959 982.226877 
L 1894.789035 197.156708 
L 1898.254227 197.156708 
L 1899.119342 982.226877 
L 1900.85034 982.226877 
L 1901.718295 197.156708 
L 1905.181714 197.156708 
L 1906.046994 982.226877 
L 1907.778405 982.226877 
L 1908.645852 197.156708 
L 1912.110135 197.156708 
L 1912.976254 982.226877 
L 1914.708986 982.226877 
L 1915.575537 197.156708 
L 1918.172234 197.156708 
L 1919.037857 530.594312 
L 1919.903931 982.226877 
L 1920.771047 982.226877 
L 1921.637109 778.829587 
L 1922.50289 197.156708 
L 1925.101024 197.156708 
L 1925.968928 982.226877 
L 1927.698928 982.226877 
L 1928.568001 197.156708 
L 1932.029172 197.156708 
L 1932.89536 982.226877 
L 1933.762978 982.226877 
L 1934.62841 957.329341 
L 1935.493741 197.156708 
L 1938.099721 197.156708 
L 1938.959461 982.226877 
L 1940.691463 982.226877 
L 1941.55882 197.156708 
L 1944.156794 197.156708 
L 1945.021826 424.99851 
L 1945.888599 982.226877 
L 1946.755322 982.226877 
L 1947.619712 552.332161 
L 1948.487031 197.156708 
L 1951.086359 197.156708 
L 1951.951156 982.226877 
L 1952.821036 982.226877 
L 1953.684067 952.283395 
L 1954.549569 197.156708 
L 1957.147092 197.156708 
L 1958.014278 982.226877 
L 1959.74919 982.226877 
L 1960.611071 197.156708 
L 1963.208562 197.156708 
L 1964.07789 982.226877 
L 1965.808786 982.226877 
L 1966.673322 197.156708 
L 1969.272993 197.156708 
L 1970.140154 917.205827 
L 1971.007136 982.226877 
L 1971.871165 982.226877 
L 1972.737779 197.156708 
L 1975.336185 197.156708 
L 1976.203111 948.412307 
L 1977.06773 982.226877 
L 1977.936701 982.226877 
L 1978.800037 197.156708 
L 1981.399873 197.156708 
L 1982.264416 982.226877 
L 1983.995928 982.226877 
L 1984.865599 197.156708 
L 1987.460364 197.156708 
L 1988.326585 982.226877 
L 1989.193853 982.226877 
L 1990.059514 684.643529 
L 1990.925474 197.156708 
L 1992.659503 197.156708 
L 1993.524421 229.146497 
L 1994.394764 982.226877 
L 1995.255666 982.226877 
L 1996.122293 239.697383 
L 1996.987745 197.156708 
L 1998.722987 197.156708 
L 1999.586266 722.305342 
L 2000.451793 982.226877 
L 2001.318528 982.226877 
L 2002.186229 197.156708 
L 2004.783619 197.156708 
L 2005.653149 982.226877 
L 2006.5159 982.226877 
L 2007.38193 561.700054 
L 2008.247794 197.156708 
L 2009.979478 197.156708 
L 2010.84777 512.98226 
L 2011.713177 982.226877 
L 2012.578158 982.226877 
L 2013.44488 197.156708 
L 2016.043484 197.156708 
L 2016.908338 982.226877 
L 2017.775721 982.226877 
L 2018.640429 455.539626 
L 2019.507361 197.156708 
L 2021.2413 197.156708 
L 2022.105742 698.851485 
L 2022.971485 982.226877 
L 2023.838957 915.340328 
L 2024.704104 197.156708 
L 2026.435655 197.156708 
L 2027.30265 235.825118 
L 2028.168152 982.226877 
L 2029.037772 982.226877 
L 2029.899315 197.156708 
L 2032.499024 197.156708 
L 2033.366407 982.226877 
L 2034.231986 982.226877 
L 2035.097946 281.881489 
L 2035.962978 197.156708 
L 2037.695488 197.156708 
L 2038.561422 933.353829 
L 2039.427547 982.226877 
L 2040.292598 495.77667 
L 2041.159822 197.156708 
L 2042.892225 197.156708 
L 2043.75861 792.342431 
L 2044.624042 982.226877 
L 2046.356368 197.156708 
L 2048.088644 197.156708 
L 2048.955594 722.272506 
L 2049.822075 982.226877 
L 2050.686732 624.907031 
L 2051.553537 197.156708 
L 2053.286289 197.156708 
L 2054.15174 728.023714 
L 2055.017611 982.226877 
L 2056.749429 197.156708 
L 2058.483763 197.156708 
L 2059.34692 802.640396 
L 2060.215574 982.226877 
L 2061.081311 423.876188 
L 2061.948675 197.156708 
L 2063.683123 197.156708 
L 2064.545207 925.699799 
L 2065.411802 982.226877 
L 2066.27644 197.156708 
L 2068.876696 197.156708 
L 2069.741054 982.226877 
L 2070.607688 971.421649 
L 2071.477097 197.156708 
L 2073.205713 197.156708 
L 2074.078827 385.152747 
L 2074.940148 982.226877 
L 2075.805797 691.905036 
L 2076.670022 197.156708 
L 2078.40414 197.156708 
L 2079.268358 753.495475 
L 2080.134928 982.226877 
L 2081.002502 264.265173 
L 2081.86794 197.156708 
L 2083.603647 197.156708 
L 2084.465082 982.226877 
L 2085.331855 809.277267 
L 2086.198603 197.156708 
L 2087.930707 197.156708 
L 2088.797302 646.184489 
L 2089.663052 982.226877 
L 2090.531038 296.086728 
L 2091.396909 197.156708 
L 2093.127818 197.156708 
L 2093.998403 982.226877 
L 2094.858505 694.708948 
L 2095.725767 197.156708 
L 2097.457401 197.156708 
L 2098.323773 764.497559 
L 2099.191099 901.820335 
L 2100.054937 197.156708 
L 2101.787784 197.156708 
L 2102.654118 486.874383 
L 2103.520046 957.171301 
L 2104.387334 360.868807 
L 2105.254075 197.156708 
L 2106.117887 197.156708 
L 2106.984755 225.418662 
L 2107.851954 909.12502 
L 2109.583251 197.156708 
L 2111.317871 197.156708 
L 2112.18437 811.209064 
L 2113.049028 694.900793 
L 2113.912694 197.156708 
L 2115.645636 197.156708 
L 2116.511786 702.450922 
L 2117.377752 748.490407 
L 2118.244995 197.156708 
L 2119.976013 197.156708 
L 2120.841648 609.793704 
L 2121.708955 758.002117 
L 2122.575035 197.156708 
L 2124.308175 197.156708 
L 2125.173289 541.567979 
L 2126.04268 740.373705 
L 2126.905939 197.156708 
L 2128.636683 197.156708 
L 2129.504473 495.700965 
L 2130.368933 707.061061 
L 2131.235763 197.156708 
L 2132.968242 197.156708 
L 2133.833337 457.256799 
L 2134.701839 667.729337 
L 2135.566712 197.156708 
L 2137.298549 197.156708 
L 2139.030926 624.813782 
L 2139.897076 197.156708 
L 2141.629796 197.156708 
L 2143.361474 577.215055 
L 2144.22697 197.156708 
L 2145.959327 197.156708 
L 2147.691819 526.196396 
L 2148.557207 197.156708 
L 2150.289412 197.156708 
L 2151.155569 345.021279 
L 2152.022145 473.069649 
L 2152.888594 197.156708 
L 2154.622019 197.156708 
L 2155.490717 329.119197 
L 2156.352413 419.074708 
L 2157.218443 197.156708 
L 2158.95204 197.156708 
L 2159.817091 315.469459 
L 2160.68401 374.199453 
L 2161.548216 197.156708 
L 2163.282861 197.156708 
L 2164.148071 308.198225 
L 2165.013427 339.748997 
L 2165.88182 197.156708 
L 2167.617114 197.156708 
L 2168.477736 306.17636 
L 2169.346422 309.426358 
L 2170.213493 197.156708 
L 2171.944885 197.156708 
L 2172.807617 304.367612 
L 2173.677199 277.19548 
L 2174.540528 197.156708 
L 2176.274932 197.156708 
L 2177.141641 298.659483 
L 2178.006476 242.410078 
L 2178.878383 197.156708 
L 2180.603046 197.156708 
L 2181.4721 287.895672 
L 2182.335627 205.541334 
L 2183.202177 197.156708 
L 2184.936085 197.156708 
L 2185.800857 271.631064 
L 2186.667229 197.156708 
L 2189.265935 197.156708 
L 2190.132777 249.378796 
L 2190.996672 197.156708 
L 2193.597404 197.156708 
L 2194.462735 221.157251 
L 2195.330169 197.156708 
L 2639.643461 197.156708 
L 2640.510602 982.226877 
L 2643.10777 982.226877 
L 2643.976131 197.156708 
L 2647.438496 197.156708 
L 2648.304519 982.226877 
L 2649.169646 799.170301 
L 2650.036267 197.156708 
L 2652.634057 197.156708 
L 2653.501078 982.226877 
L 2654.365989 982.226877 
L 2655.235742 962.489889 
L 2656.100609 197.156708 
L 2658.696944 197.156708 
L 2659.564282 982.226877 
L 2660.42927 982.226877 
L 2661.295941 829.132256 
L 2662.16396 197.156708 
L 2663.894634 197.156708 
L 2664.75971 260.514942 
L 2665.626344 982.226877 
L 2666.492716 982.226877 
L 2667.357837 551.522495 
L 2668.225385 197.156708 
L 2669.959567 197.156708 
L 2671.688976 982.226877 
L 2672.557757 982.226877 
L 2673.424606 197.156708 
L 2676.018794 197.156708 
L 2676.885287 982.226877 
L 2678.617632 982.226877 
L 2679.48438 197.156708 
L 2682.082138 197.156708 
L 2682.94834 982.226877 
L 2683.81475 982.226877 
L 2684.681244 500.357946 
L 2685.548201 197.156708 
L 2687.278602 197.156708 
L 2688.145108 819.352457 
L 2689.012542 982.226877 
L 2689.876881 982.226877 
L 2690.743616 197.156708 
L 2693.342785 197.156708 
L 2694.209329 982.226877 
L 2695.075638 982.226877 
L 2695.940238 332.848554 
L 2696.806395 197.156708 
L 2698.539649 197.156708 
L 2699.405018 982.226877 
L 2700.269459 982.226877 
L 2701.136956 795.138073 
L 2702.003761 197.156708 
L 2703.735826 197.156708 
L 2704.600795 659.843878 
L 2705.468635 982.226877 
L 2706.334169 982.226877 
L 2707.198839 197.156708 
L 2708.931515 197.156708 
L 2709.798701 366.652708 
L 2710.66297 982.226877 
L 2711.534617 982.226877 
L 2712.396395 197.156708 
L 2714.995717 197.156708 
L 2715.860164 982.226877 
L 2716.726779 982.226877 
L 2717.59371 197.156708 
L 2720.191049 197.156708 
L 2721.057352 982.226877 
L 2721.924144 982.226877 
L 2722.789558 197.156708 
L 2724.524539 197.156708 
L 2725.388631 210.482836 
L 2726.254762 982.226877 
L 2727.118949 982.226877 
L 2727.985608 197.156708 
L 2729.718074 197.156708 
L 2730.585673 384.762861 
L 2731.452744 982.226877 
L 2732.318564 948.291704 
L 2733.18319 197.156708 
L 2734.91523 197.156708 
L 2735.783413 643.283374 
L 2736.649125 982.226877 
L 2737.514818 673.045268 
L 2738.37971 197.156708 
L 2740.11156 197.156708 
L 2740.980067 927.892885 
L 2741.845837 982.226877 
L 2742.709598 259.513023 
L 2743.576619 197.156708 
L 2744.443652 197.156708 
L 2745.30857 234.40695 
L 2746.175241 982.226877 
L 2747.040299 878.907902 
L 2747.907542 197.156708 
L 2749.639518 197.156708 
L 2750.504214 745.956756 
L 2750.504214 745.956756 
" style="fill:none;stroke:#008000;stroke-linecap:square;stroke-width:3;"/>
   </g>
   <g id="line2d_15">
    <path clip-path="url(#p822cb9a666)" d="M 220.593286 208.74556 
L 221.46356 230.472256 
L 222.327315 218.302223 
L 223.193154 197.156708 
L 227.523385 197.156708 
L 228.389516 982.226877 
L 230.120584 982.226877 
L 230.988285 197.156708 
L 233.586373 197.156708 
L 234.451367 982.226877 
L 236.184449 982.226877 
L 237.050168 880.530211 
L 237.915282 197.156708 
L 240.51374 197.156708 
L 241.382476 982.226877 
L 242.246549 982.226877 
L 243.11247 367.340893 
L 243.979148 197.156708 
L 245.71061 197.156708 
L 246.577084 941.924589 
L 247.442701 982.226877 
L 249.176304 982.226877 
L 250.041158 197.156708 
L 252.638986 197.156708 
L 253.506471 982.226877 
L 255.239007 982.226877 
L 256.104356 688.65364 
L 256.970329 197.156708 
L 258.704942 197.156708 
L 259.569028 982.226877 
L 262.169772 982.226877 
L 263.032498 197.156708 
L 264.765936 197.156708 
L 265.632372 325.889218 
L 266.497334 982.226877 
L 268.232246 982.226877 
L 269.095607 197.156708 
L 271.694249 197.156708 
L 272.561473 982.226877 
L 274.292852 982.226877 
L 275.159276 438.060004 
L 276.025153 197.156708 
L 277.764849 197.156708 
L 278.624233 982.226877 
L 280.35471 982.226877 
L 281.221127 690.4627 
L 282.08776 197.156708 
L 283.819146 197.156708 
L 284.685639 982.226877 
L 286.419204 982.226877 
L 287.284414 779.528883 
L 288.150647 197.156708 
L 289.882452 197.156708 
L 290.753298 982.226877 
L 292.481786 982.226877 
L 293.347308 722.791015 
L 294.212702 197.156708 
L 295.946165 197.156708 
L 296.811407 982.226877 
L 298.545245 982.226877 
L 299.414928 522.321782 
L 300.276574 197.156708 
L 302.008684 197.156708 
L 302.874802 982.226877 
L 304.607008 982.226877 
L 305.473654 197.156708 
L 308.071196 197.156708 
L 308.936838 982.226877 
L 310.668751 982.226877 
L 311.53661 197.156708 
L 313.267621 197.156708 
L 315.000411 982.226877 
L 315.867559 982.226877 
L 316.732858 935.681571 
L 317.598932 197.156708 
L 319.331576 197.156708 
L 320.198863 982.226877 
L 321.928661 982.226877 
L 322.79713 234.529986 
L 323.660485 197.156708 
L 325.39295 197.156708 
L 326.258268 982.226877 
L 327.991744 982.226877 
L 328.858289 197.156708 
L 330.588435 197.156708 
L 331.454802 982.226877 
L 333.187623 982.226877 
L 334.054511 226.888222 
L 334.919924 197.156708 
L 335.792333 197.156708 
L 336.652803 306.406404 
L 337.519379 982.226877 
L 338.384246 982.226877 
L 339.250421 883.509442 
L 340.118421 197.156708 
L 341.849933 197.156708 
L 342.714858 982.226877 
L 344.448073 982.226877 
L 345.314478 197.156708 
L 347.047293 197.156708 
L 347.913214 857.625976 
L 348.780737 982.226877 
L 349.644943 982.226877 
L 350.510827 197.156708 
L 352.245402 197.156708 
L 353.108445 490.259628 
L 353.975339 982.226877 
L 354.841794 982.226877 
L 355.706598 495.238704 
L 356.573542 197.156708 
L 357.440912 197.156708 
L 358.307056 227.000492 
L 359.171237 982.226877 
L 360.038188 982.226877 
L 360.904637 680.387951 
L 361.77099 197.156708 
L 363.503812 197.156708 
L 364.367764 982.226877 
L 365.234778 982.226877 
L 366.099963 752.669772 
L 366.96732 197.156708 
L 368.698801 197.156708 
L 369.565371 982.226877 
L 370.430956 982.226877 
L 371.297379 724.465108 
L 372.164413 197.156708 
L 373.897444 197.156708 
L 374.763607 982.226877 
L 375.628366 982.226877 
L 377.359771 197.156708 
L 378.23176 197.156708 
L 379.091652 275.660467 
L 379.962638 982.226877 
L 380.823769 982.226877 
L 381.689932 373.436681 
L 382.556101 197.156708 
L 383.427569 197.156708 
L 384.289355 533.634704 
L 385.15431 982.226877 
L 386.020492 982.226877 
L 386.890811 197.156708 
L 388.618638 197.156708 
L 389.48719 854.441285 
L 390.350761 982.226877 
L 391.220146 982.226877 
L 392.086245 197.156708 
L 393.815737 197.156708 
L 394.681424 982.226877 
L 395.549766 982.226877 
L 396.414341 562.642174 
L 397.279627 197.156708 
L 398.146521 197.156708 
L 399.014819 430.193933 
L 399.878167 982.226877 
L 400.744527 982.226877 
L 401.61027 197.156708 
L 403.344947 197.156708 
L 404.209045 965.98892 
L 405.07742 982.226877 
L 405.94026 653.327351 
L 406.807268 197.156708 
L 407.674549 197.156708 
L 408.539842 376.074 
L 409.406538 982.226877 
L 410.278286 982.226877 
L 411.137619 197.156708 
L 412.870523 197.156708 
L 413.73586 982.226877 
L 414.602131 982.226877 
L 415.468606 405.226096 
L 416.335016 197.156708 
L 417.202933 197.156708 
L 418.068804 637.106747 
L 418.933772 982.226877 
L 419.799262 753.644149 
L 420.666569 197.156708 
L 421.53425 197.156708 
L 422.398444 272.926599 
L 423.263495 982.226877 
L 424.129137 966.255458 
L 424.996361 197.156708 
L 426.728369 197.156708 
L 427.593789 982.226877 
L 428.460187 982.226877 
L 429.326528 197.156708 
L 431.060309 197.156708 
L 431.924305 820.933823 
L 432.791059 982.226877 
L 433.656491 320.706378 
L 434.522858 197.156708 
L 435.389103 197.156708 
L 436.254955 663.857571 
L 437.121169 982.226877 
L 437.987021 431.441323 
L 438.854359 197.156708 
L 439.721691 197.156708 
L 440.587835 550.81604 
L 441.451616 982.226877 
L 442.317664 487.385856 
L 443.184469 197.156708 
L 444.050155 197.156708 
L 444.916534 483.427286 
L 445.78285 982.226877 
L 446.650474 504.038547 
L 447.520284 197.156708 
L 448.381555 197.156708 
L 449.247369 451.454041 
L 450.114192 954.945399 
L 450.978856 507.731818 
L 451.848132 197.156708 
L 452.711099 197.156708 
L 453.578108 432.172562 
L 454.444366 909.393697 
L 455.310503 503.167793 
L 456.176597 197.156708 
L 457.041883 197.156708 
L 457.909615 420.39873 
L 458.779031 862.402779 
L 459.642329 490.241262 
L 460.507463 197.156708 
L 461.374159 197.156708 
L 462.237914 415.453367 
L 463.104662 813.938394 
L 463.970793 469.488982 
L 464.837305 197.156708 
L 465.704612 197.156708 
L 466.56913 417.267644 
L 467.436881 764.563179 
L 468.301379 441.556239 
L 469.168483 197.156708 
L 470.033324 197.156708 
L 470.90072 425.463153 
L 471.7668 716.161436 
L 472.632976 406.703797 
L 473.500105 197.156708 
L 474.371459 197.156708 
L 476.098924 665.288654 
L 476.961402 377.259491 
L 477.828397 197.156708 
L 478.694472 197.156708 
L 479.560832 444.708328 
L 480.428907 628.227156 
L 481.295864 351.518911 
L 482.161525 197.156708 
L 483.028267 197.156708 
L 483.891176 453.778133 
L 484.758528 601.953941 
L 485.622842 323.860559 
L 486.490733 197.156708 
L 487.356 197.156708 
L 488.223961 469.732582 
L 489.088555 574.506432 
L 489.95475 293.564498 
L 490.820163 197.156708 
L 491.686396 197.156708 
L 492.553588 484.194846 
L 493.41801 542.906562 
L 494.285075 264.743333 
L 495.152821 197.156708 
L 496.016512 207.06506 
L 496.887637 493.548562 
L 497.749594 507.313779 
L 498.615185 239.064044 
L 499.481812 197.156708 
L 500.349437 249.119481 
L 501.217754 496.317478 
L 502.079984 468.201811 
L 502.948034 218.167195 
L 503.812926 197.156708 
L 504.677875 290.29012 
L 505.543371 490.907765 
L 506.410055 426.64548 
L 507.276511 203.999525 
L 508.143156 197.156708 
L 509.013233 327.960406 
L 509.875591 476.278946 
L 510.740311 384.654373 
L 511.608641 198.819237 
L 512.473571 197.156708 
L 513.338711 358.278539 
L 514.204944 452.180951 
L 515.071501 345.725658 
L 515.937677 204.843734 
L 516.806807 233.099401 
L 517.671922 375.740845 
L 518.536458 420.07268 
L 520.268295 223.04695 
L 521.136536 268.548244 
L 522.001085 374.215818 
L 522.867102 386.173054 
L 523.733201 302.971739 
L 524.599777 250.695676 
L 525.465477 291.534198 
L 526.33035 356.878597 
L 527.198108 356.840691 
L 528.063673 307.540169 
L 528.928788 282.315992 
L 529.796997 300.765861 
L 530.662137 328.839885 
L 531.527271 332.407969 
L 532.393573 323.956394 
L 533.260003 317.231415 
L 534.127234 316.562254 
L 537.591066 316.406612 
L 548.850645 316.162734 
L 567.036352 316.025258 
L 612.944263 315.979589 
L 1033.008116 315.978081 
L 1033.871763 197.156708 
L 1037.337191 197.156708 
L 1038.208456 938.399089 
L 1039.068869 982.226877 
L 1041.66711 982.226877 
L 1043.400796 197.156708 
L 1044.265586 197.156708 
L 1045.132232 394.565532 
L 1045.996737 982.226877 
L 1047.730855 197.156708 
L 1048.595766 197.156708 
L 1049.463594 245.009715 
L 1050.328136 940.570174 
L 1051.199853 688.282279 
L 1052.061117 197.156708 
L 1053.793182 197.156708 
L 1054.660959 849.244693 
L 1055.527154 739.883989 
L 1056.391252 197.156708 
L 1058.125211 197.156708 
L 1058.989595 744.891073 
L 1059.856908 763.388981 
L 1060.72377 197.156708 
L 1062.454597 197.156708 
L 1063.322354 633.971913 
L 1064.184953 760.830828 
L 1065.055856 206.598833 
L 1065.918683 197.156708 
L 1066.783614 197.156708 
L 1067.650024 522.955398 
L 1068.518278 734.466414 
L 1069.382967 295.934976 
L 1070.248545 197.156708 
L 1071.115776 197.156708 
L 1071.983121 418.70736 
L 1072.847219 688.5555 
L 1073.713051 362.448568 
L 1074.579055 197.156708 
L 1075.444977 197.156708 
L 1076.311788 328.599751 
L 1077.178834 625.38102 
L 1078.910951 197.156708 
L 1079.777794 197.156708 
L 1080.643143 258.326839 
L 1081.50916 549.758047 
L 1082.373519 416.207413 
L 1083.240711 197.156708 
L 1084.107802 197.156708 
L 1084.975801 213.347961 
L 1085.839067 470.412781 
L 1086.70509 405.330021 
L 1087.572663 197.156708 
L 1089.303325 197.156708 
L 1090.17039 396.839739 
L 1091.035759 376.383462 
L 1091.901801 197.156708 
L 1092.771135 197.156708 
L 1093.633657 200.307478 
L 1094.499788 341.009679 
L 1095.36705 335.22229 
L 1096.232737 210.076104 
L 1097.098017 197.156708 
L 1097.963246 211.645164 
L 1098.830375 309.394949 
L 1099.696366 307.987271 
L 1100.563336 226.475274 
L 1101.430433 197.156708 
L 1102.295764 213.240025 
L 1103.159887 274.178535 
L 1104.026984 283.932921 
L 1104.893986 247.77314 
L 1105.760676 218.627815 
L 1106.62574 221.799317 
L 1107.492736 240.150539 
L 1108.357571 249.290581 
L 1109.224045 249.566587 
L 1113.555572 247.832957 
L 1117.019976 246.745034 
L 1120.484228 245.869428 
L 1124.81517 245.048274 
L 1128.27871 244.533686 
L 1133.474723 243.953305 
L 1139.53665 243.475187 
L 1154.262368 242.901679 
L 1168.119496 242.678385 
L 1177.647639 242.625189 
L 1184.575348 242.586417 
L 1193.238592 242.577425 
L 1201.032109 242.557147 
L 1342.207538 242.558141 
L 1724.163675 242.545876 
L 1732.823889 242.558704 
L 1836.760433 242.55782 
L 1837.623375 923.309618 
L 1838.489913 882.479679 
L 1839.35591 982.226877 
L 1840.223903 982.226877 
L 1841.088885 684.069774 
L 1841.95405 197.156708 
L 1842.82135 197.156708 
L 1843.687634 732.679797 
L 1844.554191 982.226877 
L 1846.285647 982.226877 
L 1847.151409 197.156708 
L 1850.617224 197.156708 
L 1851.483788 982.226877 
L 1854.080243 982.226877 
L 1854.947283 889.917794 
L 1855.812176 197.156708 
L 1858.410277 197.156708 
L 1859.277457 982.226877 
L 1861.876511 982.226877 
L 1862.747217 197.156708 
L 1865.340541 197.156708 
L 1866.204829 701.940869 
L 1867.072079 982.226877 
L 1869.670746 982.226877 
L 1870.536299 197.156708 
L 1873.13468 197.156708 
L 1873.999941 982.226877 
L 1876.597616 982.226877 
L 1877.464364 197.156708 
L 1880.062713 197.156708 
L 1880.928953 982.226877 
L 1883.528554 982.226877 
L 1884.395098 425.071177 
L 1885.260575 197.156708 
L 1886.991738 197.156708 
L 1887.859197 640.253671 
L 1888.726313 982.226877 
L 1890.457324 982.226877 
L 1891.322292 792.707343 
L 1892.188506 197.156708 
L 1893.920959 197.156708 
L 1894.789035 378.392962 
L 1895.652764 982.226877 
L 1897.386323 982.226877 
L 1898.254227 890.850849 
L 1899.119342 197.156708 
L 1900.85034 197.156708 
L 1901.718295 374.827957 
L 1902.582888 982.226877 
L 1904.31362 982.226877 
L 1905.181714 754.66743 
L 1906.046994 197.156708 
L 1907.778405 197.156708 
L 1909.512065 982.226877 
L 1911.250313 982.226877 
L 1912.110135 388.099638 
L 1912.976254 197.156708 
L 1914.708986 197.156708 
L 1915.575537 982.226877 
L 1918.172234 982.226877 
L 1919.037857 197.156708 
L 1921.637109 197.156708 
L 1922.50289 982.226877 
L 1925.101024 982.226877 
L 1925.968928 197.156708 
L 1927.698928 197.156708 
L 1928.568001 372.75261 
L 1929.431165 982.226877 
L 1931.162538 982.226877 
L 1932.029172 262.683736 
L 1932.89536 197.156708 
L 1934.62841 197.156708 
L 1935.493741 982.226877 
L 1938.099721 982.226877 
L 1938.959461 197.156708 
L 1940.691463 197.156708 
L 1941.55882 492.340792 
L 1942.423306 982.226877 
L 1944.156794 982.226877 
L 1945.021826 197.156708 
L 1947.619712 197.156708 
L 1948.487031 982.226877 
L 1950.218875 982.226877 
L 1951.086359 542.482251 
L 1951.951156 197.156708 
L 1953.684067 197.156708 
L 1954.549569 982.226877 
L 1956.281399 982.226877 
L 1957.147092 944.705039 
L 1958.014278 197.156708 
L 1959.74919 197.156708 
L 1960.611071 933.216333 
L 1961.481523 982.226877 
L 1963.208562 982.226877 
L 1964.07789 197.156708 
L 1965.808786 197.156708 
L 1966.673322 752.035863 
L 1967.539848 982.226877 
L 1969.272993 982.226877 
L 1970.140154 197.156708 
L 1971.871165 197.156708 
L 1972.737779 721.717333 
L 1973.603338 982.226877 
L 1975.336185 982.226877 
L 1976.203111 197.156708 
L 1977.936701 197.156708 
L 1978.800037 833.310146 
L 1979.666333 982.226877 
L 1980.532928 982.226877 
L 1981.399873 966.360172 
L 1982.264416 197.156708 
L 1983.995928 197.156708 
L 1984.865599 982.226877 
L 1986.594958 982.226877 
L 1987.460364 635.690777 
L 1988.326585 197.156708 
L 1990.059514 197.156708 
L 1990.925474 982.226877 
L 1992.659503 982.226877 
L 1993.524421 197.156708 
L 1996.122293 197.156708 
L 1996.987745 982.226877 
L 1998.722987 982.226877 
L 1999.586266 197.156708 
L 2001.318528 197.156708 
L 2002.186229 788.995278 
L 2003.051877 982.226877 
L 2003.919495 982.226877 
L 2004.783619 660.115599 
L 2005.653149 197.156708 
L 2007.38193 197.156708 
L 2008.247794 982.226877 
L 2009.979478 982.226877 
L 2010.84777 197.156708 
L 2012.578158 197.156708 
L 2013.44488 647.988007 
L 2014.311107 982.226877 
L 2015.177683 982.226877 
L 2016.043484 638.859043 
L 2016.908338 197.156708 
L 2018.640429 197.156708 
L 2019.507361 982.226877 
L 2021.2413 982.226877 
L 2022.105742 197.156708 
L 2023.838957 197.156708 
L 2024.704104 956.048717 
L 2025.569828 982.226877 
L 2026.435655 982.226877 
L 2027.30265 197.156708 
L 2029.037772 197.156708 
L 2029.899315 477.589972 
L 2030.766711 982.226877 
L 2031.633389 982.226877 
L 2033.366407 197.156708 
L 2035.097946 197.156708 
L 2035.962978 982.226877 
L 2036.830786 982.226877 
L 2037.695488 861.825862 
L 2038.561422 197.156708 
L 2040.292598 197.156708 
L 2041.159822 982.226877 
L 2042.892225 982.226877 
L 2043.75861 197.156708 
L 2045.491895 197.156708 
L 2046.356368 982.226877 
L 2048.088644 982.226877 
L 2048.955594 197.156708 
L 2050.686732 197.156708 
L 2051.553537 982.226877 
L 2053.286289 982.226877 
L 2054.15174 197.156708 
L 2055.884613 197.156708 
L 2056.749429 982.226877 
L 2057.617034 982.226877 
L 2058.483763 917.578763 
L 2059.34692 197.156708 
L 2061.081311 197.156708 
L 2061.948675 982.226877 
L 2062.812265 982.226877 
L 2063.683123 705.142568 
L 2064.545207 197.156708 
L 2065.411802 197.156708 
L 2066.27644 199.073854 
L 2067.142978 982.226877 
L 2068.009351 982.226877 
L 2068.876696 386.983472 
L 2069.741054 197.156708 
L 2070.607688 197.156708 
L 2071.477097 550.67691 
L 2072.34077 982.226877 
L 2073.205713 982.226877 
L 2074.078827 197.156708 
L 2075.805797 197.156708 
L 2076.670022 939.884601 
L 2077.536217 982.226877 
L 2078.40414 852.254662 
L 2079.268358 197.156708 
L 2081.002502 197.156708 
L 2081.86794 982.226877 
L 2082.732591 982.226877 
L 2083.603647 290.568647 
L 2084.465082 197.156708 
L 2085.331855 197.156708 
L 2086.198603 711.97386 
L 2087.064436 982.226877 
L 2087.930707 913.608247 
L 2088.797302 197.156708 
L 2090.531038 197.156708 
L 2091.396909 982.226877 
L 2092.260143 982.226877 
L 2093.127818 222.018963 
L 2093.998403 197.156708 
L 2094.858505 197.156708 
L 2095.725767 795.900821 
L 2096.591047 982.226877 
L 2097.457401 677.555764 
L 2098.323773 197.156708 
L 2099.191099 197.156708 
L 2100.054937 366.88894 
L 2100.921805 982.226877 
L 2101.787784 968.334866 
L 2102.654118 197.156708 
L 2104.387334 197.156708 
L 2105.254075 982.226877 
L 2106.117887 982.226877 
L 2106.984755 197.156708 
L 2108.716433 197.156708 
L 2109.583251 820.311484 
L 2110.45125 982.226877 
L 2111.317871 401.302756 
L 2112.18437 197.156708 
L 2113.049028 197.156708 
L 2114.779714 982.226877 
L 2115.645636 562.086933 
L 2116.511786 197.156708 
L 2117.377752 197.156708 
L 2118.244995 437.456413 
L 2119.113185 982.226877 
L 2119.976013 653.913141 
L 2120.841648 197.156708 
L 2121.708955 197.156708 
L 2122.575035 326.818194 
L 2123.441027 982.226877 
L 2124.308175 691.748301 
L 2125.173289 197.156708 
L 2126.04268 197.156708 
L 2126.905939 268.373511 
L 2127.777764 969.948603 
L 2128.636683 693.197063 
L 2129.504473 197.156708 
L 2130.368933 197.156708 
L 2131.235763 249.421711 
L 2132.103191 921.962977 
L 2132.968242 681.723484 
L 2133.833337 197.156708 
L 2134.701839 197.156708 
L 2135.566712 244.130996 
L 2136.43229 876.581573 
L 2137.298549 662.63399 
L 2138.164134 197.156708 
L 2139.030926 197.156708 
L 2139.897076 246.775506 
L 2140.762318 832.35673 
L 2141.629796 635.66346 
L 2142.49655 197.156708 
L 2143.361474 197.156708 
L 2144.22697 256.727417 
L 2145.094003 787.544151 
L 2145.959327 601.750739 
L 2146.825611 197.156708 
L 2147.691819 197.156708 
L 2148.557207 274.159977 
L 2149.42262 744.697019 
L 2150.289412 561.28734 
L 2151.155569 197.156708 
L 2152.022145 197.156708 
L 2152.888594 297.901407 
L 2153.754992 704.794904 
L 2154.622019 515.408797 
L 2155.490717 197.156708 
L 2156.352413 197.156708 
L 2157.218443 325.956675 
L 2158.084453 662.421021 
L 2158.95204 476.233099 
L 2159.817091 197.156708 
L 2160.68401 197.156708 
L 2161.548216 348.46636 
L 2162.415986 629.78134 
L 2163.282861 443.791413 
L 2164.148071 197.156708 
L 2165.013427 197.156708 
L 2165.88182 369.09863 
L 2166.747863 610.538491 
L 2168.477736 197.156708 
L 2169.346422 197.156708 
L 2171.077839 591.784228 
L 2171.944885 376.617362 
L 2172.807617 197.156708 
L 2173.677199 197.156708 
L 2174.540528 418.051514 
L 2175.407326 568.41526 
L 2176.274932 341.444637 
L 2177.141641 197.156708 
L 2178.006476 197.156708 
L 2178.878383 439.297832 
L 2179.738243 540.028598 
L 2180.603046 307.754175 
L 2181.4721 197.156708 
L 2182.335627 197.156708 
L 2183.202177 455.137404 
L 2184.07017 506.573064 
L 2184.936085 277.001965 
L 2185.800857 197.156708 
L 2186.667229 231.346552 
L 2187.53331 463.674473 
L 2188.400903 468.545989 
L 2189.265935 251.260791 
L 2190.132777 197.156708 
L 2190.996672 274.635965 
L 2191.864011 462.766575 
L 2192.729665 427.243048 
L 2193.597404 233.086974 
L 2194.462735 197.156708 
L 2195.330169 313.862764 
L 2196.195182 450.659861 
L 2197.059559 385.386426 
L 2197.924712 225.463011 
L 2198.792749 207.539923 
L 2199.66017 343.329018 
L 2200.524307 427.539511 
L 2201.391175 348.320597 
L 2202.257084 231.376187 
L 2203.122275 244.700153 
L 2203.989778 354.397609 
L 2204.855611 396.900114 
L 2206.58734 251.767896 
L 2207.454227 274.271759 
L 2208.318884 347.485169 
L 2209.18607 365.331839 
L 2210.05318 319.160381 
L 2210.917494 280.916111 
L 2211.784909 292.908513 
L 2212.65097 326.505036 
L 2213.516383 335.543109 
L 2215.248589 315.000137 
L 2216.113907 313.711807 
L 2217.846411 313.924868 
L 2222.177283 314.49707 
L 2227.374712 314.97553 
L 2234.302873 315.381969 
L 2243.83078 315.686406 
L 2257.687622 315.874955 
L 2283.671287 315.9634 
L 2401.461884 315.978079 
L 2639.643461 315.978081 
L 2640.510602 197.156708 
L 2643.10777 197.156708 
L 2643.976131 982.226877 
L 2646.572682 982.226877 
L 2647.438496 469.164508 
L 2648.304519 197.156708 
L 2649.169646 197.156708 
L 2650.036267 982.226877 
L 2651.768326 982.226877 
L 2652.634057 434.435295 
L 2653.501078 197.156708 
L 2655.235742 197.156708 
L 2656.100609 982.226877 
L 2657.831181 982.226877 
L 2658.696944 361.567167 
L 2659.564282 197.156708 
L 2661.295941 197.156708 
L 2662.16396 982.226877 
L 2663.894634 982.226877 
L 2664.75971 197.156708 
L 2667.357837 197.156708 
L 2668.225385 982.226877 
L 2669.959567 982.226877 
L 2670.82397 197.156708 
L 2672.557757 197.156708 
L 2673.424606 275.584897 
L 2674.287148 982.226877 
L 2675.152351 982.226877 
L 2676.018794 932.614773 
L 2676.885287 197.156708 
L 2678.617632 197.156708 
L 2679.48438 834.135448 
L 2680.350092 982.226877 
L 2681.217017 982.226877 
L 2682.082138 305.126084 
L 2682.94834 197.156708 
L 2684.681244 197.156708 
L 2685.548201 982.226877 
L 2687.278602 982.226877 
L 2688.145108 197.156708 
L 2689.876881 197.156708 
L 2690.743616 711.638432 
L 2691.611171 982.226877 
L 2692.475262 982.226877 
L 2693.342785 263.486615 
L 2694.209329 197.156708 
L 2695.940238 197.156708 
L 2696.806395 982.226877 
L 2697.673842 982.226877 
L 2698.539649 816.812928 
L 2699.405018 197.156708 
L 2701.136956 197.156708 
L 2702.003761 982.226877 
L 2703.735826 982.226877 
L 2704.600795 197.156708 
L 2706.334169 197.156708 
L 2707.198839 717.814899 
L 2708.06701 982.226877 
L 2708.931515 982.226877 
L 2709.798701 197.156708 
L 2711.534617 197.156708 
L 2712.396395 473.564014 
L 2713.264109 982.226877 
L 2714.129185 982.226877 
L 2714.995717 201.808857 
L 2715.860164 197.156708 
L 2716.726779 197.156708 
L 2717.59371 351.883798 
L 2718.458571 982.226877 
L 2719.325992 982.226877 
L 2720.191049 252.771764 
L 2721.057352 197.156708 
L 2721.924144 197.156708 
L 2722.789558 353.880291 
L 2723.655416 982.226877 
L 2724.524539 982.226877 
L 2725.388631 197.156708 
L 2727.118949 197.156708 
L 2727.985608 470.104533 
L 2728.852368 982.226877 
L 2729.718074 982.226877 
L 2730.585673 197.156708 
L 2732.318564 197.156708 
L 2733.18319 683.252118 
L 2734.050897 982.226877 
L 2734.91523 982.226877 
L 2735.783413 197.156708 
L 2737.514818 197.156708 
L 2738.37971 949.841351 
L 2739.248193 982.226877 
L 2740.11156 646.761984 
L 2740.980067 197.156708 
L 2742.709598 197.156708 
L 2743.576619 982.226877 
L 2744.443652 982.226877 
L 2745.30857 197.156708 
L 2747.040299 197.156708 
L 2747.907542 648.240227 
L 2748.773883 982.226877 
L 2749.639518 788.349037 
L 2750.504214 197.156708 
L 2750.504214 197.156708 
" style="fill:none;stroke:#ff0000;stroke-linecap:square;stroke-width:3;"/>
   </g>
   <g id="patch_3">
    <path d="M 94.09774 1021.480385 
L 94.09774 157.9032 
" style="fill:none;stroke:#000000;stroke-linecap:square;stroke-linejoin:miter;stroke-width:0.8;"/>
   </g>
   <g id="patch_4">
    <path d="M 2876.99976 1021.480385 
L 2876.99976 157.9032 
" style="fill:none;stroke:#000000;stroke-linecap:square;stroke-linejoin:miter;stroke-width:0.8;"/>
   </g>
   <g id="patch_5">
    <path d="M 94.09774 1021.480385 
L 2876.99976 1021.480385 
" style="fill:none;stroke:#000000;stroke-linecap:square;stroke-linejoin:miter;stroke-width:0.8;"/>
   </g>
   <g id="patch_6">
    <path d="M 94.09774 157.9032 
L 2876.99976 157.9032 
" style="fill:none;stroke:#000000;stroke-linecap:square;stroke-linejoin:miter;stroke-width:0.8;"/>
   </g>
   <g id="text_16">
    <!-- Biceps (red) and Triceps (green) -->
    <defs>
     <path d="M 19.671875 34.8125 
L 19.671875 8.109375 
L 35.5 8.109375 
Q 43.453125 8.109375 47.28125 11.40625 
Q 51.125 14.703125 51.125 21.484375 
Q 51.125 28.328125 47.28125 31.5625 
Q 43.453125 34.8125 35.5 34.8125 
z
M 19.671875 64.796875 
L 19.671875 42.828125 
L 34.28125 42.828125 
Q 41.5 42.828125 45.03125 45.53125 
Q 48.578125 48.25 48.578125 53.8125 
Q 48.578125 59.328125 45.03125 62.0625 
Q 41.5 64.796875 34.28125 64.796875 
z
M 9.8125 72.90625 
L 35.015625 72.90625 
Q 46.296875 72.90625 52.390625 68.21875 
Q 58.5 63.53125 58.5 54.890625 
Q 58.5 48.1875 55.375 44.234375 
Q 52.25 40.28125 46.1875 39.3125 
Q 53.46875 37.75 57.5 32.78125 
Q 61.53125 27.828125 61.53125 20.40625 
Q 61.53125 10.640625 54.890625 5.3125 
Q 48.25 0 35.984375 0 
L 9.8125 0 
z
" id="DejaVuSans-66"/>
     <path d="M 48.78125 52.59375 
L 48.78125 44.1875 
Q 44.96875 46.296875 41.140625 47.34375 
Q 37.3125 48.390625 33.40625 48.390625 
Q 24.65625 48.390625 19.8125 42.84375 
Q 14.984375 37.3125 14.984375 27.296875 
Q 14.984375 17.28125 19.8125 11.734375 
Q 24.65625 6.203125 33.40625 6.203125 
Q 37.3125 6.203125 41.140625 7.25 
Q 44.96875 8.296875 48.78125 10.40625 
L 48.78125 2.09375 
Q 45.015625 0.34375 40.984375 -0.53125 
Q 36.96875 -1.421875 32.421875 -1.421875 
Q 20.0625 -1.421875 12.78125 6.34375 
Q 5.515625 14.109375 5.515625 27.296875 
Q 5.515625 40.671875 12.859375 48.328125 
Q 20.21875 56 33.015625 56 
Q 37.15625 56 41.109375 55.140625 
Q 45.0625 54.296875 48.78125 52.59375 
z
" id="DejaVuSans-99"/>
     <path d="M 18.109375 8.203125 
L 18.109375 -20.796875 
L 9.078125 -20.796875 
L 9.078125 54.6875 
L 18.109375 54.6875 
L 18.109375 46.390625 
Q 20.953125 51.265625 25.265625 53.625 
Q 29.59375 56 35.59375 56 
Q 45.5625 56 51.78125 48.09375 
Q 58.015625 40.1875 58.015625 27.296875 
Q 58.015625 14.40625 51.78125 6.484375 
Q 45.5625 -1.421875 35.59375 -1.421875 
Q 29.59375 -1.421875 25.265625 0.953125 
Q 20.953125 3.328125 18.109375 8.203125 
z
M 48.6875 27.296875 
Q 48.6875 37.203125 44.609375 42.84375 
Q 40.53125 48.484375 33.40625 48.484375 
Q 26.265625 48.484375 22.1875 42.84375 
Q 18.109375 37.203125 18.109375 27.296875 
Q 18.109375 17.390625 22.1875 11.75 
Q 26.265625 6.109375 33.40625 6.109375 
Q 40.53125 6.109375 44.609375 11.75 
Q 48.6875 17.390625 48.6875 27.296875 
z
" id="DejaVuSans-112"/>
     <path d="M 31 75.875 
Q 24.46875 64.65625 21.28125 53.65625 
Q 18.109375 42.671875 18.109375 31.390625 
Q 18.109375 20.125 21.3125 9.0625 
Q 24.515625 -2 31 -13.1875 
L 23.1875 -13.1875 
Q 15.875 -1.703125 12.234375 9.375 
Q 8.59375 20.453125 8.59375 31.390625 
Q 8.59375 42.28125 12.203125 53.3125 
Q 15.828125 64.359375 23.1875 75.875 
z
" id="DejaVuSans-40"/>
     <path d="M 41.109375 46.296875 
Q 39.59375 47.171875 37.8125 47.578125 
Q 36.03125 48 33.890625 48 
Q 26.265625 48 22.1875 43.046875 
Q 18.109375 38.09375 18.109375 28.8125 
L 18.109375 0 
L 9.078125 0 
L 9.078125 54.6875 
L 18.109375 54.6875 
L 18.109375 46.1875 
Q 20.953125 51.171875 25.484375 53.578125 
Q 30.03125 56 36.53125 56 
Q 37.453125 56 38.578125 55.875 
Q 39.703125 55.765625 41.0625 55.515625 
z
" id="DejaVuSans-114"/>
     <path d="M 45.40625 46.390625 
L 45.40625 75.984375 
L 54.390625 75.984375 
L 54.390625 0 
L 45.40625 0 
L 45.40625 8.203125 
Q 42.578125 3.328125 38.25 0.953125 
Q 33.9375 -1.421875 27.875 -1.421875 
Q 17.96875 -1.421875 11.734375 6.484375 
Q 5.515625 14.40625 5.515625 27.296875 
Q 5.515625 40.1875 11.734375 48.09375 
Q 17.96875 56 27.875 56 
Q 33.9375 56 38.25 53.625 
Q 42.578125 51.265625 45.40625 46.390625 
z
M 14.796875 27.296875 
Q 14.796875 17.390625 18.875 11.75 
Q 22.953125 6.109375 30.078125 6.109375 
Q 37.203125 6.109375 41.296875 11.75 
Q 45.40625 17.390625 45.40625 27.296875 
Q 45.40625 37.203125 41.296875 42.84375 
Q 37.203125 48.484375 30.078125 48.484375 
Q 22.953125 48.484375 18.875 42.84375 
Q 14.796875 37.203125 14.796875 27.296875 
z
" id="DejaVuSans-100"/>
     <path d="M 8.015625 75.875 
L 15.828125 75.875 
Q 23.140625 64.359375 26.78125 53.3125 
Q 30.421875 42.28125 30.421875 31.390625 
Q 30.421875 20.453125 26.78125 9.375 
Q 23.140625 -1.703125 15.828125 -13.1875 
L 8.015625 -13.1875 
Q 14.5 -2 17.703125 9.0625 
Q 20.90625 20.125 20.90625 31.390625 
Q 20.90625 42.671875 17.703125 53.65625 
Q 14.5 64.65625 8.015625 75.875 
z
" id="DejaVuSans-41"/>
     <path d="M 34.28125 27.484375 
Q 23.390625 27.484375 19.1875 25 
Q 14.984375 22.515625 14.984375 16.5 
Q 14.984375 11.71875 18.140625 8.90625 
Q 21.296875 6.109375 26.703125 6.109375 
Q 34.1875 6.109375 38.703125 11.40625 
Q 43.21875 16.703125 43.21875 25.484375 
L 43.21875 27.484375 
z
M 52.203125 31.203125 
L 52.203125 0 
L 43.21875 0 
L 43.21875 8.296875 
Q 40.140625 3.328125 35.546875 0.953125 
Q 30.953125 -1.421875 24.3125 -1.421875 
Q 15.921875 -1.421875 10.953125 3.296875 
Q 6 8.015625 6 15.921875 
Q 6 25.140625 12.171875 29.828125 
Q 18.359375 34.515625 30.609375 34.515625 
L 43.21875 34.515625 
L 43.21875 35.40625 
Q 43.21875 41.609375 39.140625 45 
Q 35.0625 48.390625 27.6875 48.390625 
Q 23 48.390625 18.546875 47.265625 
Q 14.109375 46.140625 10.015625 43.890625 
L 10.015625 52.203125 
Q 14.9375 54.109375 19.578125 55.046875 
Q 24.21875 56 28.609375 56 
Q 40.484375 56 46.34375 49.84375 
Q 52.203125 43.703125 52.203125 31.203125 
z
" id="DejaVuSans-97"/>
    </defs>
    <g transform="translate(1210.36125 150.832262)scale(0.34 -0.34)">
     <use xlink:href="#DejaVuSans-66"/>
     <use x="68.603516" xlink:href="#DejaVuSans-105"/>
     <use x="96.386719" xlink:href="#DejaVuSans-99"/>
     <use x="151.367188" xlink:href="#DejaVuSans-101"/>
     <use x="212.890625" xlink:href="#DejaVuSans-112"/>
     <use x="276.367188" xlink:href="#DejaVuSans-115"/>
     <use x="328.466797" xlink:href="#DejaVuSans-32"/>
     <use x="360.253906" xlink:href="#DejaVuSans-40"/>
     <use x="399.267578" xlink:href="#DejaVuSans-114"/>
     <use x="440.349609" xlink:href="#DejaVuSans-101"/>
     <use x="501.873047" xlink:href="#DejaVuSans-100"/>
     <use x="565.349609" xlink:href="#DejaVuSans-41"/>
     <use x="604.363281" xlink:href="#DejaVuSans-32"/>
     <use x="636.150391" xlink:href="#DejaVuSans-97"/>
     <use x="697.429688" xlink:href="#DejaVuSans-110"/>
     <use x="760.808594" xlink:href="#DejaVuSans-100"/>
     <use x="824.285156" xlink:href="#DejaVuSans-32"/>
     <use x="856.072266" xlink:href="#DejaVuSans-84"/>
     <use x="916.9375" xlink:href="#DejaVuSans-114"/>
     <use x="958.050781" xlink:href="#DejaVuSans-105"/>
     <use x="985.833984" xlink:href="#DejaVuSans-99"/>
     <use x="1040.814453" xlink:href="#DejaVuSans-101"/>
     <use x="1102.337891" xlink:href="#DejaVuSans-112"/>
     <use x="1165.814453" xlink:href="#DejaVuSans-115"/>
     <use x="1217.914062" xlink:href="#DejaVuSans-32"/>
     <use x="1249.701172" xlink:href="#DejaVuSans-40"/>
     <use x="1288.714844" xlink:href="#DejaVuSans-103"/>
     <use x="1352.191406" xlink:href="#DejaVuSans-114"/>
     <use x="1393.273438" xlink:href="#DejaVuSans-101"/>
     <use x="1454.796875" xlink:href="#DejaVuSans-101"/>
     <use x="1516.320312" xlink:href="#DejaVuSans-110"/>
     <use x="1579.699219" xlink:href="#DejaVuSans-41"/>
    </g>
   </g>
  </g>
  <g id="text_17">
   <!-- Forces - P160000 I0 D0 -->
   <defs>
    <path d="M 9.8125 72.90625 
L 51.703125 72.90625 
L 51.703125 64.59375 
L 19.671875 64.59375 
L 19.671875 43.109375 
L 48.578125 43.109375 
L 48.578125 34.8125 
L 19.671875 34.8125 
L 19.671875 0 
L 9.8125 0 
z
" id="DejaVuSans-70"/>
    <path d="M 30.609375 48.390625 
Q 23.390625 48.390625 19.1875 42.75 
Q 14.984375 37.109375 14.984375 27.296875 
Q 14.984375 17.484375 19.15625 11.84375 
Q 23.34375 6.203125 30.609375 6.203125 
Q 37.796875 6.203125 41.984375 11.859375 
Q 46.1875 17.53125 46.1875 27.296875 
Q 46.1875 37.015625 41.984375 42.703125 
Q 37.796875 48.390625 30.609375 48.390625 
z
M 30.609375 56 
Q 42.328125 56 49.015625 48.375 
Q 55.71875 40.765625 55.71875 27.296875 
Q 55.71875 13.875 49.015625 6.21875 
Q 42.328125 -1.421875 30.609375 -1.421875 
Q 18.84375 -1.421875 12.171875 6.21875 
Q 5.515625 13.875 5.515625 27.296875 
Q 5.515625 40.765625 12.171875 48.375 
Q 18.84375 56 30.609375 56 
z
" id="DejaVuSans-111"/>
    <path d="M 4.890625 31.390625 
L 31.203125 31.390625 
L 31.203125 23.390625 
L 4.890625 23.390625 
z
" id="DejaVuSans-45"/>
    <path d="M 19.671875 64.796875 
L 19.671875 37.40625 
L 32.078125 37.40625 
Q 38.96875 37.40625 42.71875 40.96875 
Q 46.484375 44.53125 46.484375 51.125 
Q 46.484375 57.671875 42.71875 61.234375 
Q 38.96875 64.796875 32.078125 64.796875 
z
M 9.8125 72.90625 
L 32.078125 72.90625 
Q 44.34375 72.90625 50.609375 67.359375 
Q 56.890625 61.8125 56.890625 51.125 
Q 56.890625 40.328125 50.609375 34.8125 
Q 44.34375 29.296875 32.078125 29.296875 
L 19.671875 29.296875 
L 19.671875 0 
L 9.8125 0 
z
" id="DejaVuSans-80"/>
    <path d="M 9.8125 72.90625 
L 19.671875 72.90625 
L 19.671875 0 
L 9.8125 0 
z
" id="DejaVuSans-73"/>
    <path d="M 19.671875 64.796875 
L 19.671875 8.109375 
L 31.59375 8.109375 
Q 46.6875 8.109375 53.6875 14.9375 
Q 60.6875 21.78125 60.6875 36.53125 
Q 60.6875 51.171875 53.6875 57.984375 
Q 46.6875 64.796875 31.59375 64.796875 
z
M 9.8125 72.90625 
L 30.078125 72.90625 
Q 51.265625 72.90625 61.171875 64.09375 
Q 71.09375 55.28125 71.09375 36.53125 
Q 71.09375 17.671875 61.125 8.828125 
Q 51.171875 0 30.078125 0 
L 9.8125 0 
z
" id="DejaVuSans-68"/>
   </defs>
   <g transform="translate(1241.551562 28.834927)scale(0.34 -0.34)">
    <use xlink:href="#DejaVuSans-70"/>
    <use x="57.472656" xlink:href="#DejaVuSans-111"/>
    <use x="118.654297" xlink:href="#DejaVuSans-114"/>
    <use x="159.736328" xlink:href="#DejaVuSans-99"/>
    <use x="214.716797" xlink:href="#DejaVuSans-101"/>
    <use x="276.240234" xlink:href="#DejaVuSans-115"/>
    <use x="328.339844" xlink:href="#DejaVuSans-32"/>
    <use x="360.126953" xlink:href="#DejaVuSans-45"/>
    <use x="396.210938" xlink:href="#DejaVuSans-32"/>
    <use x="427.998047" xlink:href="#DejaVuSans-80"/>
    <use x="488.300781" xlink:href="#DejaVuSans-49"/>
    <use x="551.923828" xlink:href="#DejaVuSans-54"/>
    <use x="615.546875" xlink:href="#DejaVuSans-48"/>
    <use x="679.169922" xlink:href="#DejaVuSans-48"/>
    <use x="742.792969" xlink:href="#DejaVuSans-48"/>
    <use x="806.416016" xlink:href="#DejaVuSans-48"/>
    <use x="870.039062" xlink:href="#DejaVuSans-32"/>
    <use x="901.826172" xlink:href="#DejaVuSans-73"/>
    <use x="931.318359" xlink:href="#DejaVuSans-48"/>
    <use x="994.941406" xlink:href="#DejaVuSans-32"/>
    <use x="1026.728516" xlink:href="#DejaVuSans-68"/>
    <use x="1103.730469" xlink:href="#DejaVuSans-48"/>
   </g>
   <!-- Bagfile elbow_left_c from 35s for 95s - Logging Rate 30 - Simulation Rate 800 - 100.00% real time speed -->
   <defs>
    <path d="M 37.109375 75.984375 
L 37.109375 68.5 
L 28.515625 68.5 
Q 23.6875 68.5 21.796875 66.546875 
Q 19.921875 64.59375 19.921875 59.515625 
L 19.921875 54.6875 
L 34.71875 54.6875 
L 34.71875 47.703125 
L 19.921875 47.703125 
L 19.921875 0 
L 10.890625 0 
L 10.890625 47.703125 
L 2.296875 47.703125 
L 2.296875 54.6875 
L 10.890625 54.6875 
L 10.890625 58.5 
Q 10.890625 67.625 15.140625 71.796875 
Q 19.390625 75.984375 28.609375 75.984375 
z
" id="DejaVuSans-102"/>
    <path d="M 9.421875 75.984375 
L 18.40625 75.984375 
L 18.40625 0 
L 9.421875 0 
z
" id="DejaVuSans-108"/>
    <path d="M 48.6875 27.296875 
Q 48.6875 37.203125 44.609375 42.84375 
Q 40.53125 48.484375 33.40625 48.484375 
Q 26.265625 48.484375 22.1875 42.84375 
Q 18.109375 37.203125 18.109375 27.296875 
Q 18.109375 17.390625 22.1875 11.75 
Q 26.265625 6.109375 33.40625 6.109375 
Q 40.53125 6.109375 44.609375 11.75 
Q 48.6875 17.390625 48.6875 27.296875 
z
M 18.109375 46.390625 
Q 20.953125 51.265625 25.265625 53.625 
Q 29.59375 56 35.59375 56 
Q 45.5625 56 51.78125 48.09375 
Q 58.015625 40.1875 58.015625 27.296875 
Q 58.015625 14.40625 51.78125 6.484375 
Q 45.5625 -1.421875 35.59375 -1.421875 
Q 29.59375 -1.421875 25.265625 0.953125 
Q 20.953125 3.328125 18.109375 8.203125 
L 18.109375 0 
L 9.078125 0 
L 9.078125 75.984375 
L 18.109375 75.984375 
z
" id="DejaVuSans-98"/>
    <path d="M 4.203125 54.6875 
L 13.1875 54.6875 
L 24.421875 12.015625 
L 35.59375 54.6875 
L 46.1875 54.6875 
L 57.421875 12.015625 
L 68.609375 54.6875 
L 77.59375 54.6875 
L 63.28125 0 
L 52.6875 0 
L 40.921875 44.828125 
L 29.109375 0 
L 18.5 0 
z
" id="DejaVuSans-119"/>
    <path d="M 50.984375 -16.609375 
L 50.984375 -23.578125 
L -0.984375 -23.578125 
L -0.984375 -16.609375 
z
" id="DejaVuSans-95"/>
    <path d="M 40.578125 39.3125 
Q 47.65625 37.796875 51.625 33 
Q 55.609375 28.21875 55.609375 21.1875 
Q 55.609375 10.40625 48.1875 4.484375 
Q 40.765625 -1.421875 27.09375 -1.421875 
Q 22.515625 -1.421875 17.65625 -0.515625 
Q 12.796875 0.390625 7.625 2.203125 
L 7.625 11.71875 
Q 11.71875 9.328125 16.59375 8.109375 
Q 21.484375 6.890625 26.8125 6.890625 
Q 36.078125 6.890625 40.9375 10.546875 
Q 45.796875 14.203125 45.796875 21.1875 
Q 45.796875 27.640625 41.28125 31.265625 
Q 36.765625 34.90625 28.71875 34.90625 
L 20.21875 34.90625 
L 20.21875 43.015625 
L 29.109375 43.015625 
Q 36.375 43.015625 40.234375 45.921875 
Q 44.09375 48.828125 44.09375 54.296875 
Q 44.09375 59.90625 40.109375 62.90625 
Q 36.140625 65.921875 28.71875 65.921875 
Q 24.65625 65.921875 20.015625 65.03125 
Q 15.375 64.15625 9.8125 62.3125 
L 9.8125 71.09375 
Q 15.4375 72.65625 20.34375 73.4375 
Q 25.25 74.21875 29.59375 74.21875 
Q 40.828125 74.21875 47.359375 69.109375 
Q 53.90625 64.015625 53.90625 55.328125 
Q 53.90625 49.265625 50.4375 45.09375 
Q 46.96875 40.921875 40.578125 39.3125 
z
" id="DejaVuSans-51"/>
    <path d="M 10.796875 72.90625 
L 49.515625 72.90625 
L 49.515625 64.59375 
L 19.828125 64.59375 
L 19.828125 46.734375 
Q 21.96875 47.46875 24.109375 47.828125 
Q 26.265625 48.1875 28.421875 48.1875 
Q 40.625 48.1875 47.75 41.5 
Q 54.890625 34.8125 54.890625 23.390625 
Q 54.890625 11.625 47.5625 5.09375 
Q 40.234375 -1.421875 26.90625 -1.421875 
Q 22.3125 -1.421875 17.546875 -0.640625 
Q 12.796875 0.140625 7.71875 1.703125 
L 7.71875 11.625 
Q 12.109375 9.234375 16.796875 8.0625 
Q 21.484375 6.890625 26.703125 6.890625 
Q 35.15625 6.890625 40.078125 11.328125 
Q 45.015625 15.765625 45.015625 23.390625 
Q 45.015625 31 40.078125 35.4375 
Q 35.15625 39.890625 26.703125 39.890625 
Q 22.75 39.890625 18.8125 39.015625 
Q 14.890625 38.140625 10.796875 36.28125 
z
" id="DejaVuSans-53"/>
    <path d="M 10.984375 1.515625 
L 10.984375 10.5 
Q 14.703125 8.734375 18.5 7.8125 
Q 22.3125 6.890625 25.984375 6.890625 
Q 35.75 6.890625 40.890625 13.453125 
Q 46.046875 20.015625 46.78125 33.40625 
Q 43.953125 29.203125 39.59375 26.953125 
Q 35.25 24.703125 29.984375 24.703125 
Q 19.046875 24.703125 12.671875 31.3125 
Q 6.296875 37.9375 6.296875 49.421875 
Q 6.296875 60.640625 12.9375 67.421875 
Q 19.578125 74.21875 30.609375 74.21875 
Q 43.265625 74.21875 49.921875 64.515625 
Q 56.59375 54.828125 56.59375 36.375 
Q 56.59375 19.140625 48.40625 8.859375 
Q 40.234375 -1.421875 26.421875 -1.421875 
Q 22.703125 -1.421875 18.890625 -0.6875 
Q 15.09375 0.046875 10.984375 1.515625 
z
M 30.609375 32.421875 
Q 37.25 32.421875 41.125 36.953125 
Q 45.015625 41.5 45.015625 49.421875 
Q 45.015625 57.28125 41.125 61.84375 
Q 37.25 66.40625 30.609375 66.40625 
Q 23.96875 66.40625 20.09375 61.84375 
Q 16.21875 57.28125 16.21875 49.421875 
Q 16.21875 41.5 20.09375 36.953125 
Q 23.96875 32.421875 30.609375 32.421875 
z
" id="DejaVuSans-57"/>
    <path d="M 44.390625 34.1875 
Q 47.5625 33.109375 50.5625 29.59375 
Q 53.5625 26.078125 56.59375 19.921875 
L 66.609375 0 
L 56 0 
L 46.6875 18.703125 
Q 43.0625 26.03125 39.671875 28.421875 
Q 36.28125 30.8125 30.421875 30.8125 
L 19.671875 30.8125 
L 19.671875 0 
L 9.8125 0 
L 9.8125 72.90625 
L 32.078125 72.90625 
Q 44.578125 72.90625 50.734375 67.671875 
Q 56.890625 62.453125 56.890625 51.90625 
Q 56.890625 45.015625 53.6875 40.46875 
Q 50.484375 35.9375 44.390625 34.1875 
z
M 19.671875 64.796875 
L 19.671875 38.921875 
L 32.078125 38.921875 
Q 39.203125 38.921875 42.84375 42.21875 
Q 46.484375 45.515625 46.484375 51.90625 
Q 46.484375 58.296875 42.84375 61.546875 
Q 39.203125 64.796875 32.078125 64.796875 
z
" id="DejaVuSans-82"/>
    <path d="M 53.515625 70.515625 
L 53.515625 60.890625 
Q 47.90625 63.578125 42.921875 64.890625 
Q 37.9375 66.21875 33.296875 66.21875 
Q 25.25 66.21875 20.875 63.09375 
Q 16.5 59.96875 16.5 54.203125 
Q 16.5 49.359375 19.40625 46.890625 
Q 22.3125 44.4375 30.421875 42.921875 
L 36.375 41.703125 
Q 47.40625 39.59375 52.65625 34.296875 
Q 57.90625 29 57.90625 20.125 
Q 57.90625 9.515625 50.796875 4.046875 
Q 43.703125 -1.421875 29.984375 -1.421875 
Q 24.8125 -1.421875 18.96875 -0.25 
Q 13.140625 0.921875 6.890625 3.21875 
L 6.890625 13.375 
Q 12.890625 10.015625 18.65625 8.296875 
Q 24.421875 6.59375 29.984375 6.59375 
Q 38.421875 6.59375 43.015625 9.90625 
Q 47.609375 13.234375 47.609375 19.390625 
Q 47.609375 24.75 44.3125 27.78125 
Q 41.015625 30.8125 33.5 32.328125 
L 27.484375 33.5 
Q 16.453125 35.6875 11.515625 40.375 
Q 6.59375 45.0625 6.59375 53.421875 
Q 6.59375 63.09375 13.40625 68.65625 
Q 20.21875 74.21875 32.171875 74.21875 
Q 37.3125 74.21875 42.625 73.28125 
Q 47.953125 72.359375 53.515625 70.515625 
z
" id="DejaVuSans-83"/>
    <path d="M 8.5 21.578125 
L 8.5 54.6875 
L 17.484375 54.6875 
L 17.484375 21.921875 
Q 17.484375 14.15625 20.5 10.265625 
Q 23.53125 6.390625 29.59375 6.390625 
Q 36.859375 6.390625 41.078125 11.03125 
Q 45.3125 15.671875 45.3125 23.6875 
L 45.3125 54.6875 
L 54.296875 54.6875 
L 54.296875 0 
L 45.3125 0 
L 45.3125 8.40625 
Q 42.046875 3.421875 37.71875 1 
Q 33.40625 -1.421875 27.6875 -1.421875 
Q 18.265625 -1.421875 13.375 4.4375 
Q 8.5 10.296875 8.5 21.578125 
z
M 31.109375 56 
z
" id="DejaVuSans-117"/>
    <path d="M 10.6875 12.40625 
L 21 12.40625 
L 21 0 
L 10.6875 0 
z
" id="DejaVuSans-46"/>
    <path d="M 72.703125 32.078125 
Q 68.453125 32.078125 66.03125 28.46875 
Q 63.625 24.859375 63.625 18.40625 
Q 63.625 12.0625 66.03125 8.421875 
Q 68.453125 4.78125 72.703125 4.78125 
Q 76.859375 4.78125 79.265625 8.421875 
Q 81.6875 12.0625 81.6875 18.40625 
Q 81.6875 24.8125 79.265625 28.4375 
Q 76.859375 32.078125 72.703125 32.078125 
z
M 72.703125 38.28125 
Q 80.421875 38.28125 84.953125 32.90625 
Q 89.5 27.546875 89.5 18.40625 
Q 89.5 9.28125 84.9375 3.921875 
Q 80.375 -1.421875 72.703125 -1.421875 
Q 64.890625 -1.421875 60.34375 3.921875 
Q 55.8125 9.28125 55.8125 18.40625 
Q 55.8125 27.59375 60.375 32.9375 
Q 64.9375 38.28125 72.703125 38.28125 
z
M 22.3125 68.015625 
Q 18.109375 68.015625 15.6875 64.375 
Q 13.28125 60.75 13.28125 54.390625 
Q 13.28125 47.953125 15.671875 44.328125 
Q 18.0625 40.71875 22.3125 40.71875 
Q 26.5625 40.71875 28.96875 44.328125 
Q 31.390625 47.953125 31.390625 54.390625 
Q 31.390625 60.6875 28.953125 64.34375 
Q 26.515625 68.015625 22.3125 68.015625 
z
M 66.40625 74.21875 
L 74.21875 74.21875 
L 28.609375 -1.421875 
L 20.796875 -1.421875 
z
M 22.3125 74.21875 
Q 30.03125 74.21875 34.609375 68.875 
Q 39.203125 63.53125 39.203125 54.390625 
Q 39.203125 45.171875 34.640625 39.84375 
Q 30.078125 34.515625 22.3125 34.515625 
Q 14.546875 34.515625 10.03125 39.859375 
Q 5.515625 45.21875 5.515625 54.390625 
Q 5.515625 63.484375 10.046875 68.84375 
Q 14.59375 74.21875 22.3125 74.21875 
z
" id="DejaVuSans-37"/>
   </defs>
   <g transform="translate(547.781562 66.90749)scale(0.34 -0.34)">
    <use xlink:href="#DejaVuSans-66"/>
    <use x="68.603516" xlink:href="#DejaVuSans-97"/>
    <use x="129.882812" xlink:href="#DejaVuSans-103"/>
    <use x="193.359375" xlink:href="#DejaVuSans-102"/>
    <use x="228.564453" xlink:href="#DejaVuSans-105"/>
    <use x="256.347656" xlink:href="#DejaVuSans-108"/>
    <use x="284.130859" xlink:href="#DejaVuSans-101"/>
    <use x="345.654297" xlink:href="#DejaVuSans-32"/>
    <use x="377.441406" xlink:href="#DejaVuSans-101"/>
    <use x="438.964844" xlink:href="#DejaVuSans-108"/>
    <use x="466.748047" xlink:href="#DejaVuSans-98"/>
    <use x="530.224609" xlink:href="#DejaVuSans-111"/>
    <use x="591.40625" xlink:href="#DejaVuSans-119"/>
    <use x="673.193359" xlink:href="#DejaVuSans-95"/>
    <use x="723.193359" xlink:href="#DejaVuSans-108"/>
    <use x="750.976562" xlink:href="#DejaVuSans-101"/>
    <use x="812.5" xlink:href="#DejaVuSans-102"/>
    <use x="847.689453" xlink:href="#DejaVuSans-116"/>
    <use x="886.898438" xlink:href="#DejaVuSans-95"/>
    <use x="936.898438" xlink:href="#DejaVuSans-99"/>
    <use x="991.878906" xlink:href="#DejaVuSans-32"/>
    <use x="1023.666016" xlink:href="#DejaVuSans-102"/>
    <use x="1058.871094" xlink:href="#DejaVuSans-114"/>
    <use x="1099.953125" xlink:href="#DejaVuSans-111"/>
    <use x="1161.134766" xlink:href="#DejaVuSans-109"/>
    <use x="1258.546875" xlink:href="#DejaVuSans-32"/>
    <use x="1290.333984" xlink:href="#DejaVuSans-51"/>
    <use x="1353.957031" xlink:href="#DejaVuSans-53"/>
    <use x="1417.580078" xlink:href="#DejaVuSans-115"/>
    <use x="1469.679688" xlink:href="#DejaVuSans-32"/>
    <use x="1501.466797" xlink:href="#DejaVuSans-102"/>
    <use x="1536.671875" xlink:href="#DejaVuSans-111"/>
    <use x="1597.853516" xlink:href="#DejaVuSans-114"/>
    <use x="1638.966797" xlink:href="#DejaVuSans-32"/>
    <use x="1670.753906" xlink:href="#DejaVuSans-57"/>
    <use x="1734.376953" xlink:href="#DejaVuSans-53"/>
    <use x="1798" xlink:href="#DejaVuSans-115"/>
    <use x="1850.099609" xlink:href="#DejaVuSans-32"/>
    <use x="1881.886719" xlink:href="#DejaVuSans-45"/>
    <use x="1917.970703" xlink:href="#DejaVuSans-32"/>
    <use x="1949.757812" xlink:href="#DejaVuSans-76"/>
    <use x="2005.455078" xlink:href="#DejaVuSans-111"/>
    <use x="2066.636719" xlink:href="#DejaVuSans-103"/>
    <use x="2130.113281" xlink:href="#DejaVuSans-103"/>
    <use x="2193.589844" xlink:href="#DejaVuSans-105"/>
    <use x="2221.373047" xlink:href="#DejaVuSans-110"/>
    <use x="2284.751953" xlink:href="#DejaVuSans-103"/>
    <use x="2348.228516" xlink:href="#DejaVuSans-32"/>
    <use x="2380.015625" xlink:href="#DejaVuSans-82"/>
    <use x="2449.466797" xlink:href="#DejaVuSans-97"/>
    <use x="2510.746094" xlink:href="#DejaVuSans-116"/>
    <use x="2549.955078" xlink:href="#DejaVuSans-101"/>
    <use x="2611.478516" xlink:href="#DejaVuSans-32"/>
    <use x="2643.265625" xlink:href="#DejaVuSans-51"/>
    <use x="2706.888672" xlink:href="#DejaVuSans-48"/>
    <use x="2770.511719" xlink:href="#DejaVuSans-32"/>
    <use x="2802.298828" xlink:href="#DejaVuSans-45"/>
    <use x="2838.382812" xlink:href="#DejaVuSans-32"/>
    <use x="2870.169922" xlink:href="#DejaVuSans-83"/>
    <use x="2933.646484" xlink:href="#DejaVuSans-105"/>
    <use x="2961.429688" xlink:href="#DejaVuSans-109"/>
    <use x="3058.841797" xlink:href="#DejaVuSans-117"/>
    <use x="3122.220703" xlink:href="#DejaVuSans-108"/>
    <use x="3150.003906" xlink:href="#DejaVuSans-97"/>
    <use x="3211.283203" xlink:href="#DejaVuSans-116"/>
    <use x="3250.492188" xlink:href="#DejaVuSans-105"/>
    <use x="3278.275391" xlink:href="#DejaVuSans-111"/>
    <use x="3339.457031" xlink:href="#DejaVuSans-110"/>
    <use x="3402.835938" xlink:href="#DejaVuSans-32"/>
    <use x="3434.623047" xlink:href="#DejaVuSans-82"/>
    <use x="3504.074219" xlink:href="#DejaVuSans-97"/>
    <use x="3565.353516" xlink:href="#DejaVuSans-116"/>
    <use x="3604.5625" xlink:href="#DejaVuSans-101"/>
    <use x="3666.085938" xlink:href="#DejaVuSans-32"/>
    <use x="3697.873047" xlink:href="#DejaVuSans-56"/>
    <use x="3761.496094" xlink:href="#DejaVuSans-48"/>
    <use x="3825.119141" xlink:href="#DejaVuSans-48"/>
    <use x="3888.742188" xlink:href="#DejaVuSans-32"/>
    <use x="3920.529297" xlink:href="#DejaVuSans-45"/>
    <use x="3956.613281" xlink:href="#DejaVuSans-32"/>
    <use x="3988.400391" xlink:href="#DejaVuSans-49"/>
    <use x="4052.023438" xlink:href="#DejaVuSans-48"/>
    <use x="4115.646484" xlink:href="#DejaVuSans-48"/>
    <use x="4179.269531" xlink:href="#DejaVuSans-46"/>
    <use x="4211.056641" xlink:href="#DejaVuSans-48"/>
    <use x="4274.679688" xlink:href="#DejaVuSans-48"/>
    <use x="4338.302734" xlink:href="#DejaVuSans-37"/>
    <use x="4433.322266" xlink:href="#DejaVuSans-32"/>
    <use x="4465.109375" xlink:href="#DejaVuSans-114"/>
    <use x="4506.191406" xlink:href="#DejaVuSans-101"/>
    <use x="4567.714844" xlink:href="#DejaVuSans-97"/>
    <use x="4628.994141" xlink:href="#DejaVuSans-108"/>
    <use x="4656.777344" xlink:href="#DejaVuSans-32"/>
    <use x="4688.564453" xlink:href="#DejaVuSans-116"/>
    <use x="4727.773438" xlink:href="#DejaVuSans-105"/>
    <use x="4755.556641" xlink:href="#DejaVuSans-109"/>
    <use x="4852.96875" xlink:href="#DejaVuSans-101"/>
    <use x="4914.492188" xlink:href="#DejaVuSans-32"/>
    <use x="4946.279297" xlink:href="#DejaVuSans-115"/>
    <use x="4998.378906" xlink:href="#DejaVuSans-112"/>
    <use x="5061.855469" xlink:href="#DejaVuSans-101"/>
    <use x="5123.378906" xlink:href="#DejaVuSans-101"/>
    <use x="5184.902344" xlink:href="#DejaVuSans-100"/>
   </g>
   <!--  -->
   <g transform="translate(1440 105.925677)scale(0.34 -0.34)"/>
  </g>
 </g>
 <defs>
  <clipPath id="p822cb9a666">
   <rect height="863.577185" width="2782.90202" x="94.09774" y="157.9032"/>
  </clipPath>
 </defs>
</svg>
