<?xml version="1.0" encoding="utf-8" standalone="no"?>
<!DOCTYPE svg PUBLIC "-//W3C//DTD SVG 1.1//EN"
  "http://www.w3.org/Graphics/SVG/1.1/DTD/svg11.dtd">
<!-- Created with matplotlib (https://matplotlib.org/) -->
<svg height="1080pt" version="1.1" viewBox="0 0 2880 1080" width="2880pt" xmlns="http://www.w3.org/2000/svg" xmlns:xlink="http://www.w3.org/1999/xlink">
 <defs>
  <style type="text/css">
*{stroke-linecap:butt;stroke-linejoin:round;}
  </style>
 </defs>
 <g id="figure_1">
  <g id="patch_1">
   <path d="M 0 1080 
L 2880 1080 
L 2880 0 
L 0 0 
z
" style="fill:#ffffff;"/>
  </g>
  <g id="axes_1">
   <g id="patch_2">
    <path d="M 83.694615 1021.480385 
L 2876.99976 1021.480385 
L 2876.99976 157.9032 
L 83.694615 157.9032 
z
" style="fill:#ffffff;"/>
   </g>
   <g id="matplotlib.axis_1">
    <g id="xtick_1">
     <g id="line2d_1">
      <defs>
       <path d="M 0 0 
L 0 3.5 
" id="ma63ab32a4f" style="stroke:#000000;stroke-width:0.8;"/>
      </defs>
      <g>
       <use style="stroke:#000000;stroke-width:0.8;" x="344.409054" xlink:href="#ma63ab32a4f" y="1021.480385"/>
      </g>
     </g>
     <g id="text_1">
      <!-- 40 -->
      <defs>
       <path d="M 37.796875 64.3125 
L 12.890625 25.390625 
L 37.796875 25.390625 
z
M 35.203125 72.90625 
L 47.609375 72.90625 
L 47.609375 25.390625 
L 58.015625 25.390625 
L 58.015625 17.1875 
L 47.609375 17.1875 
L 47.609375 0 
L 37.796875 0 
L 37.796875 17.1875 
L 4.890625 17.1875 
L 4.890625 26.703125 
z
" id="DejaVuSans-52"/>
       <path d="M 31.78125 66.40625 
Q 24.171875 66.40625 20.328125 58.90625 
Q 16.5 51.421875 16.5 36.375 
Q 16.5 21.390625 20.328125 13.890625 
Q 24.171875 6.390625 31.78125 6.390625 
Q 39.453125 6.390625 43.28125 13.890625 
Q 47.125 21.390625 47.125 36.375 
Q 47.125 51.421875 43.28125 58.90625 
Q 39.453125 66.40625 31.78125 66.40625 
z
M 31.78125 74.21875 
Q 44.046875 74.21875 50.515625 64.515625 
Q 56.984375 54.828125 56.984375 36.375 
Q 56.984375 17.96875 50.515625 8.265625 
Q 44.046875 -1.421875 31.78125 -1.421875 
Q 19.53125 -1.421875 13.0625 8.265625 
Q 6.59375 17.96875 6.59375 36.375 
Q 6.59375 54.828125 13.0625 64.515625 
Q 19.53125 74.21875 31.78125 74.21875 
z
" id="DejaVuSans-48"/>
      </defs>
      <g transform="translate(331.684054 1043.67726)scale(0.2 -0.2)">
       <use xlink:href="#DejaVuSans-52"/>
       <use x="63.623047" xlink:href="#DejaVuSans-48"/>
      </g>
     </g>
    </g>
    <g id="xtick_2">
     <g id="line2d_2">
      <g>
       <use style="stroke:#000000;stroke-width:0.8;" x="879.393147" xlink:href="#ma63ab32a4f" y="1021.480385"/>
      </g>
     </g>
     <g id="text_2">
      <!-- 60 -->
      <defs>
       <path d="M 33.015625 40.375 
Q 26.375 40.375 22.484375 35.828125 
Q 18.609375 31.296875 18.609375 23.390625 
Q 18.609375 15.53125 22.484375 10.953125 
Q 26.375 6.390625 33.015625 6.390625 
Q 39.65625 6.390625 43.53125 10.953125 
Q 47.40625 15.53125 47.40625 23.390625 
Q 47.40625 31.296875 43.53125 35.828125 
Q 39.65625 40.375 33.015625 40.375 
z
M 52.59375 71.296875 
L 52.59375 62.3125 
Q 48.875 64.0625 45.09375 64.984375 
Q 41.3125 65.921875 37.59375 65.921875 
Q 27.828125 65.921875 22.671875 59.328125 
Q 17.53125 52.734375 16.796875 39.40625 
Q 19.671875 43.65625 24.015625 45.921875 
Q 28.375 48.1875 33.59375 48.1875 
Q 44.578125 48.1875 50.953125 41.515625 
Q 57.328125 34.859375 57.328125 23.390625 
Q 57.328125 12.15625 50.6875 5.359375 
Q 44.046875 -1.421875 33.015625 -1.421875 
Q 20.359375 -1.421875 13.671875 8.265625 
Q 6.984375 17.96875 6.984375 36.375 
Q 6.984375 53.65625 15.1875 63.9375 
Q 23.390625 74.21875 37.203125 74.21875 
Q 40.921875 74.21875 44.703125 73.484375 
Q 48.484375 72.75 52.59375 71.296875 
z
" id="DejaVuSans-54"/>
      </defs>
      <g transform="translate(866.668147 1043.67726)scale(0.2 -0.2)">
       <use xlink:href="#DejaVuSans-54"/>
       <use x="63.623047" xlink:href="#DejaVuSans-48"/>
      </g>
     </g>
    </g>
    <g id="xtick_3">
     <g id="line2d_3">
      <g>
       <use style="stroke:#000000;stroke-width:0.8;" x="1414.37724" xlink:href="#ma63ab32a4f" y="1021.480385"/>
      </g>
     </g>
     <g id="text_3">
      <!-- 80 -->
      <defs>
       <path d="M 31.78125 34.625 
Q 24.75 34.625 20.71875 30.859375 
Q 16.703125 27.09375 16.703125 20.515625 
Q 16.703125 13.921875 20.71875 10.15625 
Q 24.75 6.390625 31.78125 6.390625 
Q 38.8125 6.390625 42.859375 10.171875 
Q 46.921875 13.96875 46.921875 20.515625 
Q 46.921875 27.09375 42.890625 30.859375 
Q 38.875 34.625 31.78125 34.625 
z
M 21.921875 38.8125 
Q 15.578125 40.375 12.03125 44.71875 
Q 8.5 49.078125 8.5 55.328125 
Q 8.5 64.0625 14.71875 69.140625 
Q 20.953125 74.21875 31.78125 74.21875 
Q 42.671875 74.21875 48.875 69.140625 
Q 55.078125 64.0625 55.078125 55.328125 
Q 55.078125 49.078125 51.53125 44.71875 
Q 48 40.375 41.703125 38.8125 
Q 48.828125 37.15625 52.796875 32.3125 
Q 56.78125 27.484375 56.78125 20.515625 
Q 56.78125 9.90625 50.3125 4.234375 
Q 43.84375 -1.421875 31.78125 -1.421875 
Q 19.734375 -1.421875 13.25 4.234375 
Q 6.78125 9.90625 6.78125 20.515625 
Q 6.78125 27.484375 10.78125 32.3125 
Q 14.796875 37.15625 21.921875 38.8125 
z
M 18.3125 54.390625 
Q 18.3125 48.734375 21.84375 45.5625 
Q 25.390625 42.390625 31.78125 42.390625 
Q 38.140625 42.390625 41.71875 45.5625 
Q 45.3125 48.734375 45.3125 54.390625 
Q 45.3125 60.0625 41.71875 63.234375 
Q 38.140625 66.40625 31.78125 66.40625 
Q 25.390625 66.40625 21.84375 63.234375 
Q 18.3125 60.0625 18.3125 54.390625 
z
" id="DejaVuSans-56"/>
      </defs>
      <g transform="translate(1401.65224 1043.67726)scale(0.2 -0.2)">
       <use xlink:href="#DejaVuSans-56"/>
       <use x="63.623047" xlink:href="#DejaVuSans-48"/>
      </g>
     </g>
    </g>
    <g id="xtick_4">
     <g id="line2d_4">
      <g>
       <use style="stroke:#000000;stroke-width:0.8;" x="1949.361334" xlink:href="#ma63ab32a4f" y="1021.480385"/>
      </g>
     </g>
     <g id="text_4">
      <!-- 100 -->
      <defs>
       <path d="M 12.40625 8.296875 
L 28.515625 8.296875 
L 28.515625 63.921875 
L 10.984375 60.40625 
L 10.984375 69.390625 
L 28.421875 72.90625 
L 38.28125 72.90625 
L 38.28125 8.296875 
L 54.390625 8.296875 
L 54.390625 0 
L 12.40625 0 
z
" id="DejaVuSans-49"/>
      </defs>
      <g transform="translate(1930.273834 1043.67726)scale(0.2 -0.2)">
       <use xlink:href="#DejaVuSans-49"/>
       <use x="63.623047" xlink:href="#DejaVuSans-48"/>
       <use x="127.246094" xlink:href="#DejaVuSans-48"/>
      </g>
     </g>
    </g>
    <g id="xtick_5">
     <g id="line2d_5">
      <g>
       <use style="stroke:#000000;stroke-width:0.8;" x="2484.345427" xlink:href="#ma63ab32a4f" y="1021.480385"/>
      </g>
     </g>
     <g id="text_5">
      <!-- 120 -->
      <defs>
       <path d="M 19.1875 8.296875 
L 53.609375 8.296875 
L 53.609375 0 
L 7.328125 0 
L 7.328125 8.296875 
Q 12.9375 14.109375 22.625 23.890625 
Q 32.328125 33.6875 34.8125 36.53125 
Q 39.546875 41.84375 41.421875 45.53125 
Q 43.3125 49.21875 43.3125 52.78125 
Q 43.3125 58.59375 39.234375 62.25 
Q 35.15625 65.921875 28.609375 65.921875 
Q 23.96875 65.921875 18.8125 64.3125 
Q 13.671875 62.703125 7.8125 59.421875 
L 7.8125 69.390625 
Q 13.765625 71.78125 18.9375 73 
Q 24.125 74.21875 28.421875 74.21875 
Q 39.75 74.21875 46.484375 68.546875 
Q 53.21875 62.890625 53.21875 53.421875 
Q 53.21875 48.921875 51.53125 44.890625 
Q 49.859375 40.875 45.40625 35.40625 
Q 44.1875 33.984375 37.640625 27.21875 
Q 31.109375 20.453125 19.1875 8.296875 
z
" id="DejaVuSans-50"/>
      </defs>
      <g transform="translate(2465.257927 1043.67726)scale(0.2 -0.2)">
       <use xlink:href="#DejaVuSans-49"/>
       <use x="63.623047" xlink:href="#DejaVuSans-50"/>
       <use x="127.246094" xlink:href="#DejaVuSans-48"/>
      </g>
     </g>
    </g>
    <g id="text_6">
     <!-- Time [s] -->
     <defs>
      <path d="M -0.296875 72.90625 
L 61.375 72.90625 
L 61.375 64.59375 
L 35.5 64.59375 
L 35.5 0 
L 25.59375 0 
L 25.59375 64.59375 
L -0.296875 64.59375 
z
" id="DejaVuSans-84"/>
      <path d="M 9.421875 54.6875 
L 18.40625 54.6875 
L 18.40625 0 
L 9.421875 0 
z
M 9.421875 75.984375 
L 18.40625 75.984375 
L 18.40625 64.59375 
L 9.421875 64.59375 
z
" id="DejaVuSans-105"/>
      <path d="M 52 44.1875 
Q 55.375 50.25 60.0625 53.125 
Q 64.75 56 71.09375 56 
Q 79.640625 56 84.28125 50.015625 
Q 88.921875 44.046875 88.921875 33.015625 
L 88.921875 0 
L 79.890625 0 
L 79.890625 32.71875 
Q 79.890625 40.578125 77.09375 44.375 
Q 74.3125 48.1875 68.609375 48.1875 
Q 61.625 48.1875 57.5625 43.546875 
Q 53.515625 38.921875 53.515625 30.90625 
L 53.515625 0 
L 44.484375 0 
L 44.484375 32.71875 
Q 44.484375 40.625 41.703125 44.40625 
Q 38.921875 48.1875 33.109375 48.1875 
Q 26.21875 48.1875 22.15625 43.53125 
Q 18.109375 38.875 18.109375 30.90625 
L 18.109375 0 
L 9.078125 0 
L 9.078125 54.6875 
L 18.109375 54.6875 
L 18.109375 46.1875 
Q 21.1875 51.21875 25.484375 53.609375 
Q 29.78125 56 35.6875 56 
Q 41.65625 56 45.828125 52.96875 
Q 50 49.953125 52 44.1875 
z
" id="DejaVuSans-109"/>
      <path d="M 56.203125 29.59375 
L 56.203125 25.203125 
L 14.890625 25.203125 
Q 15.484375 15.921875 20.484375 11.0625 
Q 25.484375 6.203125 34.421875 6.203125 
Q 39.59375 6.203125 44.453125 7.46875 
Q 49.3125 8.734375 54.109375 11.28125 
L 54.109375 2.78125 
Q 49.265625 0.734375 44.1875 -0.34375 
Q 39.109375 -1.421875 33.890625 -1.421875 
Q 20.796875 -1.421875 13.15625 6.1875 
Q 5.515625 13.8125 5.515625 26.8125 
Q 5.515625 40.234375 12.765625 48.109375 
Q 20.015625 56 32.328125 56 
Q 43.359375 56 49.78125 48.890625 
Q 56.203125 41.796875 56.203125 29.59375 
z
M 47.21875 32.234375 
Q 47.125 39.59375 43.09375 43.984375 
Q 39.0625 48.390625 32.421875 48.390625 
Q 24.90625 48.390625 20.390625 44.140625 
Q 15.875 39.890625 15.1875 32.171875 
z
" id="DejaVuSans-101"/>
      <path id="DejaVuSans-32"/>
      <path d="M 8.59375 75.984375 
L 29.296875 75.984375 
L 29.296875 69 
L 17.578125 69 
L 17.578125 -6.203125 
L 29.296875 -6.203125 
L 29.296875 -13.1875 
L 8.59375 -13.1875 
z
" id="DejaVuSans-91"/>
      <path d="M 44.28125 53.078125 
L 44.28125 44.578125 
Q 40.484375 46.53125 36.375 47.5 
Q 32.28125 48.484375 27.875 48.484375 
Q 21.1875 48.484375 17.84375 46.4375 
Q 14.5 44.390625 14.5 40.28125 
Q 14.5 37.15625 16.890625 35.375 
Q 19.28125 33.59375 26.515625 31.984375 
L 29.59375 31.296875 
Q 39.15625 29.25 43.1875 25.515625 
Q 47.21875 21.78125 47.21875 15.09375 
Q 47.21875 7.46875 41.1875 3.015625 
Q 35.15625 -1.421875 24.609375 -1.421875 
Q 20.21875 -1.421875 15.453125 -0.5625 
Q 10.6875 0.296875 5.421875 2 
L 5.421875 11.28125 
Q 10.40625 8.6875 15.234375 7.390625 
Q 20.0625 6.109375 24.8125 6.109375 
Q 31.15625 6.109375 34.5625 8.28125 
Q 37.984375 10.453125 37.984375 14.40625 
Q 37.984375 18.0625 35.515625 20.015625 
Q 33.0625 21.96875 24.703125 23.78125 
L 21.578125 24.515625 
Q 13.234375 26.265625 9.515625 29.90625 
Q 5.8125 33.546875 5.8125 39.890625 
Q 5.8125 47.609375 11.28125 51.796875 
Q 16.75 56 26.8125 56 
Q 31.78125 56 36.171875 55.265625 
Q 40.578125 54.546875 44.28125 53.078125 
z
" id="DejaVuSans-115"/>
      <path d="M 30.421875 75.984375 
L 30.421875 -13.1875 
L 9.71875 -13.1875 
L 9.71875 -6.203125 
L 21.390625 -6.203125 
L 21.390625 69 
L 9.71875 69 
L 9.71875 75.984375 
z
" id="DejaVuSans-93"/>
     </defs>
     <g transform="translate(1427.091875 1071.592572)scale(0.26 -0.26)">
      <use xlink:href="#DejaVuSans-84"/>
      <use x="61.037109" xlink:href="#DejaVuSans-105"/>
      <use x="88.820312" xlink:href="#DejaVuSans-109"/>
      <use x="186.232422" xlink:href="#DejaVuSans-101"/>
      <use x="247.755859" xlink:href="#DejaVuSans-32"/>
      <use x="279.542969" xlink:href="#DejaVuSans-91"/>
      <use x="318.556641" xlink:href="#DejaVuSans-115"/>
      <use x="370.65625" xlink:href="#DejaVuSans-93"/>
     </g>
    </g>
   </g>
   <g id="matplotlib.axis_2">
    <g id="ytick_1">
     <g id="line2d_6">
      <defs>
       <path d="M 0 0 
L -3.5 0 
" id="m911cb457b5" style="stroke:#000000;stroke-width:0.8;"/>
      </defs>
      <g>
       <use style="stroke:#000000;stroke-width:0.8;" x="83.694615" xlink:href="#m911cb457b5" y="1020.56012"/>
      </g>
     </g>
     <g id="text_7">
      <!-- 0.08 -->
      <defs>
       <path d="M 10.6875 12.40625 
L 21 12.40625 
L 21 0 
L 10.6875 0 
z
" id="DejaVuSans-46"/>
      </defs>
      <g transform="translate(32.163365 1028.158557)scale(0.2 -0.2)">
       <use xlink:href="#DejaVuSans-48"/>
       <use x="63.623047" xlink:href="#DejaVuSans-46"/>
       <use x="95.410156" xlink:href="#DejaVuSans-48"/>
       <use x="159.033203" xlink:href="#DejaVuSans-56"/>
      </g>
     </g>
    </g>
    <g id="ytick_2">
     <g id="line2d_7">
      <g>
       <use style="stroke:#000000;stroke-width:0.8;" x="83.694615" xlink:href="#m911cb457b5" y="887.633444"/>
      </g>
     </g>
     <g id="text_8">
      <!-- 0.09 -->
      <defs>
       <path d="M 10.984375 1.515625 
L 10.984375 10.5 
Q 14.703125 8.734375 18.5 7.8125 
Q 22.3125 6.890625 25.984375 6.890625 
Q 35.75 6.890625 40.890625 13.453125 
Q 46.046875 20.015625 46.78125 33.40625 
Q 43.953125 29.203125 39.59375 26.953125 
Q 35.25 24.703125 29.984375 24.703125 
Q 19.046875 24.703125 12.671875 31.3125 
Q 6.296875 37.9375 6.296875 49.421875 
Q 6.296875 60.640625 12.9375 67.421875 
Q 19.578125 74.21875 30.609375 74.21875 
Q 43.265625 74.21875 49.921875 64.515625 
Q 56.59375 54.828125 56.59375 36.375 
Q 56.59375 19.140625 48.40625 8.859375 
Q 40.234375 -1.421875 26.421875 -1.421875 
Q 22.703125 -1.421875 18.890625 -0.6875 
Q 15.09375 0.046875 10.984375 1.515625 
z
M 30.609375 32.421875 
Q 37.25 32.421875 41.125 36.953125 
Q 45.015625 41.5 45.015625 49.421875 
Q 45.015625 57.28125 41.125 61.84375 
Q 37.25 66.40625 30.609375 66.40625 
Q 23.96875 66.40625 20.09375 61.84375 
Q 16.21875 57.28125 16.21875 49.421875 
Q 16.21875 41.5 20.09375 36.953125 
Q 23.96875 32.421875 30.609375 32.421875 
z
" id="DejaVuSans-57"/>
      </defs>
      <g transform="translate(32.163365 895.231882)scale(0.2 -0.2)">
       <use xlink:href="#DejaVuSans-48"/>
       <use x="63.623047" xlink:href="#DejaVuSans-46"/>
       <use x="95.410156" xlink:href="#DejaVuSans-48"/>
       <use x="159.033203" xlink:href="#DejaVuSans-57"/>
      </g>
     </g>
    </g>
    <g id="ytick_3">
     <g id="line2d_8">
      <g>
       <use style="stroke:#000000;stroke-width:0.8;" x="83.694615" xlink:href="#m911cb457b5" y="754.706769"/>
      </g>
     </g>
     <g id="text_9">
      <!-- 0.10 -->
      <g transform="translate(32.163365 762.305206)scale(0.2 -0.2)">
       <use xlink:href="#DejaVuSans-48"/>
       <use x="63.623047" xlink:href="#DejaVuSans-46"/>
       <use x="95.410156" xlink:href="#DejaVuSans-49"/>
       <use x="159.033203" xlink:href="#DejaVuSans-48"/>
      </g>
     </g>
    </g>
    <g id="ytick_4">
     <g id="line2d_9">
      <g>
       <use style="stroke:#000000;stroke-width:0.8;" x="83.694615" xlink:href="#m911cb457b5" y="621.780093"/>
      </g>
     </g>
     <g id="text_10">
      <!-- 0.11 -->
      <g transform="translate(32.163365 629.378531)scale(0.2 -0.2)">
       <use xlink:href="#DejaVuSans-48"/>
       <use x="63.623047" xlink:href="#DejaVuSans-46"/>
       <use x="95.410156" xlink:href="#DejaVuSans-49"/>
       <use x="159.033203" xlink:href="#DejaVuSans-49"/>
      </g>
     </g>
    </g>
    <g id="ytick_5">
     <g id="line2d_10">
      <g>
       <use style="stroke:#000000;stroke-width:0.8;" x="83.694615" xlink:href="#m911cb457b5" y="488.853418"/>
      </g>
     </g>
     <g id="text_11">
      <!-- 0.12 -->
      <g transform="translate(32.163365 496.451855)scale(0.2 -0.2)">
       <use xlink:href="#DejaVuSans-48"/>
       <use x="63.623047" xlink:href="#DejaVuSans-46"/>
       <use x="95.410156" xlink:href="#DejaVuSans-49"/>
       <use x="159.033203" xlink:href="#DejaVuSans-50"/>
      </g>
     </g>
    </g>
    <g id="ytick_6">
     <g id="line2d_11">
      <g>
       <use style="stroke:#000000;stroke-width:0.8;" x="83.694615" xlink:href="#m911cb457b5" y="355.926742"/>
      </g>
     </g>
     <g id="text_12">
      <!-- 0.13 -->
      <defs>
       <path d="M 40.578125 39.3125 
Q 47.65625 37.796875 51.625 33 
Q 55.609375 28.21875 55.609375 21.1875 
Q 55.609375 10.40625 48.1875 4.484375 
Q 40.765625 -1.421875 27.09375 -1.421875 
Q 22.515625 -1.421875 17.65625 -0.515625 
Q 12.796875 0.390625 7.625 2.203125 
L 7.625 11.71875 
Q 11.71875 9.328125 16.59375 8.109375 
Q 21.484375 6.890625 26.8125 6.890625 
Q 36.078125 6.890625 40.9375 10.546875 
Q 45.796875 14.203125 45.796875 21.1875 
Q 45.796875 27.640625 41.28125 31.265625 
Q 36.765625 34.90625 28.71875 34.90625 
L 20.21875 34.90625 
L 20.21875 43.015625 
L 29.109375 43.015625 
Q 36.375 43.015625 40.234375 45.921875 
Q 44.09375 48.828125 44.09375 54.296875 
Q 44.09375 59.90625 40.109375 62.90625 
Q 36.140625 65.921875 28.71875 65.921875 
Q 24.65625 65.921875 20.015625 65.03125 
Q 15.375 64.15625 9.8125 62.3125 
L 9.8125 71.09375 
Q 15.4375 72.65625 20.34375 73.4375 
Q 25.25 74.21875 29.59375 74.21875 
Q 40.828125 74.21875 47.359375 69.109375 
Q 53.90625 64.015625 53.90625 55.328125 
Q 53.90625 49.265625 50.4375 45.09375 
Q 46.96875 40.921875 40.578125 39.3125 
z
" id="DejaVuSans-51"/>
      </defs>
      <g transform="translate(32.163365 363.52518)scale(0.2 -0.2)">
       <use xlink:href="#DejaVuSans-48"/>
       <use x="63.623047" xlink:href="#DejaVuSans-46"/>
       <use x="95.410156" xlink:href="#DejaVuSans-49"/>
       <use x="159.033203" xlink:href="#DejaVuSans-51"/>
      </g>
     </g>
    </g>
    <g id="ytick_7">
     <g id="line2d_12">
      <g>
       <use style="stroke:#000000;stroke-width:0.8;" x="83.694615" xlink:href="#m911cb457b5" y="223.000067"/>
      </g>
     </g>
     <g id="text_13">
      <!-- 0.14 -->
      <g transform="translate(32.163365 230.598504)scale(0.2 -0.2)">
       <use xlink:href="#DejaVuSans-48"/>
       <use x="63.623047" xlink:href="#DejaVuSans-46"/>
       <use x="95.410156" xlink:href="#DejaVuSans-49"/>
       <use x="159.033203" xlink:href="#DejaVuSans-52"/>
      </g>
     </g>
    </g>
    <g id="text_14">
     <!-- Length [m] -->
     <defs>
      <path d="M 9.8125 72.90625 
L 19.671875 72.90625 
L 19.671875 8.296875 
L 55.171875 8.296875 
L 55.171875 0 
L 9.8125 0 
z
" id="DejaVuSans-76"/>
      <path d="M 54.890625 33.015625 
L 54.890625 0 
L 45.90625 0 
L 45.90625 32.71875 
Q 45.90625 40.484375 42.875 44.328125 
Q 39.84375 48.1875 33.796875 48.1875 
Q 26.515625 48.1875 22.3125 43.546875 
Q 18.109375 38.921875 18.109375 30.90625 
L 18.109375 0 
L 9.078125 0 
L 9.078125 54.6875 
L 18.109375 54.6875 
L 18.109375 46.1875 
Q 21.34375 51.125 25.703125 53.5625 
Q 30.078125 56 35.796875 56 
Q 45.21875 56 50.046875 50.171875 
Q 54.890625 44.34375 54.890625 33.015625 
z
" id="DejaVuSans-110"/>
      <path d="M 45.40625 27.984375 
Q 45.40625 37.75 41.375 43.109375 
Q 37.359375 48.484375 30.078125 48.484375 
Q 22.859375 48.484375 18.828125 43.109375 
Q 14.796875 37.75 14.796875 27.984375 
Q 14.796875 18.265625 18.828125 12.890625 
Q 22.859375 7.515625 30.078125 7.515625 
Q 37.359375 7.515625 41.375 12.890625 
Q 45.40625 18.265625 45.40625 27.984375 
z
M 54.390625 6.78125 
Q 54.390625 -7.171875 48.1875 -13.984375 
Q 42 -20.796875 29.203125 -20.796875 
Q 24.46875 -20.796875 20.265625 -20.09375 
Q 16.0625 -19.390625 12.109375 -17.921875 
L 12.109375 -9.1875 
Q 16.0625 -11.328125 19.921875 -12.34375 
Q 23.78125 -13.375 27.78125 -13.375 
Q 36.625 -13.375 41.015625 -8.765625 
Q 45.40625 -4.15625 45.40625 5.171875 
L 45.40625 9.625 
Q 42.625 4.78125 38.28125 2.390625 
Q 33.9375 0 27.875 0 
Q 17.828125 0 11.671875 7.65625 
Q 5.515625 15.328125 5.515625 27.984375 
Q 5.515625 40.671875 11.671875 48.328125 
Q 17.828125 56 27.875 56 
Q 33.9375 56 38.28125 53.609375 
Q 42.625 51.21875 45.40625 46.390625 
L 45.40625 54.6875 
L 54.390625 54.6875 
z
" id="DejaVuSans-103"/>
      <path d="M 18.3125 70.21875 
L 18.3125 54.6875 
L 36.8125 54.6875 
L 36.8125 47.703125 
L 18.3125 47.703125 
L 18.3125 18.015625 
Q 18.3125 11.328125 20.140625 9.421875 
Q 21.96875 7.515625 27.59375 7.515625 
L 36.8125 7.515625 
L 36.8125 0 
L 27.59375 0 
Q 17.1875 0 13.234375 3.875 
Q 9.28125 7.765625 9.28125 18.015625 
L 9.28125 47.703125 
L 2.6875 47.703125 
L 2.6875 54.6875 
L 9.28125 54.6875 
L 9.28125 70.21875 
z
" id="DejaVuSans-116"/>
      <path d="M 54.890625 33.015625 
L 54.890625 0 
L 45.90625 0 
L 45.90625 32.71875 
Q 45.90625 40.484375 42.875 44.328125 
Q 39.84375 48.1875 33.796875 48.1875 
Q 26.515625 48.1875 22.3125 43.546875 
Q 18.109375 38.921875 18.109375 30.90625 
L 18.109375 0 
L 9.078125 0 
L 9.078125 75.984375 
L 18.109375 75.984375 
L 18.109375 46.1875 
Q 21.34375 51.125 25.703125 53.5625 
Q 30.078125 56 35.796875 56 
Q 45.21875 56 50.046875 50.171875 
Q 54.890625 44.34375 54.890625 33.015625 
z
" id="DejaVuSans-104"/>
     </defs>
     <g transform="translate(22.756178 661.697574)rotate(-90)scale(0.26 -0.26)">
      <use xlink:href="#DejaVuSans-76"/>
      <use x="55.697266" xlink:href="#DejaVuSans-101"/>
      <use x="117.220703" xlink:href="#DejaVuSans-110"/>
      <use x="180.599609" xlink:href="#DejaVuSans-103"/>
      <use x="244.076172" xlink:href="#DejaVuSans-116"/>
      <use x="283.285156" xlink:href="#DejaVuSans-104"/>
      <use x="346.664062" xlink:href="#DejaVuSans-32"/>
      <use x="378.451172" xlink:href="#DejaVuSans-91"/>
      <use x="417.464844" xlink:href="#DejaVuSans-109"/>
      <use x="514.876953" xlink:href="#DejaVuSans-93"/>
     </g>
    </g>
   </g>
   <g id="line2d_13">
    <path clip-path="url(#pca9e25f292)" d="M 210.663031 981.676106 
L 217.619035 981.650554 
L 218.488404 953.874529 
L 220.225944 875.681975 
L 221.096888 854.561211 
L 221.964529 809.486995 
L 222.834963 772.284426 
L 223.704689 748.990469 
L 225.444371 688.664089 
L 226.312477 673.346363 
L 228.04978 585.336956 
L 228.919985 557.846062 
L 229.78885 542.221812 
L 230.657951 512.008064 
L 231.529935 493.176763 
L 232.397238 484.234317 
L 233.266396 471.656578 
L 234.136314 467.938688 
L 235.005281 467.225416 
L 235.874248 466.957518 
L 240.220985 466.91404 
L 1026.114853 466.91404 
L 1026.981729 471.63687 
L 1027.853757 492.630568 
L 1028.720307 508.449724 
L 1029.59437 546.577111 
L 1031.334633 668.69593 
L 1032.198262 683.663458 
L 1033.067127 737.989515 
L 1033.936203 782.936368 
L 1034.806216 792.870978 
L 1035.675451 807.401649 
L 1036.546383 809.756082 
L 1037.414406 809.958317 
L 1040.892629 809.977927 
L 1832.87178 809.977828 
L 1833.737948 799.330441 
L 1834.607725 791.348268 
L 1835.47696 751.873368 
L 1836.348198 723.239773 
L 1837.216413 679.330938 
L 1838.084812 657.43114 
L 1838.955355 626.927804 
L 1839.824877 600.852362 
L 1840.694673 582.085832 
L 1841.56241 550.274104 
L 1842.432601 524.04139 
L 1843.3016 505.783124 
L 1844.17074 484.904409 
L 1845.040345 472.03114 
L 1845.908789 468.558271 
L 1846.780371 467.161437 
L 1847.650174 466.979405 
L 1850.256336 466.914436 
L 2176.268645 466.91404 
L 2638.756168 466.91404 
L 2639.626552 482.772713 
L 2640.493682 494.706704 
L 2641.365857 546.608011 
L 2642.233428 581.352554 
L 2643.105035 604.739805 
L 2643.974009 655.700152 
L 2644.840859 694.741067 
L 2645.711293 717.288574 
L 2646.580343 771.243931 
L 2647.449604 798.024227 
L 2648.317965 806.309754 
L 2649.187825 809.174134 
L 2650.058011 809.894735 
L 2651.795327 809.978026 
L 2750.031344 809.977828 
L 2750.031344 809.977828 
" style="fill:none;stroke:#008000;stroke-dasharray:9.6,2.4,1.5,2.4;stroke-dashoffset:0;stroke-width:1.5;"/>
   </g>
   <g id="line2d_14">
    <path clip-path="url(#pca9e25f292)" d="M 210.663031 981.894749 
L 211.536558 982.226877 
L 212.403542 982.007557 
L 213.272617 981.596652 
L 214.140296 981.463976 
L 217.619035 981.566841 
L 218.488404 974.298899 
L 219.357786 949.496276 
L 220.225944 907.17058 
L 221.964529 791.476062 
L 222.834963 753.670628 
L 223.704689 736.191443 
L 224.572916 733.635362 
L 225.444371 718.154006 
L 226.312477 685.694796 
L 227.181432 636.115108 
L 228.04978 579.693488 
L 228.919985 536.977851 
L 229.78885 514.711233 
L 230.657951 512.06326 
L 231.529935 513.167985 
L 232.397238 500.758663 
L 234.136314 445.839707 
L 235.005281 438.345126 
L 235.874248 450.295128 
L 236.743962 478.485565 
L 237.612814 497.727552 
L 238.483433 500.486074 
L 239.352898 486.71586 
L 240.220985 458.80902 
L 241.091623 440.578622 
L 241.962204 442.1102 
L 242.828525 463.013252 
L 243.699252 489.478594 
L 244.568915 500.326973 
L 245.438265 494.70411 
L 246.306849 472.698838 
L 247.176059 446.891123 
L 248.045708 439.739083 
L 248.917157 451.989614 
L 249.784472 479.582198 
L 250.653707 497.081019 
L 251.524314 498.139651 
L 252.394939 482.705794 
L 253.26089 455.113777 
L 254.131196 440.745817 
L 255.000808 445.975068 
L 256.738678 492.49918 
L 257.607614 498.797919 
L 258.480076 488.605877 
L 259.346664 463.136457 
L 260.216422 443.306631 
L 261.085326 443.233202 
L 261.95502 462.473019 
L 262.825486 487.937506 
L 263.693254 498.033951 
L 264.563338 491.704567 
L 266.302114 446.172411 
L 267.174863 442.3649 
L 268.048314 457.948872 
L 268.91091 484.239927 
L 269.779916 496.796221 
L 270.647856 492.98467 
L 271.517512 472.794345 
L 272.387385 448.426606 
L 273.259956 442.437479 
L 274.125243 455.839039 
L 274.994976 481.978774 
L 275.86511 495.731586 
L 276.735021 493.109775 
L 277.603465 474.082599 
L 278.472936 449.548082 
L 279.342886 442.892604 
L 280.211215 455.633016 
L 281.085317 481.394811 
L 281.951835 495.056724 
L 282.820266 492.364034 
L 283.689023 473.288516 
L 284.557652 449.409671 
L 285.427984 443.613586 
L 286.297596 457.193215 
L 287.166072 482.467662 
L 288.035141 494.768838 
L 288.906392 490.733827 
L 290.644192 448.205725 
L 291.513498 444.763433 
L 292.382777 460.61725 
L 293.252134 484.850969 
L 294.12348 494.555893 
L 294.990814 487.938433 
L 295.8607 465.673898 
L 296.729348 446.522286 
L 297.597946 446.860618 
L 298.467953 466.070319 
L 299.336831 487.880996 
L 300.209465 493.845636 
L 301.075218 483.434292 
L 301.946322 459.403113 
L 302.814052 445.259792 
L 303.683803 450.733882 
L 304.553759 473.405038 
L 305.423071 490.770019 
L 306.29346 491.788899 
L 307.161994 476.411639 
L 308.031306 452.829647 
L 308.900668 445.482657 
L 309.770426 457.528319 
L 310.640956 481.315616 
L 311.508922 492.451672 
L 312.37722 487.318839 
L 314.115518 447.865285 
L 314.986354 448.583019 
L 316.723013 487.685296 
L 317.595558 491.575004 
L 318.462969 479.116072 
L 319.332752 455.807564 
L 320.200183 446.329292 
L 321.069367 456.32157 
L 321.938972 479.417069 
L 322.810082 491.126122 
L 323.678271 486.583787 
L 325.417048 448.531052 
L 326.292718 449.926949 
L 328.02622 487.681651 
L 328.89432 489.871005 
L 329.763733 475.726146 
L 330.634977 453.649072 
L 331.503103 447.627678 
L 332.372963 460.868103 
L 333.24112 482.648706 
L 334.110936 490.367837 
L 334.980815 481.87235 
L 335.850458 460.028211 
L 336.718647 447.857853 
L 337.589751 455.226727 
L 338.45891 477.010859 
L 339.329675 489.254989 
L 340.197112 485.279744 
L 341.066232 465.862917 
L 341.936514 449.398301 
L 342.807292 452.134876 
L 343.673562 471.912097 
L 344.543696 487.501909 
L 345.41339 486.901577 
L 347.151612 451.376535 
L 348.022224 450.734692 
L 349.759017 485.753907 
L 350.629209 487.417677 
L 351.498897 472.875325 
L 352.368489 453.080451 
L 353.236666 450.343488 
L 354.107789 466.128274 
L 354.97497 484.461881 
L 355.845226 487.294198 
L 356.713645 473.927173 
L 357.584244 454.060065 
L 358.452663 450.529798 
L 359.322198 465.599991 
L 360.192007 483.860623 
L 361.060828 486.777149 
L 361.93049 473.539446 
L 362.800765 454.145724 
L 363.668495 451.1521 
L 364.540275 466.512454 
L 365.409676 483.944801 
L 366.277667 485.884011 
L 367.145793 471.76238 
L 368.015544 453.453699 
L 368.890793 452.320881 
L 370.628141 484.535334 
L 371.492491 484.413836 
L 373.231299 452.365066 
L 374.106025 454.407458 
L 374.971032 472.417651 
L 375.839222 485.217725 
L 376.708642 481.934062 
L 377.582213 464.176412 
L 378.447546 451.561974 
L 379.3165 458.007504 
L 380.188299 476.819405 
L 381.055098 485.347906 
L 381.927732 477.790277 
L 382.797069 459.120108 
L 383.66582 451.971817 
L 384.533027 463.576094 
L 385.401949 480.958643 
L 386.273538 484.067634 
L 387.141344 471.317977 
L 388.009865 454.661172 
L 388.88 454.694605 
L 389.751543 470.92182 
L 390.618119 483.533009 
L 391.487718 480.24459 
L 392.356698 463.286464 
L 393.228025 452.730421 
L 394.097859 460.899269 
L 394.965188 478.260178 
L 395.836808 483.397931 
L 396.702873 472.653048 
L 397.573122 456.227918 
L 398.443646 455.103533 
L 399.312173 470.125632 
L 400.18211 482.424053 
L 401.057117 478.984371 
L 401.919662 462.654506 
L 402.789675 453.653029 
L 403.659044 462.843126 
L 404.527616 478.849231 
L 405.397125 481.677698 
L 407.136488 455.325363 
L 408.007649 458.101439 
L 408.876757 473.707185 
L 409.744959 481.870349 
L 410.613684 474.167066 
L 411.484233 458.663817 
L 412.355158 455.775717 
L 414.090867 480.597401 
L 414.959745 477.312685 
L 415.830211 462.356651 
L 416.699171 455.247524 
L 417.568694 464.626164 
L 418.437348 478.52867 
L 419.306985 478.878158 
L 420.176565 465.611051 
L 421.045698 455.840001 
L 421.916827 461.992642 
L 422.784053 476.129122 
L 423.654047 479.353377 
L 425.39232 456.951295 
L 426.261804 460.501374 
L 427.130892 473.964493 
L 428.000344 479.211791 
L 428.869433 469.664838 
L 429.740013 458.099549 
L 430.610588 459.877932 
L 431.47997 472.38151 
L 432.346979 478.760624 
L 433.216265 470.48781 
L 434.08631 459.077672 
L 434.955233 459.848237 
L 435.82485 471.419423 
L 436.694404 478.185226 
L 437.565272 470.756721 
L 438.438334 459.858117 
L 439.302824 460.19929 
L 440.171874 470.943935 
L 441.041938 477.575412 
L 441.909834 470.842788 
L 442.78236 460.573427 
L 443.648553 460.674391 
L 444.518802 470.643254 
L 445.388299 476.937718 
L 446.257674 470.812732 
L 447.127005 461.257222 
L 447.995526 461.231842 
L 448.866502 470.4456 
L 449.739168 476.273142 
L 450.605693 470.665222 
L 451.474061 461.913191 
L 452.343998 461.884754 
L 453.210981 470.341316 
L 454.080969 475.582448 
L 454.950338 470.40754 
L 455.82009 462.538185 
L 456.690639 462.624031 
L 457.558388 470.329827 
L 458.429383 474.87644 
L 459.297113 470.047811 
L 460.167458 463.115776 
L 461.035532 463.428586 
L 461.906171 470.407547 
L 462.775489 474.182108 
L 463.644902 469.588798 
L 464.515273 463.627856 
L 465.389884 464.279409 
L 466.253775 470.524832 
L 467.123807 473.459646 
L 467.989509 469.202368 
L 468.859746 464.070644 
L 469.729057 464.992804 
L 470.598656 470.601646 
L 471.469976 472.933934 
L 473.209072 464.377097 
L 474.079053 465.559141 
L 474.945189 470.702155 
L 475.815782 472.55077 
L 477.554463 464.576744 
L 478.422965 466.074484 
L 479.29417 470.905507 
L 480.161996 472.147669 
L 481.031429 468.076086 
L 481.900077 464.781357 
L 482.769548 466.630632 
L 483.639982 471.081826 
L 484.507636 471.688063 
L 485.377942 467.690156 
L 486.248931 465.048123 
L 487.115851 467.207784 
L 487.990233 471.184049 
L 488.855412 471.175404 
L 489.724239 467.351915 
L 490.594106 465.390716 
L 491.464973 467.792637 
L 492.336536 471.191917 
L 493.20199 470.6175 
L 494.073285 467.084298 
L 494.94141 465.813525 
L 496.678324 471.084641 
L 497.548248 470.030699 
L 498.417942 466.914135 
L 499.287828 466.315954 
L 500.161158 468.870605 
L 501.026738 470.851047 
L 501.894692 469.44453 
L 502.766267 466.871983 
L 503.634431 466.886299 
L 504.502805 469.272291 
L 505.372276 470.488318 
L 506.242073 468.909105 
L 507.111486 466.986718 
L 507.983865 467.482608 
L 508.852214 469.489014 
L 509.719982 470.020994 
L 510.588497 468.505719 
L 511.458293 467.26515 
L 512.32978 467.972814 
L 513.197561 469.440774 
L 514.066815 469.541584 
L 514.936152 468.350801 
L 515.805968 467.665088 
L 516.674903 468.278794 
L 517.543009 469.177062 
L 518.414011 469.138154 
L 519.282812 468.437708 
L 520.151161 468.110107 
L 521.89099 468.771541 
L 522.759357 468.81134 
L 524.498567 468.59939 
L 536.668975 468.586146 
L 1010.465088 468.582789 
L 1026.114853 468.582789 
L 1026.981729 469.564112 
L 1027.853757 474.99691 
L 1028.720307 495.376411 
L 1029.59437 534.895443 
L 1030.460111 591.847746 
L 1032.198262 728.683582 
L 1033.067127 777.307306 
L 1033.936203 807.617004 
L 1034.806216 819.456472 
L 1035.675451 813.367919 
L 1036.546383 800.006837 
L 1037.414406 800.111579 
L 1038.284292 813.665264 
L 1039.152028 822.870845 
L 1040.02303 815.95098 
L 1040.892629 802.072279 
L 1041.760773 799.682889 
L 1043.49962 821.793982 
L 1044.374594 817.248672 
L 1045.239078 804.07158 
L 1046.107586 799.815913 
L 1046.977619 809.394669 
L 1047.84864 820.432755 
L 1048.718072 818.14569 
L 1049.585401 806.075157 
L 1050.454629 800.323132 
L 1051.325842 807.814934 
L 1052.193457 818.84846 
L 1053.064012 818.601807 
L 1053.934115 807.986992 
L 1054.804032 801.146669 
L 1055.671411 806.599756 
L 1056.542413 817.140928 
L 1057.408236 818.64371 
L 1058.282395 809.709551 
L 1059.148447 802.243132 
L 1060.016611 805.788715 
L 1060.886261 815.411214 
L 1061.75776 818.30144 
L 1063.494495 803.567553 
L 1064.364968 805.404737 
L 1065.235555 813.766848 
L 1066.102883 817.64178 
L 1066.971953 812.254461 
L 1067.841194 805.01758 
L 1068.710353 805.428984 
L 1069.580404 812.326619 
L 1070.450692 816.706692 
L 1071.3211 812.945939 
L 1072.189283 806.484983 
L 1073.059366 805.824752 
L 1073.927951 811.182551 
L 1074.797205 815.557571 
L 1075.664795 813.222357 
L 1076.535229 807.839267 
L 1077.405561 806.496507 
L 1079.143298 814.329494 
L 1080.012558 813.105262 
L 1080.883375 808.955757 
L 1081.751207 807.391164 
L 1082.620506 810.094201 
L 1083.490813 813.173296 
L 1084.359416 812.696616 
L 1085.228696 809.716484 
L 1086.10128 808.384494 
L 1086.967026 810.128882 
L 1087.836395 812.279511 
L 1088.706899 812.087015 
L 1089.575822 810.104549 
L 1090.444337 809.171767 
L 1091.3128 810.271013 
L 1092.18317 811.770128 
L 1093.052399 811.680047 
L 1093.92261 810.386756 
L 1094.792948 809.692488 
L 1095.661514 810.268081 
L 1096.528868 811.209607 
L 1097.399206 811.325882 
L 1098.269449 810.744934 
L 1099.139379 810.309196 
L 1100.007677 810.372712 
L 1100.877913 810.662049 
L 1101.745981 810.795748 
L 1115.655197 810.735398 
L 1167.819706 810.690449 
L 1833.737948 810.676352 
L 1834.607725 801.368056 
L 1835.47696 775.645621 
L 1836.348198 734.325891 
L 1838.084812 641.391753 
L 1838.955355 614.898251 
L 1840.694673 602.759034 
L 1841.56241 580.240959 
L 1842.432601 541.130244 
L 1843.3016 488.585298 
L 1844.17074 449.196757 
L 1845.040345 429.999525 
L 1845.908789 430.757334 
L 1846.780371 451.149571 
L 1847.650174 485.697526 
L 1848.517879 508.018964 
L 1849.386246 513.712491 
L 1850.256336 502.706699 
L 1851.126617 475.309622 
L 1851.994742 442.911963 
L 1852.863563 429.285504 
L 1853.734762 435.167865 
L 1854.602556 460.648981 
L 1855.472978 493.234522 
L 1856.342608 510.239912 
L 1857.210255 510.562013 
L 1858.081748 494.282576 
L 1858.955709 462.509309 
L 1859.820773 436.465205 
L 1860.687629 430.393073 
L 1861.558727 443.80606 
L 1862.426246 475.34808 
L 1863.296738 501.503509 
L 1864.164844 511.061693 
L 1865.034366 503.905944 
L 1865.905119 480.289278 
L 1866.773908 447.70728 
L 1867.642595 432.034626 
L 1868.51262 435.924117 
L 1869.382002 459.405361 
L 1870.250498 491.173843 
L 1871.120932 507.733363 
L 1871.989204 507.661754 
L 1872.857884 491.017105 
L 1873.727872 459.556435 
L 1874.598759 436.47242 
L 1875.468651 433.293858 
L 1876.335934 449.61934 
L 1877.205412 481.582499 
L 1878.075693 503.180296 
L 1878.94526 508.205918 
L 1879.814731 496.597269 
L 1881.553226 441.22103 
L 1882.426811 433.271739 
L 1883.290861 444.763334 
L 1884.161563 474.417938 
L 1885.031921 499.175973 
L 1885.899561 507.363954 
L 1886.769402 498.902729 
L 1887.637604 474.043082 
L 1888.507056 444.724687 
L 1889.37749 434.156322 
L 1890.245986 443.034257 
L 1891.984265 496.71455 
L 1892.854654 506.19639 
L 1893.724304 499.046535 
L 1894.595452 475.468437 
L 1895.463801 446.122123 
L 1896.333093 435.06424 
L 1897.20127 443.466102 
L 1898.940295 496.153538 
L 1899.808165 505.15625 
L 1900.677496 497.548037 
L 1901.548836 473.543638 
L 1902.41735 445.342415 
L 1903.285973 435.881459 
L 1904.155234 445.857418 
L 1905.025923 473.929793 
L 1905.895375 497.27768 
L 1906.766013 504.084336 
L 1907.640121 494.298093 
L 1909.372513 442.930123 
L 1910.245007 437.051251 
L 1911.111723 450.595109 
L 1911.981513 479.900558 
L 1912.849556 499.363217 
L 1913.719129 502.329928 
L 1914.587917 488.744669 
L 1915.456776 460.396238 
L 1916.326088 440.097296 
L 1917.196445 439.62761 
L 1918.065744 458.64433 
L 1918.934763 487.20704 
L 1919.808475 501.248331 
L 1920.673654 498.796838 
L 1921.542608 479.868953 
L 1922.413757 451.173996 
L 1923.281047 438.413038 
L 1924.150224 445.15894 
L 1925.888937 494.166699 
L 1926.759397 501.344339 
L 1927.626782 491.979479 
L 1929.366082 443.430358 
L 1930.236943 439.834923 
L 1931.10561 455.658905 
L 1931.974176 483.834607 
L 1932.845701 499.020264 
L 1933.714209 497.775887 
L 1934.589898 480.052194 
L 1935.452851 452.16173 
L 1936.320823 439.759214 
L 1937.191328 446.866378 
L 1938.061928 472.196968 
L 1938.929645 494.044127 
L 1939.80152 499.442358 
L 1940.669614 488.329817 
L 1941.53788 462.147441 
L 1942.407893 442.553518 
L 1943.277855 442.741159 
L 1944.145477 462.275744 
L 1945.016038 488.188333 
L 1945.884017 498.723108 
L 1946.754355 492.835727 
L 1948.493113 446.532421 
L 1949.366244 441.412807 
L 1950.232501 455.679651 
L 1951.101239 482.610817 
L 1951.970378 496.957973 
L 1952.839543 494.911002 
L 1953.708472 476.419811 
L 1954.5789 450.423754 
L 1955.447121 441.532169 
L 1956.320298 452.063564 
L 1957.1854 478.256954 
L 1958.059106 495.091079 
L 1958.925586 495.522017 
L 1959.792602 479.494477 
L 1960.665179 453.24263 
L 1961.533597 442.160756 
L 1962.402545 450.562153 
L 1963.270314 475.739419 
L 1964.140078 493.726084 
L 1965.011667 495.29713 
L 1965.879703 480.414158 
L 1966.750105 454.470918 
L 1967.620329 442.78273 
L 1968.487587 450.613915 
L 1969.35744 475.302729 
L 1970.226236 493.133051 
L 1971.096268 494.54452 
L 1971.96556 479.513313 
L 1972.835727 454.005795 
L 1973.703578 443.27403 
L 1974.575798 452.035195 
L 1975.442361 476.828339 
L 1976.311895 493.214734 
L 1977.18173 493.222282 
L 1978.051915 476.803607 
L 1978.91969 452.118751 
L 1979.789741 443.850891 
L 1980.657676 455.013099 
L 1981.530597 479.964695 
L 1982.396057 493.665887 
L 1983.26642 491.037101 
L 1984.135062 472.080231 
L 1985.004521 449.403951 
L 1985.875031 445.039927 
L 1986.743929 459.987155 
L 1987.613125 484.031198 
L 1988.484701 493.875767 
L 1989.353636 487.42398 
L 1990.221787 465.400442 
L 1991.095385 446.792704 
L 1991.959505 447.663316 
L 1993.698058 488.119283 
L 1994.566955 493.034363 
L 1995.439787 481.578313 
L 1996.306293 457.605438 
L 1997.175056 445.464589 
L 1998.045031 452.883706 
L 1998.915975 476.150525 
L 1999.78486 491.248957 
L 2000.655721 490.021497 
L 2001.523075 472.475072 
L 2002.395856 450.601011 
L 2003.261832 446.68313 
L 2004.131099 461.953736 
L 2005.0002 484.4068 
L 2005.869544 492.115083 
L 2006.738358 483.557432 
L 2007.609895 460.934103 
L 2008.478537 446.766115 
L 2009.346752 452.18766 
L 2010.216714 474.16782 
L 2011.086179 489.808965 
L 2011.955995 489.146776 
L 2012.825032 472.203623 
L 2013.693119 451.094787 
L 2014.563745 447.865177 
L 2015.431685 463.656051 
L 2016.301858 484.813378 
L 2017.171125 490.813954 
L 2018.042279 480.554425 
L 2018.909952 458.042361 
L 2019.778932 447.28988 
L 2020.649647 456.057085 
L 2021.518027 478.375273 
L 2022.386988 489.981531 
L 2023.256051 485.367515 
L 2024.126287 465.385457 
L 2024.995025 448.907792 
L 2025.867895 451.732225 
L 2026.73266 471.750717 
L 2027.603298 487.832262 
L 2028.473216 487.710419 
L 2029.342087 471.401329 
L 2030.212713 451.627604 
L 2031.081527 449.762926 
L 2031.950724 466.431979 
L 2032.818989 485.289669 
L 2033.690042 488.504986 
L 2034.557976 475.464609 
L 2035.427148 454.462227 
L 2036.29651 449.170471 
L 2037.164795 462.933943 
L 2038.035261 483.030821 
L 2038.905223 488.464139 
L 2039.77414 477.704668 
L 2040.643764 456.658675 
L 2041.512431 449.265516 
L 2042.383529 461.134246 
L 2043.251233 481.479157 
L 2044.120162 488.057178 
L 2044.989984 478.469973 
L 2045.860176 457.767212 
L 2046.729896 449.627764 
L 2047.597785 460.780883 
L 2048.46783 480.876591 
L 2049.340688 487.514745 
L 2050.207059 478.015206 
L 2051.075746 457.696798 
L 2051.944853 450.128847 
L 2052.815096 461.740095 
L 2053.683145 481.222403 
L 2054.553994 486.847434 
L 2055.423962 476.344349 
L 2056.290347 456.560663 
L 2057.162248 450.885489 
L 2058.031221 464.041069 
L 2058.901828 482.323034 
L 2059.768646 485.853341 
L 2060.642759 473.298037 
L 2061.508066 454.699119 
L 2062.377901 452.260867 
L 2064.115548 483.732509 
L 2064.98516 484.104663 
L 2066.723336 452.800671 
L 2067.593209 454.894222 
L 2068.465869 472.636535 
L 2069.33277 484.818706 
L 2070.200947 480.942226 
L 2071.077325 463.158122 
L 2071.941866 451.849904 
L 2072.81075 459.574033 
L 2073.678206 477.957887 
L 2074.547639 484.740931 
L 2075.418806 475.477314 
L 2076.286256 457.411668 
L 2077.156065 453.003048 
L 2078.026882 466.565046 
L 2078.895555 482.0848 
L 2079.763439 482.399325 
L 2081.502406 453.496281 
L 2082.372419 457.562278 
L 2083.242407 474.805827 
L 2084.111476 483.634135 
L 2084.980986 476.416622 
L 2085.85082 459.122132 
L 2086.719807 453.650558 
L 2087.591038 466.008572 
L 2088.460146 481.029824 
L 2089.326606 481.177365 
L 2090.197525 466.575255 
L 2091.071365 454.078561 
L 2091.934682 459.428761 
L 2092.805186 475.907647 
L 2093.6737 482.415549 
L 2094.543293 473.044842 
L 2095.412904 457.357107 
L 2096.283472 455.871159 
L 2097.150539 469.954818 
L 2098.020648 481.433475 
L 2098.889864 477.307894 
L 2099.759437 461.685202 
L 2100.628602 454.763413 
L 2101.499132 464.885377 
L 2102.369113 479.161626 
L 2103.236154 479.483483 
L 2104.106263 465.845005 
L 2104.976703 455.346563 
L 2105.844414 461.355945 
L 2106.714472 476.154253 
L 2107.585716 480.195677 
L 2109.325315 456.787629 
L 2110.193205 459.295333 
L 2111.060099 473.203837 
L 2111.930361 480.008866 
L 2112.79952 471.494431 
L 2113.668908 458.454934 
L 2114.538111 458.336622 
L 2115.408596 470.839516 
L 2116.280032 479.393403 
L 2117.146084 472.841114 
L 2118.014956 459.905692 
L 2118.885505 458.114714 
L 2119.754823 469.266214 
L 2120.624052 478.641712 
L 2121.494441 473.420886 
L 2122.36279 460.994477 
L 2123.235431 458.354754 
L 2124.977 477.909595 
L 2125.839131 473.478026 
L 2126.710164 461.743554 
L 2127.577856 458.864188 
L 2129.318597 477.240019 
L 2130.186882 473.349973 
L 2131.055211 462.380484 
L 2131.926959 459.477929 
L 2133.66388 476.597646 
L 2134.533376 473.112641 
L 2135.402197 462.949629 
L 2136.272229 460.153796 
L 2138.010093 475.965988 
L 2138.880815 472.763065 
L 2139.750809 463.467669 
L 2140.618966 460.908972 
L 2142.357972 475.320727 
L 2143.226531 472.313973 
L 2144.096053 463.92637 
L 2144.965499 461.72314 
L 2146.70277 474.698271 
L 2147.572802 471.769696 
L 2148.442197 464.303566 
L 2149.312012 462.575862 
L 2151.051337 474.113225 
L 2151.921605 471.145991 
L 2152.793551 464.597305 
L 2153.658468 463.446866 
L 2154.527735 468.986979 
L 2155.396983 473.490733 
L 2156.267813 470.615246 
L 2157.136098 464.848581 
L 2158.006258 464.170318 
L 2158.873694 469.271928 
L 2159.744709 473.021549 
L 2160.614824 470.171873 
L 2161.483268 464.991152 
L 2162.351859 464.728171 
L 2163.223499 469.537866 
L 2164.092778 472.733818 
L 2164.965279 469.727107 
L 2165.829119 465.047912 
L 2166.701051 465.222628 
L 2167.571364 469.856075 
L 2168.438941 472.448142 
L 2169.309229 469.243741 
L 2170.175186 465.102954 
L 2171.048018 465.748982 
L 2171.914574 470.185615 
L 2172.784613 472.098085 
L 2174.525411 465.221564 
L 2175.393479 466.314305 
L 2176.268645 470.458455 
L 2177.13172 471.679516 
L 2177.999756 468.303568 
L 2178.872059 465.420079 
L 2179.738813 466.909931 
L 2180.608603 470.652234 
L 2181.479841 471.192814 
L 2182.348993 467.89156 
L 2183.216997 465.706142 
L 2184.086608 467.522481 
L 2184.955926 470.740871 
L 2185.826762 470.646425 
L 2186.695028 467.554242 
L 2187.565111 466.086681 
L 2188.432236 468.121828 
L 2189.302816 470.695512 
L 2190.171707 470.060214 
L 2191.04269 467.326939 
L 2191.911255 466.559819 
L 2193.650178 470.496156 
L 2194.517787 469.474127 
L 2195.386174 467.24996 
L 2196.257456 467.104774 
L 2197.12812 469.047354 
L 2197.995486 470.14839 
L 2198.865595 468.96445 
L 2199.734741 467.361732 
L 2200.603166 467.627818 
L 2201.473913 469.176878 
L 2202.342982 469.706726 
L 2204.081185 467.667389 
L 2204.951313 468.032652 
L 2205.819202 469.056453 
L 2206.68963 469.26437 
L 2207.559981 468.596516 
L 2208.427526 468.084978 
L 2209.298183 468.275695 
L 2210.167482 468.744239 
L 2211.036131 468.856149 
L 2212.774811 468.566845 
L 2218.86005 468.560632 
L 2301.450371 468.582743 
L 2639.626552 468.597821 
L 2640.493682 479.516869 
L 2641.365857 510.04614 
L 2642.233428 560.488431 
L 2643.974009 691.741319 
L 2644.840859 737.682861 
L 2645.711293 765.415318 
L 2646.580343 775.595467 
L 2647.449604 778.698944 
L 2648.317965 797.690983 
L 2649.187825 825.925747 
L 2650.058011 839.059611 
L 2650.926359 834.609753 
L 2652.665589 788.856606 
L 2653.533733 784.003959 
L 2654.406737 798.591133 
L 2655.274837 825.403569 
L 2656.142472 838.333345 
L 2657.011879 833.617231 
L 2658.751459 788.747658 
L 2659.61968 785.040648 
L 2660.489591 800.773408 
L 2661.360854 826.822265 
L 2662.228667 837.877325 
L 2663.097998 831.324082 
L 2663.966308 807.888865 
L 2664.836181 787.695931 
L 2665.705793 786.832397 
L 2666.574148 805.302346 
L 2667.444939 829.587352 
L 2668.312924 837.225839 
L 2669.185603 827.283496 
L 2670.053237 802.257832 
L 2670.921478 786.466036 
L 2671.793506 790.120424 
L 2673.529362 832.711652 
L 2674.3978 835.502012 
L 2675.267481 820.62009 
L 2676.137214 795.644713 
L 2677.008113 786.20037 
L 2677.876035 796.087374 
L 2678.746022 820.88784 
L 2679.61497 835.002777 
L 2680.485137 831.439602 
L 2682.222931 790.107796 
L 2683.092581 788.505355 
L 2683.962313 806.076376 
L 2684.832511 828.795067 
L 2685.701153 834.868413 
L 2686.569381 823.377635 
L 2687.439126 799.123259 
L 2688.309802 787.594006 
L 2689.177373 795.414373 
L 2690.047348 818.964317 
L 2690.918146 833.460656 
L 2691.785467 830.271697 
L 2693.526017 790.719824 
L 2694.395564 790.323445 
L 2696.132791 829.394052 
L 2697.00348 832.894154 
L 2697.872524 818.840035 
L 2698.741128 795.939768 
L 2699.6088 788.937459 
L 2700.479541 801.180134 
L 2701.349586 824.119541 
L 2702.219408 832.969158 
L 2703.088126 824.289263 
L 2703.956328 801.687521 
L 2704.827413 789.531825 
L 2705.696182 796.702351 
L 2706.564084 818.996424 
L 2707.435501 831.842957 
L 2708.303237 827.069648 
L 2709.173665 806.348801 
L 2710.041165 790.889418 
L 2710.91607 794.582577 
L 2711.78107 815.202195 
L 2712.652027 830.458002 
L 2713.520338 828.117145 
L 2715.257788 792.147824 
L 2716.127641 793.972817 
L 2716.997814 813.288171 
L 2717.865908 829.411595 
L 2718.736571 828.049714 
L 2720.474404 792.865645 
L 2721.344436 794.406831 
L 2722.213084 813.298564 
L 2723.082179 828.930967 
L 2723.954552 827.115222 
L 2725.691243 792.982064 
L 2726.558661 795.800319 
L 2727.428559 815.084989 
L 2728.298559 828.892982 
L 2729.167501 825.200933 
L 2730.038343 806.144958 
L 2730.908656 792.810698 
L 2731.777713 798.470087 
L 2732.64557 818.35224 
L 2733.516521 828.84825 
L 2734.384085 821.83324 
L 2735.255514 802.086334 
L 2736.124462 793.046723 
L 2736.993391 803.029221 
L 2737.861517 822.376147 
L 2738.733246 827.97244 
L 2739.59984 816.293617 
L 2740.471595 797.715506 
L 2741.3406 794.773892 
L 2743.077852 825.774853 
L 2743.948127 825.086 
L 2744.816278 808.61332 
L 2745.686189 794.86844 
L 2746.55448 799.539476 
L 2747.424965 817.737423 
L 2748.294545 826.875463 
L 2749.163417 818.627408 
L 2750.031344 800.572747 
L 2750.031344 800.572747 
" style="fill:none;stroke:#008000;stroke-linecap:square;stroke-width:3;"/>
   </g>
   <g id="line2d_15">
    <path clip-path="url(#pca9e25f292)" d="M 210.663031 197.691271 
L 217.619035 197.71603 
L 218.488404 224.802156 
L 220.225944 302.406621 
L 221.096888 323.710507 
L 221.964529 369.662795 
L 222.834963 408.091357 
L 223.704689 432.384905 
L 225.444371 496.137606 
L 226.312477 512.519497 
L 228.04978 608.196235 
L 228.919985 638.6348 
L 229.78885 656.054213 
L 230.657951 689.989318 
L 231.529935 711.308951 
L 232.397238 721.479073 
L 233.266396 735.834149 
L 234.136314 740.088826 
L 235.005281 740.905692 
L 235.874248 741.212512 
L 239.352898 741.262229 
L 1026.114853 741.262328 
L 1026.981729 735.85673 
L 1027.853757 711.929325 
L 1028.720307 694.007888 
L 1029.59437 651.18966 
L 1031.334633 517.508738 
L 1032.198262 501.476948 
L 1033.067127 443.920268 
L 1033.936203 397.041875 
L 1034.806216 386.770238 
L 1035.675451 371.80479 
L 1036.546383 369.386478 
L 1037.414406 369.178894 
L 1040.892629 369.158691 
L 1832.87178 369.158889 
L 1833.737948 380.108936 
L 1834.607725 388.342369 
L 1835.47696 429.368601 
L 1836.348198 459.449638 
L 1837.216413 506.109751 
L 1838.084812 529.624464 
L 1838.955355 562.649508 
L 1839.824877 591.134547 
L 1840.694673 611.782008 
L 1841.56241 647.065813 
L 1842.432601 676.434074 
L 1843.3016 697.02231 
L 1844.17074 720.715985 
L 1845.040345 735.40581 
L 1845.908789 739.379416 
L 1846.780371 740.97898 
L 1847.650174 741.187455 
L 1849.386246 741.260645 
L 1931.10561 741.262328 
L 2638.756168 741.262328 
L 2639.626552 723.144201 
L 2640.493682 709.571922 
L 2641.365857 651.155195 
L 2642.233428 612.591248 
L 2643.105035 586.872938 
L 2643.974009 531.490045 
L 2644.840859 489.660416 
L 2645.711293 465.735982 
L 2646.580343 409.172654 
L 2647.449604 381.454864 
L 2648.317965 372.926892 
L 2649.187825 369.984074 
L 2650.058011 369.244062 
L 2651.795327 369.158691 
L 2750.031344 369.158889 
L 2750.031344 369.158889 
" style="fill:none;stroke:#ff0000;stroke-dasharray:9.6,2.4,1.5,2.4;stroke-dashoffset:0;stroke-width:1.5;"/>
   </g>
   <g id="line2d_16">
    <path clip-path="url(#pca9e25f292)" d="M 210.663031 197.479064 
L 211.536558 197.156708 
L 212.403542 197.369517 
L 213.272617 197.768323 
L 214.140296 197.89712 
L 217.619035 197.797298 
L 218.488404 204.860043 
L 219.357786 229.094055 
L 220.225944 270.914331 
L 221.964529 388.210429 
L 222.834963 427.489268 
L 223.704689 445.809156 
L 224.572916 448.496798 
L 225.444371 464.821192 
L 226.312477 499.307481 
L 227.181432 552.669948 
L 228.04978 614.423445 
L 228.919985 661.919604 
L 229.78885 686.938197 
L 230.657951 689.925327 
L 231.529935 688.679814 
L 232.397238 702.710076 
L 234.136314 765.486555 
L 235.005281 774.141012 
L 235.874248 760.349126 
L 236.743962 728.031187 
L 237.612814 706.145009 
L 238.483433 703.01928 
L 239.352898 718.655312 
L 240.220985 750.560127 
L 241.091623 771.560029 
L 241.962204 769.789632 
L 242.828525 745.731381 
L 243.699252 715.510592 
L 244.568915 703.19917 
L 245.438265 709.576172 
L 246.306849 734.643949 
L 247.176059 764.274406 
L 248.045708 772.529586 
L 248.917157 758.398046 
L 249.784472 726.780159 
L 250.653707 706.878282 
L 251.524314 705.678629 
L 252.394939 723.221902 
L 253.26089 754.806622 
L 254.131196 771.366593 
L 255.000808 765.328744 
L 256.738678 712.078317 
L 257.607614 704.932162 
L 258.480076 716.505009 
L 259.346664 745.59358 
L 260.216422 768.409442 
L 261.085326 768.492981 
L 261.95502 746.351086 
L 262.825486 717.263194 
L 263.693254 705.798057 
L 264.563338 712.98249 
L 266.302114 765.10299 
L 267.174863 769.495754 
L 268.048314 751.544857 
L 268.91091 721.471638 
L 269.779916 707.201548 
L 270.647856 711.528305 
L 271.517512 734.534731 
L 272.387385 762.504319 
L 273.259956 769.412061 
L 274.125243 753.969664 
L 274.994976 724.047748 
L 275.86511 708.409257 
L 276.735021 711.386184 
L 277.603465 733.062238 
L 278.472936 761.212157 
L 279.342886 768.886564 
L 280.211215 754.206548 
L 281.085317 724.713381 
L 281.951835 709.175072 
L 282.820266 712.233179 
L 283.689023 733.969799 
L 284.557652 761.371561 
L 285.427984 768.054165 
L 286.297596 752.413171 
L 287.166072 723.490655 
L 288.035141 709.501878 
L 288.906392 714.085496 
L 290.644192 762.758716 
L 291.513498 766.726988 
L 292.382777 748.480645 
L 293.252134 720.775951 
L 294.12348 709.743718 
L 294.990814 717.264069 
L 295.8607 742.684626 
L 296.729348 764.699198 
L 297.597946 764.307713 
L 298.467953 742.22701 
L 299.336831 717.32773 
L 300.209465 710.550214 
L 301.075218 722.391729 
L 301.946322 749.877741 
L 302.814052 766.154978 
L 303.683803 759.844128 
L 304.553759 733.833371 
L 305.423071 714.043205 
L 306.29346 712.886372 
L 307.161994 730.401645 
L 308.031306 757.433826 
L 308.900668 765.897416 
L 309.770426 752.028175 
L 310.640956 724.803781 
L 311.508922 712.13292 
L 312.37722 717.968907 
L 314.115518 763.150801 
L 314.986354 762.322191 
L 316.723013 717.550486 
L 317.595558 713.129241 
L 318.462969 727.314796 
L 319.332752 754.008712 
L 320.200183 764.921006 
L 321.069367 753.415101 
L 321.938972 726.968755 
L 322.810082 713.638849 
L 323.678271 718.805315 
L 325.417048 762.383431 
L 326.292718 760.773729 
L 328.02622 717.554743 
L 328.89432 715.065946 
L 329.763733 731.184446 
L 330.634977 756.490907 
L 331.503103 763.42371 
L 332.372963 748.192825 
L 333.24112 723.284602 
L 334.110936 714.500864 
L 334.980815 724.171543 
L 335.850458 749.159938 
L 336.718647 763.158819 
L 337.589751 754.673939 
L 338.45891 729.714614 
L 339.329675 715.765729 
L 340.197112 720.289682 
L 341.066232 742.467939 
L 341.936514 761.384044 
L 342.807292 758.231266 
L 343.673562 735.540293 
L 344.543696 717.759411 
L 345.41339 718.443467 
L 346.281426 737.47188 
L 347.151612 759.105985 
L 348.022224 759.843528 
L 349.759017 719.748498 
L 350.629209 717.856105 
L 351.498897 734.441996 
L 352.368489 757.144934 
L 353.236666 760.294194 
L 354.107789 742.160758 
L 354.97497 721.219473 
L 355.845226 717.996524 
L 356.713645 733.239688 
L 357.584244 756.017951 
L 358.452663 760.079668 
L 359.322198 742.766108 
L 360.192007 721.904248 
L 361.060828 718.584859 
L 361.93049 733.682807 
L 362.800765 755.919383 
L 363.668495 759.363023 
L 364.540275 741.720647 
L 365.409676 721.808442 
L 366.277667 719.601436 
L 367.145793 735.714524 
L 368.015544 756.715361 
L 368.890793 758.017401 
L 370.628141 721.13604 
L 371.492491 721.275483 
L 373.231299 757.967852 
L 374.106025 755.616419 
L 374.971032 734.962339 
L 375.839222 720.359248 
L 376.708642 724.10094 
L 377.582213 744.400805 
L 378.447546 758.891913 
L 379.3165 751.477912 
L 380.188299 729.93338 
L 381.055098 720.211322 
L 381.927732 728.827454 
L 382.797069 750.202379 
L 383.66582 758.419612 
L 384.533027 745.086295 
L 385.401949 725.211243 
L 386.273538 721.669571 
L 387.141344 736.222718 
L 388.009865 755.326307 
L 388.88 755.286289 
L 389.751543 736.673089 
L 390.618119 722.277897 
L 391.487718 726.027116 
L 392.356698 745.421164 
L 393.228025 757.546826 
L 394.097859 748.157329 
L 394.965188 728.289054 
L 395.836808 722.432299 
L 396.702873 734.695929 
L 397.573122 753.524956 
L 398.443646 754.816102 
L 399.312173 737.584037 
L 400.18211 723.54142 
L 401.057117 727.464601 
L 401.919662 746.145894 
L 402.789675 756.485118 
L 403.659044 745.927031 
L 404.527616 727.617081 
L 405.397125 724.392753 
L 407.136488 754.56228 
L 408.007649 751.370234 
L 408.876757 733.488494 
L 409.744959 724.172789 
L 410.613684 732.965253 
L 411.484233 750.726107 
L 412.355158 754.043382 
L 414.090867 725.623643 
L 414.959745 729.372326 
L 415.830211 746.487425 
L 416.699171 754.651071 
L 417.568694 743.882585 
L 418.437348 727.983023 
L 419.306985 727.585517 
L 420.176565 742.756153 
L 421.045698 753.970188 
L 421.916827 746.902864 
L 422.784053 730.721921 
L 423.654047 727.043164 
L 425.39232 752.693042 
L 426.261804 748.614365 
L 427.130892 733.194634 
L 428.000344 727.204524 
L 428.869433 738.113788 
L 429.740013 751.373819 
L 430.610588 749.330185 
L 431.47997 735.004088 
L 432.346979 727.719144 
L 433.216265 737.172031 
L 434.08631 750.250396 
L 434.955233 749.364352 
L 435.82485 736.104308 
L 436.694404 728.375657 
L 437.565272 736.864314 
L 438.438334 749.354231 
L 439.302824 748.961376 
L 440.171874 736.648226 
L 441.041938 729.071608 
L 441.909834 736.765779 
L 442.78236 748.533042 
L 443.648553 748.41605 
L 444.518802 736.992242 
L 445.388299 729.799546 
L 446.257674 736.800083 
L 447.127005 747.748201 
L 447.995526 747.776303 
L 448.866502 737.218419 
L 449.739168 730.558345 
L 450.605693 736.968755 
L 451.474061 746.995449 
L 452.343998 747.02714 
L 453.210981 737.337784 
L 454.080969 731.347149 
L 454.950338 737.263486 
L 455.82009 746.278382 
L 456.690639 746.179062 
L 457.558388 737.350981 
L 458.429383 732.153633 
L 459.297113 737.67501 
L 460.167458 745.615819 
L 461.035532 745.256328 
L 461.906171 737.262112 
L 462.775489 732.946966 
L 463.644902 738.200211 
L 464.515273 745.028493 
L 465.389884 744.280783 
L 466.253775 737.127999 
L 467.123807 733.772628 
L 467.989509 738.642409 
L 468.859746 744.520735 
L 469.729057 743.463031 
L 470.598656 737.040185 
L 471.469976 734.373514 
L 473.209072 744.169352 
L 474.079053 742.813984 
L 474.945189 736.925252 
L 475.815782 734.81157 
L 477.554463 743.940436 
L 478.422965 742.22347 
L 479.29417 736.69265 
L 480.161996 735.27251 
L 481.031429 739.931664 
L 481.900077 743.705833 
L 482.769548 741.586306 
L 483.639982 736.491009 
L 484.507636 735.798129 
L 485.377942 740.373541 
L 486.248931 743.400009 
L 487.115851 740.925209 
L 487.990233 736.374139 
L 488.855412 736.384503 
L 489.724239 740.760846 
L 490.594106 743.007314 
L 491.464973 740.255426 
L 492.336536 736.365201 
L 493.20199 737.022731 
L 494.073285 741.067296 
L 494.94141 742.522747 
L 496.678324 736.487973 
L 497.548248 737.694131 
L 498.417942 741.262136 
L 499.287828 741.947037 
L 500.161158 739.021296 
L 501.026738 736.755248 
L 501.894692 738.364922 
L 502.766267 741.310347 
L 503.634431 741.293633 
L 504.502805 738.56156 
L 505.372276 737.170277 
L 506.242073 738.977739 
L 507.111486 741.178855 
L 507.983865 740.610636 
L 508.852214 738.313577 
L 509.719982 737.705021 
L 510.588497 739.43948 
L 511.458293 740.859892 
L 512.32978 740.049296 
L 513.197561 738.368847 
L 514.066815 738.253653 
L 514.936152 739.616789 
L 515.805968 740.401837 
L 516.674903 739.69899 
L 517.543009 738.670722 
L 518.414011 738.715372 
L 519.282812 739.517238 
L 520.151161 739.892254 
L 521.022616 739.575934 
L 521.89099 739.134935 
L 522.759357 739.089419 
L 524.498567 739.332086 
L 535.799798 739.346959 
L 923.530116 739.351059 
L 1026.114853 739.351059 
L 1026.981729 738.227646 
L 1027.853757 732.015309 
L 1028.720307 708.810427 
L 1029.59437 664.250993 
L 1030.460111 601.025124 
L 1032.198262 453.709713 
L 1033.067127 402.876393 
L 1033.936203 371.583478 
L 1034.806216 359.441753 
L 1035.675451 365.680011 
L 1036.546383 379.412161 
L 1037.414406 379.304268 
L 1038.284292 365.375161 
L 1039.152028 355.948826 
L 1040.02303 363.031982 
L 1040.892629 377.285537 
L 1041.760773 379.745816 
L 1043.49962 357.050091 
L 1044.374594 361.702469 
L 1045.239078 375.228348 
L 1046.107586 379.608797 
L 1046.977619 369.757551 
L 1047.84864 358.442695 
L 1048.718072 360.783781 
L 1049.585401 373.168072 
L 1050.454629 379.086396 
L 1051.325842 371.380153 
L 1052.193457 360.064269 
L 1053.064012 360.316749 
L 1053.934115 371.203361 
L 1054.804032 378.238386 
L 1055.671411 372.628861 
L 1056.542413 361.812895 
L 1057.408236 360.273853 
L 1058.282395 369.434187 
L 1059.148447 377.109684 
L 1060.016611 373.462551 
L 1060.886261 363.585207 
L 1061.75776 360.624313 
L 1063.494495 375.746845 
L 1064.364968 373.857327 
L 1065.235555 365.270974 
L 1066.102883 361.29986 
L 1066.971953 366.82219 
L 1067.841194 374.255417 
L 1068.710353 373.832396 
L 1069.580404 366.748192 
L 1070.450692 362.257708 
L 1071.3211 366.112852 
L 1072.189283 372.746816 
L 1073.059366 373.425501 
L 1073.927951 367.922126 
L 1074.797205 363.435187 
L 1075.664795 365.829341 
L 1076.535229 371.355136 
L 1077.405561 372.734977 
L 1079.143298 364.694046 
L 1080.012558 365.94944 
L 1080.883375 370.208269 
L 1081.751207 371.815552 
L 1082.620506 369.039283 
L 1083.490813 365.879674 
L 1084.359416 366.368606 
L 1085.228696 369.427079 
L 1086.10128 370.795029 
L 1086.967026 369.003677 
L 1087.836395 366.796509 
L 1088.706899 366.993998 
L 1089.575822 369.028649 
L 1090.444337 369.986435 
L 1091.3128 368.857762 
L 1092.18317 367.319146 
L 1093.052399 367.411575 
L 1093.92261 368.738936 
L 1094.792948 369.451722 
L 1095.661514 368.86077 
L 1096.528868 367.894349 
L 1097.399206 367.775018 
L 1098.269449 368.371269 
L 1099.139379 368.818559 
L 1100.007677 368.753357 
L 1100.877913 368.456348 
L 1101.745981 368.319114 
L 1115.655197 368.381058 
L 1166.077728 368.427025 
L 1833.737948 368.441666 
L 1834.607725 378.010465 
L 1835.47696 404.600731 
L 1836.348198 447.771089 
L 1838.084812 546.949961 
L 1838.955355 575.760699 
L 1840.694673 589.043645 
L 1841.56241 613.819065 
L 1842.432601 657.275604 
L 1843.3016 716.528189 
L 1844.17074 761.615725 
L 1845.040345 783.805036 
L 1845.908789 782.925935 
L 1846.780371 759.364891 
L 1847.650174 719.811574 
L 1848.517879 694.494953 
L 1849.386246 688.067152 
L 1850.256336 700.504796 
L 1851.126617 731.660426 
L 1851.994742 768.865934 
L 1852.863563 784.633607 
L 1853.734762 777.816626 
L 1854.602556 748.444002 
L 1855.472978 711.242645 
L 1856.342608 691.986151 
L 1857.210255 691.622991 
L 1858.081748 710.05489 
L 1858.955709 746.313026 
L 1859.820773 776.316777 
L 1860.687629 783.348842 
L 1861.558727 767.831184 
L 1862.426246 731.612979 
L 1863.296738 701.865778 
L 1864.164844 691.058515 
L 1865.034366 699.147338 
L 1865.905119 725.976788 
L 1866.773908 763.333901 
L 1867.642595 781.446522 
L 1868.51262 776.941356 
L 1869.382002 749.871785 
L 1870.250498 713.583445 
L 1871.120932 694.817971 
L 1871.989204 694.899513 
L 1872.857884 713.763878 
L 1873.727872 749.701923 
L 1874.598759 776.308239 
L 1875.468651 779.987011 
L 1876.335934 761.127499 
L 1877.205412 724.499146 
L 1878.075693 699.967522 
L 1878.94526 694.284364 
L 1879.814731 707.428149 
L 1881.553226 770.818475 
L 1882.426811 780.012852 
L 1883.290861 766.726456 
L 1884.161563 732.675627 
L 1885.031921 704.502777 
L 1885.899561 695.235846 
L 1886.769402 704.813871 
L 1887.637604 733.107477 
L 1888.507056 766.773487 
L 1889.37749 778.988492 
L 1890.245986 768.722299 
L 1891.984265 707.293513 
L 1892.854654 696.555817 
L 1893.724304 704.650842 
L 1894.595452 731.478986 
L 1895.463801 765.161425 
L 1896.333093 777.937318 
L 1897.20127 768.223753 
L 1898.940295 707.929931 
L 1899.808165 697.732217 
L 1900.677496 706.349729 
L 1901.548836 733.678268 
L 1902.41735 766.06072 
L 1903.285973 776.991324 
L 1904.155234 765.464267 
L 1905.025923 733.23346 
L 1905.895375 706.654958 
L 1906.766013 698.945041 
L 1907.640121 710.037166 
L 1909.372513 768.844524 
L 1910.245007 775.637583 
L 1911.111723 760.003629 
L 1911.981513 726.416977 
L 1912.849556 704.290816 
L 1913.719129 700.930995 
L 1914.587917 716.34724 
L 1915.456776 748.737711 
L 1916.326088 772.116378 
L 1917.196445 772.658097 
L 1918.065744 750.745876 
L 1918.934763 718.093996 
L 1919.808475 702.155329 
L 1920.673654 704.933735 
L 1921.542608 726.456118 
L 1922.413757 759.339888 
L 1923.281047 774.062907 
L 1924.150224 766.270155 
L 1925.888937 710.184772 
L 1926.759397 702.046904 
L 1927.626782 712.670249 
L 1929.366082 768.266867 
L 1930.236943 772.418628 
L 1931.10561 754.176683 
L 1931.974176 721.933163 
L 1932.845701 704.679712 
L 1933.714209 706.091165 
L 1934.589898 726.247103 
L 1935.452851 758.202779 
L 1936.320823 772.506612 
L 1937.191328 764.300752 
L 1938.061928 735.214326 
L 1938.929645 710.324015 
L 1939.80152 704.201795 
L 1940.669614 716.819015 
L 1941.53788 746.728042 
L 1942.407893 769.278938 
L 1943.277855 769.061067 
L 1944.145477 746.577382 
L 1945.016038 716.977862 
L 1945.884017 705.016759 
L 1946.754355 711.697532 
L 1948.493113 764.6879 
L 1949.366244 770.595485 
L 1950.232501 754.15288 
L 1951.101239 723.327431 
L 1951.970378 707.017993 
L 1952.839543 709.341226 
L 1953.708472 730.392388 
L 1954.5789 760.203639 
L 1955.447121 770.457812 
L 1956.320298 758.312981 
L 1957.1854 728.29215 
L 1958.059106 709.135918 
L 1958.925586 708.647713 
L 1959.792602 726.883213 
L 1960.665179 756.958798 
L 1961.533597 769.731919 
L 1962.402545 760.041767 
L 1963.270314 731.1662 
L 1964.140078 710.685301 
L 1965.011667 708.902862 
L 1965.879703 725.834243 
L 1966.750105 755.545822 
L 1967.620329 769.013728 
L 1968.487587 759.982178 
L 1969.35744 731.664988 
L 1970.226236 711.358688 
L 1971.096268 709.757049 
L 1971.96556 726.861702 
L 1972.835727 756.080782 
L 1973.703578 768.446438 
L 1974.575798 758.345709 
L 1975.442361 729.922818 
L 1976.311895 711.266011 
L 1977.18173 711.258306 
L 1978.051915 729.954122 
L 1978.91969 758.252049 
L 1979.789741 767.780398 
L 1980.657676 754.919423 
L 1981.530597 726.34404 
L 1982.396057 710.753877 
L 1983.26642 713.740781 
L 1984.135062 735.351202 
L 1985.004521 761.37806 
L 1985.875031 766.408014 
L 1986.743929 749.203995 
L 1987.613125 721.709509 
L 1988.484701 710.515795 
L 1989.353636 717.849334 
L 1990.221787 742.997986 
L 1991.095385 764.387331 
L 1991.959505 763.382232 
L 1993.698058 717.056747 
L 1994.566955 711.471471 
L 1995.439787 724.506822 
L 1996.306293 751.942523 
L 1997.175056 765.91857 
L 1998.045031 757.369181 
L 1998.915975 730.696809 
L 1999.78486 713.499077 
L 2000.655721 714.895039 
L 2001.523075 734.899692 
L 2002.395856 759.999205 
L 2003.261832 764.512614 
L 2004.131099 746.946953 
L 2005.0002 721.281864 
L 2005.869544 712.515451 
L 2006.738358 722.251378 
L 2007.609895 748.120162 
L 2008.478537 764.417622 
L 2009.346752 758.170368 
L 2010.216714 732.961691 
L 2011.086179 715.13569 
L 2011.955995 715.889519 
L 2012.825032 735.210052 
L 2013.693119 759.430566 
L 2014.563745 763.149768 
L 2015.431685 744.994392 
L 2016.301858 720.818984 
L 2017.171125 713.993929 
L 2018.042279 725.674144 
L 2018.909952 751.440486 
L 2019.778932 763.81346 
L 2020.649647 753.719188 
L 2021.518027 728.15735 
L 2022.386988 714.939754 
L 2023.256051 720.189784 
L 2024.126287 743.015087 
L 2024.995025 761.949186 
L 2025.867895 758.694769 
L 2026.73266 735.724828 
L 2027.603298 717.383561 
L 2028.473216 717.523157 
L 2029.342087 736.127537 
L 2030.212713 758.817026 
L 2031.081527 760.96286 
L 2032.818989 720.276885 
L 2033.690042 716.619161 
L 2034.557976 731.483129 
L 2035.427148 755.555485 
L 2036.29651 761.645624 
L 2037.164795 745.822599 
L 2038.035261 722.849364 
L 2038.905223 716.665486 
L 2039.77414 728.92532 
L 2040.643764 753.030259 
L 2041.512431 761.536258 
L 2042.383529 747.887443 
L 2043.251233 724.61761 
L 2044.120162 717.128301 
L 2044.989984 728.051871 
L 2045.860176 751.756458 
L 2046.729896 761.118977 
L 2047.597785 748.293029 
L 2048.46783 725.304554 
L 2049.340688 717.745366 
L 2050.207059 728.570839 
L 2051.075746 751.837327 
L 2051.944853 760.541735 
L 2052.815096 747.192245 
L 2053.683145 724.910365 
L 2054.553994 718.504709 
L 2055.423962 730.478305 
L 2056.290347 753.142807 
L 2057.162248 759.670202 
L 2058.031221 744.553067 
L 2058.901828 723.656 
L 2059.768646 719.63625 
L 2060.642759 733.958706 
L 2061.508066 755.282846 
L 2062.377901 758.086557 
L 2064.115548 722.050368 
L 2064.98516 721.627573 
L 2066.723336 757.466527 
L 2067.593209 755.056592 
L 2068.465869 734.712111 
L 2069.33277 720.813621 
L 2070.200947 725.231643 
L 2071.077325 745.568403 
L 2071.941866 758.560332 
L 2072.81075 749.678668 
L 2073.678206 728.633927 
L 2074.547639 720.902543 
L 2075.418806 731.468443 
L 2076.286256 752.164737 
L 2077.156065 757.232548 
L 2078.026882 741.660509 
L 2078.895555 723.92775 
L 2079.763439 723.570452 
L 2081.502406 756.66596 
L 2082.372419 751.989574 
L 2083.242407 732.233045 
L 2084.111476 722.162972 
L 2084.980986 730.395607 
L 2085.85082 750.199939 
L 2086.719807 756.48762 
L 2087.591038 742.298112 
L 2088.460146 725.130319 
L 2089.326606 724.9633 
L 2090.197525 741.651572 
L 2091.071365 755.995977 
L 2091.934682 749.84562 
L 2092.805186 730.974618 
L 2093.6737 723.551546 
L 2094.543293 734.247955 
L 2095.412904 752.227207 
L 2096.283472 753.933546 
L 2097.150539 737.779555 
L 2098.020648 724.670499 
L 2098.889864 729.377854 
L 2099.759437 747.257792 
L 2100.628602 755.207733 
L 2101.499132 743.585415 
L 2102.369113 727.260875 
L 2103.236154 726.894958 
L 2104.106263 742.488113 
L 2104.976703 754.537556 
L 2105.844414 747.633409 
L 2106.714472 730.693161 
L 2107.585716 726.082394 
L 2108.455576 738.664002 
L 2109.325315 752.881263 
L 2110.193205 749.999051 
L 2111.060099 734.063919 
L 2111.930361 726.295235 
L 2112.79952 736.020623 
L 2113.668908 750.965764 
L 2114.538111 751.100314 
L 2115.408596 736.767526 
L 2116.280032 726.997072 
L 2117.146084 734.480642 
L 2118.014956 749.299843 
L 2118.885505 751.355366 
L 2119.754823 738.567814 
L 2120.624052 727.854532 
L 2121.494441 733.817813 
L 2122.36279 748.050056 
L 2123.235431 751.079714 
L 2124.977 728.689914 
L 2125.839131 733.752433 
L 2126.710164 747.190434 
L 2127.577856 750.494637 
L 2129.318597 729.454159 
L 2130.186882 733.898723 
L 2131.055211 746.459651 
L 2131.926959 749.789868 
L 2133.66388 730.18753 
L 2134.533376 734.169937 
L 2135.402197 745.806756 
L 2136.272229 749.013905 
L 2138.010093 730.908831 
L 2138.880815 734.569494 
L 2139.750809 745.212573 
L 2140.618966 748.147083 
L 2142.357972 731.645832 
L 2143.226531 735.082889 
L 2144.096053 744.686521 
L 2144.965499 747.212782 
L 2146.70277 732.356944 
L 2147.572802 735.705219 
L 2148.442197 744.253981 
L 2149.312012 746.234496 
L 2151.051337 733.025457 
L 2151.921605 736.418521 
L 2152.793551 743.917156 
L 2153.658468 745.235511 
L 2154.527735 738.88783 
L 2155.396983 733.736914 
L 2156.267813 737.025594 
L 2157.136098 743.62906 
L 2158.006258 744.405986 
L 2158.873694 738.561734 
L 2159.744709 734.273214 
L 2160.614824 737.53283 
L 2161.483268 743.465595 
L 2162.351859 743.766471 
L 2163.223499 738.257413 
L 2164.092778 734.602152 
L 2164.965279 738.041763 
L 2165.829119 743.400488 
L 2166.701051 743.199718 
L 2167.571364 737.893284 
L 2168.438941 734.928811 
L 2169.309229 738.594946 
L 2170.175186 743.337341 
L 2171.048018 742.596504 
L 2171.914574 737.51624 
L 2172.784613 735.329119 
L 2174.525411 743.201339 
L 2175.393479 741.948751 
L 2176.268645 737.204116 
L 2177.13172 735.807823 
L 2177.999756 739.671137 
L 2178.872059 742.973768 
L 2179.738813 741.266414 
L 2180.608603 736.982476 
L 2181.479841 736.364519 
L 2182.348993 740.142838 
L 2183.216997 742.645892 
L 2184.086608 740.564839 
L 2184.955926 736.881137 
L 2185.826762 736.98958 
L 2186.695028 740.529059 
L 2187.565111 742.209803 
L 2188.432236 739.878535 
L 2189.302816 736.933095 
L 2190.171707 737.660305 
L 2191.04269 740.789312 
L 2191.911255 741.667692 
L 2193.650178 737.161234 
L 2194.517787 738.331001 
L 2195.386174 740.877406 
L 2196.257456 741.043422 
L 2197.12812 738.819052 
L 2197.995486 737.559189 
L 2198.865595 738.914341 
L 2199.734741 740.749328 
L 2200.603166 740.444385 
L 2201.473913 738.670855 
L 2202.342982 738.064619 
L 2204.081185 740.399239 
L 2204.951313 739.980831 
L 2205.819202 738.808748 
L 2206.68963 738.570882 
L 2207.559981 739.335436 
L 2208.427526 739.921045 
L 2209.298183 739.702596 
L 2210.167482 739.166178 
L 2211.036131 739.038118 
L 2212.774811 739.369346 
L 2217.99248 739.37813 
L 2287.539287 739.351209 
L 2639.626552 739.333847 
L 2640.493682 726.854923 
L 2641.365857 692.202776 
L 2642.233428 635.695936 
L 2643.974009 492.856168 
L 2644.840859 444.242614 
L 2645.711293 415.236708 
L 2646.580343 404.652809 
L 2647.449604 401.432962 
L 2648.317965 381.798248 
L 2649.187825 352.826861 
L 2650.058011 339.439068 
L 2650.926359 343.968555 
L 2652.665589 390.916826 
L 2653.533733 395.936402 
L 2654.406737 380.870573 
L 2655.274837 353.360328 
L 2656.142472 340.177919 
L 2657.011879 344.97974 
L 2658.751459 391.029436 
L 2659.61968 394.863387 
L 2660.489591 378.622701 
L 2661.360854 351.911252 
L 2662.228667 340.641907 
L 2663.097998 347.317224 
L 2663.966308 371.304162 
L 2664.836181 392.116727 
L 2665.705793 393.009685 
L 2666.574148 373.962614 
L 2667.444939 349.088837 
L 2668.312924 341.304891 
L 2669.185603 351.440114 
L 2670.053237 377.09456 
L 2670.921478 393.388668 
L 2671.793506 389.610719 
L 2673.529362 345.902751 
L 2674.3978 343.059833 
L 2675.267481 358.250913 
L 2676.137214 383.908097 
L 2677.008113 393.663466 
L 2677.876035 383.45152 
L 2678.746022 357.977115 
L 2679.61497 343.568326 
L 2680.485137 347.19944 
L 2682.222931 389.623826 
L 2683.092581 391.279843 
L 2683.962313 373.166841 
L 2684.832511 349.897282 
L 2685.701153 343.705138 
L 2686.569381 355.430613 
L 2687.439126 380.322343 
L 2688.309802 392.222094 
L 2689.177373 384.14562 
L 2690.047348 359.945708 
L 2690.918146 345.13938 
L 2691.785467 348.390546 
L 2693.526017 388.991534 
L 2694.395564 389.400973 
L 2696.132791 349.286041 
L 2697.00348 345.716649 
L 2697.872524 360.072805 
L 2698.741128 383.603791 
L 2699.6088 390.833209 
L 2700.479541 378.203924 
L 2701.349586 354.672401 
L 2702.219408 345.640233 
L 2703.088126 354.49879 
L 2703.956328 377.68159 
L 2704.827413 390.218952 
L 2705.696182 382.817396 
L 2706.564084 359.912834 
L 2707.435501 346.788255 
L 2708.303237 351.658483 
L 2709.173665 372.886781 
L 2710.041165 388.816336 
L 2710.91607 385.003703 
L 2711.78107 363.799473 
L 2712.652027 348.2006 
L 2713.520338 350.58907 
L 2715.257788 387.516734 
L 2716.127641 385.632875 
L 2716.997814 365.7619 
L 2717.865908 349.268112 
L 2718.736571 350.657906 
L 2720.474404 386.775644 
L 2721.344436 385.185034 
L 2722.213084 365.75124 
L 2723.082179 349.758549 
L 2723.954552 351.611958 
L 2725.691243 386.655464 
L 2726.558661 383.747563 
L 2727.428559 363.919606 
L 2728.298559 349.797302 
L 2729.167501 353.567205 
L 2730.038343 373.096315 
L 2730.908656 386.832357 
L 2731.777713 380.995309 
L 2732.64557 360.57237 
L 2733.516521 349.842933 
L 2734.384085 357.009863 
L 2735.255514 377.271073 
L 2736.124462 386.588703 
L 2736.993391 376.300724 
L 2737.861517 356.45474 
L 2738.733246 350.736817 
L 2739.59984 362.680876 
L 2740.471595 381.772998 
L 2741.3406 384.806333 
L 2743.077852 352.980974 
L 2743.948127 353.684647 
L 2744.816278 370.559962 
L 2745.686189 384.708812 
L 2746.55448 379.893537 
L 2747.424965 361.201967 
L 2748.294545 351.85683 
L 2749.163417 360.29051 
L 2750.031344 378.829349 
L 2750.031344 378.829349 
" style="fill:none;stroke:#ff0000;stroke-linecap:square;stroke-width:3;"/>
   </g>
   <g id="patch_3">
    <path d="M 83.694615 1021.480385 
L 83.694615 157.9032 
" style="fill:none;stroke:#000000;stroke-linecap:square;stroke-linejoin:miter;stroke-width:0.8;"/>
   </g>
   <g id="patch_4">
    <path d="M 2876.99976 1021.480385 
L 2876.99976 157.9032 
" style="fill:none;stroke:#000000;stroke-linecap:square;stroke-linejoin:miter;stroke-width:0.8;"/>
   </g>
   <g id="patch_5">
    <path d="M 83.694615 1021.480385 
L 2876.99976 1021.480385 
" style="fill:none;stroke:#000000;stroke-linecap:square;stroke-linejoin:miter;stroke-width:0.8;"/>
   </g>
   <g id="patch_6">
    <path d="M 83.694615 157.9032 
L 2876.99976 157.9032 
" style="fill:none;stroke:#000000;stroke-linecap:square;stroke-linejoin:miter;stroke-width:0.8;"/>
   </g>
   <g id="text_15">
    <!-- Biceps (red) and Triceps (green) -->
    <defs>
     <path d="M 19.671875 34.8125 
L 19.671875 8.109375 
L 35.5 8.109375 
Q 43.453125 8.109375 47.28125 11.40625 
Q 51.125 14.703125 51.125 21.484375 
Q 51.125 28.328125 47.28125 31.5625 
Q 43.453125 34.8125 35.5 34.8125 
z
M 19.671875 64.796875 
L 19.671875 42.828125 
L 34.28125 42.828125 
Q 41.5 42.828125 45.03125 45.53125 
Q 48.578125 48.25 48.578125 53.8125 
Q 48.578125 59.328125 45.03125 62.0625 
Q 41.5 64.796875 34.28125 64.796875 
z
M 9.8125 72.90625 
L 35.015625 72.90625 
Q 46.296875 72.90625 52.390625 68.21875 
Q 58.5 63.53125 58.5 54.890625 
Q 58.5 48.1875 55.375 44.234375 
Q 52.25 40.28125 46.1875 39.3125 
Q 53.46875 37.75 57.5 32.78125 
Q 61.53125 27.828125 61.53125 20.40625 
Q 61.53125 10.640625 54.890625 5.3125 
Q 48.25 0 35.984375 0 
L 9.8125 0 
z
" id="DejaVuSans-66"/>
     <path d="M 48.78125 52.59375 
L 48.78125 44.1875 
Q 44.96875 46.296875 41.140625 47.34375 
Q 37.3125 48.390625 33.40625 48.390625 
Q 24.65625 48.390625 19.8125 42.84375 
Q 14.984375 37.3125 14.984375 27.296875 
Q 14.984375 17.28125 19.8125 11.734375 
Q 24.65625 6.203125 33.40625 6.203125 
Q 37.3125 6.203125 41.140625 7.25 
Q 44.96875 8.296875 48.78125 10.40625 
L 48.78125 2.09375 
Q 45.015625 0.34375 40.984375 -0.53125 
Q 36.96875 -1.421875 32.421875 -1.421875 
Q 20.0625 -1.421875 12.78125 6.34375 
Q 5.515625 14.109375 5.515625 27.296875 
Q 5.515625 40.671875 12.859375 48.328125 
Q 20.21875 56 33.015625 56 
Q 37.15625 56 41.109375 55.140625 
Q 45.0625 54.296875 48.78125 52.59375 
z
" id="DejaVuSans-99"/>
     <path d="M 18.109375 8.203125 
L 18.109375 -20.796875 
L 9.078125 -20.796875 
L 9.078125 54.6875 
L 18.109375 54.6875 
L 18.109375 46.390625 
Q 20.953125 51.265625 25.265625 53.625 
Q 29.59375 56 35.59375 56 
Q 45.5625 56 51.78125 48.09375 
Q 58.015625 40.1875 58.015625 27.296875 
Q 58.015625 14.40625 51.78125 6.484375 
Q 45.5625 -1.421875 35.59375 -1.421875 
Q 29.59375 -1.421875 25.265625 0.953125 
Q 20.953125 3.328125 18.109375 8.203125 
z
M 48.6875 27.296875 
Q 48.6875 37.203125 44.609375 42.84375 
Q 40.53125 48.484375 33.40625 48.484375 
Q 26.265625 48.484375 22.1875 42.84375 
Q 18.109375 37.203125 18.109375 27.296875 
Q 18.109375 17.390625 22.1875 11.75 
Q 26.265625 6.109375 33.40625 6.109375 
Q 40.53125 6.109375 44.609375 11.75 
Q 48.6875 17.390625 48.6875 27.296875 
z
" id="DejaVuSans-112"/>
     <path d="M 31 75.875 
Q 24.46875 64.65625 21.28125 53.65625 
Q 18.109375 42.671875 18.109375 31.390625 
Q 18.109375 20.125 21.3125 9.0625 
Q 24.515625 -2 31 -13.1875 
L 23.1875 -13.1875 
Q 15.875 -1.703125 12.234375 9.375 
Q 8.59375 20.453125 8.59375 31.390625 
Q 8.59375 42.28125 12.203125 53.3125 
Q 15.828125 64.359375 23.1875 75.875 
z
" id="DejaVuSans-40"/>
     <path d="M 41.109375 46.296875 
Q 39.59375 47.171875 37.8125 47.578125 
Q 36.03125 48 33.890625 48 
Q 26.265625 48 22.1875 43.046875 
Q 18.109375 38.09375 18.109375 28.8125 
L 18.109375 0 
L 9.078125 0 
L 9.078125 54.6875 
L 18.109375 54.6875 
L 18.109375 46.1875 
Q 20.953125 51.171875 25.484375 53.578125 
Q 30.03125 56 36.53125 56 
Q 37.453125 56 38.578125 55.875 
Q 39.703125 55.765625 41.0625 55.515625 
z
" id="DejaVuSans-114"/>
     <path d="M 45.40625 46.390625 
L 45.40625 75.984375 
L 54.390625 75.984375 
L 54.390625 0 
L 45.40625 0 
L 45.40625 8.203125 
Q 42.578125 3.328125 38.25 0.953125 
Q 33.9375 -1.421875 27.875 -1.421875 
Q 17.96875 -1.421875 11.734375 6.484375 
Q 5.515625 14.40625 5.515625 27.296875 
Q 5.515625 40.1875 11.734375 48.09375 
Q 17.96875 56 27.875 56 
Q 33.9375 56 38.25 53.625 
Q 42.578125 51.265625 45.40625 46.390625 
z
M 14.796875 27.296875 
Q 14.796875 17.390625 18.875 11.75 
Q 22.953125 6.109375 30.078125 6.109375 
Q 37.203125 6.109375 41.296875 11.75 
Q 45.40625 17.390625 45.40625 27.296875 
Q 45.40625 37.203125 41.296875 42.84375 
Q 37.203125 48.484375 30.078125 48.484375 
Q 22.953125 48.484375 18.875 42.84375 
Q 14.796875 37.203125 14.796875 27.296875 
z
" id="DejaVuSans-100"/>
     <path d="M 8.015625 75.875 
L 15.828125 75.875 
Q 23.140625 64.359375 26.78125 53.3125 
Q 30.421875 42.28125 30.421875 31.390625 
Q 30.421875 20.453125 26.78125 9.375 
Q 23.140625 -1.703125 15.828125 -13.1875 
L 8.015625 -13.1875 
Q 14.5 -2 17.703125 9.0625 
Q 20.90625 20.125 20.90625 31.390625 
Q 20.90625 42.671875 17.703125 53.65625 
Q 14.5 64.65625 8.015625 75.875 
z
" id="DejaVuSans-41"/>
     <path d="M 34.28125 27.484375 
Q 23.390625 27.484375 19.1875 25 
Q 14.984375 22.515625 14.984375 16.5 
Q 14.984375 11.71875 18.140625 8.90625 
Q 21.296875 6.109375 26.703125 6.109375 
Q 34.1875 6.109375 38.703125 11.40625 
Q 43.21875 16.703125 43.21875 25.484375 
L 43.21875 27.484375 
z
M 52.203125 31.203125 
L 52.203125 0 
L 43.21875 0 
L 43.21875 8.296875 
Q 40.140625 3.328125 35.546875 0.953125 
Q 30.953125 -1.421875 24.3125 -1.421875 
Q 15.921875 -1.421875 10.953125 3.296875 
Q 6 8.015625 6 15.921875 
Q 6 25.140625 12.171875 29.828125 
Q 18.359375 34.515625 30.609375 34.515625 
L 43.21875 34.515625 
L 43.21875 35.40625 
Q 43.21875 41.609375 39.140625 45 
Q 35.0625 48.390625 27.6875 48.390625 
Q 23 48.390625 18.546875 47.265625 
Q 14.109375 46.140625 10.015625 43.890625 
L 10.015625 52.203125 
Q 14.9375 54.109375 19.578125 55.046875 
Q 24.21875 56 28.609375 56 
Q 40.484375 56 46.34375 49.84375 
Q 52.203125 43.703125 52.203125 31.203125 
z
" id="DejaVuSans-97"/>
    </defs>
    <g transform="translate(1205.159688 150.832262)scale(0.34 -0.34)">
     <use xlink:href="#DejaVuSans-66"/>
     <use x="68.603516" xlink:href="#DejaVuSans-105"/>
     <use x="96.386719" xlink:href="#DejaVuSans-99"/>
     <use x="151.367188" xlink:href="#DejaVuSans-101"/>
     <use x="212.890625" xlink:href="#DejaVuSans-112"/>
     <use x="276.367188" xlink:href="#DejaVuSans-115"/>
     <use x="328.466797" xlink:href="#DejaVuSans-32"/>
     <use x="360.253906" xlink:href="#DejaVuSans-40"/>
     <use x="399.267578" xlink:href="#DejaVuSans-114"/>
     <use x="440.349609" xlink:href="#DejaVuSans-101"/>
     <use x="501.873047" xlink:href="#DejaVuSans-100"/>
     <use x="565.349609" xlink:href="#DejaVuSans-41"/>
     <use x="604.363281" xlink:href="#DejaVuSans-32"/>
     <use x="636.150391" xlink:href="#DejaVuSans-97"/>
     <use x="697.429688" xlink:href="#DejaVuSans-110"/>
     <use x="760.808594" xlink:href="#DejaVuSans-100"/>
     <use x="824.285156" xlink:href="#DejaVuSans-32"/>
     <use x="856.072266" xlink:href="#DejaVuSans-84"/>
     <use x="916.9375" xlink:href="#DejaVuSans-114"/>
     <use x="958.050781" xlink:href="#DejaVuSans-105"/>
     <use x="985.833984" xlink:href="#DejaVuSans-99"/>
     <use x="1040.814453" xlink:href="#DejaVuSans-101"/>
     <use x="1102.337891" xlink:href="#DejaVuSans-112"/>
     <use x="1165.814453" xlink:href="#DejaVuSans-115"/>
     <use x="1217.914062" xlink:href="#DejaVuSans-32"/>
     <use x="1249.701172" xlink:href="#DejaVuSans-40"/>
     <use x="1288.714844" xlink:href="#DejaVuSans-103"/>
     <use x="1352.191406" xlink:href="#DejaVuSans-114"/>
     <use x="1393.273438" xlink:href="#DejaVuSans-101"/>
     <use x="1454.796875" xlink:href="#DejaVuSans-101"/>
     <use x="1516.320312" xlink:href="#DejaVuSans-110"/>
     <use x="1579.699219" xlink:href="#DejaVuSans-41"/>
    </g>
   </g>
  </g>
  <g id="text_16">
   <!-- Setpoints (- -) and Lenghts () - P160000 I0 D0 -->
   <defs>
    <path d="M 53.515625 70.515625 
L 53.515625 60.890625 
Q 47.90625 63.578125 42.921875 64.890625 
Q 37.9375 66.21875 33.296875 66.21875 
Q 25.25 66.21875 20.875 63.09375 
Q 16.5 59.96875 16.5 54.203125 
Q 16.5 49.359375 19.40625 46.890625 
Q 22.3125 44.4375 30.421875 42.921875 
L 36.375 41.703125 
Q 47.40625 39.59375 52.65625 34.296875 
Q 57.90625 29 57.90625 20.125 
Q 57.90625 9.515625 50.796875 4.046875 
Q 43.703125 -1.421875 29.984375 -1.421875 
Q 24.8125 -1.421875 18.96875 -0.25 
Q 13.140625 0.921875 6.890625 3.21875 
L 6.890625 13.375 
Q 12.890625 10.015625 18.65625 8.296875 
Q 24.421875 6.59375 29.984375 6.59375 
Q 38.421875 6.59375 43.015625 9.90625 
Q 47.609375 13.234375 47.609375 19.390625 
Q 47.609375 24.75 44.3125 27.78125 
Q 41.015625 30.8125 33.5 32.328125 
L 27.484375 33.5 
Q 16.453125 35.6875 11.515625 40.375 
Q 6.59375 45.0625 6.59375 53.421875 
Q 6.59375 63.09375 13.40625 68.65625 
Q 20.21875 74.21875 32.171875 74.21875 
Q 37.3125 74.21875 42.625 73.28125 
Q 47.953125 72.359375 53.515625 70.515625 
z
" id="DejaVuSans-83"/>
    <path d="M 30.609375 48.390625 
Q 23.390625 48.390625 19.1875 42.75 
Q 14.984375 37.109375 14.984375 27.296875 
Q 14.984375 17.484375 19.15625 11.84375 
Q 23.34375 6.203125 30.609375 6.203125 
Q 37.796875 6.203125 41.984375 11.859375 
Q 46.1875 17.53125 46.1875 27.296875 
Q 46.1875 37.015625 41.984375 42.703125 
Q 37.796875 48.390625 30.609375 48.390625 
z
M 30.609375 56 
Q 42.328125 56 49.015625 48.375 
Q 55.71875 40.765625 55.71875 27.296875 
Q 55.71875 13.875 49.015625 6.21875 
Q 42.328125 -1.421875 30.609375 -1.421875 
Q 18.84375 -1.421875 12.171875 6.21875 
Q 5.515625 13.875 5.515625 27.296875 
Q 5.515625 40.765625 12.171875 48.375 
Q 18.84375 56 30.609375 56 
z
" id="DejaVuSans-111"/>
    <path d="M 4.890625 31.390625 
L 31.203125 31.390625 
L 31.203125 23.390625 
L 4.890625 23.390625 
z
" id="DejaVuSans-45"/>
    <path d="M 0 30.90625 
L 100 30.90625 
L 100 23.875 
L 0 23.875 
z
" id="DejaVuSans-8213"/>
    <path d="M 19.671875 64.796875 
L 19.671875 37.40625 
L 32.078125 37.40625 
Q 38.96875 37.40625 42.71875 40.96875 
Q 46.484375 44.53125 46.484375 51.125 
Q 46.484375 57.671875 42.71875 61.234375 
Q 38.96875 64.796875 32.078125 64.796875 
z
M 9.8125 72.90625 
L 32.078125 72.90625 
Q 44.34375 72.90625 50.609375 67.359375 
Q 56.890625 61.8125 56.890625 51.125 
Q 56.890625 40.328125 50.609375 34.8125 
Q 44.34375 29.296875 32.078125 29.296875 
L 19.671875 29.296875 
L 19.671875 0 
L 9.8125 0 
z
" id="DejaVuSans-80"/>
    <path d="M 9.8125 72.90625 
L 19.671875 72.90625 
L 19.671875 0 
L 9.8125 0 
z
" id="DejaVuSans-73"/>
    <path d="M 19.671875 64.796875 
L 19.671875 8.109375 
L 31.59375 8.109375 
Q 46.6875 8.109375 53.6875 14.9375 
Q 60.6875 21.78125 60.6875 36.53125 
Q 60.6875 51.171875 53.6875 57.984375 
Q 46.6875 64.796875 31.59375 64.796875 
z
M 9.8125 72.90625 
L 30.078125 72.90625 
Q 51.265625 72.90625 61.171875 64.09375 
Q 71.09375 55.28125 71.09375 36.53125 
Q 71.09375 17.671875 61.125 8.828125 
Q 51.171875 0 30.078125 0 
L 9.8125 0 
z
" id="DejaVuSans-68"/>
   </defs>
   <g transform="translate(1040.059062 28.834927)scale(0.34 -0.34)">
    <use xlink:href="#DejaVuSans-83"/>
    <use x="63.476562" xlink:href="#DejaVuSans-101"/>
    <use x="125" xlink:href="#DejaVuSans-116"/>
    <use x="164.208984" xlink:href="#DejaVuSans-112"/>
    <use x="227.685547" xlink:href="#DejaVuSans-111"/>
    <use x="288.867188" xlink:href="#DejaVuSans-105"/>
    <use x="316.650391" xlink:href="#DejaVuSans-110"/>
    <use x="380.029297" xlink:href="#DejaVuSans-116"/>
    <use x="419.238281" xlink:href="#DejaVuSans-115"/>
    <use x="471.337891" xlink:href="#DejaVuSans-32"/>
    <use x="503.125" xlink:href="#DejaVuSans-40"/>
    <use x="542.138672" xlink:href="#DejaVuSans-45"/>
    <use x="578.222656" xlink:href="#DejaVuSans-45"/>
    <use x="614.306641" xlink:href="#DejaVuSans-41"/>
    <use x="653.320312" xlink:href="#DejaVuSans-32"/>
    <use x="685.107422" xlink:href="#DejaVuSans-97"/>
    <use x="746.386719" xlink:href="#DejaVuSans-110"/>
    <use x="809.765625" xlink:href="#DejaVuSans-100"/>
    <use x="873.242188" xlink:href="#DejaVuSans-32"/>
    <use x="905.029297" xlink:href="#DejaVuSans-76"/>
    <use x="960.726562" xlink:href="#DejaVuSans-101"/>
    <use x="1022.25" xlink:href="#DejaVuSans-110"/>
    <use x="1085.628906" xlink:href="#DejaVuSans-103"/>
    <use x="1149.105469" xlink:href="#DejaVuSans-104"/>
    <use x="1212.484375" xlink:href="#DejaVuSans-116"/>
    <use x="1251.693359" xlink:href="#DejaVuSans-115"/>
    <use x="1303.792969" xlink:href="#DejaVuSans-32"/>
    <use x="1335.580078" xlink:href="#DejaVuSans-40"/>
    <use x="1374.59375" xlink:href="#DejaVuSans-8213"/>
    <use x="1474.59375" xlink:href="#DejaVuSans-41"/>
    <use x="1513.607422" xlink:href="#DejaVuSans-32"/>
    <use x="1545.394531" xlink:href="#DejaVuSans-45"/>
    <use x="1581.478516" xlink:href="#DejaVuSans-32"/>
    <use x="1613.265625" xlink:href="#DejaVuSans-80"/>
    <use x="1673.568359" xlink:href="#DejaVuSans-49"/>
    <use x="1737.191406" xlink:href="#DejaVuSans-54"/>
    <use x="1800.814453" xlink:href="#DejaVuSans-48"/>
    <use x="1864.4375" xlink:href="#DejaVuSans-48"/>
    <use x="1928.060547" xlink:href="#DejaVuSans-48"/>
    <use x="1991.683594" xlink:href="#DejaVuSans-48"/>
    <use x="2055.306641" xlink:href="#DejaVuSans-32"/>
    <use x="2087.09375" xlink:href="#DejaVuSans-73"/>
    <use x="2116.585938" xlink:href="#DejaVuSans-48"/>
    <use x="2180.208984" xlink:href="#DejaVuSans-32"/>
    <use x="2211.996094" xlink:href="#DejaVuSans-68"/>
    <use x="2288.998047" xlink:href="#DejaVuSans-48"/>
   </g>
   <!-- Bagfile elbow_left_c from 35s for 95s - Logging Rate 30 - Simulation Rate 800 - 100.00% real time speed -->
   <defs>
    <path d="M 37.109375 75.984375 
L 37.109375 68.5 
L 28.515625 68.5 
Q 23.6875 68.5 21.796875 66.546875 
Q 19.921875 64.59375 19.921875 59.515625 
L 19.921875 54.6875 
L 34.71875 54.6875 
L 34.71875 47.703125 
L 19.921875 47.703125 
L 19.921875 0 
L 10.890625 0 
L 10.890625 47.703125 
L 2.296875 47.703125 
L 2.296875 54.6875 
L 10.890625 54.6875 
L 10.890625 58.5 
Q 10.890625 67.625 15.140625 71.796875 
Q 19.390625 75.984375 28.609375 75.984375 
z
" id="DejaVuSans-102"/>
    <path d="M 9.421875 75.984375 
L 18.40625 75.984375 
L 18.40625 0 
L 9.421875 0 
z
" id="DejaVuSans-108"/>
    <path d="M 48.6875 27.296875 
Q 48.6875 37.203125 44.609375 42.84375 
Q 40.53125 48.484375 33.40625 48.484375 
Q 26.265625 48.484375 22.1875 42.84375 
Q 18.109375 37.203125 18.109375 27.296875 
Q 18.109375 17.390625 22.1875 11.75 
Q 26.265625 6.109375 33.40625 6.109375 
Q 40.53125 6.109375 44.609375 11.75 
Q 48.6875 17.390625 48.6875 27.296875 
z
M 18.109375 46.390625 
Q 20.953125 51.265625 25.265625 53.625 
Q 29.59375 56 35.59375 56 
Q 45.5625 56 51.78125 48.09375 
Q 58.015625 40.1875 58.015625 27.296875 
Q 58.015625 14.40625 51.78125 6.484375 
Q 45.5625 -1.421875 35.59375 -1.421875 
Q 29.59375 -1.421875 25.265625 0.953125 
Q 20.953125 3.328125 18.109375 8.203125 
L 18.109375 0 
L 9.078125 0 
L 9.078125 75.984375 
L 18.109375 75.984375 
z
" id="DejaVuSans-98"/>
    <path d="M 4.203125 54.6875 
L 13.1875 54.6875 
L 24.421875 12.015625 
L 35.59375 54.6875 
L 46.1875 54.6875 
L 57.421875 12.015625 
L 68.609375 54.6875 
L 77.59375 54.6875 
L 63.28125 0 
L 52.6875 0 
L 40.921875 44.828125 
L 29.109375 0 
L 18.5 0 
z
" id="DejaVuSans-119"/>
    <path d="M 50.984375 -16.609375 
L 50.984375 -23.578125 
L -0.984375 -23.578125 
L -0.984375 -16.609375 
z
" id="DejaVuSans-95"/>
    <path d="M 10.796875 72.90625 
L 49.515625 72.90625 
L 49.515625 64.59375 
L 19.828125 64.59375 
L 19.828125 46.734375 
Q 21.96875 47.46875 24.109375 47.828125 
Q 26.265625 48.1875 28.421875 48.1875 
Q 40.625 48.1875 47.75 41.5 
Q 54.890625 34.8125 54.890625 23.390625 
Q 54.890625 11.625 47.5625 5.09375 
Q 40.234375 -1.421875 26.90625 -1.421875 
Q 22.3125 -1.421875 17.546875 -0.640625 
Q 12.796875 0.140625 7.71875 1.703125 
L 7.71875 11.625 
Q 12.109375 9.234375 16.796875 8.0625 
Q 21.484375 6.890625 26.703125 6.890625 
Q 35.15625 6.890625 40.078125 11.328125 
Q 45.015625 15.765625 45.015625 23.390625 
Q 45.015625 31 40.078125 35.4375 
Q 35.15625 39.890625 26.703125 39.890625 
Q 22.75 39.890625 18.8125 39.015625 
Q 14.890625 38.140625 10.796875 36.28125 
z
" id="DejaVuSans-53"/>
    <path d="M 44.390625 34.1875 
Q 47.5625 33.109375 50.5625 29.59375 
Q 53.5625 26.078125 56.59375 19.921875 
L 66.609375 0 
L 56 0 
L 46.6875 18.703125 
Q 43.0625 26.03125 39.671875 28.421875 
Q 36.28125 30.8125 30.421875 30.8125 
L 19.671875 30.8125 
L 19.671875 0 
L 9.8125 0 
L 9.8125 72.90625 
L 32.078125 72.90625 
Q 44.578125 72.90625 50.734375 67.671875 
Q 56.890625 62.453125 56.890625 51.90625 
Q 56.890625 45.015625 53.6875 40.46875 
Q 50.484375 35.9375 44.390625 34.1875 
z
M 19.671875 64.796875 
L 19.671875 38.921875 
L 32.078125 38.921875 
Q 39.203125 38.921875 42.84375 42.21875 
Q 46.484375 45.515625 46.484375 51.90625 
Q 46.484375 58.296875 42.84375 61.546875 
Q 39.203125 64.796875 32.078125 64.796875 
z
" id="DejaVuSans-82"/>
    <path d="M 8.5 21.578125 
L 8.5 54.6875 
L 17.484375 54.6875 
L 17.484375 21.921875 
Q 17.484375 14.15625 20.5 10.265625 
Q 23.53125 6.390625 29.59375 6.390625 
Q 36.859375 6.390625 41.078125 11.03125 
Q 45.3125 15.671875 45.3125 23.6875 
L 45.3125 54.6875 
L 54.296875 54.6875 
L 54.296875 0 
L 45.3125 0 
L 45.3125 8.40625 
Q 42.046875 3.421875 37.71875 1 
Q 33.40625 -1.421875 27.6875 -1.421875 
Q 18.265625 -1.421875 13.375 4.4375 
Q 8.5 10.296875 8.5 21.578125 
z
M 31.109375 56 
z
" id="DejaVuSans-117"/>
    <path d="M 72.703125 32.078125 
Q 68.453125 32.078125 66.03125 28.46875 
Q 63.625 24.859375 63.625 18.40625 
Q 63.625 12.0625 66.03125 8.421875 
Q 68.453125 4.78125 72.703125 4.78125 
Q 76.859375 4.78125 79.265625 8.421875 
Q 81.6875 12.0625 81.6875 18.40625 
Q 81.6875 24.8125 79.265625 28.4375 
Q 76.859375 32.078125 72.703125 32.078125 
z
M 72.703125 38.28125 
Q 80.421875 38.28125 84.953125 32.90625 
Q 89.5 27.546875 89.5 18.40625 
Q 89.5 9.28125 84.9375 3.921875 
Q 80.375 -1.421875 72.703125 -1.421875 
Q 64.890625 -1.421875 60.34375 3.921875 
Q 55.8125 9.28125 55.8125 18.40625 
Q 55.8125 27.59375 60.375 32.9375 
Q 64.9375 38.28125 72.703125 38.28125 
z
M 22.3125 68.015625 
Q 18.109375 68.015625 15.6875 64.375 
Q 13.28125 60.75 13.28125 54.390625 
Q 13.28125 47.953125 15.671875 44.328125 
Q 18.0625 40.71875 22.3125 40.71875 
Q 26.5625 40.71875 28.96875 44.328125 
Q 31.390625 47.953125 31.390625 54.390625 
Q 31.390625 60.6875 28.953125 64.34375 
Q 26.515625 68.015625 22.3125 68.015625 
z
M 66.40625 74.21875 
L 74.21875 74.21875 
L 28.609375 -1.421875 
L 20.796875 -1.421875 
z
M 22.3125 74.21875 
Q 30.03125 74.21875 34.609375 68.875 
Q 39.203125 63.53125 39.203125 54.390625 
Q 39.203125 45.171875 34.640625 39.84375 
Q 30.078125 34.515625 22.3125 34.515625 
Q 14.546875 34.515625 10.03125 39.859375 
Q 5.515625 45.21875 5.515625 54.390625 
Q 5.515625 63.484375 10.046875 68.84375 
Q 14.59375 74.21875 22.3125 74.21875 
z
" id="DejaVuSans-37"/>
   </defs>
   <g transform="translate(547.781562 66.90749)scale(0.34 -0.34)">
    <use xlink:href="#DejaVuSans-66"/>
    <use x="68.603516" xlink:href="#DejaVuSans-97"/>
    <use x="129.882812" xlink:href="#DejaVuSans-103"/>
    <use x="193.359375" xlink:href="#DejaVuSans-102"/>
    <use x="228.564453" xlink:href="#DejaVuSans-105"/>
    <use x="256.347656" xlink:href="#DejaVuSans-108"/>
    <use x="284.130859" xlink:href="#DejaVuSans-101"/>
    <use x="345.654297" xlink:href="#DejaVuSans-32"/>
    <use x="377.441406" xlink:href="#DejaVuSans-101"/>
    <use x="438.964844" xlink:href="#DejaVuSans-108"/>
    <use x="466.748047" xlink:href="#DejaVuSans-98"/>
    <use x="530.224609" xlink:href="#DejaVuSans-111"/>
    <use x="591.40625" xlink:href="#DejaVuSans-119"/>
    <use x="673.193359" xlink:href="#DejaVuSans-95"/>
    <use x="723.193359" xlink:href="#DejaVuSans-108"/>
    <use x="750.976562" xlink:href="#DejaVuSans-101"/>
    <use x="812.5" xlink:href="#DejaVuSans-102"/>
    <use x="847.689453" xlink:href="#DejaVuSans-116"/>
    <use x="886.898438" xlink:href="#DejaVuSans-95"/>
    <use x="936.898438" xlink:href="#DejaVuSans-99"/>
    <use x="991.878906" xlink:href="#DejaVuSans-32"/>
    <use x="1023.666016" xlink:href="#DejaVuSans-102"/>
    <use x="1058.871094" xlink:href="#DejaVuSans-114"/>
    <use x="1099.953125" xlink:href="#DejaVuSans-111"/>
    <use x="1161.134766" xlink:href="#DejaVuSans-109"/>
    <use x="1258.546875" xlink:href="#DejaVuSans-32"/>
    <use x="1290.333984" xlink:href="#DejaVuSans-51"/>
    <use x="1353.957031" xlink:href="#DejaVuSans-53"/>
    <use x="1417.580078" xlink:href="#DejaVuSans-115"/>
    <use x="1469.679688" xlink:href="#DejaVuSans-32"/>
    <use x="1501.466797" xlink:href="#DejaVuSans-102"/>
    <use x="1536.671875" xlink:href="#DejaVuSans-111"/>
    <use x="1597.853516" xlink:href="#DejaVuSans-114"/>
    <use x="1638.966797" xlink:href="#DejaVuSans-32"/>
    <use x="1670.753906" xlink:href="#DejaVuSans-57"/>
    <use x="1734.376953" xlink:href="#DejaVuSans-53"/>
    <use x="1798" xlink:href="#DejaVuSans-115"/>
    <use x="1850.099609" xlink:href="#DejaVuSans-32"/>
    <use x="1881.886719" xlink:href="#DejaVuSans-45"/>
    <use x="1917.970703" xlink:href="#DejaVuSans-32"/>
    <use x="1949.757812" xlink:href="#DejaVuSans-76"/>
    <use x="2005.455078" xlink:href="#DejaVuSans-111"/>
    <use x="2066.636719" xlink:href="#DejaVuSans-103"/>
    <use x="2130.113281" xlink:href="#DejaVuSans-103"/>
    <use x="2193.589844" xlink:href="#DejaVuSans-105"/>
    <use x="2221.373047" xlink:href="#DejaVuSans-110"/>
    <use x="2284.751953" xlink:href="#DejaVuSans-103"/>
    <use x="2348.228516" xlink:href="#DejaVuSans-32"/>
    <use x="2380.015625" xlink:href="#DejaVuSans-82"/>
    <use x="2449.466797" xlink:href="#DejaVuSans-97"/>
    <use x="2510.746094" xlink:href="#DejaVuSans-116"/>
    <use x="2549.955078" xlink:href="#DejaVuSans-101"/>
    <use x="2611.478516" xlink:href="#DejaVuSans-32"/>
    <use x="2643.265625" xlink:href="#DejaVuSans-51"/>
    <use x="2706.888672" xlink:href="#DejaVuSans-48"/>
    <use x="2770.511719" xlink:href="#DejaVuSans-32"/>
    <use x="2802.298828" xlink:href="#DejaVuSans-45"/>
    <use x="2838.382812" xlink:href="#DejaVuSans-32"/>
    <use x="2870.169922" xlink:href="#DejaVuSans-83"/>
    <use x="2933.646484" xlink:href="#DejaVuSans-105"/>
    <use x="2961.429688" xlink:href="#DejaVuSans-109"/>
    <use x="3058.841797" xlink:href="#DejaVuSans-117"/>
    <use x="3122.220703" xlink:href="#DejaVuSans-108"/>
    <use x="3150.003906" xlink:href="#DejaVuSans-97"/>
    <use x="3211.283203" xlink:href="#DejaVuSans-116"/>
    <use x="3250.492188" xlink:href="#DejaVuSans-105"/>
    <use x="3278.275391" xlink:href="#DejaVuSans-111"/>
    <use x="3339.457031" xlink:href="#DejaVuSans-110"/>
    <use x="3402.835938" xlink:href="#DejaVuSans-32"/>
    <use x="3434.623047" xlink:href="#DejaVuSans-82"/>
    <use x="3504.074219" xlink:href="#DejaVuSans-97"/>
    <use x="3565.353516" xlink:href="#DejaVuSans-116"/>
    <use x="3604.5625" xlink:href="#DejaVuSans-101"/>
    <use x="3666.085938" xlink:href="#DejaVuSans-32"/>
    <use x="3697.873047" xlink:href="#DejaVuSans-56"/>
    <use x="3761.496094" xlink:href="#DejaVuSans-48"/>
    <use x="3825.119141" xlink:href="#DejaVuSans-48"/>
    <use x="3888.742188" xlink:href="#DejaVuSans-32"/>
    <use x="3920.529297" xlink:href="#DejaVuSans-45"/>
    <use x="3956.613281" xlink:href="#DejaVuSans-32"/>
    <use x="3988.400391" xlink:href="#DejaVuSans-49"/>
    <use x="4052.023438" xlink:href="#DejaVuSans-48"/>
    <use x="4115.646484" xlink:href="#DejaVuSans-48"/>
    <use x="4179.269531" xlink:href="#DejaVuSans-46"/>
    <use x="4211.056641" xlink:href="#DejaVuSans-48"/>
    <use x="4274.679688" xlink:href="#DejaVuSans-48"/>
    <use x="4338.302734" xlink:href="#DejaVuSans-37"/>
    <use x="4433.322266" xlink:href="#DejaVuSans-32"/>
    <use x="4465.109375" xlink:href="#DejaVuSans-114"/>
    <use x="4506.191406" xlink:href="#DejaVuSans-101"/>
    <use x="4567.714844" xlink:href="#DejaVuSans-97"/>
    <use x="4628.994141" xlink:href="#DejaVuSans-108"/>
    <use x="4656.777344" xlink:href="#DejaVuSans-32"/>
    <use x="4688.564453" xlink:href="#DejaVuSans-116"/>
    <use x="4727.773438" xlink:href="#DejaVuSans-105"/>
    <use x="4755.556641" xlink:href="#DejaVuSans-109"/>
    <use x="4852.96875" xlink:href="#DejaVuSans-101"/>
    <use x="4914.492188" xlink:href="#DejaVuSans-32"/>
    <use x="4946.279297" xlink:href="#DejaVuSans-115"/>
    <use x="4998.378906" xlink:href="#DejaVuSans-112"/>
    <use x="5061.855469" xlink:href="#DejaVuSans-101"/>
    <use x="5123.378906" xlink:href="#DejaVuSans-101"/>
    <use x="5184.902344" xlink:href="#DejaVuSans-100"/>
   </g>
   <!--  -->
   <g transform="translate(1440 105.925677)scale(0.34 -0.34)"/>
  </g>
 </g>
 <defs>
  <clipPath id="pca9e25f292">
   <rect height="863.577185" width="2793.305145" x="83.694615" y="157.9032"/>
  </clipPath>
 </defs>
</svg>
