<?xml version="1.0" encoding="utf-8" standalone="no"?>
<!DOCTYPE svg PUBLIC "-//W3C//DTD SVG 1.1//EN"
  "http://www.w3.org/Graphics/SVG/1.1/DTD/svg11.dtd">
<!-- Created with matplotlib (https://matplotlib.org/) -->
<svg height="1080pt" version="1.1" viewBox="0 0 2880 1080" width="2880pt" xmlns="http://www.w3.org/2000/svg" xmlns:xlink="http://www.w3.org/1999/xlink">
 <defs>
  <style type="text/css">
*{stroke-linecap:butt;stroke-linejoin:round;}
  </style>
 </defs>
 <g id="figure_1">
  <g id="patch_1">
   <path d="M 0 1080 
L 2880 1080 
L 2880 0 
L 0 0 
z
" style="fill:#ffffff;"/>
  </g>
  <g id="axes_1">
   <g id="patch_2">
    <path d="M 94.09774 1021.480385 
L 2876.99976 1021.480385 
L 2876.99976 157.9032 
L 94.09774 157.9032 
z
" style="fill:#ffffff;"/>
   </g>
   <g id="matplotlib.axis_1">
    <g id="xtick_1">
     <g id="line2d_1">
      <defs>
       <path d="M 0 0 
L 0 3.5 
" id="mb0554ac608" style="stroke:#000000;stroke-width:0.8;"/>
      </defs>
      <g>
       <use style="stroke:#000000;stroke-width:0.8;" x="353.841238" xlink:href="#mb0554ac608" y="1021.480385"/>
      </g>
     </g>
     <g id="text_1">
      <!-- 40 -->
      <defs>
       <path d="M 37.796875 64.3125 
L 12.890625 25.390625 
L 37.796875 25.390625 
z
M 35.203125 72.90625 
L 47.609375 72.90625 
L 47.609375 25.390625 
L 58.015625 25.390625 
L 58.015625 17.1875 
L 47.609375 17.1875 
L 47.609375 0 
L 37.796875 0 
L 37.796875 17.1875 
L 4.890625 17.1875 
L 4.890625 26.703125 
z
" id="DejaVuSans-52"/>
       <path d="M 31.78125 66.40625 
Q 24.171875 66.40625 20.328125 58.90625 
Q 16.5 51.421875 16.5 36.375 
Q 16.5 21.390625 20.328125 13.890625 
Q 24.171875 6.390625 31.78125 6.390625 
Q 39.453125 6.390625 43.28125 13.890625 
Q 47.125 21.390625 47.125 36.375 
Q 47.125 51.421875 43.28125 58.90625 
Q 39.453125 66.40625 31.78125 66.40625 
z
M 31.78125 74.21875 
Q 44.046875 74.21875 50.515625 64.515625 
Q 56.984375 54.828125 56.984375 36.375 
Q 56.984375 17.96875 50.515625 8.265625 
Q 44.046875 -1.421875 31.78125 -1.421875 
Q 19.53125 -1.421875 13.0625 8.265625 
Q 6.59375 17.96875 6.59375 36.375 
Q 6.59375 54.828125 13.0625 64.515625 
Q 19.53125 74.21875 31.78125 74.21875 
z
" id="DejaVuSans-48"/>
      </defs>
      <g transform="translate(341.116238 1043.67726)scale(0.2 -0.2)">
       <use xlink:href="#DejaVuSans-52"/>
       <use x="63.623047" xlink:href="#DejaVuSans-48"/>
      </g>
     </g>
    </g>
    <g id="xtick_2">
     <g id="line2d_2">
      <g>
       <use style="stroke:#000000;stroke-width:0.8;" x="886.833043" xlink:href="#mb0554ac608" y="1021.480385"/>
      </g>
     </g>
     <g id="text_2">
      <!-- 60 -->
      <defs>
       <path d="M 33.015625 40.375 
Q 26.375 40.375 22.484375 35.828125 
Q 18.609375 31.296875 18.609375 23.390625 
Q 18.609375 15.53125 22.484375 10.953125 
Q 26.375 6.390625 33.015625 6.390625 
Q 39.65625 6.390625 43.53125 10.953125 
Q 47.40625 15.53125 47.40625 23.390625 
Q 47.40625 31.296875 43.53125 35.828125 
Q 39.65625 40.375 33.015625 40.375 
z
M 52.59375 71.296875 
L 52.59375 62.3125 
Q 48.875 64.0625 45.09375 64.984375 
Q 41.3125 65.921875 37.59375 65.921875 
Q 27.828125 65.921875 22.671875 59.328125 
Q 17.53125 52.734375 16.796875 39.40625 
Q 19.671875 43.65625 24.015625 45.921875 
Q 28.375 48.1875 33.59375 48.1875 
Q 44.578125 48.1875 50.953125 41.515625 
Q 57.328125 34.859375 57.328125 23.390625 
Q 57.328125 12.15625 50.6875 5.359375 
Q 44.046875 -1.421875 33.015625 -1.421875 
Q 20.359375 -1.421875 13.671875 8.265625 
Q 6.984375 17.96875 6.984375 36.375 
Q 6.984375 53.65625 15.1875 63.9375 
Q 23.390625 74.21875 37.203125 74.21875 
Q 40.921875 74.21875 44.703125 73.484375 
Q 48.484375 72.75 52.59375 71.296875 
z
" id="DejaVuSans-54"/>
      </defs>
      <g transform="translate(874.108043 1043.67726)scale(0.2 -0.2)">
       <use xlink:href="#DejaVuSans-54"/>
       <use x="63.623047" xlink:href="#DejaVuSans-48"/>
      </g>
     </g>
    </g>
    <g id="xtick_3">
     <g id="line2d_3">
      <g>
       <use style="stroke:#000000;stroke-width:0.8;" x="1419.824848" xlink:href="#mb0554ac608" y="1021.480385"/>
      </g>
     </g>
     <g id="text_3">
      <!-- 80 -->
      <defs>
       <path d="M 31.78125 34.625 
Q 24.75 34.625 20.71875 30.859375 
Q 16.703125 27.09375 16.703125 20.515625 
Q 16.703125 13.921875 20.71875 10.15625 
Q 24.75 6.390625 31.78125 6.390625 
Q 38.8125 6.390625 42.859375 10.171875 
Q 46.921875 13.96875 46.921875 20.515625 
Q 46.921875 27.09375 42.890625 30.859375 
Q 38.875 34.625 31.78125 34.625 
z
M 21.921875 38.8125 
Q 15.578125 40.375 12.03125 44.71875 
Q 8.5 49.078125 8.5 55.328125 
Q 8.5 64.0625 14.71875 69.140625 
Q 20.953125 74.21875 31.78125 74.21875 
Q 42.671875 74.21875 48.875 69.140625 
Q 55.078125 64.0625 55.078125 55.328125 
Q 55.078125 49.078125 51.53125 44.71875 
Q 48 40.375 41.703125 38.8125 
Q 48.828125 37.15625 52.796875 32.3125 
Q 56.78125 27.484375 56.78125 20.515625 
Q 56.78125 9.90625 50.3125 4.234375 
Q 43.84375 -1.421875 31.78125 -1.421875 
Q 19.734375 -1.421875 13.25 4.234375 
Q 6.78125 9.90625 6.78125 20.515625 
Q 6.78125 27.484375 10.78125 32.3125 
Q 14.796875 37.15625 21.921875 38.8125 
z
M 18.3125 54.390625 
Q 18.3125 48.734375 21.84375 45.5625 
Q 25.390625 42.390625 31.78125 42.390625 
Q 38.140625 42.390625 41.71875 45.5625 
Q 45.3125 48.734375 45.3125 54.390625 
Q 45.3125 60.0625 41.71875 63.234375 
Q 38.140625 66.40625 31.78125 66.40625 
Q 25.390625 66.40625 21.84375 63.234375 
Q 18.3125 60.0625 18.3125 54.390625 
z
" id="DejaVuSans-56"/>
      </defs>
      <g transform="translate(1407.099848 1043.67726)scale(0.2 -0.2)">
       <use xlink:href="#DejaVuSans-56"/>
       <use x="63.623047" xlink:href="#DejaVuSans-48"/>
      </g>
     </g>
    </g>
    <g id="xtick_4">
     <g id="line2d_4">
      <g>
       <use style="stroke:#000000;stroke-width:0.8;" x="1952.816653" xlink:href="#mb0554ac608" y="1021.480385"/>
      </g>
     </g>
     <g id="text_4">
      <!-- 100 -->
      <defs>
       <path d="M 12.40625 8.296875 
L 28.515625 8.296875 
L 28.515625 63.921875 
L 10.984375 60.40625 
L 10.984375 69.390625 
L 28.421875 72.90625 
L 38.28125 72.90625 
L 38.28125 8.296875 
L 54.390625 8.296875 
L 54.390625 0 
L 12.40625 0 
z
" id="DejaVuSans-49"/>
      </defs>
      <g transform="translate(1933.729153 1043.67726)scale(0.2 -0.2)">
       <use xlink:href="#DejaVuSans-49"/>
       <use x="63.623047" xlink:href="#DejaVuSans-48"/>
       <use x="127.246094" xlink:href="#DejaVuSans-48"/>
      </g>
     </g>
    </g>
    <g id="xtick_5">
     <g id="line2d_5">
      <g>
       <use style="stroke:#000000;stroke-width:0.8;" x="2485.808458" xlink:href="#mb0554ac608" y="1021.480385"/>
      </g>
     </g>
     <g id="text_5">
      <!-- 120 -->
      <defs>
       <path d="M 19.1875 8.296875 
L 53.609375 8.296875 
L 53.609375 0 
L 7.328125 0 
L 7.328125 8.296875 
Q 12.9375 14.109375 22.625 23.890625 
Q 32.328125 33.6875 34.8125 36.53125 
Q 39.546875 41.84375 41.421875 45.53125 
Q 43.3125 49.21875 43.3125 52.78125 
Q 43.3125 58.59375 39.234375 62.25 
Q 35.15625 65.921875 28.609375 65.921875 
Q 23.96875 65.921875 18.8125 64.3125 
Q 13.671875 62.703125 7.8125 59.421875 
L 7.8125 69.390625 
Q 13.765625 71.78125 18.9375 73 
Q 24.125 74.21875 28.421875 74.21875 
Q 39.75 74.21875 46.484375 68.546875 
Q 53.21875 62.890625 53.21875 53.421875 
Q 53.21875 48.921875 51.53125 44.890625 
Q 49.859375 40.875 45.40625 35.40625 
Q 44.1875 33.984375 37.640625 27.21875 
Q 31.109375 20.453125 19.1875 8.296875 
z
" id="DejaVuSans-50"/>
      </defs>
      <g transform="translate(2466.720958 1043.67726)scale(0.2 -0.2)">
       <use xlink:href="#DejaVuSans-49"/>
       <use x="63.623047" xlink:href="#DejaVuSans-50"/>
       <use x="127.246094" xlink:href="#DejaVuSans-48"/>
      </g>
     </g>
    </g>
    <g id="text_6">
     <!-- Time [s] -->
     <defs>
      <path d="M -0.296875 72.90625 
L 61.375 72.90625 
L 61.375 64.59375 
L 35.5 64.59375 
L 35.5 0 
L 25.59375 0 
L 25.59375 64.59375 
L -0.296875 64.59375 
z
" id="DejaVuSans-84"/>
      <path d="M 9.421875 54.6875 
L 18.40625 54.6875 
L 18.40625 0 
L 9.421875 0 
z
M 9.421875 75.984375 
L 18.40625 75.984375 
L 18.40625 64.59375 
L 9.421875 64.59375 
z
" id="DejaVuSans-105"/>
      <path d="M 52 44.1875 
Q 55.375 50.25 60.0625 53.125 
Q 64.75 56 71.09375 56 
Q 79.640625 56 84.28125 50.015625 
Q 88.921875 44.046875 88.921875 33.015625 
L 88.921875 0 
L 79.890625 0 
L 79.890625 32.71875 
Q 79.890625 40.578125 77.09375 44.375 
Q 74.3125 48.1875 68.609375 48.1875 
Q 61.625 48.1875 57.5625 43.546875 
Q 53.515625 38.921875 53.515625 30.90625 
L 53.515625 0 
L 44.484375 0 
L 44.484375 32.71875 
Q 44.484375 40.625 41.703125 44.40625 
Q 38.921875 48.1875 33.109375 48.1875 
Q 26.21875 48.1875 22.15625 43.53125 
Q 18.109375 38.875 18.109375 30.90625 
L 18.109375 0 
L 9.078125 0 
L 9.078125 54.6875 
L 18.109375 54.6875 
L 18.109375 46.1875 
Q 21.1875 51.21875 25.484375 53.609375 
Q 29.78125 56 35.6875 56 
Q 41.65625 56 45.828125 52.96875 
Q 50 49.953125 52 44.1875 
z
" id="DejaVuSans-109"/>
      <path d="M 56.203125 29.59375 
L 56.203125 25.203125 
L 14.890625 25.203125 
Q 15.484375 15.921875 20.484375 11.0625 
Q 25.484375 6.203125 34.421875 6.203125 
Q 39.59375 6.203125 44.453125 7.46875 
Q 49.3125 8.734375 54.109375 11.28125 
L 54.109375 2.78125 
Q 49.265625 0.734375 44.1875 -0.34375 
Q 39.109375 -1.421875 33.890625 -1.421875 
Q 20.796875 -1.421875 13.15625 6.1875 
Q 5.515625 13.8125 5.515625 26.8125 
Q 5.515625 40.234375 12.765625 48.109375 
Q 20.015625 56 32.328125 56 
Q 43.359375 56 49.78125 48.890625 
Q 56.203125 41.796875 56.203125 29.59375 
z
M 47.21875 32.234375 
Q 47.125 39.59375 43.09375 43.984375 
Q 39.0625 48.390625 32.421875 48.390625 
Q 24.90625 48.390625 20.390625 44.140625 
Q 15.875 39.890625 15.1875 32.171875 
z
" id="DejaVuSans-101"/>
      <path id="DejaVuSans-32"/>
      <path d="M 8.59375 75.984375 
L 29.296875 75.984375 
L 29.296875 69 
L 17.578125 69 
L 17.578125 -6.203125 
L 29.296875 -6.203125 
L 29.296875 -13.1875 
L 8.59375 -13.1875 
z
" id="DejaVuSans-91"/>
      <path d="M 44.28125 53.078125 
L 44.28125 44.578125 
Q 40.484375 46.53125 36.375 47.5 
Q 32.28125 48.484375 27.875 48.484375 
Q 21.1875 48.484375 17.84375 46.4375 
Q 14.5 44.390625 14.5 40.28125 
Q 14.5 37.15625 16.890625 35.375 
Q 19.28125 33.59375 26.515625 31.984375 
L 29.59375 31.296875 
Q 39.15625 29.25 43.1875 25.515625 
Q 47.21875 21.78125 47.21875 15.09375 
Q 47.21875 7.46875 41.1875 3.015625 
Q 35.15625 -1.421875 24.609375 -1.421875 
Q 20.21875 -1.421875 15.453125 -0.5625 
Q 10.6875 0.296875 5.421875 2 
L 5.421875 11.28125 
Q 10.40625 8.6875 15.234375 7.390625 
Q 20.0625 6.109375 24.8125 6.109375 
Q 31.15625 6.109375 34.5625 8.28125 
Q 37.984375 10.453125 37.984375 14.40625 
Q 37.984375 18.0625 35.515625 20.015625 
Q 33.0625 21.96875 24.703125 23.78125 
L 21.578125 24.515625 
Q 13.234375 26.265625 9.515625 29.90625 
Q 5.8125 33.546875 5.8125 39.890625 
Q 5.8125 47.609375 11.28125 51.796875 
Q 16.75 56 26.8125 56 
Q 31.78125 56 36.171875 55.265625 
Q 40.578125 54.546875 44.28125 53.078125 
z
" id="DejaVuSans-115"/>
      <path d="M 30.421875 75.984375 
L 30.421875 -13.1875 
L 9.71875 -13.1875 
L 9.71875 -6.203125 
L 21.390625 -6.203125 
L 21.390625 69 
L 9.71875 69 
L 9.71875 75.984375 
z
" id="DejaVuSans-93"/>
     </defs>
     <g transform="translate(1432.293437 1071.592572)scale(0.26 -0.26)">
      <use xlink:href="#DejaVuSans-84"/>
      <use x="61.037109" xlink:href="#DejaVuSans-105"/>
      <use x="88.820312" xlink:href="#DejaVuSans-109"/>
      <use x="186.232422" xlink:href="#DejaVuSans-101"/>
      <use x="247.755859" xlink:href="#DejaVuSans-32"/>
      <use x="279.542969" xlink:href="#DejaVuSans-91"/>
      <use x="318.556641" xlink:href="#DejaVuSans-115"/>
      <use x="370.65625" xlink:href="#DejaVuSans-93"/>
     </g>
    </g>
   </g>
   <g id="matplotlib.axis_2">
    <g id="ytick_1">
     <g id="line2d_6">
      <defs>
       <path d="M 0 0 
L -3.5 0 
" id="m06b6f0a08a" style="stroke:#000000;stroke-width:0.8;"/>
      </defs>
      <g>
       <use style="stroke:#000000;stroke-width:0.8;" x="94.09774" xlink:href="#m06b6f0a08a" y="920.247653"/>
      </g>
     </g>
     <g id="text_7">
      <!-- −140 -->
      <defs>
       <path d="M 10.59375 35.5 
L 73.1875 35.5 
L 73.1875 27.203125 
L 10.59375 27.203125 
z
" id="DejaVuSans-8722"/>
      </defs>
      <g transform="translate(32.163365 927.84609)scale(0.2 -0.2)">
       <use xlink:href="#DejaVuSans-8722"/>
       <use x="83.789062" xlink:href="#DejaVuSans-49"/>
       <use x="147.412109" xlink:href="#DejaVuSans-52"/>
       <use x="211.035156" xlink:href="#DejaVuSans-48"/>
      </g>
     </g>
    </g>
    <g id="ytick_2">
     <g id="line2d_7">
      <g>
       <use style="stroke:#000000;stroke-width:0.8;" x="94.09774" xlink:href="#m06b6f0a08a" y="816.948946"/>
      </g>
     </g>
     <g id="text_8">
      <!-- −120 -->
      <g transform="translate(32.163365 824.547384)scale(0.2 -0.2)">
       <use xlink:href="#DejaVuSans-8722"/>
       <use x="83.789062" xlink:href="#DejaVuSans-49"/>
       <use x="147.412109" xlink:href="#DejaVuSans-50"/>
       <use x="211.035156" xlink:href="#DejaVuSans-48"/>
      </g>
     </g>
    </g>
    <g id="ytick_3">
     <g id="line2d_8">
      <g>
       <use style="stroke:#000000;stroke-width:0.8;" x="94.09774" xlink:href="#m06b6f0a08a" y="713.65024"/>
      </g>
     </g>
     <g id="text_9">
      <!-- −100 -->
      <g transform="translate(32.163365 721.248678)scale(0.2 -0.2)">
       <use xlink:href="#DejaVuSans-8722"/>
       <use x="83.789062" xlink:href="#DejaVuSans-49"/>
       <use x="147.412109" xlink:href="#DejaVuSans-48"/>
       <use x="211.035156" xlink:href="#DejaVuSans-48"/>
      </g>
     </g>
    </g>
    <g id="ytick_4">
     <g id="line2d_9">
      <g>
       <use style="stroke:#000000;stroke-width:0.8;" x="94.09774" xlink:href="#m06b6f0a08a" y="610.351534"/>
      </g>
     </g>
     <g id="text_10">
      <!-- −80 -->
      <g transform="translate(44.888365 617.949971)scale(0.2 -0.2)">
       <use xlink:href="#DejaVuSans-8722"/>
       <use x="83.789062" xlink:href="#DejaVuSans-56"/>
       <use x="147.412109" xlink:href="#DejaVuSans-48"/>
      </g>
     </g>
    </g>
    <g id="ytick_5">
     <g id="line2d_10">
      <g>
       <use style="stroke:#000000;stroke-width:0.8;" x="94.09774" xlink:href="#m06b6f0a08a" y="507.052827"/>
      </g>
     </g>
     <g id="text_11">
      <!-- −60 -->
      <g transform="translate(44.888365 514.651265)scale(0.2 -0.2)">
       <use xlink:href="#DejaVuSans-8722"/>
       <use x="83.789062" xlink:href="#DejaVuSans-54"/>
       <use x="147.412109" xlink:href="#DejaVuSans-48"/>
      </g>
     </g>
    </g>
    <g id="ytick_6">
     <g id="line2d_11">
      <g>
       <use style="stroke:#000000;stroke-width:0.8;" x="94.09774" xlink:href="#m06b6f0a08a" y="403.754121"/>
      </g>
     </g>
     <g id="text_12">
      <!-- −40 -->
      <g transform="translate(44.888365 411.352559)scale(0.2 -0.2)">
       <use xlink:href="#DejaVuSans-8722"/>
       <use x="83.789062" xlink:href="#DejaVuSans-52"/>
       <use x="147.412109" xlink:href="#DejaVuSans-48"/>
      </g>
     </g>
    </g>
    <g id="ytick_7">
     <g id="line2d_12">
      <g>
       <use style="stroke:#000000;stroke-width:0.8;" x="94.09774" xlink:href="#m06b6f0a08a" y="300.455415"/>
      </g>
     </g>
     <g id="text_13">
      <!-- −20 -->
      <g transform="translate(44.888365 308.053852)scale(0.2 -0.2)">
       <use xlink:href="#DejaVuSans-8722"/>
       <use x="83.789062" xlink:href="#DejaVuSans-50"/>
       <use x="147.412109" xlink:href="#DejaVuSans-48"/>
      </g>
     </g>
    </g>
    <g id="ytick_8">
     <g id="line2d_13">
      <g>
       <use style="stroke:#000000;stroke-width:0.8;" x="94.09774" xlink:href="#m06b6f0a08a" y="197.156708"/>
      </g>
     </g>
     <g id="text_14">
      <!-- 0 -->
      <g transform="translate(74.37274 204.755146)scale(0.2 -0.2)">
       <use xlink:href="#DejaVuSans-48"/>
      </g>
     </g>
    </g>
    <g id="text_15">
     <!-- Length [m] -->
     <defs>
      <path d="M 9.8125 72.90625 
L 19.671875 72.90625 
L 19.671875 8.296875 
L 55.171875 8.296875 
L 55.171875 0 
L 9.8125 0 
z
" id="DejaVuSans-76"/>
      <path d="M 54.890625 33.015625 
L 54.890625 0 
L 45.90625 0 
L 45.90625 32.71875 
Q 45.90625 40.484375 42.875 44.328125 
Q 39.84375 48.1875 33.796875 48.1875 
Q 26.515625 48.1875 22.3125 43.546875 
Q 18.109375 38.921875 18.109375 30.90625 
L 18.109375 0 
L 9.078125 0 
L 9.078125 54.6875 
L 18.109375 54.6875 
L 18.109375 46.1875 
Q 21.34375 51.125 25.703125 53.5625 
Q 30.078125 56 35.796875 56 
Q 45.21875 56 50.046875 50.171875 
Q 54.890625 44.34375 54.890625 33.015625 
z
" id="DejaVuSans-110"/>
      <path d="M 45.40625 27.984375 
Q 45.40625 37.75 41.375 43.109375 
Q 37.359375 48.484375 30.078125 48.484375 
Q 22.859375 48.484375 18.828125 43.109375 
Q 14.796875 37.75 14.796875 27.984375 
Q 14.796875 18.265625 18.828125 12.890625 
Q 22.859375 7.515625 30.078125 7.515625 
Q 37.359375 7.515625 41.375 12.890625 
Q 45.40625 18.265625 45.40625 27.984375 
z
M 54.390625 6.78125 
Q 54.390625 -7.171875 48.1875 -13.984375 
Q 42 -20.796875 29.203125 -20.796875 
Q 24.46875 -20.796875 20.265625 -20.09375 
Q 16.0625 -19.390625 12.109375 -17.921875 
L 12.109375 -9.1875 
Q 16.0625 -11.328125 19.921875 -12.34375 
Q 23.78125 -13.375 27.78125 -13.375 
Q 36.625 -13.375 41.015625 -8.765625 
Q 45.40625 -4.15625 45.40625 5.171875 
L 45.40625 9.625 
Q 42.625 4.78125 38.28125 2.390625 
Q 33.9375 0 27.875 0 
Q 17.828125 0 11.671875 7.65625 
Q 5.515625 15.328125 5.515625 27.984375 
Q 5.515625 40.671875 11.671875 48.328125 
Q 17.828125 56 27.875 56 
Q 33.9375 56 38.28125 53.609375 
Q 42.625 51.21875 45.40625 46.390625 
L 45.40625 54.6875 
L 54.390625 54.6875 
z
" id="DejaVuSans-103"/>
      <path d="M 18.3125 70.21875 
L 18.3125 54.6875 
L 36.8125 54.6875 
L 36.8125 47.703125 
L 18.3125 47.703125 
L 18.3125 18.015625 
Q 18.3125 11.328125 20.140625 9.421875 
Q 21.96875 7.515625 27.59375 7.515625 
L 36.8125 7.515625 
L 36.8125 0 
L 27.59375 0 
Q 17.1875 0 13.234375 3.875 
Q 9.28125 7.765625 9.28125 18.015625 
L 9.28125 47.703125 
L 2.6875 47.703125 
L 2.6875 54.6875 
L 9.28125 54.6875 
L 9.28125 70.21875 
z
" id="DejaVuSans-116"/>
      <path d="M 54.890625 33.015625 
L 54.890625 0 
L 45.90625 0 
L 45.90625 32.71875 
Q 45.90625 40.484375 42.875 44.328125 
Q 39.84375 48.1875 33.796875 48.1875 
Q 26.515625 48.1875 22.3125 43.546875 
Q 18.109375 38.921875 18.109375 30.90625 
L 18.109375 0 
L 9.078125 0 
L 9.078125 75.984375 
L 18.109375 75.984375 
L 18.109375 46.1875 
Q 21.34375 51.125 25.703125 53.5625 
Q 30.078125 56 35.796875 56 
Q 45.21875 56 50.046875 50.171875 
Q 54.890625 44.34375 54.890625 33.015625 
z
" id="DejaVuSans-104"/>
     </defs>
     <g transform="translate(22.756178 661.697574)rotate(-90)scale(0.26 -0.26)">
      <use xlink:href="#DejaVuSans-76"/>
      <use x="55.697266" xlink:href="#DejaVuSans-101"/>
      <use x="117.220703" xlink:href="#DejaVuSans-110"/>
      <use x="180.599609" xlink:href="#DejaVuSans-103"/>
      <use x="244.076172" xlink:href="#DejaVuSans-116"/>
      <use x="283.285156" xlink:href="#DejaVuSans-104"/>
      <use x="346.664062" xlink:href="#DejaVuSans-32"/>
      <use x="378.451172" xlink:href="#DejaVuSans-91"/>
      <use x="417.464844" xlink:href="#DejaVuSans-109"/>
      <use x="514.876953" xlink:href="#DejaVuSans-93"/>
     </g>
    </g>
   </g>
   <g id="line2d_14">
    <path clip-path="url(#p9bf91519be)" d="M 220.593286 199.408138 
L 221.459907 199.011882 
L 223.190124 198.692553 
L 227.522961 197.886223 
L 228.387383 197.156708 
L 230.985028 197.156708 
L 232.718308 982.226877 
L 233.584585 982.226877 
L 234.450488 836.059599 
L 235.319276 197.156708 
L 238.780434 197.156708 
L 239.64797 717.365006 
L 240.512475 982.226877 
L 243.111765 982.226877 
L 243.977833 772.000731 
L 244.848997 197.156708 
L 248.307474 197.156708 
L 249.174787 377.931866 
L 250.040322 982.226877 
L 251.771981 982.226877 
L 252.637846 555.429008 
L 253.507415 197.156708 
L 256.967919 197.156708 
L 257.835994 669.732225 
L 258.702221 982.226877 
L 260.434059 982.226877 
L 261.3004 197.156708 
L 265.630905 197.156708 
L 266.495893 982.226877 
L 268.227647 982.226877 
L 269.094313 657.118126 
L 269.960794 197.156708 
L 273.424379 197.156708 
L 274.296318 725.706828 
L 275.157964 982.226877 
L 276.023936 982.226877 
L 276.889687 917.079266 
L 277.756257 197.156708 
L 281.219677 197.156708 
L 282.085586 512.11008 
L 282.952506 982.226877 
L 284.68637 982.226877 
L 285.552139 197.156708 
L 289.014124 197.156708 
L 289.882123 462.989441 
L 290.746495 982.226877 
L 291.613872 982.226877 
L 292.480657 956.286199 
L 293.347736 197.156708 
L 296.810972 197.156708 
L 298.545357 982.226877 
L 299.409169 982.226877 
L 300.27518 795.7292 
L 301.141871 197.156708 
L 304.6047 197.156708 
L 305.472211 784.691667 
L 306.337002 982.226877 
L 307.204378 982.226877 
L 308.069474 496.707654 
L 308.937588 197.156708 
L 311.532857 197.156708 
L 312.401466 231.282205 
L 313.266073 982.226877 
L 314.132077 982.226877 
L 314.998723 917.196337 
L 315.865693 197.156708 
L 319.328517 197.156708 
L 320.19651 708.07324 
L 321.06212 982.226877 
L 321.927991 982.226877 
L 322.793926 428.514989 
L 323.662351 197.156708 
L 326.261381 197.156708 
L 327.127284 416.560696 
L 327.990315 982.226877 
L 328.855855 982.226877 
L 329.723696 653.124456 
L 330.590323 197.156708 
L 333.187815 197.156708 
L 334.053254 226.726454 
L 334.921419 972.672501 
L 335.785733 982.226877 
L 336.653542 754.039254 
L 337.516961 197.156708 
L 340.982351 197.156708 
L 341.849067 905.211443 
L 342.714455 982.226877 
L 343.58037 765.207632 
L 344.447258 197.156708 
L 347.910424 197.156708 
L 348.778513 897.47399 
L 349.643526 982.226877 
L 350.5092 703.849681 
L 351.373927 197.156708 
L 353.977043 197.156708 
L 354.839426 280.084302 
L 355.704553 937.17125 
L 356.573449 982.226877 
L 358.302871 197.156708 
L 360.901952 197.156708 
L 361.767779 459.972795 
L 362.635295 982.226877 
L 363.501452 946.007154 
L 364.368772 359.436264 
L 365.232057 197.156708 
L 367.832218 197.156708 
L 368.698 674.719816 
L 369.563909 982.226877 
L 370.431044 765.233014 
L 371.295962 197.156708 
L 373.894694 197.156708 
L 374.761232 264.143716 
L 375.627776 865.828785 
L 376.492434 948.272785 
L 377.360846 480.605032 
L 378.22673 197.156708 
L 380.825271 197.156708 
L 382.554808 954.484716 
L 383.423163 747.218411 
L 384.288259 197.156708 
L 386.886806 197.156708 
L 387.754183 306.341484 
L 388.618726 843.124572 
L 389.483536 875.961806 
L 390.350519 403.419856 
L 391.218169 197.156708 
L 393.814981 197.156708 
L 394.681488 672.146504 
L 395.546399 900.420246 
L 396.414005 604.489095 
L 397.281261 197.156708 
L 399.87639 197.156708 
L 400.743423 490.162077 
L 401.610895 859.808003 
L 402.475375 722.050272 
L 403.342536 197.156708 
L 405.940975 197.156708 
L 406.805956 327.017893 
L 407.672838 785.088142 
L 408.540672 776.545134 
L 409.405298 324.928602 
L 410.271474 197.156708 
L 412.869538 197.156708 
L 413.736095 701.036482 
L 414.602703 789.368196 
L 415.469279 425.485143 
L 416.333441 197.156708 
L 418.933939 197.156708 
L 419.797942 622.506466 
L 420.663539 778.140183 
L 422.39701 197.156708 
L 424.994356 197.156708 
L 425.861567 556.009621 
L 426.727426 754.321729 
L 427.59221 516.025841 
L 428.460324 197.156708 
L 431.057639 197.156708 
L 431.923579 500.369492 
L 432.79285 724.107906 
L 433.655626 527.670474 
L 434.520818 197.156708 
L 437.122605 197.156708 
L 438.854919 690.223324 
L 439.718896 531.408188 
L 440.585263 197.156708 
L 443.183702 197.156708 
L 444.048747 399.266438 
L 444.915895 653.607185 
L 445.78866 528.140673 
L 446.647802 197.156708 
L 449.24647 197.156708 
L 450.111947 354.904321 
L 450.978828 615.077307 
L 451.845614 518.666377 
L 452.710558 197.156708 
L 455.307789 197.156708 
L 456.176094 315.597123 
L 457.043592 575.555734 
L 457.907175 503.778906 
L 458.775137 197.156708 
L 461.371962 197.156708 
L 462.237261 281.667013 
L 463.102922 535.780677 
L 463.970363 483.704176 
L 464.834607 197.156708 
L 467.434812 197.156708 
L 468.299152 253.880174 
L 469.168028 496.710865 
L 470.032368 458.555212 
L 470.902801 197.156708 
L 473.497136 197.156708 
L 474.363941 232.606665 
L 475.229875 458.888179 
L 476.094253 428.777807 
L 476.961814 197.156708 
L 479.562591 197.156708 
L 480.425597 217.999237 
L 481.292681 426.065935 
L 482.158699 399.237658 
L 483.025287 197.156708 
L 485.621986 197.156708 
L 486.48954 209.728105 
L 487.354579 399.222017 
L 488.220806 371.568654 
L 489.087693 197.156708 
L 491.685599 197.156708 
L 492.550332 206.651303 
L 493.418186 376.19263 
L 494.28318 343.987406 
L 495.149566 197.156708 
L 497.7477 197.156708 
L 498.614473 207.239973 
L 499.481087 354.323522 
L 500.349163 314.356016 
L 501.213337 197.156708 
L 503.81144 197.156708 
L 504.676764 209.056035 
L 505.542705 331.512299 
L 506.409072 282.338547 
L 507.276004 197.156708 
L 509.874348 197.156708 
L 510.738535 210.837423 
L 511.605442 307.04285 
L 512.471948 248.306953 
L 513.337978 197.156708 
L 515.936938 197.156708 
L 516.80516 211.360166 
L 517.667409 280.245484 
L 518.536749 212.482185 
L 519.40323 197.156708 
L 522.002463 197.156708 
L 522.866492 209.163183 
L 523.73174 250.439099 
L 524.596626 197.156708 
L 528.0618 197.156708 
L 528.927983 202.288901 
L 529.794406 217.311103 
L 530.662711 197.156708 
L 1033.005337 197.156708 
L 1033.870604 219.306913 
L 1034.738731 749.643143 
L 1035.605466 698.525175 
L 1036.471102 796.709178 
L 1037.337462 982.226877 
L 1038.201828 715.386409 
L 1039.06895 197.156708 
L 1044.265155 197.156708 
L 1045.13121 857.118978 
L 1045.99961 982.226877 
L 1047.729179 982.226877 
L 1048.594815 239.541606 
L 1049.462948 197.156708 
L 1052.926915 197.156708 
L 1053.791508 982.226877 
L 1055.523956 982.226877 
L 1056.394274 818.854751 
L 1057.25768 197.156708 
L 1060.721202 197.156708 
L 1061.587467 805.463222 
L 1062.452366 982.226877 
L 1064.185677 982.226877 
L 1065.051961 197.156708 
L 1068.51549 197.156708 
L 1069.381361 544.421086 
L 1070.249373 982.226877 
L 1071.978917 982.226877 
L 1072.846484 227.251343 
L 1073.712984 197.156708 
L 1076.310102 197.156708 
L 1077.176684 468.375783 
L 1078.04565 982.226877 
L 1079.777176 982.226877 
L 1080.641973 210.01378 
L 1081.507208 197.156708 
L 1084.106607 197.156708 
L 1084.977853 565.472874 
L 1085.83772 982.226877 
L 1087.570307 982.226877 
L 1088.437341 197.156708 
L 1091.900227 197.156708 
L 1092.767763 797.810841 
L 1093.632535 982.226877 
L 1094.501576 982.226877 
L 1095.365351 701.398889 
L 1096.230726 197.156708 
L 1098.830086 197.156708 
L 1099.694604 212.589919 
L 1100.562686 982.226877 
L 1102.29568 982.226877 
L 1103.158933 228.144419 
L 1104.027288 197.156708 
L 1106.624819 197.156708 
L 1107.490861 731.233605 
L 1108.357825 982.226877 
L 1109.223569 982.226877 
L 1110.955737 197.156708 
L 1113.55551 197.156708 
L 1114.420631 441.301378 
L 1115.286318 982.226877 
L 1116.151611 982.226877 
L 1117.017387 786.516038 
L 1117.886117 197.156708 
L 1120.483577 197.156708 
L 1121.348336 269.815994 
L 1122.217244 982.226877 
L 1123.08079 982.226877 
L 1123.948859 856.400085 
L 1124.813015 197.156708 
L 1127.411994 197.156708 
L 1128.277471 219.901624 
L 1129.145032 982.226877 
L 1130.010535 982.226877 
L 1130.876437 834.73373 
L 1131.742944 197.156708 
L 1134.339134 197.156708 
L 1135.20604 278.684649 
L 1136.072655 982.226877 
L 1136.93829 982.226877 
L 1137.804568 732.765137 
L 1138.670534 197.156708 
L 1141.268592 197.156708 
L 1142.13534 429.199051 
L 1143.001777 982.226877 
L 1143.868474 982.226877 
L 1144.735634 545.951967 
L 1145.601963 197.156708 
L 1148.198038 197.156708 
L 1149.064221 642.112014 
L 1149.930543 982.226877 
L 1150.798847 942.517135 
L 1151.662126 269.689978 
L 1152.53085 197.156708 
L 1155.125584 197.156708 
L 1155.992669 862.908264 
L 1156.858909 982.226877 
L 1157.726648 679.626897 
L 1158.591705 197.156708 
L 1161.190151 197.156708 
L 1162.056308 532.361498 
L 1162.923418 982.226877 
L 1163.788253 908.687144 
L 1164.654797 294.281124 
L 1165.522333 197.156708 
L 1167.251489 197.156708 
L 1168.118898 213.949256 
L 1168.984197 845.398622 
L 1169.851656 982.226877 
L 1171.584301 197.156708 
L 1174.180783 197.156708 
L 1175.048172 646.55304 
L 1175.91302 974.087501 
L 1176.779355 739.294416 
L 1177.646147 197.156708 
L 1180.243659 197.156708 
L 1181.110101 451.41995 
L 1181.97718 903.456608 
L 1182.841793 836.882362 
L 1183.708598 297.266021 
L 1184.574831 197.156708 
L 1186.306331 197.156708 
L 1187.17414 274.850776 
L 1188.039134 804.455134 
L 1188.906041 875.595095 
L 1189.772605 451.460482 
L 1190.637999 197.156708 
L 1193.236616 197.156708 
L 1194.101845 689.043501 
L 1194.970506 872.933399 
L 1195.834801 565.380944 
L 1196.700723 197.156708 
L 1199.299085 197.156708 
L 1200.164543 559.229172 
L 1201.03011 839.145876 
L 1201.89734 650.263711 
L 1202.763218 197.156708 
L 1205.363893 197.156708 
L 1206.227413 422.32157 
L 1207.095286 779.696251 
L 1207.959848 704.396607 
L 1208.825712 249.448708 
L 1209.692848 197.156708 
L 1211.424418 197.156708 
L 1212.29102 286.229009 
L 1213.155703 699.255872 
L 1214.023143 727.513985 
L 1214.888004 364.023408 
L 1215.756461 197.156708 
L 1218.352606 197.156708 
L 1219.221031 601.579474 
L 1220.087271 720.915858 
L 1221.817793 197.156708 
L 1224.416365 197.156708 
L 1225.281862 492.752356 
L 1226.149658 688.158038 
L 1227.015211 519.637117 
L 1227.880409 197.156708 
L 1230.478327 197.156708 
L 1231.345379 380.216546 
L 1232.211009 634.458378 
L 1233.079307 556.510711 
L 1233.944702 203.240988 
L 1234.810649 197.156708 
L 1236.54133 197.156708 
L 1237.408097 271.01063 
L 1238.273561 564.470548 
L 1239.140595 566.596388 
L 1240.005678 290.713087 
L 1240.87444 197.156708 
L 1243.46953 197.156708 
L 1244.336456 481.264252 
L 1245.205402 551.120167 
L 1246.069088 354.908061 
L 1246.936674 197.156708 
L 1249.535704 197.156708 
L 1250.399281 391.368572 
L 1251.264879 514.534113 
L 1252.132072 393.864613 
L 1252.997091 197.156708 
L 1255.597208 197.156708 
L 1256.464597 302.97386 
L 1257.33158 462.236576 
L 1258.194115 406.533382 
L 1259.059078 197.156708 
L 1261.659067 197.156708 
L 1262.524462 223.120605 
L 1263.391229 398.102283 
L 1264.258523 395.16946 
L 1265.121935 234.902401 
L 1265.988352 197.156708 
L 1268.58946 197.156708 
L 1269.455871 327.797326 
L 1270.320865 364.079167 
L 1271.188655 262.184461 
L 1272.056445 197.156708 
L 1274.649858 197.156708 
L 1276.386804 319.224738 
L 1277.248704 264.483566 
L 1278.114727 197.156708 
L 1280.714189 197.156708 
L 1281.578974 202.250104 
L 1282.444743 264.828896 
L 1283.311643 245.389062 
L 1284.177953 197.156708 
L 1287.641386 197.156708 
L 1288.508839 210.491371 
L 1289.374634 211.353372 
L 1290.241388 197.156708 
L 1841.086063 197.156708 
L 1841.958841 778.755402 
L 1842.819679 982.226877 
L 1843.685182 982.226877 
L 1844.551568 855.421125 
L 1845.418061 197.156708 
L 1848.015592 197.156708 
L 1848.883674 501.996804 
L 1849.748471 982.226877 
L 1852.349115 982.226877 
L 1853.213194 197.156708 
L 1857.543343 197.156708 
L 1858.414615 362.581801 
L 1859.27588 982.226877 
L 1861.875183 982.226877 
L 1862.740882 197.156708 
L 1867.07262 197.156708 
L 1867.936896 694.185715 
L 1868.802443 982.226877 
L 1870.53489 982.226877 
L 1871.401574 741.922501 
L 1872.267032 197.156708 
L 1876.597804 197.156708 
L 1877.463745 982.226877 
L 1880.063569 982.226877 
L 1880.927407 197.156708 
L 1885.260778 197.156708 
L 1886.126229 916.375891 
L 1886.991319 982.226877 
L 1888.722731 982.226877 
L 1889.590133 198.607369 
L 1890.45526 197.156708 
L 1893.920701 197.156708 
L 1894.788358 831.48938 
L 1895.652952 982.226877 
L 1897.384757 982.226877 
L 1898.250882 197.156708 
L 1902.581038 197.156708 
L 1903.4483 951.696939 
L 1904.314133 982.226877 
L 1906.046797 982.226877 
L 1906.915616 197.156708 
L 1910.376984 197.156708 
L 1911.242957 215.9078 
L 1912.109088 982.226877 
L 1913.842323 982.226877 
L 1915.575368 197.156708 
L 1919.038725 197.156708 
L 1919.903153 766.785762 
L 1920.771388 982.226877 
L 1921.635728 982.226877 
L 1922.502526 945.77582 
L 1923.367705 197.156708 
L 1926.834264 197.156708 
L 1927.698699 434.824416 
L 1928.565816 982.226877 
L 1930.300124 982.226877 
L 1931.16266 197.156708 
L 1934.628895 197.156708 
L 1935.495096 274.943992 
L 1936.358947 982.226877 
L 1938.092671 982.226877 
L 1938.959476 244.805004 
L 1939.823765 197.156708 
L 1942.423075 197.156708 
L 1943.288736 286.429318 
L 1944.155401 982.226877 
L 1945.886883 982.226877 
L 1946.753097 197.156708 
L 1950.219084 197.156708 
L 1951.08432 448.686173 
L 1951.948787 982.226877 
L 1952.817193 982.226877 
L 1953.681475 867.049657 
L 1954.547956 197.156708 
L 1958.011409 197.156708 
L 1958.879726 721.257303 
L 1959.744828 982.226877 
L 1960.611112 982.226877 
L 1961.477599 539.484195 
L 1962.343756 197.156708 
L 1964.944381 197.156708 
L 1965.809076 207.585876 
L 1966.67409 982.226877 
L 1967.539783 982.226877 
L 1968.406245 913.140304 
L 1969.272745 197.156708 
L 1972.736267 197.156708 
L 1973.602424 719.713789 
L 1974.469248 982.226877 
L 1975.33698 982.226877 
L 1976.200405 390.768833 
L 1977.067534 197.156708 
L 1979.666018 197.156708 
L 1980.532156 470.582289 
L 1981.398243 982.226877 
L 1982.264272 982.226877 
L 1983.99557 197.156708 
L 1986.593894 197.156708 
L 1987.463298 320.01817 
L 1988.325694 982.226877 
L 1989.191241 982.226877 
L 1990.059621 661.200868 
L 1990.926458 197.156708 
L 1993.522425 197.156708 
L 1994.393024 274.657716 
L 1995.255883 969.626413 
L 1996.121519 982.226877 
L 1996.988165 649.65617 
L 1997.853426 197.156708 
L 2000.450537 197.156708 
L 2001.321358 324.193361 
L 2002.184681 972.805191 
L 2003.049802 982.226877 
L 2003.915845 560.582154 
L 2004.783393 197.156708 
L 2007.379684 197.156708 
L 2008.247309 452.912488 
L 2009.114178 982.226877 
L 2009.979788 975.500793 
L 2010.851676 394.363345 
L 2011.710914 197.156708 
L 2014.310528 197.156708 
L 2015.175548 634.193384 
L 2016.041025 982.226877 
L 2016.909685 828.197434 
L 2017.774724 197.156708 
L 2021.239066 197.156708 
L 2022.104619 821.832507 
L 2022.971354 982.226877 
L 2024.706178 197.156708 
L 2027.30104 197.156708 
L 2028.167298 487.278565 
L 2029.034554 947.351728 
L 2029.901035 844.349582 
L 2030.766341 253.771388 
L 2031.6315 197.156708 
L 2034.230435 197.156708 
L 2035.096916 770.12599 
L 2035.963041 936.501603 
L 2037.695736 197.156708 
L 2040.292548 197.156708 
L 2042.024125 910.485425 
L 2042.891527 747.217607 
L 2043.757621 197.156708 
L 2046.356441 197.156708 
L 2047.222604 304.33586 
L 2048.088196 812.666241 
L 2048.955001 836.233065 
L 2049.821952 379.409343 
L 2050.687492 197.156708 
L 2053.285296 197.156708 
L 2054.15125 684.611973 
L 2055.017038 855.407502 
L 2056.749848 197.156708 
L 2059.348827 197.156708 
L 2060.215517 556.840734 
L 2061.079241 833.552157 
L 2061.945741 622.879854 
L 2062.812774 197.156708 
L 2065.411105 197.156708 
L 2066.276061 446.133633 
L 2067.142536 790.558366 
L 2068.008172 669.534678 
L 2068.876877 197.156708 
L 2071.475379 197.156708 
L 2072.340577 358.805551 
L 2073.207299 741.170686 
L 2074.074295 685.85914 
L 2074.939238 244.474304 
L 2075.803133 197.156708 
L 2077.535701 197.156708 
L 2078.404025 293.383057 
L 2079.266916 692.738899 
L 2080.133784 683.173678 
L 2080.999967 288.815147 
L 2081.867108 197.156708 
L 2083.597434 197.156708 
L 2084.464315 240.848107 
L 2085.332232 645.697294 
L 2086.197601 670.533711 
L 2087.063427 317.374658 
L 2087.931154 197.156708 
L 2090.527057 197.156708 
L 2091.394828 598.568388 
L 2092.259911 652.68881 
L 2093.126882 337.845149 
L 2093.994926 197.156708 
L 2096.591331 197.156708 
L 2097.456078 552.144414 
L 2098.322508 629.815154 
L 2099.195527 350.559898 
L 2100.054479 197.156708 
L 2102.653369 197.156708 
L 2103.51924 507.392975 
L 2104.384933 602.579244 
L 2105.254762 356.160603 
L 2106.118073 197.156708 
L 2108.716029 197.156708 
L 2109.584282 465.436552 
L 2110.447174 571.815974 
L 2111.314309 354.382051 
L 2112.179875 197.156708 
L 2114.778346 197.156708 
L 2115.644058 426.372266 
L 2116.511587 537.936816 
L 2117.376613 346.461729 
L 2118.242128 197.156708 
L 2120.842372 197.156708 
L 2121.707099 391.428545 
L 2122.574578 502.017596 
L 2123.439432 332.861718 
L 2124.305589 197.156708 
L 2126.90608 197.156708 
L 2127.772885 361.128423 
L 2128.636704 464.982724 
L 2129.502658 313.338535 
L 2130.369596 197.156708 
L 2132.968175 197.156708 
L 2133.833124 337.709735 
L 2134.699802 432.502851 
L 2135.565387 293.190533 
L 2136.432084 197.156708 
L 2139.031375 197.156708 
L 2139.896865 320.758688 
L 2140.766205 403.724731 
L 2141.629661 271.680493 
L 2142.494967 197.156708 
L 2145.095445 197.156708 
L 2145.957816 307.942254 
L 2146.826304 376.144872 
L 2147.692188 247.563063 
L 2148.55588 197.156708 
L 2151.156314 197.156708 
L 2152.021924 296.670675 
L 2152.887376 347.308072 
L 2153.755858 219.952096 
L 2154.620478 197.156708 
L 2157.217582 197.156708 
L 2158.085906 285.047936 
L 2158.950983 316.762551 
L 2159.818118 197.156708 
L 2163.281215 197.156708 
L 2164.148108 272.048576 
L 2165.013687 284.106189 
L 2165.881445 197.156708 
L 2169.344052 197.156708 
L 2170.210286 256.530103 
L 2171.075489 249.0707 
L 2171.942314 197.156708 
L 2175.406681 197.156708 
L 2176.274909 237.120985 
L 2177.140863 211.781717 
L 2178.005024 197.156708 
L 2181.468902 197.156708 
L 2182.336063 212.946899 
L 2183.200962 197.156708 
L 2639.644953 197.156708 
L 2640.507425 584.255469 
L 2641.374287 702.485233 
L 2642.240323 982.226877 
L 2643.106721 982.226877 
L 2643.973228 971.487581 
L 2644.839747 197.156708 
L 2649.171777 197.156708 
L 2650.036885 472.605117 
L 2650.901397 465.901323 
L 2651.768558 233.922956 
L 2652.63352 197.156708 
L 2655.23464 197.156708 
L 2656.10379 418.060177 
L 2656.966605 450.169159 
L 2657.82989 286.492815 
L 2658.697807 197.156708 
L 2661.294664 197.156708 
L 2662.16361 340.486604 
L 2663.029252 413.89056 
L 2663.896152 313.052673 
L 2664.762068 197.156708 
L 2667.362082 197.156708 
L 2668.224637 266.219192 
L 2669.091423 364.19536 
L 2669.956836 314.740298 
L 2670.821017 197.156708 
L 2673.421629 197.156708 
L 2674.288993 203.277351 
L 2675.152183 305.19413 
L 2676.020303 294.277667 
L 2676.887235 197.156708 
L 2680.351031 197.156708 
L 2681.219774 244.527197 
L 2682.081686 258.412078 
L 2682.948993 203.038633 
L 2683.814235 197.156708 
L 2687.277859 197.156708 
L 2688.146907 211.879955 
L 2689.010942 197.156708 
L 2750.504214 197.156708 
L 2750.504214 197.156708 
" style="fill:none;stroke:#008000;stroke-linecap:square;stroke-width:3;"/>
   </g>
   <g id="line2d_15">
    <path clip-path="url(#p9bf91519be)" d="M 220.593286 197.156708 
L 227.522961 197.156708 
L 228.387383 861.045248 
L 229.25755 982.226877 
L 230.119214 982.226877 
L 230.985028 495.85118 
L 231.852526 197.156708 
L 234.450488 197.156708 
L 235.319276 531.403169 
L 236.183145 982.226877 
L 238.780434 982.226877 
L 239.64797 197.156708 
L 243.977833 197.156708 
L 244.848997 917.019554 
L 245.709747 982.226877 
L 248.307474 982.226877 
L 249.174787 197.156708 
L 252.637846 197.156708 
L 253.507415 982.226877 
L 256.104176 982.226877 
L 256.967919 961.153059 
L 257.835994 197.156708 
L 260.434059 197.156708 
L 261.3004 255.997781 
L 262.165832 982.226877 
L 264.764792 982.226877 
L 265.630905 369.820572 
L 266.495893 197.156708 
L 269.094313 197.156708 
L 269.960794 925.056291 
L 270.831392 982.226877 
L 272.559302 982.226877 
L 273.424379 827.58906 
L 274.296318 197.156708 
L 276.889687 197.156708 
L 277.756257 555.053544 
L 278.621632 982.226877 
L 281.219677 982.226877 
L 282.085586 197.156708 
L 284.68637 197.156708 
L 285.552139 388.073892 
L 286.416911 982.226877 
L 289.014124 982.226877 
L 289.882123 197.156708 
L 292.480657 197.156708 
L 293.347736 418.317414 
L 294.211796 982.226877 
L 295.942794 982.226877 
L 296.810972 918.753832 
L 297.676366 197.156708 
L 300.27518 197.156708 
L 301.141871 621.039053 
L 302.007513 982.226877 
L 303.738613 982.226877 
L 304.6047 619.851219 
L 305.472211 197.156708 
L 308.069474 197.156708 
L 308.937588 949.092365 
L 309.80236 982.226877 
L 311.532857 982.226877 
L 312.401466 197.156708 
L 314.998723 197.156708 
L 315.865693 367.886401 
L 316.731177 982.226877 
L 318.463713 982.226877 
L 319.328517 660.603864 
L 320.19651 197.156708 
L 322.793926 197.156708 
L 323.662351 964.598967 
L 324.525217 982.226877 
L 325.392073 982.226877 
L 326.261381 966.431022 
L 327.127284 197.156708 
L 329.723696 197.156708 
L 330.590323 686.428002 
L 331.453348 982.226877 
L 333.187815 982.226877 
L 334.053254 197.156708 
L 336.653542 197.156708 
L 337.516961 519.558189 
L 338.384077 982.226877 
L 340.116137 982.226877 
L 340.982351 253.807195 
L 341.849067 197.156708 
L 343.58037 197.156708 
L 344.447258 471.17157 
L 345.314521 982.226877 
L 347.044674 982.226877 
L 347.910424 228.485602 
L 348.778513 197.156708 
L 350.5092 197.156708 
L 351.373927 530.022415 
L 352.240872 982.226877 
L 353.977043 982.226877 
L 354.839426 197.156708 
L 357.438341 197.156708 
L 358.302871 677.986323 
L 359.170973 982.226877 
L 360.039995 982.226877 
L 360.901952 796.286565 
L 361.767779 197.156708 
L 364.368772 197.156708 
L 365.232057 882.686175 
L 366.098995 982.226877 
L 366.966372 982.226877 
L 367.832218 497.93403 
L 368.698 197.156708 
L 370.431044 197.156708 
L 371.295962 337.574769 
L 372.164006 982.226877 
L 373.027622 982.226877 
L 373.894694 939.933053 
L 374.761232 197.156708 
L 377.360846 197.156708 
L 378.22673 705.190304 
L 379.092963 982.226877 
L 379.956845 982.226877 
L 380.825271 545.124516 
L 381.688911 197.156708 
L 383.423163 197.156708 
L 384.288259 296.227832 
L 385.155966 982.226877 
L 386.020522 982.226877 
L 386.886806 854.448301 
L 387.754183 197.156708 
L 390.350519 197.156708 
L 391.218169 739.03228 
L 392.082915 982.226877 
L 392.950851 982.226877 
L 393.814981 372.094978 
L 394.681488 197.156708 
L 396.414005 197.156708 
L 397.281261 458.909582 
L 398.1452 982.226877 
L 399.012183 982.226877 
L 400.743423 197.156708 
L 402.475375 197.156708 
L 403.342536 223.949052 
L 404.20685 898.663521 
L 405.075021 982.226877 
L 405.940975 760.389134 
L 406.805956 197.156708 
L 409.405298 197.156708 
L 410.271474 742.960046 
L 411.136951 982.226877 
L 412.002663 854.579896 
L 412.869538 198.242481 
L 413.736095 197.156708 
L 415.469279 197.156708 
L 417.199064 982.226877 
L 418.06686 902.229402 
L 418.933939 308.552102 
L 419.797942 197.156708 
L 421.532187 197.156708 
L 422.39701 501.879735 
L 423.262569 969.489246 
L 424.129565 919.273184 
L 424.994356 383.9937 
L 425.861567 197.156708 
L 427.59221 197.156708 
L 428.460324 426.152918 
L 429.326068 912.763916 
L 430.193737 918.050388 
L 431.057639 434.806914 
L 431.923579 197.156708 
L 433.655626 197.156708 
L 434.520818 372.515872 
L 435.389808 861.337885 
L 436.256213 908.577444 
L 437.122605 475.978307 
L 437.986106 197.156708 
L 439.718896 197.156708 
L 440.585263 327.443219 
L 441.450372 811.081487 
L 442.316331 891.983198 
L 443.183702 508.088618 
L 444.048747 197.156708 
L 445.78866 197.156708 
L 446.647802 290.529065 
L 447.513889 762.775048 
L 448.380567 869.326037 
L 450.111947 197.156708 
L 451.845614 197.156708 
L 452.710558 262.098469 
L 453.577242 717.415787 
L 454.444034 841.638597 
L 455.307789 545.044115 
L 456.176094 197.156708 
L 457.907175 197.156708 
L 458.775137 242.195381 
L 459.638873 675.932212 
L 460.50806 809.771533 
L 461.371962 550.492674 
L 462.237261 197.156708 
L 463.970363 197.156708 
L 464.834607 230.371609 
L 465.702378 638.72062 
L 466.568884 775.266419 
L 467.434812 547.623131 
L 468.299152 197.156708 
L 470.032368 197.156708 
L 470.902801 226.780149 
L 471.763996 607.248929 
L 472.631246 738.530861 
L 473.497136 536.521299 
L 474.363941 197.156708 
L 476.094253 197.156708 
L 476.961814 229.676595 
L 477.827101 579.226336 
L 478.694344 704.411146 
L 479.562591 521.539585 
L 480.425597 197.156708 
L 482.158699 197.156708 
L 483.025287 237.49426 
L 483.890942 556.501298 
L 484.756572 674.706634 
L 485.621986 504.153414 
L 486.48954 197.156708 
L 488.220806 197.156708 
L 489.087693 249.333693 
L 489.952446 542.750667 
L 490.818921 647.311069 
L 491.685599 483.483909 
L 492.550332 197.156708 
L 494.28318 197.156708 
L 495.149566 265.602113 
L 496.017355 534.54764 
L 496.886168 619.289709 
L 497.7477 458.797161 
L 498.614473 197.156708 
L 500.349163 197.156708 
L 501.213337 287.061333 
L 502.078344 527.135887 
L 502.945391 589.089963 
L 503.81144 431.187057 
L 504.676764 197.156708 
L 506.409072 197.156708 
L 507.276004 310.328906 
L 508.141036 518.840183 
L 509.006901 556.543824 
L 509.874348 401.634338 
L 510.738535 197.156708 
L 512.471948 197.156708 
L 513.337978 334.264959 
L 514.20437 508.524761 
L 515.070037 521.361712 
L 515.936938 371.042647 
L 516.80516 197.156708 
L 518.536749 197.156708 
L 519.40323 357.265478 
L 520.266769 494.520373 
L 521.136154 483.256929 
L 522.866492 197.156708 
L 523.73174 197.156708 
L 524.596626 222.118428 
L 525.463895 376.963246 
L 526.329525 474.901418 
L 527.196292 442.588938 
L 528.927983 197.156708 
L 529.794406 197.156708 
L 530.662711 263.847599 
L 531.525977 389.665519 
L 532.392877 448.314456 
L 533.259733 401.043767 
L 534.125325 290.1951 
L 534.990547 206.990064 
L 535.857784 214.550151 
L 537.589978 389.794753 
L 538.456713 415.052363 
L 539.321427 363.945592 
L 540.188169 279.960247 
L 541.055851 232.275905 
L 541.920038 251.62834 
L 543.653184 373.767713 
L 544.518585 379.785707 
L 545.382988 339.75296 
L 546.252303 287.01716 
L 547.119051 264.454569 
L 547.983371 280.40988 
L 548.849725 318.070794 
L 549.716753 346.434467 
L 550.582655 347.383359 
L 551.452021 329.498715 
L 552.31387 307.653638 
L 553.180377 299.223717 
L 554.045981 300.991817 
L 555.777526 312.843725 
L 556.645188 314.118814 
L 558.37735 314.275133 
L 570.502231 314.778989 
L 585.224879 315.152697 
L 605.148801 315.420908 
L 635.459502 315.586092 
L 697.82085 315.657427 
L 1033.005337 315.665206 
L 1033.870604 197.156708 
L 1038.201828 197.156708 
L 1039.06895 982.226877 
L 1043.40065 982.226877 
L 1044.265155 749.308723 
L 1045.13121 197.156708 
L 1048.594815 197.156708 
L 1049.462948 982.226877 
L 1052.060592 982.226877 
L 1052.926915 251.23114 
L 1053.791508 197.156708 
L 1056.394274 197.156708 
L 1057.25768 739.060941 
L 1058.121181 982.226877 
L 1059.859919 982.226877 
L 1060.721202 735.024822 
L 1061.587467 197.156708 
L 1064.185677 197.156708 
L 1065.051961 346.125764 
L 1065.91977 982.226877 
L 1067.649485 982.226877 
L 1068.51549 962.11198 
L 1069.381361 197.156708 
L 1072.846484 197.156708 
L 1073.712984 982.226877 
L 1076.310102 982.226877 
L 1077.176684 197.156708 
L 1080.641973 197.156708 
L 1081.507208 982.226877 
L 1083.241911 982.226877 
L 1084.106607 885.044705 
L 1084.977853 197.156708 
L 1087.570307 197.156708 
L 1088.437341 376.172701 
L 1089.301877 982.226877 
L 1091.035093 982.226877 
L 1091.900227 614.543987 
L 1092.767763 197.156708 
L 1095.365351 197.156708 
L 1096.230726 707.869881 
L 1097.098166 982.226877 
L 1098.830086 982.226877 
L 1099.694604 197.156708 
L 1103.158933 197.156708 
L 1104.027288 982.226877 
L 1105.759081 982.226877 
L 1106.624819 630.108941 
L 1107.490861 197.156708 
L 1110.089154 197.156708 
L 1110.955737 763.96492 
L 1111.821417 982.226877 
L 1112.688832 982.226877 
L 1113.55551 889.122501 
L 1114.420631 197.156708 
L 1117.017387 197.156708 
L 1117.886117 523.059108 
L 1118.749071 982.226877 
L 1120.483577 982.226877 
L 1121.348336 197.156708 
L 1123.948859 197.156708 
L 1124.813015 402.733892 
L 1125.679331 982.226877 
L 1127.411994 982.226877 
L 1128.277471 197.156708 
L 1130.876437 197.156708 
L 1131.742944 399.741611 
L 1132.607112 982.226877 
L 1133.474254 982.226877 
L 1134.339134 946.135469 
L 1135.20604 197.156708 
L 1137.804568 197.156708 
L 1138.670534 499.328477 
L 1139.539125 982.226877 
L 1140.402683 982.226877 
L 1141.268592 799.664963 
L 1142.13534 197.156708 
L 1144.735634 197.156708 
L 1145.601963 677.261055 
L 1146.465566 982.226877 
L 1147.334029 982.226877 
L 1148.198038 561.004357 
L 1149.064221 197.156708 
L 1151.662126 197.156708 
L 1152.53085 890.510903 
L 1153.395304 982.226877 
L 1154.260603 955.407981 
L 1155.125584 230.774566 
L 1155.992669 197.156708 
L 1157.726648 197.156708 
L 1158.591705 475.928793 
L 1159.458104 982.226877 
L 1160.323606 982.226877 
L 1161.190151 625.31414 
L 1162.056308 197.156708 
L 1164.654797 197.156708 
L 1165.522333 824.071106 
L 1166.386444 982.226877 
L 1167.251489 873.982259 
L 1168.118898 197.156708 
L 1170.717299 197.156708 
L 1171.584301 550.937627 
L 1172.449841 982.226877 
L 1173.315191 982.226877 
L 1174.180783 439.23078 
L 1175.048172 197.156708 
L 1176.779355 197.156708 
L 1177.646147 301.297667 
L 1178.512241 908.206861 
L 1179.378448 982.226877 
L 1180.243659 626.301979 
L 1181.110101 197.156708 
L 1183.708598 197.156708 
L 1184.574831 746.963651 
L 1185.441401 982.226877 
L 1186.306331 754.263508 
L 1187.17414 197.156708 
L 1189.772605 197.156708 
L 1191.504302 968.416676 
L 1192.370974 835.410403 
L 1193.236616 275.631738 
L 1194.101845 197.156708 
L 1195.834801 197.156708 
L 1196.700723 429.853072 
L 1197.565888 891.255864 
L 1198.437567 882.397643 
L 1199.299085 417.965187 
L 1200.164543 197.156708 
L 1201.89734 197.156708 
L 1202.763218 280.315437 
L 1203.631185 791.229981 
L 1204.496071 895.933369 
L 1206.227413 197.156708 
L 1208.825712 197.156708 
L 1209.692848 674.098895 
L 1210.5591 877.754291 
L 1211.424418 633.04936 
L 1212.29102 197.156708 
L 1214.888004 197.156708 
L 1215.756461 547.622779 
L 1216.621728 832.691386 
L 1217.486589 697.756987 
L 1218.352606 236.448505 
L 1219.221031 197.156708 
L 1220.952113 197.156708 
L 1221.817793 419.929343 
L 1222.682603 766.045638 
L 1223.54909 731.969101 
L 1224.416365 351.757736 
L 1225.281862 197.156708 
L 1227.015211 197.156708 
L 1227.880409 298.665643 
L 1228.74647 680.927309 
L 1229.612608 736.818536 
L 1230.478327 446.20138 
L 1231.345379 197.156708 
L 1233.944702 197.156708 
L 1234.810649 583.170143 
L 1235.675884 715.12213 
L 1236.54133 516.071692 
L 1237.408097 197.156708 
L 1240.005678 197.156708 
L 1240.87444 479.166276 
L 1241.738614 671.480235 
L 1242.603462 559.49123 
L 1243.46953 223.374881 
L 1244.336456 197.156708 
L 1246.069088 197.156708 
L 1246.936674 377.753391 
L 1247.80034 610.931286 
L 1248.665798 575.057261 
L 1249.535704 308.524144 
L 1250.399281 197.156708 
L 1252.132072 197.156708 
L 1252.997091 286.282107 
L 1253.86382 536.908307 
L 1254.730263 564.768475 
L 1256.464597 197.156708 
L 1258.194115 197.156708 
L 1259.059078 211.394942 
L 1259.926868 455.801362 
L 1260.792961 533.135035 
L 1261.659067 409.079903 
L 1262.524462 197.156708 
L 1265.121935 197.156708 
L 1265.988352 376.275545 
L 1266.855157 485.913048 
L 1267.721981 420.69127 
L 1268.58946 236.706447 
L 1269.455871 197.156708 
L 1271.188655 197.156708 
L 1272.919857 426.936174 
L 1273.78372 408.213444 
L 1274.649858 281.38362 
L 1275.517419 197.156708 
L 1277.248704 197.156708 
L 1278.114727 253.672554 
L 1278.98307 363.40516 
L 1279.847359 377.381013 
L 1280.714189 300.914964 
L 1281.578974 197.156708 
L 1283.311643 197.156708 
L 1284.177953 224.544431 
L 1285.046149 305.150103 
L 1285.909587 332.223635 
L 1286.775223 295.966389 
L 1287.641386 231.052997 
L 1288.508839 197.156708 
L 1289.374634 197.156708 
L 1290.241388 219.353762 
L 1291.107062 264.022146 
L 1291.971313 283.626742 
L 1292.838969 274.762421 
L 1294.571334 226.265983 
L 1295.436519 221.202399 
L 1296.305401 226.186037 
L 1297.169703 235.864002 
L 1298.035345 243.131118 
L 1298.902042 244.379257 
L 1301.499598 244.271929 
L 1311.897153 243.705478 
L 1333.546756 243.008575 
L 1375.121056 242.513954 
L 1417.565941 242.391494 
L 1434.017032 242.381176 
L 1448.738752 242.37298 
L 1697.313049 242.361849 
L 1712.903029 242.367246 
L 1836.757464 242.362253 
L 1837.62514 580.948655 
L 1838.489518 642.718059 
L 1839.355185 982.226877 
L 1840.223248 982.226877 
L 1841.086063 804.139105 
L 1841.958841 197.156708 
L 1844.551568 197.156708 
L 1845.418061 833.76988 
L 1846.286213 982.226877 
L 1848.015592 982.226877 
L 1848.883674 197.156708 
L 1852.349115 197.156708 
L 1853.213194 313.520357 
L 1854.082286 982.226877 
L 1857.543343 982.226877 
L 1858.414615 197.156708 
L 1861.875183 197.156708 
L 1862.740882 508.99902 
L 1863.607242 982.226877 
L 1867.07262 982.226877 
L 1867.936896 197.156708 
L 1871.401574 197.156708 
L 1872.267032 982.226877 
L 1875.733566 982.226877 
L 1876.597804 371.84942 
L 1877.463745 197.156708 
L 1880.063569 197.156708 
L 1880.927407 456.809016 
L 1881.794574 982.226877 
L 1884.393706 982.226877 
L 1885.260778 760.510163 
L 1886.126229 197.156708 
L 1889.590133 197.156708 
L 1890.45526 982.226877 
L 1893.055987 982.226877 
L 1893.920701 829.314221 
L 1894.788358 197.156708 
L 1897.384757 197.156708 
L 1898.250882 238.06266 
L 1899.11608 982.226877 
L 1901.716025 982.226877 
L 1902.581038 628.651103 
L 1903.4483 197.156708 
L 1906.046797 197.156708 
L 1906.915616 545.064941 
L 1907.777478 982.226877 
L 1910.376984 982.226877 
L 1911.242957 197.156708 
L 1914.705996 197.156708 
L 1915.575368 982.226877 
L 1918.17164 982.226877 
L 1919.038725 799.525953 
L 1919.903153 197.156708 
L 1922.502526 197.156708 
L 1923.367705 538.148027 
L 1924.234815 982.226877 
L 1926.834264 982.226877 
L 1927.698699 197.156708 
L 1930.300124 197.156708 
L 1931.16266 233.240191 
L 1932.029439 982.226877 
L 1934.628895 982.226877 
L 1935.495096 197.156708 
L 1938.959476 197.156708 
L 1939.823765 982.226877 
L 1942.423075 982.226877 
L 1943.288736 197.156708 
L 1945.886883 197.156708 
L 1946.753097 241.138181 
L 1947.619705 982.226877 
L 1950.219084 982.226877 
L 1951.08432 197.156708 
L 1953.681475 197.156708 
L 1954.547956 506.950628 
L 1955.414031 982.226877 
L 1957.147329 982.226877 
L 1958.011409 693.971473 
L 1958.879726 197.156708 
L 1961.477599 197.156708 
L 1962.343756 894.343777 
L 1963.208916 982.226877 
L 1964.944381 982.226877 
L 1965.809076 197.156708 
L 1968.406245 197.156708 
L 1969.272745 361.796878 
L 1970.138228 982.226877 
L 1971.870993 982.226877 
L 1972.736267 634.770441 
L 1973.602424 197.156708 
L 1976.200405 197.156708 
L 1977.067534 982.226877 
L 1978.79894 982.226877 
L 1979.666018 902.843302 
L 1980.532156 197.156708 
L 1983.13266 197.156708 
L 1983.99557 761.534812 
L 1984.86247 982.226877 
L 1986.593894 982.226877 
L 1987.463298 197.156708 
L 1990.059621 197.156708 
L 1990.926458 637.258234 
L 1991.791198 982.226877 
L 1993.522425 982.226877 
L 1994.393024 197.156708 
L 1996.988165 197.156708 
L 1997.853426 623.665115 
L 1998.720625 982.226877 
L 1999.586744 982.226877 
L 2000.450537 972.183048 
L 2001.321358 197.156708 
L 2003.915845 197.156708 
L 2004.783393 708.016148 
L 2005.650223 982.226877 
L 2006.514881 982.226877 
L 2007.379684 820.512329 
L 2008.247309 197.156708 
L 2010.851676 197.156708 
L 2011.710914 864.582736 
L 2012.577064 982.226877 
L 2013.446341 982.226877 
L 2015.175548 197.156708 
L 2016.909685 197.156708 
L 2017.774724 249.293641 
L 2018.640722 982.226877 
L 2020.371352 982.226877 
L 2021.239066 240.449062 
L 2022.104619 197.156708 
L 2023.836317 197.156708 
L 2025.570448 982.226877 
L 2026.435029 982.226877 
L 2027.30104 705.658334 
L 2028.167298 197.156708 
L 2030.766341 197.156708 
L 2031.6315 921.791285 
L 2032.499646 982.226877 
L 2033.363642 982.226877 
L 2034.230435 259.833319 
L 2035.096916 197.156708 
L 2036.828791 197.156708 
L 2038.561372 982.226877 
L 2039.426957 982.226877 
L 2041.160364 197.156708 
L 2042.891527 197.156708 
L 2043.757621 243.881567 
L 2044.622647 951.050934 
L 2045.491155 982.226877 
L 2046.356441 823.663433 
L 2047.222604 197.156708 
L 2049.821952 197.156708 
L 2050.687492 729.833294 
L 2051.5529 982.226877 
L 2052.42027 961.440747 
L 2053.285296 300.834087 
L 2054.15125 197.156708 
L 2055.883068 197.156708 
L 2056.749848 520.883091 
L 2057.615642 982.226877 
L 2058.481825 982.226877 
L 2059.348827 473.020881 
L 2060.215517 197.156708 
L 2061.945741 197.156708 
L 2062.812774 350.701812 
L 2063.679077 941.755093 
L 2064.54458 982.226877 
L 2066.276061 197.156708 
L 2068.008172 197.156708 
L 2068.876877 226.066082 
L 2069.740975 842.665803 
L 2070.607157 982.226877 
L 2071.475379 665.447115 
L 2072.340577 197.156708 
L 2074.939238 197.156708 
L 2075.803133 757.950905 
L 2076.669303 982.226877 
L 2077.535701 706.910967 
L 2078.404025 197.156708 
L 2080.999967 197.156708 
L 2081.867108 690.59193 
L 2082.733195 974.31722 
L 2083.597434 730.34092 
L 2084.464315 197.156708 
L 2087.063427 197.156708 
L 2087.931154 633.995583 
L 2088.796319 938.444676 
L 2089.662216 744.426038 
L 2090.527057 200.403698 
L 2091.394828 197.156708 
L 2093.126882 197.156708 
L 2093.994926 582.523554 
L 2094.858058 899.346718 
L 2095.724075 749.5612 
L 2096.591331 246.399532 
L 2097.456078 197.156708 
L 2099.195527 197.156708 
L 2100.921328 858.568014 
L 2101.786881 746.534656 
L 2102.653369 284.555249 
L 2103.51924 197.156708 
L 2105.254762 197.156708 
L 2106.983086 817.413691 
L 2107.850622 735.984304 
L 2108.716029 314.232765 
L 2109.584282 197.156708 
L 2111.314309 197.156708 
L 2112.179875 465.841915 
L 2113.046521 776.398153 
L 2113.915359 718.414034 
L 2114.778346 335.697667 
L 2115.644058 197.156708 
L 2117.376613 197.156708 
L 2118.242128 441.18511 
L 2119.108069 737.16435 
L 2119.974893 694.87241 
L 2120.842372 348.353909 
L 2121.707099 197.156708 
L 2123.439432 197.156708 
L 2124.305589 424.299593 
L 2125.17308 701.004421 
L 2126.038119 666.292553 
L 2126.90608 352.546379 
L 2127.772885 197.156708 
L 2129.502658 197.156708 
L 2130.369596 412.132241 
L 2131.234393 667.493019 
L 2132.100944 639.371395 
L 2132.968175 351.508597 
L 2133.833124 197.156708 
L 2135.565387 197.156708 
L 2136.432084 405.888876 
L 2137.299417 642.064795 
L 2138.164081 612.991204 
L 2139.031375 344.794187 
L 2139.896865 197.156708 
L 2141.629661 197.156708 
L 2143.3612 621.108572 
L 2144.227719 585.074678 
L 2145.095445 333.012795 
L 2145.957816 197.156708 
L 2147.692188 197.156708 
L 2148.55588 412.813506 
L 2149.423739 600.610663 
L 2150.289687 554.151389 
L 2151.156314 317.353069 
L 2152.021924 197.156708 
L 2153.755858 197.156708 
L 2154.620478 421.178779 
L 2155.485828 578.683094 
L 2156.352226 520.799027 
L 2157.217582 300.051196 
L 2158.085906 197.156708 
L 2158.950983 197.156708 
L 2159.818118 204.871357 
L 2160.68249 429.638799 
L 2161.549669 554.729979 
L 2162.414619 485.185243 
L 2163.281215 282.131529 
L 2164.148108 197.156708 
L 2165.013687 197.156708 
L 2165.881445 240.311923 
L 2166.744876 436.746308 
L 2167.612565 527.757135 
L 2168.479789 447.519317 
L 2169.344052 264.846469 
L 2170.210286 197.156708 
L 2171.075489 197.156708 
L 2171.942314 276.216381 
L 2172.807695 440.483385 
L 2173.674367 496.797802 
L 2174.540727 408.698544 
L 2175.406681 250.236699 
L 2176.274909 197.156708 
L 2177.140863 197.156708 
L 2178.872363 438.079567 
L 2179.737961 461.280635 
L 2180.601938 370.598865 
L 2181.468902 241.099278 
L 2182.336063 197.156708 
L 2183.200962 224.475139 
L 2184.067932 337.820027 
L 2184.933968 426.264603 
L 2185.799674 421.996218 
L 2186.666752 337.084001 
L 2187.5308 241.200779 
L 2188.398062 211.935867 
L 2189.266017 262.94136 
L 2190.130351 350.506736 
L 2190.996107 402.458922 
L 2191.863478 384.202039 
L 2193.596872 255.242741 
L 2194.462019 247.232224 
L 2195.326898 288.998533 
L 2196.193608 345.620401 
L 2197.061722 370.912226 
L 2197.925573 354.124032 
L 2198.791793 312.970145 
L 2199.657302 281.311774 
L 2200.523942 280.164846 
L 2201.390817 301.021705 
L 2202.25541 326.541745 
L 2203.122825 336.39901 
L 2203.988125 332.863316 
L 2204.855063 322.732312 
L 2205.722878 314.334734 
L 2206.587104 312.784565 
L 2208.320459 312.885837 
L 2216.116393 313.586662 
L 2225.6422 314.206879 
L 2236.90116 314.705856 
L 2250.757746 315.092241 
L 2269.813909 315.383149 
L 2298.395576 315.567786 
L 2352.95923 315.652405 
L 2617.12338 315.665205 
L 2639.644953 315.665206 
L 2640.507425 197.156708 
L 2643.973228 197.156708 
L 2644.839747 982.226877 
L 2647.437341 982.226877 
L 2648.305671 695.319756 
L 2649.171777 211.374352 
L 2650.036885 197.156708 
L 2651.768558 197.156708 
L 2652.63352 451.12943 
L 2653.501755 578.730617 
L 2654.368363 469.938306 
L 2655.23464 203.005134 
L 2656.10379 197.156708 
L 2657.82989 197.156708 
L 2659.562127 524.115898 
L 2660.429803 478.101993 
L 2661.294664 272.271473 
L 2662.16361 197.156708 
L 2663.896152 197.156708 
L 2664.762068 289.441437 
L 2665.626477 458.111263 
L 2666.493473 462.280738 
L 2667.362082 319.098729 
L 2668.224637 197.156708 
L 2669.956836 197.156708 
L 2670.821017 232.51208 
L 2671.689633 388.376208 
L 2672.55396 428.254172 
L 2673.421629 340.488062 
L 2674.288993 197.156708 
L 2676.020303 197.156708 
L 2676.887235 198.949844 
L 2677.751562 323.609921 
L 2678.617802 380.042944 
L 2679.483069 336.762624 
L 2680.351031 236.750955 
L 2681.219774 197.156708 
L 2682.948993 197.156708 
L 2683.814235 273.535925 
L 2684.680055 324.972727 
L 2685.545018 313.790928 
L 2687.277859 201.122954 
L 2688.146907 197.156708 
L 2689.010942 203.619257 
L 2689.876883 246.60465 
L 2690.743459 276.589277 
L 2691.60959 277.968053 
L 2692.475817 259.570963 
L 2693.342025 235.890183 
L 2694.208328 224.909033 
L 2695.076251 225.672622 
L 2695.940508 231.524134 
L 2696.806151 238.160445 
L 2697.672238 240.857651 
L 2698.539913 241.085237 
L 2706.336755 241.382204 
L 2721.922744 241.779611 
L 2742.710396 242.06693 
L 2750.504214 242.140312 
L 2750.504214 242.140312 
" style="fill:none;stroke:#ff0000;stroke-linecap:square;stroke-width:3;"/>
   </g>
   <g id="patch_3">
    <path d="M 94.09774 1021.480385 
L 94.09774 157.9032 
" style="fill:none;stroke:#000000;stroke-linecap:square;stroke-linejoin:miter;stroke-width:0.8;"/>
   </g>
   <g id="patch_4">
    <path d="M 2876.99976 1021.480385 
L 2876.99976 157.9032 
" style="fill:none;stroke:#000000;stroke-linecap:square;stroke-linejoin:miter;stroke-width:0.8;"/>
   </g>
   <g id="patch_5">
    <path d="M 94.09774 1021.480385 
L 2876.99976 1021.480385 
" style="fill:none;stroke:#000000;stroke-linecap:square;stroke-linejoin:miter;stroke-width:0.8;"/>
   </g>
   <g id="patch_6">
    <path d="M 94.09774 157.9032 
L 2876.99976 157.9032 
" style="fill:none;stroke:#000000;stroke-linecap:square;stroke-linejoin:miter;stroke-width:0.8;"/>
   </g>
   <g id="text_16">
    <!-- Biceps (red) and Triceps (green) -->
    <defs>
     <path d="M 19.671875 34.8125 
L 19.671875 8.109375 
L 35.5 8.109375 
Q 43.453125 8.109375 47.28125 11.40625 
Q 51.125 14.703125 51.125 21.484375 
Q 51.125 28.328125 47.28125 31.5625 
Q 43.453125 34.8125 35.5 34.8125 
z
M 19.671875 64.796875 
L 19.671875 42.828125 
L 34.28125 42.828125 
Q 41.5 42.828125 45.03125 45.53125 
Q 48.578125 48.25 48.578125 53.8125 
Q 48.578125 59.328125 45.03125 62.0625 
Q 41.5 64.796875 34.28125 64.796875 
z
M 9.8125 72.90625 
L 35.015625 72.90625 
Q 46.296875 72.90625 52.390625 68.21875 
Q 58.5 63.53125 58.5 54.890625 
Q 58.5 48.1875 55.375 44.234375 
Q 52.25 40.28125 46.1875 39.3125 
Q 53.46875 37.75 57.5 32.78125 
Q 61.53125 27.828125 61.53125 20.40625 
Q 61.53125 10.640625 54.890625 5.3125 
Q 48.25 0 35.984375 0 
L 9.8125 0 
z
" id="DejaVuSans-66"/>
     <path d="M 48.78125 52.59375 
L 48.78125 44.1875 
Q 44.96875 46.296875 41.140625 47.34375 
Q 37.3125 48.390625 33.40625 48.390625 
Q 24.65625 48.390625 19.8125 42.84375 
Q 14.984375 37.3125 14.984375 27.296875 
Q 14.984375 17.28125 19.8125 11.734375 
Q 24.65625 6.203125 33.40625 6.203125 
Q 37.3125 6.203125 41.140625 7.25 
Q 44.96875 8.296875 48.78125 10.40625 
L 48.78125 2.09375 
Q 45.015625 0.34375 40.984375 -0.53125 
Q 36.96875 -1.421875 32.421875 -1.421875 
Q 20.0625 -1.421875 12.78125 6.34375 
Q 5.515625 14.109375 5.515625 27.296875 
Q 5.515625 40.671875 12.859375 48.328125 
Q 20.21875 56 33.015625 56 
Q 37.15625 56 41.109375 55.140625 
Q 45.0625 54.296875 48.78125 52.59375 
z
" id="DejaVuSans-99"/>
     <path d="M 18.109375 8.203125 
L 18.109375 -20.796875 
L 9.078125 -20.796875 
L 9.078125 54.6875 
L 18.109375 54.6875 
L 18.109375 46.390625 
Q 20.953125 51.265625 25.265625 53.625 
Q 29.59375 56 35.59375 56 
Q 45.5625 56 51.78125 48.09375 
Q 58.015625 40.1875 58.015625 27.296875 
Q 58.015625 14.40625 51.78125 6.484375 
Q 45.5625 -1.421875 35.59375 -1.421875 
Q 29.59375 -1.421875 25.265625 0.953125 
Q 20.953125 3.328125 18.109375 8.203125 
z
M 48.6875 27.296875 
Q 48.6875 37.203125 44.609375 42.84375 
Q 40.53125 48.484375 33.40625 48.484375 
Q 26.265625 48.484375 22.1875 42.84375 
Q 18.109375 37.203125 18.109375 27.296875 
Q 18.109375 17.390625 22.1875 11.75 
Q 26.265625 6.109375 33.40625 6.109375 
Q 40.53125 6.109375 44.609375 11.75 
Q 48.6875 17.390625 48.6875 27.296875 
z
" id="DejaVuSans-112"/>
     <path d="M 31 75.875 
Q 24.46875 64.65625 21.28125 53.65625 
Q 18.109375 42.671875 18.109375 31.390625 
Q 18.109375 20.125 21.3125 9.0625 
Q 24.515625 -2 31 -13.1875 
L 23.1875 -13.1875 
Q 15.875 -1.703125 12.234375 9.375 
Q 8.59375 20.453125 8.59375 31.390625 
Q 8.59375 42.28125 12.203125 53.3125 
Q 15.828125 64.359375 23.1875 75.875 
z
" id="DejaVuSans-40"/>
     <path d="M 41.109375 46.296875 
Q 39.59375 47.171875 37.8125 47.578125 
Q 36.03125 48 33.890625 48 
Q 26.265625 48 22.1875 43.046875 
Q 18.109375 38.09375 18.109375 28.8125 
L 18.109375 0 
L 9.078125 0 
L 9.078125 54.6875 
L 18.109375 54.6875 
L 18.109375 46.1875 
Q 20.953125 51.171875 25.484375 53.578125 
Q 30.03125 56 36.53125 56 
Q 37.453125 56 38.578125 55.875 
Q 39.703125 55.765625 41.0625 55.515625 
z
" id="DejaVuSans-114"/>
     <path d="M 45.40625 46.390625 
L 45.40625 75.984375 
L 54.390625 75.984375 
L 54.390625 0 
L 45.40625 0 
L 45.40625 8.203125 
Q 42.578125 3.328125 38.25 0.953125 
Q 33.9375 -1.421875 27.875 -1.421875 
Q 17.96875 -1.421875 11.734375 6.484375 
Q 5.515625 14.40625 5.515625 27.296875 
Q 5.515625 40.1875 11.734375 48.09375 
Q 17.96875 56 27.875 56 
Q 33.9375 56 38.25 53.625 
Q 42.578125 51.265625 45.40625 46.390625 
z
M 14.796875 27.296875 
Q 14.796875 17.390625 18.875 11.75 
Q 22.953125 6.109375 30.078125 6.109375 
Q 37.203125 6.109375 41.296875 11.75 
Q 45.40625 17.390625 45.40625 27.296875 
Q 45.40625 37.203125 41.296875 42.84375 
Q 37.203125 48.484375 30.078125 48.484375 
Q 22.953125 48.484375 18.875 42.84375 
Q 14.796875 37.203125 14.796875 27.296875 
z
" id="DejaVuSans-100"/>
     <path d="M 8.015625 75.875 
L 15.828125 75.875 
Q 23.140625 64.359375 26.78125 53.3125 
Q 30.421875 42.28125 30.421875 31.390625 
Q 30.421875 20.453125 26.78125 9.375 
Q 23.140625 -1.703125 15.828125 -13.1875 
L 8.015625 -13.1875 
Q 14.5 -2 17.703125 9.0625 
Q 20.90625 20.125 20.90625 31.390625 
Q 20.90625 42.671875 17.703125 53.65625 
Q 14.5 64.65625 8.015625 75.875 
z
" id="DejaVuSans-41"/>
     <path d="M 34.28125 27.484375 
Q 23.390625 27.484375 19.1875 25 
Q 14.984375 22.515625 14.984375 16.5 
Q 14.984375 11.71875 18.140625 8.90625 
Q 21.296875 6.109375 26.703125 6.109375 
Q 34.1875 6.109375 38.703125 11.40625 
Q 43.21875 16.703125 43.21875 25.484375 
L 43.21875 27.484375 
z
M 52.203125 31.203125 
L 52.203125 0 
L 43.21875 0 
L 43.21875 8.296875 
Q 40.140625 3.328125 35.546875 0.953125 
Q 30.953125 -1.421875 24.3125 -1.421875 
Q 15.921875 -1.421875 10.953125 3.296875 
Q 6 8.015625 6 15.921875 
Q 6 25.140625 12.171875 29.828125 
Q 18.359375 34.515625 30.609375 34.515625 
L 43.21875 34.515625 
L 43.21875 35.40625 
Q 43.21875 41.609375 39.140625 45 
Q 35.0625 48.390625 27.6875 48.390625 
Q 23 48.390625 18.546875 47.265625 
Q 14.109375 46.140625 10.015625 43.890625 
L 10.015625 52.203125 
Q 14.9375 54.109375 19.578125 55.046875 
Q 24.21875 56 28.609375 56 
Q 40.484375 56 46.34375 49.84375 
Q 52.203125 43.703125 52.203125 31.203125 
z
" id="DejaVuSans-97"/>
    </defs>
    <g transform="translate(1210.36125 150.832262)scale(0.34 -0.34)">
     <use xlink:href="#DejaVuSans-66"/>
     <use x="68.603516" xlink:href="#DejaVuSans-105"/>
     <use x="96.386719" xlink:href="#DejaVuSans-99"/>
     <use x="151.367188" xlink:href="#DejaVuSans-101"/>
     <use x="212.890625" xlink:href="#DejaVuSans-112"/>
     <use x="276.367188" xlink:href="#DejaVuSans-115"/>
     <use x="328.466797" xlink:href="#DejaVuSans-32"/>
     <use x="360.253906" xlink:href="#DejaVuSans-40"/>
     <use x="399.267578" xlink:href="#DejaVuSans-114"/>
     <use x="440.349609" xlink:href="#DejaVuSans-101"/>
     <use x="501.873047" xlink:href="#DejaVuSans-100"/>
     <use x="565.349609" xlink:href="#DejaVuSans-41"/>
     <use x="604.363281" xlink:href="#DejaVuSans-32"/>
     <use x="636.150391" xlink:href="#DejaVuSans-97"/>
     <use x="697.429688" xlink:href="#DejaVuSans-110"/>
     <use x="760.808594" xlink:href="#DejaVuSans-100"/>
     <use x="824.285156" xlink:href="#DejaVuSans-32"/>
     <use x="856.072266" xlink:href="#DejaVuSans-84"/>
     <use x="916.9375" xlink:href="#DejaVuSans-114"/>
     <use x="958.050781" xlink:href="#DejaVuSans-105"/>
     <use x="985.833984" xlink:href="#DejaVuSans-99"/>
     <use x="1040.814453" xlink:href="#DejaVuSans-101"/>
     <use x="1102.337891" xlink:href="#DejaVuSans-112"/>
     <use x="1165.814453" xlink:href="#DejaVuSans-115"/>
     <use x="1217.914062" xlink:href="#DejaVuSans-32"/>
     <use x="1249.701172" xlink:href="#DejaVuSans-40"/>
     <use x="1288.714844" xlink:href="#DejaVuSans-103"/>
     <use x="1352.191406" xlink:href="#DejaVuSans-114"/>
     <use x="1393.273438" xlink:href="#DejaVuSans-101"/>
     <use x="1454.796875" xlink:href="#DejaVuSans-101"/>
     <use x="1516.320312" xlink:href="#DejaVuSans-110"/>
     <use x="1579.699219" xlink:href="#DejaVuSans-41"/>
    </g>
   </g>
  </g>
  <g id="text_17">
   <!-- Forces - P80000 I0 D0 -->
   <defs>
    <path d="M 9.8125 72.90625 
L 51.703125 72.90625 
L 51.703125 64.59375 
L 19.671875 64.59375 
L 19.671875 43.109375 
L 48.578125 43.109375 
L 48.578125 34.8125 
L 19.671875 34.8125 
L 19.671875 0 
L 9.8125 0 
z
" id="DejaVuSans-70"/>
    <path d="M 30.609375 48.390625 
Q 23.390625 48.390625 19.1875 42.75 
Q 14.984375 37.109375 14.984375 27.296875 
Q 14.984375 17.484375 19.15625 11.84375 
Q 23.34375 6.203125 30.609375 6.203125 
Q 37.796875 6.203125 41.984375 11.859375 
Q 46.1875 17.53125 46.1875 27.296875 
Q 46.1875 37.015625 41.984375 42.703125 
Q 37.796875 48.390625 30.609375 48.390625 
z
M 30.609375 56 
Q 42.328125 56 49.015625 48.375 
Q 55.71875 40.765625 55.71875 27.296875 
Q 55.71875 13.875 49.015625 6.21875 
Q 42.328125 -1.421875 30.609375 -1.421875 
Q 18.84375 -1.421875 12.171875 6.21875 
Q 5.515625 13.875 5.515625 27.296875 
Q 5.515625 40.765625 12.171875 48.375 
Q 18.84375 56 30.609375 56 
z
" id="DejaVuSans-111"/>
    <path d="M 4.890625 31.390625 
L 31.203125 31.390625 
L 31.203125 23.390625 
L 4.890625 23.390625 
z
" id="DejaVuSans-45"/>
    <path d="M 19.671875 64.796875 
L 19.671875 37.40625 
L 32.078125 37.40625 
Q 38.96875 37.40625 42.71875 40.96875 
Q 46.484375 44.53125 46.484375 51.125 
Q 46.484375 57.671875 42.71875 61.234375 
Q 38.96875 64.796875 32.078125 64.796875 
z
M 9.8125 72.90625 
L 32.078125 72.90625 
Q 44.34375 72.90625 50.609375 67.359375 
Q 56.890625 61.8125 56.890625 51.125 
Q 56.890625 40.328125 50.609375 34.8125 
Q 44.34375 29.296875 32.078125 29.296875 
L 19.671875 29.296875 
L 19.671875 0 
L 9.8125 0 
z
" id="DejaVuSans-80"/>
    <path d="M 9.8125 72.90625 
L 19.671875 72.90625 
L 19.671875 0 
L 9.8125 0 
z
" id="DejaVuSans-73"/>
    <path d="M 19.671875 64.796875 
L 19.671875 8.109375 
L 31.59375 8.109375 
Q 46.6875 8.109375 53.6875 14.9375 
Q 60.6875 21.78125 60.6875 36.53125 
Q 60.6875 51.171875 53.6875 57.984375 
Q 46.6875 64.796875 31.59375 64.796875 
z
M 9.8125 72.90625 
L 30.078125 72.90625 
Q 51.265625 72.90625 61.171875 64.09375 
Q 71.09375 55.28125 71.09375 36.53125 
Q 71.09375 17.671875 61.125 8.828125 
Q 51.171875 0 30.078125 0 
L 9.8125 0 
z
" id="DejaVuSans-68"/>
   </defs>
   <g transform="translate(1252.367813 28.834927)scale(0.34 -0.34)">
    <use xlink:href="#DejaVuSans-70"/>
    <use x="57.472656" xlink:href="#DejaVuSans-111"/>
    <use x="118.654297" xlink:href="#DejaVuSans-114"/>
    <use x="159.736328" xlink:href="#DejaVuSans-99"/>
    <use x="214.716797" xlink:href="#DejaVuSans-101"/>
    <use x="276.240234" xlink:href="#DejaVuSans-115"/>
    <use x="328.339844" xlink:href="#DejaVuSans-32"/>
    <use x="360.126953" xlink:href="#DejaVuSans-45"/>
    <use x="396.210938" xlink:href="#DejaVuSans-32"/>
    <use x="427.998047" xlink:href="#DejaVuSans-80"/>
    <use x="488.300781" xlink:href="#DejaVuSans-56"/>
    <use x="551.923828" xlink:href="#DejaVuSans-48"/>
    <use x="615.546875" xlink:href="#DejaVuSans-48"/>
    <use x="679.169922" xlink:href="#DejaVuSans-48"/>
    <use x="742.792969" xlink:href="#DejaVuSans-48"/>
    <use x="806.416016" xlink:href="#DejaVuSans-32"/>
    <use x="838.203125" xlink:href="#DejaVuSans-73"/>
    <use x="867.695312" xlink:href="#DejaVuSans-48"/>
    <use x="931.318359" xlink:href="#DejaVuSans-32"/>
    <use x="963.105469" xlink:href="#DejaVuSans-68"/>
    <use x="1040.107422" xlink:href="#DejaVuSans-48"/>
   </g>
   <!-- Bagfile elbow_left_c from 35s for 95s - Logging Rate 30 - Simulation Rate 800 - 100.00% real time speed -->
   <defs>
    <path d="M 37.109375 75.984375 
L 37.109375 68.5 
L 28.515625 68.5 
Q 23.6875 68.5 21.796875 66.546875 
Q 19.921875 64.59375 19.921875 59.515625 
L 19.921875 54.6875 
L 34.71875 54.6875 
L 34.71875 47.703125 
L 19.921875 47.703125 
L 19.921875 0 
L 10.890625 0 
L 10.890625 47.703125 
L 2.296875 47.703125 
L 2.296875 54.6875 
L 10.890625 54.6875 
L 10.890625 58.5 
Q 10.890625 67.625 15.140625 71.796875 
Q 19.390625 75.984375 28.609375 75.984375 
z
" id="DejaVuSans-102"/>
    <path d="M 9.421875 75.984375 
L 18.40625 75.984375 
L 18.40625 0 
L 9.421875 0 
z
" id="DejaVuSans-108"/>
    <path d="M 48.6875 27.296875 
Q 48.6875 37.203125 44.609375 42.84375 
Q 40.53125 48.484375 33.40625 48.484375 
Q 26.265625 48.484375 22.1875 42.84375 
Q 18.109375 37.203125 18.109375 27.296875 
Q 18.109375 17.390625 22.1875 11.75 
Q 26.265625 6.109375 33.40625 6.109375 
Q 40.53125 6.109375 44.609375 11.75 
Q 48.6875 17.390625 48.6875 27.296875 
z
M 18.109375 46.390625 
Q 20.953125 51.265625 25.265625 53.625 
Q 29.59375 56 35.59375 56 
Q 45.5625 56 51.78125 48.09375 
Q 58.015625 40.1875 58.015625 27.296875 
Q 58.015625 14.40625 51.78125 6.484375 
Q 45.5625 -1.421875 35.59375 -1.421875 
Q 29.59375 -1.421875 25.265625 0.953125 
Q 20.953125 3.328125 18.109375 8.203125 
L 18.109375 0 
L 9.078125 0 
L 9.078125 75.984375 
L 18.109375 75.984375 
z
" id="DejaVuSans-98"/>
    <path d="M 4.203125 54.6875 
L 13.1875 54.6875 
L 24.421875 12.015625 
L 35.59375 54.6875 
L 46.1875 54.6875 
L 57.421875 12.015625 
L 68.609375 54.6875 
L 77.59375 54.6875 
L 63.28125 0 
L 52.6875 0 
L 40.921875 44.828125 
L 29.109375 0 
L 18.5 0 
z
" id="DejaVuSans-119"/>
    <path d="M 50.984375 -16.609375 
L 50.984375 -23.578125 
L -0.984375 -23.578125 
L -0.984375 -16.609375 
z
" id="DejaVuSans-95"/>
    <path d="M 40.578125 39.3125 
Q 47.65625 37.796875 51.625 33 
Q 55.609375 28.21875 55.609375 21.1875 
Q 55.609375 10.40625 48.1875 4.484375 
Q 40.765625 -1.421875 27.09375 -1.421875 
Q 22.515625 -1.421875 17.65625 -0.515625 
Q 12.796875 0.390625 7.625 2.203125 
L 7.625 11.71875 
Q 11.71875 9.328125 16.59375 8.109375 
Q 21.484375 6.890625 26.8125 6.890625 
Q 36.078125 6.890625 40.9375 10.546875 
Q 45.796875 14.203125 45.796875 21.1875 
Q 45.796875 27.640625 41.28125 31.265625 
Q 36.765625 34.90625 28.71875 34.90625 
L 20.21875 34.90625 
L 20.21875 43.015625 
L 29.109375 43.015625 
Q 36.375 43.015625 40.234375 45.921875 
Q 44.09375 48.828125 44.09375 54.296875 
Q 44.09375 59.90625 40.109375 62.90625 
Q 36.140625 65.921875 28.71875 65.921875 
Q 24.65625 65.921875 20.015625 65.03125 
Q 15.375 64.15625 9.8125 62.3125 
L 9.8125 71.09375 
Q 15.4375 72.65625 20.34375 73.4375 
Q 25.25 74.21875 29.59375 74.21875 
Q 40.828125 74.21875 47.359375 69.109375 
Q 53.90625 64.015625 53.90625 55.328125 
Q 53.90625 49.265625 50.4375 45.09375 
Q 46.96875 40.921875 40.578125 39.3125 
z
" id="DejaVuSans-51"/>
    <path d="M 10.796875 72.90625 
L 49.515625 72.90625 
L 49.515625 64.59375 
L 19.828125 64.59375 
L 19.828125 46.734375 
Q 21.96875 47.46875 24.109375 47.828125 
Q 26.265625 48.1875 28.421875 48.1875 
Q 40.625 48.1875 47.75 41.5 
Q 54.890625 34.8125 54.890625 23.390625 
Q 54.890625 11.625 47.5625 5.09375 
Q 40.234375 -1.421875 26.90625 -1.421875 
Q 22.3125 -1.421875 17.546875 -0.640625 
Q 12.796875 0.140625 7.71875 1.703125 
L 7.71875 11.625 
Q 12.109375 9.234375 16.796875 8.0625 
Q 21.484375 6.890625 26.703125 6.890625 
Q 35.15625 6.890625 40.078125 11.328125 
Q 45.015625 15.765625 45.015625 23.390625 
Q 45.015625 31 40.078125 35.4375 
Q 35.15625 39.890625 26.703125 39.890625 
Q 22.75 39.890625 18.8125 39.015625 
Q 14.890625 38.140625 10.796875 36.28125 
z
" id="DejaVuSans-53"/>
    <path d="M 10.984375 1.515625 
L 10.984375 10.5 
Q 14.703125 8.734375 18.5 7.8125 
Q 22.3125 6.890625 25.984375 6.890625 
Q 35.75 6.890625 40.890625 13.453125 
Q 46.046875 20.015625 46.78125 33.40625 
Q 43.953125 29.203125 39.59375 26.953125 
Q 35.25 24.703125 29.984375 24.703125 
Q 19.046875 24.703125 12.671875 31.3125 
Q 6.296875 37.9375 6.296875 49.421875 
Q 6.296875 60.640625 12.9375 67.421875 
Q 19.578125 74.21875 30.609375 74.21875 
Q 43.265625 74.21875 49.921875 64.515625 
Q 56.59375 54.828125 56.59375 36.375 
Q 56.59375 19.140625 48.40625 8.859375 
Q 40.234375 -1.421875 26.421875 -1.421875 
Q 22.703125 -1.421875 18.890625 -0.6875 
Q 15.09375 0.046875 10.984375 1.515625 
z
M 30.609375 32.421875 
Q 37.25 32.421875 41.125 36.953125 
Q 45.015625 41.5 45.015625 49.421875 
Q 45.015625 57.28125 41.125 61.84375 
Q 37.25 66.40625 30.609375 66.40625 
Q 23.96875 66.40625 20.09375 61.84375 
Q 16.21875 57.28125 16.21875 49.421875 
Q 16.21875 41.5 20.09375 36.953125 
Q 23.96875 32.421875 30.609375 32.421875 
z
" id="DejaVuSans-57"/>
    <path d="M 44.390625 34.1875 
Q 47.5625 33.109375 50.5625 29.59375 
Q 53.5625 26.078125 56.59375 19.921875 
L 66.609375 0 
L 56 0 
L 46.6875 18.703125 
Q 43.0625 26.03125 39.671875 28.421875 
Q 36.28125 30.8125 30.421875 30.8125 
L 19.671875 30.8125 
L 19.671875 0 
L 9.8125 0 
L 9.8125 72.90625 
L 32.078125 72.90625 
Q 44.578125 72.90625 50.734375 67.671875 
Q 56.890625 62.453125 56.890625 51.90625 
Q 56.890625 45.015625 53.6875 40.46875 
Q 50.484375 35.9375 44.390625 34.1875 
z
M 19.671875 64.796875 
L 19.671875 38.921875 
L 32.078125 38.921875 
Q 39.203125 38.921875 42.84375 42.21875 
Q 46.484375 45.515625 46.484375 51.90625 
Q 46.484375 58.296875 42.84375 61.546875 
Q 39.203125 64.796875 32.078125 64.796875 
z
" id="DejaVuSans-82"/>
    <path d="M 53.515625 70.515625 
L 53.515625 60.890625 
Q 47.90625 63.578125 42.921875 64.890625 
Q 37.9375 66.21875 33.296875 66.21875 
Q 25.25 66.21875 20.875 63.09375 
Q 16.5 59.96875 16.5 54.203125 
Q 16.5 49.359375 19.40625 46.890625 
Q 22.3125 44.4375 30.421875 42.921875 
L 36.375 41.703125 
Q 47.40625 39.59375 52.65625 34.296875 
Q 57.90625 29 57.90625 20.125 
Q 57.90625 9.515625 50.796875 4.046875 
Q 43.703125 -1.421875 29.984375 -1.421875 
Q 24.8125 -1.421875 18.96875 -0.25 
Q 13.140625 0.921875 6.890625 3.21875 
L 6.890625 13.375 
Q 12.890625 10.015625 18.65625 8.296875 
Q 24.421875 6.59375 29.984375 6.59375 
Q 38.421875 6.59375 43.015625 9.90625 
Q 47.609375 13.234375 47.609375 19.390625 
Q 47.609375 24.75 44.3125 27.78125 
Q 41.015625 30.8125 33.5 32.328125 
L 27.484375 33.5 
Q 16.453125 35.6875 11.515625 40.375 
Q 6.59375 45.0625 6.59375 53.421875 
Q 6.59375 63.09375 13.40625 68.65625 
Q 20.21875 74.21875 32.171875 74.21875 
Q 37.3125 74.21875 42.625 73.28125 
Q 47.953125 72.359375 53.515625 70.515625 
z
" id="DejaVuSans-83"/>
    <path d="M 8.5 21.578125 
L 8.5 54.6875 
L 17.484375 54.6875 
L 17.484375 21.921875 
Q 17.484375 14.15625 20.5 10.265625 
Q 23.53125 6.390625 29.59375 6.390625 
Q 36.859375 6.390625 41.078125 11.03125 
Q 45.3125 15.671875 45.3125 23.6875 
L 45.3125 54.6875 
L 54.296875 54.6875 
L 54.296875 0 
L 45.3125 0 
L 45.3125 8.40625 
Q 42.046875 3.421875 37.71875 1 
Q 33.40625 -1.421875 27.6875 -1.421875 
Q 18.265625 -1.421875 13.375 4.4375 
Q 8.5 10.296875 8.5 21.578125 
z
M 31.109375 56 
z
" id="DejaVuSans-117"/>
    <path d="M 10.6875 12.40625 
L 21 12.40625 
L 21 0 
L 10.6875 0 
z
" id="DejaVuSans-46"/>
    <path d="M 72.703125 32.078125 
Q 68.453125 32.078125 66.03125 28.46875 
Q 63.625 24.859375 63.625 18.40625 
Q 63.625 12.0625 66.03125 8.421875 
Q 68.453125 4.78125 72.703125 4.78125 
Q 76.859375 4.78125 79.265625 8.421875 
Q 81.6875 12.0625 81.6875 18.40625 
Q 81.6875 24.8125 79.265625 28.4375 
Q 76.859375 32.078125 72.703125 32.078125 
z
M 72.703125 38.28125 
Q 80.421875 38.28125 84.953125 32.90625 
Q 89.5 27.546875 89.5 18.40625 
Q 89.5 9.28125 84.9375 3.921875 
Q 80.375 -1.421875 72.703125 -1.421875 
Q 64.890625 -1.421875 60.34375 3.921875 
Q 55.8125 9.28125 55.8125 18.40625 
Q 55.8125 27.59375 60.375 32.9375 
Q 64.9375 38.28125 72.703125 38.28125 
z
M 22.3125 68.015625 
Q 18.109375 68.015625 15.6875 64.375 
Q 13.28125 60.75 13.28125 54.390625 
Q 13.28125 47.953125 15.671875 44.328125 
Q 18.0625 40.71875 22.3125 40.71875 
Q 26.5625 40.71875 28.96875 44.328125 
Q 31.390625 47.953125 31.390625 54.390625 
Q 31.390625 60.6875 28.953125 64.34375 
Q 26.515625 68.015625 22.3125 68.015625 
z
M 66.40625 74.21875 
L 74.21875 74.21875 
L 28.609375 -1.421875 
L 20.796875 -1.421875 
z
M 22.3125 74.21875 
Q 30.03125 74.21875 34.609375 68.875 
Q 39.203125 63.53125 39.203125 54.390625 
Q 39.203125 45.171875 34.640625 39.84375 
Q 30.078125 34.515625 22.3125 34.515625 
Q 14.546875 34.515625 10.03125 39.859375 
Q 5.515625 45.21875 5.515625 54.390625 
Q 5.515625 63.484375 10.046875 68.84375 
Q 14.59375 74.21875 22.3125 74.21875 
z
" id="DejaVuSans-37"/>
   </defs>
   <g transform="translate(547.781562 66.90749)scale(0.34 -0.34)">
    <use xlink:href="#DejaVuSans-66"/>
    <use x="68.603516" xlink:href="#DejaVuSans-97"/>
    <use x="129.882812" xlink:href="#DejaVuSans-103"/>
    <use x="193.359375" xlink:href="#DejaVuSans-102"/>
    <use x="228.564453" xlink:href="#DejaVuSans-105"/>
    <use x="256.347656" xlink:href="#DejaVuSans-108"/>
    <use x="284.130859" xlink:href="#DejaVuSans-101"/>
    <use x="345.654297" xlink:href="#DejaVuSans-32"/>
    <use x="377.441406" xlink:href="#DejaVuSans-101"/>
    <use x="438.964844" xlink:href="#DejaVuSans-108"/>
    <use x="466.748047" xlink:href="#DejaVuSans-98"/>
    <use x="530.224609" xlink:href="#DejaVuSans-111"/>
    <use x="591.40625" xlink:href="#DejaVuSans-119"/>
    <use x="673.193359" xlink:href="#DejaVuSans-95"/>
    <use x="723.193359" xlink:href="#DejaVuSans-108"/>
    <use x="750.976562" xlink:href="#DejaVuSans-101"/>
    <use x="812.5" xlink:href="#DejaVuSans-102"/>
    <use x="847.689453" xlink:href="#DejaVuSans-116"/>
    <use x="886.898438" xlink:href="#DejaVuSans-95"/>
    <use x="936.898438" xlink:href="#DejaVuSans-99"/>
    <use x="991.878906" xlink:href="#DejaVuSans-32"/>
    <use x="1023.666016" xlink:href="#DejaVuSans-102"/>
    <use x="1058.871094" xlink:href="#DejaVuSans-114"/>
    <use x="1099.953125" xlink:href="#DejaVuSans-111"/>
    <use x="1161.134766" xlink:href="#DejaVuSans-109"/>
    <use x="1258.546875" xlink:href="#DejaVuSans-32"/>
    <use x="1290.333984" xlink:href="#DejaVuSans-51"/>
    <use x="1353.957031" xlink:href="#DejaVuSans-53"/>
    <use x="1417.580078" xlink:href="#DejaVuSans-115"/>
    <use x="1469.679688" xlink:href="#DejaVuSans-32"/>
    <use x="1501.466797" xlink:href="#DejaVuSans-102"/>
    <use x="1536.671875" xlink:href="#DejaVuSans-111"/>
    <use x="1597.853516" xlink:href="#DejaVuSans-114"/>
    <use x="1638.966797" xlink:href="#DejaVuSans-32"/>
    <use x="1670.753906" xlink:href="#DejaVuSans-57"/>
    <use x="1734.376953" xlink:href="#DejaVuSans-53"/>
    <use x="1798" xlink:href="#DejaVuSans-115"/>
    <use x="1850.099609" xlink:href="#DejaVuSans-32"/>
    <use x="1881.886719" xlink:href="#DejaVuSans-45"/>
    <use x="1917.970703" xlink:href="#DejaVuSans-32"/>
    <use x="1949.757812" xlink:href="#DejaVuSans-76"/>
    <use x="2005.455078" xlink:href="#DejaVuSans-111"/>
    <use x="2066.636719" xlink:href="#DejaVuSans-103"/>
    <use x="2130.113281" xlink:href="#DejaVuSans-103"/>
    <use x="2193.589844" xlink:href="#DejaVuSans-105"/>
    <use x="2221.373047" xlink:href="#DejaVuSans-110"/>
    <use x="2284.751953" xlink:href="#DejaVuSans-103"/>
    <use x="2348.228516" xlink:href="#DejaVuSans-32"/>
    <use x="2380.015625" xlink:href="#DejaVuSans-82"/>
    <use x="2449.466797" xlink:href="#DejaVuSans-97"/>
    <use x="2510.746094" xlink:href="#DejaVuSans-116"/>
    <use x="2549.955078" xlink:href="#DejaVuSans-101"/>
    <use x="2611.478516" xlink:href="#DejaVuSans-32"/>
    <use x="2643.265625" xlink:href="#DejaVuSans-51"/>
    <use x="2706.888672" xlink:href="#DejaVuSans-48"/>
    <use x="2770.511719" xlink:href="#DejaVuSans-32"/>
    <use x="2802.298828" xlink:href="#DejaVuSans-45"/>
    <use x="2838.382812" xlink:href="#DejaVuSans-32"/>
    <use x="2870.169922" xlink:href="#DejaVuSans-83"/>
    <use x="2933.646484" xlink:href="#DejaVuSans-105"/>
    <use x="2961.429688" xlink:href="#DejaVuSans-109"/>
    <use x="3058.841797" xlink:href="#DejaVuSans-117"/>
    <use x="3122.220703" xlink:href="#DejaVuSans-108"/>
    <use x="3150.003906" xlink:href="#DejaVuSans-97"/>
    <use x="3211.283203" xlink:href="#DejaVuSans-116"/>
    <use x="3250.492188" xlink:href="#DejaVuSans-105"/>
    <use x="3278.275391" xlink:href="#DejaVuSans-111"/>
    <use x="3339.457031" xlink:href="#DejaVuSans-110"/>
    <use x="3402.835938" xlink:href="#DejaVuSans-32"/>
    <use x="3434.623047" xlink:href="#DejaVuSans-82"/>
    <use x="3504.074219" xlink:href="#DejaVuSans-97"/>
    <use x="3565.353516" xlink:href="#DejaVuSans-116"/>
    <use x="3604.5625" xlink:href="#DejaVuSans-101"/>
    <use x="3666.085938" xlink:href="#DejaVuSans-32"/>
    <use x="3697.873047" xlink:href="#DejaVuSans-56"/>
    <use x="3761.496094" xlink:href="#DejaVuSans-48"/>
    <use x="3825.119141" xlink:href="#DejaVuSans-48"/>
    <use x="3888.742188" xlink:href="#DejaVuSans-32"/>
    <use x="3920.529297" xlink:href="#DejaVuSans-45"/>
    <use x="3956.613281" xlink:href="#DejaVuSans-32"/>
    <use x="3988.400391" xlink:href="#DejaVuSans-49"/>
    <use x="4052.023438" xlink:href="#DejaVuSans-48"/>
    <use x="4115.646484" xlink:href="#DejaVuSans-48"/>
    <use x="4179.269531" xlink:href="#DejaVuSans-46"/>
    <use x="4211.056641" xlink:href="#DejaVuSans-48"/>
    <use x="4274.679688" xlink:href="#DejaVuSans-48"/>
    <use x="4338.302734" xlink:href="#DejaVuSans-37"/>
    <use x="4433.322266" xlink:href="#DejaVuSans-32"/>
    <use x="4465.109375" xlink:href="#DejaVuSans-114"/>
    <use x="4506.191406" xlink:href="#DejaVuSans-101"/>
    <use x="4567.714844" xlink:href="#DejaVuSans-97"/>
    <use x="4628.994141" xlink:href="#DejaVuSans-108"/>
    <use x="4656.777344" xlink:href="#DejaVuSans-32"/>
    <use x="4688.564453" xlink:href="#DejaVuSans-116"/>
    <use x="4727.773438" xlink:href="#DejaVuSans-105"/>
    <use x="4755.556641" xlink:href="#DejaVuSans-109"/>
    <use x="4852.96875" xlink:href="#DejaVuSans-101"/>
    <use x="4914.492188" xlink:href="#DejaVuSans-32"/>
    <use x="4946.279297" xlink:href="#DejaVuSans-115"/>
    <use x="4998.378906" xlink:href="#DejaVuSans-112"/>
    <use x="5061.855469" xlink:href="#DejaVuSans-101"/>
    <use x="5123.378906" xlink:href="#DejaVuSans-101"/>
    <use x="5184.902344" xlink:href="#DejaVuSans-100"/>
   </g>
   <!--  -->
   <g transform="translate(1440 105.925677)scale(0.34 -0.34)"/>
  </g>
 </g>
 <defs>
  <clipPath id="p9bf91519be">
   <rect height="863.577185" width="2782.90202" x="94.09774" y="157.9032"/>
  </clipPath>
 </defs>
</svg>
