<?xml version="1.0" encoding="utf-8" standalone="no"?>
<!DOCTYPE svg PUBLIC "-//W3C//DTD SVG 1.1//EN"
  "http://www.w3.org/Graphics/SVG/1.1/DTD/svg11.dtd">
<!-- Created with matplotlib (https://matplotlib.org/) -->
<svg height="1080pt" version="1.1" viewBox="0 0 2880 1080" width="2880pt" xmlns="http://www.w3.org/2000/svg" xmlns:xlink="http://www.w3.org/1999/xlink">
 <defs>
  <style type="text/css">
*{stroke-linecap:butt;stroke-linejoin:round;}
  </style>
 </defs>
 <g id="figure_1">
  <g id="patch_1">
   <path d="M 0 1080 
L 2880 1080 
L 2880 0 
L 0 0 
z
" style="fill:#ffffff;"/>
  </g>
  <g id="axes_1">
   <g id="patch_2">
    <path d="M 94.09774 1021.480385 
L 2876.99976 1021.480385 
L 2876.99976 157.9032 
L 94.09774 157.9032 
z
" style="fill:#ffffff;"/>
   </g>
   <g id="matplotlib.axis_1">
    <g id="xtick_1">
     <g id="line2d_1">
      <defs>
       <path d="M 0 0 
L 0 3.5 
" id="m896f3dc569" style="stroke:#000000;stroke-width:0.8;"/>
      </defs>
      <g>
       <use style="stroke:#000000;stroke-width:0.8;" x="353.841179" xlink:href="#m896f3dc569" y="1021.480385"/>
      </g>
     </g>
     <g id="text_1">
      <!-- 40 -->
      <defs>
       <path d="M 37.796875 64.3125 
L 12.890625 25.390625 
L 37.796875 25.390625 
z
M 35.203125 72.90625 
L 47.609375 72.90625 
L 47.609375 25.390625 
L 58.015625 25.390625 
L 58.015625 17.1875 
L 47.609375 17.1875 
L 47.609375 0 
L 37.796875 0 
L 37.796875 17.1875 
L 4.890625 17.1875 
L 4.890625 26.703125 
z
" id="DejaVuSans-52"/>
       <path d="M 31.78125 66.40625 
Q 24.171875 66.40625 20.328125 58.90625 
Q 16.5 51.421875 16.5 36.375 
Q 16.5 21.390625 20.328125 13.890625 
Q 24.171875 6.390625 31.78125 6.390625 
Q 39.453125 6.390625 43.28125 13.890625 
Q 47.125 21.390625 47.125 36.375 
Q 47.125 51.421875 43.28125 58.90625 
Q 39.453125 66.40625 31.78125 66.40625 
z
M 31.78125 74.21875 
Q 44.046875 74.21875 50.515625 64.515625 
Q 56.984375 54.828125 56.984375 36.375 
Q 56.984375 17.96875 50.515625 8.265625 
Q 44.046875 -1.421875 31.78125 -1.421875 
Q 19.53125 -1.421875 13.0625 8.265625 
Q 6.59375 17.96875 6.59375 36.375 
Q 6.59375 54.828125 13.0625 64.515625 
Q 19.53125 74.21875 31.78125 74.21875 
z
" id="DejaVuSans-48"/>
      </defs>
      <g transform="translate(341.116179 1043.67726)scale(0.2 -0.2)">
       <use xlink:href="#DejaVuSans-52"/>
       <use x="63.623047" xlink:href="#DejaVuSans-48"/>
      </g>
     </g>
    </g>
    <g id="xtick_2">
     <g id="line2d_2">
      <g>
       <use style="stroke:#000000;stroke-width:0.8;" x="886.832751" xlink:href="#m896f3dc569" y="1021.480385"/>
      </g>
     </g>
     <g id="text_2">
      <!-- 60 -->
      <defs>
       <path d="M 33.015625 40.375 
Q 26.375 40.375 22.484375 35.828125 
Q 18.609375 31.296875 18.609375 23.390625 
Q 18.609375 15.53125 22.484375 10.953125 
Q 26.375 6.390625 33.015625 6.390625 
Q 39.65625 6.390625 43.53125 10.953125 
Q 47.40625 15.53125 47.40625 23.390625 
Q 47.40625 31.296875 43.53125 35.828125 
Q 39.65625 40.375 33.015625 40.375 
z
M 52.59375 71.296875 
L 52.59375 62.3125 
Q 48.875 64.0625 45.09375 64.984375 
Q 41.3125 65.921875 37.59375 65.921875 
Q 27.828125 65.921875 22.671875 59.328125 
Q 17.53125 52.734375 16.796875 39.40625 
Q 19.671875 43.65625 24.015625 45.921875 
Q 28.375 48.1875 33.59375 48.1875 
Q 44.578125 48.1875 50.953125 41.515625 
Q 57.328125 34.859375 57.328125 23.390625 
Q 57.328125 12.15625 50.6875 5.359375 
Q 44.046875 -1.421875 33.015625 -1.421875 
Q 20.359375 -1.421875 13.671875 8.265625 
Q 6.984375 17.96875 6.984375 36.375 
Q 6.984375 53.65625 15.1875 63.9375 
Q 23.390625 74.21875 37.203125 74.21875 
Q 40.921875 74.21875 44.703125 73.484375 
Q 48.484375 72.75 52.59375 71.296875 
z
" id="DejaVuSans-54"/>
      </defs>
      <g transform="translate(874.107751 1043.67726)scale(0.2 -0.2)">
       <use xlink:href="#DejaVuSans-54"/>
       <use x="63.623047" xlink:href="#DejaVuSans-48"/>
      </g>
     </g>
    </g>
    <g id="xtick_3">
     <g id="line2d_3">
      <g>
       <use style="stroke:#000000;stroke-width:0.8;" x="1419.824324" xlink:href="#m896f3dc569" y="1021.480385"/>
      </g>
     </g>
     <g id="text_3">
      <!-- 80 -->
      <defs>
       <path d="M 31.78125 34.625 
Q 24.75 34.625 20.71875 30.859375 
Q 16.703125 27.09375 16.703125 20.515625 
Q 16.703125 13.921875 20.71875 10.15625 
Q 24.75 6.390625 31.78125 6.390625 
Q 38.8125 6.390625 42.859375 10.171875 
Q 46.921875 13.96875 46.921875 20.515625 
Q 46.921875 27.09375 42.890625 30.859375 
Q 38.875 34.625 31.78125 34.625 
z
M 21.921875 38.8125 
Q 15.578125 40.375 12.03125 44.71875 
Q 8.5 49.078125 8.5 55.328125 
Q 8.5 64.0625 14.71875 69.140625 
Q 20.953125 74.21875 31.78125 74.21875 
Q 42.671875 74.21875 48.875 69.140625 
Q 55.078125 64.0625 55.078125 55.328125 
Q 55.078125 49.078125 51.53125 44.71875 
Q 48 40.375 41.703125 38.8125 
Q 48.828125 37.15625 52.796875 32.3125 
Q 56.78125 27.484375 56.78125 20.515625 
Q 56.78125 9.90625 50.3125 4.234375 
Q 43.84375 -1.421875 31.78125 -1.421875 
Q 19.734375 -1.421875 13.25 4.234375 
Q 6.78125 9.90625 6.78125 20.515625 
Q 6.78125 27.484375 10.78125 32.3125 
Q 14.796875 37.15625 21.921875 38.8125 
z
M 18.3125 54.390625 
Q 18.3125 48.734375 21.84375 45.5625 
Q 25.390625 42.390625 31.78125 42.390625 
Q 38.140625 42.390625 41.71875 45.5625 
Q 45.3125 48.734375 45.3125 54.390625 
Q 45.3125 60.0625 41.71875 63.234375 
Q 38.140625 66.40625 31.78125 66.40625 
Q 25.390625 66.40625 21.84375 63.234375 
Q 18.3125 60.0625 18.3125 54.390625 
z
" id="DejaVuSans-56"/>
      </defs>
      <g transform="translate(1407.099324 1043.67726)scale(0.2 -0.2)">
       <use xlink:href="#DejaVuSans-56"/>
       <use x="63.623047" xlink:href="#DejaVuSans-48"/>
      </g>
     </g>
    </g>
    <g id="xtick_4">
     <g id="line2d_4">
      <g>
       <use style="stroke:#000000;stroke-width:0.8;" x="1952.815896" xlink:href="#m896f3dc569" y="1021.480385"/>
      </g>
     </g>
     <g id="text_4">
      <!-- 100 -->
      <defs>
       <path d="M 12.40625 8.296875 
L 28.515625 8.296875 
L 28.515625 63.921875 
L 10.984375 60.40625 
L 10.984375 69.390625 
L 28.421875 72.90625 
L 38.28125 72.90625 
L 38.28125 8.296875 
L 54.390625 8.296875 
L 54.390625 0 
L 12.40625 0 
z
" id="DejaVuSans-49"/>
      </defs>
      <g transform="translate(1933.728396 1043.67726)scale(0.2 -0.2)">
       <use xlink:href="#DejaVuSans-49"/>
       <use x="63.623047" xlink:href="#DejaVuSans-48"/>
       <use x="127.246094" xlink:href="#DejaVuSans-48"/>
      </g>
     </g>
    </g>
    <g id="xtick_5">
     <g id="line2d_5">
      <g>
       <use style="stroke:#000000;stroke-width:0.8;" x="2485.807468" xlink:href="#m896f3dc569" y="1021.480385"/>
      </g>
     </g>
     <g id="text_5">
      <!-- 120 -->
      <defs>
       <path d="M 19.1875 8.296875 
L 53.609375 8.296875 
L 53.609375 0 
L 7.328125 0 
L 7.328125 8.296875 
Q 12.9375 14.109375 22.625 23.890625 
Q 32.328125 33.6875 34.8125 36.53125 
Q 39.546875 41.84375 41.421875 45.53125 
Q 43.3125 49.21875 43.3125 52.78125 
Q 43.3125 58.59375 39.234375 62.25 
Q 35.15625 65.921875 28.609375 65.921875 
Q 23.96875 65.921875 18.8125 64.3125 
Q 13.671875 62.703125 7.8125 59.421875 
L 7.8125 69.390625 
Q 13.765625 71.78125 18.9375 73 
Q 24.125 74.21875 28.421875 74.21875 
Q 39.75 74.21875 46.484375 68.546875 
Q 53.21875 62.890625 53.21875 53.421875 
Q 53.21875 48.921875 51.53125 44.890625 
Q 49.859375 40.875 45.40625 35.40625 
Q 44.1875 33.984375 37.640625 27.21875 
Q 31.109375 20.453125 19.1875 8.296875 
z
" id="DejaVuSans-50"/>
      </defs>
      <g transform="translate(2466.719968 1043.67726)scale(0.2 -0.2)">
       <use xlink:href="#DejaVuSans-49"/>
       <use x="63.623047" xlink:href="#DejaVuSans-50"/>
       <use x="127.246094" xlink:href="#DejaVuSans-48"/>
      </g>
     </g>
    </g>
    <g id="text_6">
     <!-- Time [s] -->
     <defs>
      <path d="M -0.296875 72.90625 
L 61.375 72.90625 
L 61.375 64.59375 
L 35.5 64.59375 
L 35.5 0 
L 25.59375 0 
L 25.59375 64.59375 
L -0.296875 64.59375 
z
" id="DejaVuSans-84"/>
      <path d="M 9.421875 54.6875 
L 18.40625 54.6875 
L 18.40625 0 
L 9.421875 0 
z
M 9.421875 75.984375 
L 18.40625 75.984375 
L 18.40625 64.59375 
L 9.421875 64.59375 
z
" id="DejaVuSans-105"/>
      <path d="M 52 44.1875 
Q 55.375 50.25 60.0625 53.125 
Q 64.75 56 71.09375 56 
Q 79.640625 56 84.28125 50.015625 
Q 88.921875 44.046875 88.921875 33.015625 
L 88.921875 0 
L 79.890625 0 
L 79.890625 32.71875 
Q 79.890625 40.578125 77.09375 44.375 
Q 74.3125 48.1875 68.609375 48.1875 
Q 61.625 48.1875 57.5625 43.546875 
Q 53.515625 38.921875 53.515625 30.90625 
L 53.515625 0 
L 44.484375 0 
L 44.484375 32.71875 
Q 44.484375 40.625 41.703125 44.40625 
Q 38.921875 48.1875 33.109375 48.1875 
Q 26.21875 48.1875 22.15625 43.53125 
Q 18.109375 38.875 18.109375 30.90625 
L 18.109375 0 
L 9.078125 0 
L 9.078125 54.6875 
L 18.109375 54.6875 
L 18.109375 46.1875 
Q 21.1875 51.21875 25.484375 53.609375 
Q 29.78125 56 35.6875 56 
Q 41.65625 56 45.828125 52.96875 
Q 50 49.953125 52 44.1875 
z
" id="DejaVuSans-109"/>
      <path d="M 56.203125 29.59375 
L 56.203125 25.203125 
L 14.890625 25.203125 
Q 15.484375 15.921875 20.484375 11.0625 
Q 25.484375 6.203125 34.421875 6.203125 
Q 39.59375 6.203125 44.453125 7.46875 
Q 49.3125 8.734375 54.109375 11.28125 
L 54.109375 2.78125 
Q 49.265625 0.734375 44.1875 -0.34375 
Q 39.109375 -1.421875 33.890625 -1.421875 
Q 20.796875 -1.421875 13.15625 6.1875 
Q 5.515625 13.8125 5.515625 26.8125 
Q 5.515625 40.234375 12.765625 48.109375 
Q 20.015625 56 32.328125 56 
Q 43.359375 56 49.78125 48.890625 
Q 56.203125 41.796875 56.203125 29.59375 
z
M 47.21875 32.234375 
Q 47.125 39.59375 43.09375 43.984375 
Q 39.0625 48.390625 32.421875 48.390625 
Q 24.90625 48.390625 20.390625 44.140625 
Q 15.875 39.890625 15.1875 32.171875 
z
" id="DejaVuSans-101"/>
      <path id="DejaVuSans-32"/>
      <path d="M 8.59375 75.984375 
L 29.296875 75.984375 
L 29.296875 69 
L 17.578125 69 
L 17.578125 -6.203125 
L 29.296875 -6.203125 
L 29.296875 -13.1875 
L 8.59375 -13.1875 
z
" id="DejaVuSans-91"/>
      <path d="M 44.28125 53.078125 
L 44.28125 44.578125 
Q 40.484375 46.53125 36.375 47.5 
Q 32.28125 48.484375 27.875 48.484375 
Q 21.1875 48.484375 17.84375 46.4375 
Q 14.5 44.390625 14.5 40.28125 
Q 14.5 37.15625 16.890625 35.375 
Q 19.28125 33.59375 26.515625 31.984375 
L 29.59375 31.296875 
Q 39.15625 29.25 43.1875 25.515625 
Q 47.21875 21.78125 47.21875 15.09375 
Q 47.21875 7.46875 41.1875 3.015625 
Q 35.15625 -1.421875 24.609375 -1.421875 
Q 20.21875 -1.421875 15.453125 -0.5625 
Q 10.6875 0.296875 5.421875 2 
L 5.421875 11.28125 
Q 10.40625 8.6875 15.234375 7.390625 
Q 20.0625 6.109375 24.8125 6.109375 
Q 31.15625 6.109375 34.5625 8.28125 
Q 37.984375 10.453125 37.984375 14.40625 
Q 37.984375 18.0625 35.515625 20.015625 
Q 33.0625 21.96875 24.703125 23.78125 
L 21.578125 24.515625 
Q 13.234375 26.265625 9.515625 29.90625 
Q 5.8125 33.546875 5.8125 39.890625 
Q 5.8125 47.609375 11.28125 51.796875 
Q 16.75 56 26.8125 56 
Q 31.78125 56 36.171875 55.265625 
Q 40.578125 54.546875 44.28125 53.078125 
z
" id="DejaVuSans-115"/>
      <path d="M 30.421875 75.984375 
L 30.421875 -13.1875 
L 9.71875 -13.1875 
L 9.71875 -6.203125 
L 21.390625 -6.203125 
L 21.390625 69 
L 9.71875 69 
L 9.71875 75.984375 
z
" id="DejaVuSans-93"/>
     </defs>
     <g transform="translate(1432.293437 1071.592572)scale(0.26 -0.26)">
      <use xlink:href="#DejaVuSans-84"/>
      <use x="61.037109" xlink:href="#DejaVuSans-105"/>
      <use x="88.820312" xlink:href="#DejaVuSans-109"/>
      <use x="186.232422" xlink:href="#DejaVuSans-101"/>
      <use x="247.755859" xlink:href="#DejaVuSans-32"/>
      <use x="279.542969" xlink:href="#DejaVuSans-91"/>
      <use x="318.556641" xlink:href="#DejaVuSans-115"/>
      <use x="370.65625" xlink:href="#DejaVuSans-93"/>
     </g>
    </g>
   </g>
   <g id="matplotlib.axis_2">
    <g id="ytick_1">
     <g id="line2d_6">
      <defs>
       <path d="M 0 0 
L -3.5 0 
" id="m3575920030" style="stroke:#000000;stroke-width:0.8;"/>
      </defs>
      <g>
       <use style="stroke:#000000;stroke-width:0.8;" x="94.09774" xlink:href="#m3575920030" y="920.247653"/>
      </g>
     </g>
     <g id="text_7">
      <!-- −140 -->
      <defs>
       <path d="M 10.59375 35.5 
L 73.1875 35.5 
L 73.1875 27.203125 
L 10.59375 27.203125 
z
" id="DejaVuSans-8722"/>
      </defs>
      <g transform="translate(32.163365 927.84609)scale(0.2 -0.2)">
       <use xlink:href="#DejaVuSans-8722"/>
       <use x="83.789062" xlink:href="#DejaVuSans-49"/>
       <use x="147.412109" xlink:href="#DejaVuSans-52"/>
       <use x="211.035156" xlink:href="#DejaVuSans-48"/>
      </g>
     </g>
    </g>
    <g id="ytick_2">
     <g id="line2d_7">
      <g>
       <use style="stroke:#000000;stroke-width:0.8;" x="94.09774" xlink:href="#m3575920030" y="816.948946"/>
      </g>
     </g>
     <g id="text_8">
      <!-- −120 -->
      <g transform="translate(32.163365 824.547384)scale(0.2 -0.2)">
       <use xlink:href="#DejaVuSans-8722"/>
       <use x="83.789062" xlink:href="#DejaVuSans-49"/>
       <use x="147.412109" xlink:href="#DejaVuSans-50"/>
       <use x="211.035156" xlink:href="#DejaVuSans-48"/>
      </g>
     </g>
    </g>
    <g id="ytick_3">
     <g id="line2d_8">
      <g>
       <use style="stroke:#000000;stroke-width:0.8;" x="94.09774" xlink:href="#m3575920030" y="713.65024"/>
      </g>
     </g>
     <g id="text_9">
      <!-- −100 -->
      <g transform="translate(32.163365 721.248678)scale(0.2 -0.2)">
       <use xlink:href="#DejaVuSans-8722"/>
       <use x="83.789062" xlink:href="#DejaVuSans-49"/>
       <use x="147.412109" xlink:href="#DejaVuSans-48"/>
       <use x="211.035156" xlink:href="#DejaVuSans-48"/>
      </g>
     </g>
    </g>
    <g id="ytick_4">
     <g id="line2d_9">
      <g>
       <use style="stroke:#000000;stroke-width:0.8;" x="94.09774" xlink:href="#m3575920030" y="610.351534"/>
      </g>
     </g>
     <g id="text_10">
      <!-- −80 -->
      <g transform="translate(44.888365 617.949971)scale(0.2 -0.2)">
       <use xlink:href="#DejaVuSans-8722"/>
       <use x="83.789062" xlink:href="#DejaVuSans-56"/>
       <use x="147.412109" xlink:href="#DejaVuSans-48"/>
      </g>
     </g>
    </g>
    <g id="ytick_5">
     <g id="line2d_10">
      <g>
       <use style="stroke:#000000;stroke-width:0.8;" x="94.09774" xlink:href="#m3575920030" y="507.052827"/>
      </g>
     </g>
     <g id="text_11">
      <!-- −60 -->
      <g transform="translate(44.888365 514.651265)scale(0.2 -0.2)">
       <use xlink:href="#DejaVuSans-8722"/>
       <use x="83.789062" xlink:href="#DejaVuSans-54"/>
       <use x="147.412109" xlink:href="#DejaVuSans-48"/>
      </g>
     </g>
    </g>
    <g id="ytick_6">
     <g id="line2d_11">
      <g>
       <use style="stroke:#000000;stroke-width:0.8;" x="94.09774" xlink:href="#m3575920030" y="403.754121"/>
      </g>
     </g>
     <g id="text_12">
      <!-- −40 -->
      <g transform="translate(44.888365 411.352559)scale(0.2 -0.2)">
       <use xlink:href="#DejaVuSans-8722"/>
       <use x="83.789062" xlink:href="#DejaVuSans-52"/>
       <use x="147.412109" xlink:href="#DejaVuSans-48"/>
      </g>
     </g>
    </g>
    <g id="ytick_7">
     <g id="line2d_12">
      <g>
       <use style="stroke:#000000;stroke-width:0.8;" x="94.09774" xlink:href="#m3575920030" y="300.455415"/>
      </g>
     </g>
     <g id="text_13">
      <!-- −20 -->
      <g transform="translate(44.888365 308.053852)scale(0.2 -0.2)">
       <use xlink:href="#DejaVuSans-8722"/>
       <use x="83.789062" xlink:href="#DejaVuSans-50"/>
       <use x="147.412109" xlink:href="#DejaVuSans-48"/>
      </g>
     </g>
    </g>
    <g id="ytick_8">
     <g id="line2d_13">
      <g>
       <use style="stroke:#000000;stroke-width:0.8;" x="94.09774" xlink:href="#m3575920030" y="197.156708"/>
      </g>
     </g>
     <g id="text_14">
      <!-- 0 -->
      <g transform="translate(74.37274 204.755146)scale(0.2 -0.2)">
       <use xlink:href="#DejaVuSans-48"/>
      </g>
     </g>
    </g>
    <g id="text_15">
     <!-- Length [m] -->
     <defs>
      <path d="M 9.8125 72.90625 
L 19.671875 72.90625 
L 19.671875 8.296875 
L 55.171875 8.296875 
L 55.171875 0 
L 9.8125 0 
z
" id="DejaVuSans-76"/>
      <path d="M 54.890625 33.015625 
L 54.890625 0 
L 45.90625 0 
L 45.90625 32.71875 
Q 45.90625 40.484375 42.875 44.328125 
Q 39.84375 48.1875 33.796875 48.1875 
Q 26.515625 48.1875 22.3125 43.546875 
Q 18.109375 38.921875 18.109375 30.90625 
L 18.109375 0 
L 9.078125 0 
L 9.078125 54.6875 
L 18.109375 54.6875 
L 18.109375 46.1875 
Q 21.34375 51.125 25.703125 53.5625 
Q 30.078125 56 35.796875 56 
Q 45.21875 56 50.046875 50.171875 
Q 54.890625 44.34375 54.890625 33.015625 
z
" id="DejaVuSans-110"/>
      <path d="M 45.40625 27.984375 
Q 45.40625 37.75 41.375 43.109375 
Q 37.359375 48.484375 30.078125 48.484375 
Q 22.859375 48.484375 18.828125 43.109375 
Q 14.796875 37.75 14.796875 27.984375 
Q 14.796875 18.265625 18.828125 12.890625 
Q 22.859375 7.515625 30.078125 7.515625 
Q 37.359375 7.515625 41.375 12.890625 
Q 45.40625 18.265625 45.40625 27.984375 
z
M 54.390625 6.78125 
Q 54.390625 -7.171875 48.1875 -13.984375 
Q 42 -20.796875 29.203125 -20.796875 
Q 24.46875 -20.796875 20.265625 -20.09375 
Q 16.0625 -19.390625 12.109375 -17.921875 
L 12.109375 -9.1875 
Q 16.0625 -11.328125 19.921875 -12.34375 
Q 23.78125 -13.375 27.78125 -13.375 
Q 36.625 -13.375 41.015625 -8.765625 
Q 45.40625 -4.15625 45.40625 5.171875 
L 45.40625 9.625 
Q 42.625 4.78125 38.28125 2.390625 
Q 33.9375 0 27.875 0 
Q 17.828125 0 11.671875 7.65625 
Q 5.515625 15.328125 5.515625 27.984375 
Q 5.515625 40.671875 11.671875 48.328125 
Q 17.828125 56 27.875 56 
Q 33.9375 56 38.28125 53.609375 
Q 42.625 51.21875 45.40625 46.390625 
L 45.40625 54.6875 
L 54.390625 54.6875 
z
" id="DejaVuSans-103"/>
      <path d="M 18.3125 70.21875 
L 18.3125 54.6875 
L 36.8125 54.6875 
L 36.8125 47.703125 
L 18.3125 47.703125 
L 18.3125 18.015625 
Q 18.3125 11.328125 20.140625 9.421875 
Q 21.96875 7.515625 27.59375 7.515625 
L 36.8125 7.515625 
L 36.8125 0 
L 27.59375 0 
Q 17.1875 0 13.234375 3.875 
Q 9.28125 7.765625 9.28125 18.015625 
L 9.28125 47.703125 
L 2.6875 47.703125 
L 2.6875 54.6875 
L 9.28125 54.6875 
L 9.28125 70.21875 
z
" id="DejaVuSans-116"/>
      <path d="M 54.890625 33.015625 
L 54.890625 0 
L 45.90625 0 
L 45.90625 32.71875 
Q 45.90625 40.484375 42.875 44.328125 
Q 39.84375 48.1875 33.796875 48.1875 
Q 26.515625 48.1875 22.3125 43.546875 
Q 18.109375 38.921875 18.109375 30.90625 
L 18.109375 0 
L 9.078125 0 
L 9.078125 75.984375 
L 18.109375 75.984375 
L 18.109375 46.1875 
Q 21.34375 51.125 25.703125 53.5625 
Q 30.078125 56 35.796875 56 
Q 45.21875 56 50.046875 50.171875 
Q 54.890625 44.34375 54.890625 33.015625 
z
" id="DejaVuSans-104"/>
     </defs>
     <g transform="translate(22.756178 661.697574)rotate(-90)scale(0.26 -0.26)">
      <use xlink:href="#DejaVuSans-76"/>
      <use x="55.697266" xlink:href="#DejaVuSans-101"/>
      <use x="117.220703" xlink:href="#DejaVuSans-110"/>
      <use x="180.599609" xlink:href="#DejaVuSans-103"/>
      <use x="244.076172" xlink:href="#DejaVuSans-116"/>
      <use x="283.285156" xlink:href="#DejaVuSans-104"/>
      <use x="346.664062" xlink:href="#DejaVuSans-32"/>
      <use x="378.451172" xlink:href="#DejaVuSans-91"/>
      <use x="417.464844" xlink:href="#DejaVuSans-109"/>
      <use x="514.876953" xlink:href="#DejaVuSans-93"/>
     </g>
    </g>
   </g>
   <g id="line2d_14">
    <path clip-path="url(#p23b651b93f)" d="M 220.593286 197.156708 
L 221.458528 249.614845 
L 222.324964 393.580693 
L 223.194666 197.156708 
L 224.056775 197.156708 
L 224.931554 310.285729 
L 225.795893 356.617014 
L 226.660036 197.156708 
L 230.120443 197.156708 
L 230.988372 982.226877 
L 233.587916 982.226877 
L 234.450825 197.156708 
L 237.917319 197.156708 
L 238.780547 982.226877 
L 241.381564 982.226877 
L 242.250853 197.156708 
L 244.847379 197.156708 
L 245.713364 771.481588 
L 246.57757 982.226877 
L 248.311408 982.226877 
L 249.17644 197.156708 
L 252.644922 197.156708 
L 253.512312 982.226877 
L 255.24601 982.226877 
L 256.104294 197.156708 
L 259.571004 197.156708 
L 260.436176 982.226877 
L 263.031875 982.226877 
L 263.902416 197.156708 
L 267.363135 197.156708 
L 268.229456 982.226877 
L 270.828282 982.226877 
L 271.695455 197.156708 
L 275.163188 197.156708 
L 276.030044 982.226877 
L 277.760349 982.226877 
L 278.627617 855.649318 
L 279.490311 197.156708 
L 282.955598 197.156708 
L 283.819092 982.226877 
L 286.419062 982.226877 
L 287.289545 197.156708 
L 290.749482 197.156708 
L 291.613281 982.226877 
L 294.212253 982.226877 
L 295.087559 197.156708 
L 298.54599 197.156708 
L 299.409802 982.226877 
L 302.006258 982.226877 
L 302.87371 197.156708 
L 306.337841 197.156708 
L 307.205675 923.585415 
L 308.069385 982.226877 
L 310.670225 982.226877 
L 311.536883 197.156708 
L 315.001738 197.156708 
L 315.86698 982.226877 
L 318.4628 982.226877 
L 319.332159 197.156708 
L 323.663952 197.156708 
L 324.528151 982.226877 
L 327.125585 982.226877 
L 327.990039 197.156708 
L 331.455421 197.156708 
L 332.322588 982.226877 
L 335.791605 982.226877 
L 336.65839 197.156708 
L 340.120176 197.156708 
L 340.982476 982.226877 
L 344.449771 982.226877 
L 345.320756 197.156708 
L 348.78021 197.156708 
L 349.647002 982.226877 
L 353.107492 982.226877 
L 353.979227 197.156708 
L 357.439711 197.156708 
L 358.305321 982.226877 
L 361.77137 982.226877 
L 362.635589 197.156708 
L 366.100171 197.156708 
L 367.83453 982.226877 
L 370.436945 982.226877 
L 371.298095 197.156708 
L 375.634977 197.156708 
L 376.493846 982.226877 
L 379.091757 982.226877 
L 379.958828 197.156708 
L 384.289147 197.156708 
L 385.153486 982.226877 
L 388.618811 982.226877 
L 389.486658 197.156708 
L 392.95725 197.156708 
L 393.815299 982.226877 
L 397.284443 982.226877 
L 398.146114 197.156708 
L 402.479457 197.156708 
L 403.343574 982.226877 
L 405.944077 982.226877 
L 406.81113 658.776561 
L 407.675088 197.156708 
L 411.137757 197.156708 
L 412.004047 982.226877 
L 415.470903 982.226877 
L 416.336958 197.156708 
L 420.666819 197.156708 
L 421.538237 982.226877 
L 424.99473 982.226877 
L 425.86447 197.156708 
L 430.191695 197.156708 
L 431.063525 982.226877 
L 433.658431 982.226877 
L 434.523717 332.003446 
L 435.394092 197.156708 
L 438.854518 197.156708 
L 439.718858 793.76234 
L 440.585141 982.226877 
L 443.18579 982.226877 
L 444.04971 197.156708 
L 448.38266 197.156708 
L 449.254344 982.226877 
L 452.711257 982.226877 
L 453.578729 197.156708 
L 457.908005 197.156708 
L 458.776831 982.226877 
L 462.240154 982.226877 
L 463.106667 197.156708 
L 467.438892 197.156708 
L 468.304368 982.226877 
L 471.767883 982.226877 
L 472.631231 197.156708 
L 476.96392 197.156708 
L 477.827344 982.226877 
L 481.299366 982.226877 
L 482.160395 197.156708 
L 486.489348 197.156708 
L 487.356184 982.226877 
L 490.819324 982.226877 
L 491.686783 197.156708 
L 496.020787 197.156708 
L 496.884713 955.866089 
L 497.748004 982.226877 
L 500.349479 982.226877 
L 501.215623 197.156708 
L 506.409627 197.156708 
L 507.276959 982.226877 
L 510.741655 982.226877 
L 511.607144 197.156708 
L 515.937597 197.156708 
L 516.803543 982.226877 
L 520.267903 982.226877 
L 521.136588 197.156708 
L 525.468947 197.156708 
L 526.32974 982.226877 
L 529.79525 982.226877 
L 530.662931 197.156708 
L 534.99001 197.156708 
L 535.857393 982.226877 
L 539.322457 982.226877 
L 540.187438 198.070454 
L 541.054802 197.156708 
L 545.388349 197.156708 
L 546.258298 982.226877 
L 549.714957 982.226877 
L 550.587105 197.156708 
L 554.917773 197.156708 
L 555.77886 982.226877 
L 559.249573 982.226877 
L 560.110068 197.156708 
L 565.305457 197.156708 
L 566.174587 982.226877 
L 569.635782 982.226877 
L 570.504302 197.156708 
L 574.836585 197.156708 
L 575.699259 982.226877 
L 579.165487 982.226877 
L 580.033759 197.156708 
L 584.360564 197.156708 
L 586.097217 982.226877 
L 589.556963 982.226877 
L 590.422059 197.156708 
L 594.754449 197.156708 
L 595.620288 982.226877 
L 599.086134 982.226877 
L 599.950963 197.156708 
L 604.282184 197.156708 
L 605.14686 455.37889 
L 606.01186 982.226877 
L 609.477897 982.226877 
L 610.343393 197.156708 
L 614.677574 197.156708 
L 615.540459 982.226877 
L 619.008637 982.226877 
L 619.87013 197.156708 
L 625.067971 197.156708 
L 625.935081 982.226877 
L 629.396918 982.226877 
L 630.26547 197.156708 
L 634.595985 197.156708 
L 635.464194 982.226877 
L 638.927086 982.226877 
L 639.790466 197.156708 
L 644.990182 197.156708 
L 645.861516 982.226877 
L 649.319617 982.226877 
L 650.188944 197.156708 
L 654.515578 197.156708 
L 655.383463 725.809309 
L 656.248787 982.226877 
L 659.716787 982.226877 
L 660.582334 197.156708 
L 664.907722 197.156708 
L 665.778136 982.226877 
L 669.239026 982.226877 
L 670.107578 197.156708 
L 675.305337 197.156708 
L 676.169301 982.226877 
L 679.637809 982.226877 
L 680.50009 197.156708 
L 684.832627 197.156708 
L 685.694132 982.226877 
L 689.160042 982.226877 
L 690.027444 957.039259 
L 690.896027 197.156708 
L 695.226854 197.156708 
L 696.092547 982.226877 
L 699.553418 982.226877 
L 700.419931 197.156708 
L 705.61769 197.156708 
L 706.481012 982.226877 
L 709.944749 982.226877 
L 710.812875 197.156708 
L 715.144312 197.156708 
L 716.011181 982.226877 
L 720.338672 982.226877 
L 721.206665 197.156708 
L 725.536831 197.156708 
L 726.406667 982.226877 
L 729.870371 982.226877 
L 730.736642 197.156708 
L 735.933645 197.156708 
L 736.795621 982.226877 
L 740.263678 982.226877 
L 741.12892 197.156708 
L 745.461475 197.156708 
L 747.188604 982.226877 
L 750.652073 982.226877 
L 751.523758 197.156708 
L 755.852977 197.156708 
L 756.720398 982.226877 
L 760.18362 982.226877 
L 761.046466 197.156708 
L 766.244835 197.156708 
L 767.110166 982.226877 
L 770.575999 982.226877 
L 771.445212 197.156708 
L 776.639019 197.156708 
L 777.50245 982.226877 
L 780.967451 982.226877 
L 781.836562 197.156708 
L 786.16636 197.156708 
L 787.029174 982.226877 
L 791.360103 982.226877 
L 792.227105 197.156708 
L 796.558529 197.156708 
L 797.425912 982.226877 
L 800.887869 982.226877 
L 801.756402 197.156708 
L 806.951829 197.156708 
L 807.817281 982.226877 
L 811.287676 982.226877 
L 812.147619 197.156708 
L 817.346496 197.156708 
L 818.209145 982.226877 
L 821.674203 982.226877 
L 822.53982 197.156708 
L 826.873093 197.156708 
L 827.737026 908.365306 
L 828.603716 982.226877 
L 832.067135 982.226877 
L 832.934022 197.156708 
L 837.269996 197.156708 
L 838.129761 982.226877 
L 841.595264 982.226877 
L 842.461102 303.786879 
L 843.32663 197.156708 
L 847.660291 197.156708 
L 848.528443 982.226877 
L 851.991226 982.226877 
L 852.857287 197.156708 
L 858.052702 197.156708 
L 858.915917 982.226877 
L 862.381597 982.226877 
L 863.250689 197.156708 
L 867.578772 197.156708 
L 868.453195 207.596621 
L 869.310831 982.226877 
L 872.77479 982.226877 
L 873.640578 197.156708 
L 877.973298 197.156708 
L 878.839105 982.226877 
L 883.172169 982.226877 
L 884.039552 197.156708 
L 888.364299 197.156708 
L 889.232101 982.226877 
L 892.701187 982.226877 
L 893.56254 197.156708 
L 898.759016 197.156708 
L 899.625986 982.226877 
L 903.090301 982.226877 
L 903.958624 197.156708 
L 909.150404 197.156708 
L 910.019121 982.226877 
L 913.48268 982.226877 
L 914.348563 197.156708 
L 918.680362 197.156708 
L 919.549117 982.226877 
L 923.882899 982.226877 
L 924.741698 197.156708 
L 929.075321 197.156708 
L 929.9398 982.226877 
L 933.4078 982.226877 
L 934.273048 197.156708 
L 939.473399 197.156708 
L 940.333647 982.226877 
L 943.800662 982.226877 
L 944.665363 197.156708 
L 949.860149 197.156708 
L 950.727945 982.226877 
L 954.190353 982.226877 
L 955.055214 197.156708 
L 959.392096 197.156708 
L 960.252858 746.458767 
L 961.121448 982.226877 
L 964.582726 982.226877 
L 965.452936 197.156708 
L 969.781292 197.156708 
L 970.649971 982.226877 
L 974.114565 982.226877 
L 974.978415 494.397927 
L 975.84264 197.156708 
L 980.174344 197.156708 
L 981.039446 982.226877 
L 984.502852 982.226877 
L 985.370013 197.156708 
L 990.56577 197.156708 
L 991.435504 982.226877 
L 994.903256 982.226877 
L 995.763027 197.156708 
L 1000.093422 197.156708 
L 1000.96916 345.338233 
L 1001.827057 982.226877 
L 1005.290298 982.226877 
L 1006.154555 197.156708 
L 1010.487371 197.156708 
L 1011.356043 982.226877 
L 1014.822811 982.226877 
L 1015.685333 829.182797 
L 1016.550079 197.156708 
L 1020.878447 197.156708 
L 1021.771925 982.226877 
L 1025.210838 982.226877 
L 1026.076676 197.156708 
L 1031.279105 197.156708 
L 1032.142295 982.226877 
L 1037.335758 982.226877 
L 1038.205359 292.866173 
L 1039.070321 197.156708 
L 1046.863411 197.156708 
L 1047.728049 982.226877 
L 1052.927802 982.226877 
L 1053.792186 197.156708 
L 1060.726001 197.156708 
L 1061.588104 982.226877 
L 1066.782927 982.226877 
L 1067.650964 197.156708 
L 1073.713291 197.156708 
L 1074.579562 982.226877 
L 1080.644138 982.226877 
L 1081.507804 197.156708 
L 1087.57172 197.156708 
L 1088.439255 982.226877 
L 1093.635222 982.226877 
L 1094.498564 197.156708 
L 1100.562931 197.156708 
L 1101.430536 982.226877 
L 1106.631586 982.226877 
L 1107.495074 197.156708 
L 1113.556467 197.156708 
L 1114.422249 982.226877 
L 1119.615954 982.226877 
L 1120.48272 197.156708 
L 1125.677779 197.156708 
L 1126.548078 406.722924 
L 1127.41135 982.226877 
L 1131.748582 982.226877 
L 1132.610157 197.156708 
L 1138.674009 197.156708 
L 1139.543984 982.226877 
L 1144.741565 982.226877 
L 1145.602639 197.156708 
L 1150.799082 197.156708 
L 1151.662138 982.226877 
L 1156.858646 982.226877 
L 1157.730203 197.156708 
L 1163.788196 197.156708 
L 1164.655001 982.226877 
L 1168.987232 982.226877 
L 1169.856693 197.156708 
L 1175.914604 197.156708 
L 1176.779916 982.226877 
L 1181.112935 982.226877 
L 1181.978284 197.156708 
L 1187.175408 197.156708 
L 1188.041044 982.226877 
L 1193.239254 982.226877 
L 1194.102329 197.156708 
L 1199.300011 197.156708 
L 1200.169542 982.226877 
L 1204.498907 982.226877 
L 1205.362535 322.2363 
L 1206.228495 197.156708 
L 1211.425428 197.156708 
L 1212.293306 982.226877 
L 1216.624171 982.226877 
L 1217.488237 197.156708 
L 1222.685297 197.156708 
L 1223.554726 982.226877 
L 1227.880674 982.226877 
L 1228.74744 197.156708 
L 1233.946819 197.156708 
L 1234.809646 982.226877 
L 1240.007704 982.226877 
L 1240.872069 197.156708 
L 1246.072789 197.156708 
L 1246.937039 982.226877 
L 1251.268482 982.226877 
L 1252.135154 197.156708 
L 1257.335626 197.156708 
L 1258.194793 982.226877 
L 1262.527056 982.226877 
L 1263.397279 197.156708 
L 1268.586912 197.156708 
L 1269.453926 982.226877 
L 1273.786043 982.226877 
L 1274.654385 197.156708 
L 1279.847709 197.156708 
L 1280.718733 982.226877 
L 1285.046618 982.226877 
L 1285.9101 197.156708 
L 1291.106454 197.156708 
L 1291.972954 982.226877 
L 1296.307549 982.226877 
L 1297.17232 197.156708 
L 1302.368383 197.156708 
L 1303.232443 982.226877 
L 1307.567012 982.226877 
L 1308.430379 197.156708 
L 1312.760234 197.156708 
L 1313.624949 786.892779 
L 1314.492732 982.226877 
L 1317.958006 982.226877 
L 1318.827308 197.156708 
L 1324.018122 197.156708 
L 1324.88656 982.226877 
L 1329.218854 982.226877 
L 1330.081281 197.156708 
L 1335.281842 197.156708 
L 1336.1454 982.226877 
L 1340.475535 982.226877 
L 1341.341024 197.156708 
L 1345.673923 197.156708 
L 1346.538294 982.226877 
L 1350.874255 982.226877 
L 1351.739751 197.156708 
L 1356.934663 197.156708 
L 1357.796391 982.226877 
L 1362.134785 982.226877 
L 1362.9934 197.156708 
L 1367.323452 197.156708 
L 1368.197938 919.803653 
L 1369.058288 982.226877 
L 1372.520252 982.226877 
L 1373.387355 197.156708 
L 1378.587172 197.156708 
L 1379.449847 982.226877 
L 1383.781024 982.226877 
L 1384.649658 197.156708 
L 1388.980238 197.156708 
L 1389.842684 982.226877 
L 1394.175925 982.226877 
L 1395.039203 197.156708 
L 1400.238557 197.156708 
L 1401.106086 982.226877 
L 1404.569632 982.226877 
L 1405.435274 197.156708 
L 1410.629964 197.156708 
L 1411.495797 982.226877 
L 1415.826236 982.226877 
L 1416.692647 197.156708 
L 1421.022222 197.156708 
L 1421.887731 982.226877 
L 1426.219511 982.226877 
L 1427.085496 197.156708 
L 1431.418306 197.156708 
L 1432.283458 245.669605 
L 1433.148763 982.226877 
L 1436.615588 982.226877 
L 1437.481814 197.156708 
L 1442.676441 197.156708 
L 1443.542902 982.226877 
L 1447.006042 982.226877 
L 1447.872097 276.748033 
L 1448.73873 197.156708 
L 1453.069341 197.156708 
L 1453.935008 982.226877 
L 1458.264692 982.226877 
L 1459.133708 197.156708 
L 1463.462336 197.156708 
L 1464.333766 982.226877 
L 1468.66101 982.226877 
L 1469.524689 197.156708 
L 1473.856037 197.156708 
L 1474.722803 982.226877 
L 1479.052754 982.226877 
L 1479.918923 197.156708 
L 1484.251695 197.156708 
L 1485.114858 982.226877 
L 1489.449104 982.226877 
L 1490.312967 197.156708 
L 1494.644556 197.156708 
L 1495.511482 768.817609 
L 1496.376584 982.226877 
L 1499.843586 982.226877 
L 1500.705924 197.156708 
L 1505.035804 197.156708 
L 1505.904255 348.479387 
L 1506.770291 982.226877 
L 1510.232674 982.226877 
L 1511.098011 197.156708 
L 1516.297409 197.156708 
L 1517.162301 982.226877 
L 1520.625618 982.226877 
L 1521.491629 197.156708 
L 1526.687399 197.156708 
L 1527.556504 982.226877 
L 1531.021403 982.226877 
L 1531.884021 197.156708 
L 1537.085382 197.156708 
L 1537.948705 982.226877 
L 1541.415021 982.226877 
L 1542.277448 197.156708 
L 1547.477234 197.156708 
L 1548.341459 982.226877 
L 1551.808366 982.226877 
L 1552.671326 197.156708 
L 1557.003011 197.156708 
L 1557.868253 291.989849 
L 1558.734403 982.226877 
L 1562.201526 982.226877 
L 1563.068096 197.156708 
L 1567.397386 197.156708 
L 1568.262246 631.586927 
L 1569.130969 982.226877 
L 1572.592355 982.226877 
L 1573.458505 197.156708 
L 1577.789822 197.156708 
L 1578.655387 982.226877 
L 1582.987778 982.226877 
L 1583.854195 197.156708 
L 1588.183618 197.156708 
L 1589.048707 982.226877 
L 1593.381059 982.226877 
L 1594.243848 197.156708 
L 1598.577896 197.156708 
L 1599.44561 982.226877 
L 1603.771761 982.226877 
L 1604.638591 197.156708 
L 1608.968751 197.156708 
L 1609.839507 982.226877 
L 1614.165734 982.226877 
L 1615.031935 197.156708 
L 1619.361447 197.156708 
L 1620.227617 982.226877 
L 1623.693145 982.226877 
L 1624.559251 732.605365 
L 1625.425026 197.156708 
L 1629.756145 197.156708 
L 1630.623649 982.226877 
L 1634.089209 982.226877 
L 1634.952939 197.156708 
L 1640.14888 197.156708 
L 1641.015532 982.226877 
L 1644.479574 982.226877 
L 1645.346271 197.156708 
L 1650.542378 197.156708 
L 1651.408452 982.226877 
L 1654.87513 982.226877 
L 1655.74027 197.156708 
L 1660.071828 197.156708 
L 1660.936504 982.226877 
L 1665.267986 982.226877 
L 1666.134612 197.156708 
L 1670.463965 197.156708 
L 1671.329499 982.226877 
L 1675.661813 982.226877 
L 1676.525517 197.156708 
L 1680.856376 197.156708 
L 1681.722457 982.226877 
L 1685.185888 982.226877 
L 1686.054504 543.353211 
L 1686.918627 197.156708 
L 1691.249765 197.156708 
L 1692.1165 982.226877 
L 1695.582791 982.226877 
L 1696.446501 197.156708 
L 1701.643701 197.156708 
L 1702.508638 982.226877 
L 1705.973556 982.226877 
L 1706.843474 197.156708 
L 1711.172249 197.156708 
L 1712.038152 982.226877 
L 1716.369474 982.226877 
L 1717.233452 197.156708 
L 1721.5679 197.156708 
L 1722.441383 982.226877 
L 1726.762279 982.226877 
L 1727.629166 197.156708 
L 1731.961639 197.156708 
L 1732.8273 982.226877 
L 1736.291615 982.226877 
L 1737.152879 197.156708 
L 1742.353929 197.156708 
L 1743.221655 982.226877 
L 1746.686116 982.226877 
L 1747.548797 197.156708 
L 1751.88324 197.156708 
L 1752.744199 958.150172 
L 1753.611124 982.226877 
L 1757.077085 982.226877 
L 1757.94307 197.156708 
L 1762.275453 197.156708 
L 1763.139056 982.226877 
L 1767.467443 982.226877 
L 1768.333746 197.156708 
L 1772.667553 197.156708 
L 1773.530482 982.226877 
L 1776.995699 982.226877 
L 1777.861703 197.156708 
L 1783.061228 197.156708 
L 1783.923229 982.226877 
L 1787.388948 982.226877 
L 1788.254641 197.156708 
L 1792.590265 197.156708 
L 1793.451428 982.226877 
L 1797.788501 982.226877 
L 1798.654162 197.156708 
L 1802.978553 197.156708 
L 1803.846711 982.226877 
L 1808.177728 982.226877 
L 1809.041388 197.156708 
L 1813.372069 197.156708 
L 1814.238924 982.226877 
L 1817.706778 982.226877 
L 1818.570018 197.156708 
L 1823.767148 197.156708 
L 1824.630592 982.226877 
L 1828.095885 982.226877 
L 1828.961127 197.156708 
L 1833.299915 197.156708 
L 1834.161757 982.226877 
L 1837.625691 982.226877 
L 1838.491377 197.156708 
L 1845.419137 197.156708 
L 1846.287816 982.226877 
L 1854.079489 982.226877 
L 1854.945804 197.156708 
L 1862.741816 197.156708 
L 1863.609701 982.226877 
L 1870.535453 982.226877 
L 1871.400637 197.156708 
L 1879.198143 197.156708 
L 1880.06956 982.226877 
L 1886.991709 982.226877 
L 1887.85723 197.156708 
L 1895.653401 197.156708 
L 1896.517677 982.226877 
L 1902.5813 982.226877 
L 1903.446764 197.156708 
L 1911.247396 197.156708 
L 1912.108457 982.226877 
L 1918.173974 982.226877 
L 1919.037538 197.156708 
L 1925.966904 197.156708 
L 1926.833627 982.226877 
L 1932.894422 982.226877 
L 1933.76136 197.156708 
L 1940.692233 197.156708 
L 1941.558288 982.226877 
L 1947.620106 982.226877 
L 1948.48578 197.156708 
L 1955.413806 197.156708 
L 1956.28387 982.226877 
L 1961.477035 982.226877 
L 1962.341902 197.156708 
L 1969.271504 197.156708 
L 1970.137654 982.226877 
L 1975.33399 982.226877 
L 1976.200089 559.618525 
L 1977.066945 197.156708 
L 1983.129729 197.156708 
L 1983.997639 982.226877 
L 1989.191306 982.226877 
L 1990.059001 197.156708 
L 1996.986995 197.156708 
L 1997.856595 982.226877 
L 2003.050707 982.226877 
L 2003.915669 197.156708 
L 2009.97846 197.156708 
L 2010.847412 921.571333 
L 2011.713403 982.226877 
L 2016.044383 982.226877 
L 2016.908201 197.156708 
L 2023.840084 197.156708 
L 2024.70422 982.226877 
L 2029.032995 982.226877 
L 2029.901827 197.156708 
L 2036.827832 197.156708 
L 2037.696842 982.226877 
L 2042.024702 982.226877 
L 2042.892091 197.156708 
L 2048.953122 197.156708 
L 2049.822639 982.226877 
L 2055.018517 982.226877 
L 2055.886847 197.156708 
L 2061.947795 197.156708 
L 2062.813691 982.226877 
L 2067.144036 982.226877 
L 2068.008057 197.156708 
L 2074.070473 197.156708 
L 2074.936776 982.226877 
L 2080.133359 982.226877 
L 2081.0001 197.156708 
L 2086.197821 197.156708 
L 2087.067885 982.226877 
L 2092.260339 982.226877 
L 2093.126667 197.156708 
L 2098.324642 197.156708 
L 2099.189273 982.226877 
L 2104.386562 982.226877 
L 2105.252947 197.156708 
L 2110.452295 197.156708 
L 2111.316761 982.226877 
L 2115.644329 982.226877 
L 2116.511451 197.156708 
L 2122.580844 197.156708 
L 2123.447362 982.226877 
L 2127.775978 982.226877 
L 2128.63566 197.156708 
L 2134.700453 197.156708 
L 2135.565389 982.226877 
L 2139.903886 982.226877 
L 2140.761071 197.156708 
L 2145.960755 197.156708 
L 2146.826403 982.226877 
L 2151.155381 982.226877 
L 2152.027256 197.156708 
L 2157.21741 197.156708 
L 2158.083401 398.604111 
L 2158.950167 982.226877 
L 2162.414552 982.226877 
L 2163.28339 537.415148 
L 2164.147196 197.156708 
L 2169.343989 197.156708 
L 2170.210412 982.226877 
L 2174.539873 982.226877 
L 2175.406239 197.156708 
L 2180.60227 197.156708 
L 2181.468236 982.226877 
L 2185.79919 982.226877 
L 2186.665696 197.156708 
L 2191.86289 197.156708 
L 2192.728563 982.226877 
L 2197.058527 982.226877 
L 2197.924778 197.156708 
L 2203.121718 197.156708 
L 2203.991324 982.226877 
L 2208.317958 982.226877 
L 2209.185163 197.156708 
L 2214.383023 197.156708 
L 2215.249352 982.226877 
L 2219.577885 982.226877 
L 2220.444226 197.156708 
L 2225.642785 197.156708 
L 2226.507226 982.226877 
L 2230.83691 982.226877 
L 2231.704127 197.156708 
L 2236.900882 197.156708 
L 2237.770006 982.226877 
L 2241.229937 982.226877 
L 2242.10185 857.57437 
L 2242.962078 197.156708 
L 2248.160314 197.156708 
L 2249.030626 982.226877 
L 2252.490868 982.226877 
L 2253.356109 197.156708 
L 2258.557407 197.156708 
L 2259.419358 982.226877 
L 2263.751437 982.226877 
L 2264.616462 197.156708 
L 2269.81283 197.156708 
L 2270.679564 982.226877 
L 2275.009483 982.226877 
L 2275.8774 197.156708 
L 2281.072287 197.156708 
L 2281.938443 982.226877 
L 2285.40129 982.226877 
L 2286.271227 197.156708 
L 2291.468745 197.156708 
L 2292.337354 982.226877 
L 2296.668028 982.226877 
L 2297.529648 197.156708 
L 2302.727185 197.156708 
L 2303.590406 982.226877 
L 2307.056011 982.226877 
L 2307.92157 197.156708 
L 2313.117588 197.156708 
L 2313.984615 982.226877 
L 2318.313898 982.226877 
L 2319.185665 197.156708 
L 2324.380794 197.156708 
L 2325.246277 982.226877 
L 2328.706468 982.226877 
L 2329.577803 197.156708 
L 2334.770186 197.156708 
L 2335.638027 982.226877 
L 2339.967666 982.226877 
L 2340.835493 197.156708 
L 2345.171683 197.156708 
L 2346.032305 536.661256 
L 2346.895571 982.226877 
L 2350.360953 982.226877 
L 2351.229581 197.156708 
L 2356.425148 197.156708 
L 2357.289621 982.226877 
L 2360.756636 982.226877 
L 2361.625093 197.156708 
L 2366.819834 197.156708 
L 2367.683747 982.226877 
L 2372.021812 982.226877 
L 2372.885585 197.156708 
L 2377.213922 197.156708 
L 2378.080796 982.226877 
L 2382.408142 982.226877 
L 2383.273447 197.156708 
L 2388.471771 197.156708 
L 2389.34444 982.226877 
L 2392.802643 982.226877 
L 2393.670096 197.156708 
L 2398.862854 197.156708 
L 2399.734265 982.226877 
L 2403.194024 982.226877 
L 2404.058319 197.156708 
L 2409.256174 197.156708 
L 2410.123283 982.226877 
L 2413.589155 982.226877 
L 2414.453907 642.791187 
L 2415.319415 197.156708 
L 2419.64995 197.156708 
L 2420.516431 982.226877 
L 2424.845619 982.226877 
L 2425.714997 197.156708 
L 2430.04313 197.156708 
L 2430.910729 982.226877 
L 2435.241658 982.226877 
L 2436.105883 197.156708 
L 2440.436259 197.156708 
L 2441.303896 410.351526 
L 2442.168731 982.226877 
L 2445.633255 982.226877 
L 2446.504558 197.156708 
L 2451.69604 197.156708 
L 2452.561561 982.226877 
L 2456.030266 982.226877 
L 2456.892935 197.156708 
L 2462.088158 197.156708 
L 2462.954829 982.226877 
L 2466.419367 982.226877 
L 2467.285441 197.156708 
L 2472.481884 197.156708 
L 2473.348365 982.226877 
L 2476.816206 982.226877 
L 2477.678061 197.156708 
L 2482.876938 197.156708 
L 2483.744937 982.226877 
L 2487.207492 982.226877 
L 2488.073039 197.156708 
L 2493.271757 197.156708 
L 2494.13541 982.226877 
L 2497.599573 982.226877 
L 2498.465774 197.156708 
L 2503.662275 197.156708 
L 2504.535757 982.226877 
L 2507.992543 982.226877 
L 2508.858604 197.156708 
L 2514.055943 197.156708 
L 2514.921973 982.226877 
L 2518.388721 982.226877 
L 2519.254801 197.156708 
L 2524.44843 197.156708 
L 2525.315693 982.226877 
L 2528.779887 982.226877 
L 2529.645916 197.156708 
L 2534.842671 197.156708 
L 2535.708408 982.226877 
L 2539.173435 982.226877 
L 2540.039274 197.156708 
L 2545.244625 197.156708 
L 2546.101531 982.226877 
L 2549.570249 982.226877 
L 2550.432053 197.156708 
L 2555.629068 197.156708 
L 2556.496782 982.226877 
L 2559.958911 982.226877 
L 2560.824483 197.156708 
L 2566.022038 197.156708 
L 2566.898984 982.226877 
L 2570.352065 982.226877 
L 2571.217853 197.156708 
L 2576.414595 197.156708 
L 2577.281463 982.226877 
L 2580.746274 982.226877 
L 2581.611808 197.156708 
L 2586.812432 197.156708 
L 2587.676015 982.226877 
L 2591.139142 982.226877 
L 2592.007897 197.156708 
L 2597.203121 197.156708 
L 2598.069081 982.226877 
L 2601.533237 982.226877 
L 2602.399228 197.156708 
L 2607.601562 197.156708 
L 2608.461301 982.226877 
L 2611.926124 982.226877 
L 2612.79845 197.156708 
L 2617.122511 197.156708 
L 2617.988966 413.469421 
L 2618.856641 982.226877 
L 2622.32485 982.226877 
L 2623.189164 197.156708 
L 2627.518607 197.156708 
L 2628.39064 842.399562 
L 2629.25552 982.226877 
L 2632.712394 982.226877 
L 2633.580463 197.156708 
L 2637.912008 197.156708 
L 2638.775967 982.226877 
L 2644.841 982.226877 
L 2645.709158 665.367667 
L 2646.575309 197.156708 
L 2653.501613 197.156708 
L 2654.3666 982.226877 
L 2659.563984 982.226877 
L 2660.428006 197.156708 
L 2667.356801 197.156708 
L 2668.224794 982.226877 
L 2674.28653 982.226877 
L 2675.153214 197.156708 
L 2682.081163 197.156708 
L 2682.949277 982.226877 
L 2688.143617 982.226877 
L 2689.012976 197.156708 
L 2695.939566 197.156708 
L 2696.804401 982.226877 
L 2702.001144 982.226877 
L 2702.871341 197.156708 
L 2708.933274 197.156708 
L 2709.7987 929.455141 
L 2710.66283 982.226877 
L 2715.858378 982.226877 
L 2716.725316 197.156708 
L 2722.787814 197.156708 
L 2723.656226 982.226877 
L 2728.855262 982.226877 
L 2729.716774 197.156708 
L 2735.784724 197.156708 
L 2736.6482 982.226877 
L 2741.843163 982.226877 
L 2742.711537 197.156708 
L 2748.773699 197.156708 
L 2749.640186 982.226877 
L 2750.504214 982.226877 
L 2750.504214 982.226877 
" style="fill:none;stroke:#008000;stroke-linecap:square;stroke-width:3;"/>
   </g>
   <g id="line2d_15">
    <path clip-path="url(#p23b651b93f)" d="M 220.593286 410.303946 
L 221.458528 197.156708 
L 222.324964 197.156708 
L 224.056775 381.351593 
L 224.931554 197.156708 
L 225.795893 197.156708 
L 226.660036 341.447129 
L 227.527711 336.520687 
L 228.389115 982.226877 
L 230.120443 982.226877 
L 230.988372 197.156708 
L 233.587916 197.156708 
L 234.450825 982.226877 
L 237.917319 982.226877 
L 238.780547 197.156708 
L 241.381564 197.156708 
L 242.250853 452.273717 
L 243.112289 982.226877 
L 244.847379 982.226877 
L 245.713364 197.156708 
L 248.311408 197.156708 
L 249.17644 982.226877 
L 252.644922 982.226877 
L 253.512312 197.156708 
L 255.24601 197.156708 
L 256.104294 239.309997 
L 256.969339 982.226877 
L 259.571004 982.226877 
L 260.436176 197.156708 
L 263.031875 197.156708 
L 263.902416 982.226877 
L 267.363135 982.226877 
L 268.229456 197.156708 
L 270.828282 197.156708 
L 271.695455 982.226877 
L 274.293569 982.226877 
L 275.163188 667.084091 
L 276.030044 197.156708 
L 278.627617 197.156708 
L 279.490311 982.226877 
L 282.09009 982.226877 
L 282.955598 495.517938 
L 283.819092 197.156708 
L 286.419062 197.156708 
L 287.289545 982.226877 
L 290.749482 982.226877 
L 291.613281 197.156708 
L 294.212253 197.156708 
L 295.087559 982.226877 
L 298.54599 982.226877 
L 299.409802 197.156708 
L 302.006258 197.156708 
L 302.87371 982.226877 
L 306.337841 982.226877 
L 307.205675 197.156708 
L 310.670225 197.156708 
L 311.536883 982.226877 
L 315.001738 982.226877 
L 315.86698 197.156708 
L 318.4628 197.156708 
L 319.332159 982.226877 
L 322.796378 982.226877 
L 323.663952 512.309307 
L 324.528151 197.156708 
L 327.125585 197.156708 
L 327.990039 982.226877 
L 331.455421 982.226877 
L 332.322588 197.156708 
L 335.791605 197.156708 
L 336.65839 982.226877 
L 340.120176 982.226877 
L 340.982476 197.156708 
L 344.449771 197.156708 
L 345.320756 982.226877 
L 348.78021 982.226877 
L 349.647002 197.156708 
L 353.107492 197.156708 
L 353.979227 982.226877 
L 357.439711 982.226877 
L 358.305321 197.156708 
L 361.77137 197.156708 
L 362.635589 982.226877 
L 366.100171 982.226877 
L 366.969104 197.156708 
L 370.436945 197.156708 
L 371.298095 982.226877 
L 375.634977 982.226877 
L 376.493846 197.156708 
L 379.091757 197.156708 
L 379.958828 982.226877 
L 384.289147 982.226877 
L 385.153486 197.156708 
L 388.618811 197.156708 
L 389.486658 982.226877 
L 392.95725 982.226877 
L 393.815299 197.156708 
L 397.284443 197.156708 
L 398.146114 982.226877 
L 402.479457 982.226877 
L 403.343574 197.156708 
L 406.81113 197.156708 
L 407.675088 982.226877 
L 411.137757 982.226877 
L 412.004047 197.156708 
L 415.470903 197.156708 
L 416.336958 982.226877 
L 420.666819 982.226877 
L 421.538237 197.156708 
L 424.99473 197.156708 
L 425.86447 982.226877 
L 430.191695 982.226877 
L 431.063525 197.156708 
L 434.523717 197.156708 
L 435.394092 982.226877 
L 438.854518 982.226877 
L 439.718858 197.156708 
L 443.18579 197.156708 
L 444.04971 982.226877 
L 448.38266 982.226877 
L 449.254344 197.156708 
L 452.711257 197.156708 
L 453.578729 982.226877 
L 457.908005 982.226877 
L 458.776831 197.156708 
L 462.240154 197.156708 
L 463.106667 982.226877 
L 467.438892 982.226877 
L 468.304368 197.156708 
L 471.767883 197.156708 
L 472.631231 982.226877 
L 476.96392 982.226877 
L 477.827344 197.156708 
L 481.299366 197.156708 
L 482.160395 982.226877 
L 486.489348 982.226877 
L 487.356184 197.156708 
L 490.819324 197.156708 
L 491.686783 982.226877 
L 496.020787 982.226877 
L 496.884713 197.156708 
L 500.349479 197.156708 
L 501.215623 530.326571 
L 502.079219 982.226877 
L 505.546622 982.226877 
L 506.409627 477.091108 
L 507.276959 197.156708 
L 510.741655 197.156708 
L 511.607144 982.226877 
L 515.937597 982.226877 
L 516.803543 197.156708 
L 520.267903 197.156708 
L 521.136588 982.226877 
L 525.468947 982.226877 
L 526.32974 197.156708 
L 529.79525 197.156708 
L 530.662931 982.226877 
L 534.99001 982.226877 
L 535.857393 197.156708 
L 540.187438 197.156708 
L 541.054802 982.226877 
L 545.388349 982.226877 
L 546.258298 197.156708 
L 549.714957 197.156708 
L 550.587105 982.226877 
L 554.917773 982.226877 
L 555.77886 197.156708 
L 559.249573 197.156708 
L 560.110068 982.226877 
L 564.440635 982.226877 
L 565.305457 220.54663 
L 566.174587 197.156708 
L 569.635782 197.156708 
L 570.504302 982.226877 
L 574.836585 982.226877 
L 575.699259 197.156708 
L 579.165487 197.156708 
L 580.033759 982.226877 
L 584.360564 982.226877 
L 585.225641 197.156708 
L 589.556963 197.156708 
L 590.422059 982.226877 
L 594.754449 982.226877 
L 595.620288 197.156708 
L 599.086134 197.156708 
L 599.950963 982.226877 
L 604.282184 982.226877 
L 605.14686 197.156708 
L 609.477897 197.156708 
L 610.343393 982.226877 
L 614.677574 982.226877 
L 615.540459 197.156708 
L 619.008637 197.156708 
L 619.87013 982.226877 
L 624.204782 982.226877 
L 625.067971 899.122628 
L 625.935081 197.156708 
L 629.396918 197.156708 
L 630.26547 982.226877 
L 634.595985 982.226877 
L 635.464194 197.156708 
L 638.927086 197.156708 
L 639.790466 369.533139 
L 640.658649 982.226877 
L 644.990182 982.226877 
L 645.861516 197.156708 
L 649.319617 197.156708 
L 650.188944 982.226877 
L 654.515578 982.226877 
L 655.383463 197.156708 
L 659.716787 197.156708 
L 660.582334 982.226877 
L 664.907722 982.226877 
L 665.778136 197.156708 
L 669.239026 197.156708 
L 670.107578 982.226877 
L 675.305337 982.226877 
L 676.169301 197.156708 
L 679.637809 197.156708 
L 680.50009 982.226877 
L 684.832627 982.226877 
L 685.694132 197.156708 
L 690.027444 197.156708 
L 690.896027 982.226877 
L 695.226854 982.226877 
L 696.092547 197.156708 
L 699.553418 197.156708 
L 700.419931 982.226877 
L 705.61769 982.226877 
L 706.481012 197.156708 
L 709.944749 197.156708 
L 710.812875 982.226877 
L 715.144312 982.226877 
L 716.011181 197.156708 
L 720.338672 197.156708 
L 721.206665 982.226877 
L 725.536831 982.226877 
L 726.406667 197.156708 
L 729.870371 197.156708 
L 730.736642 982.226877 
L 735.933645 982.226877 
L 736.795621 197.156708 
L 740.263678 197.156708 
L 741.12892 982.226877 
L 745.461475 982.226877 
L 746.324271 197.156708 
L 750.652073 197.156708 
L 751.523758 982.226877 
L 755.852977 982.226877 
L 756.720398 197.156708 
L 760.18362 197.156708 
L 761.046466 232.748409 
L 761.914148 982.226877 
L 766.244835 982.226877 
L 767.110166 197.156708 
L 770.575999 197.156708 
L 771.445212 982.226877 
L 776.639019 982.226877 
L 777.50245 197.156708 
L 780.967451 197.156708 
L 781.836562 982.226877 
L 786.16636 982.226877 
L 787.029174 197.156708 
L 791.360103 197.156708 
L 792.227105 982.226877 
L 796.558529 982.226877 
L 797.425912 197.156708 
L 800.887869 197.156708 
L 801.756402 371.246605 
L 802.624668 982.226877 
L 806.951829 982.226877 
L 807.817281 197.156708 
L 811.287676 197.156708 
L 812.147619 982.226877 
L 817.346496 982.226877 
L 818.209145 197.156708 
L 821.674203 197.156708 
L 822.53982 982.226877 
L 826.873093 982.226877 
L 827.737026 197.156708 
L 832.067135 197.156708 
L 832.934022 982.226877 
L 837.269996 982.226877 
L 838.129761 197.156708 
L 842.461102 197.156708 
L 843.32663 982.226877 
L 847.660291 982.226877 
L 848.528443 197.156708 
L 851.991226 197.156708 
L 852.857287 982.226877 
L 858.052702 982.226877 
L 858.915917 197.156708 
L 862.381597 197.156708 
L 863.250689 982.226877 
L 867.578772 982.226877 
L 868.453195 197.156708 
L 872.77479 197.156708 
L 873.640578 982.226877 
L 877.973298 982.226877 
L 878.839105 197.156708 
L 883.172169 197.156708 
L 884.039552 982.226877 
L 888.364299 982.226877 
L 889.232101 197.156708 
L 892.701187 197.156708 
L 893.56254 950.776618 
L 894.427941 982.226877 
L 898.759016 982.226877 
L 899.625986 197.156708 
L 903.090301 197.156708 
L 903.958624 982.226877 
L 908.285264 982.226877 
L 909.150404 658.784971 
L 910.019121 197.156708 
L 913.48268 197.156708 
L 914.348563 982.226877 
L 918.680362 982.226877 
L 919.549117 197.156708 
L 923.882899 197.156708 
L 924.741698 982.226877 
L 929.075321 982.226877 
L 929.9398 197.156708 
L 933.4078 197.156708 
L 934.273048 625.479532 
L 935.134382 982.226877 
L 939.473399 982.226877 
L 940.333647 197.156708 
L 943.800662 197.156708 
L 944.665363 982.226877 
L 949.860149 982.226877 
L 950.727945 197.156708 
L 954.190353 197.156708 
L 955.055214 982.226877 
L 959.392096 982.226877 
L 960.252858 197.156708 
L 964.582726 197.156708 
L 965.452936 982.226877 
L 969.781292 982.226877 
L 970.649971 197.156708 
L 974.978415 197.156708 
L 975.84264 982.226877 
L 980.174344 982.226877 
L 981.039446 197.156708 
L 984.502852 197.156708 
L 985.370013 982.226877 
L 990.56577 982.226877 
L 991.435504 197.156708 
L 994.903256 197.156708 
L 995.763027 982.226877 
L 1000.093422 982.226877 
L 1000.96916 197.156708 
L 1005.290298 197.156708 
L 1006.154555 982.226877 
L 1010.487371 982.226877 
L 1011.356043 197.156708 
L 1015.685333 197.156708 
L 1016.550079 982.226877 
L 1020.878447 982.226877 
L 1021.771925 197.156708 
L 1025.210838 197.156708 
L 1026.076676 982.226877 
L 1031.279105 982.226877 
L 1032.142295 197.156708 
L 1038.205359 197.156708 
L 1039.070321 982.226877 
L 1046.863411 982.226877 
L 1047.728049 197.156708 
L 1052.927802 197.156708 
L 1053.792186 982.226877 
L 1060.726001 982.226877 
L 1061.588104 197.156708 
L 1066.782927 197.156708 
L 1067.650964 982.226877 
L 1073.713291 982.226877 
L 1074.579562 197.156708 
L 1080.644138 197.156708 
L 1081.507804 982.226877 
L 1087.57172 982.226877 
L 1088.439255 197.156708 
L 1093.635222 197.156708 
L 1094.498564 982.226877 
L 1100.562931 982.226877 
L 1101.430536 197.156708 
L 1106.631586 197.156708 
L 1107.495074 982.226877 
L 1113.556467 982.226877 
L 1114.422249 197.156708 
L 1119.615954 197.156708 
L 1120.48272 982.226877 
L 1125.677779 982.226877 
L 1126.548078 197.156708 
L 1131.748582 197.156708 
L 1132.610157 982.226877 
L 1138.674009 982.226877 
L 1139.543984 197.156708 
L 1144.741565 197.156708 
L 1145.602639 982.226877 
L 1150.799082 982.226877 
L 1151.662138 197.156708 
L 1156.858646 197.156708 
L 1157.730203 982.226877 
L 1162.923813 982.226877 
L 1163.788196 460.462949 
L 1164.655001 197.156708 
L 1168.987232 197.156708 
L 1169.856693 982.226877 
L 1175.050239 982.226877 
L 1176.779916 197.156708 
L 1181.112935 197.156708 
L 1181.978284 982.226877 
L 1187.175408 982.226877 
L 1188.041044 197.156708 
L 1193.239254 197.156708 
L 1194.102329 982.226877 
L 1199.300011 982.226877 
L 1200.169542 197.156708 
L 1205.362535 197.156708 
L 1206.228495 982.226877 
L 1211.425428 982.226877 
L 1212.293306 197.156708 
L 1216.624171 197.156708 
L 1217.488237 982.226877 
L 1222.685297 982.226877 
L 1223.554726 197.156708 
L 1227.880674 197.156708 
L 1228.74744 982.226877 
L 1233.946819 982.226877 
L 1234.809646 197.156708 
L 1240.007704 197.156708 
L 1240.872069 982.226877 
L 1246.072789 982.226877 
L 1246.937039 197.156708 
L 1251.268482 197.156708 
L 1252.135154 982.226877 
L 1257.335626 982.226877 
L 1258.194793 197.156708 
L 1262.527056 197.156708 
L 1263.397279 982.226877 
L 1268.586912 982.226877 
L 1269.453926 197.156708 
L 1273.786043 197.156708 
L 1274.654385 982.226877 
L 1279.847709 982.226877 
L 1280.718733 197.156708 
L 1285.046618 197.156708 
L 1285.9101 982.226877 
L 1291.106454 982.226877 
L 1291.972954 197.156708 
L 1296.307549 197.156708 
L 1297.17232 982.226877 
L 1302.368383 982.226877 
L 1303.232443 197.156708 
L 1307.567012 197.156708 
L 1308.430379 982.226877 
L 1312.760234 982.226877 
L 1313.624949 197.156708 
L 1317.958006 197.156708 
L 1318.827308 625.090629 
L 1319.690211 982.226877 
L 1324.018122 982.226877 
L 1324.88656 197.156708 
L 1329.218854 197.156708 
L 1330.081281 982.226877 
L 1335.281842 982.226877 
L 1336.1454 197.156708 
L 1340.475535 197.156708 
L 1341.341024 982.226877 
L 1345.673923 982.226877 
L 1346.538294 197.156708 
L 1350.874255 197.156708 
L 1351.739751 982.226877 
L 1356.934663 982.226877 
L 1357.796391 197.156708 
L 1362.134785 197.156708 
L 1362.9934 982.226877 
L 1367.323452 982.226877 
L 1368.197938 197.156708 
L 1372.520252 197.156708 
L 1373.387355 982.226877 
L 1378.587172 982.226877 
L 1379.449847 197.156708 
L 1383.781024 197.156708 
L 1384.649658 982.226877 
L 1388.980238 982.226877 
L 1389.842684 197.156708 
L 1394.175925 197.156708 
L 1395.039203 982.226877 
L 1399.370361 982.226877 
L 1400.238557 960.227149 
L 1401.106086 197.156708 
L 1404.569632 197.156708 
L 1405.435274 529.702097 
L 1406.306031 982.226877 
L 1410.629964 982.226877 
L 1411.495797 197.156708 
L 1415.826236 197.156708 
L 1416.692647 982.226877 
L 1421.022222 982.226877 
L 1421.887731 197.156708 
L 1426.219511 197.156708 
L 1427.085496 982.226877 
L 1431.418306 982.226877 
L 1432.283458 197.156708 
L 1436.615588 197.156708 
L 1437.481814 982.226877 
L 1442.676441 982.226877 
L 1443.542902 197.156708 
L 1447.872097 197.156708 
L 1448.73873 982.226877 
L 1453.069341 982.226877 
L 1453.935008 197.156708 
L 1458.264692 197.156708 
L 1459.133708 982.226877 
L 1463.462336 982.226877 
L 1464.333766 197.156708 
L 1468.66101 197.156708 
L 1469.524689 982.226877 
L 1473.856037 982.226877 
L 1474.722803 197.156708 
L 1479.052754 197.156708 
L 1479.918923 982.226877 
L 1484.251695 982.226877 
L 1485.114858 197.156708 
L 1489.449104 197.156708 
L 1490.312967 982.226877 
L 1494.644556 982.226877 
L 1495.511482 197.156708 
L 1499.843586 197.156708 
L 1500.705924 982.226877 
L 1505.035804 982.226877 
L 1505.904255 197.156708 
L 1510.232674 197.156708 
L 1511.098011 982.226877 
L 1515.430947 982.226877 
L 1516.297409 295.199783 
L 1517.162301 197.156708 
L 1520.625618 197.156708 
L 1521.491629 982.226877 
L 1525.822716 982.226877 
L 1526.687399 406.318727 
L 1527.556504 197.156708 
L 1531.021403 197.156708 
L 1531.884021 982.226877 
L 1536.216252 982.226877 
L 1537.085382 412.137151 
L 1537.948705 197.156708 
L 1541.415021 197.156708 
L 1542.277448 982.226877 
L 1546.611522 982.226877 
L 1547.477234 315.266055 
L 1548.341459 197.156708 
L 1551.808366 197.156708 
L 1552.671326 982.226877 
L 1557.003011 982.226877 
L 1557.868253 197.156708 
L 1562.201526 197.156708 
L 1563.068096 982.226877 
L 1567.397386 982.226877 
L 1568.262246 197.156708 
L 1572.592355 197.156708 
L 1573.458505 982.226877 
L 1577.789822 982.226877 
L 1578.655387 197.156708 
L 1582.987778 197.156708 
L 1583.854195 982.226877 
L 1588.183618 982.226877 
L 1589.048707 197.156708 
L 1593.381059 197.156708 
L 1594.243848 982.226877 
L 1598.577896 982.226877 
L 1599.44561 197.156708 
L 1603.771761 197.156708 
L 1604.638591 982.226877 
L 1608.968751 982.226877 
L 1609.839507 197.156708 
L 1614.165734 197.156708 
L 1615.031935 982.226877 
L 1619.361447 982.226877 
L 1620.227617 197.156708 
L 1624.559251 197.156708 
L 1625.425026 982.226877 
L 1629.756145 982.226877 
L 1630.623649 197.156708 
L 1634.089209 197.156708 
L 1634.952939 645.158511 
L 1635.818911 982.226877 
L 1640.14888 982.226877 
L 1641.015532 197.156708 
L 1644.479574 197.156708 
L 1645.346271 982.226877 
L 1649.676488 982.226877 
L 1650.542378 202.193367 
L 1651.408452 197.156708 
L 1654.87513 197.156708 
L 1655.74027 982.226877 
L 1660.071828 982.226877 
L 1660.936504 197.156708 
L 1665.267986 197.156708 
L 1666.134612 982.226877 
L 1670.463965 982.226877 
L 1671.329499 197.156708 
L 1675.661813 197.156708 
L 1676.525517 982.226877 
L 1680.856376 982.226877 
L 1681.722457 197.156708 
L 1686.054504 197.156708 
L 1686.918627 982.226877 
L 1691.249765 982.226877 
L 1692.1165 197.156708 
L 1695.582791 197.156708 
L 1696.446501 982.226877 
L 1700.783085 982.226877 
L 1701.643701 502.514009 
L 1702.508638 197.156708 
L 1705.973556 197.156708 
L 1706.843474 982.226877 
L 1711.172249 982.226877 
L 1712.038152 197.156708 
L 1716.369474 197.156708 
L 1717.233452 982.226877 
L 1721.5679 982.226877 
L 1722.441383 197.156708 
L 1726.762279 197.156708 
L 1727.629166 982.226877 
L 1731.961639 982.226877 
L 1732.8273 197.156708 
L 1736.291615 197.156708 
L 1737.152879 522.576131 
L 1738.023337 982.226877 
L 1742.353929 982.226877 
L 1743.221655 197.156708 
L 1746.686116 197.156708 
L 1747.548797 982.226877 
L 1751.88324 982.226877 
L 1752.744199 197.156708 
L 1757.077085 197.156708 
L 1757.94307 982.226877 
L 1762.275453 982.226877 
L 1763.139056 197.156708 
L 1767.467443 197.156708 
L 1768.333746 982.226877 
L 1772.667553 982.226877 
L 1773.530482 197.156708 
L 1776.995699 197.156708 
L 1777.861703 519.959388 
L 1778.729581 982.226877 
L 1783.061228 982.226877 
L 1783.923229 197.156708 
L 1787.388948 197.156708 
L 1788.254641 982.226877 
L 1792.590265 982.226877 
L 1793.451428 197.156708 
L 1797.788501 197.156708 
L 1798.654162 982.226877 
L 1802.978553 982.226877 
L 1803.846711 197.156708 
L 1808.177728 197.156708 
L 1809.041388 982.226877 
L 1813.372069 982.226877 
L 1814.238924 197.156708 
L 1817.706778 197.156708 
L 1818.570018 974.419611 
L 1819.437128 982.226877 
L 1822.899314 982.226877 
L 1823.767148 533.741027 
L 1824.630592 197.156708 
L 1828.095885 197.156708 
L 1828.961127 982.226877 
L 1833.299915 982.226877 
L 1834.161757 197.156708 
L 1837.625691 197.156708 
L 1838.491377 361.761581 
L 1839.358252 982.226877 
L 1845.419137 982.226877 
L 1846.287816 197.156708 
L 1854.079489 197.156708 
L 1854.945804 982.226877 
L 1862.741816 982.226877 
L 1863.609701 197.156708 
L 1870.535453 197.156708 
L 1871.400637 982.226877 
L 1879.198143 982.226877 
L 1880.06956 197.156708 
L 1886.991709 197.156708 
L 1887.85723 982.226877 
L 1895.653401 982.226877 
L 1896.517677 197.156708 
L 1902.5813 197.156708 
L 1903.446764 982.226877 
L 1911.247396 982.226877 
L 1912.108457 197.156708 
L 1918.173974 197.156708 
L 1919.037538 982.226877 
L 1925.966904 982.226877 
L 1926.833627 197.156708 
L 1932.894422 197.156708 
L 1933.76136 982.226877 
L 1940.692233 982.226877 
L 1941.558288 197.156708 
L 1947.620106 197.156708 
L 1948.48578 982.226877 
L 1955.413806 982.226877 
L 1956.28387 197.156708 
L 1961.477035 197.156708 
L 1962.341902 982.226877 
L 1969.271504 982.226877 
L 1970.137654 197.156708 
L 1976.200089 197.156708 
L 1977.066945 982.226877 
L 1983.129729 982.226877 
L 1983.997639 197.156708 
L 1989.191306 197.156708 
L 1990.059001 877.951687 
L 1990.923429 982.226877 
L 1996.986995 982.226877 
L 1997.856595 197.156708 
L 2003.050707 197.156708 
L 2003.915669 982.226877 
L 2009.97846 982.226877 
L 2010.847412 197.156708 
L 2016.044383 197.156708 
L 2016.908201 982.226877 
L 2023.840084 982.226877 
L 2024.70422 197.156708 
L 2029.032995 197.156708 
L 2029.901827 285.902347 
L 2030.765308 982.226877 
L 2035.965094 982.226877 
L 2036.827832 937.128038 
L 2037.696842 197.156708 
L 2042.024702 197.156708 
L 2042.892091 982.226877 
L 2048.953122 982.226877 
L 2049.822639 197.156708 
L 2055.018517 197.156708 
L 2055.886847 982.226877 
L 2061.947795 982.226877 
L 2062.813691 197.156708 
L 2067.144036 197.156708 
L 2068.008057 982.226877 
L 2074.070473 982.226877 
L 2074.936776 197.156708 
L 2080.133359 197.156708 
L 2081.0001 982.226877 
L 2086.197821 982.226877 
L 2087.067885 197.156708 
L 2092.260339 197.156708 
L 2093.126667 982.226877 
L 2098.324642 982.226877 
L 2099.189273 197.156708 
L 2104.386562 197.156708 
L 2105.252947 982.226877 
L 2110.452295 982.226877 
L 2111.316761 197.156708 
L 2115.644329 197.156708 
L 2116.511451 872.268545 
L 2117.377404 982.226877 
L 2122.580844 982.226877 
L 2123.447362 197.156708 
L 2127.775978 197.156708 
L 2128.63566 982.226877 
L 2133.834156 982.226877 
L 2134.700453 383.148419 
L 2135.565389 197.156708 
L 2139.903886 197.156708 
L 2140.761071 982.226877 
L 2145.960755 982.226877 
L 2146.826403 197.156708 
L 2151.155381 197.156708 
L 2152.027256 982.226877 
L 2157.21741 982.226877 
L 2158.083401 197.156708 
L 2163.28339 197.156708 
L 2164.147196 982.226877 
L 2169.343989 982.226877 
L 2170.210412 197.156708 
L 2174.539873 197.156708 
L 2175.406239 982.226877 
L 2180.60227 982.226877 
L 2181.468236 197.156708 
L 2185.79919 197.156708 
L 2186.665696 982.226877 
L 2191.86289 982.226877 
L 2192.728563 197.156708 
L 2197.058527 197.156708 
L 2197.924778 982.226877 
L 2203.121718 982.226877 
L 2203.991324 197.156708 
L 2208.317958 197.156708 
L 2209.185163 982.226877 
L 2214.383023 982.226877 
L 2215.249352 197.156708 
L 2219.577885 197.156708 
L 2220.444226 982.226877 
L 2225.642785 982.226877 
L 2226.507226 197.156708 
L 2230.83691 197.156708 
L 2231.704127 982.226877 
L 2236.900882 982.226877 
L 2237.770006 197.156708 
L 2242.10185 197.156708 
L 2242.962078 982.226877 
L 2247.298116 982.226877 
L 2248.160314 661.256574 
L 2249.030626 197.156708 
L 2252.490868 197.156708 
L 2253.356109 982.226877 
L 2258.557407 982.226877 
L 2259.419358 197.156708 
L 2263.751437 197.156708 
L 2264.616462 982.226877 
L 2269.81283 982.226877 
L 2270.679564 197.156708 
L 2275.009483 197.156708 
L 2275.8774 982.226877 
L 2281.072287 982.226877 
L 2281.938443 197.156708 
L 2285.40129 197.156708 
L 2286.271227 982.226877 
L 2291.468745 982.226877 
L 2292.337354 197.156708 
L 2296.668028 197.156708 
L 2297.529648 982.226877 
L 2302.727185 982.226877 
L 2303.590406 197.156708 
L 2307.056011 197.156708 
L 2307.92157 479.768151 
L 2308.787059 982.226877 
L 2313.117588 982.226877 
L 2313.984615 197.156708 
L 2318.313898 197.156708 
L 2319.185665 982.226877 
L 2324.380794 982.226877 
L 2325.246277 197.156708 
L 2328.706468 197.156708 
L 2329.577803 982.226877 
L 2334.770186 982.226877 
L 2335.638027 197.156708 
L 2339.967666 197.156708 
L 2340.835493 982.226877 
L 2345.171683 982.226877 
L 2346.032305 197.156708 
L 2350.360953 197.156708 
L 2351.229581 982.226877 
L 2356.425148 982.226877 
L 2357.289621 197.156708 
L 2360.756636 197.156708 
L 2361.625093 948.443839 
L 2362.486071 982.226877 
L 2366.819834 982.226877 
L 2367.683747 197.156708 
L 2372.021812 197.156708 
L 2372.885585 982.226877 
L 2377.213922 982.226877 
L 2378.080796 197.156708 
L 2382.408142 197.156708 
L 2383.273447 982.226877 
L 2387.605812 982.226877 
L 2388.471771 964.871316 
L 2389.34444 197.156708 
L 2392.802643 197.156708 
L 2393.670096 982.226877 
L 2398.862854 982.226877 
L 2399.734265 197.156708 
L 2403.194024 197.156708 
L 2404.058319 982.226877 
L 2409.256174 982.226877 
L 2410.123283 197.156708 
L 2414.453907 197.156708 
L 2415.319415 982.226877 
L 2419.64995 982.226877 
L 2420.516431 197.156708 
L 2424.845619 197.156708 
L 2425.714997 982.226877 
L 2430.04313 982.226877 
L 2430.910729 197.156708 
L 2435.241658 197.156708 
L 2436.105883 982.226877 
L 2440.436259 982.226877 
L 2441.303896 197.156708 
L 2445.633255 197.156708 
L 2446.504558 982.226877 
L 2450.829667 982.226877 
L 2451.69604 738.878976 
L 2452.561561 197.156708 
L 2456.030266 197.156708 
L 2456.892935 982.226877 
L 2462.088158 982.226877 
L 2462.954829 197.156708 
L 2466.419367 197.156708 
L 2467.285441 982.226877 
L 2472.481884 982.226877 
L 2473.348365 197.156708 
L 2476.816206 197.156708 
L 2477.678061 982.226877 
L 2482.876938 982.226877 
L 2483.744937 197.156708 
L 2487.207492 197.156708 
L 2488.073039 982.226877 
L 2493.271757 982.226877 
L 2494.13541 197.156708 
L 2497.599573 197.156708 
L 2498.465774 982.226877 
L 2503.662275 982.226877 
L 2504.535757 197.156708 
L 2507.992543 197.156708 
L 2508.858604 982.226877 
L 2514.055943 982.226877 
L 2514.921973 197.156708 
L 2518.388721 197.156708 
L 2519.254801 982.226877 
L 2524.44843 982.226877 
L 2525.315693 197.156708 
L 2528.779887 197.156708 
L 2529.645916 982.226877 
L 2534.842671 982.226877 
L 2535.708408 197.156708 
L 2539.173435 197.156708 
L 2540.039274 982.226877 
L 2545.244625 982.226877 
L 2546.101531 197.156708 
L 2549.570249 197.156708 
L 2550.432053 982.226877 
L 2555.629068 982.226877 
L 2556.496782 197.156708 
L 2559.958911 197.156708 
L 2560.824483 982.226877 
L 2566.022038 982.226877 
L 2566.898984 197.156708 
L 2570.352065 197.156708 
L 2571.217853 982.226877 
L 2576.414595 982.226877 
L 2577.281463 197.156708 
L 2580.746274 197.156708 
L 2581.611808 982.226877 
L 2586.812432 982.226877 
L 2587.676015 197.156708 
L 2591.139142 197.156708 
L 2592.007897 982.226877 
L 2596.339195 982.226877 
L 2597.203121 934.652496 
L 2598.069081 197.156708 
L 2601.533237 197.156708 
L 2602.399228 982.226877 
L 2606.730017 982.226877 
L 2607.601562 440.345568 
L 2608.461301 197.156708 
L 2611.926124 197.156708 
L 2612.79845 982.226877 
L 2617.122511 982.226877 
L 2617.988966 197.156708 
L 2622.32485 197.156708 
L 2623.189164 982.226877 
L 2627.518607 982.226877 
L 2628.39064 197.156708 
L 2632.712394 197.156708 
L 2633.580463 982.226877 
L 2637.912008 982.226877 
L 2638.775967 197.156708 
L 2645.709158 197.156708 
L 2646.575309 982.226877 
L 2652.633175 982.226877 
L 2653.501613 469.112577 
L 2654.3666 197.156708 
L 2659.563984 197.156708 
L 2660.428006 550.468619 
L 2661.296393 982.226877 
L 2667.356801 982.226877 
L 2668.224794 197.156708 
L 2674.28653 197.156708 
L 2675.153214 982.226877 
L 2682.081163 982.226877 
L 2682.949277 197.156708 
L 2688.143617 197.156708 
L 2689.012976 982.226877 
L 2695.939566 982.226877 
L 2696.804401 197.156708 
L 2702.001144 197.156708 
L 2702.871341 982.226877 
L 2708.933274 982.226877 
L 2709.7987 197.156708 
L 2715.858378 197.156708 
L 2716.725316 982.226877 
L 2722.787814 982.226877 
L 2723.656226 197.156708 
L 2728.855262 197.156708 
L 2729.716774 982.226877 
L 2735.784724 982.226877 
L 2736.6482 197.156708 
L 2741.843163 197.156708 
L 2742.711537 982.226877 
L 2748.773699 982.226877 
L 2749.640186 197.156708 
L 2750.504214 197.156708 
L 2750.504214 197.156708 
" style="fill:none;stroke:#ff0000;stroke-linecap:square;stroke-width:3;"/>
   </g>
   <g id="patch_3">
    <path d="M 94.09774 1021.480385 
L 94.09774 157.9032 
" style="fill:none;stroke:#000000;stroke-linecap:square;stroke-linejoin:miter;stroke-width:0.8;"/>
   </g>
   <g id="patch_4">
    <path d="M 2876.99976 1021.480385 
L 2876.99976 157.9032 
" style="fill:none;stroke:#000000;stroke-linecap:square;stroke-linejoin:miter;stroke-width:0.8;"/>
   </g>
   <g id="patch_5">
    <path d="M 94.09774 1021.480385 
L 2876.99976 1021.480385 
" style="fill:none;stroke:#000000;stroke-linecap:square;stroke-linejoin:miter;stroke-width:0.8;"/>
   </g>
   <g id="patch_6">
    <path d="M 94.09774 157.9032 
L 2876.99976 157.9032 
" style="fill:none;stroke:#000000;stroke-linecap:square;stroke-linejoin:miter;stroke-width:0.8;"/>
   </g>
   <g id="text_16">
    <!-- Biceps (red) and Triceps (green) -->
    <defs>
     <path d="M 19.671875 34.8125 
L 19.671875 8.109375 
L 35.5 8.109375 
Q 43.453125 8.109375 47.28125 11.40625 
Q 51.125 14.703125 51.125 21.484375 
Q 51.125 28.328125 47.28125 31.5625 
Q 43.453125 34.8125 35.5 34.8125 
z
M 19.671875 64.796875 
L 19.671875 42.828125 
L 34.28125 42.828125 
Q 41.5 42.828125 45.03125 45.53125 
Q 48.578125 48.25 48.578125 53.8125 
Q 48.578125 59.328125 45.03125 62.0625 
Q 41.5 64.796875 34.28125 64.796875 
z
M 9.8125 72.90625 
L 35.015625 72.90625 
Q 46.296875 72.90625 52.390625 68.21875 
Q 58.5 63.53125 58.5 54.890625 
Q 58.5 48.1875 55.375 44.234375 
Q 52.25 40.28125 46.1875 39.3125 
Q 53.46875 37.75 57.5 32.78125 
Q 61.53125 27.828125 61.53125 20.40625 
Q 61.53125 10.640625 54.890625 5.3125 
Q 48.25 0 35.984375 0 
L 9.8125 0 
z
" id="DejaVuSans-66"/>
     <path d="M 48.78125 52.59375 
L 48.78125 44.1875 
Q 44.96875 46.296875 41.140625 47.34375 
Q 37.3125 48.390625 33.40625 48.390625 
Q 24.65625 48.390625 19.8125 42.84375 
Q 14.984375 37.3125 14.984375 27.296875 
Q 14.984375 17.28125 19.8125 11.734375 
Q 24.65625 6.203125 33.40625 6.203125 
Q 37.3125 6.203125 41.140625 7.25 
Q 44.96875 8.296875 48.78125 10.40625 
L 48.78125 2.09375 
Q 45.015625 0.34375 40.984375 -0.53125 
Q 36.96875 -1.421875 32.421875 -1.421875 
Q 20.0625 -1.421875 12.78125 6.34375 
Q 5.515625 14.109375 5.515625 27.296875 
Q 5.515625 40.671875 12.859375 48.328125 
Q 20.21875 56 33.015625 56 
Q 37.15625 56 41.109375 55.140625 
Q 45.0625 54.296875 48.78125 52.59375 
z
" id="DejaVuSans-99"/>
     <path d="M 18.109375 8.203125 
L 18.109375 -20.796875 
L 9.078125 -20.796875 
L 9.078125 54.6875 
L 18.109375 54.6875 
L 18.109375 46.390625 
Q 20.953125 51.265625 25.265625 53.625 
Q 29.59375 56 35.59375 56 
Q 45.5625 56 51.78125 48.09375 
Q 58.015625 40.1875 58.015625 27.296875 
Q 58.015625 14.40625 51.78125 6.484375 
Q 45.5625 -1.421875 35.59375 -1.421875 
Q 29.59375 -1.421875 25.265625 0.953125 
Q 20.953125 3.328125 18.109375 8.203125 
z
M 48.6875 27.296875 
Q 48.6875 37.203125 44.609375 42.84375 
Q 40.53125 48.484375 33.40625 48.484375 
Q 26.265625 48.484375 22.1875 42.84375 
Q 18.109375 37.203125 18.109375 27.296875 
Q 18.109375 17.390625 22.1875 11.75 
Q 26.265625 6.109375 33.40625 6.109375 
Q 40.53125 6.109375 44.609375 11.75 
Q 48.6875 17.390625 48.6875 27.296875 
z
" id="DejaVuSans-112"/>
     <path d="M 31 75.875 
Q 24.46875 64.65625 21.28125 53.65625 
Q 18.109375 42.671875 18.109375 31.390625 
Q 18.109375 20.125 21.3125 9.0625 
Q 24.515625 -2 31 -13.1875 
L 23.1875 -13.1875 
Q 15.875 -1.703125 12.234375 9.375 
Q 8.59375 20.453125 8.59375 31.390625 
Q 8.59375 42.28125 12.203125 53.3125 
Q 15.828125 64.359375 23.1875 75.875 
z
" id="DejaVuSans-40"/>
     <path d="M 41.109375 46.296875 
Q 39.59375 47.171875 37.8125 47.578125 
Q 36.03125 48 33.890625 48 
Q 26.265625 48 22.1875 43.046875 
Q 18.109375 38.09375 18.109375 28.8125 
L 18.109375 0 
L 9.078125 0 
L 9.078125 54.6875 
L 18.109375 54.6875 
L 18.109375 46.1875 
Q 20.953125 51.171875 25.484375 53.578125 
Q 30.03125 56 36.53125 56 
Q 37.453125 56 38.578125 55.875 
Q 39.703125 55.765625 41.0625 55.515625 
z
" id="DejaVuSans-114"/>
     <path d="M 45.40625 46.390625 
L 45.40625 75.984375 
L 54.390625 75.984375 
L 54.390625 0 
L 45.40625 0 
L 45.40625 8.203125 
Q 42.578125 3.328125 38.25 0.953125 
Q 33.9375 -1.421875 27.875 -1.421875 
Q 17.96875 -1.421875 11.734375 6.484375 
Q 5.515625 14.40625 5.515625 27.296875 
Q 5.515625 40.1875 11.734375 48.09375 
Q 17.96875 56 27.875 56 
Q 33.9375 56 38.25 53.625 
Q 42.578125 51.265625 45.40625 46.390625 
z
M 14.796875 27.296875 
Q 14.796875 17.390625 18.875 11.75 
Q 22.953125 6.109375 30.078125 6.109375 
Q 37.203125 6.109375 41.296875 11.75 
Q 45.40625 17.390625 45.40625 27.296875 
Q 45.40625 37.203125 41.296875 42.84375 
Q 37.203125 48.484375 30.078125 48.484375 
Q 22.953125 48.484375 18.875 42.84375 
Q 14.796875 37.203125 14.796875 27.296875 
z
" id="DejaVuSans-100"/>
     <path d="M 8.015625 75.875 
L 15.828125 75.875 
Q 23.140625 64.359375 26.78125 53.3125 
Q 30.421875 42.28125 30.421875 31.390625 
Q 30.421875 20.453125 26.78125 9.375 
Q 23.140625 -1.703125 15.828125 -13.1875 
L 8.015625 -13.1875 
Q 14.5 -2 17.703125 9.0625 
Q 20.90625 20.125 20.90625 31.390625 
Q 20.90625 42.671875 17.703125 53.65625 
Q 14.5 64.65625 8.015625 75.875 
z
" id="DejaVuSans-41"/>
     <path d="M 34.28125 27.484375 
Q 23.390625 27.484375 19.1875 25 
Q 14.984375 22.515625 14.984375 16.5 
Q 14.984375 11.71875 18.140625 8.90625 
Q 21.296875 6.109375 26.703125 6.109375 
Q 34.1875 6.109375 38.703125 11.40625 
Q 43.21875 16.703125 43.21875 25.484375 
L 43.21875 27.484375 
z
M 52.203125 31.203125 
L 52.203125 0 
L 43.21875 0 
L 43.21875 8.296875 
Q 40.140625 3.328125 35.546875 0.953125 
Q 30.953125 -1.421875 24.3125 -1.421875 
Q 15.921875 -1.421875 10.953125 3.296875 
Q 6 8.015625 6 15.921875 
Q 6 25.140625 12.171875 29.828125 
Q 18.359375 34.515625 30.609375 34.515625 
L 43.21875 34.515625 
L 43.21875 35.40625 
Q 43.21875 41.609375 39.140625 45 
Q 35.0625 48.390625 27.6875 48.390625 
Q 23 48.390625 18.546875 47.265625 
Q 14.109375 46.140625 10.015625 43.890625 
L 10.015625 52.203125 
Q 14.9375 54.109375 19.578125 55.046875 
Q 24.21875 56 28.609375 56 
Q 40.484375 56 46.34375 49.84375 
Q 52.203125 43.703125 52.203125 31.203125 
z
" id="DejaVuSans-97"/>
    </defs>
    <g transform="translate(1210.36125 150.832262)scale(0.34 -0.34)">
     <use xlink:href="#DejaVuSans-66"/>
     <use x="68.603516" xlink:href="#DejaVuSans-105"/>
     <use x="96.386719" xlink:href="#DejaVuSans-99"/>
     <use x="151.367188" xlink:href="#DejaVuSans-101"/>
     <use x="212.890625" xlink:href="#DejaVuSans-112"/>
     <use x="276.367188" xlink:href="#DejaVuSans-115"/>
     <use x="328.466797" xlink:href="#DejaVuSans-32"/>
     <use x="360.253906" xlink:href="#DejaVuSans-40"/>
     <use x="399.267578" xlink:href="#DejaVuSans-114"/>
     <use x="440.349609" xlink:href="#DejaVuSans-101"/>
     <use x="501.873047" xlink:href="#DejaVuSans-100"/>
     <use x="565.349609" xlink:href="#DejaVuSans-41"/>
     <use x="604.363281" xlink:href="#DejaVuSans-32"/>
     <use x="636.150391" xlink:href="#DejaVuSans-97"/>
     <use x="697.429688" xlink:href="#DejaVuSans-110"/>
     <use x="760.808594" xlink:href="#DejaVuSans-100"/>
     <use x="824.285156" xlink:href="#DejaVuSans-32"/>
     <use x="856.072266" xlink:href="#DejaVuSans-84"/>
     <use x="916.9375" xlink:href="#DejaVuSans-114"/>
     <use x="958.050781" xlink:href="#DejaVuSans-105"/>
     <use x="985.833984" xlink:href="#DejaVuSans-99"/>
     <use x="1040.814453" xlink:href="#DejaVuSans-101"/>
     <use x="1102.337891" xlink:href="#DejaVuSans-112"/>
     <use x="1165.814453" xlink:href="#DejaVuSans-115"/>
     <use x="1217.914062" xlink:href="#DejaVuSans-32"/>
     <use x="1249.701172" xlink:href="#DejaVuSans-40"/>
     <use x="1288.714844" xlink:href="#DejaVuSans-103"/>
     <use x="1352.191406" xlink:href="#DejaVuSans-114"/>
     <use x="1393.273438" xlink:href="#DejaVuSans-101"/>
     <use x="1454.796875" xlink:href="#DejaVuSans-101"/>
     <use x="1516.320312" xlink:href="#DejaVuSans-110"/>
     <use x="1579.699219" xlink:href="#DejaVuSans-41"/>
    </g>
   </g>
  </g>
  <g id="text_17">
   <!-- Forces - P315000 I0 D0 -->
   <defs>
    <path d="M 9.8125 72.90625 
L 51.703125 72.90625 
L 51.703125 64.59375 
L 19.671875 64.59375 
L 19.671875 43.109375 
L 48.578125 43.109375 
L 48.578125 34.8125 
L 19.671875 34.8125 
L 19.671875 0 
L 9.8125 0 
z
" id="DejaVuSans-70"/>
    <path d="M 30.609375 48.390625 
Q 23.390625 48.390625 19.1875 42.75 
Q 14.984375 37.109375 14.984375 27.296875 
Q 14.984375 17.484375 19.15625 11.84375 
Q 23.34375 6.203125 30.609375 6.203125 
Q 37.796875 6.203125 41.984375 11.859375 
Q 46.1875 17.53125 46.1875 27.296875 
Q 46.1875 37.015625 41.984375 42.703125 
Q 37.796875 48.390625 30.609375 48.390625 
z
M 30.609375 56 
Q 42.328125 56 49.015625 48.375 
Q 55.71875 40.765625 55.71875 27.296875 
Q 55.71875 13.875 49.015625 6.21875 
Q 42.328125 -1.421875 30.609375 -1.421875 
Q 18.84375 -1.421875 12.171875 6.21875 
Q 5.515625 13.875 5.515625 27.296875 
Q 5.515625 40.765625 12.171875 48.375 
Q 18.84375 56 30.609375 56 
z
" id="DejaVuSans-111"/>
    <path d="M 4.890625 31.390625 
L 31.203125 31.390625 
L 31.203125 23.390625 
L 4.890625 23.390625 
z
" id="DejaVuSans-45"/>
    <path d="M 19.671875 64.796875 
L 19.671875 37.40625 
L 32.078125 37.40625 
Q 38.96875 37.40625 42.71875 40.96875 
Q 46.484375 44.53125 46.484375 51.125 
Q 46.484375 57.671875 42.71875 61.234375 
Q 38.96875 64.796875 32.078125 64.796875 
z
M 9.8125 72.90625 
L 32.078125 72.90625 
Q 44.34375 72.90625 50.609375 67.359375 
Q 56.890625 61.8125 56.890625 51.125 
Q 56.890625 40.328125 50.609375 34.8125 
Q 44.34375 29.296875 32.078125 29.296875 
L 19.671875 29.296875 
L 19.671875 0 
L 9.8125 0 
z
" id="DejaVuSans-80"/>
    <path d="M 40.578125 39.3125 
Q 47.65625 37.796875 51.625 33 
Q 55.609375 28.21875 55.609375 21.1875 
Q 55.609375 10.40625 48.1875 4.484375 
Q 40.765625 -1.421875 27.09375 -1.421875 
Q 22.515625 -1.421875 17.65625 -0.515625 
Q 12.796875 0.390625 7.625 2.203125 
L 7.625 11.71875 
Q 11.71875 9.328125 16.59375 8.109375 
Q 21.484375 6.890625 26.8125 6.890625 
Q 36.078125 6.890625 40.9375 10.546875 
Q 45.796875 14.203125 45.796875 21.1875 
Q 45.796875 27.640625 41.28125 31.265625 
Q 36.765625 34.90625 28.71875 34.90625 
L 20.21875 34.90625 
L 20.21875 43.015625 
L 29.109375 43.015625 
Q 36.375 43.015625 40.234375 45.921875 
Q 44.09375 48.828125 44.09375 54.296875 
Q 44.09375 59.90625 40.109375 62.90625 
Q 36.140625 65.921875 28.71875 65.921875 
Q 24.65625 65.921875 20.015625 65.03125 
Q 15.375 64.15625 9.8125 62.3125 
L 9.8125 71.09375 
Q 15.4375 72.65625 20.34375 73.4375 
Q 25.25 74.21875 29.59375 74.21875 
Q 40.828125 74.21875 47.359375 69.109375 
Q 53.90625 64.015625 53.90625 55.328125 
Q 53.90625 49.265625 50.4375 45.09375 
Q 46.96875 40.921875 40.578125 39.3125 
z
" id="DejaVuSans-51"/>
    <path d="M 10.796875 72.90625 
L 49.515625 72.90625 
L 49.515625 64.59375 
L 19.828125 64.59375 
L 19.828125 46.734375 
Q 21.96875 47.46875 24.109375 47.828125 
Q 26.265625 48.1875 28.421875 48.1875 
Q 40.625 48.1875 47.75 41.5 
Q 54.890625 34.8125 54.890625 23.390625 
Q 54.890625 11.625 47.5625 5.09375 
Q 40.234375 -1.421875 26.90625 -1.421875 
Q 22.3125 -1.421875 17.546875 -0.640625 
Q 12.796875 0.140625 7.71875 1.703125 
L 7.71875 11.625 
Q 12.109375 9.234375 16.796875 8.0625 
Q 21.484375 6.890625 26.703125 6.890625 
Q 35.15625 6.890625 40.078125 11.328125 
Q 45.015625 15.765625 45.015625 23.390625 
Q 45.015625 31 40.078125 35.4375 
Q 35.15625 39.890625 26.703125 39.890625 
Q 22.75 39.890625 18.8125 39.015625 
Q 14.890625 38.140625 10.796875 36.28125 
z
" id="DejaVuSans-53"/>
    <path d="M 9.8125 72.90625 
L 19.671875 72.90625 
L 19.671875 0 
L 9.8125 0 
z
" id="DejaVuSans-73"/>
    <path d="M 19.671875 64.796875 
L 19.671875 8.109375 
L 31.59375 8.109375 
Q 46.6875 8.109375 53.6875 14.9375 
Q 60.6875 21.78125 60.6875 36.53125 
Q 60.6875 51.171875 53.6875 57.984375 
Q 46.6875 64.796875 31.59375 64.796875 
z
M 9.8125 72.90625 
L 30.078125 72.90625 
Q 51.265625 72.90625 61.171875 64.09375 
Q 71.09375 55.28125 71.09375 36.53125 
Q 71.09375 17.671875 61.125 8.828125 
Q 51.171875 0 30.078125 0 
L 9.8125 0 
z
" id="DejaVuSans-68"/>
   </defs>
   <g transform="translate(1241.551562 28.834927)scale(0.34 -0.34)">
    <use xlink:href="#DejaVuSans-70"/>
    <use x="57.472656" xlink:href="#DejaVuSans-111"/>
    <use x="118.654297" xlink:href="#DejaVuSans-114"/>
    <use x="159.736328" xlink:href="#DejaVuSans-99"/>
    <use x="214.716797" xlink:href="#DejaVuSans-101"/>
    <use x="276.240234" xlink:href="#DejaVuSans-115"/>
    <use x="328.339844" xlink:href="#DejaVuSans-32"/>
    <use x="360.126953" xlink:href="#DejaVuSans-45"/>
    <use x="396.210938" xlink:href="#DejaVuSans-32"/>
    <use x="427.998047" xlink:href="#DejaVuSans-80"/>
    <use x="488.300781" xlink:href="#DejaVuSans-51"/>
    <use x="551.923828" xlink:href="#DejaVuSans-49"/>
    <use x="615.546875" xlink:href="#DejaVuSans-53"/>
    <use x="679.169922" xlink:href="#DejaVuSans-48"/>
    <use x="742.792969" xlink:href="#DejaVuSans-48"/>
    <use x="806.416016" xlink:href="#DejaVuSans-48"/>
    <use x="870.039062" xlink:href="#DejaVuSans-32"/>
    <use x="901.826172" xlink:href="#DejaVuSans-73"/>
    <use x="931.318359" xlink:href="#DejaVuSans-48"/>
    <use x="994.941406" xlink:href="#DejaVuSans-32"/>
    <use x="1026.728516" xlink:href="#DejaVuSans-68"/>
    <use x="1103.730469" xlink:href="#DejaVuSans-48"/>
   </g>
   <!-- Bagfile elbow_left_c from 35s for 95s - Logging Rate 30 - Simulation Rate 400 - 100.00% real time speed -->
   <defs>
    <path d="M 37.109375 75.984375 
L 37.109375 68.5 
L 28.515625 68.5 
Q 23.6875 68.5 21.796875 66.546875 
Q 19.921875 64.59375 19.921875 59.515625 
L 19.921875 54.6875 
L 34.71875 54.6875 
L 34.71875 47.703125 
L 19.921875 47.703125 
L 19.921875 0 
L 10.890625 0 
L 10.890625 47.703125 
L 2.296875 47.703125 
L 2.296875 54.6875 
L 10.890625 54.6875 
L 10.890625 58.5 
Q 10.890625 67.625 15.140625 71.796875 
Q 19.390625 75.984375 28.609375 75.984375 
z
" id="DejaVuSans-102"/>
    <path d="M 9.421875 75.984375 
L 18.40625 75.984375 
L 18.40625 0 
L 9.421875 0 
z
" id="DejaVuSans-108"/>
    <path d="M 48.6875 27.296875 
Q 48.6875 37.203125 44.609375 42.84375 
Q 40.53125 48.484375 33.40625 48.484375 
Q 26.265625 48.484375 22.1875 42.84375 
Q 18.109375 37.203125 18.109375 27.296875 
Q 18.109375 17.390625 22.1875 11.75 
Q 26.265625 6.109375 33.40625 6.109375 
Q 40.53125 6.109375 44.609375 11.75 
Q 48.6875 17.390625 48.6875 27.296875 
z
M 18.109375 46.390625 
Q 20.953125 51.265625 25.265625 53.625 
Q 29.59375 56 35.59375 56 
Q 45.5625 56 51.78125 48.09375 
Q 58.015625 40.1875 58.015625 27.296875 
Q 58.015625 14.40625 51.78125 6.484375 
Q 45.5625 -1.421875 35.59375 -1.421875 
Q 29.59375 -1.421875 25.265625 0.953125 
Q 20.953125 3.328125 18.109375 8.203125 
L 18.109375 0 
L 9.078125 0 
L 9.078125 75.984375 
L 18.109375 75.984375 
z
" id="DejaVuSans-98"/>
    <path d="M 4.203125 54.6875 
L 13.1875 54.6875 
L 24.421875 12.015625 
L 35.59375 54.6875 
L 46.1875 54.6875 
L 57.421875 12.015625 
L 68.609375 54.6875 
L 77.59375 54.6875 
L 63.28125 0 
L 52.6875 0 
L 40.921875 44.828125 
L 29.109375 0 
L 18.5 0 
z
" id="DejaVuSans-119"/>
    <path d="M 50.984375 -16.609375 
L 50.984375 -23.578125 
L -0.984375 -23.578125 
L -0.984375 -16.609375 
z
" id="DejaVuSans-95"/>
    <path d="M 10.984375 1.515625 
L 10.984375 10.5 
Q 14.703125 8.734375 18.5 7.8125 
Q 22.3125 6.890625 25.984375 6.890625 
Q 35.75 6.890625 40.890625 13.453125 
Q 46.046875 20.015625 46.78125 33.40625 
Q 43.953125 29.203125 39.59375 26.953125 
Q 35.25 24.703125 29.984375 24.703125 
Q 19.046875 24.703125 12.671875 31.3125 
Q 6.296875 37.9375 6.296875 49.421875 
Q 6.296875 60.640625 12.9375 67.421875 
Q 19.578125 74.21875 30.609375 74.21875 
Q 43.265625 74.21875 49.921875 64.515625 
Q 56.59375 54.828125 56.59375 36.375 
Q 56.59375 19.140625 48.40625 8.859375 
Q 40.234375 -1.421875 26.421875 -1.421875 
Q 22.703125 -1.421875 18.890625 -0.6875 
Q 15.09375 0.046875 10.984375 1.515625 
z
M 30.609375 32.421875 
Q 37.25 32.421875 41.125 36.953125 
Q 45.015625 41.5 45.015625 49.421875 
Q 45.015625 57.28125 41.125 61.84375 
Q 37.25 66.40625 30.609375 66.40625 
Q 23.96875 66.40625 20.09375 61.84375 
Q 16.21875 57.28125 16.21875 49.421875 
Q 16.21875 41.5 20.09375 36.953125 
Q 23.96875 32.421875 30.609375 32.421875 
z
" id="DejaVuSans-57"/>
    <path d="M 44.390625 34.1875 
Q 47.5625 33.109375 50.5625 29.59375 
Q 53.5625 26.078125 56.59375 19.921875 
L 66.609375 0 
L 56 0 
L 46.6875 18.703125 
Q 43.0625 26.03125 39.671875 28.421875 
Q 36.28125 30.8125 30.421875 30.8125 
L 19.671875 30.8125 
L 19.671875 0 
L 9.8125 0 
L 9.8125 72.90625 
L 32.078125 72.90625 
Q 44.578125 72.90625 50.734375 67.671875 
Q 56.890625 62.453125 56.890625 51.90625 
Q 56.890625 45.015625 53.6875 40.46875 
Q 50.484375 35.9375 44.390625 34.1875 
z
M 19.671875 64.796875 
L 19.671875 38.921875 
L 32.078125 38.921875 
Q 39.203125 38.921875 42.84375 42.21875 
Q 46.484375 45.515625 46.484375 51.90625 
Q 46.484375 58.296875 42.84375 61.546875 
Q 39.203125 64.796875 32.078125 64.796875 
z
" id="DejaVuSans-82"/>
    <path d="M 53.515625 70.515625 
L 53.515625 60.890625 
Q 47.90625 63.578125 42.921875 64.890625 
Q 37.9375 66.21875 33.296875 66.21875 
Q 25.25 66.21875 20.875 63.09375 
Q 16.5 59.96875 16.5 54.203125 
Q 16.5 49.359375 19.40625 46.890625 
Q 22.3125 44.4375 30.421875 42.921875 
L 36.375 41.703125 
Q 47.40625 39.59375 52.65625 34.296875 
Q 57.90625 29 57.90625 20.125 
Q 57.90625 9.515625 50.796875 4.046875 
Q 43.703125 -1.421875 29.984375 -1.421875 
Q 24.8125 -1.421875 18.96875 -0.25 
Q 13.140625 0.921875 6.890625 3.21875 
L 6.890625 13.375 
Q 12.890625 10.015625 18.65625 8.296875 
Q 24.421875 6.59375 29.984375 6.59375 
Q 38.421875 6.59375 43.015625 9.90625 
Q 47.609375 13.234375 47.609375 19.390625 
Q 47.609375 24.75 44.3125 27.78125 
Q 41.015625 30.8125 33.5 32.328125 
L 27.484375 33.5 
Q 16.453125 35.6875 11.515625 40.375 
Q 6.59375 45.0625 6.59375 53.421875 
Q 6.59375 63.09375 13.40625 68.65625 
Q 20.21875 74.21875 32.171875 74.21875 
Q 37.3125 74.21875 42.625 73.28125 
Q 47.953125 72.359375 53.515625 70.515625 
z
" id="DejaVuSans-83"/>
    <path d="M 8.5 21.578125 
L 8.5 54.6875 
L 17.484375 54.6875 
L 17.484375 21.921875 
Q 17.484375 14.15625 20.5 10.265625 
Q 23.53125 6.390625 29.59375 6.390625 
Q 36.859375 6.390625 41.078125 11.03125 
Q 45.3125 15.671875 45.3125 23.6875 
L 45.3125 54.6875 
L 54.296875 54.6875 
L 54.296875 0 
L 45.3125 0 
L 45.3125 8.40625 
Q 42.046875 3.421875 37.71875 1 
Q 33.40625 -1.421875 27.6875 -1.421875 
Q 18.265625 -1.421875 13.375 4.4375 
Q 8.5 10.296875 8.5 21.578125 
z
M 31.109375 56 
z
" id="DejaVuSans-117"/>
    <path d="M 10.6875 12.40625 
L 21 12.40625 
L 21 0 
L 10.6875 0 
z
" id="DejaVuSans-46"/>
    <path d="M 72.703125 32.078125 
Q 68.453125 32.078125 66.03125 28.46875 
Q 63.625 24.859375 63.625 18.40625 
Q 63.625 12.0625 66.03125 8.421875 
Q 68.453125 4.78125 72.703125 4.78125 
Q 76.859375 4.78125 79.265625 8.421875 
Q 81.6875 12.0625 81.6875 18.40625 
Q 81.6875 24.8125 79.265625 28.4375 
Q 76.859375 32.078125 72.703125 32.078125 
z
M 72.703125 38.28125 
Q 80.421875 38.28125 84.953125 32.90625 
Q 89.5 27.546875 89.5 18.40625 
Q 89.5 9.28125 84.9375 3.921875 
Q 80.375 -1.421875 72.703125 -1.421875 
Q 64.890625 -1.421875 60.34375 3.921875 
Q 55.8125 9.28125 55.8125 18.40625 
Q 55.8125 27.59375 60.375 32.9375 
Q 64.9375 38.28125 72.703125 38.28125 
z
M 22.3125 68.015625 
Q 18.109375 68.015625 15.6875 64.375 
Q 13.28125 60.75 13.28125 54.390625 
Q 13.28125 47.953125 15.671875 44.328125 
Q 18.0625 40.71875 22.3125 40.71875 
Q 26.5625 40.71875 28.96875 44.328125 
Q 31.390625 47.953125 31.390625 54.390625 
Q 31.390625 60.6875 28.953125 64.34375 
Q 26.515625 68.015625 22.3125 68.015625 
z
M 66.40625 74.21875 
L 74.21875 74.21875 
L 28.609375 -1.421875 
L 20.796875 -1.421875 
z
M 22.3125 74.21875 
Q 30.03125 74.21875 34.609375 68.875 
Q 39.203125 63.53125 39.203125 54.390625 
Q 39.203125 45.171875 34.640625 39.84375 
Q 30.078125 34.515625 22.3125 34.515625 
Q 14.546875 34.515625 10.03125 39.859375 
Q 5.515625 45.21875 5.515625 54.390625 
Q 5.515625 63.484375 10.046875 68.84375 
Q 14.59375 74.21875 22.3125 74.21875 
z
" id="DejaVuSans-37"/>
   </defs>
   <g transform="translate(547.781562 66.90749)scale(0.34 -0.34)">
    <use xlink:href="#DejaVuSans-66"/>
    <use x="68.603516" xlink:href="#DejaVuSans-97"/>
    <use x="129.882812" xlink:href="#DejaVuSans-103"/>
    <use x="193.359375" xlink:href="#DejaVuSans-102"/>
    <use x="228.564453" xlink:href="#DejaVuSans-105"/>
    <use x="256.347656" xlink:href="#DejaVuSans-108"/>
    <use x="284.130859" xlink:href="#DejaVuSans-101"/>
    <use x="345.654297" xlink:href="#DejaVuSans-32"/>
    <use x="377.441406" xlink:href="#DejaVuSans-101"/>
    <use x="438.964844" xlink:href="#DejaVuSans-108"/>
    <use x="466.748047" xlink:href="#DejaVuSans-98"/>
    <use x="530.224609" xlink:href="#DejaVuSans-111"/>
    <use x="591.40625" xlink:href="#DejaVuSans-119"/>
    <use x="673.193359" xlink:href="#DejaVuSans-95"/>
    <use x="723.193359" xlink:href="#DejaVuSans-108"/>
    <use x="750.976562" xlink:href="#DejaVuSans-101"/>
    <use x="812.5" xlink:href="#DejaVuSans-102"/>
    <use x="847.689453" xlink:href="#DejaVuSans-116"/>
    <use x="886.898438" xlink:href="#DejaVuSans-95"/>
    <use x="936.898438" xlink:href="#DejaVuSans-99"/>
    <use x="991.878906" xlink:href="#DejaVuSans-32"/>
    <use x="1023.666016" xlink:href="#DejaVuSans-102"/>
    <use x="1058.871094" xlink:href="#DejaVuSans-114"/>
    <use x="1099.953125" xlink:href="#DejaVuSans-111"/>
    <use x="1161.134766" xlink:href="#DejaVuSans-109"/>
    <use x="1258.546875" xlink:href="#DejaVuSans-32"/>
    <use x="1290.333984" xlink:href="#DejaVuSans-51"/>
    <use x="1353.957031" xlink:href="#DejaVuSans-53"/>
    <use x="1417.580078" xlink:href="#DejaVuSans-115"/>
    <use x="1469.679688" xlink:href="#DejaVuSans-32"/>
    <use x="1501.466797" xlink:href="#DejaVuSans-102"/>
    <use x="1536.671875" xlink:href="#DejaVuSans-111"/>
    <use x="1597.853516" xlink:href="#DejaVuSans-114"/>
    <use x="1638.966797" xlink:href="#DejaVuSans-32"/>
    <use x="1670.753906" xlink:href="#DejaVuSans-57"/>
    <use x="1734.376953" xlink:href="#DejaVuSans-53"/>
    <use x="1798" xlink:href="#DejaVuSans-115"/>
    <use x="1850.099609" xlink:href="#DejaVuSans-32"/>
    <use x="1881.886719" xlink:href="#DejaVuSans-45"/>
    <use x="1917.970703" xlink:href="#DejaVuSans-32"/>
    <use x="1949.757812" xlink:href="#DejaVuSans-76"/>
    <use x="2005.455078" xlink:href="#DejaVuSans-111"/>
    <use x="2066.636719" xlink:href="#DejaVuSans-103"/>
    <use x="2130.113281" xlink:href="#DejaVuSans-103"/>
    <use x="2193.589844" xlink:href="#DejaVuSans-105"/>
    <use x="2221.373047" xlink:href="#DejaVuSans-110"/>
    <use x="2284.751953" xlink:href="#DejaVuSans-103"/>
    <use x="2348.228516" xlink:href="#DejaVuSans-32"/>
    <use x="2380.015625" xlink:href="#DejaVuSans-82"/>
    <use x="2449.466797" xlink:href="#DejaVuSans-97"/>
    <use x="2510.746094" xlink:href="#DejaVuSans-116"/>
    <use x="2549.955078" xlink:href="#DejaVuSans-101"/>
    <use x="2611.478516" xlink:href="#DejaVuSans-32"/>
    <use x="2643.265625" xlink:href="#DejaVuSans-51"/>
    <use x="2706.888672" xlink:href="#DejaVuSans-48"/>
    <use x="2770.511719" xlink:href="#DejaVuSans-32"/>
    <use x="2802.298828" xlink:href="#DejaVuSans-45"/>
    <use x="2838.382812" xlink:href="#DejaVuSans-32"/>
    <use x="2870.169922" xlink:href="#DejaVuSans-83"/>
    <use x="2933.646484" xlink:href="#DejaVuSans-105"/>
    <use x="2961.429688" xlink:href="#DejaVuSans-109"/>
    <use x="3058.841797" xlink:href="#DejaVuSans-117"/>
    <use x="3122.220703" xlink:href="#DejaVuSans-108"/>
    <use x="3150.003906" xlink:href="#DejaVuSans-97"/>
    <use x="3211.283203" xlink:href="#DejaVuSans-116"/>
    <use x="3250.492188" xlink:href="#DejaVuSans-105"/>
    <use x="3278.275391" xlink:href="#DejaVuSans-111"/>
    <use x="3339.457031" xlink:href="#DejaVuSans-110"/>
    <use x="3402.835938" xlink:href="#DejaVuSans-32"/>
    <use x="3434.623047" xlink:href="#DejaVuSans-82"/>
    <use x="3504.074219" xlink:href="#DejaVuSans-97"/>
    <use x="3565.353516" xlink:href="#DejaVuSans-116"/>
    <use x="3604.5625" xlink:href="#DejaVuSans-101"/>
    <use x="3666.085938" xlink:href="#DejaVuSans-32"/>
    <use x="3697.873047" xlink:href="#DejaVuSans-52"/>
    <use x="3761.496094" xlink:href="#DejaVuSans-48"/>
    <use x="3825.119141" xlink:href="#DejaVuSans-48"/>
    <use x="3888.742188" xlink:href="#DejaVuSans-32"/>
    <use x="3920.529297" xlink:href="#DejaVuSans-45"/>
    <use x="3956.613281" xlink:href="#DejaVuSans-32"/>
    <use x="3988.400391" xlink:href="#DejaVuSans-49"/>
    <use x="4052.023438" xlink:href="#DejaVuSans-48"/>
    <use x="4115.646484" xlink:href="#DejaVuSans-48"/>
    <use x="4179.269531" xlink:href="#DejaVuSans-46"/>
    <use x="4211.056641" xlink:href="#DejaVuSans-48"/>
    <use x="4274.679688" xlink:href="#DejaVuSans-48"/>
    <use x="4338.302734" xlink:href="#DejaVuSans-37"/>
    <use x="4433.322266" xlink:href="#DejaVuSans-32"/>
    <use x="4465.109375" xlink:href="#DejaVuSans-114"/>
    <use x="4506.191406" xlink:href="#DejaVuSans-101"/>
    <use x="4567.714844" xlink:href="#DejaVuSans-97"/>
    <use x="4628.994141" xlink:href="#DejaVuSans-108"/>
    <use x="4656.777344" xlink:href="#DejaVuSans-32"/>
    <use x="4688.564453" xlink:href="#DejaVuSans-116"/>
    <use x="4727.773438" xlink:href="#DejaVuSans-105"/>
    <use x="4755.556641" xlink:href="#DejaVuSans-109"/>
    <use x="4852.96875" xlink:href="#DejaVuSans-101"/>
    <use x="4914.492188" xlink:href="#DejaVuSans-32"/>
    <use x="4946.279297" xlink:href="#DejaVuSans-115"/>
    <use x="4998.378906" xlink:href="#DejaVuSans-112"/>
    <use x="5061.855469" xlink:href="#DejaVuSans-101"/>
    <use x="5123.378906" xlink:href="#DejaVuSans-101"/>
    <use x="5184.902344" xlink:href="#DejaVuSans-100"/>
   </g>
   <!--  -->
   <g transform="translate(1440 105.925677)scale(0.34 -0.34)"/>
  </g>
 </g>
 <defs>
  <clipPath id="p23b651b93f">
   <rect height="863.577185" width="2782.90202" x="94.09774" y="157.9032"/>
  </clipPath>
 </defs>
</svg>
