<?xml version="1.0" encoding="utf-8" standalone="no"?>
<!DOCTYPE svg PUBLIC "-//W3C//DTD SVG 1.1//EN"
  "http://www.w3.org/Graphics/SVG/1.1/DTD/svg11.dtd">
<!-- Created with matplotlib (https://matplotlib.org/) -->
<svg height="1080pt" version="1.1" viewBox="0 0 2880 1080" width="2880pt" xmlns="http://www.w3.org/2000/svg" xmlns:xlink="http://www.w3.org/1999/xlink">
 <defs>
  <style type="text/css">
*{stroke-linecap:butt;stroke-linejoin:round;}
  </style>
 </defs>
 <g id="figure_1">
  <g id="patch_1">
   <path d="M 0 1080 
L 2880 1080 
L 2880 0 
L 0 0 
z
" style="fill:#ffffff;"/>
  </g>
  <g id="axes_1">
   <g id="patch_2">
    <path d="M 94.09774 1021.480385 
L 2876.99976 1021.480385 
L 2876.99976 157.9032 
L 94.09774 157.9032 
z
" style="fill:#ffffff;"/>
   </g>
   <g id="matplotlib.axis_1">
    <g id="xtick_1">
     <g id="line2d_1">
      <defs>
       <path d="M 0 0 
L 0 3.5 
" id="m2d02a7244a" style="stroke:#000000;stroke-width:0.8;"/>
      </defs>
      <g>
       <use style="stroke:#000000;stroke-width:0.8;" x="353.841225" xlink:href="#m2d02a7244a" y="1021.480385"/>
      </g>
     </g>
     <g id="text_1">
      <!-- 40 -->
      <defs>
       <path d="M 37.796875 64.3125 
L 12.890625 25.390625 
L 37.796875 25.390625 
z
M 35.203125 72.90625 
L 47.609375 72.90625 
L 47.609375 25.390625 
L 58.015625 25.390625 
L 58.015625 17.1875 
L 47.609375 17.1875 
L 47.609375 0 
L 37.796875 0 
L 37.796875 17.1875 
L 4.890625 17.1875 
L 4.890625 26.703125 
z
" id="DejaVuSans-52"/>
       <path d="M 31.78125 66.40625 
Q 24.171875 66.40625 20.328125 58.90625 
Q 16.5 51.421875 16.5 36.375 
Q 16.5 21.390625 20.328125 13.890625 
Q 24.171875 6.390625 31.78125 6.390625 
Q 39.453125 6.390625 43.28125 13.890625 
Q 47.125 21.390625 47.125 36.375 
Q 47.125 51.421875 43.28125 58.90625 
Q 39.453125 66.40625 31.78125 66.40625 
z
M 31.78125 74.21875 
Q 44.046875 74.21875 50.515625 64.515625 
Q 56.984375 54.828125 56.984375 36.375 
Q 56.984375 17.96875 50.515625 8.265625 
Q 44.046875 -1.421875 31.78125 -1.421875 
Q 19.53125 -1.421875 13.0625 8.265625 
Q 6.59375 17.96875 6.59375 36.375 
Q 6.59375 54.828125 13.0625 64.515625 
Q 19.53125 74.21875 31.78125 74.21875 
z
" id="DejaVuSans-48"/>
      </defs>
      <g transform="translate(341.116225 1043.67726)scale(0.2 -0.2)">
       <use xlink:href="#DejaVuSans-52"/>
       <use x="63.623047" xlink:href="#DejaVuSans-48"/>
      </g>
     </g>
    </g>
    <g id="xtick_2">
     <g id="line2d_2">
      <g>
       <use style="stroke:#000000;stroke-width:0.8;" x="886.832979" xlink:href="#m2d02a7244a" y="1021.480385"/>
      </g>
     </g>
     <g id="text_2">
      <!-- 60 -->
      <defs>
       <path d="M 33.015625 40.375 
Q 26.375 40.375 22.484375 35.828125 
Q 18.609375 31.296875 18.609375 23.390625 
Q 18.609375 15.53125 22.484375 10.953125 
Q 26.375 6.390625 33.015625 6.390625 
Q 39.65625 6.390625 43.53125 10.953125 
Q 47.40625 15.53125 47.40625 23.390625 
Q 47.40625 31.296875 43.53125 35.828125 
Q 39.65625 40.375 33.015625 40.375 
z
M 52.59375 71.296875 
L 52.59375 62.3125 
Q 48.875 64.0625 45.09375 64.984375 
Q 41.3125 65.921875 37.59375 65.921875 
Q 27.828125 65.921875 22.671875 59.328125 
Q 17.53125 52.734375 16.796875 39.40625 
Q 19.671875 43.65625 24.015625 45.921875 
Q 28.375 48.1875 33.59375 48.1875 
Q 44.578125 48.1875 50.953125 41.515625 
Q 57.328125 34.859375 57.328125 23.390625 
Q 57.328125 12.15625 50.6875 5.359375 
Q 44.046875 -1.421875 33.015625 -1.421875 
Q 20.359375 -1.421875 13.671875 8.265625 
Q 6.984375 17.96875 6.984375 36.375 
Q 6.984375 53.65625 15.1875 63.9375 
Q 23.390625 74.21875 37.203125 74.21875 
Q 40.921875 74.21875 44.703125 73.484375 
Q 48.484375 72.75 52.59375 71.296875 
z
" id="DejaVuSans-54"/>
      </defs>
      <g transform="translate(874.107979 1043.67726)scale(0.2 -0.2)">
       <use xlink:href="#DejaVuSans-54"/>
       <use x="63.623047" xlink:href="#DejaVuSans-48"/>
      </g>
     </g>
    </g>
    <g id="xtick_3">
     <g id="line2d_3">
      <g>
       <use style="stroke:#000000;stroke-width:0.8;" x="1419.824733" xlink:href="#m2d02a7244a" y="1021.480385"/>
      </g>
     </g>
     <g id="text_3">
      <!-- 80 -->
      <defs>
       <path d="M 31.78125 34.625 
Q 24.75 34.625 20.71875 30.859375 
Q 16.703125 27.09375 16.703125 20.515625 
Q 16.703125 13.921875 20.71875 10.15625 
Q 24.75 6.390625 31.78125 6.390625 
Q 38.8125 6.390625 42.859375 10.171875 
Q 46.921875 13.96875 46.921875 20.515625 
Q 46.921875 27.09375 42.890625 30.859375 
Q 38.875 34.625 31.78125 34.625 
z
M 21.921875 38.8125 
Q 15.578125 40.375 12.03125 44.71875 
Q 8.5 49.078125 8.5 55.328125 
Q 8.5 64.0625 14.71875 69.140625 
Q 20.953125 74.21875 31.78125 74.21875 
Q 42.671875 74.21875 48.875 69.140625 
Q 55.078125 64.0625 55.078125 55.328125 
Q 55.078125 49.078125 51.53125 44.71875 
Q 48 40.375 41.703125 38.8125 
Q 48.828125 37.15625 52.796875 32.3125 
Q 56.78125 27.484375 56.78125 20.515625 
Q 56.78125 9.90625 50.3125 4.234375 
Q 43.84375 -1.421875 31.78125 -1.421875 
Q 19.734375 -1.421875 13.25 4.234375 
Q 6.78125 9.90625 6.78125 20.515625 
Q 6.78125 27.484375 10.78125 32.3125 
Q 14.796875 37.15625 21.921875 38.8125 
z
M 18.3125 54.390625 
Q 18.3125 48.734375 21.84375 45.5625 
Q 25.390625 42.390625 31.78125 42.390625 
Q 38.140625 42.390625 41.71875 45.5625 
Q 45.3125 48.734375 45.3125 54.390625 
Q 45.3125 60.0625 41.71875 63.234375 
Q 38.140625 66.40625 31.78125 66.40625 
Q 25.390625 66.40625 21.84375 63.234375 
Q 18.3125 60.0625 18.3125 54.390625 
z
" id="DejaVuSans-56"/>
      </defs>
      <g transform="translate(1407.099733 1043.67726)scale(0.2 -0.2)">
       <use xlink:href="#DejaVuSans-56"/>
       <use x="63.623047" xlink:href="#DejaVuSans-48"/>
      </g>
     </g>
    </g>
    <g id="xtick_4">
     <g id="line2d_4">
      <g>
       <use style="stroke:#000000;stroke-width:0.8;" x="1952.816487" xlink:href="#m2d02a7244a" y="1021.480385"/>
      </g>
     </g>
     <g id="text_4">
      <!-- 100 -->
      <defs>
       <path d="M 12.40625 8.296875 
L 28.515625 8.296875 
L 28.515625 63.921875 
L 10.984375 60.40625 
L 10.984375 69.390625 
L 28.421875 72.90625 
L 38.28125 72.90625 
L 38.28125 8.296875 
L 54.390625 8.296875 
L 54.390625 0 
L 12.40625 0 
z
" id="DejaVuSans-49"/>
      </defs>
      <g transform="translate(1933.728987 1043.67726)scale(0.2 -0.2)">
       <use xlink:href="#DejaVuSans-49"/>
       <use x="63.623047" xlink:href="#DejaVuSans-48"/>
       <use x="127.246094" xlink:href="#DejaVuSans-48"/>
      </g>
     </g>
    </g>
    <g id="xtick_5">
     <g id="line2d_5">
      <g>
       <use style="stroke:#000000;stroke-width:0.8;" x="2485.808242" xlink:href="#m2d02a7244a" y="1021.480385"/>
      </g>
     </g>
     <g id="text_5">
      <!-- 120 -->
      <defs>
       <path d="M 19.1875 8.296875 
L 53.609375 8.296875 
L 53.609375 0 
L 7.328125 0 
L 7.328125 8.296875 
Q 12.9375 14.109375 22.625 23.890625 
Q 32.328125 33.6875 34.8125 36.53125 
Q 39.546875 41.84375 41.421875 45.53125 
Q 43.3125 49.21875 43.3125 52.78125 
Q 43.3125 58.59375 39.234375 62.25 
Q 35.15625 65.921875 28.609375 65.921875 
Q 23.96875 65.921875 18.8125 64.3125 
Q 13.671875 62.703125 7.8125 59.421875 
L 7.8125 69.390625 
Q 13.765625 71.78125 18.9375 73 
Q 24.125 74.21875 28.421875 74.21875 
Q 39.75 74.21875 46.484375 68.546875 
Q 53.21875 62.890625 53.21875 53.421875 
Q 53.21875 48.921875 51.53125 44.890625 
Q 49.859375 40.875 45.40625 35.40625 
Q 44.1875 33.984375 37.640625 27.21875 
Q 31.109375 20.453125 19.1875 8.296875 
z
" id="DejaVuSans-50"/>
      </defs>
      <g transform="translate(2466.720742 1043.67726)scale(0.2 -0.2)">
       <use xlink:href="#DejaVuSans-49"/>
       <use x="63.623047" xlink:href="#DejaVuSans-50"/>
       <use x="127.246094" xlink:href="#DejaVuSans-48"/>
      </g>
     </g>
    </g>
    <g id="text_6">
     <!-- Time [s] -->
     <defs>
      <path d="M -0.296875 72.90625 
L 61.375 72.90625 
L 61.375 64.59375 
L 35.5 64.59375 
L 35.5 0 
L 25.59375 0 
L 25.59375 64.59375 
L -0.296875 64.59375 
z
" id="DejaVuSans-84"/>
      <path d="M 9.421875 54.6875 
L 18.40625 54.6875 
L 18.40625 0 
L 9.421875 0 
z
M 9.421875 75.984375 
L 18.40625 75.984375 
L 18.40625 64.59375 
L 9.421875 64.59375 
z
" id="DejaVuSans-105"/>
      <path d="M 52 44.1875 
Q 55.375 50.25 60.0625 53.125 
Q 64.75 56 71.09375 56 
Q 79.640625 56 84.28125 50.015625 
Q 88.921875 44.046875 88.921875 33.015625 
L 88.921875 0 
L 79.890625 0 
L 79.890625 32.71875 
Q 79.890625 40.578125 77.09375 44.375 
Q 74.3125 48.1875 68.609375 48.1875 
Q 61.625 48.1875 57.5625 43.546875 
Q 53.515625 38.921875 53.515625 30.90625 
L 53.515625 0 
L 44.484375 0 
L 44.484375 32.71875 
Q 44.484375 40.625 41.703125 44.40625 
Q 38.921875 48.1875 33.109375 48.1875 
Q 26.21875 48.1875 22.15625 43.53125 
Q 18.109375 38.875 18.109375 30.90625 
L 18.109375 0 
L 9.078125 0 
L 9.078125 54.6875 
L 18.109375 54.6875 
L 18.109375 46.1875 
Q 21.1875 51.21875 25.484375 53.609375 
Q 29.78125 56 35.6875 56 
Q 41.65625 56 45.828125 52.96875 
Q 50 49.953125 52 44.1875 
z
" id="DejaVuSans-109"/>
      <path d="M 56.203125 29.59375 
L 56.203125 25.203125 
L 14.890625 25.203125 
Q 15.484375 15.921875 20.484375 11.0625 
Q 25.484375 6.203125 34.421875 6.203125 
Q 39.59375 6.203125 44.453125 7.46875 
Q 49.3125 8.734375 54.109375 11.28125 
L 54.109375 2.78125 
Q 49.265625 0.734375 44.1875 -0.34375 
Q 39.109375 -1.421875 33.890625 -1.421875 
Q 20.796875 -1.421875 13.15625 6.1875 
Q 5.515625 13.8125 5.515625 26.8125 
Q 5.515625 40.234375 12.765625 48.109375 
Q 20.015625 56 32.328125 56 
Q 43.359375 56 49.78125 48.890625 
Q 56.203125 41.796875 56.203125 29.59375 
z
M 47.21875 32.234375 
Q 47.125 39.59375 43.09375 43.984375 
Q 39.0625 48.390625 32.421875 48.390625 
Q 24.90625 48.390625 20.390625 44.140625 
Q 15.875 39.890625 15.1875 32.171875 
z
" id="DejaVuSans-101"/>
      <path id="DejaVuSans-32"/>
      <path d="M 8.59375 75.984375 
L 29.296875 75.984375 
L 29.296875 69 
L 17.578125 69 
L 17.578125 -6.203125 
L 29.296875 -6.203125 
L 29.296875 -13.1875 
L 8.59375 -13.1875 
z
" id="DejaVuSans-91"/>
      <path d="M 44.28125 53.078125 
L 44.28125 44.578125 
Q 40.484375 46.53125 36.375 47.5 
Q 32.28125 48.484375 27.875 48.484375 
Q 21.1875 48.484375 17.84375 46.4375 
Q 14.5 44.390625 14.5 40.28125 
Q 14.5 37.15625 16.890625 35.375 
Q 19.28125 33.59375 26.515625 31.984375 
L 29.59375 31.296875 
Q 39.15625 29.25 43.1875 25.515625 
Q 47.21875 21.78125 47.21875 15.09375 
Q 47.21875 7.46875 41.1875 3.015625 
Q 35.15625 -1.421875 24.609375 -1.421875 
Q 20.21875 -1.421875 15.453125 -0.5625 
Q 10.6875 0.296875 5.421875 2 
L 5.421875 11.28125 
Q 10.40625 8.6875 15.234375 7.390625 
Q 20.0625 6.109375 24.8125 6.109375 
Q 31.15625 6.109375 34.5625 8.28125 
Q 37.984375 10.453125 37.984375 14.40625 
Q 37.984375 18.0625 35.515625 20.015625 
Q 33.0625 21.96875 24.703125 23.78125 
L 21.578125 24.515625 
Q 13.234375 26.265625 9.515625 29.90625 
Q 5.8125 33.546875 5.8125 39.890625 
Q 5.8125 47.609375 11.28125 51.796875 
Q 16.75 56 26.8125 56 
Q 31.78125 56 36.171875 55.265625 
Q 40.578125 54.546875 44.28125 53.078125 
z
" id="DejaVuSans-115"/>
      <path d="M 30.421875 75.984375 
L 30.421875 -13.1875 
L 9.71875 -13.1875 
L 9.71875 -6.203125 
L 21.390625 -6.203125 
L 21.390625 69 
L 9.71875 69 
L 9.71875 75.984375 
z
" id="DejaVuSans-93"/>
     </defs>
     <g transform="translate(1432.293437 1071.592572)scale(0.26 -0.26)">
      <use xlink:href="#DejaVuSans-84"/>
      <use x="61.037109" xlink:href="#DejaVuSans-105"/>
      <use x="88.820312" xlink:href="#DejaVuSans-109"/>
      <use x="186.232422" xlink:href="#DejaVuSans-101"/>
      <use x="247.755859" xlink:href="#DejaVuSans-32"/>
      <use x="279.542969" xlink:href="#DejaVuSans-91"/>
      <use x="318.556641" xlink:href="#DejaVuSans-115"/>
      <use x="370.65625" xlink:href="#DejaVuSans-93"/>
     </g>
    </g>
   </g>
   <g id="matplotlib.axis_2">
    <g id="ytick_1">
     <g id="line2d_6">
      <defs>
       <path d="M 0 0 
L -3.5 0 
" id="m2948232b91" style="stroke:#000000;stroke-width:0.8;"/>
      </defs>
      <g>
       <use style="stroke:#000000;stroke-width:0.8;" x="94.09774" xlink:href="#m2948232b91" y="920.247653"/>
      </g>
     </g>
     <g id="text_7">
      <!-- −140 -->
      <defs>
       <path d="M 10.59375 35.5 
L 73.1875 35.5 
L 73.1875 27.203125 
L 10.59375 27.203125 
z
" id="DejaVuSans-8722"/>
      </defs>
      <g transform="translate(32.163365 927.84609)scale(0.2 -0.2)">
       <use xlink:href="#DejaVuSans-8722"/>
       <use x="83.789062" xlink:href="#DejaVuSans-49"/>
       <use x="147.412109" xlink:href="#DejaVuSans-52"/>
       <use x="211.035156" xlink:href="#DejaVuSans-48"/>
      </g>
     </g>
    </g>
    <g id="ytick_2">
     <g id="line2d_7">
      <g>
       <use style="stroke:#000000;stroke-width:0.8;" x="94.09774" xlink:href="#m2948232b91" y="816.948946"/>
      </g>
     </g>
     <g id="text_8">
      <!-- −120 -->
      <g transform="translate(32.163365 824.547384)scale(0.2 -0.2)">
       <use xlink:href="#DejaVuSans-8722"/>
       <use x="83.789062" xlink:href="#DejaVuSans-49"/>
       <use x="147.412109" xlink:href="#DejaVuSans-50"/>
       <use x="211.035156" xlink:href="#DejaVuSans-48"/>
      </g>
     </g>
    </g>
    <g id="ytick_3">
     <g id="line2d_8">
      <g>
       <use style="stroke:#000000;stroke-width:0.8;" x="94.09774" xlink:href="#m2948232b91" y="713.65024"/>
      </g>
     </g>
     <g id="text_9">
      <!-- −100 -->
      <g transform="translate(32.163365 721.248678)scale(0.2 -0.2)">
       <use xlink:href="#DejaVuSans-8722"/>
       <use x="83.789062" xlink:href="#DejaVuSans-49"/>
       <use x="147.412109" xlink:href="#DejaVuSans-48"/>
       <use x="211.035156" xlink:href="#DejaVuSans-48"/>
      </g>
     </g>
    </g>
    <g id="ytick_4">
     <g id="line2d_9">
      <g>
       <use style="stroke:#000000;stroke-width:0.8;" x="94.09774" xlink:href="#m2948232b91" y="610.351534"/>
      </g>
     </g>
     <g id="text_10">
      <!-- −80 -->
      <g transform="translate(44.888365 617.949971)scale(0.2 -0.2)">
       <use xlink:href="#DejaVuSans-8722"/>
       <use x="83.789062" xlink:href="#DejaVuSans-56"/>
       <use x="147.412109" xlink:href="#DejaVuSans-48"/>
      </g>
     </g>
    </g>
    <g id="ytick_5">
     <g id="line2d_10">
      <g>
       <use style="stroke:#000000;stroke-width:0.8;" x="94.09774" xlink:href="#m2948232b91" y="507.052827"/>
      </g>
     </g>
     <g id="text_11">
      <!-- −60 -->
      <g transform="translate(44.888365 514.651265)scale(0.2 -0.2)">
       <use xlink:href="#DejaVuSans-8722"/>
       <use x="83.789062" xlink:href="#DejaVuSans-54"/>
       <use x="147.412109" xlink:href="#DejaVuSans-48"/>
      </g>
     </g>
    </g>
    <g id="ytick_6">
     <g id="line2d_11">
      <g>
       <use style="stroke:#000000;stroke-width:0.8;" x="94.09774" xlink:href="#m2948232b91" y="403.754121"/>
      </g>
     </g>
     <g id="text_12">
      <!-- −40 -->
      <g transform="translate(44.888365 411.352559)scale(0.2 -0.2)">
       <use xlink:href="#DejaVuSans-8722"/>
       <use x="83.789062" xlink:href="#DejaVuSans-52"/>
       <use x="147.412109" xlink:href="#DejaVuSans-48"/>
      </g>
     </g>
    </g>
    <g id="ytick_7">
     <g id="line2d_12">
      <g>
       <use style="stroke:#000000;stroke-width:0.8;" x="94.09774" xlink:href="#m2948232b91" y="300.455415"/>
      </g>
     </g>
     <g id="text_13">
      <!-- −20 -->
      <g transform="translate(44.888365 308.053852)scale(0.2 -0.2)">
       <use xlink:href="#DejaVuSans-8722"/>
       <use x="83.789062" xlink:href="#DejaVuSans-50"/>
       <use x="147.412109" xlink:href="#DejaVuSans-48"/>
      </g>
     </g>
    </g>
    <g id="ytick_8">
     <g id="line2d_13">
      <g>
       <use style="stroke:#000000;stroke-width:0.8;" x="94.09774" xlink:href="#m2948232b91" y="197.156708"/>
      </g>
     </g>
     <g id="text_14">
      <!-- 0 -->
      <g transform="translate(74.37274 204.755146)scale(0.2 -0.2)">
       <use xlink:href="#DejaVuSans-48"/>
      </g>
     </g>
    </g>
    <g id="text_15">
     <!-- Length [m] -->
     <defs>
      <path d="M 9.8125 72.90625 
L 19.671875 72.90625 
L 19.671875 8.296875 
L 55.171875 8.296875 
L 55.171875 0 
L 9.8125 0 
z
" id="DejaVuSans-76"/>
      <path d="M 54.890625 33.015625 
L 54.890625 0 
L 45.90625 0 
L 45.90625 32.71875 
Q 45.90625 40.484375 42.875 44.328125 
Q 39.84375 48.1875 33.796875 48.1875 
Q 26.515625 48.1875 22.3125 43.546875 
Q 18.109375 38.921875 18.109375 30.90625 
L 18.109375 0 
L 9.078125 0 
L 9.078125 54.6875 
L 18.109375 54.6875 
L 18.109375 46.1875 
Q 21.34375 51.125 25.703125 53.5625 
Q 30.078125 56 35.796875 56 
Q 45.21875 56 50.046875 50.171875 
Q 54.890625 44.34375 54.890625 33.015625 
z
" id="DejaVuSans-110"/>
      <path d="M 45.40625 27.984375 
Q 45.40625 37.75 41.375 43.109375 
Q 37.359375 48.484375 30.078125 48.484375 
Q 22.859375 48.484375 18.828125 43.109375 
Q 14.796875 37.75 14.796875 27.984375 
Q 14.796875 18.265625 18.828125 12.890625 
Q 22.859375 7.515625 30.078125 7.515625 
Q 37.359375 7.515625 41.375 12.890625 
Q 45.40625 18.265625 45.40625 27.984375 
z
M 54.390625 6.78125 
Q 54.390625 -7.171875 48.1875 -13.984375 
Q 42 -20.796875 29.203125 -20.796875 
Q 24.46875 -20.796875 20.265625 -20.09375 
Q 16.0625 -19.390625 12.109375 -17.921875 
L 12.109375 -9.1875 
Q 16.0625 -11.328125 19.921875 -12.34375 
Q 23.78125 -13.375 27.78125 -13.375 
Q 36.625 -13.375 41.015625 -8.765625 
Q 45.40625 -4.15625 45.40625 5.171875 
L 45.40625 9.625 
Q 42.625 4.78125 38.28125 2.390625 
Q 33.9375 0 27.875 0 
Q 17.828125 0 11.671875 7.65625 
Q 5.515625 15.328125 5.515625 27.984375 
Q 5.515625 40.671875 11.671875 48.328125 
Q 17.828125 56 27.875 56 
Q 33.9375 56 38.28125 53.609375 
Q 42.625 51.21875 45.40625 46.390625 
L 45.40625 54.6875 
L 54.390625 54.6875 
z
" id="DejaVuSans-103"/>
      <path d="M 18.3125 70.21875 
L 18.3125 54.6875 
L 36.8125 54.6875 
L 36.8125 47.703125 
L 18.3125 47.703125 
L 18.3125 18.015625 
Q 18.3125 11.328125 20.140625 9.421875 
Q 21.96875 7.515625 27.59375 7.515625 
L 36.8125 7.515625 
L 36.8125 0 
L 27.59375 0 
Q 17.1875 0 13.234375 3.875 
Q 9.28125 7.765625 9.28125 18.015625 
L 9.28125 47.703125 
L 2.6875 47.703125 
L 2.6875 54.6875 
L 9.28125 54.6875 
L 9.28125 70.21875 
z
" id="DejaVuSans-116"/>
      <path d="M 54.890625 33.015625 
L 54.890625 0 
L 45.90625 0 
L 45.90625 32.71875 
Q 45.90625 40.484375 42.875 44.328125 
Q 39.84375 48.1875 33.796875 48.1875 
Q 26.515625 48.1875 22.3125 43.546875 
Q 18.109375 38.921875 18.109375 30.90625 
L 18.109375 0 
L 9.078125 0 
L 9.078125 75.984375 
L 18.109375 75.984375 
L 18.109375 46.1875 
Q 21.34375 51.125 25.703125 53.5625 
Q 30.078125 56 35.796875 56 
Q 45.21875 56 50.046875 50.171875 
Q 54.890625 44.34375 54.890625 33.015625 
z
" id="DejaVuSans-104"/>
     </defs>
     <g transform="translate(22.756178 661.697574)rotate(-90)scale(0.26 -0.26)">
      <use xlink:href="#DejaVuSans-76"/>
      <use x="55.697266" xlink:href="#DejaVuSans-101"/>
      <use x="117.220703" xlink:href="#DejaVuSans-110"/>
      <use x="180.599609" xlink:href="#DejaVuSans-103"/>
      <use x="244.076172" xlink:href="#DejaVuSans-116"/>
      <use x="283.285156" xlink:href="#DejaVuSans-104"/>
      <use x="346.664062" xlink:href="#DejaVuSans-32"/>
      <use x="378.451172" xlink:href="#DejaVuSans-91"/>
      <use x="417.464844" xlink:href="#DejaVuSans-109"/>
      <use x="514.876953" xlink:href="#DejaVuSans-93"/>
     </g>
    </g>
   </g>
   <g id="line2d_14">
    <path clip-path="url(#p9d10001aa4)" d="M 220.593286 197.166003 
L 230.992626 197.156708 
L 231.852429 197.156708 
L 232.720378 577.173536 
L 233.585156 789.271843 
L 234.450239 949.175467 
L 235.316612 982.226877 
L 236.182432 750.434814 
L 237.047153 197.156708 
L 240.513051 197.156708 
L 241.37964 348.795932 
L 242.245269 858.267389 
L 243.110588 982.226877 
L 245.709217 982.226877 
L 246.575501 396.697746 
L 247.441797 197.156708 
L 252.637258 197.156708 
L 253.504914 818.69546 
L 254.370506 982.226877 
L 256.103728 982.226877 
L 256.967864 698.699265 
L 257.836537 197.156708 
L 263.030943 197.156708 
L 263.897812 622.135453 
L 264.764096 982.226877 
L 266.495996 982.226877 
L 267.363602 764.861959 
L 268.229746 197.156708 
L 273.423764 197.156708 
L 275.157291 982.226877 
L 276.891035 982.226877 
L 277.756226 662.064886 
L 278.62596 197.156708 
L 283.817659 197.156708 
L 284.684998 757.720746 
L 285.550761 982.226877 
L 286.420552 982.226877 
L 287.283233 919.366941 
L 288.14906 401.633131 
L 289.016582 197.156708 
L 293.346185 197.156708 
L 294.211293 504.619512 
L 295.084535 962.050724 
L 295.946155 982.226877 
L 296.809719 982.226877 
L 298.541576 197.156708 
L 302.873033 197.156708 
L 303.739215 382.819095 
L 304.605798 863.337044 
L 305.47083 982.226877 
L 306.336993 982.226877 
L 307.20437 614.565296 
L 308.069237 197.156708 
L 312.399361 197.156708 
L 313.266877 388.022418 
L 314.13278 842.7615 
L 314.998263 982.226877 
L 315.864674 930.148652 
L 317.596759 197.156708 
L 321.928592 197.156708 
L 322.794018 491.663287 
L 323.660772 879.48444 
L 324.525906 982.226877 
L 325.391783 817.469334 
L 326.257425 393.480635 
L 327.126937 197.156708 
L 331.468522 197.156708 
L 332.322772 649.038538 
L 333.186242 924.7107 
L 334.05393 920.552124 
L 334.92043 641.473329 
L 335.784941 197.156708 
L 340.115833 197.156708 
L 340.981494 426.247926 
L 341.848039 796.007018 
L 342.715307 920.11224 
L 343.58271 770.564166 
L 344.446732 391.50577 
L 345.312831 197.156708 
L 348.779225 197.156708 
L 349.643285 248.604718 
L 350.508273 661.826902 
L 351.377251 870.533026 
L 352.245396 818.317156 
L 353.973167 197.156708 
L 358.304491 197.156708 
L 359.170877 551.319757 
L 360.038819 807.901492 
L 360.901844 819.164269 
L 361.768534 588.92835 
L 362.636286 197.156708 
L 366.966085 197.156708 
L 368.698691 750.420428 
L 369.56488 797.138554 
L 370.433057 609.883443 
L 371.294893 244.720777 
L 372.161361 197.156708 
L 375.629776 197.156708 
L 376.49219 429.737211 
L 377.357896 705.3314 
L 378.227554 765.198247 
L 379.08925 601.296333 
L 379.957091 262.739814 
L 380.825198 197.156708 
L 384.28811 197.156708 
L 385.154152 409.078804 
L 386.019452 671.724304 
L 386.88618 729.321168 
L 387.752553 574.374336 
L 388.618761 253.830894 
L 389.484638 197.156708 
L 392.947912 197.156708 
L 393.815289 397.584124 
L 394.679997 642.519678 
L 395.547336 691.909341 
L 396.41219 540.574508 
L 397.279446 234.968395 
L 398.145215 197.156708 
L 401.609449 197.156708 
L 402.475866 388.256991 
L 403.341102 614.086887 
L 404.210283 653.818213 
L 405.073314 504.683361 
L 405.940385 213.319243 
L 406.807063 197.156708 
L 410.272072 197.156708 
L 412.004856 586.206718 
L 412.870968 614.957536 
L 413.735193 466.814878 
L 414.603383 197.156708 
L 418.930362 197.156708 
L 420.663603 558.462186 
L 421.529448 574.989333 
L 422.397219 426.848834 
L 423.26168 197.156708 
L 427.594637 197.156708 
L 429.326182 530.408807 
L 430.192027 533.670314 
L 431.059048 385.008832 
L 431.925936 197.156708 
L 436.254178 197.156708 
L 437.121816 365.352175 
L 437.984967 501.428982 
L 438.852909 490.698119 
L 440.586729 197.156708 
L 444.915524 197.156708 
L 445.78034 360.175659 
L 446.648442 470.832327 
L 447.514236 445.743617 
L 448.379739 296.995029 
L 449.246429 197.156708 
L 453.578217 197.156708 
L 454.446611 354.513076 
L 455.308034 438.915744 
L 456.174877 399.272795 
L 457.040773 251.630597 
L 457.907337 197.156708 
L 462.237988 197.156708 
L 463.103102 348.736248 
L 463.971693 406.802378 
L 464.835988 352.654585 
L 465.701465 205.95146 
L 466.567399 197.156708 
L 470.033012 197.156708 
L 470.900509 213.64569 
L 471.763565 339.879868 
L 472.631609 371.591699 
L 473.498681 303.581407 
L 474.363364 197.156708 
L 478.692725 197.156708 
L 479.559447 230.09241 
L 480.425578 325.240146 
L 481.293425 331.73796 
L 482.159099 252.238107 
L 483.023655 197.156708 
L 487.354871 197.156708 
L 488.221136 239.969884 
L 489.088939 303.482085 
L 489.953475 287.187716 
L 490.819422 199.805595 
L 491.685395 197.156708 
L 496.017259 197.156708 
L 496.883791 241.156495 
L 497.747178 273.874202 
L 498.615628 238.426292 
L 499.479726 197.156708 
L 504.676267 197.156708 
L 505.543739 231.465098 
L 506.408079 236.448722 
L 507.274439 197.156708 
L 513.3376 197.156708 
L 514.204761 209.330239 
L 515.06973 197.156708 
L 1033.872528 197.156708 
L 1034.736893 469.113306 
L 1035.60251 593.048941 
L 1036.474722 868.067802 
L 1037.334798 982.226877 
L 1038.20445 982.226877 
L 1039.070753 373.702133 
L 1039.936776 197.156708 
L 1046.862441 197.156708 
L 1047.727969 641.601796 
L 1048.595003 982.226877 
L 1052.058651 982.226877 
L 1052.924789 641.206714 
L 1053.792102 197.156708 
L 1059.855505 197.156708 
L 1060.720868 982.226877 
L 1064.186194 982.226877 
L 1065.052929 877.135722 
L 1065.91704 197.156708 
L 1071.980087 197.156708 
L 1072.845615 936.379389 
L 1073.712706 982.226877 
L 1076.309594 982.226877 
L 1077.180434 729.482633 
L 1078.042797 197.156708 
L 1083.240444 197.156708 
L 1084.105832 419.406502 
L 1084.973539 982.226877 
L 1088.436324 982.226877 
L 1089.302068 241.467929 
L 1090.168815 197.156708 
L 1094.497986 197.156708 
L 1095.366589 237.850642 
L 1096.230547 982.226877 
L 1099.694965 982.226877 
L 1100.563708 266.967668 
L 1101.427062 197.156708 
L 1105.764855 197.156708 
L 1106.625751 364.667231 
L 1107.490745 982.226877 
L 1110.089965 982.226877 
L 1110.956332 755.136484 
L 1111.821307 197.156708 
L 1117.019493 197.156708 
L 1117.883896 722.664416 
L 1118.749907 982.226877 
L 1120.48196 982.226877 
L 1121.350544 933.380661 
L 1122.214496 261.238126 
L 1123.081765 197.156708 
L 1127.410179 197.156708 
L 1129.144119 982.226877 
L 1130.874997 982.226877 
L 1131.741554 911.503879 
L 1132.609751 269.99291 
L 1133.474306 197.156708 
L 1137.80354 197.156708 
L 1138.671203 671.008513 
L 1139.535867 982.226877 
L 1141.269483 982.226877 
L 1142.134324 730.675497 
L 1143.003449 197.156708 
L 1147.330967 197.156708 
L 1148.198363 289.128054 
L 1149.064132 877.716601 
L 1149.932042 982.226877 
L 1150.79534 982.226877 
L 1151.663657 937.641876 
L 1152.528226 380.20017 
L 1153.394205 197.156708 
L 1157.724493 197.156708 
L 1158.592461 690.013997 
L 1159.457423 982.226877 
L 1161.188765 982.226877 
L 1162.056027 497.592592 
L 1162.922324 197.156708 
L 1167.252123 197.156708 
L 1168.118572 626.536925 
L 1168.984875 982.226877 
L 1169.854107 982.226877 
L 1170.71764 948.19194 
L 1171.582259 474.705641 
L 1172.448168 197.156708 
L 1176.779709 197.156708 
L 1177.645776 674.373867 
L 1178.511018 982.226877 
L 1179.377639 982.226877 
L 1180.244304 834.514755 
L 1181.110175 340.230894 
L 1181.976847 197.156708 
L 1185.439854 197.156708 
L 1186.306678 308.228002 
L 1187.174353 792.132614 
L 1188.037975 982.226877 
L 1188.905923 982.226877 
L 1189.770581 636.582981 
L 1190.63837 197.156708 
L 1194.966982 197.156708 
L 1196.699283 916.660369 
L 1197.566481 982.226877 
L 1198.435682 794.275425 
L 1199.29931 350.233363 
L 1200.165467 197.156708 
L 1203.628899 197.156708 
L 1204.49958 364.004261 
L 1205.360387 782.94379 
L 1206.227821 970.325115 
L 1207.093648 864.083859 
L 1207.959671 501.174959 
L 1208.82544 197.156708 
L 1212.28935 197.156708 
L 1213.156612 227.859683 
L 1214.023906 665.565492 
L 1214.888646 910.638768 
L 1215.753736 883.806398 
L 1216.622053 593.545792 
L 1217.487739 197.156708 
L 1221.818949 197.156708 
L 1222.683638 565.21865 
L 1223.549802 844.272122 
L 1224.416257 874.720704 
L 1225.281937 645.300251 
L 1226.150146 238.379069 
L 1227.013361 197.156708 
L 1230.478446 197.156708 
L 1232.210932 774.272203 
L 1233.075887 850.653976 
L 1233.941873 676.199292 
L 1234.80944 313.129208 
L 1235.677211 197.156708 
L 1239.138731 197.156708 
L 1240.006273 385.109375 
L 1240.87088 700.960728 
L 1241.737888 816.071131 
L 1242.610329 693.400575 
L 1243.469363 376.045788 
L 1244.338423 197.156708 
L 1247.799836 197.156708 
L 1248.666253 302.631615 
L 1249.534056 625.853016 
L 1250.399355 772.626131 
L 1251.267634 697.88371 
L 1252.132494 427.048001 
L 1252.998302 197.156708 
L 1256.460998 197.156708 
L 1257.327561 227.234994 
L 1258.194201 550.201077 
L 1259.059493 722.082894 
L 1259.925358 690.519067 
L 1260.791254 465.863784 
L 1261.659425 197.156708 
L 1265.988653 197.156708 
L 1266.855648 475.871441 
L 1267.726876 666.36038 
L 1268.587219 672.494703 
L 1269.454932 492.496522 
L 1270.319113 197.156708 
L 1274.651028 197.156708 
L 1276.382738 607.223191 
L 1277.249003 645.087716 
L 1278.114112 507.278715 
L 1278.979766 242.521111 
L 1279.852906 197.156708 
L 1283.310964 197.156708 
L 1284.178499 337.622852 
L 1285.043519 546.571325 
L 1285.910133 609.741406 
L 1286.775477 510.886093 
L 1287.640973 283.916906 
L 1288.507936 197.156708 
L 1291.972164 197.156708 
L 1292.83839 276.700441 
L 1293.705805 485.390151 
L 1294.570761 567.882011 
L 1295.437839 503.945325 
L 1296.302185 314.657443 
L 1297.168774 197.156708 
L 1300.633205 197.156708 
L 1301.500029 222.738556 
L 1302.369419 424.971797 
L 1303.231097 521.389155 
L 1304.096936 487.396933 
L 1305.831366 197.156708 
L 1310.159418 197.156708 
L 1311.026718 366.882834 
L 1311.892748 471.75993 
L 1312.758149 462.312869 
L 1313.624445 344.014288 
L 1314.491453 197.156708 
L 1318.822028 197.156708 
L 1320.553077 420.821526 
L 1321.421579 429.932847 
L 1322.286172 343.099659 
L 1323.152908 197.156708 
L 1327.482218 197.156708 
L 1328.34887 263.591968 
L 1329.219786 369.095539 
L 1330.081082 391.585013 
L 1330.945975 332.77408 
L 1331.814304 211.183377 
L 1332.677945 197.156708 
L 1336.14493 197.156708 
L 1337.010165 220.068333 
L 1337.876754 317.622233 
L 1338.742847 349.273408 
L 1339.608579 313.954254 
L 1340.474577 223.534848 
L 1341.341045 197.156708 
L 1345.669777 197.156708 
L 1346.537814 268.376694 
L 1347.409747 304.545104 
L 1348.269874 286.420855 
L 1349.135103 224.911262 
L 1350.002588 197.156708 
L 1354.333963 197.156708 
L 1355.198925 223.374719 
L 1356.063843 257.915457 
L 1356.930972 252.096198 
L 1357.797415 215.275323 
L 1358.663489 197.156708 
L 1363.861288 197.156708 
L 1364.724992 211.46388 
L 1365.591181 213.529028 
L 1366.457579 197.156708 
L 1841.952186 197.156708 
L 1842.8211 431.793486 
L 1843.686635 982.226877 
L 1844.551908 982.226877 
L 1845.418662 722.495614 
L 1846.2844 322.336579 
L 1847.149648 197.156708 
L 1849.746638 197.156708 
L 1850.614695 288.398608 
L 1851.480096 637.907975 
L 1852.346373 796.321232 
L 1853.214017 718.879627 
L 1854.078712 430.515796 
L 1854.944373 197.156708 
L 1858.408607 197.156708 
L 1859.27531 250.056679 
L 1860.141804 594.912723 
L 1861.008412 757.983035 
L 1861.873679 695.11287 
L 1863.606285 197.156708 
L 1867.070169 197.156708 
L 1867.937971 242.528547 
L 1868.801415 569.000396 
L 1869.670889 722.466929 
L 1870.535762 660.712808 
L 1871.400998 407.996189 
L 1872.267745 197.156708 
L 1875.731706 197.156708 
L 1876.59677 241.347554 
L 1877.463104 547.193199 
L 1878.330068 687.480345 
L 1879.196409 623.425154 
L 1880.063564 380.676459 
L 1880.927948 197.156708 
L 1884.392537 197.156708 
L 1885.259742 242.933333 
L 1886.124603 526.937093 
L 1886.99001 652.334655 
L 1887.857552 584.451477 
L 1888.722387 350.644067 
L 1889.589059 197.156708 
L 1893.054779 197.156708 
L 1893.920389 246.69551 
L 1894.786381 507.746775 
L 1895.651445 616.812354 
L 1896.518345 543.925737 
L 1897.385226 318.289142 
L 1898.250398 197.156708 
L 1901.71467 197.156708 
L 1902.580236 252.345667 
L 1903.449334 489.25919 
L 1904.313109 580.630251 
L 1905.180295 501.79181 
L 1906.044584 283.795135 
L 1906.911376 197.156708 
L 1910.375152 197.156708 
L 1911.244352 259.234083 
L 1912.108101 470.854571 
L 1912.974518 543.405954 
L 1913.84152 458.085358 
L 1914.707035 247.366916 
L 1915.572016 197.156708 
L 1919.038861 197.156708 
L 1919.901962 266.823282 
L 1920.768576 451.93216 
L 1921.635947 504.713593 
L 1922.501335 412.92335 
L 1923.367288 209.232136 
L 1924.23288 197.156708 
L 1927.697723 197.156708 
L 1928.568537 274.391602 
L 1929.432114 431.669361 
L 1930.296518 463.971415 
L 1931.161175 365.843721 
L 1932.029225 197.156708 
L 1936.359113 197.156708 
L 1937.225906 282.043186 
L 1938.091802 410.935498 
L 1938.9582 422.566025 
L 1939.825107 318.117124 
L 1940.688443 197.156708 
L 1945.02208 197.156708 
L 1946.753262 389.209607 
L 1947.619171 380.300469 
L 1948.485347 269.656299 
L 1949.350894 197.156708 
L 1953.682562 197.156708 
L 1954.549373 293.088705 
L 1955.417677 363.393247 
L 1956.28034 334.716718 
L 1957.145963 219.231209 
L 1958.013155 197.156708 
L 1962.341652 197.156708 
L 1963.207968 290.991086 
L 1964.075071 332.094012 
L 1964.942925 285.857141 
L 1965.80762 197.156708 
L 1971.003608 197.156708 
L 1971.869733 281.302053 
L 1972.736405 294.847833 
L 1973.602638 234.345798 
L 1974.467308 197.156708 
L 1978.798333 197.156708 
L 1979.665354 206.705122 
L 1980.531422 262.432836 
L 1981.399212 251.649218 
L 1982.262611 197.156708 
L 1987.460029 197.156708 
L 1988.32555 208.988408 
L 1989.191631 233.63912 
L 1990.05754 203.590922 
L 1990.923633 197.156708 
L 1996.120746 197.156708 
L 1996.987487 197.390616 
L 1997.853752 197.156708 
L 2640.508668 197.156708 
L 2641.375879 485.091711 
L 2642.239927 970.404343 
L 2643.106077 982.226877 
L 2645.70404 197.156708 
L 2650.9014 197.156708 
L 2651.767697 251.347804 
L 2652.634489 734.05196 
L 2653.49961 982.226877 
L 2654.364642 967.003598 
L 2655.232298 644.968188 
L 2656.098373 197.156708 
L 2660.42868 197.156708 
L 2662.160702 893.366516 
L 2663.026655 974.97947 
L 2663.892234 760.428106 
L 2664.758512 326.520912 
L 2665.624745 197.156708 
L 2669.089105 197.156708 
L 2669.95727 400.019798 
L 2670.822969 787.815177 
L 2671.689996 943.555564 
L 2672.555886 815.094871 
L 2673.420595 447.666282 
L 2674.28705 197.156708 
L 2677.750928 197.156708 
L 2678.617879 288.928025 
L 2679.482949 692.384529 
L 2680.349767 894.950003 
L 2681.216184 831.402412 
L 2682.946986 197.156708 
L 2686.417795 197.156708 
L 2687.278532 198.68129 
L 2688.145795 604.010366 
L 2689.010776 838.312713 
L 2689.876075 826.844731 
L 2690.742334 572.730885 
L 2691.609138 197.156708 
L 2695.938868 197.156708 
L 2696.804548 516.545062 
L 2697.673571 775.295393 
L 2698.542123 809.964099 
L 2699.403749 608.392257 
L 2700.27234 242.840385 
L 2701.135892 197.156708 
L 2704.602647 197.156708 
L 2705.46658 431.95224 
L 2706.331606 707.815222 
L 2707.199841 782.228399 
L 2708.065019 630.874562 
L 2708.930109 307.481367 
L 2709.797333 197.156708 
L 2713.261592 197.156708 
L 2714.12921 351.785318 
L 2714.994331 638.035512 
L 2715.860005 745.153543 
L 2716.726111 640.778629 
L 2717.592427 360.899688 
L 2718.457624 197.156708 
L 2721.926572 197.156708 
L 2722.787817 277.820343 
L 2723.655398 567.211516 
L 2724.520455 700.664218 
L 2725.387521 638.880047 
L 2726.252197 402.575284 
L 2727.119142 197.156708 
L 2730.584436 197.156708 
L 2731.449767 211.222902 
L 2732.315327 496.731559 
L 2733.186217 650.200883 
L 2734.047323 626.079601 
L 2734.914922 432.48859 
L 2735.782114 197.156708 
L 2740.11002 197.156708 
L 2740.977206 428.308829 
L 2741.843281 595.630806 
L 2742.708904 603.667174 
L 2743.577558 450.882984 
L 2744.440563 197.156708 
L 2748.774143 197.156708 
L 2750.504214 538.835048 
L 2750.504214 538.835048 
" style="fill:none;stroke:#008000;stroke-linecap:square;stroke-width:3;"/>
   </g>
   <g id="line2d_15">
    <path clip-path="url(#p9d10001aa4)" d="M 220.593286 197.156708 
L 224.92205 197.395911 
L 227.521626 197.594789 
L 228.387434 531.278582 
L 229.252491 982.226877 
L 230.119588 791.153611 
L 230.992626 892.837992 
L 231.852429 692.868972 
L 232.720378 197.156708 
L 236.182432 197.156708 
L 237.047153 448.580516 
L 237.916665 976.997848 
L 238.78068 982.226877 
L 239.650287 982.226877 
L 240.513051 923.275174 
L 241.37964 197.156708 
L 246.575501 197.156708 
L 247.441797 811.02458 
L 248.309085 982.226877 
L 251.774659 982.226877 
L 252.637258 260.605824 
L 253.504914 197.156708 
L 256.967864 197.156708 
L 257.836537 412.86293 
L 258.700547 982.226877 
L 262.16539 982.226877 
L 263.030943 492.466231 
L 263.897812 197.156708 
L 267.363602 197.156708 
L 268.229746 284.687908 
L 269.095039 982.226877 
L 272.559513 982.226877 
L 273.423764 468.666419 
L 274.290436 197.156708 
L 277.756226 197.156708 
L 278.62596 390.928309 
L 279.488012 982.226877 
L 282.08668 982.226877 
L 282.952506 942.00152 
L 283.817659 233.991739 
L 284.684998 197.156708 
L 288.14906 197.156708 
L 289.016582 680.064385 
L 289.881907 982.226877 
L 292.478941 982.226877 
L 293.346185 544.155104 
L 294.211293 197.156708 
L 297.677623 197.156708 
L 298.541576 435.771061 
L 299.407758 982.226877 
L 302.007391 982.226877 
L 302.873033 660.147523 
L 303.739215 197.156708 
L 307.20437 197.156708 
L 308.069237 357.520307 
L 308.936716 966.131893 
L 309.802078 982.226877 
L 311.53532 982.226877 
L 312.399361 626.959483 
L 313.266877 197.156708 
L 316.732095 197.156708 
L 317.596759 417.629756 
L 318.463037 982.226877 
L 321.063502 982.226877 
L 321.928592 473.849363 
L 322.794018 197.156708 
L 326.257425 197.156708 
L 327.991334 982.226877 
L 329.721678 982.226877 
L 330.590147 805.778435 
L 331.468522 225.624934 
L 332.322772 197.156708 
L 334.92043 197.156708 
L 335.784941 224.953879 
L 336.652642 787.177664 
L 337.518443 982.226877 
L 339.249613 982.226877 
L 340.115833 501.768083 
L 340.981494 197.156708 
L 344.446732 197.156708 
L 345.312831 529.606541 
L 346.181015 982.226877 
L 347.911054 982.226877 
L 348.779225 680.386969 
L 349.643285 197.156708 
L 353.106584 197.156708 
L 353.973167 334.247316 
L 354.839731 826.139806 
L 355.707171 982.226877 
L 356.571828 982.226877 
L 357.43904 778.264788 
L 358.304491 277.787114 
L 359.170877 197.156708 
L 361.768534 197.156708 
L 362.636286 208.798787 
L 363.499825 702.151543 
L 364.366407 982.226877 
L 365.23055 982.226877 
L 366.09902 818.226378 
L 366.966085 357.954754 
L 367.830596 197.156708 
L 371.294893 197.156708 
L 372.161361 620.284924 
L 373.028338 962.004252 
L 373.896306 982.226877 
L 374.760563 820.020661 
L 375.629776 391.313153 
L 376.49219 197.156708 
L 379.957091 197.156708 
L 381.68943 914.937212 
L 382.556584 982.226877 
L 383.421146 797.615762 
L 384.28811 391.931361 
L 385.154152 197.156708 
L 388.618761 197.156708 
L 390.349645 882.811665 
L 391.21664 961.415479 
L 392.082804 766.242005 
L 392.947912 380.249392 
L 393.815289 197.156708 
L 397.279446 197.156708 
L 398.145215 559.843168 
L 399.011169 856.304662 
L 399.877834 922.97299 
L 400.742669 732.285142 
L 401.609449 365.358632 
L 402.475866 197.156708 
L 405.940385 197.156708 
L 406.807063 558.975249 
L 407.672108 830.681061 
L 408.537483 883.473236 
L 409.405292 695.755108 
L 410.272072 347.451185 
L 411.13732 197.156708 
L 413.735193 197.156708 
L 414.603383 206.184809 
L 415.467888 560.053925 
L 416.334248 805.716462 
L 417.199408 842.760946 
L 418.065075 656.758096 
L 418.930362 326.923956 
L 419.79932 197.156708 
L 422.397219 197.156708 
L 423.26168 236.37671 
L 424.127811 562.778051 
L 424.994984 780.636242 
L 425.860925 800.423039 
L 426.726682 615.299996 
L 427.594637 304.136673 
L 428.4581 197.156708 
L 431.059048 197.156708 
L 431.925936 268.6514 
L 432.79119 566.370167 
L 433.655619 754.886552 
L 434.528504 756.182019 
L 435.38804 571.593916 
L 436.254178 279.750199 
L 437.121816 197.156708 
L 439.718138 197.156708 
L 440.586729 302.571604 
L 441.449734 570.214817 
L 442.316145 727.324717 
L 443.189844 709.543773 
L 444.048446 525.825894 
L 444.915524 254.491037 
L 445.78034 197.156708 
L 448.379739 197.156708 
L 449.246429 336.784236 
L 450.111169 573.406283 
L 450.977478 698.570873 
L 451.844417 661.033089 
L 452.709729 478.383102 
L 453.578217 228.573967 
L 454.446611 197.156708 
L 457.040773 197.156708 
L 457.907337 369.233031 
L 458.776016 576.467608 
L 459.63742 669.551034 
L 460.504276 611.836318 
L 461.371507 430.276012 
L 462.237988 202.413069 
L 463.103102 197.156708 
L 465.701465 197.156708 
L 466.567399 402.859031 
L 467.436803 577.496095 
L 468.30073 636.316531 
L 469.166473 559.692829 
L 470.900509 197.156708 
L 473.498681 197.156708 
L 474.363364 240.940942 
L 475.229565 433.545366 
L 476.094508 571.549981 
L 476.961351 597.121281 
L 477.829116 504.888994 
L 478.692725 334.690553 
L 479.559447 197.156708 
L 482.159099 197.156708 
L 483.023655 292.985805 
L 483.89011 457.499739 
L 484.756947 557.098347 
L 485.621687 551.846813 
L 486.487863 448.690844 
L 487.354871 291.6766 
L 488.221136 197.156708 
L 490.819422 197.156708 
L 492.55166 472.029414 
L 493.417899 532.568353 
L 494.282773 500.862788 
L 495.149489 393.135425 
L 496.017259 255.432717 
L 496.883791 197.156708 
L 498.615628 197.156708 
L 499.479726 253.272654 
L 500.348755 379.257387 
L 501.211189 473.88532 
L 502.078082 497.496824 
L 502.944678 445.703107 
L 504.676267 229.589682 
L 505.543739 197.156708 
L 506.408079 197.156708 
L 507.274439 208.908897 
L 509.007305 404.530855 
L 509.8754 459.955002 
L 510.739486 452.655344 
L 511.607199 390.095451 
L 513.3376 218.56394 
L 514.204761 197.156708 
L 515.06973 202.368306 
L 515.936128 265.824785 
L 516.802679 346.652099 
L 517.670316 410.070762 
L 518.536441 429.486733 
L 519.402814 402.307965 
L 522.000071 226.52572 
L 522.865631 220.203474 
L 523.733071 251.222321 
L 525.462779 360.568079 
L 526.329997 391.849537 
L 527.196307 389.440391 
L 528.061123 358.941516 
L 529.792808 272.474808 
L 530.660578 253.661257 
L 531.525604 260.351302 
L 532.392301 286.643608 
L 533.260065 321.255932 
L 534.125962 349.298962 
L 534.989946 359.11368 
L 535.856299 352.081298 
L 536.722679 333.062414 
L 537.589026 310.211989 
L 538.456905 293.361559 
L 539.320641 288.907079 
L 540.188437 292.934811 
L 541.058698 302.516506 
L 541.918254 313.538895 
L 542.78631 321.257901 
L 543.651241 323.070421 
L 545.386363 322.920028 
L 554.91229 321.641289 
L 565.306604 320.482459 
L 576.563091 319.455587 
L 589.557522 318.509219 
L 603.412428 317.72239 
L 619.868246 317.016612 
L 638.925348 316.428308 
L 662.308698 315.940316 
L 691.759054 315.562483 
L 731.598596 315.291208 
L 792.226169 315.124047 
L 916.081393 315.051925 
L 1033.004561 315.044819 
L 1033.872528 233.591232 
L 1034.736893 197.156708 
L 1039.070753 197.156708 
L 1040.799184 982.226877 
L 1045.996983 982.226877 
L 1046.862441 725.685528 
L 1047.727969 197.156708 
L 1052.924789 197.156708 
L 1053.792102 705.738162 
L 1054.659015 982.226877 
L 1058.987811 982.226877 
L 1059.855505 258.711138 
L 1060.720868 197.156708 
L 1065.052929 197.156708 
L 1065.91704 405.876256 
L 1066.782403 982.226877 
L 1071.114648 982.226877 
L 1071.980087 307.165825 
L 1072.845615 197.156708 
L 1077.180434 197.156708 
L 1078.042797 530.333988 
L 1078.90938 982.226877 
L 1082.374293 982.226877 
L 1083.240444 825.467659 
L 1084.105832 197.156708 
L 1089.302068 197.156708 
L 1090.168815 966.057092 
L 1091.033238 982.226877 
L 1093.631905 982.226877 
L 1094.497986 955.08598 
L 1095.366589 197.156708 
L 1100.563708 197.156708 
L 1101.427062 910.957043 
L 1102.293162 982.226877 
L 1104.892147 982.226877 
L 1105.764855 809.047318 
L 1106.625751 197.156708 
L 1110.956332 197.156708 
L 1111.821307 389.40558 
L 1112.686695 982.226877 
L 1116.152002 982.226877 
L 1117.019493 405.547403 
L 1117.883896 197.156708 
L 1122.214496 197.156708 
L 1123.081765 854.020666 
L 1123.949548 982.226877 
L 1126.544194 982.226877 
L 1127.410179 512.331739 
L 1128.278407 197.156708 
L 1132.609751 197.156708 
L 1133.474306 817.464907 
L 1134.341683 982.226877 
L 1136.938845 982.226877 
L 1137.80354 399.183789 
L 1138.671203 197.156708 
L 1142.134324 197.156708 
L 1143.003449 317.254061 
L 1143.86761 945.924739 
L 1144.734822 982.226877 
L 1146.464715 982.226877 
L 1147.330967 761.267904 
L 1148.198363 197.156708 
L 1152.528226 197.156708 
L 1153.394205 662.097872 
L 1154.259631 982.226877 
L 1155.99481 982.226877 
L 1156.857911 909.526203 
L 1157.724493 314.530579 
L 1158.592461 197.156708 
L 1162.056027 197.156708 
L 1162.922324 518.734752 
L 1163.78775 982.226877 
L 1165.52033 982.226877 
L 1166.386779 918.86765 
L 1167.252123 360.563139 
L 1168.118572 197.156708 
L 1171.582259 197.156708 
L 1172.448168 515.939649 
L 1173.314242 982.226877 
L 1175.048945 982.226877 
L 1175.914492 828.05628 
L 1176.779709 273.597564 
L 1177.645776 197.156708 
L 1181.110175 197.156708 
L 1181.976847 623.426136 
L 1182.841313 982.226877 
L 1184.574027 982.226877 
L 1185.439854 642.667579 
L 1186.306678 197.156708 
L 1189.770581 197.156708 
L 1190.63837 281.852717 
L 1191.50447 794.181865 
L 1192.369045 982.226877 
L 1193.235907 982.226877 
L 1194.101778 849.455525 
L 1194.966982 364.203761 
L 1195.836322 197.156708 
L 1199.29931 197.156708 
L 1201.030041 958.265811 
L 1201.896948 982.226877 
L 1202.762349 942.88748 
L 1203.628899 541.311927 
L 1204.49958 197.156708 
L 1207.959671 197.156708 
L 1208.82544 385.807939 
L 1209.691908 823.025336 
L 1210.557557 982.226877 
L 1211.424356 973.804052 
L 1212.28935 646.067561 
L 1213.156612 197.156708 
L 1216.622053 197.156708 
L 1217.487739 251.198992 
L 1218.352587 701.519825 
L 1219.221343 970.004768 
L 1220.083999 972.660119 
L 1220.952189 707.788477 
L 1221.818949 267.854509 
L 1222.683638 197.156708 
L 1226.150146 197.156708 
L 1227.013361 599.486975 
L 1227.878851 899.166587 
L 1228.745624 955.017149 
L 1229.612607 747.68959 
L 1230.478446 351.082181 
L 1231.344216 197.156708 
L 1234.80944 197.156708 
L 1236.541487 826.213799 
L 1237.407548 925.724822 
L 1238.273566 773.304651 
L 1239.138731 422.686632 
L 1240.006273 197.156708 
L 1243.469363 197.156708 
L 1244.338423 420.098024 
L 1245.206016 750.759966 
L 1246.06742 886.362713 
L 1246.936761 785.425702 
L 1248.666253 197.156708 
L 1252.132494 197.156708 
L 1252.998302 339.505674 
L 1253.864154 673.759312 
L 1254.729554 838.903798 
L 1255.59479 784.917882 
L 1256.460998 529.499154 
L 1257.327561 197.156708 
L 1260.791254 197.156708 
L 1261.659425 266.924388 
L 1262.524553 597.053465 
L 1263.391987 785.18792 
L 1264.256886 772.890279 
L 1265.122216 564.221458 
L 1265.988653 235.118236 
L 1266.855648 197.156708 
L 1269.454932 197.156708 
L 1270.319113 203.664994 
L 1271.184647 522.63013 
L 1272.055881 726.832418 
L 1272.918041 750.485917 
L 1273.786663 586.694737 
L 1274.651028 294.408263 
L 1275.516867 197.156708 
L 1278.979766 197.156708 
L 1279.852906 452.193331 
L 1280.712296 666.104154 
L 1281.58001 719.175851 
L 1282.444375 597.376658 
L 1283.310964 343.444023 
L 1284.178499 197.156708 
L 1287.640973 197.156708 
L 1288.507936 387.132225 
L 1289.372956 604.230393 
L 1290.246197 680.469048 
L 1291.107055 596.840615 
L 1291.972164 381.688965 
L 1292.83839 197.156708 
L 1296.302185 197.156708 
L 1297.168774 328.809835 
L 1298.036704 542.272808 
L 1298.900719 636.017503 
L 1299.768833 586.031516 
L 1300.633205 409.103878 
L 1301.500029 197.156708 
L 1304.965075 197.156708 
L 1305.831366 278.546782 
L 1306.696328 482.087969 
L 1307.563412 587.410415 
L 1308.42887 565.754999 
L 1309.295307 425.576968 
L 1310.159418 218.063743 
L 1311.026718 197.156708 
L 1313.624445 197.156708 
L 1314.491453 236.952295 
L 1315.357159 425.002979 
L 1316.225788 536.60992 
L 1317.090324 537.359444 
L 1317.955058 431.381788 
L 1318.822028 256.144227 
L 1319.687213 197.156708 
L 1322.286172 197.156708 
L 1323.152908 205.096624 
L 1324.019312 372.837115 
L 1324.883836 484.79857 
L 1325.753405 501.958392 
L 1326.616347 426.838853 
L 1327.482218 284.504467 
L 1328.34887 197.156708 
L 1331.814304 197.156708 
L 1332.677945 326.277736 
L 1333.546008 432.530439 
L 1334.411663 461.576733 
L 1335.278004 413.483991 
L 1337.010165 197.156708 
L 1340.474577 197.156708 
L 1342.206268 381.475336 
L 1343.071948 417.721892 
L 1343.942254 390.946707 
L 1344.804459 312.52196 
L 1345.669777 210.347109 
L 1346.537814 197.156708 
L 1349.135103 197.156708 
L 1350.002588 255.865775 
L 1350.868236 333.842205 
L 1351.734507 371.661569 
L 1352.599286 360.039932 
L 1353.465506 309.875925 
L 1354.333963 237.386056 
L 1355.198925 197.156708 
L 1357.797415 197.156708 
L 1358.663489 235.923995 
L 1359.529246 291.96391 
L 1360.39546 324.478746 
L 1361.26079 323.476479 
L 1362.126947 295.819371 
L 1363.861288 209.456871 
L 1364.724992 197.156708 
L 1365.591181 197.156708 
L 1366.457579 198.49585 
L 1368.189791 259.008449 
L 1369.056723 279.163067 
L 1369.923337 282.496087 
L 1370.788884 273.391428 
L 1372.521293 237.544599 
L 1373.387075 224.922894 
L 1374.254204 221.818273 
L 1375.118925 223.753523 
L 1375.985133 228.90013 
L 1376.850603 235.297822 
L 1377.71995 240.498129 
L 1378.585655 242.554227 
L 1379.449029 242.698457 
L 1396.773411 242.51428 
L 1438.34676 242.222636 
L 1499.839366 242.042805 
L 1536.215475 242.002929 
L 1566.529935 241.98145 
L 1837.623149 241.977241 
L 1838.489077 508.0661 
L 1839.358227 897.651542 
L 1840.223005 982.226877 
L 1841.086493 731.391247 
L 1841.952186 602.873054 
L 1842.8211 197.156708 
L 1846.2844 197.156708 
L 1847.149648 468.117888 
L 1848.018111 796.25313 
L 1848.882368 829.242295 
L 1849.746638 565.163755 
L 1850.614695 197.156708 
L 1854.078712 197.156708 
L 1854.944373 396.825435 
L 1855.810759 819.899728 
L 1856.678803 982.226877 
L 1857.542996 946.325955 
L 1858.408607 602.005521 
L 1859.27531 197.156708 
L 1862.739455 197.156708 
L 1863.606285 371.006159 
L 1864.471501 778.391289 
L 1865.338757 982.226877 
L 1866.206566 913.615323 
L 1867.070169 586.607704 
L 1867.937971 197.156708 
L 1871.400998 197.156708 
L 1872.267745 372.914634 
L 1873.132955 756.738223 
L 1873.9995 952.310434 
L 1874.866013 877.067436 
L 1875.731706 564.146118 
L 1876.59677 197.156708 
L 1880.063564 197.156708 
L 1880.927948 381.976774 
L 1881.793888 740.278424 
L 1882.662898 917.422124 
L 1883.525884 838.465454 
L 1884.392537 538.342255 
L 1885.259742 197.156708 
L 1888.722387 197.156708 
L 1889.589059 394.125667 
L 1890.455387 725.486646 
L 1891.32209 882.224515 
L 1892.188247 797.907596 
L 1893.920389 197.156708 
L 1897.385226 197.156708 
L 1898.250398 408.70936 
L 1899.117775 711.923813 
L 1899.983849 846.449271 
L 1900.848227 755.238391 
L 1902.580236 197.156708 
L 1906.044584 197.156708 
L 1906.911376 425.211016 
L 1907.778911 698.979545 
L 1908.643505 809.645051 
L 1909.510088 710.474273 
L 1911.244352 197.156708 
L 1914.707035 197.156708 
L 1916.439965 685.784259 
L 1917.304419 771.179931 
L 1918.172228 663.420865 
L 1919.038861 409.255355 
L 1919.901962 197.156708 
L 1923.367288 197.156708 
L 1924.23288 461.942212 
L 1925.099195 671.626915 
L 1925.967023 730.407561 
L 1926.832824 613.890582 
L 1927.697723 372.167336 
L 1928.568537 197.156708 
L 1931.161175 197.156708 
L 1932.029225 227.265906 
L 1932.89387 479.379732 
L 1933.761431 657.022036 
L 1934.6268 688.762134 
L 1935.493865 563.227542 
L 1936.359113 334.298602 
L 1937.225906 197.156708 
L 1939.825107 197.156708 
L 1940.688443 270.795171 
L 1941.555959 496.254269 
L 1942.422415 641.761836 
L 1943.287771 645.726995 
L 1944.154671 511.343913 
L 1945.02208 296.015788 
L 1945.886851 197.156708 
L 1948.485347 197.156708 
L 1949.350894 315.280335 
L 1950.218811 512.524497 
L 1951.082757 621.274214 
L 1951.953603 598.522968 
L 1952.815503 457.884901 
L 1953.682562 259.291356 
L 1954.549373 197.156708 
L 1957.145963 197.156708 
L 1958.877711 522.113822 
L 1959.744325 593.655026 
L 1960.610444 547.074815 
L 1961.475819 404.589376 
L 1962.341652 227.068964 
L 1963.207968 197.156708 
L 1964.942925 197.156708 
L 1965.80762 229.524597 
L 1966.672474 395.395747 
L 1967.540213 523.026611 
L 1968.405792 558.453486 
L 1969.272158 492.183797 
L 1971.003608 201.791706 
L 1971.869733 197.156708 
L 1973.602638 197.156708 
L 1974.467308 284.793234 
L 1975.334456 424.216184 
L 1976.204425 512.981901 
L 1977.066382 515.330669 
L 1977.932793 435.352615 
L 1978.798333 307.333308 
L 1979.665354 197.156708 
L 1981.399212 197.156708 
L 1982.262611 215.043839 
L 1983.99929 440.674848 
L 1984.860955 489.903751 
L 1985.72816 465.131861 
L 1986.595041 379.705553 
L 1987.460029 270.161178 
L 1988.32555 197.156708 
L 1990.05754 197.156708 
L 1990.923633 273.022409 
L 1991.793113 370.549743 
L 1992.657319 440.418436 
L 1993.522777 453.945869 
L 1994.388102 411.037957 
L 1996.120746 247.313453 
L 1996.987487 197.156708 
L 1997.853752 198.217972 
L 1998.719394 245.836589 
L 2000.452655 387.289193 
L 2001.317706 420.288261 
L 2002.183831 408.739837 
L 2003.050325 360.815128 
L 2003.9153 297.023193 
L 2004.782092 244.797387 
L 2005.653484 226.234608 
L 2006.514018 243.740565 
L 2007.380416 288.037269 
L 2008.249216 340.094741 
L 2009.112336 377.509023 
L 2009.978505 385.44294 
L 2010.846676 366.288992 
L 2012.576843 289.573281 
L 2013.444219 264.995188 
L 2014.310325 263.477954 
L 2015.175034 280.409345 
L 2016.907697 335.22334 
L 2017.774381 349.520974 
L 2018.642291 348.631754 
L 2019.506942 337.237673 
L 2021.241124 304.931399 
L 2022.105483 297.892889 
L 2022.970725 298.052756 
L 2023.837517 301.569486 
L 2025.568642 311.802415 
L 2026.437881 314.123547 
L 2027.302684 314.355929 
L 2035.963655 314.466874 
L 2073.204549 314.755107 
L 2128.635454 314.940827 
L 2233.436461 315.029208 
L 2640.508668 315.043898 
L 2641.375879 197.156708 
L 2644.837972 197.156708 
L 2645.70404 507.85282 
L 2646.571473 982.226877 
L 2650.036965 982.226877 
L 2650.9014 679.608658 
L 2651.767697 197.156708 
L 2655.232298 197.156708 
L 2656.098373 250.348628 
L 2656.964422 752.304644 
L 2657.832167 982.226877 
L 2658.695833 982.226877 
L 2659.563737 823.997368 
L 2660.42868 353.268659 
L 2661.295231 197.156708 
L 2664.758512 197.156708 
L 2666.491937 941.962494 
L 2667.356893 982.226877 
L 2668.223952 891.584468 
L 2669.089105 486.768073 
L 2669.95727 197.156708 
L 2673.420595 197.156708 
L 2674.28705 425.064852 
L 2675.153887 831.43694 
L 2676.020012 982.226877 
L 2676.885953 917.435005 
L 2678.617879 197.156708 
L 2682.084355 197.156708 
L 2682.946986 315.242145 
L 2683.813822 732.694398 
L 2684.680475 958.219099 
L 2685.545088 920.489872 
L 2686.417795 631.388586 
L 2687.278532 197.156708 
L 2690.742334 197.156708 
L 2691.609138 227.605622 
L 2692.473917 642.599791 
L 2693.339934 897.544101 
L 2694.207399 910.34674 
L 2695.074433 676.040923 
L 2695.938868 278.947745 
L 2696.804548 197.156708 
L 2700.27234 197.156708 
L 2701.135892 554.589021 
L 2702.003472 831.166545 
L 2702.868548 888.278648 
L 2703.734775 706.91279 
L 2704.602647 351.783179 
L 2705.46658 197.156708 
L 2708.930109 197.156708 
L 2710.662448 761.390587 
L 2711.528192 855.817407 
L 2712.395009 724.615904 
L 2713.261592 413.514591 
L 2714.12921 197.156708 
L 2717.592427 197.156708 
L 2718.457624 391.588219 
L 2719.324988 689.780309 
L 2720.192772 814.782304 
L 2721.056177 729.727937 
L 2722.787817 197.156708 
L 2726.252197 197.156708 
L 2727.119142 319.988388 
L 2727.984377 617.661883 
L 2728.851722 766.745103 
L 2729.717047 723.193774 
L 2730.584436 501.349657 
L 2731.449767 197.156708 
L 2734.914922 197.156708 
L 2735.782114 256.725879 
L 2736.650863 546.778487 
L 2737.51256 713.632997 
L 2738.380324 706.209711 
L 2739.24516 527.461563 
L 2740.11002 242.441475 
L 2740.977206 197.156708 
L 2743.577558 197.156708 
L 2744.440563 202.795051 
L 2745.307736 478.898612 
L 2746.174071 657.155802 
L 2747.038563 679.902313 
L 2747.905368 541.887848 
L 2748.774143 292.50612 
L 2749.642612 197.156708 
L 2750.504214 197.156708 
L 2750.504214 197.156708 
" style="fill:none;stroke:#ff0000;stroke-linecap:square;stroke-width:3;"/>
   </g>
   <g id="patch_3">
    <path d="M 94.09774 1021.480385 
L 94.09774 157.9032 
" style="fill:none;stroke:#000000;stroke-linecap:square;stroke-linejoin:miter;stroke-width:0.8;"/>
   </g>
   <g id="patch_4">
    <path d="M 2876.99976 1021.480385 
L 2876.99976 157.9032 
" style="fill:none;stroke:#000000;stroke-linecap:square;stroke-linejoin:miter;stroke-width:0.8;"/>
   </g>
   <g id="patch_5">
    <path d="M 94.09774 1021.480385 
L 2876.99976 1021.480385 
" style="fill:none;stroke:#000000;stroke-linecap:square;stroke-linejoin:miter;stroke-width:0.8;"/>
   </g>
   <g id="patch_6">
    <path d="M 94.09774 157.9032 
L 2876.99976 157.9032 
" style="fill:none;stroke:#000000;stroke-linecap:square;stroke-linejoin:miter;stroke-width:0.8;"/>
   </g>
   <g id="text_16">
    <!-- Biceps (red) and Triceps (green) -->
    <defs>
     <path d="M 19.671875 34.8125 
L 19.671875 8.109375 
L 35.5 8.109375 
Q 43.453125 8.109375 47.28125 11.40625 
Q 51.125 14.703125 51.125 21.484375 
Q 51.125 28.328125 47.28125 31.5625 
Q 43.453125 34.8125 35.5 34.8125 
z
M 19.671875 64.796875 
L 19.671875 42.828125 
L 34.28125 42.828125 
Q 41.5 42.828125 45.03125 45.53125 
Q 48.578125 48.25 48.578125 53.8125 
Q 48.578125 59.328125 45.03125 62.0625 
Q 41.5 64.796875 34.28125 64.796875 
z
M 9.8125 72.90625 
L 35.015625 72.90625 
Q 46.296875 72.90625 52.390625 68.21875 
Q 58.5 63.53125 58.5 54.890625 
Q 58.5 48.1875 55.375 44.234375 
Q 52.25 40.28125 46.1875 39.3125 
Q 53.46875 37.75 57.5 32.78125 
Q 61.53125 27.828125 61.53125 20.40625 
Q 61.53125 10.640625 54.890625 5.3125 
Q 48.25 0 35.984375 0 
L 9.8125 0 
z
" id="DejaVuSans-66"/>
     <path d="M 48.78125 52.59375 
L 48.78125 44.1875 
Q 44.96875 46.296875 41.140625 47.34375 
Q 37.3125 48.390625 33.40625 48.390625 
Q 24.65625 48.390625 19.8125 42.84375 
Q 14.984375 37.3125 14.984375 27.296875 
Q 14.984375 17.28125 19.8125 11.734375 
Q 24.65625 6.203125 33.40625 6.203125 
Q 37.3125 6.203125 41.140625 7.25 
Q 44.96875 8.296875 48.78125 10.40625 
L 48.78125 2.09375 
Q 45.015625 0.34375 40.984375 -0.53125 
Q 36.96875 -1.421875 32.421875 -1.421875 
Q 20.0625 -1.421875 12.78125 6.34375 
Q 5.515625 14.109375 5.515625 27.296875 
Q 5.515625 40.671875 12.859375 48.328125 
Q 20.21875 56 33.015625 56 
Q 37.15625 56 41.109375 55.140625 
Q 45.0625 54.296875 48.78125 52.59375 
z
" id="DejaVuSans-99"/>
     <path d="M 18.109375 8.203125 
L 18.109375 -20.796875 
L 9.078125 -20.796875 
L 9.078125 54.6875 
L 18.109375 54.6875 
L 18.109375 46.390625 
Q 20.953125 51.265625 25.265625 53.625 
Q 29.59375 56 35.59375 56 
Q 45.5625 56 51.78125 48.09375 
Q 58.015625 40.1875 58.015625 27.296875 
Q 58.015625 14.40625 51.78125 6.484375 
Q 45.5625 -1.421875 35.59375 -1.421875 
Q 29.59375 -1.421875 25.265625 0.953125 
Q 20.953125 3.328125 18.109375 8.203125 
z
M 48.6875 27.296875 
Q 48.6875 37.203125 44.609375 42.84375 
Q 40.53125 48.484375 33.40625 48.484375 
Q 26.265625 48.484375 22.1875 42.84375 
Q 18.109375 37.203125 18.109375 27.296875 
Q 18.109375 17.390625 22.1875 11.75 
Q 26.265625 6.109375 33.40625 6.109375 
Q 40.53125 6.109375 44.609375 11.75 
Q 48.6875 17.390625 48.6875 27.296875 
z
" id="DejaVuSans-112"/>
     <path d="M 31 75.875 
Q 24.46875 64.65625 21.28125 53.65625 
Q 18.109375 42.671875 18.109375 31.390625 
Q 18.109375 20.125 21.3125 9.0625 
Q 24.515625 -2 31 -13.1875 
L 23.1875 -13.1875 
Q 15.875 -1.703125 12.234375 9.375 
Q 8.59375 20.453125 8.59375 31.390625 
Q 8.59375 42.28125 12.203125 53.3125 
Q 15.828125 64.359375 23.1875 75.875 
z
" id="DejaVuSans-40"/>
     <path d="M 41.109375 46.296875 
Q 39.59375 47.171875 37.8125 47.578125 
Q 36.03125 48 33.890625 48 
Q 26.265625 48 22.1875 43.046875 
Q 18.109375 38.09375 18.109375 28.8125 
L 18.109375 0 
L 9.078125 0 
L 9.078125 54.6875 
L 18.109375 54.6875 
L 18.109375 46.1875 
Q 20.953125 51.171875 25.484375 53.578125 
Q 30.03125 56 36.53125 56 
Q 37.453125 56 38.578125 55.875 
Q 39.703125 55.765625 41.0625 55.515625 
z
" id="DejaVuSans-114"/>
     <path d="M 45.40625 46.390625 
L 45.40625 75.984375 
L 54.390625 75.984375 
L 54.390625 0 
L 45.40625 0 
L 45.40625 8.203125 
Q 42.578125 3.328125 38.25 0.953125 
Q 33.9375 -1.421875 27.875 -1.421875 
Q 17.96875 -1.421875 11.734375 6.484375 
Q 5.515625 14.40625 5.515625 27.296875 
Q 5.515625 40.1875 11.734375 48.09375 
Q 17.96875 56 27.875 56 
Q 33.9375 56 38.25 53.625 
Q 42.578125 51.265625 45.40625 46.390625 
z
M 14.796875 27.296875 
Q 14.796875 17.390625 18.875 11.75 
Q 22.953125 6.109375 30.078125 6.109375 
Q 37.203125 6.109375 41.296875 11.75 
Q 45.40625 17.390625 45.40625 27.296875 
Q 45.40625 37.203125 41.296875 42.84375 
Q 37.203125 48.484375 30.078125 48.484375 
Q 22.953125 48.484375 18.875 42.84375 
Q 14.796875 37.203125 14.796875 27.296875 
z
" id="DejaVuSans-100"/>
     <path d="M 8.015625 75.875 
L 15.828125 75.875 
Q 23.140625 64.359375 26.78125 53.3125 
Q 30.421875 42.28125 30.421875 31.390625 
Q 30.421875 20.453125 26.78125 9.375 
Q 23.140625 -1.703125 15.828125 -13.1875 
L 8.015625 -13.1875 
Q 14.5 -2 17.703125 9.0625 
Q 20.90625 20.125 20.90625 31.390625 
Q 20.90625 42.671875 17.703125 53.65625 
Q 14.5 64.65625 8.015625 75.875 
z
" id="DejaVuSans-41"/>
     <path d="M 34.28125 27.484375 
Q 23.390625 27.484375 19.1875 25 
Q 14.984375 22.515625 14.984375 16.5 
Q 14.984375 11.71875 18.140625 8.90625 
Q 21.296875 6.109375 26.703125 6.109375 
Q 34.1875 6.109375 38.703125 11.40625 
Q 43.21875 16.703125 43.21875 25.484375 
L 43.21875 27.484375 
z
M 52.203125 31.203125 
L 52.203125 0 
L 43.21875 0 
L 43.21875 8.296875 
Q 40.140625 3.328125 35.546875 0.953125 
Q 30.953125 -1.421875 24.3125 -1.421875 
Q 15.921875 -1.421875 10.953125 3.296875 
Q 6 8.015625 6 15.921875 
Q 6 25.140625 12.171875 29.828125 
Q 18.359375 34.515625 30.609375 34.515625 
L 43.21875 34.515625 
L 43.21875 35.40625 
Q 43.21875 41.609375 39.140625 45 
Q 35.0625 48.390625 27.6875 48.390625 
Q 23 48.390625 18.546875 47.265625 
Q 14.109375 46.140625 10.015625 43.890625 
L 10.015625 52.203125 
Q 14.9375 54.109375 19.578125 55.046875 
Q 24.21875 56 28.609375 56 
Q 40.484375 56 46.34375 49.84375 
Q 52.203125 43.703125 52.203125 31.203125 
z
" id="DejaVuSans-97"/>
    </defs>
    <g transform="translate(1210.36125 150.832262)scale(0.34 -0.34)">
     <use xlink:href="#DejaVuSans-66"/>
     <use x="68.603516" xlink:href="#DejaVuSans-105"/>
     <use x="96.386719" xlink:href="#DejaVuSans-99"/>
     <use x="151.367188" xlink:href="#DejaVuSans-101"/>
     <use x="212.890625" xlink:href="#DejaVuSans-112"/>
     <use x="276.367188" xlink:href="#DejaVuSans-115"/>
     <use x="328.466797" xlink:href="#DejaVuSans-32"/>
     <use x="360.253906" xlink:href="#DejaVuSans-40"/>
     <use x="399.267578" xlink:href="#DejaVuSans-114"/>
     <use x="440.349609" xlink:href="#DejaVuSans-101"/>
     <use x="501.873047" xlink:href="#DejaVuSans-100"/>
     <use x="565.349609" xlink:href="#DejaVuSans-41"/>
     <use x="604.363281" xlink:href="#DejaVuSans-32"/>
     <use x="636.150391" xlink:href="#DejaVuSans-97"/>
     <use x="697.429688" xlink:href="#DejaVuSans-110"/>
     <use x="760.808594" xlink:href="#DejaVuSans-100"/>
     <use x="824.285156" xlink:href="#DejaVuSans-32"/>
     <use x="856.072266" xlink:href="#DejaVuSans-84"/>
     <use x="916.9375" xlink:href="#DejaVuSans-114"/>
     <use x="958.050781" xlink:href="#DejaVuSans-105"/>
     <use x="985.833984" xlink:href="#DejaVuSans-99"/>
     <use x="1040.814453" xlink:href="#DejaVuSans-101"/>
     <use x="1102.337891" xlink:href="#DejaVuSans-112"/>
     <use x="1165.814453" xlink:href="#DejaVuSans-115"/>
     <use x="1217.914062" xlink:href="#DejaVuSans-32"/>
     <use x="1249.701172" xlink:href="#DejaVuSans-40"/>
     <use x="1288.714844" xlink:href="#DejaVuSans-103"/>
     <use x="1352.191406" xlink:href="#DejaVuSans-114"/>
     <use x="1393.273438" xlink:href="#DejaVuSans-101"/>
     <use x="1454.796875" xlink:href="#DejaVuSans-101"/>
     <use x="1516.320312" xlink:href="#DejaVuSans-110"/>
     <use x="1579.699219" xlink:href="#DejaVuSans-41"/>
    </g>
   </g>
  </g>
  <g id="text_17">
   <!-- Forces - P40000 I0 D0 -->
   <defs>
    <path d="M 9.8125 72.90625 
L 51.703125 72.90625 
L 51.703125 64.59375 
L 19.671875 64.59375 
L 19.671875 43.109375 
L 48.578125 43.109375 
L 48.578125 34.8125 
L 19.671875 34.8125 
L 19.671875 0 
L 9.8125 0 
z
" id="DejaVuSans-70"/>
    <path d="M 30.609375 48.390625 
Q 23.390625 48.390625 19.1875 42.75 
Q 14.984375 37.109375 14.984375 27.296875 
Q 14.984375 17.484375 19.15625 11.84375 
Q 23.34375 6.203125 30.609375 6.203125 
Q 37.796875 6.203125 41.984375 11.859375 
Q 46.1875 17.53125 46.1875 27.296875 
Q 46.1875 37.015625 41.984375 42.703125 
Q 37.796875 48.390625 30.609375 48.390625 
z
M 30.609375 56 
Q 42.328125 56 49.015625 48.375 
Q 55.71875 40.765625 55.71875 27.296875 
Q 55.71875 13.875 49.015625 6.21875 
Q 42.328125 -1.421875 30.609375 -1.421875 
Q 18.84375 -1.421875 12.171875 6.21875 
Q 5.515625 13.875 5.515625 27.296875 
Q 5.515625 40.765625 12.171875 48.375 
Q 18.84375 56 30.609375 56 
z
" id="DejaVuSans-111"/>
    <path d="M 4.890625 31.390625 
L 31.203125 31.390625 
L 31.203125 23.390625 
L 4.890625 23.390625 
z
" id="DejaVuSans-45"/>
    <path d="M 19.671875 64.796875 
L 19.671875 37.40625 
L 32.078125 37.40625 
Q 38.96875 37.40625 42.71875 40.96875 
Q 46.484375 44.53125 46.484375 51.125 
Q 46.484375 57.671875 42.71875 61.234375 
Q 38.96875 64.796875 32.078125 64.796875 
z
M 9.8125 72.90625 
L 32.078125 72.90625 
Q 44.34375 72.90625 50.609375 67.359375 
Q 56.890625 61.8125 56.890625 51.125 
Q 56.890625 40.328125 50.609375 34.8125 
Q 44.34375 29.296875 32.078125 29.296875 
L 19.671875 29.296875 
L 19.671875 0 
L 9.8125 0 
z
" id="DejaVuSans-80"/>
    <path d="M 9.8125 72.90625 
L 19.671875 72.90625 
L 19.671875 0 
L 9.8125 0 
z
" id="DejaVuSans-73"/>
    <path d="M 19.671875 64.796875 
L 19.671875 8.109375 
L 31.59375 8.109375 
Q 46.6875 8.109375 53.6875 14.9375 
Q 60.6875 21.78125 60.6875 36.53125 
Q 60.6875 51.171875 53.6875 57.984375 
Q 46.6875 64.796875 31.59375 64.796875 
z
M 9.8125 72.90625 
L 30.078125 72.90625 
Q 51.265625 72.90625 61.171875 64.09375 
Q 71.09375 55.28125 71.09375 36.53125 
Q 71.09375 17.671875 61.125 8.828125 
Q 51.171875 0 30.078125 0 
L 9.8125 0 
z
" id="DejaVuSans-68"/>
   </defs>
   <g transform="translate(1252.367813 28.834927)scale(0.34 -0.34)">
    <use xlink:href="#DejaVuSans-70"/>
    <use x="57.472656" xlink:href="#DejaVuSans-111"/>
    <use x="118.654297" xlink:href="#DejaVuSans-114"/>
    <use x="159.736328" xlink:href="#DejaVuSans-99"/>
    <use x="214.716797" xlink:href="#DejaVuSans-101"/>
    <use x="276.240234" xlink:href="#DejaVuSans-115"/>
    <use x="328.339844" xlink:href="#DejaVuSans-32"/>
    <use x="360.126953" xlink:href="#DejaVuSans-45"/>
    <use x="396.210938" xlink:href="#DejaVuSans-32"/>
    <use x="427.998047" xlink:href="#DejaVuSans-80"/>
    <use x="488.300781" xlink:href="#DejaVuSans-52"/>
    <use x="551.923828" xlink:href="#DejaVuSans-48"/>
    <use x="615.546875" xlink:href="#DejaVuSans-48"/>
    <use x="679.169922" xlink:href="#DejaVuSans-48"/>
    <use x="742.792969" xlink:href="#DejaVuSans-48"/>
    <use x="806.416016" xlink:href="#DejaVuSans-32"/>
    <use x="838.203125" xlink:href="#DejaVuSans-73"/>
    <use x="867.695312" xlink:href="#DejaVuSans-48"/>
    <use x="931.318359" xlink:href="#DejaVuSans-32"/>
    <use x="963.105469" xlink:href="#DejaVuSans-68"/>
    <use x="1040.107422" xlink:href="#DejaVuSans-48"/>
   </g>
   <!-- Bagfile elbow_left_c from 35s for 95s - Logging Rate 30 - Simulation Rate 800 - 100.00% real time speed -->
   <defs>
    <path d="M 37.109375 75.984375 
L 37.109375 68.5 
L 28.515625 68.5 
Q 23.6875 68.5 21.796875 66.546875 
Q 19.921875 64.59375 19.921875 59.515625 
L 19.921875 54.6875 
L 34.71875 54.6875 
L 34.71875 47.703125 
L 19.921875 47.703125 
L 19.921875 0 
L 10.890625 0 
L 10.890625 47.703125 
L 2.296875 47.703125 
L 2.296875 54.6875 
L 10.890625 54.6875 
L 10.890625 58.5 
Q 10.890625 67.625 15.140625 71.796875 
Q 19.390625 75.984375 28.609375 75.984375 
z
" id="DejaVuSans-102"/>
    <path d="M 9.421875 75.984375 
L 18.40625 75.984375 
L 18.40625 0 
L 9.421875 0 
z
" id="DejaVuSans-108"/>
    <path d="M 48.6875 27.296875 
Q 48.6875 37.203125 44.609375 42.84375 
Q 40.53125 48.484375 33.40625 48.484375 
Q 26.265625 48.484375 22.1875 42.84375 
Q 18.109375 37.203125 18.109375 27.296875 
Q 18.109375 17.390625 22.1875 11.75 
Q 26.265625 6.109375 33.40625 6.109375 
Q 40.53125 6.109375 44.609375 11.75 
Q 48.6875 17.390625 48.6875 27.296875 
z
M 18.109375 46.390625 
Q 20.953125 51.265625 25.265625 53.625 
Q 29.59375 56 35.59375 56 
Q 45.5625 56 51.78125 48.09375 
Q 58.015625 40.1875 58.015625 27.296875 
Q 58.015625 14.40625 51.78125 6.484375 
Q 45.5625 -1.421875 35.59375 -1.421875 
Q 29.59375 -1.421875 25.265625 0.953125 
Q 20.953125 3.328125 18.109375 8.203125 
L 18.109375 0 
L 9.078125 0 
L 9.078125 75.984375 
L 18.109375 75.984375 
z
" id="DejaVuSans-98"/>
    <path d="M 4.203125 54.6875 
L 13.1875 54.6875 
L 24.421875 12.015625 
L 35.59375 54.6875 
L 46.1875 54.6875 
L 57.421875 12.015625 
L 68.609375 54.6875 
L 77.59375 54.6875 
L 63.28125 0 
L 52.6875 0 
L 40.921875 44.828125 
L 29.109375 0 
L 18.5 0 
z
" id="DejaVuSans-119"/>
    <path d="M 50.984375 -16.609375 
L 50.984375 -23.578125 
L -0.984375 -23.578125 
L -0.984375 -16.609375 
z
" id="DejaVuSans-95"/>
    <path d="M 40.578125 39.3125 
Q 47.65625 37.796875 51.625 33 
Q 55.609375 28.21875 55.609375 21.1875 
Q 55.609375 10.40625 48.1875 4.484375 
Q 40.765625 -1.421875 27.09375 -1.421875 
Q 22.515625 -1.421875 17.65625 -0.515625 
Q 12.796875 0.390625 7.625 2.203125 
L 7.625 11.71875 
Q 11.71875 9.328125 16.59375 8.109375 
Q 21.484375 6.890625 26.8125 6.890625 
Q 36.078125 6.890625 40.9375 10.546875 
Q 45.796875 14.203125 45.796875 21.1875 
Q 45.796875 27.640625 41.28125 31.265625 
Q 36.765625 34.90625 28.71875 34.90625 
L 20.21875 34.90625 
L 20.21875 43.015625 
L 29.109375 43.015625 
Q 36.375 43.015625 40.234375 45.921875 
Q 44.09375 48.828125 44.09375 54.296875 
Q 44.09375 59.90625 40.109375 62.90625 
Q 36.140625 65.921875 28.71875 65.921875 
Q 24.65625 65.921875 20.015625 65.03125 
Q 15.375 64.15625 9.8125 62.3125 
L 9.8125 71.09375 
Q 15.4375 72.65625 20.34375 73.4375 
Q 25.25 74.21875 29.59375 74.21875 
Q 40.828125 74.21875 47.359375 69.109375 
Q 53.90625 64.015625 53.90625 55.328125 
Q 53.90625 49.265625 50.4375 45.09375 
Q 46.96875 40.921875 40.578125 39.3125 
z
" id="DejaVuSans-51"/>
    <path d="M 10.796875 72.90625 
L 49.515625 72.90625 
L 49.515625 64.59375 
L 19.828125 64.59375 
L 19.828125 46.734375 
Q 21.96875 47.46875 24.109375 47.828125 
Q 26.265625 48.1875 28.421875 48.1875 
Q 40.625 48.1875 47.75 41.5 
Q 54.890625 34.8125 54.890625 23.390625 
Q 54.890625 11.625 47.5625 5.09375 
Q 40.234375 -1.421875 26.90625 -1.421875 
Q 22.3125 -1.421875 17.546875 -0.640625 
Q 12.796875 0.140625 7.71875 1.703125 
L 7.71875 11.625 
Q 12.109375 9.234375 16.796875 8.0625 
Q 21.484375 6.890625 26.703125 6.890625 
Q 35.15625 6.890625 40.078125 11.328125 
Q 45.015625 15.765625 45.015625 23.390625 
Q 45.015625 31 40.078125 35.4375 
Q 35.15625 39.890625 26.703125 39.890625 
Q 22.75 39.890625 18.8125 39.015625 
Q 14.890625 38.140625 10.796875 36.28125 
z
" id="DejaVuSans-53"/>
    <path d="M 10.984375 1.515625 
L 10.984375 10.5 
Q 14.703125 8.734375 18.5 7.8125 
Q 22.3125 6.890625 25.984375 6.890625 
Q 35.75 6.890625 40.890625 13.453125 
Q 46.046875 20.015625 46.78125 33.40625 
Q 43.953125 29.203125 39.59375 26.953125 
Q 35.25 24.703125 29.984375 24.703125 
Q 19.046875 24.703125 12.671875 31.3125 
Q 6.296875 37.9375 6.296875 49.421875 
Q 6.296875 60.640625 12.9375 67.421875 
Q 19.578125 74.21875 30.609375 74.21875 
Q 43.265625 74.21875 49.921875 64.515625 
Q 56.59375 54.828125 56.59375 36.375 
Q 56.59375 19.140625 48.40625 8.859375 
Q 40.234375 -1.421875 26.421875 -1.421875 
Q 22.703125 -1.421875 18.890625 -0.6875 
Q 15.09375 0.046875 10.984375 1.515625 
z
M 30.609375 32.421875 
Q 37.25 32.421875 41.125 36.953125 
Q 45.015625 41.5 45.015625 49.421875 
Q 45.015625 57.28125 41.125 61.84375 
Q 37.25 66.40625 30.609375 66.40625 
Q 23.96875 66.40625 20.09375 61.84375 
Q 16.21875 57.28125 16.21875 49.421875 
Q 16.21875 41.5 20.09375 36.953125 
Q 23.96875 32.421875 30.609375 32.421875 
z
" id="DejaVuSans-57"/>
    <path d="M 44.390625 34.1875 
Q 47.5625 33.109375 50.5625 29.59375 
Q 53.5625 26.078125 56.59375 19.921875 
L 66.609375 0 
L 56 0 
L 46.6875 18.703125 
Q 43.0625 26.03125 39.671875 28.421875 
Q 36.28125 30.8125 30.421875 30.8125 
L 19.671875 30.8125 
L 19.671875 0 
L 9.8125 0 
L 9.8125 72.90625 
L 32.078125 72.90625 
Q 44.578125 72.90625 50.734375 67.671875 
Q 56.890625 62.453125 56.890625 51.90625 
Q 56.890625 45.015625 53.6875 40.46875 
Q 50.484375 35.9375 44.390625 34.1875 
z
M 19.671875 64.796875 
L 19.671875 38.921875 
L 32.078125 38.921875 
Q 39.203125 38.921875 42.84375 42.21875 
Q 46.484375 45.515625 46.484375 51.90625 
Q 46.484375 58.296875 42.84375 61.546875 
Q 39.203125 64.796875 32.078125 64.796875 
z
" id="DejaVuSans-82"/>
    <path d="M 53.515625 70.515625 
L 53.515625 60.890625 
Q 47.90625 63.578125 42.921875 64.890625 
Q 37.9375 66.21875 33.296875 66.21875 
Q 25.25 66.21875 20.875 63.09375 
Q 16.5 59.96875 16.5 54.203125 
Q 16.5 49.359375 19.40625 46.890625 
Q 22.3125 44.4375 30.421875 42.921875 
L 36.375 41.703125 
Q 47.40625 39.59375 52.65625 34.296875 
Q 57.90625 29 57.90625 20.125 
Q 57.90625 9.515625 50.796875 4.046875 
Q 43.703125 -1.421875 29.984375 -1.421875 
Q 24.8125 -1.421875 18.96875 -0.25 
Q 13.140625 0.921875 6.890625 3.21875 
L 6.890625 13.375 
Q 12.890625 10.015625 18.65625 8.296875 
Q 24.421875 6.59375 29.984375 6.59375 
Q 38.421875 6.59375 43.015625 9.90625 
Q 47.609375 13.234375 47.609375 19.390625 
Q 47.609375 24.75 44.3125 27.78125 
Q 41.015625 30.8125 33.5 32.328125 
L 27.484375 33.5 
Q 16.453125 35.6875 11.515625 40.375 
Q 6.59375 45.0625 6.59375 53.421875 
Q 6.59375 63.09375 13.40625 68.65625 
Q 20.21875 74.21875 32.171875 74.21875 
Q 37.3125 74.21875 42.625 73.28125 
Q 47.953125 72.359375 53.515625 70.515625 
z
" id="DejaVuSans-83"/>
    <path d="M 8.5 21.578125 
L 8.5 54.6875 
L 17.484375 54.6875 
L 17.484375 21.921875 
Q 17.484375 14.15625 20.5 10.265625 
Q 23.53125 6.390625 29.59375 6.390625 
Q 36.859375 6.390625 41.078125 11.03125 
Q 45.3125 15.671875 45.3125 23.6875 
L 45.3125 54.6875 
L 54.296875 54.6875 
L 54.296875 0 
L 45.3125 0 
L 45.3125 8.40625 
Q 42.046875 3.421875 37.71875 1 
Q 33.40625 -1.421875 27.6875 -1.421875 
Q 18.265625 -1.421875 13.375 4.4375 
Q 8.5 10.296875 8.5 21.578125 
z
M 31.109375 56 
z
" id="DejaVuSans-117"/>
    <path d="M 10.6875 12.40625 
L 21 12.40625 
L 21 0 
L 10.6875 0 
z
" id="DejaVuSans-46"/>
    <path d="M 72.703125 32.078125 
Q 68.453125 32.078125 66.03125 28.46875 
Q 63.625 24.859375 63.625 18.40625 
Q 63.625 12.0625 66.03125 8.421875 
Q 68.453125 4.78125 72.703125 4.78125 
Q 76.859375 4.78125 79.265625 8.421875 
Q 81.6875 12.0625 81.6875 18.40625 
Q 81.6875 24.8125 79.265625 28.4375 
Q 76.859375 32.078125 72.703125 32.078125 
z
M 72.703125 38.28125 
Q 80.421875 38.28125 84.953125 32.90625 
Q 89.5 27.546875 89.5 18.40625 
Q 89.5 9.28125 84.9375 3.921875 
Q 80.375 -1.421875 72.703125 -1.421875 
Q 64.890625 -1.421875 60.34375 3.921875 
Q 55.8125 9.28125 55.8125 18.40625 
Q 55.8125 27.59375 60.375 32.9375 
Q 64.9375 38.28125 72.703125 38.28125 
z
M 22.3125 68.015625 
Q 18.109375 68.015625 15.6875 64.375 
Q 13.28125 60.75 13.28125 54.390625 
Q 13.28125 47.953125 15.671875 44.328125 
Q 18.0625 40.71875 22.3125 40.71875 
Q 26.5625 40.71875 28.96875 44.328125 
Q 31.390625 47.953125 31.390625 54.390625 
Q 31.390625 60.6875 28.953125 64.34375 
Q 26.515625 68.015625 22.3125 68.015625 
z
M 66.40625 74.21875 
L 74.21875 74.21875 
L 28.609375 -1.421875 
L 20.796875 -1.421875 
z
M 22.3125 74.21875 
Q 30.03125 74.21875 34.609375 68.875 
Q 39.203125 63.53125 39.203125 54.390625 
Q 39.203125 45.171875 34.640625 39.84375 
Q 30.078125 34.515625 22.3125 34.515625 
Q 14.546875 34.515625 10.03125 39.859375 
Q 5.515625 45.21875 5.515625 54.390625 
Q 5.515625 63.484375 10.046875 68.84375 
Q 14.59375 74.21875 22.3125 74.21875 
z
" id="DejaVuSans-37"/>
   </defs>
   <g transform="translate(547.781562 66.90749)scale(0.34 -0.34)">
    <use xlink:href="#DejaVuSans-66"/>
    <use x="68.603516" xlink:href="#DejaVuSans-97"/>
    <use x="129.882812" xlink:href="#DejaVuSans-103"/>
    <use x="193.359375" xlink:href="#DejaVuSans-102"/>
    <use x="228.564453" xlink:href="#DejaVuSans-105"/>
    <use x="256.347656" xlink:href="#DejaVuSans-108"/>
    <use x="284.130859" xlink:href="#DejaVuSans-101"/>
    <use x="345.654297" xlink:href="#DejaVuSans-32"/>
    <use x="377.441406" xlink:href="#DejaVuSans-101"/>
    <use x="438.964844" xlink:href="#DejaVuSans-108"/>
    <use x="466.748047" xlink:href="#DejaVuSans-98"/>
    <use x="530.224609" xlink:href="#DejaVuSans-111"/>
    <use x="591.40625" xlink:href="#DejaVuSans-119"/>
    <use x="673.193359" xlink:href="#DejaVuSans-95"/>
    <use x="723.193359" xlink:href="#DejaVuSans-108"/>
    <use x="750.976562" xlink:href="#DejaVuSans-101"/>
    <use x="812.5" xlink:href="#DejaVuSans-102"/>
    <use x="847.689453" xlink:href="#DejaVuSans-116"/>
    <use x="886.898438" xlink:href="#DejaVuSans-95"/>
    <use x="936.898438" xlink:href="#DejaVuSans-99"/>
    <use x="991.878906" xlink:href="#DejaVuSans-32"/>
    <use x="1023.666016" xlink:href="#DejaVuSans-102"/>
    <use x="1058.871094" xlink:href="#DejaVuSans-114"/>
    <use x="1099.953125" xlink:href="#DejaVuSans-111"/>
    <use x="1161.134766" xlink:href="#DejaVuSans-109"/>
    <use x="1258.546875" xlink:href="#DejaVuSans-32"/>
    <use x="1290.333984" xlink:href="#DejaVuSans-51"/>
    <use x="1353.957031" xlink:href="#DejaVuSans-53"/>
    <use x="1417.580078" xlink:href="#DejaVuSans-115"/>
    <use x="1469.679688" xlink:href="#DejaVuSans-32"/>
    <use x="1501.466797" xlink:href="#DejaVuSans-102"/>
    <use x="1536.671875" xlink:href="#DejaVuSans-111"/>
    <use x="1597.853516" xlink:href="#DejaVuSans-114"/>
    <use x="1638.966797" xlink:href="#DejaVuSans-32"/>
    <use x="1670.753906" xlink:href="#DejaVuSans-57"/>
    <use x="1734.376953" xlink:href="#DejaVuSans-53"/>
    <use x="1798" xlink:href="#DejaVuSans-115"/>
    <use x="1850.099609" xlink:href="#DejaVuSans-32"/>
    <use x="1881.886719" xlink:href="#DejaVuSans-45"/>
    <use x="1917.970703" xlink:href="#DejaVuSans-32"/>
    <use x="1949.757812" xlink:href="#DejaVuSans-76"/>
    <use x="2005.455078" xlink:href="#DejaVuSans-111"/>
    <use x="2066.636719" xlink:href="#DejaVuSans-103"/>
    <use x="2130.113281" xlink:href="#DejaVuSans-103"/>
    <use x="2193.589844" xlink:href="#DejaVuSans-105"/>
    <use x="2221.373047" xlink:href="#DejaVuSans-110"/>
    <use x="2284.751953" xlink:href="#DejaVuSans-103"/>
    <use x="2348.228516" xlink:href="#DejaVuSans-32"/>
    <use x="2380.015625" xlink:href="#DejaVuSans-82"/>
    <use x="2449.466797" xlink:href="#DejaVuSans-97"/>
    <use x="2510.746094" xlink:href="#DejaVuSans-116"/>
    <use x="2549.955078" xlink:href="#DejaVuSans-101"/>
    <use x="2611.478516" xlink:href="#DejaVuSans-32"/>
    <use x="2643.265625" xlink:href="#DejaVuSans-51"/>
    <use x="2706.888672" xlink:href="#DejaVuSans-48"/>
    <use x="2770.511719" xlink:href="#DejaVuSans-32"/>
    <use x="2802.298828" xlink:href="#DejaVuSans-45"/>
    <use x="2838.382812" xlink:href="#DejaVuSans-32"/>
    <use x="2870.169922" xlink:href="#DejaVuSans-83"/>
    <use x="2933.646484" xlink:href="#DejaVuSans-105"/>
    <use x="2961.429688" xlink:href="#DejaVuSans-109"/>
    <use x="3058.841797" xlink:href="#DejaVuSans-117"/>
    <use x="3122.220703" xlink:href="#DejaVuSans-108"/>
    <use x="3150.003906" xlink:href="#DejaVuSans-97"/>
    <use x="3211.283203" xlink:href="#DejaVuSans-116"/>
    <use x="3250.492188" xlink:href="#DejaVuSans-105"/>
    <use x="3278.275391" xlink:href="#DejaVuSans-111"/>
    <use x="3339.457031" xlink:href="#DejaVuSans-110"/>
    <use x="3402.835938" xlink:href="#DejaVuSans-32"/>
    <use x="3434.623047" xlink:href="#DejaVuSans-82"/>
    <use x="3504.074219" xlink:href="#DejaVuSans-97"/>
    <use x="3565.353516" xlink:href="#DejaVuSans-116"/>
    <use x="3604.5625" xlink:href="#DejaVuSans-101"/>
    <use x="3666.085938" xlink:href="#DejaVuSans-32"/>
    <use x="3697.873047" xlink:href="#DejaVuSans-56"/>
    <use x="3761.496094" xlink:href="#DejaVuSans-48"/>
    <use x="3825.119141" xlink:href="#DejaVuSans-48"/>
    <use x="3888.742188" xlink:href="#DejaVuSans-32"/>
    <use x="3920.529297" xlink:href="#DejaVuSans-45"/>
    <use x="3956.613281" xlink:href="#DejaVuSans-32"/>
    <use x="3988.400391" xlink:href="#DejaVuSans-49"/>
    <use x="4052.023438" xlink:href="#DejaVuSans-48"/>
    <use x="4115.646484" xlink:href="#DejaVuSans-48"/>
    <use x="4179.269531" xlink:href="#DejaVuSans-46"/>
    <use x="4211.056641" xlink:href="#DejaVuSans-48"/>
    <use x="4274.679688" xlink:href="#DejaVuSans-48"/>
    <use x="4338.302734" xlink:href="#DejaVuSans-37"/>
    <use x="4433.322266" xlink:href="#DejaVuSans-32"/>
    <use x="4465.109375" xlink:href="#DejaVuSans-114"/>
    <use x="4506.191406" xlink:href="#DejaVuSans-101"/>
    <use x="4567.714844" xlink:href="#DejaVuSans-97"/>
    <use x="4628.994141" xlink:href="#DejaVuSans-108"/>
    <use x="4656.777344" xlink:href="#DejaVuSans-32"/>
    <use x="4688.564453" xlink:href="#DejaVuSans-116"/>
    <use x="4727.773438" xlink:href="#DejaVuSans-105"/>
    <use x="4755.556641" xlink:href="#DejaVuSans-109"/>
    <use x="4852.96875" xlink:href="#DejaVuSans-101"/>
    <use x="4914.492188" xlink:href="#DejaVuSans-32"/>
    <use x="4946.279297" xlink:href="#DejaVuSans-115"/>
    <use x="4998.378906" xlink:href="#DejaVuSans-112"/>
    <use x="5061.855469" xlink:href="#DejaVuSans-101"/>
    <use x="5123.378906" xlink:href="#DejaVuSans-101"/>
    <use x="5184.902344" xlink:href="#DejaVuSans-100"/>
   </g>
   <!--  -->
   <g transform="translate(1440 105.925677)scale(0.34 -0.34)"/>
  </g>
 </g>
 <defs>
  <clipPath id="p9d10001aa4">
   <rect height="863.577185" width="2782.90202" x="94.09774" y="157.9032"/>
  </clipPath>
 </defs>
</svg>
