<?xml version="1.0" encoding="utf-8" standalone="no"?>
<!DOCTYPE svg PUBLIC "-//W3C//DTD SVG 1.1//EN"
  "http://www.w3.org/Graphics/SVG/1.1/DTD/svg11.dtd">
<!-- Created with matplotlib (https://matplotlib.org/) -->
<svg height="3240pt" version="1.1" viewBox="0 0 2880 3240" width="2880pt" xmlns="http://www.w3.org/2000/svg" xmlns:xlink="http://www.w3.org/1999/xlink">
 <defs>
  <style type="text/css">
*{stroke-linecap:butt;stroke-linejoin:round;}
  </style>
 </defs>
 <g id="figure_1">
  <g id="patch_1">
   <path d="M 0 3240 
L 2880 3240 
L 2880 0 
L 0 0 
z
" style="fill:#ffffff;"/>
  </g>
  <g id="axes_1">
   <g id="patch_2">
    <path d="M 94.09774 1088.411942 
L 2876.99976 1088.411942 
L 2876.99976 157.9032 
L 94.09774 157.9032 
z
" style="fill:#ffffff;"/>
   </g>
   <g id="matplotlib.axis_1">
    <g id="xtick_1">
     <g id="line2d_1">
      <defs>
       <path d="M 0 0 
L 0 3.5 
" id="mb9885f28da" style="stroke:#000000;stroke-width:0.8;"/>
      </defs>
      <g>
       <use style="stroke:#000000;stroke-width:0.8;" x="220.593286" xlink:href="#mb9885f28da" y="1088.411942"/>
      </g>
     </g>
     <g id="text_1">
      <!-- 10 -->
      <defs>
       <path d="M 12.40625 8.296875 
L 28.515625 8.296875 
L 28.515625 63.921875 
L 10.984375 60.40625 
L 10.984375 69.390625 
L 28.421875 72.90625 
L 38.28125 72.90625 
L 38.28125 8.296875 
L 54.390625 8.296875 
L 54.390625 0 
L 12.40625 0 
z
" id="DejaVuSans-49"/>
       <path d="M 31.78125 66.40625 
Q 24.171875 66.40625 20.328125 58.90625 
Q 16.5 51.421875 16.5 36.375 
Q 16.5 21.390625 20.328125 13.890625 
Q 24.171875 6.390625 31.78125 6.390625 
Q 39.453125 6.390625 43.28125 13.890625 
Q 47.125 21.390625 47.125 36.375 
Q 47.125 51.421875 43.28125 58.90625 
Q 39.453125 66.40625 31.78125 66.40625 
z
M 31.78125 74.21875 
Q 44.046875 74.21875 50.515625 64.515625 
Q 56.984375 54.828125 56.984375 36.375 
Q 56.984375 17.96875 50.515625 8.265625 
Q 44.046875 -1.421875 31.78125 -1.421875 
Q 19.53125 -1.421875 13.0625 8.265625 
Q 6.59375 17.96875 6.59375 36.375 
Q 6.59375 54.828125 13.0625 64.515625 
Q 19.53125 74.21875 31.78125 74.21875 
z
" id="DejaVuSans-48"/>
      </defs>
      <g transform="translate(207.868286 1110.608817)scale(0.2 -0.2)">
       <use xlink:href="#DejaVuSans-49"/>
       <use x="63.623047" xlink:href="#DejaVuSans-48"/>
      </g>
     </g>
    </g>
    <g id="xtick_2">
     <g id="line2d_2">
      <g>
       <use style="stroke:#000000;stroke-width:0.8;" x="732.715759" xlink:href="#mb9885f28da" y="1088.411942"/>
      </g>
     </g>
     <g id="text_2">
      <!-- 11 -->
      <g transform="translate(719.990759 1110.608817)scale(0.2 -0.2)">
       <use xlink:href="#DejaVuSans-49"/>
       <use x="63.623047" xlink:href="#DejaVuSans-49"/>
      </g>
     </g>
    </g>
    <g id="xtick_3">
     <g id="line2d_3">
      <g>
       <use style="stroke:#000000;stroke-width:0.8;" x="1244.838231" xlink:href="#mb9885f28da" y="1088.411942"/>
      </g>
     </g>
     <g id="text_3">
      <!-- 12 -->
      <defs>
       <path d="M 19.1875 8.296875 
L 53.609375 8.296875 
L 53.609375 0 
L 7.328125 0 
L 7.328125 8.296875 
Q 12.9375 14.109375 22.625 23.890625 
Q 32.328125 33.6875 34.8125 36.53125 
Q 39.546875 41.84375 41.421875 45.53125 
Q 43.3125 49.21875 43.3125 52.78125 
Q 43.3125 58.59375 39.234375 62.25 
Q 35.15625 65.921875 28.609375 65.921875 
Q 23.96875 65.921875 18.8125 64.3125 
Q 13.671875 62.703125 7.8125 59.421875 
L 7.8125 69.390625 
Q 13.765625 71.78125 18.9375 73 
Q 24.125 74.21875 28.421875 74.21875 
Q 39.75 74.21875 46.484375 68.546875 
Q 53.21875 62.890625 53.21875 53.421875 
Q 53.21875 48.921875 51.53125 44.890625 
Q 49.859375 40.875 45.40625 35.40625 
Q 44.1875 33.984375 37.640625 27.21875 
Q 31.109375 20.453125 19.1875 8.296875 
z
" id="DejaVuSans-50"/>
      </defs>
      <g transform="translate(1232.113231 1110.608817)scale(0.2 -0.2)">
       <use xlink:href="#DejaVuSans-49"/>
       <use x="63.623047" xlink:href="#DejaVuSans-50"/>
      </g>
     </g>
    </g>
    <g id="xtick_4">
     <g id="line2d_4">
      <g>
       <use style="stroke:#000000;stroke-width:0.8;" x="1756.960703" xlink:href="#mb9885f28da" y="1088.411942"/>
      </g>
     </g>
     <g id="text_4">
      <!-- 13 -->
      <defs>
       <path d="M 40.578125 39.3125 
Q 47.65625 37.796875 51.625 33 
Q 55.609375 28.21875 55.609375 21.1875 
Q 55.609375 10.40625 48.1875 4.484375 
Q 40.765625 -1.421875 27.09375 -1.421875 
Q 22.515625 -1.421875 17.65625 -0.515625 
Q 12.796875 0.390625 7.625 2.203125 
L 7.625 11.71875 
Q 11.71875 9.328125 16.59375 8.109375 
Q 21.484375 6.890625 26.8125 6.890625 
Q 36.078125 6.890625 40.9375 10.546875 
Q 45.796875 14.203125 45.796875 21.1875 
Q 45.796875 27.640625 41.28125 31.265625 
Q 36.765625 34.90625 28.71875 34.90625 
L 20.21875 34.90625 
L 20.21875 43.015625 
L 29.109375 43.015625 
Q 36.375 43.015625 40.234375 45.921875 
Q 44.09375 48.828125 44.09375 54.296875 
Q 44.09375 59.90625 40.109375 62.90625 
Q 36.140625 65.921875 28.71875 65.921875 
Q 24.65625 65.921875 20.015625 65.03125 
Q 15.375 64.15625 9.8125 62.3125 
L 9.8125 71.09375 
Q 15.4375 72.65625 20.34375 73.4375 
Q 25.25 74.21875 29.59375 74.21875 
Q 40.828125 74.21875 47.359375 69.109375 
Q 53.90625 64.015625 53.90625 55.328125 
Q 53.90625 49.265625 50.4375 45.09375 
Q 46.96875 40.921875 40.578125 39.3125 
z
" id="DejaVuSans-51"/>
      </defs>
      <g transform="translate(1744.235703 1110.608817)scale(0.2 -0.2)">
       <use xlink:href="#DejaVuSans-49"/>
       <use x="63.623047" xlink:href="#DejaVuSans-51"/>
      </g>
     </g>
    </g>
    <g id="xtick_5">
     <g id="line2d_5">
      <g>
       <use style="stroke:#000000;stroke-width:0.8;" x="2269.083175" xlink:href="#mb9885f28da" y="1088.411942"/>
      </g>
     </g>
     <g id="text_5">
      <!-- 14 -->
      <defs>
       <path d="M 37.796875 64.3125 
L 12.890625 25.390625 
L 37.796875 25.390625 
z
M 35.203125 72.90625 
L 47.609375 72.90625 
L 47.609375 25.390625 
L 58.015625 25.390625 
L 58.015625 17.1875 
L 47.609375 17.1875 
L 47.609375 0 
L 37.796875 0 
L 37.796875 17.1875 
L 4.890625 17.1875 
L 4.890625 26.703125 
z
" id="DejaVuSans-52"/>
      </defs>
      <g transform="translate(2256.358175 1110.608817)scale(0.2 -0.2)">
       <use xlink:href="#DejaVuSans-49"/>
       <use x="63.623047" xlink:href="#DejaVuSans-52"/>
      </g>
     </g>
    </g>
    <g id="xtick_6">
     <g id="line2d_6">
      <g>
       <use style="stroke:#000000;stroke-width:0.8;" x="2781.205648" xlink:href="#mb9885f28da" y="1088.411942"/>
      </g>
     </g>
     <g id="text_6">
      <!-- 15 -->
      <defs>
       <path d="M 10.796875 72.90625 
L 49.515625 72.90625 
L 49.515625 64.59375 
L 19.828125 64.59375 
L 19.828125 46.734375 
Q 21.96875 47.46875 24.109375 47.828125 
Q 26.265625 48.1875 28.421875 48.1875 
Q 40.625 48.1875 47.75 41.5 
Q 54.890625 34.8125 54.890625 23.390625 
Q 54.890625 11.625 47.5625 5.09375 
Q 40.234375 -1.421875 26.90625 -1.421875 
Q 22.3125 -1.421875 17.546875 -0.640625 
Q 12.796875 0.140625 7.71875 1.703125 
L 7.71875 11.625 
Q 12.109375 9.234375 16.796875 8.0625 
Q 21.484375 6.890625 26.703125 6.890625 
Q 35.15625 6.890625 40.078125 11.328125 
Q 45.015625 15.765625 45.015625 23.390625 
Q 45.015625 31 40.078125 35.4375 
Q 35.15625 39.890625 26.703125 39.890625 
Q 22.75 39.890625 18.8125 39.015625 
Q 14.890625 38.140625 10.796875 36.28125 
z
" id="DejaVuSans-53"/>
      </defs>
      <g transform="translate(2768.480648 1110.608817)scale(0.2 -0.2)">
       <use xlink:href="#DejaVuSans-49"/>
       <use x="63.623047" xlink:href="#DejaVuSans-53"/>
      </g>
     </g>
    </g>
    <g id="text_7">
     <!-- Time [s] -->
     <defs>
      <path d="M -0.296875 72.90625 
L 61.375 72.90625 
L 61.375 64.59375 
L 35.5 64.59375 
L 35.5 0 
L 25.59375 0 
L 25.59375 64.59375 
L -0.296875 64.59375 
z
" id="DejaVuSans-84"/>
      <path d="M 9.421875 54.6875 
L 18.40625 54.6875 
L 18.40625 0 
L 9.421875 0 
z
M 9.421875 75.984375 
L 18.40625 75.984375 
L 18.40625 64.59375 
L 9.421875 64.59375 
z
" id="DejaVuSans-105"/>
      <path d="M 52 44.1875 
Q 55.375 50.25 60.0625 53.125 
Q 64.75 56 71.09375 56 
Q 79.640625 56 84.28125 50.015625 
Q 88.921875 44.046875 88.921875 33.015625 
L 88.921875 0 
L 79.890625 0 
L 79.890625 32.71875 
Q 79.890625 40.578125 77.09375 44.375 
Q 74.3125 48.1875 68.609375 48.1875 
Q 61.625 48.1875 57.5625 43.546875 
Q 53.515625 38.921875 53.515625 30.90625 
L 53.515625 0 
L 44.484375 0 
L 44.484375 32.71875 
Q 44.484375 40.625 41.703125 44.40625 
Q 38.921875 48.1875 33.109375 48.1875 
Q 26.21875 48.1875 22.15625 43.53125 
Q 18.109375 38.875 18.109375 30.90625 
L 18.109375 0 
L 9.078125 0 
L 9.078125 54.6875 
L 18.109375 54.6875 
L 18.109375 46.1875 
Q 21.1875 51.21875 25.484375 53.609375 
Q 29.78125 56 35.6875 56 
Q 41.65625 56 45.828125 52.96875 
Q 50 49.953125 52 44.1875 
z
" id="DejaVuSans-109"/>
      <path d="M 56.203125 29.59375 
L 56.203125 25.203125 
L 14.890625 25.203125 
Q 15.484375 15.921875 20.484375 11.0625 
Q 25.484375 6.203125 34.421875 6.203125 
Q 39.59375 6.203125 44.453125 7.46875 
Q 49.3125 8.734375 54.109375 11.28125 
L 54.109375 2.78125 
Q 49.265625 0.734375 44.1875 -0.34375 
Q 39.109375 -1.421875 33.890625 -1.421875 
Q 20.796875 -1.421875 13.15625 6.1875 
Q 5.515625 13.8125 5.515625 26.8125 
Q 5.515625 40.234375 12.765625 48.109375 
Q 20.015625 56 32.328125 56 
Q 43.359375 56 49.78125 48.890625 
Q 56.203125 41.796875 56.203125 29.59375 
z
M 47.21875 32.234375 
Q 47.125 39.59375 43.09375 43.984375 
Q 39.0625 48.390625 32.421875 48.390625 
Q 24.90625 48.390625 20.390625 44.140625 
Q 15.875 39.890625 15.1875 32.171875 
z
" id="DejaVuSans-101"/>
      <path id="DejaVuSans-32"/>
      <path d="M 8.59375 75.984375 
L 29.296875 75.984375 
L 29.296875 69 
L 17.578125 69 
L 17.578125 -6.203125 
L 29.296875 -6.203125 
L 29.296875 -13.1875 
L 8.59375 -13.1875 
z
" id="DejaVuSans-91"/>
      <path d="M 44.28125 53.078125 
L 44.28125 44.578125 
Q 40.484375 46.53125 36.375 47.5 
Q 32.28125 48.484375 27.875 48.484375 
Q 21.1875 48.484375 17.84375 46.4375 
Q 14.5 44.390625 14.5 40.28125 
Q 14.5 37.15625 16.890625 35.375 
Q 19.28125 33.59375 26.515625 31.984375 
L 29.59375 31.296875 
Q 39.15625 29.25 43.1875 25.515625 
Q 47.21875 21.78125 47.21875 15.09375 
Q 47.21875 7.46875 41.1875 3.015625 
Q 35.15625 -1.421875 24.609375 -1.421875 
Q 20.21875 -1.421875 15.453125 -0.5625 
Q 10.6875 0.296875 5.421875 2 
L 5.421875 11.28125 
Q 10.40625 8.6875 15.234375 7.390625 
Q 20.0625 6.109375 24.8125 6.109375 
Q 31.15625 6.109375 34.5625 8.28125 
Q 37.984375 10.453125 37.984375 14.40625 
Q 37.984375 18.0625 35.515625 20.015625 
Q 33.0625 21.96875 24.703125 23.78125 
L 21.578125 24.515625 
Q 13.234375 26.265625 9.515625 29.90625 
Q 5.8125 33.546875 5.8125 39.890625 
Q 5.8125 47.609375 11.28125 51.796875 
Q 16.75 56 26.8125 56 
Q 31.78125 56 36.171875 55.265625 
Q 40.578125 54.546875 44.28125 53.078125 
z
" id="DejaVuSans-115"/>
      <path d="M 30.421875 75.984375 
L 30.421875 -13.1875 
L 9.71875 -13.1875 
L 9.71875 -6.203125 
L 21.390625 -6.203125 
L 21.390625 69 
L 9.71875 69 
L 9.71875 75.984375 
z
" id="DejaVuSans-93"/>
     </defs>
     <g transform="translate(1432.293438 1138.524129)scale(0.26 -0.26)">
      <use xlink:href="#DejaVuSans-84"/>
      <use x="61.037109" xlink:href="#DejaVuSans-105"/>
      <use x="88.820312" xlink:href="#DejaVuSans-109"/>
      <use x="186.232422" xlink:href="#DejaVuSans-101"/>
      <use x="247.755859" xlink:href="#DejaVuSans-32"/>
      <use x="279.542969" xlink:href="#DejaVuSans-91"/>
      <use x="318.556641" xlink:href="#DejaVuSans-115"/>
      <use x="370.65625" xlink:href="#DejaVuSans-93"/>
     </g>
    </g>
   </g>
   <g id="matplotlib.axis_2">
    <g id="ytick_1">
     <g id="line2d_7">
      <defs>
       <path d="M 0 0 
L -3.5 0 
" id="m980d5f9a32" style="stroke:#000000;stroke-width:0.8;"/>
      </defs>
      <g>
       <use style="stroke:#000000;stroke-width:0.8;" x="94.09774" xlink:href="#m980d5f9a32" y="979.333166"/>
      </g>
     </g>
     <g id="text_8">
      <!-- −140 -->
      <defs>
       <path d="M 10.59375 35.5 
L 73.1875 35.5 
L 73.1875 27.203125 
L 10.59375 27.203125 
z
" id="DejaVuSans-8722"/>
      </defs>
      <g transform="translate(32.163365 986.931603)scale(0.2 -0.2)">
       <use xlink:href="#DejaVuSans-8722"/>
       <use x="83.789062" xlink:href="#DejaVuSans-49"/>
       <use x="147.412109" xlink:href="#DejaVuSans-52"/>
       <use x="211.035156" xlink:href="#DejaVuSans-48"/>
      </g>
     </g>
    </g>
    <g id="ytick_2">
     <g id="line2d_8">
      <g>
       <use style="stroke:#000000;stroke-width:0.8;" x="94.09774" xlink:href="#m980d5f9a32" y="868.028292"/>
      </g>
     </g>
     <g id="text_9">
      <!-- −120 -->
      <g transform="translate(32.163365 875.62673)scale(0.2 -0.2)">
       <use xlink:href="#DejaVuSans-8722"/>
       <use x="83.789062" xlink:href="#DejaVuSans-49"/>
       <use x="147.412109" xlink:href="#DejaVuSans-50"/>
       <use x="211.035156" xlink:href="#DejaVuSans-48"/>
      </g>
     </g>
    </g>
    <g id="ytick_3">
     <g id="line2d_9">
      <g>
       <use style="stroke:#000000;stroke-width:0.8;" x="94.09774" xlink:href="#m980d5f9a32" y="756.723419"/>
      </g>
     </g>
     <g id="text_10">
      <!-- −100 -->
      <g transform="translate(32.163365 764.321856)scale(0.2 -0.2)">
       <use xlink:href="#DejaVuSans-8722"/>
       <use x="83.789062" xlink:href="#DejaVuSans-49"/>
       <use x="147.412109" xlink:href="#DejaVuSans-48"/>
       <use x="211.035156" xlink:href="#DejaVuSans-48"/>
      </g>
     </g>
    </g>
    <g id="ytick_4">
     <g id="line2d_10">
      <g>
       <use style="stroke:#000000;stroke-width:0.8;" x="94.09774" xlink:href="#m980d5f9a32" y="645.418546"/>
      </g>
     </g>
     <g id="text_11">
      <!-- −80 -->
      <defs>
       <path d="M 31.78125 34.625 
Q 24.75 34.625 20.71875 30.859375 
Q 16.703125 27.09375 16.703125 20.515625 
Q 16.703125 13.921875 20.71875 10.15625 
Q 24.75 6.390625 31.78125 6.390625 
Q 38.8125 6.390625 42.859375 10.171875 
Q 46.921875 13.96875 46.921875 20.515625 
Q 46.921875 27.09375 42.890625 30.859375 
Q 38.875 34.625 31.78125 34.625 
z
M 21.921875 38.8125 
Q 15.578125 40.375 12.03125 44.71875 
Q 8.5 49.078125 8.5 55.328125 
Q 8.5 64.0625 14.71875 69.140625 
Q 20.953125 74.21875 31.78125 74.21875 
Q 42.671875 74.21875 48.875 69.140625 
Q 55.078125 64.0625 55.078125 55.328125 
Q 55.078125 49.078125 51.53125 44.71875 
Q 48 40.375 41.703125 38.8125 
Q 48.828125 37.15625 52.796875 32.3125 
Q 56.78125 27.484375 56.78125 20.515625 
Q 56.78125 9.90625 50.3125 4.234375 
Q 43.84375 -1.421875 31.78125 -1.421875 
Q 19.734375 -1.421875 13.25 4.234375 
Q 6.78125 9.90625 6.78125 20.515625 
Q 6.78125 27.484375 10.78125 32.3125 
Q 14.796875 37.15625 21.921875 38.8125 
z
M 18.3125 54.390625 
Q 18.3125 48.734375 21.84375 45.5625 
Q 25.390625 42.390625 31.78125 42.390625 
Q 38.140625 42.390625 41.71875 45.5625 
Q 45.3125 48.734375 45.3125 54.390625 
Q 45.3125 60.0625 41.71875 63.234375 
Q 38.140625 66.40625 31.78125 66.40625 
Q 25.390625 66.40625 21.84375 63.234375 
Q 18.3125 60.0625 18.3125 54.390625 
z
" id="DejaVuSans-56"/>
      </defs>
      <g transform="translate(44.888365 653.016983)scale(0.2 -0.2)">
       <use xlink:href="#DejaVuSans-8722"/>
       <use x="83.789062" xlink:href="#DejaVuSans-56"/>
       <use x="147.412109" xlink:href="#DejaVuSans-48"/>
      </g>
     </g>
    </g>
    <g id="ytick_5">
     <g id="line2d_11">
      <g>
       <use style="stroke:#000000;stroke-width:0.8;" x="94.09774" xlink:href="#m980d5f9a32" y="534.113672"/>
      </g>
     </g>
     <g id="text_12">
      <!-- −60 -->
      <defs>
       <path d="M 33.015625 40.375 
Q 26.375 40.375 22.484375 35.828125 
Q 18.609375 31.296875 18.609375 23.390625 
Q 18.609375 15.53125 22.484375 10.953125 
Q 26.375 6.390625 33.015625 6.390625 
Q 39.65625 6.390625 43.53125 10.953125 
Q 47.40625 15.53125 47.40625 23.390625 
Q 47.40625 31.296875 43.53125 35.828125 
Q 39.65625 40.375 33.015625 40.375 
z
M 52.59375 71.296875 
L 52.59375 62.3125 
Q 48.875 64.0625 45.09375 64.984375 
Q 41.3125 65.921875 37.59375 65.921875 
Q 27.828125 65.921875 22.671875 59.328125 
Q 17.53125 52.734375 16.796875 39.40625 
Q 19.671875 43.65625 24.015625 45.921875 
Q 28.375 48.1875 33.59375 48.1875 
Q 44.578125 48.1875 50.953125 41.515625 
Q 57.328125 34.859375 57.328125 23.390625 
Q 57.328125 12.15625 50.6875 5.359375 
Q 44.046875 -1.421875 33.015625 -1.421875 
Q 20.359375 -1.421875 13.671875 8.265625 
Q 6.984375 17.96875 6.984375 36.375 
Q 6.984375 53.65625 15.1875 63.9375 
Q 23.390625 74.21875 37.203125 74.21875 
Q 40.921875 74.21875 44.703125 73.484375 
Q 48.484375 72.75 52.59375 71.296875 
z
" id="DejaVuSans-54"/>
      </defs>
      <g transform="translate(44.888365 541.71211)scale(0.2 -0.2)">
       <use xlink:href="#DejaVuSans-8722"/>
       <use x="83.789062" xlink:href="#DejaVuSans-54"/>
       <use x="147.412109" xlink:href="#DejaVuSans-48"/>
      </g>
     </g>
    </g>
    <g id="ytick_6">
     <g id="line2d_12">
      <g>
       <use style="stroke:#000000;stroke-width:0.8;" x="94.09774" xlink:href="#m980d5f9a32" y="422.808799"/>
      </g>
     </g>
     <g id="text_13">
      <!-- −40 -->
      <g transform="translate(44.888365 430.407236)scale(0.2 -0.2)">
       <use xlink:href="#DejaVuSans-8722"/>
       <use x="83.789062" xlink:href="#DejaVuSans-52"/>
       <use x="147.412109" xlink:href="#DejaVuSans-48"/>
      </g>
     </g>
    </g>
    <g id="ytick_7">
     <g id="line2d_13">
      <g>
       <use style="stroke:#000000;stroke-width:0.8;" x="94.09774" xlink:href="#m980d5f9a32" y="311.503925"/>
      </g>
     </g>
     <g id="text_14">
      <!-- −20 -->
      <g transform="translate(44.888365 319.102363)scale(0.2 -0.2)">
       <use xlink:href="#DejaVuSans-8722"/>
       <use x="83.789062" xlink:href="#DejaVuSans-50"/>
       <use x="147.412109" xlink:href="#DejaVuSans-48"/>
      </g>
     </g>
    </g>
    <g id="ytick_8">
     <g id="line2d_14">
      <g>
       <use style="stroke:#000000;stroke-width:0.8;" x="94.09774" xlink:href="#m980d5f9a32" y="200.199052"/>
      </g>
     </g>
     <g id="text_15">
      <!-- 0 -->
      <g transform="translate(74.37274 207.797489)scale(0.2 -0.2)">
       <use xlink:href="#DejaVuSans-48"/>
      </g>
     </g>
    </g>
    <g id="text_16">
     <!-- Force [N] -->
     <defs>
      <path d="M 9.8125 72.90625 
L 51.703125 72.90625 
L 51.703125 64.59375 
L 19.671875 64.59375 
L 19.671875 43.109375 
L 48.578125 43.109375 
L 48.578125 34.8125 
L 19.671875 34.8125 
L 19.671875 0 
L 9.8125 0 
z
" id="DejaVuSans-70"/>
      <path d="M 30.609375 48.390625 
Q 23.390625 48.390625 19.1875 42.75 
Q 14.984375 37.109375 14.984375 27.296875 
Q 14.984375 17.484375 19.15625 11.84375 
Q 23.34375 6.203125 30.609375 6.203125 
Q 37.796875 6.203125 41.984375 11.859375 
Q 46.1875 17.53125 46.1875 27.296875 
Q 46.1875 37.015625 41.984375 42.703125 
Q 37.796875 48.390625 30.609375 48.390625 
z
M 30.609375 56 
Q 42.328125 56 49.015625 48.375 
Q 55.71875 40.765625 55.71875 27.296875 
Q 55.71875 13.875 49.015625 6.21875 
Q 42.328125 -1.421875 30.609375 -1.421875 
Q 18.84375 -1.421875 12.171875 6.21875 
Q 5.515625 13.875 5.515625 27.296875 
Q 5.515625 40.765625 12.171875 48.375 
Q 18.84375 56 30.609375 56 
z
" id="DejaVuSans-111"/>
      <path d="M 41.109375 46.296875 
Q 39.59375 47.171875 37.8125 47.578125 
Q 36.03125 48 33.890625 48 
Q 26.265625 48 22.1875 43.046875 
Q 18.109375 38.09375 18.109375 28.8125 
L 18.109375 0 
L 9.078125 0 
L 9.078125 54.6875 
L 18.109375 54.6875 
L 18.109375 46.1875 
Q 20.953125 51.171875 25.484375 53.578125 
Q 30.03125 56 36.53125 56 
Q 37.453125 56 38.578125 55.875 
Q 39.703125 55.765625 41.0625 55.515625 
z
" id="DejaVuSans-114"/>
      <path d="M 48.78125 52.59375 
L 48.78125 44.1875 
Q 44.96875 46.296875 41.140625 47.34375 
Q 37.3125 48.390625 33.40625 48.390625 
Q 24.65625 48.390625 19.8125 42.84375 
Q 14.984375 37.3125 14.984375 27.296875 
Q 14.984375 17.28125 19.8125 11.734375 
Q 24.65625 6.203125 33.40625 6.203125 
Q 37.3125 6.203125 41.140625 7.25 
Q 44.96875 8.296875 48.78125 10.40625 
L 48.78125 2.09375 
Q 45.015625 0.34375 40.984375 -0.53125 
Q 36.96875 -1.421875 32.421875 -1.421875 
Q 20.0625 -1.421875 12.78125 6.34375 
Q 5.515625 14.109375 5.515625 27.296875 
Q 5.515625 40.671875 12.859375 48.328125 
Q 20.21875 56 33.015625 56 
Q 37.15625 56 41.109375 55.140625 
Q 45.0625 54.296875 48.78125 52.59375 
z
" id="DejaVuSans-99"/>
      <path d="M 9.8125 72.90625 
L 23.09375 72.90625 
L 55.421875 11.921875 
L 55.421875 72.90625 
L 64.984375 72.90625 
L 64.984375 0 
L 51.703125 0 
L 19.390625 60.984375 
L 19.390625 0 
L 9.8125 0 
z
" id="DejaVuSans-78"/>
     </defs>
     <g transform="translate(22.756178 683.071321)rotate(-90)scale(0.26 -0.26)">
      <use xlink:href="#DejaVuSans-70"/>
      <use x="57.472656" xlink:href="#DejaVuSans-111"/>
      <use x="118.654297" xlink:href="#DejaVuSans-114"/>
      <use x="159.736328" xlink:href="#DejaVuSans-99"/>
      <use x="214.716797" xlink:href="#DejaVuSans-101"/>
      <use x="276.240234" xlink:href="#DejaVuSans-32"/>
      <use x="308.027344" xlink:href="#DejaVuSans-91"/>
      <use x="347.041016" xlink:href="#DejaVuSans-78"/>
      <use x="421.845703" xlink:href="#DejaVuSans-93"/>
     </g>
    </g>
   </g>
   <g id="line2d_15">
    <path clip-path="url(#pd2b77aeaa8)" d="M 220.593286 1046.11609 
L 2750.504214 1046.11609 
L 2750.504214 1046.11609 
" style="fill:none;stroke:#8000ff;stroke-linecap:square;stroke-width:3;"/>
   </g>
   <g id="line2d_16">
    <path clip-path="url(#pd2b77aeaa8)" d="M 220.593286 202.346829 
L 736.58497 202.241503 
L 919.644984 202.201916 
L 1119.386599 202.175599 
L 1785.130281 202.070055 
L 1801.792469 206.236401 
L 1818.514364 204.097574 
L 1835.10085 201.708973 
L 1851.827018 200.199052 
L 1885.013299 200.199052 
L 1901.612972 206.954893 
L 1918.267101 206.313549 
L 1934.91305 205.239172 
L 1968.191027 204.200754 
L 1984.990333 200.199052 
L 2051.415154 200.199052 
L 2068.053777 204.1218 
L 2084.708028 206.905578 
L 2101.359593 205.571466 
L 2118.044369 204.880525 
L 2134.644409 204.435331 
L 2151.327841 202.529116 
L 2168.018356 200.199052 
L 2234.508867 200.199052 
L 2251.15506 207.088053 
L 2267.838493 205.985148 
L 2284.468202 205.066265 
L 2301.050415 204.586881 
L 2317.71187 203.845104 
L 2334.409345 200.199052 
L 2401.090696 200.199052 
L 2417.562165 206.080238 
L 2434.244011 206.506886 
L 2450.862121 205.314767 
L 2467.64189 204.734452 
L 2484.234237 204.298926 
L 2500.805949 201.319542 
L 2517.534804 200.199052 
L 2567.381441 200.199052 
L 2584.032884 202.298861 
L 2600.704718 206.932804 
L 2617.356283 205.650541 
L 2634.017982 204.893762 
L 2650.582613 204.456451 
L 2667.247487 203.260341 
L 2683.871457 200.199052 
L 2750.504214 200.199052 
L 2750.504214 200.199052 
" style="fill:none;stroke:#386df9;stroke-linecap:square;stroke-width:3;"/>
   </g>
   <g id="line2d_17">
    <path clip-path="url(#pd2b77aeaa8)" d="M 220.593286 200.199052 
L 1885.013299 200.199052 
L 1901.612972 200.603386 
L 1918.267101 200.248811 
L 1968.191027 200.199052 
L 2068.053777 200.199052 
L 2084.708028 200.583303 
L 2101.359593 200.199052 
L 2234.508867 200.199052 
L 2251.15506 200.681139 
L 2267.838493 200.199052 
L 2417.562165 200.199052 
L 2434.244011 200.355663 
L 2450.862121 200.199052 
L 2584.032884 200.199052 
L 2600.704718 200.595428 
L 2617.356283 200.199052 
L 2750.504214 200.199052 
L 2750.504214 200.199052 
" style="fill:none;stroke:#12c8e6;stroke-linecap:square;stroke-width:3;"/>
   </g>
   <g id="line2d_18">
    <path clip-path="url(#pd2b77aeaa8)" d="M 220.593286 200.199052 
L 2750.504214 200.199052 
L 2750.504214 200.199052 
" style="fill:none;stroke:#5af8c8;stroke-linecap:square;stroke-width:3;"/>
   </g>
   <g id="line2d_19">
    <path clip-path="url(#pd2b77aeaa8)" d="M 220.593286 200.199052 
L 1984.990333 200.199052 
L 2001.51638 200.419572 
L 2018.118006 200.199052 
L 2334.409345 200.199052 
L 2351.041252 200.366784 
L 2367.788665 200.199052 
L 2750.504214 200.199052 
L 2750.504214 200.199052 
" style="fill:none;stroke:#a4f89f;stroke-linecap:square;stroke-width:3;"/>
   </g>
   <g id="line2d_20">
    <path clip-path="url(#pd2b77aeaa8)" d="M 220.593286 200.199052 
L 1835.10085 200.199052 
L 1851.827018 202.21046 
L 1868.365641 202.245478 
L 1885.013299 200.199052 
L 1984.990333 200.199052 
L 2001.51638 203.639866 
L 2018.118006 201.624866 
L 2034.842831 200.199052 
L 2151.327841 200.199052 
L 2168.018356 202.622912 
L 2184.573097 202.271801 
L 2201.264466 200.564967 
L 2217.849731 200.199052 
L 2334.409345 200.199052 
L 2351.041252 203.52878 
L 2367.788665 201.278969 
L 2384.329852 200.199052 
L 2500.805949 200.199052 
L 2517.534804 203.342226 
L 2534.249128 201.893564 
L 2550.722916 200.303575 
L 2584.032884 200.199052 
L 2667.247487 200.199052 
L 2683.871457 201.001758 
L 2700.539262 202.775314 
L 2717.191681 200.798629 
L 2733.85216 200.199052 
L 2750.504214 200.199052 
L 2750.504214 200.199052 
" style="fill:none;stroke:#ecc86f;stroke-linecap:square;stroke-width:3;"/>
   </g>
   <g id="line2d_21">
    <path clip-path="url(#pd2b77aeaa8)" d="M 220.593286 1046.11609 
L 2750.504214 1046.11609 
L 2750.504214 1046.11609 
" style="fill:none;stroke:#ff6d38;stroke-linecap:square;stroke-width:3;"/>
   </g>
   <g id="line2d_22">
    <path clip-path="url(#pd2b77aeaa8)" d="M 220.593286 203.117982 
L 520.284097 203.202889 
L 603.38588 203.242474 
L 1568.814512 203.526181 
L 1735.247991 203.545877 
L 1785.130281 203.578971 
L 1801.792469 200.199052 
L 1818.514364 200.199052 
L 1835.10085 202.506647 
L 1851.827018 210.674266 
L 1868.365641 210.913674 
L 1885.013299 206.479459 
L 1901.612972 200.199052 
L 1968.191027 200.199052 
L 1984.990333 204.633742 
L 2001.51638 211.84381 
L 2018.118006 210.258571 
L 2051.415154 207.973966 
L 2068.053777 200.199052 
L 2134.644409 200.199052 
L 2151.327841 201.095525 
L 2168.018356 210.993045 
L 2184.573097 210.769031 
L 2201.264466 209.405104 
L 2217.849731 208.607141 
L 2234.508867 204.192861 
L 2251.15506 200.199052 
L 2317.71187 200.199052 
L 2334.409345 207.258234 
L 2351.041252 211.762971 
L 2367.788665 209.976407 
L 2384.329852 208.913382 
L 2401.090696 206.992467 
L 2417.562165 200.199052 
L 2484.234237 200.199052 
L 2500.805949 202.662394 
L 2517.534804 211.585832 
L 2534.249128 210.463517 
L 2550.722916 209.186929 
L 2567.381441 208.244647 
L 2584.032884 201.404206 
L 2600.704718 200.199052 
L 2667.247487 200.199052 
L 2683.871457 209.672165 
L 2700.539262 211.160503 
L 2717.191681 209.583742 
L 2733.85216 208.688051 
L 2750.504214 205.42523 
L 2750.504214 205.42523 
" style="fill:none;stroke:#ff0000;stroke-linecap:square;stroke-width:3;"/>
   </g>
   <g id="patch_3">
    <path d="M 94.09774 1088.411942 
L 94.09774 157.9032 
" style="fill:none;stroke:#000000;stroke-linecap:square;stroke-linejoin:miter;stroke-width:0.8;"/>
   </g>
   <g id="patch_4">
    <path d="M 2876.99976 1088.411942 
L 2876.99976 157.9032 
" style="fill:none;stroke:#000000;stroke-linecap:square;stroke-linejoin:miter;stroke-width:0.8;"/>
   </g>
   <g id="patch_5">
    <path d="M 94.09774 1088.411942 
L 2876.99976 1088.411942 
" style="fill:none;stroke:#000000;stroke-linecap:square;stroke-linejoin:miter;stroke-width:0.8;"/>
   </g>
   <g id="patch_6">
    <path d="M 94.09774 157.9032 
L 2876.99976 157.9032 
" style="fill:none;stroke:#000000;stroke-linecap:square;stroke-linejoin:miter;stroke-width:0.8;"/>
   </g>
   <g id="text_17">
    <!-- All shoulder Tendons -->
    <defs>
     <path d="M 34.1875 63.1875 
L 20.796875 26.90625 
L 47.609375 26.90625 
z
M 28.609375 72.90625 
L 39.796875 72.90625 
L 67.578125 0 
L 57.328125 0 
L 50.6875 18.703125 
L 17.828125 18.703125 
L 11.1875 0 
L 0.78125 0 
z
" id="DejaVuSans-65"/>
     <path d="M 9.421875 75.984375 
L 18.40625 75.984375 
L 18.40625 0 
L 9.421875 0 
z
" id="DejaVuSans-108"/>
     <path d="M 54.890625 33.015625 
L 54.890625 0 
L 45.90625 0 
L 45.90625 32.71875 
Q 45.90625 40.484375 42.875 44.328125 
Q 39.84375 48.1875 33.796875 48.1875 
Q 26.515625 48.1875 22.3125 43.546875 
Q 18.109375 38.921875 18.109375 30.90625 
L 18.109375 0 
L 9.078125 0 
L 9.078125 75.984375 
L 18.109375 75.984375 
L 18.109375 46.1875 
Q 21.34375 51.125 25.703125 53.5625 
Q 30.078125 56 35.796875 56 
Q 45.21875 56 50.046875 50.171875 
Q 54.890625 44.34375 54.890625 33.015625 
z
" id="DejaVuSans-104"/>
     <path d="M 8.5 21.578125 
L 8.5 54.6875 
L 17.484375 54.6875 
L 17.484375 21.921875 
Q 17.484375 14.15625 20.5 10.265625 
Q 23.53125 6.390625 29.59375 6.390625 
Q 36.859375 6.390625 41.078125 11.03125 
Q 45.3125 15.671875 45.3125 23.6875 
L 45.3125 54.6875 
L 54.296875 54.6875 
L 54.296875 0 
L 45.3125 0 
L 45.3125 8.40625 
Q 42.046875 3.421875 37.71875 1 
Q 33.40625 -1.421875 27.6875 -1.421875 
Q 18.265625 -1.421875 13.375 4.4375 
Q 8.5 10.296875 8.5 21.578125 
z
M 31.109375 56 
z
" id="DejaVuSans-117"/>
     <path d="M 45.40625 46.390625 
L 45.40625 75.984375 
L 54.390625 75.984375 
L 54.390625 0 
L 45.40625 0 
L 45.40625 8.203125 
Q 42.578125 3.328125 38.25 0.953125 
Q 33.9375 -1.421875 27.875 -1.421875 
Q 17.96875 -1.421875 11.734375 6.484375 
Q 5.515625 14.40625 5.515625 27.296875 
Q 5.515625 40.1875 11.734375 48.09375 
Q 17.96875 56 27.875 56 
Q 33.9375 56 38.25 53.625 
Q 42.578125 51.265625 45.40625 46.390625 
z
M 14.796875 27.296875 
Q 14.796875 17.390625 18.875 11.75 
Q 22.953125 6.109375 30.078125 6.109375 
Q 37.203125 6.109375 41.296875 11.75 
Q 45.40625 17.390625 45.40625 27.296875 
Q 45.40625 37.203125 41.296875 42.84375 
Q 37.203125 48.484375 30.078125 48.484375 
Q 22.953125 48.484375 18.875 42.84375 
Q 14.796875 37.203125 14.796875 27.296875 
z
" id="DejaVuSans-100"/>
     <path d="M 54.890625 33.015625 
L 54.890625 0 
L 45.90625 0 
L 45.90625 32.71875 
Q 45.90625 40.484375 42.875 44.328125 
Q 39.84375 48.1875 33.796875 48.1875 
Q 26.515625 48.1875 22.3125 43.546875 
Q 18.109375 38.921875 18.109375 30.90625 
L 18.109375 0 
L 9.078125 0 
L 9.078125 54.6875 
L 18.109375 54.6875 
L 18.109375 46.1875 
Q 21.34375 51.125 25.703125 53.5625 
Q 30.078125 56 35.796875 56 
Q 45.21875 56 50.046875 50.171875 
Q 54.890625 44.34375 54.890625 33.015625 
z
" id="DejaVuSans-110"/>
    </defs>
    <g transform="translate(1307.502969 150.832263)scale(0.34 -0.34)">
     <use xlink:href="#DejaVuSans-65"/>
     <use x="68.408203" xlink:href="#DejaVuSans-108"/>
     <use x="96.191406" xlink:href="#DejaVuSans-108"/>
     <use x="123.974609" xlink:href="#DejaVuSans-32"/>
     <use x="155.761719" xlink:href="#DejaVuSans-115"/>
     <use x="207.861328" xlink:href="#DejaVuSans-104"/>
     <use x="271.240234" xlink:href="#DejaVuSans-111"/>
     <use x="332.421875" xlink:href="#DejaVuSans-117"/>
     <use x="395.800781" xlink:href="#DejaVuSans-108"/>
     <use x="423.583984" xlink:href="#DejaVuSans-100"/>
     <use x="487.060547" xlink:href="#DejaVuSans-101"/>
     <use x="548.583984" xlink:href="#DejaVuSans-114"/>
     <use x="589.697266" xlink:href="#DejaVuSans-32"/>
     <use x="621.484375" xlink:href="#DejaVuSans-84"/>
     <use x="682.302734" xlink:href="#DejaVuSans-101"/>
     <use x="743.826172" xlink:href="#DejaVuSans-110"/>
     <use x="807.205078" xlink:href="#DejaVuSans-100"/>
     <use x="870.681641" xlink:href="#DejaVuSans-111"/>
     <use x="931.863281" xlink:href="#DejaVuSans-110"/>
     <use x="995.242188" xlink:href="#DejaVuSans-115"/>
    </g>
   </g>
  </g>
  <g id="axes_2">
   <g id="patch_7">
    <path d="M 94.09774 2134.946163 
L 2876.99976 2134.946163 
L 2876.99976 1204.437422 
L 94.09774 1204.437422 
z
" style="fill:#ffffff;"/>
   </g>
   <g id="matplotlib.axis_3">
    <g id="xtick_7">
     <g id="line2d_23">
      <g>
       <use style="stroke:#000000;stroke-width:0.8;" x="220.593286" xlink:href="#mb9885f28da" y="2134.946163"/>
      </g>
     </g>
     <g id="text_18">
      <!-- 10 -->
      <g transform="translate(207.868286 2157.143038)scale(0.2 -0.2)">
       <use xlink:href="#DejaVuSans-49"/>
       <use x="63.623047" xlink:href="#DejaVuSans-48"/>
      </g>
     </g>
    </g>
    <g id="xtick_8">
     <g id="line2d_24">
      <g>
       <use style="stroke:#000000;stroke-width:0.8;" x="732.715759" xlink:href="#mb9885f28da" y="2134.946163"/>
      </g>
     </g>
     <g id="text_19">
      <!-- 11 -->
      <g transform="translate(719.990759 2157.143038)scale(0.2 -0.2)">
       <use xlink:href="#DejaVuSans-49"/>
       <use x="63.623047" xlink:href="#DejaVuSans-49"/>
      </g>
     </g>
    </g>
    <g id="xtick_9">
     <g id="line2d_25">
      <g>
       <use style="stroke:#000000;stroke-width:0.8;" x="1244.838231" xlink:href="#mb9885f28da" y="2134.946163"/>
      </g>
     </g>
     <g id="text_20">
      <!-- 12 -->
      <g transform="translate(1232.113231 2157.143038)scale(0.2 -0.2)">
       <use xlink:href="#DejaVuSans-49"/>
       <use x="63.623047" xlink:href="#DejaVuSans-50"/>
      </g>
     </g>
    </g>
    <g id="xtick_10">
     <g id="line2d_26">
      <g>
       <use style="stroke:#000000;stroke-width:0.8;" x="1756.960703" xlink:href="#mb9885f28da" y="2134.946163"/>
      </g>
     </g>
     <g id="text_21">
      <!-- 13 -->
      <g transform="translate(1744.235703 2157.143038)scale(0.2 -0.2)">
       <use xlink:href="#DejaVuSans-49"/>
       <use x="63.623047" xlink:href="#DejaVuSans-51"/>
      </g>
     </g>
    </g>
    <g id="xtick_11">
     <g id="line2d_27">
      <g>
       <use style="stroke:#000000;stroke-width:0.8;" x="2269.083175" xlink:href="#mb9885f28da" y="2134.946163"/>
      </g>
     </g>
     <g id="text_22">
      <!-- 14 -->
      <g transform="translate(2256.358175 2157.143038)scale(0.2 -0.2)">
       <use xlink:href="#DejaVuSans-49"/>
       <use x="63.623047" xlink:href="#DejaVuSans-52"/>
      </g>
     </g>
    </g>
    <g id="xtick_12">
     <g id="line2d_28">
      <g>
       <use style="stroke:#000000;stroke-width:0.8;" x="2781.205648" xlink:href="#mb9885f28da" y="2134.946163"/>
      </g>
     </g>
     <g id="text_23">
      <!-- 15 -->
      <g transform="translate(2768.480648 2157.143038)scale(0.2 -0.2)">
       <use xlink:href="#DejaVuSans-49"/>
       <use x="63.623047" xlink:href="#DejaVuSans-53"/>
      </g>
     </g>
    </g>
    <g id="text_24">
     <!-- Time [s] -->
     <g transform="translate(1432.293438 2185.058351)scale(0.26 -0.26)">
      <use xlink:href="#DejaVuSans-84"/>
      <use x="61.037109" xlink:href="#DejaVuSans-105"/>
      <use x="88.820312" xlink:href="#DejaVuSans-109"/>
      <use x="186.232422" xlink:href="#DejaVuSans-101"/>
      <use x="247.755859" xlink:href="#DejaVuSans-32"/>
      <use x="279.542969" xlink:href="#DejaVuSans-91"/>
      <use x="318.556641" xlink:href="#DejaVuSans-115"/>
      <use x="370.65625" xlink:href="#DejaVuSans-93"/>
     </g>
    </g>
   </g>
   <g id="matplotlib.axis_4">
    <g id="ytick_9">
     <g id="line2d_29">
      <g>
       <use style="stroke:#000000;stroke-width:0.8;" x="94.09774" xlink:href="#m980d5f9a32" y="2025.867387"/>
      </g>
     </g>
     <g id="text_25">
      <!-- −140 -->
      <g transform="translate(32.163365 2033.465825)scale(0.2 -0.2)">
       <use xlink:href="#DejaVuSans-8722"/>
       <use x="83.789062" xlink:href="#DejaVuSans-49"/>
       <use x="147.412109" xlink:href="#DejaVuSans-52"/>
       <use x="211.035156" xlink:href="#DejaVuSans-48"/>
      </g>
     </g>
    </g>
    <g id="ytick_10">
     <g id="line2d_30">
      <g>
       <use style="stroke:#000000;stroke-width:0.8;" x="94.09774" xlink:href="#m980d5f9a32" y="1914.562514"/>
      </g>
     </g>
     <g id="text_26">
      <!-- −120 -->
      <g transform="translate(32.163365 1922.160951)scale(0.2 -0.2)">
       <use xlink:href="#DejaVuSans-8722"/>
       <use x="83.789062" xlink:href="#DejaVuSans-49"/>
       <use x="147.412109" xlink:href="#DejaVuSans-50"/>
       <use x="211.035156" xlink:href="#DejaVuSans-48"/>
      </g>
     </g>
    </g>
    <g id="ytick_11">
     <g id="line2d_31">
      <g>
       <use style="stroke:#000000;stroke-width:0.8;" x="94.09774" xlink:href="#m980d5f9a32" y="1803.257641"/>
      </g>
     </g>
     <g id="text_27">
      <!-- −100 -->
      <g transform="translate(32.163365 1810.856078)scale(0.2 -0.2)">
       <use xlink:href="#DejaVuSans-8722"/>
       <use x="83.789062" xlink:href="#DejaVuSans-49"/>
       <use x="147.412109" xlink:href="#DejaVuSans-48"/>
       <use x="211.035156" xlink:href="#DejaVuSans-48"/>
      </g>
     </g>
    </g>
    <g id="ytick_12">
     <g id="line2d_32">
      <g>
       <use style="stroke:#000000;stroke-width:0.8;" x="94.09774" xlink:href="#m980d5f9a32" y="1691.952767"/>
      </g>
     </g>
     <g id="text_28">
      <!-- −80 -->
      <g transform="translate(44.888365 1699.551205)scale(0.2 -0.2)">
       <use xlink:href="#DejaVuSans-8722"/>
       <use x="83.789062" xlink:href="#DejaVuSans-56"/>
       <use x="147.412109" xlink:href="#DejaVuSans-48"/>
      </g>
     </g>
    </g>
    <g id="ytick_13">
     <g id="line2d_33">
      <g>
       <use style="stroke:#000000;stroke-width:0.8;" x="94.09774" xlink:href="#m980d5f9a32" y="1580.647894"/>
      </g>
     </g>
     <g id="text_29">
      <!-- −60 -->
      <g transform="translate(44.888365 1588.246331)scale(0.2 -0.2)">
       <use xlink:href="#DejaVuSans-8722"/>
       <use x="83.789062" xlink:href="#DejaVuSans-54"/>
       <use x="147.412109" xlink:href="#DejaVuSans-48"/>
      </g>
     </g>
    </g>
    <g id="ytick_14">
     <g id="line2d_34">
      <g>
       <use style="stroke:#000000;stroke-width:0.8;" x="94.09774" xlink:href="#m980d5f9a32" y="1469.34302"/>
      </g>
     </g>
     <g id="text_30">
      <!-- −40 -->
      <g transform="translate(44.888365 1476.941458)scale(0.2 -0.2)">
       <use xlink:href="#DejaVuSans-8722"/>
       <use x="83.789062" xlink:href="#DejaVuSans-52"/>
       <use x="147.412109" xlink:href="#DejaVuSans-48"/>
      </g>
     </g>
    </g>
    <g id="ytick_15">
     <g id="line2d_35">
      <g>
       <use style="stroke:#000000;stroke-width:0.8;" x="94.09774" xlink:href="#m980d5f9a32" y="1358.038147"/>
      </g>
     </g>
     <g id="text_31">
      <!-- −20 -->
      <g transform="translate(44.888365 1365.636584)scale(0.2 -0.2)">
       <use xlink:href="#DejaVuSans-8722"/>
       <use x="83.789062" xlink:href="#DejaVuSans-50"/>
       <use x="147.412109" xlink:href="#DejaVuSans-48"/>
      </g>
     </g>
    </g>
    <g id="ytick_16">
     <g id="line2d_36">
      <g>
       <use style="stroke:#000000;stroke-width:0.8;" x="94.09774" xlink:href="#m980d5f9a32" y="1246.733274"/>
      </g>
     </g>
     <g id="text_32">
      <!-- 0 -->
      <g transform="translate(74.37274 1254.331711)scale(0.2 -0.2)">
       <use xlink:href="#DejaVuSans-48"/>
      </g>
     </g>
    </g>
    <g id="text_33">
     <!-- Force [N] -->
     <g transform="translate(22.756178 1729.605543)rotate(-90)scale(0.26 -0.26)">
      <use xlink:href="#DejaVuSans-70"/>
      <use x="57.472656" xlink:href="#DejaVuSans-111"/>
      <use x="118.654297" xlink:href="#DejaVuSans-114"/>
      <use x="159.736328" xlink:href="#DejaVuSans-99"/>
      <use x="214.716797" xlink:href="#DejaVuSans-101"/>
      <use x="276.240234" xlink:href="#DejaVuSans-32"/>
      <use x="308.027344" xlink:href="#DejaVuSans-91"/>
      <use x="347.041016" xlink:href="#DejaVuSans-78"/>
      <use x="421.845703" xlink:href="#DejaVuSans-93"/>
     </g>
    </g>
   </g>
   <g id="line2d_37">
    <path clip-path="url(#p5eeb35d8ec)" d="M 220.593286 2092.650311 
L 2750.504214 2092.650311 
L 2750.504214 2092.650311 
" style="fill:none;stroke:#8000ff;stroke-linecap:square;stroke-width:3;"/>
   </g>
   <g id="line2d_38">
    <path clip-path="url(#p5eeb35d8ec)" d="M 220.593286 1246.733274 
L 1885.013299 1246.733274 
L 1901.612972 1247.137607 
L 1918.267101 1246.783033 
L 1968.191027 1246.733274 
L 2068.053777 1246.733274 
L 2084.708028 1247.117525 
L 2101.359593 1246.733274 
L 2234.508867 1246.733274 
L 2251.15506 1247.215361 
L 2267.838493 1246.733274 
L 2417.562165 1246.733274 
L 2434.244011 1246.889885 
L 2450.862121 1246.733274 
L 2584.032884 1246.733274 
L 2600.704718 1247.129649 
L 2617.356283 1246.733274 
L 2750.504214 1246.733274 
L 2750.504214 1246.733274 
" style="fill:none;stroke:#12c8e6;stroke-linecap:square;stroke-width:3;"/>
   </g>
   <g id="line2d_39">
    <path clip-path="url(#p5eeb35d8ec)" d="M 220.593286 1246.733274 
L 1984.990333 1246.733274 
L 2001.51638 1246.953793 
L 2018.118006 1246.733274 
L 2334.409345 1246.733274 
L 2351.041252 1246.901006 
L 2367.788665 1246.733274 
L 2750.504214 1246.733274 
L 2750.504214 1246.733274 
" style="fill:none;stroke:#a4f89f;stroke-linecap:square;stroke-width:3;"/>
   </g>
   <g id="line2d_40">
    <path clip-path="url(#p5eeb35d8ec)" d="M 220.593286 2092.650311 
L 2750.504214 2092.650311 
L 2750.504214 2092.650311 
" style="fill:none;stroke:#ff6d38;stroke-linecap:square;stroke-width:3;"/>
   </g>
   <g id="patch_8">
    <path d="M 94.09774 2134.946163 
L 94.09774 1204.437422 
" style="fill:none;stroke:#000000;stroke-linecap:square;stroke-linejoin:miter;stroke-width:0.8;"/>
   </g>
   <g id="patch_9">
    <path d="M 2876.99976 2134.946163 
L 2876.99976 1204.437422 
" style="fill:none;stroke:#000000;stroke-linecap:square;stroke-linejoin:miter;stroke-width:0.8;"/>
   </g>
   <g id="patch_10">
    <path d="M 94.09774 2134.946163 
L 2876.99976 2134.946163 
" style="fill:none;stroke:#000000;stroke-linecap:square;stroke-linejoin:miter;stroke-width:0.8;"/>
   </g>
   <g id="patch_11">
    <path d="M 94.09774 1204.437422 
L 2876.99976 1204.437422 
" style="fill:none;stroke:#000000;stroke-linecap:square;stroke-linejoin:miter;stroke-width:0.8;"/>
   </g>
   <g id="text_34">
    <!-- Shoulder Tendons [0, 2, 4, 6] -->
    <defs>
     <path d="M 53.515625 70.515625 
L 53.515625 60.890625 
Q 47.90625 63.578125 42.921875 64.890625 
Q 37.9375 66.21875 33.296875 66.21875 
Q 25.25 66.21875 20.875 63.09375 
Q 16.5 59.96875 16.5 54.203125 
Q 16.5 49.359375 19.40625 46.890625 
Q 22.3125 44.4375 30.421875 42.921875 
L 36.375 41.703125 
Q 47.40625 39.59375 52.65625 34.296875 
Q 57.90625 29 57.90625 20.125 
Q 57.90625 9.515625 50.796875 4.046875 
Q 43.703125 -1.421875 29.984375 -1.421875 
Q 24.8125 -1.421875 18.96875 -0.25 
Q 13.140625 0.921875 6.890625 3.21875 
L 6.890625 13.375 
Q 12.890625 10.015625 18.65625 8.296875 
Q 24.421875 6.59375 29.984375 6.59375 
Q 38.421875 6.59375 43.015625 9.90625 
Q 47.609375 13.234375 47.609375 19.390625 
Q 47.609375 24.75 44.3125 27.78125 
Q 41.015625 30.8125 33.5 32.328125 
L 27.484375 33.5 
Q 16.453125 35.6875 11.515625 40.375 
Q 6.59375 45.0625 6.59375 53.421875 
Q 6.59375 63.09375 13.40625 68.65625 
Q 20.21875 74.21875 32.171875 74.21875 
Q 37.3125 74.21875 42.625 73.28125 
Q 47.953125 72.359375 53.515625 70.515625 
z
" id="DejaVuSans-83"/>
     <path d="M 11.71875 12.40625 
L 22.015625 12.40625 
L 22.015625 4 
L 14.015625 -11.625 
L 7.71875 -11.625 
L 11.71875 4 
z
" id="DejaVuSans-44"/>
    </defs>
    <g transform="translate(1237.694063 1197.366484)scale(0.34 -0.34)">
     <use xlink:href="#DejaVuSans-83"/>
     <use x="63.476562" xlink:href="#DejaVuSans-104"/>
     <use x="126.855469" xlink:href="#DejaVuSans-111"/>
     <use x="188.037109" xlink:href="#DejaVuSans-117"/>
     <use x="251.416016" xlink:href="#DejaVuSans-108"/>
     <use x="279.199219" xlink:href="#DejaVuSans-100"/>
     <use x="342.675781" xlink:href="#DejaVuSans-101"/>
     <use x="404.199219" xlink:href="#DejaVuSans-114"/>
     <use x="445.3125" xlink:href="#DejaVuSans-32"/>
     <use x="477.099609" xlink:href="#DejaVuSans-84"/>
     <use x="537.917969" xlink:href="#DejaVuSans-101"/>
     <use x="599.441406" xlink:href="#DejaVuSans-110"/>
     <use x="662.820312" xlink:href="#DejaVuSans-100"/>
     <use x="726.296875" xlink:href="#DejaVuSans-111"/>
     <use x="787.478516" xlink:href="#DejaVuSans-110"/>
     <use x="850.857422" xlink:href="#DejaVuSans-115"/>
     <use x="902.957031" xlink:href="#DejaVuSans-32"/>
     <use x="934.744141" xlink:href="#DejaVuSans-91"/>
     <use x="973.757812" xlink:href="#DejaVuSans-48"/>
     <use x="1037.380859" xlink:href="#DejaVuSans-44"/>
     <use x="1069.167969" xlink:href="#DejaVuSans-32"/>
     <use x="1100.955078" xlink:href="#DejaVuSans-50"/>
     <use x="1164.578125" xlink:href="#DejaVuSans-44"/>
     <use x="1196.365234" xlink:href="#DejaVuSans-32"/>
     <use x="1228.152344" xlink:href="#DejaVuSans-52"/>
     <use x="1291.775391" xlink:href="#DejaVuSans-44"/>
     <use x="1323.5625" xlink:href="#DejaVuSans-32"/>
     <use x="1355.349609" xlink:href="#DejaVuSans-54"/>
     <use x="1418.972656" xlink:href="#DejaVuSans-93"/>
    </g>
   </g>
  </g>
  <g id="axes_3">
   <g id="patch_12">
    <path d="M 94.09774 3181.480385 
L 2876.99976 3181.480385 
L 2876.99976 2250.971643 
L 94.09774 2250.971643 
z
" style="fill:#ffffff;"/>
   </g>
   <g id="matplotlib.axis_5">
    <g id="xtick_13">
     <g id="line2d_41">
      <g>
       <use style="stroke:#000000;stroke-width:0.8;" x="220.593286" xlink:href="#mb9885f28da" y="3181.480385"/>
      </g>
     </g>
     <g id="text_35">
      <!-- 10 -->
      <g transform="translate(207.868286 3203.67726)scale(0.2 -0.2)">
       <use xlink:href="#DejaVuSans-49"/>
       <use x="63.623047" xlink:href="#DejaVuSans-48"/>
      </g>
     </g>
    </g>
    <g id="xtick_14">
     <g id="line2d_42">
      <g>
       <use style="stroke:#000000;stroke-width:0.8;" x="732.715759" xlink:href="#mb9885f28da" y="3181.480385"/>
      </g>
     </g>
     <g id="text_36">
      <!-- 11 -->
      <g transform="translate(719.990759 3203.67726)scale(0.2 -0.2)">
       <use xlink:href="#DejaVuSans-49"/>
       <use x="63.623047" xlink:href="#DejaVuSans-49"/>
      </g>
     </g>
    </g>
    <g id="xtick_15">
     <g id="line2d_43">
      <g>
       <use style="stroke:#000000;stroke-width:0.8;" x="1244.838231" xlink:href="#mb9885f28da" y="3181.480385"/>
      </g>
     </g>
     <g id="text_37">
      <!-- 12 -->
      <g transform="translate(1232.113231 3203.67726)scale(0.2 -0.2)">
       <use xlink:href="#DejaVuSans-49"/>
       <use x="63.623047" xlink:href="#DejaVuSans-50"/>
      </g>
     </g>
    </g>
    <g id="xtick_16">
     <g id="line2d_44">
      <g>
       <use style="stroke:#000000;stroke-width:0.8;" x="1756.960703" xlink:href="#mb9885f28da" y="3181.480385"/>
      </g>
     </g>
     <g id="text_38">
      <!-- 13 -->
      <g transform="translate(1744.235703 3203.67726)scale(0.2 -0.2)">
       <use xlink:href="#DejaVuSans-49"/>
       <use x="63.623047" xlink:href="#DejaVuSans-51"/>
      </g>
     </g>
    </g>
    <g id="xtick_17">
     <g id="line2d_45">
      <g>
       <use style="stroke:#000000;stroke-width:0.8;" x="2269.083175" xlink:href="#mb9885f28da" y="3181.480385"/>
      </g>
     </g>
     <g id="text_39">
      <!-- 14 -->
      <g transform="translate(2256.358175 3203.67726)scale(0.2 -0.2)">
       <use xlink:href="#DejaVuSans-49"/>
       <use x="63.623047" xlink:href="#DejaVuSans-52"/>
      </g>
     </g>
    </g>
    <g id="xtick_18">
     <g id="line2d_46">
      <g>
       <use style="stroke:#000000;stroke-width:0.8;" x="2781.205648" xlink:href="#mb9885f28da" y="3181.480385"/>
      </g>
     </g>
     <g id="text_40">
      <!-- 15 -->
      <g transform="translate(2768.480648 3203.67726)scale(0.2 -0.2)">
       <use xlink:href="#DejaVuSans-49"/>
       <use x="63.623047" xlink:href="#DejaVuSans-53"/>
      </g>
     </g>
    </g>
    <g id="text_41">
     <!-- Time [s] -->
     <g transform="translate(1432.293438 3231.592572)scale(0.26 -0.26)">
      <use xlink:href="#DejaVuSans-84"/>
      <use x="61.037109" xlink:href="#DejaVuSans-105"/>
      <use x="88.820312" xlink:href="#DejaVuSans-109"/>
      <use x="186.232422" xlink:href="#DejaVuSans-101"/>
      <use x="247.755859" xlink:href="#DejaVuSans-32"/>
      <use x="279.542969" xlink:href="#DejaVuSans-91"/>
      <use x="318.556641" xlink:href="#DejaVuSans-115"/>
      <use x="370.65625" xlink:href="#DejaVuSans-93"/>
     </g>
    </g>
   </g>
   <g id="matplotlib.axis_6">
    <g id="ytick_17">
     <g id="line2d_47">
      <g>
       <use style="stroke:#000000;stroke-width:0.8;" x="94.09774" xlink:href="#m980d5f9a32" y="3101.826076"/>
      </g>
     </g>
     <g id="text_42">
      <!-- −2.0 -->
      <defs>
       <path d="M 10.6875 12.40625 
L 21 12.40625 
L 21 0 
L 10.6875 0 
z
" id="DejaVuSans-46"/>
      </defs>
      <g transform="translate(38.532115 3109.424513)scale(0.2 -0.2)">
       <use xlink:href="#DejaVuSans-8722"/>
       <use x="83.789062" xlink:href="#DejaVuSans-50"/>
       <use x="147.412109" xlink:href="#DejaVuSans-46"/>
       <use x="179.199219" xlink:href="#DejaVuSans-48"/>
      </g>
     </g>
    </g>
    <g id="ytick_18">
     <g id="line2d_48">
      <g>
       <use style="stroke:#000000;stroke-width:0.8;" x="94.09774" xlink:href="#m980d5f9a32" y="2899.686431"/>
      </g>
     </g>
     <g id="text_43">
      <!-- −1.5 -->
      <g transform="translate(38.532115 2907.284868)scale(0.2 -0.2)">
       <use xlink:href="#DejaVuSans-8722"/>
       <use x="83.789062" xlink:href="#DejaVuSans-49"/>
       <use x="147.412109" xlink:href="#DejaVuSans-46"/>
       <use x="179.199219" xlink:href="#DejaVuSans-53"/>
      </g>
     </g>
    </g>
    <g id="ytick_19">
     <g id="line2d_49">
      <g>
       <use style="stroke:#000000;stroke-width:0.8;" x="94.09774" xlink:href="#m980d5f9a32" y="2697.546785"/>
      </g>
     </g>
     <g id="text_44">
      <!-- −1.0 -->
      <g transform="translate(38.532115 2705.145223)scale(0.2 -0.2)">
       <use xlink:href="#DejaVuSans-8722"/>
       <use x="83.789062" xlink:href="#DejaVuSans-49"/>
       <use x="147.412109" xlink:href="#DejaVuSans-46"/>
       <use x="179.199219" xlink:href="#DejaVuSans-48"/>
      </g>
     </g>
    </g>
    <g id="ytick_20">
     <g id="line2d_50">
      <g>
       <use style="stroke:#000000;stroke-width:0.8;" x="94.09774" xlink:href="#m980d5f9a32" y="2495.40714"/>
      </g>
     </g>
     <g id="text_45">
      <!-- −0.5 -->
      <g transform="translate(38.532115 2503.005578)scale(0.2 -0.2)">
       <use xlink:href="#DejaVuSans-8722"/>
       <use x="83.789062" xlink:href="#DejaVuSans-48"/>
       <use x="147.412109" xlink:href="#DejaVuSans-46"/>
       <use x="179.199219" xlink:href="#DejaVuSans-53"/>
      </g>
     </g>
    </g>
    <g id="ytick_21">
     <g id="line2d_51">
      <g>
       <use style="stroke:#000000;stroke-width:0.8;" x="94.09774" xlink:href="#m980d5f9a32" y="2293.267495"/>
      </g>
     </g>
     <g id="text_46">
      <!-- 0.0 -->
      <g transform="translate(55.29149 2300.865933)scale(0.2 -0.2)">
       <use xlink:href="#DejaVuSans-48"/>
       <use x="63.623047" xlink:href="#DejaVuSans-46"/>
       <use x="95.410156" xlink:href="#DejaVuSans-48"/>
      </g>
     </g>
    </g>
    <g id="text_47">
     <!-- Force [N] -->
     <g transform="translate(29.124928 2776.139764)rotate(-90)scale(0.26 -0.26)">
      <use xlink:href="#DejaVuSans-70"/>
      <use x="57.472656" xlink:href="#DejaVuSans-111"/>
      <use x="118.654297" xlink:href="#DejaVuSans-114"/>
      <use x="159.736328" xlink:href="#DejaVuSans-99"/>
      <use x="214.716797" xlink:href="#DejaVuSans-101"/>
      <use x="276.240234" xlink:href="#DejaVuSans-32"/>
      <use x="308.027344" xlink:href="#DejaVuSans-91"/>
      <use x="347.041016" xlink:href="#DejaVuSans-78"/>
      <use x="421.845703" xlink:href="#DejaVuSans-93"/>
     </g>
    </g>
   </g>
   <g id="line2d_52">
    <path clip-path="url(#pec187fb441)" d="M 220.593286 2449.289744 
L 237.218844 2449.295728 
L 253.898615 2449.78111 
L 270.558483 2449.782823 
L 287.142893 2450.265642 
L 320.432836 2450.265261 
L 337.085256 2449.302093 
L 353.811058 2448.821335 
L 370.519277 2448.822829 
L 403.677109 2447.863339 
L 420.332337 2446.901388 
L 436.952401 2447.385384 
L 453.633759 2446.423433 
L 470.398998 2446.907468 
L 486.91662 2445.945346 
L 503.56904 2445.947769 
L 520.284097 2445.468395 
L 536.855199 2444.50661 
L 570.110466 2444.511567 
L 586.740542 2443.549407 
L 603.38588 2444.033415 
L 620.025846 2443.55341 
L 636.699632 2442.591369 
L 653.410416 2443.075295 
L 686.658724 2442.114704 
L 703.276834 2442.598562 
L 719.895798 2441.636455 
L 736.58497 2441.638455 
L 753.187329 2440.676 
L 769.892618 2441.159507 
L 803.172427 2440.198647 
L 819.74304 2440.682196 
L 836.462737 2440.201839 
L 853.065096 2440.203358 
L 869.764036 2439.240833 
L 886.414502 2439.724318 
L 919.644984 2438.762727 
L 936.275059 2439.245979 
L 969.573916 2438.284944 
L 986.20387 2438.286459 
L 1002.82027 2437.805866 
L 1019.601994 2437.807426 
L 1036.141349 2436.844571 
L 1052.818799 2437.327964 
L 1069.510779 2436.8471 
L 1136.117895 2436.85227 
L 1152.728068 2435.889372 
L 1169.431404 2436.372979 
L 1185.969294 2435.891921 
L 1219.218945 2435.893817 
L 1235.849143 2435.41309 
L 1269.254104 2435.415206 
L 1285.89004 2434.934493 
L 1302.481777 2434.935282 
L 1335.765249 2433.972842 
L 1352.417181 2434.456215 
L 1369.085473 2434.457479 
L 1385.747539 2433.494513 
L 1402.435368 2433.014036 
L 1419.106957 2433.497365 
L 1435.738742 2433.498671 
L 1452.368696 2432.535633 
L 1502.224246 2432.539333 
L 1535.571211 2431.577444 
L 1552.262947 2432.060615 
L 1568.814512 2431.579603 
L 1618.698268 2431.582676 
L 1635.360212 2431.101717 
L 1668.675308 2431.104506 
L 1685.405993 2430.141288 
L 1701.963542 2430.624166 
L 1718.615962 2430.62537 
L 1735.247991 2430.143941 
L 1751.812499 2429.181234 
L 1768.566139 2429.664571 
L 1785.130281 2429.183849 
L 1801.792469 2731.842213 
L 1818.514364 2576.47014 
L 1835.10085 2402.953565 
L 1851.827018 2293.267495 
L 1885.013299 2293.267495 
L 1901.612972 2784.036033 
L 1918.267101 2737.446563 
L 1934.91305 2659.399952 
L 1951.620292 2621.239908 
L 1968.191027 2583.965528 
L 1984.990333 2293.267495 
L 2051.415154 2293.267495 
L 2068.053777 2578.230022 
L 2084.708028 2780.453648 
L 2101.359593 2683.538942 
L 2118.044369 2633.346549 
L 2134.644409 2601.006019 
L 2151.327841 2462.531704 
L 2168.018356 2293.267495 
L 2234.508867 2293.267495 
L 2251.15506 2793.709313 
L 2267.838493 2713.590306 
L 2284.468202 2646.839333 
L 2301.050415 2612.015171 
L 2317.71187 2558.129798 
L 2334.409345 2293.267495 
L 2401.090696 2293.267495 
L 2417.562165 2720.498014 
L 2434.244011 2751.491216 
L 2450.862121 2664.891395 
L 2467.64189 2622.735265 
L 2484.234237 2591.097077 
L 2500.805949 2374.66389 
L 2517.534804 2293.267495 
L 2567.381441 2293.267495 
L 2584.032884 2445.805163 
L 2600.704718 2782.431431 
L 2617.356283 2689.283271 
L 2634.017982 2634.308092 
L 2650.582613 2602.54025 
L 2667.247487 2515.650553 
L 2683.871457 2293.267495 
L 2750.504214 2293.267495 
L 2750.504214 2293.267495 
" style="fill:none;stroke:#386df9;stroke-linecap:square;stroke-width:3;"/>
   </g>
   <g id="line2d_53">
    <path clip-path="url(#pec187fb441)" d="M 220.593286 2293.267495 
L 2750.504214 2293.267495 
L 2750.504214 2293.267495 
" style="fill:none;stroke:#5af8c8;stroke-linecap:square;stroke-width:3;"/>
   </g>
   <g id="line2d_54">
    <path clip-path="url(#pec187fb441)" d="M 220.593286 2293.267495 
L 1835.10085 2293.267495 
L 1851.827018 2439.38342 
L 1868.365641 2441.927272 
L 1885.013299 2293.267495 
L 1984.990333 2293.267495 
L 2001.51638 2543.220626 
L 2018.118006 2396.843724 
L 2034.842831 2293.267495 
L 2151.327841 2293.267495 
L 2168.018356 2469.345388 
L 2184.573097 2443.839432 
L 2201.264466 2319.848879 
L 2217.849731 2293.267495 
L 2334.409345 2293.267495 
L 2351.041252 2535.150929 
L 2367.788665 2371.716589 
L 2384.329852 2293.267495 
L 2500.805949 2293.267495 
L 2517.534804 2521.598983 
L 2534.249128 2416.362939 
L 2550.722916 2300.860462 
L 2567.381441 2293.267495 
L 2667.247487 2293.267495 
L 2683.871457 2351.578965 
L 2700.539262 2480.416449 
L 2717.191681 2336.822944 
L 2733.85216 2293.267495 
L 2750.504214 2293.267495 
L 2750.504214 2293.267495 
" style="fill:none;stroke:#ecc86f;stroke-linecap:square;stroke-width:3;"/>
   </g>
   <g id="line2d_55">
    <path clip-path="url(#pec187fb441)" d="M 220.593286 2505.309097 
L 237.218844 2505.283413 
L 253.898615 2504.785637 
L 270.558483 2504.77624 
L 287.142893 2504.288596 
L 320.432836 2504.284522 
L 337.085256 2505.246181 
L 353.811058 2506.689502 
L 370.519277 2506.204874 
L 387.024689 2507.165409 
L 403.677109 2507.643713 
L 420.332337 2509.086555 
L 436.952401 2508.60149 
L 453.633759 2510.0444 
L 470.398998 2509.07739 
L 486.91662 2510.520584 
L 520.284097 2511.477039 
L 536.855199 2513.401682 
L 553.441563 2512.916193 
L 570.110466 2513.394324 
L 586.740542 2514.837585 
L 603.38588 2514.352576 
L 620.025846 2514.831643 
L 636.699632 2516.274735 
L 653.410416 2515.307914 
L 686.658724 2517.230798 
L 703.276834 2516.746009 
L 719.895798 2517.707248 
L 736.58497 2518.186218 
L 753.187329 2519.147983 
L 769.892618 2518.181785 
L 786.52538 2519.143072 
L 803.172427 2520.58699 
L 819.74304 2519.620713 
L 853.065096 2520.57998 
L 869.764036 2522.023782 
L 886.414502 2521.539547 
L 903.018449 2521.537826 
L 919.644984 2522.981971 
L 936.275059 2522.016138 
L 952.901594 2522.978062 
L 969.573916 2523.457728 
L 986.20387 2523.45548 
L 1002.82027 2523.935418 
L 1019.601994 2523.933108 
L 1036.141349 2525.859341 
L 1052.818799 2524.893299 
L 1069.510779 2525.855569 
L 1086.037315 2526.33592 
L 1102.716596 2525.851694 
L 1119.386599 2525.849821 
L 1136.117895 2526.329821 
L 1152.728068 2527.774173 
L 1169.431404 2527.289748 
L 1185.969294 2527.770376 
L 1202.688502 2527.287058 
L 1252.565665 2528.728215 
L 1269.254104 2528.726489 
L 1285.89004 2529.206609 
L 1302.481777 2529.205436 
L 1335.765249 2531.131049 
L 1352.417181 2529.683101 
L 1369.085473 2530.163164 
L 1385.747539 2531.607628 
L 1402.435368 2532.087393 
L 1419.106957 2531.6034 
L 1435.738742 2531.601458 
L 1452.368696 2533.04602 
L 1468.878503 2533.526067 
L 1485.605038 2532.560526 
L 1502.224246 2533.040542 
L 1518.842234 2534.002931 
L 1535.571211 2534.483405 
L 1552.262947 2533.99964 
L 1568.814512 2534.962139 
L 1585.499777 2534.478658 
L 1602.150365 2534.477171 
L 1618.698268 2534.957573 
L 1635.360212 2534.956115 
L 1652.003107 2535.435751 
L 1668.675308 2535.43391 
L 1685.405993 2536.878752 
L 1701.963542 2536.395423 
L 1735.247991 2536.392878 
L 1751.812499 2538.3189 
L 1768.566139 2537.834882 
L 1785.130281 2538.796947 
L 1801.792469 2293.267495 
L 1818.514364 2293.267495 
L 1835.10085 2460.899487 
L 1851.827018 3054.224642 
L 1868.365641 3071.616136 
L 1885.013299 2749.498854 
L 1901.612972 2293.267495 
L 1968.191027 2293.267495 
L 1984.990333 2615.419279 
L 2001.51638 3139.184533 
L 2018.118006 3024.02709 
L 2051.415154 2858.065179 
L 2068.053777 2293.267495 
L 2134.644409 2293.267495 
L 2151.327841 2358.390517 
L 2168.018356 3077.381953 
L 2184.573097 3061.10873 
L 2201.264466 2962.028212 
L 2217.849731 2904.061305 
L 2234.508867 2583.392129 
L 2251.15506 2293.267495 
L 2317.71187 2293.267495 
L 2334.409345 2806.071811 
L 2351.041252 3133.312087 
L 2367.788665 3003.529703 
L 2384.329852 2926.307766 
L 2401.090696 2786.765594 
L 2417.562165 2293.267495 
L 2484.234237 2293.267495 
L 2500.805949 2472.213531 
L 2517.534804 3120.444075 
L 2534.249128 3038.915127 
L 2550.722916 2946.179139 
L 2567.381441 2877.728423 
L 2584.032884 2380.814248 
L 2600.704718 2293.267495 
L 2667.247487 2293.267495 
L 2683.871457 2981.428447 
L 2700.539262 3089.546666 
L 2717.191681 2975.00507 
L 2733.85216 2909.938847 
L 2750.504214 2672.915862 
L 2750.504214 2672.915862 
" style="fill:none;stroke:#ff0000;stroke-linecap:square;stroke-width:3;"/>
   </g>
   <g id="patch_13">
    <path d="M 94.09774 3181.480385 
L 94.09774 2250.971643 
" style="fill:none;stroke:#000000;stroke-linecap:square;stroke-linejoin:miter;stroke-width:0.8;"/>
   </g>
   <g id="patch_14">
    <path d="M 2876.99976 3181.480385 
L 2876.99976 2250.971643 
" style="fill:none;stroke:#000000;stroke-linecap:square;stroke-linejoin:miter;stroke-width:0.8;"/>
   </g>
   <g id="patch_15">
    <path d="M 94.09774 3181.480385 
L 2876.99976 3181.480385 
" style="fill:none;stroke:#000000;stroke-linecap:square;stroke-linejoin:miter;stroke-width:0.8;"/>
   </g>
   <g id="patch_16">
    <path d="M 94.09774 2250.971643 
L 2876.99976 2250.971643 
" style="fill:none;stroke:#000000;stroke-linecap:square;stroke-linejoin:miter;stroke-width:0.8;"/>
   </g>
   <g id="text_48">
    <!-- Shoulder Tendons [1, 3, 5, 7] -->
    <defs>
     <path d="M 8.203125 72.90625 
L 55.078125 72.90625 
L 55.078125 68.703125 
L 28.609375 0 
L 18.3125 0 
L 43.21875 64.59375 
L 8.203125 64.59375 
z
" id="DejaVuSans-55"/>
    </defs>
    <g transform="translate(1237.694063 2243.900706)scale(0.34 -0.34)">
     <use xlink:href="#DejaVuSans-83"/>
     <use x="63.476562" xlink:href="#DejaVuSans-104"/>
     <use x="126.855469" xlink:href="#DejaVuSans-111"/>
     <use x="188.037109" xlink:href="#DejaVuSans-117"/>
     <use x="251.416016" xlink:href="#DejaVuSans-108"/>
     <use x="279.199219" xlink:href="#DejaVuSans-100"/>
     <use x="342.675781" xlink:href="#DejaVuSans-101"/>
     <use x="404.199219" xlink:href="#DejaVuSans-114"/>
     <use x="445.3125" xlink:href="#DejaVuSans-32"/>
     <use x="477.099609" xlink:href="#DejaVuSans-84"/>
     <use x="537.917969" xlink:href="#DejaVuSans-101"/>
     <use x="599.441406" xlink:href="#DejaVuSans-110"/>
     <use x="662.820312" xlink:href="#DejaVuSans-100"/>
     <use x="726.296875" xlink:href="#DejaVuSans-111"/>
     <use x="787.478516" xlink:href="#DejaVuSans-110"/>
     <use x="850.857422" xlink:href="#DejaVuSans-115"/>
     <use x="902.957031" xlink:href="#DejaVuSans-32"/>
     <use x="934.744141" xlink:href="#DejaVuSans-91"/>
     <use x="973.757812" xlink:href="#DejaVuSans-49"/>
     <use x="1037.380859" xlink:href="#DejaVuSans-44"/>
     <use x="1069.167969" xlink:href="#DejaVuSans-32"/>
     <use x="1100.955078" xlink:href="#DejaVuSans-51"/>
     <use x="1164.578125" xlink:href="#DejaVuSans-44"/>
     <use x="1196.365234" xlink:href="#DejaVuSans-32"/>
     <use x="1228.152344" xlink:href="#DejaVuSans-53"/>
     <use x="1291.775391" xlink:href="#DejaVuSans-44"/>
     <use x="1323.5625" xlink:href="#DejaVuSans-32"/>
     <use x="1355.349609" xlink:href="#DejaVuSans-55"/>
     <use x="1418.972656" xlink:href="#DejaVuSans-93"/>
    </g>
   </g>
  </g>
  <g id="text_49">
   <!-- Forces - P40000 I0 D0 -->
   <defs>
    <path d="M 4.890625 31.390625 
L 31.203125 31.390625 
L 31.203125 23.390625 
L 4.890625 23.390625 
z
" id="DejaVuSans-45"/>
    <path d="M 19.671875 64.796875 
L 19.671875 37.40625 
L 32.078125 37.40625 
Q 38.96875 37.40625 42.71875 40.96875 
Q 46.484375 44.53125 46.484375 51.125 
Q 46.484375 57.671875 42.71875 61.234375 
Q 38.96875 64.796875 32.078125 64.796875 
z
M 9.8125 72.90625 
L 32.078125 72.90625 
Q 44.34375 72.90625 50.609375 67.359375 
Q 56.890625 61.8125 56.890625 51.125 
Q 56.890625 40.328125 50.609375 34.8125 
Q 44.34375 29.296875 32.078125 29.296875 
L 19.671875 29.296875 
L 19.671875 0 
L 9.8125 0 
z
" id="DejaVuSans-80"/>
    <path d="M 9.8125 72.90625 
L 19.671875 72.90625 
L 19.671875 0 
L 9.8125 0 
z
" id="DejaVuSans-73"/>
    <path d="M 19.671875 64.796875 
L 19.671875 8.109375 
L 31.59375 8.109375 
Q 46.6875 8.109375 53.6875 14.9375 
Q 60.6875 21.78125 60.6875 36.53125 
Q 60.6875 51.171875 53.6875 57.984375 
Q 46.6875 64.796875 31.59375 64.796875 
z
M 9.8125 72.90625 
L 30.078125 72.90625 
Q 51.265625 72.90625 61.171875 64.09375 
Q 71.09375 55.28125 71.09375 36.53125 
Q 71.09375 17.671875 61.125 8.828125 
Q 51.171875 0 30.078125 0 
L 9.8125 0 
z
" id="DejaVuSans-68"/>
   </defs>
   <g transform="translate(1252.367813 28.834928)scale(0.34 -0.34)">
    <use xlink:href="#DejaVuSans-70"/>
    <use x="57.472656" xlink:href="#DejaVuSans-111"/>
    <use x="118.654297" xlink:href="#DejaVuSans-114"/>
    <use x="159.736328" xlink:href="#DejaVuSans-99"/>
    <use x="214.716797" xlink:href="#DejaVuSans-101"/>
    <use x="276.240234" xlink:href="#DejaVuSans-115"/>
    <use x="328.339844" xlink:href="#DejaVuSans-32"/>
    <use x="360.126953" xlink:href="#DejaVuSans-45"/>
    <use x="396.210938" xlink:href="#DejaVuSans-32"/>
    <use x="427.998047" xlink:href="#DejaVuSans-80"/>
    <use x="488.300781" xlink:href="#DejaVuSans-52"/>
    <use x="551.923828" xlink:href="#DejaVuSans-48"/>
    <use x="615.546875" xlink:href="#DejaVuSans-48"/>
    <use x="679.169922" xlink:href="#DejaVuSans-48"/>
    <use x="742.792969" xlink:href="#DejaVuSans-48"/>
    <use x="806.416016" xlink:href="#DejaVuSans-32"/>
    <use x="838.203125" xlink:href="#DejaVuSans-73"/>
    <use x="867.695312" xlink:href="#DejaVuSans-48"/>
    <use x="931.318359" xlink:href="#DejaVuSans-32"/>
    <use x="963.105469" xlink:href="#DejaVuSans-68"/>
    <use x="1040.107422" xlink:href="#DejaVuSans-48"/>
   </g>
   <!-- Bagfile elbow_left_D from 10s for 5s - Logging Rate 30 - Simulation Rate 400 - 99.99% real time speed -->
   <defs>
    <path d="M 19.671875 34.8125 
L 19.671875 8.109375 
L 35.5 8.109375 
Q 43.453125 8.109375 47.28125 11.40625 
Q 51.125 14.703125 51.125 21.484375 
Q 51.125 28.328125 47.28125 31.5625 
Q 43.453125 34.8125 35.5 34.8125 
z
M 19.671875 64.796875 
L 19.671875 42.828125 
L 34.28125 42.828125 
Q 41.5 42.828125 45.03125 45.53125 
Q 48.578125 48.25 48.578125 53.8125 
Q 48.578125 59.328125 45.03125 62.0625 
Q 41.5 64.796875 34.28125 64.796875 
z
M 9.8125 72.90625 
L 35.015625 72.90625 
Q 46.296875 72.90625 52.390625 68.21875 
Q 58.5 63.53125 58.5 54.890625 
Q 58.5 48.1875 55.375 44.234375 
Q 52.25 40.28125 46.1875 39.3125 
Q 53.46875 37.75 57.5 32.78125 
Q 61.53125 27.828125 61.53125 20.40625 
Q 61.53125 10.640625 54.890625 5.3125 
Q 48.25 0 35.984375 0 
L 9.8125 0 
z
" id="DejaVuSans-66"/>
    <path d="M 34.28125 27.484375 
Q 23.390625 27.484375 19.1875 25 
Q 14.984375 22.515625 14.984375 16.5 
Q 14.984375 11.71875 18.140625 8.90625 
Q 21.296875 6.109375 26.703125 6.109375 
Q 34.1875 6.109375 38.703125 11.40625 
Q 43.21875 16.703125 43.21875 25.484375 
L 43.21875 27.484375 
z
M 52.203125 31.203125 
L 52.203125 0 
L 43.21875 0 
L 43.21875 8.296875 
Q 40.140625 3.328125 35.546875 0.953125 
Q 30.953125 -1.421875 24.3125 -1.421875 
Q 15.921875 -1.421875 10.953125 3.296875 
Q 6 8.015625 6 15.921875 
Q 6 25.140625 12.171875 29.828125 
Q 18.359375 34.515625 30.609375 34.515625 
L 43.21875 34.515625 
L 43.21875 35.40625 
Q 43.21875 41.609375 39.140625 45 
Q 35.0625 48.390625 27.6875 48.390625 
Q 23 48.390625 18.546875 47.265625 
Q 14.109375 46.140625 10.015625 43.890625 
L 10.015625 52.203125 
Q 14.9375 54.109375 19.578125 55.046875 
Q 24.21875 56 28.609375 56 
Q 40.484375 56 46.34375 49.84375 
Q 52.203125 43.703125 52.203125 31.203125 
z
" id="DejaVuSans-97"/>
    <path d="M 45.40625 27.984375 
Q 45.40625 37.75 41.375 43.109375 
Q 37.359375 48.484375 30.078125 48.484375 
Q 22.859375 48.484375 18.828125 43.109375 
Q 14.796875 37.75 14.796875 27.984375 
Q 14.796875 18.265625 18.828125 12.890625 
Q 22.859375 7.515625 30.078125 7.515625 
Q 37.359375 7.515625 41.375 12.890625 
Q 45.40625 18.265625 45.40625 27.984375 
z
M 54.390625 6.78125 
Q 54.390625 -7.171875 48.1875 -13.984375 
Q 42 -20.796875 29.203125 -20.796875 
Q 24.46875 -20.796875 20.265625 -20.09375 
Q 16.0625 -19.390625 12.109375 -17.921875 
L 12.109375 -9.1875 
Q 16.0625 -11.328125 19.921875 -12.34375 
Q 23.78125 -13.375 27.78125 -13.375 
Q 36.625 -13.375 41.015625 -8.765625 
Q 45.40625 -4.15625 45.40625 5.171875 
L 45.40625 9.625 
Q 42.625 4.78125 38.28125 2.390625 
Q 33.9375 0 27.875 0 
Q 17.828125 0 11.671875 7.65625 
Q 5.515625 15.328125 5.515625 27.984375 
Q 5.515625 40.671875 11.671875 48.328125 
Q 17.828125 56 27.875 56 
Q 33.9375 56 38.28125 53.609375 
Q 42.625 51.21875 45.40625 46.390625 
L 45.40625 54.6875 
L 54.390625 54.6875 
z
" id="DejaVuSans-103"/>
    <path d="M 37.109375 75.984375 
L 37.109375 68.5 
L 28.515625 68.5 
Q 23.6875 68.5 21.796875 66.546875 
Q 19.921875 64.59375 19.921875 59.515625 
L 19.921875 54.6875 
L 34.71875 54.6875 
L 34.71875 47.703125 
L 19.921875 47.703125 
L 19.921875 0 
L 10.890625 0 
L 10.890625 47.703125 
L 2.296875 47.703125 
L 2.296875 54.6875 
L 10.890625 54.6875 
L 10.890625 58.5 
Q 10.890625 67.625 15.140625 71.796875 
Q 19.390625 75.984375 28.609375 75.984375 
z
" id="DejaVuSans-102"/>
    <path d="M 48.6875 27.296875 
Q 48.6875 37.203125 44.609375 42.84375 
Q 40.53125 48.484375 33.40625 48.484375 
Q 26.265625 48.484375 22.1875 42.84375 
Q 18.109375 37.203125 18.109375 27.296875 
Q 18.109375 17.390625 22.1875 11.75 
Q 26.265625 6.109375 33.40625 6.109375 
Q 40.53125 6.109375 44.609375 11.75 
Q 48.6875 17.390625 48.6875 27.296875 
z
M 18.109375 46.390625 
Q 20.953125 51.265625 25.265625 53.625 
Q 29.59375 56 35.59375 56 
Q 45.5625 56 51.78125 48.09375 
Q 58.015625 40.1875 58.015625 27.296875 
Q 58.015625 14.40625 51.78125 6.484375 
Q 45.5625 -1.421875 35.59375 -1.421875 
Q 29.59375 -1.421875 25.265625 0.953125 
Q 20.953125 3.328125 18.109375 8.203125 
L 18.109375 0 
L 9.078125 0 
L 9.078125 75.984375 
L 18.109375 75.984375 
z
" id="DejaVuSans-98"/>
    <path d="M 4.203125 54.6875 
L 13.1875 54.6875 
L 24.421875 12.015625 
L 35.59375 54.6875 
L 46.1875 54.6875 
L 57.421875 12.015625 
L 68.609375 54.6875 
L 77.59375 54.6875 
L 63.28125 0 
L 52.6875 0 
L 40.921875 44.828125 
L 29.109375 0 
L 18.5 0 
z
" id="DejaVuSans-119"/>
    <path d="M 50.984375 -16.609375 
L 50.984375 -23.578125 
L -0.984375 -23.578125 
L -0.984375 -16.609375 
z
" id="DejaVuSans-95"/>
    <path d="M 18.3125 70.21875 
L 18.3125 54.6875 
L 36.8125 54.6875 
L 36.8125 47.703125 
L 18.3125 47.703125 
L 18.3125 18.015625 
Q 18.3125 11.328125 20.140625 9.421875 
Q 21.96875 7.515625 27.59375 7.515625 
L 36.8125 7.515625 
L 36.8125 0 
L 27.59375 0 
Q 17.1875 0 13.234375 3.875 
Q 9.28125 7.765625 9.28125 18.015625 
L 9.28125 47.703125 
L 2.6875 47.703125 
L 2.6875 54.6875 
L 9.28125 54.6875 
L 9.28125 70.21875 
z
" id="DejaVuSans-116"/>
    <path d="M 9.8125 72.90625 
L 19.671875 72.90625 
L 19.671875 8.296875 
L 55.171875 8.296875 
L 55.171875 0 
L 9.8125 0 
z
" id="DejaVuSans-76"/>
    <path d="M 44.390625 34.1875 
Q 47.5625 33.109375 50.5625 29.59375 
Q 53.5625 26.078125 56.59375 19.921875 
L 66.609375 0 
L 56 0 
L 46.6875 18.703125 
Q 43.0625 26.03125 39.671875 28.421875 
Q 36.28125 30.8125 30.421875 30.8125 
L 19.671875 30.8125 
L 19.671875 0 
L 9.8125 0 
L 9.8125 72.90625 
L 32.078125 72.90625 
Q 44.578125 72.90625 50.734375 67.671875 
Q 56.890625 62.453125 56.890625 51.90625 
Q 56.890625 45.015625 53.6875 40.46875 
Q 50.484375 35.9375 44.390625 34.1875 
z
M 19.671875 64.796875 
L 19.671875 38.921875 
L 32.078125 38.921875 
Q 39.203125 38.921875 42.84375 42.21875 
Q 46.484375 45.515625 46.484375 51.90625 
Q 46.484375 58.296875 42.84375 61.546875 
Q 39.203125 64.796875 32.078125 64.796875 
z
" id="DejaVuSans-82"/>
    <path d="M 10.984375 1.515625 
L 10.984375 10.5 
Q 14.703125 8.734375 18.5 7.8125 
Q 22.3125 6.890625 25.984375 6.890625 
Q 35.75 6.890625 40.890625 13.453125 
Q 46.046875 20.015625 46.78125 33.40625 
Q 43.953125 29.203125 39.59375 26.953125 
Q 35.25 24.703125 29.984375 24.703125 
Q 19.046875 24.703125 12.671875 31.3125 
Q 6.296875 37.9375 6.296875 49.421875 
Q 6.296875 60.640625 12.9375 67.421875 
Q 19.578125 74.21875 30.609375 74.21875 
Q 43.265625 74.21875 49.921875 64.515625 
Q 56.59375 54.828125 56.59375 36.375 
Q 56.59375 19.140625 48.40625 8.859375 
Q 40.234375 -1.421875 26.421875 -1.421875 
Q 22.703125 -1.421875 18.890625 -0.6875 
Q 15.09375 0.046875 10.984375 1.515625 
z
M 30.609375 32.421875 
Q 37.25 32.421875 41.125 36.953125 
Q 45.015625 41.5 45.015625 49.421875 
Q 45.015625 57.28125 41.125 61.84375 
Q 37.25 66.40625 30.609375 66.40625 
Q 23.96875 66.40625 20.09375 61.84375 
Q 16.21875 57.28125 16.21875 49.421875 
Q 16.21875 41.5 20.09375 36.953125 
Q 23.96875 32.421875 30.609375 32.421875 
z
" id="DejaVuSans-57"/>
    <path d="M 72.703125 32.078125 
Q 68.453125 32.078125 66.03125 28.46875 
Q 63.625 24.859375 63.625 18.40625 
Q 63.625 12.0625 66.03125 8.421875 
Q 68.453125 4.78125 72.703125 4.78125 
Q 76.859375 4.78125 79.265625 8.421875 
Q 81.6875 12.0625 81.6875 18.40625 
Q 81.6875 24.8125 79.265625 28.4375 
Q 76.859375 32.078125 72.703125 32.078125 
z
M 72.703125 38.28125 
Q 80.421875 38.28125 84.953125 32.90625 
Q 89.5 27.546875 89.5 18.40625 
Q 89.5 9.28125 84.9375 3.921875 
Q 80.375 -1.421875 72.703125 -1.421875 
Q 64.890625 -1.421875 60.34375 3.921875 
Q 55.8125 9.28125 55.8125 18.40625 
Q 55.8125 27.59375 60.375 32.9375 
Q 64.9375 38.28125 72.703125 38.28125 
z
M 22.3125 68.015625 
Q 18.109375 68.015625 15.6875 64.375 
Q 13.28125 60.75 13.28125 54.390625 
Q 13.28125 47.953125 15.671875 44.328125 
Q 18.0625 40.71875 22.3125 40.71875 
Q 26.5625 40.71875 28.96875 44.328125 
Q 31.390625 47.953125 31.390625 54.390625 
Q 31.390625 60.6875 28.953125 64.34375 
Q 26.515625 68.015625 22.3125 68.015625 
z
M 66.40625 74.21875 
L 74.21875 74.21875 
L 28.609375 -1.421875 
L 20.796875 -1.421875 
z
M 22.3125 74.21875 
Q 30.03125 74.21875 34.609375 68.875 
Q 39.203125 63.53125 39.203125 54.390625 
Q 39.203125 45.171875 34.640625 39.84375 
Q 30.078125 34.515625 22.3125 34.515625 
Q 14.546875 34.515625 10.03125 39.859375 
Q 5.515625 45.21875 5.515625 54.390625 
Q 5.515625 63.484375 10.046875 68.84375 
Q 14.59375 74.21875 22.3125 74.21875 
z
" id="DejaVuSans-37"/>
    <path d="M 18.109375 8.203125 
L 18.109375 -20.796875 
L 9.078125 -20.796875 
L 9.078125 54.6875 
L 18.109375 54.6875 
L 18.109375 46.390625 
Q 20.953125 51.265625 25.265625 53.625 
Q 29.59375 56 35.59375 56 
Q 45.5625 56 51.78125 48.09375 
Q 58.015625 40.1875 58.015625 27.296875 
Q 58.015625 14.40625 51.78125 6.484375 
Q 45.5625 -1.421875 35.59375 -1.421875 
Q 29.59375 -1.421875 25.265625 0.953125 
Q 20.953125 3.328125 18.109375 8.203125 
z
M 48.6875 27.296875 
Q 48.6875 37.203125 44.609375 42.84375 
Q 40.53125 48.484375 33.40625 48.484375 
Q 26.265625 48.484375 22.1875 42.84375 
Q 18.109375 37.203125 18.109375 27.296875 
Q 18.109375 17.390625 22.1875 11.75 
Q 26.265625 6.109375 33.40625 6.109375 
Q 40.53125 6.109375 44.609375 11.75 
Q 48.6875 17.390625 48.6875 27.296875 
z
" id="DejaVuSans-112"/>
   </defs>
   <g transform="translate(565.671406 66.90749)scale(0.34 -0.34)">
    <use xlink:href="#DejaVuSans-66"/>
    <use x="68.603516" xlink:href="#DejaVuSans-97"/>
    <use x="129.882812" xlink:href="#DejaVuSans-103"/>
    <use x="193.359375" xlink:href="#DejaVuSans-102"/>
    <use x="228.564453" xlink:href="#DejaVuSans-105"/>
    <use x="256.347656" xlink:href="#DejaVuSans-108"/>
    <use x="284.130859" xlink:href="#DejaVuSans-101"/>
    <use x="345.654297" xlink:href="#DejaVuSans-32"/>
    <use x="377.441406" xlink:href="#DejaVuSans-101"/>
    <use x="438.964844" xlink:href="#DejaVuSans-108"/>
    <use x="466.748047" xlink:href="#DejaVuSans-98"/>
    <use x="530.224609" xlink:href="#DejaVuSans-111"/>
    <use x="591.40625" xlink:href="#DejaVuSans-119"/>
    <use x="673.193359" xlink:href="#DejaVuSans-95"/>
    <use x="723.193359" xlink:href="#DejaVuSans-108"/>
    <use x="750.976562" xlink:href="#DejaVuSans-101"/>
    <use x="812.5" xlink:href="#DejaVuSans-102"/>
    <use x="847.689453" xlink:href="#DejaVuSans-116"/>
    <use x="886.898438" xlink:href="#DejaVuSans-95"/>
    <use x="936.898438" xlink:href="#DejaVuSans-68"/>
    <use x="1013.900391" xlink:href="#DejaVuSans-32"/>
    <use x="1045.6875" xlink:href="#DejaVuSans-102"/>
    <use x="1080.892578" xlink:href="#DejaVuSans-114"/>
    <use x="1121.974609" xlink:href="#DejaVuSans-111"/>
    <use x="1183.15625" xlink:href="#DejaVuSans-109"/>
    <use x="1280.568359" xlink:href="#DejaVuSans-32"/>
    <use x="1312.355469" xlink:href="#DejaVuSans-49"/>
    <use x="1375.978516" xlink:href="#DejaVuSans-48"/>
    <use x="1439.601562" xlink:href="#DejaVuSans-115"/>
    <use x="1491.701172" xlink:href="#DejaVuSans-32"/>
    <use x="1523.488281" xlink:href="#DejaVuSans-102"/>
    <use x="1558.693359" xlink:href="#DejaVuSans-111"/>
    <use x="1619.875" xlink:href="#DejaVuSans-114"/>
    <use x="1660.988281" xlink:href="#DejaVuSans-32"/>
    <use x="1692.775391" xlink:href="#DejaVuSans-53"/>
    <use x="1756.398438" xlink:href="#DejaVuSans-115"/>
    <use x="1808.498047" xlink:href="#DejaVuSans-32"/>
    <use x="1840.285156" xlink:href="#DejaVuSans-45"/>
    <use x="1876.369141" xlink:href="#DejaVuSans-32"/>
    <use x="1908.15625" xlink:href="#DejaVuSans-76"/>
    <use x="1963.853516" xlink:href="#DejaVuSans-111"/>
    <use x="2025.035156" xlink:href="#DejaVuSans-103"/>
    <use x="2088.511719" xlink:href="#DejaVuSans-103"/>
    <use x="2151.988281" xlink:href="#DejaVuSans-105"/>
    <use x="2179.771484" xlink:href="#DejaVuSans-110"/>
    <use x="2243.150391" xlink:href="#DejaVuSans-103"/>
    <use x="2306.626953" xlink:href="#DejaVuSans-32"/>
    <use x="2338.414062" xlink:href="#DejaVuSans-82"/>
    <use x="2407.865234" xlink:href="#DejaVuSans-97"/>
    <use x="2469.144531" xlink:href="#DejaVuSans-116"/>
    <use x="2508.353516" xlink:href="#DejaVuSans-101"/>
    <use x="2569.876953" xlink:href="#DejaVuSans-32"/>
    <use x="2601.664062" xlink:href="#DejaVuSans-51"/>
    <use x="2665.287109" xlink:href="#DejaVuSans-48"/>
    <use x="2728.910156" xlink:href="#DejaVuSans-32"/>
    <use x="2760.697266" xlink:href="#DejaVuSans-45"/>
    <use x="2796.78125" xlink:href="#DejaVuSans-32"/>
    <use x="2828.568359" xlink:href="#DejaVuSans-83"/>
    <use x="2892.044922" xlink:href="#DejaVuSans-105"/>
    <use x="2919.828125" xlink:href="#DejaVuSans-109"/>
    <use x="3017.240234" xlink:href="#DejaVuSans-117"/>
    <use x="3080.619141" xlink:href="#DejaVuSans-108"/>
    <use x="3108.402344" xlink:href="#DejaVuSans-97"/>
    <use x="3169.681641" xlink:href="#DejaVuSans-116"/>
    <use x="3208.890625" xlink:href="#DejaVuSans-105"/>
    <use x="3236.673828" xlink:href="#DejaVuSans-111"/>
    <use x="3297.855469" xlink:href="#DejaVuSans-110"/>
    <use x="3361.234375" xlink:href="#DejaVuSans-32"/>
    <use x="3393.021484" xlink:href="#DejaVuSans-82"/>
    <use x="3462.472656" xlink:href="#DejaVuSans-97"/>
    <use x="3523.751953" xlink:href="#DejaVuSans-116"/>
    <use x="3562.960938" xlink:href="#DejaVuSans-101"/>
    <use x="3624.484375" xlink:href="#DejaVuSans-32"/>
    <use x="3656.271484" xlink:href="#DejaVuSans-52"/>
    <use x="3719.894531" xlink:href="#DejaVuSans-48"/>
    <use x="3783.517578" xlink:href="#DejaVuSans-48"/>
    <use x="3847.140625" xlink:href="#DejaVuSans-32"/>
    <use x="3878.927734" xlink:href="#DejaVuSans-45"/>
    <use x="3915.011719" xlink:href="#DejaVuSans-32"/>
    <use x="3946.798828" xlink:href="#DejaVuSans-57"/>
    <use x="4010.421875" xlink:href="#DejaVuSans-57"/>
    <use x="4074.044922" xlink:href="#DejaVuSans-46"/>
    <use x="4105.832031" xlink:href="#DejaVuSans-57"/>
    <use x="4169.455078" xlink:href="#DejaVuSans-57"/>
    <use x="4233.078125" xlink:href="#DejaVuSans-37"/>
    <use x="4328.097656" xlink:href="#DejaVuSans-32"/>
    <use x="4359.884766" xlink:href="#DejaVuSans-114"/>
    <use x="4400.966797" xlink:href="#DejaVuSans-101"/>
    <use x="4462.490234" xlink:href="#DejaVuSans-97"/>
    <use x="4523.769531" xlink:href="#DejaVuSans-108"/>
    <use x="4551.552734" xlink:href="#DejaVuSans-32"/>
    <use x="4583.339844" xlink:href="#DejaVuSans-116"/>
    <use x="4622.548828" xlink:href="#DejaVuSans-105"/>
    <use x="4650.332031" xlink:href="#DejaVuSans-109"/>
    <use x="4747.744141" xlink:href="#DejaVuSans-101"/>
    <use x="4809.267578" xlink:href="#DejaVuSans-32"/>
    <use x="4841.054688" xlink:href="#DejaVuSans-115"/>
    <use x="4893.154297" xlink:href="#DejaVuSans-112"/>
    <use x="4956.630859" xlink:href="#DejaVuSans-101"/>
    <use x="5018.154297" xlink:href="#DejaVuSans-101"/>
    <use x="5079.677734" xlink:href="#DejaVuSans-100"/>
   </g>
   <!--  -->
   <g transform="translate(1440 105.925677)scale(0.34 -0.34)"/>
  </g>
 </g>
 <defs>
  <clipPath id="pd2b77aeaa8">
   <rect height="930.508742" width="2782.90202" x="94.09774" y="157.9032"/>
  </clipPath>
  <clipPath id="p5eeb35d8ec">
   <rect height="930.508742" width="2782.90202" x="94.09774" y="1204.437422"/>
  </clipPath>
  <clipPath id="pec187fb441">
   <rect height="930.508742" width="2782.90202" x="94.09774" y="2250.971643"/>
  </clipPath>
 </defs>
</svg>
