<?xml version="1.0" encoding="utf-8" standalone="no"?>
<!DOCTYPE svg PUBLIC "-//W3C//DTD SVG 1.1//EN"
  "http://www.w3.org/Graphics/SVG/1.1/DTD/svg11.dtd">
<!-- Created with matplotlib (https://matplotlib.org/) -->
<svg height="3240pt" version="1.1" viewBox="0 0 2880 3240" width="2880pt" xmlns="http://www.w3.org/2000/svg" xmlns:xlink="http://www.w3.org/1999/xlink">
 <defs>
  <style type="text/css">
*{stroke-linecap:butt;stroke-linejoin:round;}
  </style>
 </defs>
 <g id="figure_1">
  <g id="patch_1">
   <path d="M 0 3240 
L 2880 3240 
L 2880 0 
L 0 0 
z
" style="fill:#ffffff;"/>
  </g>
  <g id="axes_1">
   <g id="patch_2">
    <path d="M 96.419615 1088.411942 
L 2876.99976 1088.411942 
L 2876.99976 157.9032 
L 96.419615 157.9032 
z
" style="fill:#ffffff;"/>
   </g>
   <g id="matplotlib.axis_1">
    <g id="xtick_1">
     <g id="line2d_1">
      <defs>
       <path d="M 0 0 
L 0 3.5 
" id="m353bee5752" style="stroke:#000000;stroke-width:0.8;"/>
      </defs>
      <g>
       <use style="stroke:#000000;stroke-width:0.8;" x="222.809622" xlink:href="#m353bee5752" y="1088.411942"/>
      </g>
     </g>
     <g id="text_1">
      <!-- 10 -->
      <defs>
       <path d="M 12.40625 8.296875 
L 28.515625 8.296875 
L 28.515625 63.921875 
L 10.984375 60.40625 
L 10.984375 69.390625 
L 28.421875 72.90625 
L 38.28125 72.90625 
L 38.28125 8.296875 
L 54.390625 8.296875 
L 54.390625 0 
L 12.40625 0 
z
" id="DejaVuSans-49"/>
       <path d="M 31.78125 66.40625 
Q 24.171875 66.40625 20.328125 58.90625 
Q 16.5 51.421875 16.5 36.375 
Q 16.5 21.390625 20.328125 13.890625 
Q 24.171875 6.390625 31.78125 6.390625 
Q 39.453125 6.390625 43.28125 13.890625 
Q 47.125 21.390625 47.125 36.375 
Q 47.125 51.421875 43.28125 58.90625 
Q 39.453125 66.40625 31.78125 66.40625 
z
M 31.78125 74.21875 
Q 44.046875 74.21875 50.515625 64.515625 
Q 56.984375 54.828125 56.984375 36.375 
Q 56.984375 17.96875 50.515625 8.265625 
Q 44.046875 -1.421875 31.78125 -1.421875 
Q 19.53125 -1.421875 13.0625 8.265625 
Q 6.59375 17.96875 6.59375 36.375 
Q 6.59375 54.828125 13.0625 64.515625 
Q 19.53125 74.21875 31.78125 74.21875 
z
" id="DejaVuSans-48"/>
      </defs>
      <g transform="translate(210.084622 1110.608817)scale(0.2 -0.2)">
       <use xlink:href="#DejaVuSans-49"/>
       <use x="63.623047" xlink:href="#DejaVuSans-48"/>
      </g>
     </g>
    </g>
    <g id="xtick_2">
     <g id="line2d_2">
      <g>
       <use style="stroke:#000000;stroke-width:0.8;" x="734.504812" xlink:href="#m353bee5752" y="1088.411942"/>
      </g>
     </g>
     <g id="text_2">
      <!-- 11 -->
      <g transform="translate(721.779812 1110.608817)scale(0.2 -0.2)">
       <use xlink:href="#DejaVuSans-49"/>
       <use x="63.623047" xlink:href="#DejaVuSans-49"/>
      </g>
     </g>
    </g>
    <g id="xtick_3">
     <g id="line2d_3">
      <g>
       <use style="stroke:#000000;stroke-width:0.8;" x="1246.200002" xlink:href="#m353bee5752" y="1088.411942"/>
      </g>
     </g>
     <g id="text_3">
      <!-- 12 -->
      <defs>
       <path d="M 19.1875 8.296875 
L 53.609375 8.296875 
L 53.609375 0 
L 7.328125 0 
L 7.328125 8.296875 
Q 12.9375 14.109375 22.625 23.890625 
Q 32.328125 33.6875 34.8125 36.53125 
Q 39.546875 41.84375 41.421875 45.53125 
Q 43.3125 49.21875 43.3125 52.78125 
Q 43.3125 58.59375 39.234375 62.25 
Q 35.15625 65.921875 28.609375 65.921875 
Q 23.96875 65.921875 18.8125 64.3125 
Q 13.671875 62.703125 7.8125 59.421875 
L 7.8125 69.390625 
Q 13.765625 71.78125 18.9375 73 
Q 24.125 74.21875 28.421875 74.21875 
Q 39.75 74.21875 46.484375 68.546875 
Q 53.21875 62.890625 53.21875 53.421875 
Q 53.21875 48.921875 51.53125 44.890625 
Q 49.859375 40.875 45.40625 35.40625 
Q 44.1875 33.984375 37.640625 27.21875 
Q 31.109375 20.453125 19.1875 8.296875 
z
" id="DejaVuSans-50"/>
      </defs>
      <g transform="translate(1233.475002 1110.608817)scale(0.2 -0.2)">
       <use xlink:href="#DejaVuSans-49"/>
       <use x="63.623047" xlink:href="#DejaVuSans-50"/>
      </g>
     </g>
    </g>
    <g id="xtick_4">
     <g id="line2d_4">
      <g>
       <use style="stroke:#000000;stroke-width:0.8;" x="1757.895192" xlink:href="#m353bee5752" y="1088.411942"/>
      </g>
     </g>
     <g id="text_4">
      <!-- 13 -->
      <defs>
       <path d="M 40.578125 39.3125 
Q 47.65625 37.796875 51.625 33 
Q 55.609375 28.21875 55.609375 21.1875 
Q 55.609375 10.40625 48.1875 4.484375 
Q 40.765625 -1.421875 27.09375 -1.421875 
Q 22.515625 -1.421875 17.65625 -0.515625 
Q 12.796875 0.390625 7.625 2.203125 
L 7.625 11.71875 
Q 11.71875 9.328125 16.59375 8.109375 
Q 21.484375 6.890625 26.8125 6.890625 
Q 36.078125 6.890625 40.9375 10.546875 
Q 45.796875 14.203125 45.796875 21.1875 
Q 45.796875 27.640625 41.28125 31.265625 
Q 36.765625 34.90625 28.71875 34.90625 
L 20.21875 34.90625 
L 20.21875 43.015625 
L 29.109375 43.015625 
Q 36.375 43.015625 40.234375 45.921875 
Q 44.09375 48.828125 44.09375 54.296875 
Q 44.09375 59.90625 40.109375 62.90625 
Q 36.140625 65.921875 28.71875 65.921875 
Q 24.65625 65.921875 20.015625 65.03125 
Q 15.375 64.15625 9.8125 62.3125 
L 9.8125 71.09375 
Q 15.4375 72.65625 20.34375 73.4375 
Q 25.25 74.21875 29.59375 74.21875 
Q 40.828125 74.21875 47.359375 69.109375 
Q 53.90625 64.015625 53.90625 55.328125 
Q 53.90625 49.265625 50.4375 45.09375 
Q 46.96875 40.921875 40.578125 39.3125 
z
" id="DejaVuSans-51"/>
      </defs>
      <g transform="translate(1745.170192 1110.608817)scale(0.2 -0.2)">
       <use xlink:href="#DejaVuSans-49"/>
       <use x="63.623047" xlink:href="#DejaVuSans-51"/>
      </g>
     </g>
    </g>
    <g id="xtick_5">
     <g id="line2d_5">
      <g>
       <use style="stroke:#000000;stroke-width:0.8;" x="2269.590382" xlink:href="#m353bee5752" y="1088.411942"/>
      </g>
     </g>
     <g id="text_5">
      <!-- 14 -->
      <defs>
       <path d="M 37.796875 64.3125 
L 12.890625 25.390625 
L 37.796875 25.390625 
z
M 35.203125 72.90625 
L 47.609375 72.90625 
L 47.609375 25.390625 
L 58.015625 25.390625 
L 58.015625 17.1875 
L 47.609375 17.1875 
L 47.609375 0 
L 37.796875 0 
L 37.796875 17.1875 
L 4.890625 17.1875 
L 4.890625 26.703125 
z
" id="DejaVuSans-52"/>
      </defs>
      <g transform="translate(2256.865382 1110.608817)scale(0.2 -0.2)">
       <use xlink:href="#DejaVuSans-49"/>
       <use x="63.623047" xlink:href="#DejaVuSans-52"/>
      </g>
     </g>
    </g>
    <g id="xtick_6">
     <g id="line2d_6">
      <g>
       <use style="stroke:#000000;stroke-width:0.8;" x="2781.285572" xlink:href="#m353bee5752" y="1088.411942"/>
      </g>
     </g>
     <g id="text_6">
      <!-- 15 -->
      <defs>
       <path d="M 10.796875 72.90625 
L 49.515625 72.90625 
L 49.515625 64.59375 
L 19.828125 64.59375 
L 19.828125 46.734375 
Q 21.96875 47.46875 24.109375 47.828125 
Q 26.265625 48.1875 28.421875 48.1875 
Q 40.625 48.1875 47.75 41.5 
Q 54.890625 34.8125 54.890625 23.390625 
Q 54.890625 11.625 47.5625 5.09375 
Q 40.234375 -1.421875 26.90625 -1.421875 
Q 22.3125 -1.421875 17.546875 -0.640625 
Q 12.796875 0.140625 7.71875 1.703125 
L 7.71875 11.625 
Q 12.109375 9.234375 16.796875 8.0625 
Q 21.484375 6.890625 26.703125 6.890625 
Q 35.15625 6.890625 40.078125 11.328125 
Q 45.015625 15.765625 45.015625 23.390625 
Q 45.015625 31 40.078125 35.4375 
Q 35.15625 39.890625 26.703125 39.890625 
Q 22.75 39.890625 18.8125 39.015625 
Q 14.890625 38.140625 10.796875 36.28125 
z
" id="DejaVuSans-53"/>
      </defs>
      <g transform="translate(2768.560572 1110.608817)scale(0.2 -0.2)">
       <use xlink:href="#DejaVuSans-49"/>
       <use x="63.623047" xlink:href="#DejaVuSans-53"/>
      </g>
     </g>
    </g>
    <g id="text_7">
     <!-- Time [s] -->
     <defs>
      <path d="M -0.296875 72.90625 
L 61.375 72.90625 
L 61.375 64.59375 
L 35.5 64.59375 
L 35.5 0 
L 25.59375 0 
L 25.59375 64.59375 
L -0.296875 64.59375 
z
" id="DejaVuSans-84"/>
      <path d="M 9.421875 54.6875 
L 18.40625 54.6875 
L 18.40625 0 
L 9.421875 0 
z
M 9.421875 75.984375 
L 18.40625 75.984375 
L 18.40625 64.59375 
L 9.421875 64.59375 
z
" id="DejaVuSans-105"/>
      <path d="M 52 44.1875 
Q 55.375 50.25 60.0625 53.125 
Q 64.75 56 71.09375 56 
Q 79.640625 56 84.28125 50.015625 
Q 88.921875 44.046875 88.921875 33.015625 
L 88.921875 0 
L 79.890625 0 
L 79.890625 32.71875 
Q 79.890625 40.578125 77.09375 44.375 
Q 74.3125 48.1875 68.609375 48.1875 
Q 61.625 48.1875 57.5625 43.546875 
Q 53.515625 38.921875 53.515625 30.90625 
L 53.515625 0 
L 44.484375 0 
L 44.484375 32.71875 
Q 44.484375 40.625 41.703125 44.40625 
Q 38.921875 48.1875 33.109375 48.1875 
Q 26.21875 48.1875 22.15625 43.53125 
Q 18.109375 38.875 18.109375 30.90625 
L 18.109375 0 
L 9.078125 0 
L 9.078125 54.6875 
L 18.109375 54.6875 
L 18.109375 46.1875 
Q 21.1875 51.21875 25.484375 53.609375 
Q 29.78125 56 35.6875 56 
Q 41.65625 56 45.828125 52.96875 
Q 50 49.953125 52 44.1875 
z
" id="DejaVuSans-109"/>
      <path d="M 56.203125 29.59375 
L 56.203125 25.203125 
L 14.890625 25.203125 
Q 15.484375 15.921875 20.484375 11.0625 
Q 25.484375 6.203125 34.421875 6.203125 
Q 39.59375 6.203125 44.453125 7.46875 
Q 49.3125 8.734375 54.109375 11.28125 
L 54.109375 2.78125 
Q 49.265625 0.734375 44.1875 -0.34375 
Q 39.109375 -1.421875 33.890625 -1.421875 
Q 20.796875 -1.421875 13.15625 6.1875 
Q 5.515625 13.8125 5.515625 26.8125 
Q 5.515625 40.234375 12.765625 48.109375 
Q 20.015625 56 32.328125 56 
Q 43.359375 56 49.78125 48.890625 
Q 56.203125 41.796875 56.203125 29.59375 
z
M 47.21875 32.234375 
Q 47.125 39.59375 43.09375 43.984375 
Q 39.0625 48.390625 32.421875 48.390625 
Q 24.90625 48.390625 20.390625 44.140625 
Q 15.875 39.890625 15.1875 32.171875 
z
" id="DejaVuSans-101"/>
      <path id="DejaVuSans-32"/>
      <path d="M 8.59375 75.984375 
L 29.296875 75.984375 
L 29.296875 69 
L 17.578125 69 
L 17.578125 -6.203125 
L 29.296875 -6.203125 
L 29.296875 -13.1875 
L 8.59375 -13.1875 
z
" id="DejaVuSans-91"/>
      <path d="M 44.28125 53.078125 
L 44.28125 44.578125 
Q 40.484375 46.53125 36.375 47.5 
Q 32.28125 48.484375 27.875 48.484375 
Q 21.1875 48.484375 17.84375 46.4375 
Q 14.5 44.390625 14.5 40.28125 
Q 14.5 37.15625 16.890625 35.375 
Q 19.28125 33.59375 26.515625 31.984375 
L 29.59375 31.296875 
Q 39.15625 29.25 43.1875 25.515625 
Q 47.21875 21.78125 47.21875 15.09375 
Q 47.21875 7.46875 41.1875 3.015625 
Q 35.15625 -1.421875 24.609375 -1.421875 
Q 20.21875 -1.421875 15.453125 -0.5625 
Q 10.6875 0.296875 5.421875 2 
L 5.421875 11.28125 
Q 10.40625 8.6875 15.234375 7.390625 
Q 20.0625 6.109375 24.8125 6.109375 
Q 31.15625 6.109375 34.5625 8.28125 
Q 37.984375 10.453125 37.984375 14.40625 
Q 37.984375 18.0625 35.515625 20.015625 
Q 33.0625 21.96875 24.703125 23.78125 
L 21.578125 24.515625 
Q 13.234375 26.265625 9.515625 29.90625 
Q 5.8125 33.546875 5.8125 39.890625 
Q 5.8125 47.609375 11.28125 51.796875 
Q 16.75 56 26.8125 56 
Q 31.78125 56 36.171875 55.265625 
Q 40.578125 54.546875 44.28125 53.078125 
z
" id="DejaVuSans-115"/>
      <path d="M 30.421875 75.984375 
L 30.421875 -13.1875 
L 9.71875 -13.1875 
L 9.71875 -6.203125 
L 21.390625 -6.203125 
L 21.390625 69 
L 9.71875 69 
L 9.71875 75.984375 
z
" id="DejaVuSans-93"/>
     </defs>
     <g transform="translate(1433.454375 1138.524129)scale(0.26 -0.26)">
      <use xlink:href="#DejaVuSans-84"/>
      <use x="61.037109" xlink:href="#DejaVuSans-105"/>
      <use x="88.820312" xlink:href="#DejaVuSans-109"/>
      <use x="186.232422" xlink:href="#DejaVuSans-101"/>
      <use x="247.755859" xlink:href="#DejaVuSans-32"/>
      <use x="279.542969" xlink:href="#DejaVuSans-91"/>
      <use x="318.556641" xlink:href="#DejaVuSans-115"/>
      <use x="370.65625" xlink:href="#DejaVuSans-93"/>
     </g>
    </g>
   </g>
   <g id="matplotlib.axis_2">
    <g id="ytick_1">
     <g id="line2d_7">
      <defs>
       <path d="M 0 0 
L -3.5 0 
" id="m224a314a7d" style="stroke:#000000;stroke-width:0.8;"/>
      </defs>
      <g>
       <use style="stroke:#000000;stroke-width:0.8;" x="96.419615" xlink:href="#m224a314a7d" y="1012.871106"/>
      </g>
     </g>
     <g id="text_8">
      <!-- 0.40 -->
      <defs>
       <path d="M 10.6875 12.40625 
L 21 12.40625 
L 21 0 
L 10.6875 0 
z
" id="DejaVuSans-46"/>
      </defs>
      <g transform="translate(44.888365 1020.469543)scale(0.2 -0.2)">
       <use xlink:href="#DejaVuSans-48"/>
       <use x="63.623047" xlink:href="#DejaVuSans-46"/>
       <use x="95.410156" xlink:href="#DejaVuSans-52"/>
       <use x="159.033203" xlink:href="#DejaVuSans-48"/>
      </g>
     </g>
    </g>
    <g id="ytick_2">
     <g id="line2d_8">
      <g>
       <use style="stroke:#000000;stroke-width:0.8;" x="96.419615" xlink:href="#m224a314a7d" y="900.870253"/>
      </g>
     </g>
     <g id="text_9">
      <!-- 0.41 -->
      <g transform="translate(44.888365 908.46869)scale(0.2 -0.2)">
       <use xlink:href="#DejaVuSans-48"/>
       <use x="63.623047" xlink:href="#DejaVuSans-46"/>
       <use x="95.410156" xlink:href="#DejaVuSans-52"/>
       <use x="159.033203" xlink:href="#DejaVuSans-49"/>
      </g>
     </g>
    </g>
    <g id="ytick_3">
     <g id="line2d_9">
      <g>
       <use style="stroke:#000000;stroke-width:0.8;" x="96.419615" xlink:href="#m224a314a7d" y="788.869399"/>
      </g>
     </g>
     <g id="text_10">
      <!-- 0.42 -->
      <g transform="translate(44.888365 796.467837)scale(0.2 -0.2)">
       <use xlink:href="#DejaVuSans-48"/>
       <use x="63.623047" xlink:href="#DejaVuSans-46"/>
       <use x="95.410156" xlink:href="#DejaVuSans-52"/>
       <use x="159.033203" xlink:href="#DejaVuSans-50"/>
      </g>
     </g>
    </g>
    <g id="ytick_4">
     <g id="line2d_10">
      <g>
       <use style="stroke:#000000;stroke-width:0.8;" x="96.419615" xlink:href="#m224a314a7d" y="676.868546"/>
      </g>
     </g>
     <g id="text_11">
      <!-- 0.43 -->
      <g transform="translate(44.888365 684.466984)scale(0.2 -0.2)">
       <use xlink:href="#DejaVuSans-48"/>
       <use x="63.623047" xlink:href="#DejaVuSans-46"/>
       <use x="95.410156" xlink:href="#DejaVuSans-52"/>
       <use x="159.033203" xlink:href="#DejaVuSans-51"/>
      </g>
     </g>
    </g>
    <g id="ytick_5">
     <g id="line2d_11">
      <g>
       <use style="stroke:#000000;stroke-width:0.8;" x="96.419615" xlink:href="#m224a314a7d" y="564.867693"/>
      </g>
     </g>
     <g id="text_12">
      <!-- 0.44 -->
      <g transform="translate(44.888365 572.46613)scale(0.2 -0.2)">
       <use xlink:href="#DejaVuSans-48"/>
       <use x="63.623047" xlink:href="#DejaVuSans-46"/>
       <use x="95.410156" xlink:href="#DejaVuSans-52"/>
       <use x="159.033203" xlink:href="#DejaVuSans-52"/>
      </g>
     </g>
    </g>
    <g id="ytick_6">
     <g id="line2d_12">
      <g>
       <use style="stroke:#000000;stroke-width:0.8;" x="96.419615" xlink:href="#m224a314a7d" y="452.86684"/>
      </g>
     </g>
     <g id="text_13">
      <!-- 0.45 -->
      <g transform="translate(44.888365 460.465277)scale(0.2 -0.2)">
       <use xlink:href="#DejaVuSans-48"/>
       <use x="63.623047" xlink:href="#DejaVuSans-46"/>
       <use x="95.410156" xlink:href="#DejaVuSans-52"/>
       <use x="159.033203" xlink:href="#DejaVuSans-53"/>
      </g>
     </g>
    </g>
    <g id="ytick_7">
     <g id="line2d_13">
      <g>
       <use style="stroke:#000000;stroke-width:0.8;" x="96.419615" xlink:href="#m224a314a7d" y="340.865987"/>
      </g>
     </g>
     <g id="text_14">
      <!-- 0.46 -->
      <defs>
       <path d="M 33.015625 40.375 
Q 26.375 40.375 22.484375 35.828125 
Q 18.609375 31.296875 18.609375 23.390625 
Q 18.609375 15.53125 22.484375 10.953125 
Q 26.375 6.390625 33.015625 6.390625 
Q 39.65625 6.390625 43.53125 10.953125 
Q 47.40625 15.53125 47.40625 23.390625 
Q 47.40625 31.296875 43.53125 35.828125 
Q 39.65625 40.375 33.015625 40.375 
z
M 52.59375 71.296875 
L 52.59375 62.3125 
Q 48.875 64.0625 45.09375 64.984375 
Q 41.3125 65.921875 37.59375 65.921875 
Q 27.828125 65.921875 22.671875 59.328125 
Q 17.53125 52.734375 16.796875 39.40625 
Q 19.671875 43.65625 24.015625 45.921875 
Q 28.375 48.1875 33.59375 48.1875 
Q 44.578125 48.1875 50.953125 41.515625 
Q 57.328125 34.859375 57.328125 23.390625 
Q 57.328125 12.15625 50.6875 5.359375 
Q 44.046875 -1.421875 33.015625 -1.421875 
Q 20.359375 -1.421875 13.671875 8.265625 
Q 6.984375 17.96875 6.984375 36.375 
Q 6.984375 53.65625 15.1875 63.9375 
Q 23.390625 74.21875 37.203125 74.21875 
Q 40.921875 74.21875 44.703125 73.484375 
Q 48.484375 72.75 52.59375 71.296875 
z
" id="DejaVuSans-54"/>
      </defs>
      <g transform="translate(44.888365 348.464424)scale(0.2 -0.2)">
       <use xlink:href="#DejaVuSans-48"/>
       <use x="63.623047" xlink:href="#DejaVuSans-46"/>
       <use x="95.410156" xlink:href="#DejaVuSans-52"/>
       <use x="159.033203" xlink:href="#DejaVuSans-54"/>
      </g>
     </g>
    </g>
    <g id="ytick_8">
     <g id="line2d_14">
      <g>
       <use style="stroke:#000000;stroke-width:0.8;" x="96.419615" xlink:href="#m224a314a7d" y="228.865133"/>
      </g>
     </g>
     <g id="text_15">
      <!-- 0.47 -->
      <defs>
       <path d="M 8.203125 72.90625 
L 55.078125 72.90625 
L 55.078125 68.703125 
L 28.609375 0 
L 18.3125 0 
L 43.21875 64.59375 
L 8.203125 64.59375 
z
" id="DejaVuSans-55"/>
      </defs>
      <g transform="translate(44.888365 236.463571)scale(0.2 -0.2)">
       <use xlink:href="#DejaVuSans-48"/>
       <use x="63.623047" xlink:href="#DejaVuSans-46"/>
       <use x="95.410156" xlink:href="#DejaVuSans-52"/>
       <use x="159.033203" xlink:href="#DejaVuSans-55"/>
      </g>
     </g>
    </g>
    <g id="text_16">
     <!-- Length [m] -->
     <defs>
      <path d="M 9.8125 72.90625 
L 19.671875 72.90625 
L 19.671875 8.296875 
L 55.171875 8.296875 
L 55.171875 0 
L 9.8125 0 
z
" id="DejaVuSans-76"/>
      <path d="M 54.890625 33.015625 
L 54.890625 0 
L 45.90625 0 
L 45.90625 32.71875 
Q 45.90625 40.484375 42.875 44.328125 
Q 39.84375 48.1875 33.796875 48.1875 
Q 26.515625 48.1875 22.3125 43.546875 
Q 18.109375 38.921875 18.109375 30.90625 
L 18.109375 0 
L 9.078125 0 
L 9.078125 54.6875 
L 18.109375 54.6875 
L 18.109375 46.1875 
Q 21.34375 51.125 25.703125 53.5625 
Q 30.078125 56 35.796875 56 
Q 45.21875 56 50.046875 50.171875 
Q 54.890625 44.34375 54.890625 33.015625 
z
" id="DejaVuSans-110"/>
      <path d="M 45.40625 27.984375 
Q 45.40625 37.75 41.375 43.109375 
Q 37.359375 48.484375 30.078125 48.484375 
Q 22.859375 48.484375 18.828125 43.109375 
Q 14.796875 37.75 14.796875 27.984375 
Q 14.796875 18.265625 18.828125 12.890625 
Q 22.859375 7.515625 30.078125 7.515625 
Q 37.359375 7.515625 41.375 12.890625 
Q 45.40625 18.265625 45.40625 27.984375 
z
M 54.390625 6.78125 
Q 54.390625 -7.171875 48.1875 -13.984375 
Q 42 -20.796875 29.203125 -20.796875 
Q 24.46875 -20.796875 20.265625 -20.09375 
Q 16.0625 -19.390625 12.109375 -17.921875 
L 12.109375 -9.1875 
Q 16.0625 -11.328125 19.921875 -12.34375 
Q 23.78125 -13.375 27.78125 -13.375 
Q 36.625 -13.375 41.015625 -8.765625 
Q 45.40625 -4.15625 45.40625 5.171875 
L 45.40625 9.625 
Q 42.625 4.78125 38.28125 2.390625 
Q 33.9375 0 27.875 0 
Q 17.828125 0 11.671875 7.65625 
Q 5.515625 15.328125 5.515625 27.984375 
Q 5.515625 40.671875 11.671875 48.328125 
Q 17.828125 56 27.875 56 
Q 33.9375 56 38.28125 53.609375 
Q 42.625 51.21875 45.40625 46.390625 
L 45.40625 54.6875 
L 54.390625 54.6875 
z
" id="DejaVuSans-103"/>
      <path d="M 18.3125 70.21875 
L 18.3125 54.6875 
L 36.8125 54.6875 
L 36.8125 47.703125 
L 18.3125 47.703125 
L 18.3125 18.015625 
Q 18.3125 11.328125 20.140625 9.421875 
Q 21.96875 7.515625 27.59375 7.515625 
L 36.8125 7.515625 
L 36.8125 0 
L 27.59375 0 
Q 17.1875 0 13.234375 3.875 
Q 9.28125 7.765625 9.28125 18.015625 
L 9.28125 47.703125 
L 2.6875 47.703125 
L 2.6875 54.6875 
L 9.28125 54.6875 
L 9.28125 70.21875 
z
" id="DejaVuSans-116"/>
      <path d="M 54.890625 33.015625 
L 54.890625 0 
L 45.90625 0 
L 45.90625 32.71875 
Q 45.90625 40.484375 42.875 44.328125 
Q 39.84375 48.1875 33.796875 48.1875 
Q 26.515625 48.1875 22.3125 43.546875 
Q 18.109375 38.921875 18.109375 30.90625 
L 18.109375 0 
L 9.078125 0 
L 9.078125 75.984375 
L 18.109375 75.984375 
L 18.109375 46.1875 
Q 21.34375 51.125 25.703125 53.5625 
Q 30.078125 56 35.796875 56 
Q 45.21875 56 50.046875 50.171875 
Q 54.890625 44.34375 54.890625 33.015625 
z
" id="DejaVuSans-104"/>
     </defs>
     <g transform="translate(35.481177 695.163352)rotate(-90)scale(0.26 -0.26)">
      <use xlink:href="#DejaVuSans-76"/>
      <use x="55.697266" xlink:href="#DejaVuSans-101"/>
      <use x="117.220703" xlink:href="#DejaVuSans-110"/>
      <use x="180.599609" xlink:href="#DejaVuSans-103"/>
      <use x="244.076172" xlink:href="#DejaVuSans-116"/>
      <use x="283.285156" xlink:href="#DejaVuSans-104"/>
      <use x="346.664062" xlink:href="#DejaVuSans-32"/>
      <use x="378.451172" xlink:href="#DejaVuSans-91"/>
      <use x="417.464844" xlink:href="#DejaVuSans-109"/>
      <use x="514.876953" xlink:href="#DejaVuSans-93"/>
     </g>
    </g>
   </g>
   <g id="line2d_15">
    <path clip-path="url(#p3db8db899f)" d="M 222.809622 671.830595 
L 1786.041267 671.859301 
L 1802.689553 671.678054 
L 1819.397496 671.698415 
L 1852.682356 671.544872 
L 2384.740904 671.545874 
L 2750.609753 671.54554 
L 2750.609753 671.54554 
" style="fill:none;stroke:#8000ff;stroke-dasharray:9.6,2.4,1.5,2.4;stroke-dashoffset:0;stroke-width:1.5;"/>
   </g>
   <g id="line2d_16">
    <path clip-path="url(#p3db8db899f)" d="M 222.809622 502.314716 
L 1835.970143 502.361511 
L 1852.682356 502.538487 
L 1885.840949 502.439714 
L 1902.426772 502.236017 
L 1985.734568 502.437421 
L 2002.246827 502.557778 
L 2052.103969 502.479234 
L 2068.728709 502.290165 
L 2102.006737 502.275965 
L 2151.933296 502.36089 
L 2168.609885 502.547386 
L 2235.04492 502.394959 
L 2251.677224 502.236608 
L 2334.862047 502.492216 
L 2368.213518 502.520728 
L 2401.487764 502.456759 
L 2417.94549 502.253072 
L 2484.561935 502.307553 
L 2534.535097 502.529773 
L 2567.639767 502.485946 
L 2600.93524 502.2424 
L 2667.422491 502.339332 
L 2684.032591 502.52897 
L 2733.971593 502.496636 
L 2750.609753 502.422311 
L 2750.609753 502.422311 
" style="fill:none;stroke:#8000ff;stroke-linecap:square;stroke-width:3;"/>
   </g>
   <g id="line2d_17">
    <path clip-path="url(#p3db8db899f)" d="M 222.809622 832.012051 
L 1786.041267 831.998365 
L 1802.689553 832.207651 
L 1819.397496 832.066792 
L 1935.699067 832.094163 
L 2750.609753 832.094163 
L 2750.609753 832.094163 
" style="fill:none;stroke:#386df9;stroke-dasharray:9.6,2.4,1.5,2.4;stroke-dashoffset:0;stroke-width:1.5;"/>
   </g>
   <g id="line2d_18">
    <path clip-path="url(#p3db8db899f)" d="M 222.809622 831.90399 
L 1835.970143 831.997967 
L 1852.682356 832.354455 
L 1869.207181 832.334625 
L 1885.840949 832.155326 
L 1902.426772 831.745625 
L 1968.949279 831.897544 
L 2002.246827 832.392709 
L 2052.103969 832.234494 
L 2068.728709 831.853949 
L 2085.369065 831.76197 
L 2151.933296 831.99735 
L 2168.609885 832.372362 
L 2218.399684 832.265545 
L 2235.04492 832.06503 
L 2251.677224 831.747073 
L 2318.178504 831.919471 
L 2334.862047 832.261727 
L 2351.480078 832.386812 
L 2401.487764 832.18941 
L 2417.94549 831.779533 
L 2484.561935 831.890487 
L 2501.119821 832.065203 
L 2517.834718 832.387654 
L 2567.639767 832.248031 
L 2584.277317 831.945908 
L 2600.93524 831.759042 
L 2667.422491 831.953964 
L 2684.032591 832.335607 
L 2717.325015 832.303084 
L 2733.971593 832.269399 
L 2750.609753 832.120149 
L 2750.609753 832.120149 
" style="fill:none;stroke:#386df9;stroke-linecap:square;stroke-width:3;"/>
   </g>
   <g id="line2d_19">
    <path clip-path="url(#p3db8db899f)" d="M 222.809622 464.690098 
L 1786.041267 464.677747 
L 1802.689553 464.881692 
L 1819.397496 464.764532 
L 1968.949279 464.819608 
L 2750.609753 464.819608 
L 2750.609753 464.819608 
" style="fill:none;stroke:#12c8e6;stroke-dasharray:9.6,2.4,1.5,2.4;stroke-dashoffset:0;stroke-width:1.5;"/>
   </g>
   <g id="line2d_20">
    <path clip-path="url(#p3db8db899f)" d="M 222.809622 464.885667 
L 1835.970143 464.939984 
L 1852.682356 465.145457 
L 1885.840949 465.030727 
L 1902.426772 464.79431 
L 1985.734568 465.028113 
L 2002.246827 465.167863 
L 2052.103969 465.076609 
L 2068.728709 464.857135 
L 2102.006737 464.840686 
L 2151.933296 464.939269 
L 2168.609885 465.1558 
L 2218.399684 465.094636 
L 2268.346738 464.829494 
L 2318.178504 464.894243 
L 2334.862047 465.091734 
L 2351.480078 465.164536 
L 2401.487764 465.050511 
L 2417.94549 464.814095 
L 2484.561935 464.87736 
L 2534.535097 465.135324 
L 2567.639767 465.084404 
L 2600.93524 464.801719 
L 2667.422491 464.914246 
L 2684.032591 465.134414 
L 2733.971593 465.096821 
L 2750.609753 465.010517 
L 2750.609753 465.010517 
" style="fill:none;stroke:#12c8e6;stroke-linecap:square;stroke-width:3;"/>
   </g>
   <g id="line2d_21">
    <path clip-path="url(#p3db8db899f)" d="M 222.809622 200.21474 
L 1786.041267 200.199386 
L 1802.689553 200.488113 
L 1819.397496 200.317547 
L 1952.39237 200.39098 
L 2750.609753 200.39098 
L 2750.609753 200.39098 
" style="fill:none;stroke:#5af8c8;stroke-dasharray:9.6,2.4,1.5,2.4;stroke-dashoffset:0;stroke-width:1.5;"/>
   </g>
   <g id="line2d_22">
    <path clip-path="url(#p3db8db899f)" d="M 222.809622 200.56351 
L 1835.970143 200.642554 
L 1852.682356 200.941383 
L 1869.207181 200.924999 
L 1885.840949 200.774504 
L 1902.426772 200.430459 
L 1968.949279 200.557423 
L 2002.246827 200.973925 
L 2052.103969 200.841202 
L 2068.728709 200.521892 
L 2085.369065 200.443498 
L 2151.933296 200.641551 
L 2168.609885 200.956426 
L 2218.399684 200.867411 
L 2251.677224 200.431467 
L 2318.178504 200.57603 
L 2334.862047 200.863318 
L 2351.480078 200.969077 
L 2401.487764 200.803257 
L 2417.94549 200.459243 
L 2484.561935 200.551468 
L 2501.119821 200.698554 
L 2517.834718 200.969426 
L 2567.639767 200.85254 
L 2600.93524 200.441278 
L 2667.422491 200.605136 
L 2684.032591 200.925359 
L 2717.325015 200.899068 
L 2750.609753 200.745093 
L 2750.609753 200.745093 
" style="fill:none;stroke:#5af8c8;stroke-linecap:square;stroke-width:3;"/>
   </g>
   <g id="line2d_23">
    <path clip-path="url(#p3db8db899f)" d="M 222.809622 785.348411 
L 1786.041267 785.370107 
L 1802.689553 785.158819 
L 1819.397496 785.281653 
L 2168.609885 785.232252 
L 2750.609753 785.232252 
L 2750.609753 785.232252 
" style="fill:none;stroke:#a4f89f;stroke-dasharray:9.6,2.4,1.5,2.4;stroke-dashoffset:0;stroke-width:1.5;"/>
   </g>
   <g id="line2d_24">
    <path clip-path="url(#p3db8db899f)" d="M 222.809622 785.633963 
L 1835.970143 785.554821 
L 1852.682356 785.255206 
L 1869.207181 785.271679 
L 1885.840949 785.422256 
L 1902.426772 785.767262 
L 1968.949279 785.639599 
L 2002.246827 785.222986 
L 2052.103969 785.355621 
L 2068.728709 785.675801 
L 2085.369065 785.753681 
L 2151.933296 785.555492 
L 2168.609885 785.240207 
L 2218.399684 785.329513 
L 2251.677224 785.76609 
L 2318.178504 785.621086 
L 2334.862047 785.333208 
L 2351.480078 785.227887 
L 2401.487764 785.393531 
L 2417.94549 785.738571 
L 2484.561935 785.645545 
L 2501.119821 785.498389 
L 2517.834718 785.227311 
L 2567.639767 785.344259 
L 2600.93524 785.75608 
L 2667.422491 785.592012 
L 2684.032591 785.271136 
L 2717.325015 785.298013 
L 2750.609753 785.451773 
L 2750.609753 785.451773 
" style="fill:none;stroke:#a4f89f;stroke-linecap:square;stroke-width:3;"/>
   </g>
   <g id="line2d_25">
    <path clip-path="url(#p3db8db899f)" d="M 222.809622 914.214825 
L 1802.689553 914.240193 
L 1869.207181 914.479519 
L 2168.609885 914.467503 
L 2750.609753 914.467503 
L 2750.609753 914.467503 
" style="fill:none;stroke:#ecc86f;stroke-dasharray:9.6,2.4,1.5,2.4;stroke-dashoffset:0;stroke-width:1.5;"/>
   </g>
   <g id="line2d_26">
    <path clip-path="url(#p3db8db899f)" d="M 222.809622 915.08021 
L 1819.397496 915.069562 
L 1835.970143 914.929906 
L 1852.682356 914.357979 
L 1869.207181 914.390748 
L 1885.840949 914.677827 
L 1902.426772 915.334582 
L 1968.949279 915.088349 
L 2002.246827 914.298182 
L 2052.103969 914.551937 
L 2068.728709 915.162244 
L 2085.369065 915.306109 
L 2118.677593 915.145812 
L 2135.263782 915.111301 
L 2151.933296 914.929302 
L 2168.609885 914.329303 
L 2218.399684 914.502665 
L 2235.04492 914.823142 
L 2251.677224 915.331608 
L 2301.53095 915.123092 
L 2318.178504 915.053782 
L 2334.862047 914.505397 
L 2351.480078 914.307977 
L 2401.487764 914.623787 
L 2417.94549 915.28116 
L 2451.217663 915.179348 
L 2484.561935 915.099588 
L 2501.119821 914.820668 
L 2517.834718 914.305425 
L 2567.639767 914.530181 
L 2584.277317 915.014402 
L 2600.93524 915.311585 
L 2634.220711 915.14717 
L 2667.422491 914.998903 
L 2684.032591 914.38735 
L 2700.686489 914.346401 
L 2750.609753 914.734604 
L 2750.609753 914.734604 
" style="fill:none;stroke:#ecc86f;stroke-linecap:square;stroke-width:3;"/>
   </g>
   <g id="line2d_27">
    <path clip-path="url(#p3db8db899f)" d="M 222.809622 828.512945 
L 1819.397496 828.583374 
L 1852.682356 828.679172 
L 2750.609753 828.672162 
L 2750.609753 828.672162 
" style="fill:none;stroke:#ff6d38;stroke-dasharray:9.6,2.4,1.5,2.4;stroke-dashoffset:0;stroke-width:1.5;"/>
   </g>
   <g id="line2d_28">
    <path clip-path="url(#p3db8db899f)" d="M 222.809622 704.222645 
L 1835.970143 704.167218 
L 1852.682356 703.9568 
L 1885.840949 704.074373 
L 1902.426772 704.316374 
L 1985.734568 704.076269 
L 2002.246827 703.934627 
L 2052.103969 704.02792 
L 2068.728709 704.252653 
L 2102.006737 704.266849 
L 2151.933296 704.167196 
L 2168.609885 703.946255 
L 2218.399684 704.009732 
L 2268.346738 704.278602 
L 2318.178504 704.213107 
L 2334.862047 704.011166 
L 2351.480078 703.938184 
L 2401.487764 704.054409 
L 2417.94549 704.296551 
L 2484.561935 704.230072 
L 2534.535097 703.96836 
L 2567.639767 704.019924 
L 2600.93524 704.308079 
L 2667.422491 704.192832 
L 2684.032591 703.967705 
L 2733.971593 704.007418 
L 2750.609753 704.095223 
L 2750.609753 704.095223 
" style="fill:none;stroke:#ff6d38;stroke-linecap:square;stroke-width:3;"/>
   </g>
   <g id="line2d_29">
    <path clip-path="url(#p3db8db899f)" d="M 222.809622 1046.057632 
L 1786.041267 1046.08033 
L 1802.689553 1045.717835 
L 1819.397496 1045.939805 
L 2085.369065 1045.861698 
L 2750.609753 1045.861698 
L 2750.609753 1045.861698 
" style="fill:none;stroke:#ff0000;stroke-dasharray:9.6,2.4,1.5,2.4;stroke-dashoffset:0;stroke-width:1.5;"/>
   </g>
   <g id="line2d_30">
    <path clip-path="url(#p3db8db899f)" d="M 222.809622 1045.910775 
L 1819.397496 1045.90185 
L 1835.970143 1045.788955 
L 1852.682356 1045.328343 
L 1869.207181 1045.353724 
L 1885.840949 1045.585419 
L 1902.426772 1046.11609 
L 1968.949279 1045.919665 
L 2002.246827 1045.27861 
L 2052.103969 1045.482873 
L 2068.728709 1045.97526 
L 2085.369065 1046.095437 
L 2151.933296 1045.790142 
L 2168.609885 1045.305218 
L 2218.399684 1045.442635 
L 2235.04492 1045.702067 
L 2251.677224 1046.114375 
L 2318.178504 1045.891104 
L 2334.862047 1045.448321 
L 2351.480078 1045.286138 
L 2401.487764 1045.541229 
L 2417.94549 1046.071864 
L 2467.983432 1045.958784 
L 2484.561935 1045.928831 
L 2501.119821 1045.702287 
L 2517.834718 1045.285341 
L 2567.639767 1045.465398 
L 2584.277317 1045.856199 
L 2600.93524 1046.099044 
L 2667.422491 1045.846313 
L 2684.032591 1045.352855 
L 2700.686489 1045.316931 
L 2750.609753 1045.630815 
L 2750.609753 1045.630815 
" style="fill:none;stroke:#ff0000;stroke-linecap:square;stroke-width:3;"/>
   </g>
   <g id="patch_3">
    <path d="M 96.419615 1088.411942 
L 96.419615 157.9032 
" style="fill:none;stroke:#000000;stroke-linecap:square;stroke-linejoin:miter;stroke-width:0.8;"/>
   </g>
   <g id="patch_4">
    <path d="M 2876.99976 1088.411942 
L 2876.99976 157.9032 
" style="fill:none;stroke:#000000;stroke-linecap:square;stroke-linejoin:miter;stroke-width:0.8;"/>
   </g>
   <g id="patch_5">
    <path d="M 96.419615 1088.411942 
L 2876.99976 1088.411942 
" style="fill:none;stroke:#000000;stroke-linecap:square;stroke-linejoin:miter;stroke-width:0.8;"/>
   </g>
   <g id="patch_6">
    <path d="M 96.419615 157.9032 
L 2876.99976 157.9032 
" style="fill:none;stroke:#000000;stroke-linecap:square;stroke-linejoin:miter;stroke-width:0.8;"/>
   </g>
   <g id="text_17">
    <!-- All shoulder Tendons -->
    <defs>
     <path d="M 34.1875 63.1875 
L 20.796875 26.90625 
L 47.609375 26.90625 
z
M 28.609375 72.90625 
L 39.796875 72.90625 
L 67.578125 0 
L 57.328125 0 
L 50.6875 18.703125 
L 17.828125 18.703125 
L 11.1875 0 
L 0.78125 0 
z
" id="DejaVuSans-65"/>
     <path d="M 9.421875 75.984375 
L 18.40625 75.984375 
L 18.40625 0 
L 9.421875 0 
z
" id="DejaVuSans-108"/>
     <path d="M 30.609375 48.390625 
Q 23.390625 48.390625 19.1875 42.75 
Q 14.984375 37.109375 14.984375 27.296875 
Q 14.984375 17.484375 19.15625 11.84375 
Q 23.34375 6.203125 30.609375 6.203125 
Q 37.796875 6.203125 41.984375 11.859375 
Q 46.1875 17.53125 46.1875 27.296875 
Q 46.1875 37.015625 41.984375 42.703125 
Q 37.796875 48.390625 30.609375 48.390625 
z
M 30.609375 56 
Q 42.328125 56 49.015625 48.375 
Q 55.71875 40.765625 55.71875 27.296875 
Q 55.71875 13.875 49.015625 6.21875 
Q 42.328125 -1.421875 30.609375 -1.421875 
Q 18.84375 -1.421875 12.171875 6.21875 
Q 5.515625 13.875 5.515625 27.296875 
Q 5.515625 40.765625 12.171875 48.375 
Q 18.84375 56 30.609375 56 
z
" id="DejaVuSans-111"/>
     <path d="M 8.5 21.578125 
L 8.5 54.6875 
L 17.484375 54.6875 
L 17.484375 21.921875 
Q 17.484375 14.15625 20.5 10.265625 
Q 23.53125 6.390625 29.59375 6.390625 
Q 36.859375 6.390625 41.078125 11.03125 
Q 45.3125 15.671875 45.3125 23.6875 
L 45.3125 54.6875 
L 54.296875 54.6875 
L 54.296875 0 
L 45.3125 0 
L 45.3125 8.40625 
Q 42.046875 3.421875 37.71875 1 
Q 33.40625 -1.421875 27.6875 -1.421875 
Q 18.265625 -1.421875 13.375 4.4375 
Q 8.5 10.296875 8.5 21.578125 
z
M 31.109375 56 
z
" id="DejaVuSans-117"/>
     <path d="M 45.40625 46.390625 
L 45.40625 75.984375 
L 54.390625 75.984375 
L 54.390625 0 
L 45.40625 0 
L 45.40625 8.203125 
Q 42.578125 3.328125 38.25 0.953125 
Q 33.9375 -1.421875 27.875 -1.421875 
Q 17.96875 -1.421875 11.734375 6.484375 
Q 5.515625 14.40625 5.515625 27.296875 
Q 5.515625 40.1875 11.734375 48.09375 
Q 17.96875 56 27.875 56 
Q 33.9375 56 38.25 53.625 
Q 42.578125 51.265625 45.40625 46.390625 
z
M 14.796875 27.296875 
Q 14.796875 17.390625 18.875 11.75 
Q 22.953125 6.109375 30.078125 6.109375 
Q 37.203125 6.109375 41.296875 11.75 
Q 45.40625 17.390625 45.40625 27.296875 
Q 45.40625 37.203125 41.296875 42.84375 
Q 37.203125 48.484375 30.078125 48.484375 
Q 22.953125 48.484375 18.875 42.84375 
Q 14.796875 37.203125 14.796875 27.296875 
z
" id="DejaVuSans-100"/>
     <path d="M 41.109375 46.296875 
Q 39.59375 47.171875 37.8125 47.578125 
Q 36.03125 48 33.890625 48 
Q 26.265625 48 22.1875 43.046875 
Q 18.109375 38.09375 18.109375 28.8125 
L 18.109375 0 
L 9.078125 0 
L 9.078125 54.6875 
L 18.109375 54.6875 
L 18.109375 46.1875 
Q 20.953125 51.171875 25.484375 53.578125 
Q 30.03125 56 36.53125 56 
Q 37.453125 56 38.578125 55.875 
Q 39.703125 55.765625 41.0625 55.515625 
z
" id="DejaVuSans-114"/>
    </defs>
    <g transform="translate(1308.663906 150.832263)scale(0.34 -0.34)">
     <use xlink:href="#DejaVuSans-65"/>
     <use x="68.408203" xlink:href="#DejaVuSans-108"/>
     <use x="96.191406" xlink:href="#DejaVuSans-108"/>
     <use x="123.974609" xlink:href="#DejaVuSans-32"/>
     <use x="155.761719" xlink:href="#DejaVuSans-115"/>
     <use x="207.861328" xlink:href="#DejaVuSans-104"/>
     <use x="271.240234" xlink:href="#DejaVuSans-111"/>
     <use x="332.421875" xlink:href="#DejaVuSans-117"/>
     <use x="395.800781" xlink:href="#DejaVuSans-108"/>
     <use x="423.583984" xlink:href="#DejaVuSans-100"/>
     <use x="487.060547" xlink:href="#DejaVuSans-101"/>
     <use x="548.583984" xlink:href="#DejaVuSans-114"/>
     <use x="589.697266" xlink:href="#DejaVuSans-32"/>
     <use x="621.484375" xlink:href="#DejaVuSans-84"/>
     <use x="682.302734" xlink:href="#DejaVuSans-101"/>
     <use x="743.826172" xlink:href="#DejaVuSans-110"/>
     <use x="807.205078" xlink:href="#DejaVuSans-100"/>
     <use x="870.681641" xlink:href="#DejaVuSans-111"/>
     <use x="931.863281" xlink:href="#DejaVuSans-110"/>
     <use x="995.242188" xlink:href="#DejaVuSans-115"/>
    </g>
   </g>
  </g>
  <g id="axes_2">
   <g id="patch_7">
    <path d="M 96.419615 2134.946163 
L 2876.99976 2134.946163 
L 2876.99976 1204.437422 
L 96.419615 1204.437422 
z
" style="fill:#ffffff;"/>
   </g>
   <g id="matplotlib.axis_3">
    <g id="xtick_7">
     <g id="line2d_31">
      <g>
       <use style="stroke:#000000;stroke-width:0.8;" x="222.809622" xlink:href="#m353bee5752" y="2134.946163"/>
      </g>
     </g>
     <g id="text_18">
      <!-- 10 -->
      <g transform="translate(210.084622 2157.143038)scale(0.2 -0.2)">
       <use xlink:href="#DejaVuSans-49"/>
       <use x="63.623047" xlink:href="#DejaVuSans-48"/>
      </g>
     </g>
    </g>
    <g id="xtick_8">
     <g id="line2d_32">
      <g>
       <use style="stroke:#000000;stroke-width:0.8;" x="734.504812" xlink:href="#m353bee5752" y="2134.946163"/>
      </g>
     </g>
     <g id="text_19">
      <!-- 11 -->
      <g transform="translate(721.779812 2157.143038)scale(0.2 -0.2)">
       <use xlink:href="#DejaVuSans-49"/>
       <use x="63.623047" xlink:href="#DejaVuSans-49"/>
      </g>
     </g>
    </g>
    <g id="xtick_9">
     <g id="line2d_33">
      <g>
       <use style="stroke:#000000;stroke-width:0.8;" x="1246.200002" xlink:href="#m353bee5752" y="2134.946163"/>
      </g>
     </g>
     <g id="text_20">
      <!-- 12 -->
      <g transform="translate(1233.475002 2157.143038)scale(0.2 -0.2)">
       <use xlink:href="#DejaVuSans-49"/>
       <use x="63.623047" xlink:href="#DejaVuSans-50"/>
      </g>
     </g>
    </g>
    <g id="xtick_10">
     <g id="line2d_34">
      <g>
       <use style="stroke:#000000;stroke-width:0.8;" x="1757.895192" xlink:href="#m353bee5752" y="2134.946163"/>
      </g>
     </g>
     <g id="text_21">
      <!-- 13 -->
      <g transform="translate(1745.170192 2157.143038)scale(0.2 -0.2)">
       <use xlink:href="#DejaVuSans-49"/>
       <use x="63.623047" xlink:href="#DejaVuSans-51"/>
      </g>
     </g>
    </g>
    <g id="xtick_11">
     <g id="line2d_35">
      <g>
       <use style="stroke:#000000;stroke-width:0.8;" x="2269.590382" xlink:href="#m353bee5752" y="2134.946163"/>
      </g>
     </g>
     <g id="text_22">
      <!-- 14 -->
      <g transform="translate(2256.865382 2157.143038)scale(0.2 -0.2)">
       <use xlink:href="#DejaVuSans-49"/>
       <use x="63.623047" xlink:href="#DejaVuSans-52"/>
      </g>
     </g>
    </g>
    <g id="xtick_12">
     <g id="line2d_36">
      <g>
       <use style="stroke:#000000;stroke-width:0.8;" x="2781.285572" xlink:href="#m353bee5752" y="2134.946163"/>
      </g>
     </g>
     <g id="text_23">
      <!-- 15 -->
      <g transform="translate(2768.560572 2157.143038)scale(0.2 -0.2)">
       <use xlink:href="#DejaVuSans-49"/>
       <use x="63.623047" xlink:href="#DejaVuSans-53"/>
      </g>
     </g>
    </g>
    <g id="text_24">
     <!-- Time [s] -->
     <g transform="translate(1433.454375 2185.058351)scale(0.26 -0.26)">
      <use xlink:href="#DejaVuSans-84"/>
      <use x="61.037109" xlink:href="#DejaVuSans-105"/>
      <use x="88.820312" xlink:href="#DejaVuSans-109"/>
      <use x="186.232422" xlink:href="#DejaVuSans-101"/>
      <use x="247.755859" xlink:href="#DejaVuSans-32"/>
      <use x="279.542969" xlink:href="#DejaVuSans-91"/>
      <use x="318.556641" xlink:href="#DejaVuSans-115"/>
      <use x="370.65625" xlink:href="#DejaVuSans-93"/>
     </g>
    </g>
   </g>
   <g id="matplotlib.axis_4">
    <g id="ytick_9">
     <g id="line2d_37">
      <g>
       <use style="stroke:#000000;stroke-width:0.8;" x="96.419615" xlink:href="#m224a314a7d" y="2130.276366"/>
      </g>
     </g>
     <g id="text_25">
      <!-- 0.415 -->
      <g transform="translate(32.163365 2137.874804)scale(0.2 -0.2)">
       <use xlink:href="#DejaVuSans-48"/>
       <use x="63.623047" xlink:href="#DejaVuSans-46"/>
       <use x="95.410156" xlink:href="#DejaVuSans-52"/>
       <use x="159.033203" xlink:href="#DejaVuSans-49"/>
       <use x="222.65625" xlink:href="#DejaVuSans-53"/>
      </g>
     </g>
    </g>
    <g id="ytick_10">
     <g id="line2d_38">
      <g>
       <use style="stroke:#000000;stroke-width:0.8;" x="96.419615" xlink:href="#m224a314a7d" y="2000.134921"/>
      </g>
     </g>
     <g id="text_26">
      <!-- 0.420 -->
      <g transform="translate(32.163365 2007.733358)scale(0.2 -0.2)">
       <use xlink:href="#DejaVuSans-48"/>
       <use x="63.623047" xlink:href="#DejaVuSans-46"/>
       <use x="95.410156" xlink:href="#DejaVuSans-52"/>
       <use x="159.033203" xlink:href="#DejaVuSans-50"/>
       <use x="222.65625" xlink:href="#DejaVuSans-48"/>
      </g>
     </g>
    </g>
    <g id="ytick_11">
     <g id="line2d_39">
      <g>
       <use style="stroke:#000000;stroke-width:0.8;" x="96.419615" xlink:href="#m224a314a7d" y="1869.993475"/>
      </g>
     </g>
     <g id="text_27">
      <!-- 0.425 -->
      <g transform="translate(32.163365 1877.591913)scale(0.2 -0.2)">
       <use xlink:href="#DejaVuSans-48"/>
       <use x="63.623047" xlink:href="#DejaVuSans-46"/>
       <use x="95.410156" xlink:href="#DejaVuSans-52"/>
       <use x="159.033203" xlink:href="#DejaVuSans-50"/>
       <use x="222.65625" xlink:href="#DejaVuSans-53"/>
      </g>
     </g>
    </g>
    <g id="ytick_12">
     <g id="line2d_40">
      <g>
       <use style="stroke:#000000;stroke-width:0.8;" x="96.419615" xlink:href="#m224a314a7d" y="1739.85203"/>
      </g>
     </g>
     <g id="text_28">
      <!-- 0.430 -->
      <g transform="translate(32.163365 1747.450467)scale(0.2 -0.2)">
       <use xlink:href="#DejaVuSans-48"/>
       <use x="63.623047" xlink:href="#DejaVuSans-46"/>
       <use x="95.410156" xlink:href="#DejaVuSans-52"/>
       <use x="159.033203" xlink:href="#DejaVuSans-51"/>
       <use x="222.65625" xlink:href="#DejaVuSans-48"/>
      </g>
     </g>
    </g>
    <g id="ytick_13">
     <g id="line2d_41">
      <g>
       <use style="stroke:#000000;stroke-width:0.8;" x="96.419615" xlink:href="#m224a314a7d" y="1609.710584"/>
      </g>
     </g>
     <g id="text_29">
      <!-- 0.435 -->
      <g transform="translate(32.163365 1617.309022)scale(0.2 -0.2)">
       <use xlink:href="#DejaVuSans-48"/>
       <use x="63.623047" xlink:href="#DejaVuSans-46"/>
       <use x="95.410156" xlink:href="#DejaVuSans-52"/>
       <use x="159.033203" xlink:href="#DejaVuSans-51"/>
       <use x="222.65625" xlink:href="#DejaVuSans-53"/>
      </g>
     </g>
    </g>
    <g id="ytick_14">
     <g id="line2d_42">
      <g>
       <use style="stroke:#000000;stroke-width:0.8;" x="96.419615" xlink:href="#m224a314a7d" y="1479.569139"/>
      </g>
     </g>
     <g id="text_30">
      <!-- 0.440 -->
      <g transform="translate(32.163365 1487.167576)scale(0.2 -0.2)">
       <use xlink:href="#DejaVuSans-48"/>
       <use x="63.623047" xlink:href="#DejaVuSans-46"/>
       <use x="95.410156" xlink:href="#DejaVuSans-52"/>
       <use x="159.033203" xlink:href="#DejaVuSans-52"/>
       <use x="222.65625" xlink:href="#DejaVuSans-48"/>
      </g>
     </g>
    </g>
    <g id="ytick_15">
     <g id="line2d_43">
      <g>
       <use style="stroke:#000000;stroke-width:0.8;" x="96.419615" xlink:href="#m224a314a7d" y="1349.427693"/>
      </g>
     </g>
     <g id="text_31">
      <!-- 0.445 -->
      <g transform="translate(32.163365 1357.026131)scale(0.2 -0.2)">
       <use xlink:href="#DejaVuSans-48"/>
       <use x="63.623047" xlink:href="#DejaVuSans-46"/>
       <use x="95.410156" xlink:href="#DejaVuSans-52"/>
       <use x="159.033203" xlink:href="#DejaVuSans-52"/>
       <use x="222.65625" xlink:href="#DejaVuSans-53"/>
      </g>
     </g>
    </g>
    <g id="ytick_16">
     <g id="line2d_44">
      <g>
       <use style="stroke:#000000;stroke-width:0.8;" x="96.419615" xlink:href="#m224a314a7d" y="1219.286248"/>
      </g>
     </g>
     <g id="text_32">
      <!-- 0.450 -->
      <g transform="translate(32.163365 1226.884685)scale(0.2 -0.2)">
       <use xlink:href="#DejaVuSans-48"/>
       <use x="63.623047" xlink:href="#DejaVuSans-46"/>
       <use x="95.410156" xlink:href="#DejaVuSans-52"/>
       <use x="159.033203" xlink:href="#DejaVuSans-53"/>
       <use x="222.65625" xlink:href="#DejaVuSans-48"/>
      </g>
     </g>
    </g>
    <g id="text_33">
     <!-- Length [m] -->
     <g transform="translate(22.756177 1741.697574)rotate(-90)scale(0.26 -0.26)">
      <use xlink:href="#DejaVuSans-76"/>
      <use x="55.697266" xlink:href="#DejaVuSans-101"/>
      <use x="117.220703" xlink:href="#DejaVuSans-110"/>
      <use x="180.599609" xlink:href="#DejaVuSans-103"/>
      <use x="244.076172" xlink:href="#DejaVuSans-116"/>
      <use x="283.285156" xlink:href="#DejaVuSans-104"/>
      <use x="346.664062" xlink:href="#DejaVuSans-32"/>
      <use x="378.451172" xlink:href="#DejaVuSans-91"/>
      <use x="417.464844" xlink:href="#DejaVuSans-109"/>
      <use x="514.876953" xlink:href="#DejaVuSans-93"/>
     </g>
    </g>
   </g>
   <g id="line2d_45">
    <path clip-path="url(#p40557cbb66)" d="M 222.809622 1728.144151 
L 1786.041267 1728.210862 
L 1802.689553 1727.789655 
L 1819.397496 1727.836973 
L 1835.970143 1727.584093 
L 1869.207181 1727.472392 
L 2185.150813 1727.481701 
L 2750.609753 1727.481701 
L 2750.609753 1727.481701 
" style="fill:none;stroke:#8000ff;stroke-dasharray:9.6,2.4,1.5,2.4;stroke-dashoffset:0;stroke-width:1.5;"/>
   </g>
   <g id="line2d_46">
    <path clip-path="url(#p40557cbb66)" d="M 222.809622 1334.199981 
L 1835.970143 1334.308729 
L 1852.682356 1334.720011 
L 1869.207181 1334.697561 
L 1885.840949 1334.490468 
L 1902.426772 1334.017091 
L 1968.949279 1334.191526 
L 2002.246827 1334.764842 
L 2052.103969 1334.58231 
L 2068.728709 1334.142926 
L 2085.369065 1334.034948 
L 2151.933296 1334.307288 
L 2168.609885 1334.740692 
L 2218.399684 1334.618383 
L 2235.04492 1334.38646 
L 2251.677224 1334.018462 
L 2318.178504 1334.217137 
L 2334.862047 1334.61248 
L 2351.480078 1334.758194 
L 2401.487764 1334.53008 
L 2417.94549 1334.056725 
L 2467.983432 1334.156278 
L 2484.561935 1334.183335 
L 2501.119821 1334.385725 
L 2517.834718 1334.758617 
L 2567.639767 1334.597909 
L 2584.277317 1334.249 
L 2600.93524 1334.031922 
L 2667.422491 1334.257187 
L 2684.032591 1334.697895 
L 2717.325015 1334.661918 
L 2733.971593 1334.622753 
L 2750.609753 1334.450025 
L 2750.609753 1334.450025 
" style="fill:none;stroke:#8000ff;stroke-linecap:square;stroke-width:3;"/>
   </g>
   <g id="line2d_47">
    <path clip-path="url(#p40557cbb66)" d="M 222.809622 1246.76275 
L 1786.041267 1246.734049 
L 1802.689553 1247.208004 
L 1819.397496 1246.935732 
L 1902.426772 1247.062172 
L 2750.609753 1247.063723 
L 2750.609753 1247.063723 
" style="fill:none;stroke:#12c8e6;stroke-dasharray:9.6,2.4,1.5,2.4;stroke-dashoffset:0;stroke-width:1.5;"/>
   </g>
   <g id="line2d_48">
    <path clip-path="url(#p40557cbb66)" d="M 222.809622 1247.217242 
L 1819.397496 1247.226556 
L 1835.970143 1247.343471 
L 1852.682356 1247.820977 
L 1869.207181 1247.794858 
L 1885.840949 1247.554352 
L 1902.426772 1247.004934 
L 1968.949279 1247.207445 
L 2002.246827 1247.873047 
L 2052.103969 1247.660977 
L 2068.728709 1247.150936 
L 2085.369065 1247.025667 
L 2151.933296 1247.34181 
L 2168.609885 1247.845012 
L 2218.399684 1247.702873 
L 2235.04492 1247.433591 
L 2251.677224 1247.006525 
L 2318.178504 1247.23717 
L 2334.862047 1247.696128 
L 2351.480078 1247.865315 
L 2401.487764 1247.600329 
L 2417.94549 1247.050912 
L 2467.983432 1247.166524 
L 2484.561935 1247.197937 
L 2501.119821 1247.432861 
L 2517.834718 1247.865824 
L 2567.639767 1247.679094 
L 2584.277317 1247.274039 
L 2600.93524 1247.022152 
L 2667.422491 1247.283657 
L 2684.032591 1247.795314 
L 2700.686489 1247.833366 
L 2750.609753 1247.507385 
L 2750.609753 1247.507385 
" style="fill:none;stroke:#12c8e6;stroke-linecap:square;stroke-width:3;"/>
   </g>
   <g id="line2d_49">
    <path clip-path="url(#p40557cbb66)" d="M 222.809622 1991.952366 
L 1786.041267 1992.002787 
L 1802.689553 1991.511767 
L 1819.397496 1991.797226 
L 2035.545473 1991.682422 
L 2750.609753 1991.682422 
L 2750.609753 1991.682422 
" style="fill:none;stroke:#a4f89f;stroke-dasharray:9.6,2.4,1.5,2.4;stroke-dashoffset:0;stroke-width:1.5;"/>
   </g>
   <g id="line2d_50">
    <path clip-path="url(#p40557cbb66)" d="M 222.809622 1992.615971 
L 1819.397496 1992.60249 
L 1835.970143 1992.43205 
L 1852.682356 1991.735765 
L 1869.207181 1991.774048 
L 1885.840949 1992.123978 
L 1902.426772 1992.925749 
L 1968.949279 1992.62907 
L 2002.246827 1991.660887 
L 2052.103969 1991.969123 
L 2068.728709 1992.7132 
L 2085.369065 1992.894189 
L 2118.677593 1992.701907 
L 2135.263782 1992.658154 
L 2151.933296 1992.433611 
L 2168.609885 1991.700908 
L 2218.399684 1991.908449 
L 2235.04492 1992.300275 
L 2251.677224 1992.923027 
L 2301.53095 1992.673311 
L 2318.178504 1992.586046 
L 2334.862047 1991.917037 
L 2351.480078 1991.672276 
L 2401.487764 1992.057223 
L 2417.94549 1992.859074 
L 2451.217663 1992.742215 
L 2484.561935 1992.642888 
L 2501.119821 1992.300906 
L 2517.834718 1991.670937 
L 2567.639767 1991.942719 
L 2584.277317 1992.533241 
L 2600.93524 1992.899764 
L 2634.220711 1992.702959 
L 2667.422491 1992.51848 
L 2684.032591 1991.772785 
L 2700.686489 1991.718798 
L 2733.971593 1991.900972 
L 2750.609753 1992.192573 
L 2750.609753 1992.192573 
" style="fill:none;stroke:#a4f89f;stroke-linecap:square;stroke-width:3;"/>
   </g>
   <g id="line2d_51">
    <path clip-path="url(#p40557cbb66)" d="M 222.809622 2092.264011 
L 1786.041267 2092.253927 
L 1869.207181 2092.649536 
L 2085.369065 2092.634022 
L 2750.609753 2092.634022 
L 2750.609753 2092.634022 
" style="fill:none;stroke:#ff6d38;stroke-dasharray:9.6,2.4,1.5,2.4;stroke-dashoffset:0;stroke-width:1.5;"/>
   </g>
   <g id="line2d_52">
    <path clip-path="url(#p40557cbb66)" d="M 222.809622 1803.421223 
L 1819.397496 1803.412012 
L 1835.970143 1803.292415 
L 1852.682356 1802.803416 
L 1869.207181 1802.831125 
L 1885.840949 1803.076648 
L 1902.426772 1803.639045 
L 1968.949279 1803.428836 
L 2002.246827 1802.751889 
L 2052.103969 1802.968696 
L 2068.728709 1803.49096 
L 2085.369065 1803.6153 
L 2151.933296 1803.292364 
L 2168.609885 1802.77891 
L 2218.399684 1802.926428 
L 2235.04492 1803.200806 
L 2251.677224 1803.636686 
L 2318.178504 1803.399059 
L 2334.862047 1802.929759 
L 2351.480078 1802.760155 
L 2401.487764 1803.030255 
L 2417.94549 1803.592977 
L 2467.983432 1803.468989 
L 2484.561935 1803.438484 
L 2501.119821 1803.199341 
L 2517.834718 1802.758327 
L 2567.639767 1802.950112 
L 2584.277317 1803.364448 
L 2600.93524 1803.619766 
L 2667.422491 1803.351941 
L 2684.032591 1802.828758 
L 2700.686489 1802.792942 
L 2750.609753 1803.125102 
L 2750.609753 1803.125102 
" style="fill:none;stroke:#ff6d38;stroke-linecap:square;stroke-width:3;"/>
   </g>
   <g id="patch_8">
    <path d="M 96.419615 2134.946163 
L 96.419615 1204.437422 
" style="fill:none;stroke:#000000;stroke-linecap:square;stroke-linejoin:miter;stroke-width:0.8;"/>
   </g>
   <g id="patch_9">
    <path d="M 2876.99976 2134.946163 
L 2876.99976 1204.437422 
" style="fill:none;stroke:#000000;stroke-linecap:square;stroke-linejoin:miter;stroke-width:0.8;"/>
   </g>
   <g id="patch_10">
    <path d="M 96.419615 2134.946163 
L 2876.99976 2134.946163 
" style="fill:none;stroke:#000000;stroke-linecap:square;stroke-linejoin:miter;stroke-width:0.8;"/>
   </g>
   <g id="patch_11">
    <path d="M 96.419615 1204.437422 
L 2876.99976 1204.437422 
" style="fill:none;stroke:#000000;stroke-linecap:square;stroke-linejoin:miter;stroke-width:0.8;"/>
   </g>
   <g id="text_34">
    <!-- Shoulder Tendons [0, 2, 4, 6] -->
    <defs>
     <path d="M 53.515625 70.515625 
L 53.515625 60.890625 
Q 47.90625 63.578125 42.921875 64.890625 
Q 37.9375 66.21875 33.296875 66.21875 
Q 25.25 66.21875 20.875 63.09375 
Q 16.5 59.96875 16.5 54.203125 
Q 16.5 49.359375 19.40625 46.890625 
Q 22.3125 44.4375 30.421875 42.921875 
L 36.375 41.703125 
Q 47.40625 39.59375 52.65625 34.296875 
Q 57.90625 29 57.90625 20.125 
Q 57.90625 9.515625 50.796875 4.046875 
Q 43.703125 -1.421875 29.984375 -1.421875 
Q 24.8125 -1.421875 18.96875 -0.25 
Q 13.140625 0.921875 6.890625 3.21875 
L 6.890625 13.375 
Q 12.890625 10.015625 18.65625 8.296875 
Q 24.421875 6.59375 29.984375 6.59375 
Q 38.421875 6.59375 43.015625 9.90625 
Q 47.609375 13.234375 47.609375 19.390625 
Q 47.609375 24.75 44.3125 27.78125 
Q 41.015625 30.8125 33.5 32.328125 
L 27.484375 33.5 
Q 16.453125 35.6875 11.515625 40.375 
Q 6.59375 45.0625 6.59375 53.421875 
Q 6.59375 63.09375 13.40625 68.65625 
Q 20.21875 74.21875 32.171875 74.21875 
Q 37.3125 74.21875 42.625 73.28125 
Q 47.953125 72.359375 53.515625 70.515625 
z
" id="DejaVuSans-83"/>
     <path d="M 11.71875 12.40625 
L 22.015625 12.40625 
L 22.015625 4 
L 14.015625 -11.625 
L 7.71875 -11.625 
L 11.71875 4 
z
" id="DejaVuSans-44"/>
    </defs>
    <g transform="translate(1238.855 1197.366484)scale(0.34 -0.34)">
     <use xlink:href="#DejaVuSans-83"/>
     <use x="63.476562" xlink:href="#DejaVuSans-104"/>
     <use x="126.855469" xlink:href="#DejaVuSans-111"/>
     <use x="188.037109" xlink:href="#DejaVuSans-117"/>
     <use x="251.416016" xlink:href="#DejaVuSans-108"/>
     <use x="279.199219" xlink:href="#DejaVuSans-100"/>
     <use x="342.675781" xlink:href="#DejaVuSans-101"/>
     <use x="404.199219" xlink:href="#DejaVuSans-114"/>
     <use x="445.3125" xlink:href="#DejaVuSans-32"/>
     <use x="477.099609" xlink:href="#DejaVuSans-84"/>
     <use x="537.917969" xlink:href="#DejaVuSans-101"/>
     <use x="599.441406" xlink:href="#DejaVuSans-110"/>
     <use x="662.820312" xlink:href="#DejaVuSans-100"/>
     <use x="726.296875" xlink:href="#DejaVuSans-111"/>
     <use x="787.478516" xlink:href="#DejaVuSans-110"/>
     <use x="850.857422" xlink:href="#DejaVuSans-115"/>
     <use x="902.957031" xlink:href="#DejaVuSans-32"/>
     <use x="934.744141" xlink:href="#DejaVuSans-91"/>
     <use x="973.757812" xlink:href="#DejaVuSans-48"/>
     <use x="1037.380859" xlink:href="#DejaVuSans-44"/>
     <use x="1069.167969" xlink:href="#DejaVuSans-32"/>
     <use x="1100.955078" xlink:href="#DejaVuSans-50"/>
     <use x="1164.578125" xlink:href="#DejaVuSans-44"/>
     <use x="1196.365234" xlink:href="#DejaVuSans-32"/>
     <use x="1228.152344" xlink:href="#DejaVuSans-52"/>
     <use x="1291.775391" xlink:href="#DejaVuSans-44"/>
     <use x="1323.5625" xlink:href="#DejaVuSans-32"/>
     <use x="1355.349609" xlink:href="#DejaVuSans-54"/>
     <use x="1418.972656" xlink:href="#DejaVuSans-93"/>
    </g>
   </g>
  </g>
  <g id="axes_3">
   <g id="patch_12">
    <path d="M 96.419615 3181.480385 
L 2876.99976 3181.480385 
L 2876.99976 2250.971643 
L 96.419615 2250.971643 
z
" style="fill:#ffffff;"/>
   </g>
   <g id="matplotlib.axis_5">
    <g id="xtick_13">
     <g id="line2d_53">
      <g>
       <use style="stroke:#000000;stroke-width:0.8;" x="222.809622" xlink:href="#m353bee5752" y="3181.480385"/>
      </g>
     </g>
     <g id="text_35">
      <!-- 10 -->
      <g transform="translate(210.084622 3203.67726)scale(0.2 -0.2)">
       <use xlink:href="#DejaVuSans-49"/>
       <use x="63.623047" xlink:href="#DejaVuSans-48"/>
      </g>
     </g>
    </g>
    <g id="xtick_14">
     <g id="line2d_54">
      <g>
       <use style="stroke:#000000;stroke-width:0.8;" x="734.504812" xlink:href="#m353bee5752" y="3181.480385"/>
      </g>
     </g>
     <g id="text_36">
      <!-- 11 -->
      <g transform="translate(721.779812 3203.67726)scale(0.2 -0.2)">
       <use xlink:href="#DejaVuSans-49"/>
       <use x="63.623047" xlink:href="#DejaVuSans-49"/>
      </g>
     </g>
    </g>
    <g id="xtick_15">
     <g id="line2d_55">
      <g>
       <use style="stroke:#000000;stroke-width:0.8;" x="1246.200002" xlink:href="#m353bee5752" y="3181.480385"/>
      </g>
     </g>
     <g id="text_37">
      <!-- 12 -->
      <g transform="translate(1233.475002 3203.67726)scale(0.2 -0.2)">
       <use xlink:href="#DejaVuSans-49"/>
       <use x="63.623047" xlink:href="#DejaVuSans-50"/>
      </g>
     </g>
    </g>
    <g id="xtick_16">
     <g id="line2d_56">
      <g>
       <use style="stroke:#000000;stroke-width:0.8;" x="1757.895192" xlink:href="#m353bee5752" y="3181.480385"/>
      </g>
     </g>
     <g id="text_38">
      <!-- 13 -->
      <g transform="translate(1745.170192 3203.67726)scale(0.2 -0.2)">
       <use xlink:href="#DejaVuSans-49"/>
       <use x="63.623047" xlink:href="#DejaVuSans-51"/>
      </g>
     </g>
    </g>
    <g id="xtick_17">
     <g id="line2d_57">
      <g>
       <use style="stroke:#000000;stroke-width:0.8;" x="2269.590382" xlink:href="#m353bee5752" y="3181.480385"/>
      </g>
     </g>
     <g id="text_39">
      <!-- 14 -->
      <g transform="translate(2256.865382 3203.67726)scale(0.2 -0.2)">
       <use xlink:href="#DejaVuSans-49"/>
       <use x="63.623047" xlink:href="#DejaVuSans-52"/>
      </g>
     </g>
    </g>
    <g id="xtick_18">
     <g id="line2d_58">
      <g>
       <use style="stroke:#000000;stroke-width:0.8;" x="2781.285572" xlink:href="#m353bee5752" y="3181.480385"/>
      </g>
     </g>
     <g id="text_40">
      <!-- 15 -->
      <g transform="translate(2768.560572 3203.67726)scale(0.2 -0.2)">
       <use xlink:href="#DejaVuSans-49"/>
       <use x="63.623047" xlink:href="#DejaVuSans-53"/>
      </g>
     </g>
    </g>
    <g id="text_41">
     <!-- Time [s] -->
     <g transform="translate(1433.454375 3231.592572)scale(0.26 -0.26)">
      <use xlink:href="#DejaVuSans-84"/>
      <use x="61.037109" xlink:href="#DejaVuSans-105"/>
      <use x="88.820312" xlink:href="#DejaVuSans-109"/>
      <use x="186.232422" xlink:href="#DejaVuSans-101"/>
      <use x="247.755859" xlink:href="#DejaVuSans-32"/>
      <use x="279.542969" xlink:href="#DejaVuSans-91"/>
      <use x="318.556641" xlink:href="#DejaVuSans-115"/>
      <use x="370.65625" xlink:href="#DejaVuSans-93"/>
     </g>
    </g>
   </g>
   <g id="matplotlib.axis_6">
    <g id="ytick_17">
     <g id="line2d_59">
      <g>
       <use style="stroke:#000000;stroke-width:0.8;" x="96.419615" xlink:href="#m224a314a7d" y="3105.939549"/>
      </g>
     </g>
     <g id="text_42">
      <!-- 0.40 -->
      <g transform="translate(44.888365 3113.537987)scale(0.2 -0.2)">
       <use xlink:href="#DejaVuSans-48"/>
       <use x="63.623047" xlink:href="#DejaVuSans-46"/>
       <use x="95.410156" xlink:href="#DejaVuSans-52"/>
       <use x="159.033203" xlink:href="#DejaVuSans-48"/>
      </g>
     </g>
    </g>
    <g id="ytick_18">
     <g id="line2d_60">
      <g>
       <use style="stroke:#000000;stroke-width:0.8;" x="96.419615" xlink:href="#m224a314a7d" y="2993.938696"/>
      </g>
     </g>
     <g id="text_43">
      <!-- 0.41 -->
      <g transform="translate(44.888365 3001.537133)scale(0.2 -0.2)">
       <use xlink:href="#DejaVuSans-48"/>
       <use x="63.623047" xlink:href="#DejaVuSans-46"/>
       <use x="95.410156" xlink:href="#DejaVuSans-52"/>
       <use x="159.033203" xlink:href="#DejaVuSans-49"/>
      </g>
     </g>
    </g>
    <g id="ytick_19">
     <g id="line2d_61">
      <g>
       <use style="stroke:#000000;stroke-width:0.8;" x="96.419615" xlink:href="#m224a314a7d" y="2881.937843"/>
      </g>
     </g>
     <g id="text_44">
      <!-- 0.42 -->
      <g transform="translate(44.888365 2889.53628)scale(0.2 -0.2)">
       <use xlink:href="#DejaVuSans-48"/>
       <use x="63.623047" xlink:href="#DejaVuSans-46"/>
       <use x="95.410156" xlink:href="#DejaVuSans-52"/>
       <use x="159.033203" xlink:href="#DejaVuSans-50"/>
      </g>
     </g>
    </g>
    <g id="ytick_20">
     <g id="line2d_62">
      <g>
       <use style="stroke:#000000;stroke-width:0.8;" x="96.419615" xlink:href="#m224a314a7d" y="2769.936989"/>
      </g>
     </g>
     <g id="text_45">
      <!-- 0.43 -->
      <g transform="translate(44.888365 2777.535427)scale(0.2 -0.2)">
       <use xlink:href="#DejaVuSans-48"/>
       <use x="63.623047" xlink:href="#DejaVuSans-46"/>
       <use x="95.410156" xlink:href="#DejaVuSans-52"/>
       <use x="159.033203" xlink:href="#DejaVuSans-51"/>
      </g>
     </g>
    </g>
    <g id="ytick_21">
     <g id="line2d_63">
      <g>
       <use style="stroke:#000000;stroke-width:0.8;" x="96.419615" xlink:href="#m224a314a7d" y="2657.936136"/>
      </g>
     </g>
     <g id="text_46">
      <!-- 0.44 -->
      <g transform="translate(44.888365 2665.534574)scale(0.2 -0.2)">
       <use xlink:href="#DejaVuSans-48"/>
       <use x="63.623047" xlink:href="#DejaVuSans-46"/>
       <use x="95.410156" xlink:href="#DejaVuSans-52"/>
       <use x="159.033203" xlink:href="#DejaVuSans-52"/>
      </g>
     </g>
    </g>
    <g id="ytick_22">
     <g id="line2d_64">
      <g>
       <use style="stroke:#000000;stroke-width:0.8;" x="96.419615" xlink:href="#m224a314a7d" y="2545.935283"/>
      </g>
     </g>
     <g id="text_47">
      <!-- 0.45 -->
      <g transform="translate(44.888365 2553.533721)scale(0.2 -0.2)">
       <use xlink:href="#DejaVuSans-48"/>
       <use x="63.623047" xlink:href="#DejaVuSans-46"/>
       <use x="95.410156" xlink:href="#DejaVuSans-52"/>
       <use x="159.033203" xlink:href="#DejaVuSans-53"/>
      </g>
     </g>
    </g>
    <g id="ytick_23">
     <g id="line2d_65">
      <g>
       <use style="stroke:#000000;stroke-width:0.8;" x="96.419615" xlink:href="#m224a314a7d" y="2433.93443"/>
      </g>
     </g>
     <g id="text_48">
      <!-- 0.46 -->
      <g transform="translate(44.888365 2441.532867)scale(0.2 -0.2)">
       <use xlink:href="#DejaVuSans-48"/>
       <use x="63.623047" xlink:href="#DejaVuSans-46"/>
       <use x="95.410156" xlink:href="#DejaVuSans-52"/>
       <use x="159.033203" xlink:href="#DejaVuSans-54"/>
      </g>
     </g>
    </g>
    <g id="ytick_24">
     <g id="line2d_66">
      <g>
       <use style="stroke:#000000;stroke-width:0.8;" x="96.419615" xlink:href="#m224a314a7d" y="2321.933577"/>
      </g>
     </g>
     <g id="text_49">
      <!-- 0.47 -->
      <g transform="translate(44.888365 2329.532014)scale(0.2 -0.2)">
       <use xlink:href="#DejaVuSans-48"/>
       <use x="63.623047" xlink:href="#DejaVuSans-46"/>
       <use x="95.410156" xlink:href="#DejaVuSans-52"/>
       <use x="159.033203" xlink:href="#DejaVuSans-55"/>
      </g>
     </g>
    </g>
    <g id="text_50">
     <!-- Length [m] -->
     <g transform="translate(35.481177 2788.231795)rotate(-90)scale(0.26 -0.26)">
      <use xlink:href="#DejaVuSans-76"/>
      <use x="55.697266" xlink:href="#DejaVuSans-101"/>
      <use x="117.220703" xlink:href="#DejaVuSans-110"/>
      <use x="180.599609" xlink:href="#DejaVuSans-103"/>
      <use x="244.076172" xlink:href="#DejaVuSans-116"/>
      <use x="283.285156" xlink:href="#DejaVuSans-104"/>
      <use x="346.664062" xlink:href="#DejaVuSans-32"/>
      <use x="378.451172" xlink:href="#DejaVuSans-91"/>
      <use x="417.464844" xlink:href="#DejaVuSans-109"/>
      <use x="514.876953" xlink:href="#DejaVuSans-93"/>
     </g>
    </g>
   </g>
   <g id="line2d_67">
    <path clip-path="url(#p3fe22a4294)" d="M 222.809622 2925.080494 
L 1786.041267 2925.066809 
L 1802.689553 2925.276094 
L 1819.397496 2925.135235 
L 1935.699067 2925.162606 
L 2750.609753 2925.162606 
L 2750.609753 2925.162606 
" style="fill:none;stroke:#386df9;stroke-dasharray:9.6,2.4,1.5,2.4;stroke-dashoffset:0;stroke-width:1.5;"/>
   </g>
   <g id="line2d_68">
    <path clip-path="url(#p3fe22a4294)" d="M 222.809622 2924.972433 
L 1835.970143 2925.06641 
L 1852.682356 2925.422898 
L 1869.207181 2925.403068 
L 1885.840949 2925.223769 
L 1902.426772 2924.814068 
L 1968.949279 2924.965987 
L 2002.246827 2925.461153 
L 2052.103969 2925.302937 
L 2068.728709 2924.922392 
L 2085.369065 2924.830413 
L 2151.933296 2925.065793 
L 2168.609885 2925.440806 
L 2218.399684 2925.333989 
L 2235.04492 2925.133473 
L 2251.677224 2924.815516 
L 2318.178504 2924.987914 
L 2334.862047 2925.33017 
L 2351.480078 2925.455256 
L 2401.487764 2925.257853 
L 2417.94549 2924.847976 
L 2484.561935 2924.95893 
L 2501.119821 2925.133646 
L 2517.834718 2925.456097 
L 2567.639767 2925.316474 
L 2584.277317 2925.014351 
L 2600.93524 2924.827485 
L 2667.422491 2925.022407 
L 2684.032591 2925.40405 
L 2717.325015 2925.371527 
L 2733.971593 2925.337843 
L 2750.609753 2925.188593 
L 2750.609753 2925.188593 
" style="fill:none;stroke:#386df9;stroke-linecap:square;stroke-width:3;"/>
   </g>
   <g id="line2d_69">
    <path clip-path="url(#p3fe22a4294)" d="M 222.809622 2293.283183 
L 1786.041267 2293.267829 
L 1802.689553 2293.556556 
L 1819.397496 2293.38599 
L 1952.39237 2293.459424 
L 2750.609753 2293.459424 
L 2750.609753 2293.459424 
" style="fill:none;stroke:#5af8c8;stroke-dasharray:9.6,2.4,1.5,2.4;stroke-dashoffset:0;stroke-width:1.5;"/>
   </g>
   <g id="line2d_70">
    <path clip-path="url(#p3fe22a4294)" d="M 222.809622 2293.631953 
L 1835.970143 2293.710998 
L 1852.682356 2294.009827 
L 1869.207181 2293.993443 
L 1885.840949 2293.842947 
L 1902.426772 2293.498902 
L 1968.949279 2293.625866 
L 2002.246827 2294.042368 
L 2052.103969 2293.909645 
L 2068.728709 2293.590336 
L 2085.369065 2293.511941 
L 2151.933296 2293.709994 
L 2168.609885 2294.024869 
L 2218.399684 2293.935854 
L 2251.677224 2293.49991 
L 2318.178504 2293.644473 
L 2334.862047 2293.931761 
L 2351.480078 2294.03752 
L 2401.487764 2293.871701 
L 2417.94549 2293.527686 
L 2484.561935 2293.619911 
L 2501.119821 2293.766998 
L 2517.834718 2294.03787 
L 2567.639767 2293.920984 
L 2600.93524 2293.509722 
L 2667.422491 2293.673579 
L 2684.032591 2293.993802 
L 2717.325015 2293.967512 
L 2750.609753 2293.813536 
L 2750.609753 2293.813536 
" style="fill:none;stroke:#5af8c8;stroke-linecap:square;stroke-width:3;"/>
   </g>
   <g id="line2d_71">
    <path clip-path="url(#p3fe22a4294)" d="M 222.809622 3007.283268 
L 1802.689553 3007.308636 
L 1869.207181 3007.547963 
L 2168.609885 3007.535946 
L 2750.609753 3007.535946 
L 2750.609753 3007.535946 
" style="fill:none;stroke:#ecc86f;stroke-dasharray:9.6,2.4,1.5,2.4;stroke-dashoffset:0;stroke-width:1.5;"/>
   </g>
   <g id="line2d_72">
    <path clip-path="url(#p3fe22a4294)" d="M 222.809622 3008.148654 
L 1819.397496 3008.138005 
L 1835.970143 3007.998349 
L 1852.682356 3007.426423 
L 1869.207181 3007.459191 
L 1885.840949 3007.746271 
L 1902.426772 3008.403025 
L 1968.949279 3008.156792 
L 2002.246827 3007.366625 
L 2052.103969 3007.62038 
L 2068.728709 3008.230687 
L 2085.369065 3008.374553 
L 2118.677593 3008.214256 
L 2135.263782 3008.179744 
L 2151.933296 3007.997746 
L 2168.609885 3007.397747 
L 2218.399684 3007.571108 
L 2235.04492 3007.891585 
L 2251.677224 3008.400051 
L 2301.53095 3008.191535 
L 2318.178504 3008.122225 
L 2334.862047 3007.57384 
L 2351.480078 3007.37642 
L 2401.487764 3007.692231 
L 2417.94549 3008.349604 
L 2451.217663 3008.247791 
L 2484.561935 3008.168032 
L 2501.119821 3007.889112 
L 2517.834718 3007.373869 
L 2567.639767 3007.598624 
L 2584.277317 3008.082845 
L 2600.93524 3008.380029 
L 2634.220711 3008.215614 
L 2667.422491 3008.067347 
L 2684.032591 3007.455794 
L 2700.686489 3007.414844 
L 2750.609753 3007.803047 
L 2750.609753 3007.803047 
" style="fill:none;stroke:#ecc86f;stroke-linecap:square;stroke-width:3;"/>
   </g>
   <g id="line2d_73">
    <path clip-path="url(#p3fe22a4294)" d="M 222.809622 3139.126075 
L 1786.041267 3139.148773 
L 1802.689553 3138.786279 
L 1819.397496 3139.008248 
L 2085.369065 3138.930142 
L 2750.609753 3138.930142 
L 2750.609753 3138.930142 
" style="fill:none;stroke:#ff0000;stroke-dasharray:9.6,2.4,1.5,2.4;stroke-dashoffset:0;stroke-width:1.5;"/>
   </g>
   <g id="line2d_74">
    <path clip-path="url(#p3fe22a4294)" d="M 222.809622 3138.979218 
L 1819.397496 3138.970293 
L 1835.970143 3138.857398 
L 1852.682356 3138.396787 
L 1869.207181 3138.422168 
L 1885.840949 3138.653863 
L 1902.426772 3139.184533 
L 1968.949279 3138.988108 
L 2002.246827 3138.347054 
L 2052.103969 3138.551316 
L 2068.728709 3139.043703 
L 2085.369065 3139.16388 
L 2151.933296 3138.858585 
L 2168.609885 3138.373662 
L 2218.399684 3138.511078 
L 2235.04492 3138.77051 
L 2251.677224 3139.182818 
L 2318.178504 3138.959547 
L 2334.862047 3138.516764 
L 2351.480078 3138.354582 
L 2401.487764 3138.609672 
L 2417.94549 3139.140308 
L 2467.983432 3139.027227 
L 2484.561935 3138.997274 
L 2501.119821 3138.77073 
L 2517.834718 3138.353785 
L 2567.639767 3138.533842 
L 2584.277317 3138.924643 
L 2600.93524 3139.167487 
L 2667.422491 3138.914757 
L 2684.032591 3138.421298 
L 2700.686489 3138.385375 
L 2750.609753 3138.699258 
L 2750.609753 3138.699258 
" style="fill:none;stroke:#ff0000;stroke-linecap:square;stroke-width:3;"/>
   </g>
   <g id="patch_13">
    <path d="M 96.419615 3181.480385 
L 96.419615 2250.971643 
" style="fill:none;stroke:#000000;stroke-linecap:square;stroke-linejoin:miter;stroke-width:0.8;"/>
   </g>
   <g id="patch_14">
    <path d="M 2876.99976 3181.480385 
L 2876.99976 2250.971643 
" style="fill:none;stroke:#000000;stroke-linecap:square;stroke-linejoin:miter;stroke-width:0.8;"/>
   </g>
   <g id="patch_15">
    <path d="M 96.419615 3181.480385 
L 2876.99976 3181.480385 
" style="fill:none;stroke:#000000;stroke-linecap:square;stroke-linejoin:miter;stroke-width:0.8;"/>
   </g>
   <g id="patch_16">
    <path d="M 96.419615 2250.971643 
L 2876.99976 2250.971643 
" style="fill:none;stroke:#000000;stroke-linecap:square;stroke-linejoin:miter;stroke-width:0.8;"/>
   </g>
   <g id="text_51">
    <!-- Shoulder Tendons [1, 3, 5, 7] -->
    <g transform="translate(1238.855 2243.900706)scale(0.34 -0.34)">
     <use xlink:href="#DejaVuSans-83"/>
     <use x="63.476562" xlink:href="#DejaVuSans-104"/>
     <use x="126.855469" xlink:href="#DejaVuSans-111"/>
     <use x="188.037109" xlink:href="#DejaVuSans-117"/>
     <use x="251.416016" xlink:href="#DejaVuSans-108"/>
     <use x="279.199219" xlink:href="#DejaVuSans-100"/>
     <use x="342.675781" xlink:href="#DejaVuSans-101"/>
     <use x="404.199219" xlink:href="#DejaVuSans-114"/>
     <use x="445.3125" xlink:href="#DejaVuSans-32"/>
     <use x="477.099609" xlink:href="#DejaVuSans-84"/>
     <use x="537.917969" xlink:href="#DejaVuSans-101"/>
     <use x="599.441406" xlink:href="#DejaVuSans-110"/>
     <use x="662.820312" xlink:href="#DejaVuSans-100"/>
     <use x="726.296875" xlink:href="#DejaVuSans-111"/>
     <use x="787.478516" xlink:href="#DejaVuSans-110"/>
     <use x="850.857422" xlink:href="#DejaVuSans-115"/>
     <use x="902.957031" xlink:href="#DejaVuSans-32"/>
     <use x="934.744141" xlink:href="#DejaVuSans-91"/>
     <use x="973.757812" xlink:href="#DejaVuSans-49"/>
     <use x="1037.380859" xlink:href="#DejaVuSans-44"/>
     <use x="1069.167969" xlink:href="#DejaVuSans-32"/>
     <use x="1100.955078" xlink:href="#DejaVuSans-51"/>
     <use x="1164.578125" xlink:href="#DejaVuSans-44"/>
     <use x="1196.365234" xlink:href="#DejaVuSans-32"/>
     <use x="1228.152344" xlink:href="#DejaVuSans-53"/>
     <use x="1291.775391" xlink:href="#DejaVuSans-44"/>
     <use x="1323.5625" xlink:href="#DejaVuSans-32"/>
     <use x="1355.349609" xlink:href="#DejaVuSans-55"/>
     <use x="1418.972656" xlink:href="#DejaVuSans-93"/>
    </g>
   </g>
  </g>
  <g id="text_52">
   <!-- Setpoints (- -) and Lenghts () - P40000 I0 D0 -->
   <defs>
    <path d="M 18.109375 8.203125 
L 18.109375 -20.796875 
L 9.078125 -20.796875 
L 9.078125 54.6875 
L 18.109375 54.6875 
L 18.109375 46.390625 
Q 20.953125 51.265625 25.265625 53.625 
Q 29.59375 56 35.59375 56 
Q 45.5625 56 51.78125 48.09375 
Q 58.015625 40.1875 58.015625 27.296875 
Q 58.015625 14.40625 51.78125 6.484375 
Q 45.5625 -1.421875 35.59375 -1.421875 
Q 29.59375 -1.421875 25.265625 0.953125 
Q 20.953125 3.328125 18.109375 8.203125 
z
M 48.6875 27.296875 
Q 48.6875 37.203125 44.609375 42.84375 
Q 40.53125 48.484375 33.40625 48.484375 
Q 26.265625 48.484375 22.1875 42.84375 
Q 18.109375 37.203125 18.109375 27.296875 
Q 18.109375 17.390625 22.1875 11.75 
Q 26.265625 6.109375 33.40625 6.109375 
Q 40.53125 6.109375 44.609375 11.75 
Q 48.6875 17.390625 48.6875 27.296875 
z
" id="DejaVuSans-112"/>
    <path d="M 31 75.875 
Q 24.46875 64.65625 21.28125 53.65625 
Q 18.109375 42.671875 18.109375 31.390625 
Q 18.109375 20.125 21.3125 9.0625 
Q 24.515625 -2 31 -13.1875 
L 23.1875 -13.1875 
Q 15.875 -1.703125 12.234375 9.375 
Q 8.59375 20.453125 8.59375 31.390625 
Q 8.59375 42.28125 12.203125 53.3125 
Q 15.828125 64.359375 23.1875 75.875 
z
" id="DejaVuSans-40"/>
    <path d="M 4.890625 31.390625 
L 31.203125 31.390625 
L 31.203125 23.390625 
L 4.890625 23.390625 
z
" id="DejaVuSans-45"/>
    <path d="M 8.015625 75.875 
L 15.828125 75.875 
Q 23.140625 64.359375 26.78125 53.3125 
Q 30.421875 42.28125 30.421875 31.390625 
Q 30.421875 20.453125 26.78125 9.375 
Q 23.140625 -1.703125 15.828125 -13.1875 
L 8.015625 -13.1875 
Q 14.5 -2 17.703125 9.0625 
Q 20.90625 20.125 20.90625 31.390625 
Q 20.90625 42.671875 17.703125 53.65625 
Q 14.5 64.65625 8.015625 75.875 
z
" id="DejaVuSans-41"/>
    <path d="M 34.28125 27.484375 
Q 23.390625 27.484375 19.1875 25 
Q 14.984375 22.515625 14.984375 16.5 
Q 14.984375 11.71875 18.140625 8.90625 
Q 21.296875 6.109375 26.703125 6.109375 
Q 34.1875 6.109375 38.703125 11.40625 
Q 43.21875 16.703125 43.21875 25.484375 
L 43.21875 27.484375 
z
M 52.203125 31.203125 
L 52.203125 0 
L 43.21875 0 
L 43.21875 8.296875 
Q 40.140625 3.328125 35.546875 0.953125 
Q 30.953125 -1.421875 24.3125 -1.421875 
Q 15.921875 -1.421875 10.953125 3.296875 
Q 6 8.015625 6 15.921875 
Q 6 25.140625 12.171875 29.828125 
Q 18.359375 34.515625 30.609375 34.515625 
L 43.21875 34.515625 
L 43.21875 35.40625 
Q 43.21875 41.609375 39.140625 45 
Q 35.0625 48.390625 27.6875 48.390625 
Q 23 48.390625 18.546875 47.265625 
Q 14.109375 46.140625 10.015625 43.890625 
L 10.015625 52.203125 
Q 14.9375 54.109375 19.578125 55.046875 
Q 24.21875 56 28.609375 56 
Q 40.484375 56 46.34375 49.84375 
Q 52.203125 43.703125 52.203125 31.203125 
z
" id="DejaVuSans-97"/>
    <path d="M 0 30.90625 
L 100 30.90625 
L 100 23.875 
L 0 23.875 
z
" id="DejaVuSans-8213"/>
    <path d="M 19.671875 64.796875 
L 19.671875 37.40625 
L 32.078125 37.40625 
Q 38.96875 37.40625 42.71875 40.96875 
Q 46.484375 44.53125 46.484375 51.125 
Q 46.484375 57.671875 42.71875 61.234375 
Q 38.96875 64.796875 32.078125 64.796875 
z
M 9.8125 72.90625 
L 32.078125 72.90625 
Q 44.34375 72.90625 50.609375 67.359375 
Q 56.890625 61.8125 56.890625 51.125 
Q 56.890625 40.328125 50.609375 34.8125 
Q 44.34375 29.296875 32.078125 29.296875 
L 19.671875 29.296875 
L 19.671875 0 
L 9.8125 0 
z
" id="DejaVuSans-80"/>
    <path d="M 9.8125 72.90625 
L 19.671875 72.90625 
L 19.671875 0 
L 9.8125 0 
z
" id="DejaVuSans-73"/>
    <path d="M 19.671875 64.796875 
L 19.671875 8.109375 
L 31.59375 8.109375 
Q 46.6875 8.109375 53.6875 14.9375 
Q 60.6875 21.78125 60.6875 36.53125 
Q 60.6875 51.171875 53.6875 57.984375 
Q 46.6875 64.796875 31.59375 64.796875 
z
M 9.8125 72.90625 
L 30.078125 72.90625 
Q 51.265625 72.90625 61.171875 64.09375 
Q 71.09375 55.28125 71.09375 36.53125 
Q 71.09375 17.671875 61.125 8.828125 
Q 51.171875 0 30.078125 0 
L 9.8125 0 
z
" id="DejaVuSans-68"/>
   </defs>
   <g transform="translate(1050.875312 28.834928)scale(0.34 -0.34)">
    <use xlink:href="#DejaVuSans-83"/>
    <use x="63.476562" xlink:href="#DejaVuSans-101"/>
    <use x="125" xlink:href="#DejaVuSans-116"/>
    <use x="164.208984" xlink:href="#DejaVuSans-112"/>
    <use x="227.685547" xlink:href="#DejaVuSans-111"/>
    <use x="288.867188" xlink:href="#DejaVuSans-105"/>
    <use x="316.650391" xlink:href="#DejaVuSans-110"/>
    <use x="380.029297" xlink:href="#DejaVuSans-116"/>
    <use x="419.238281" xlink:href="#DejaVuSans-115"/>
    <use x="471.337891" xlink:href="#DejaVuSans-32"/>
    <use x="503.125" xlink:href="#DejaVuSans-40"/>
    <use x="542.138672" xlink:href="#DejaVuSans-45"/>
    <use x="578.222656" xlink:href="#DejaVuSans-45"/>
    <use x="614.306641" xlink:href="#DejaVuSans-41"/>
    <use x="653.320312" xlink:href="#DejaVuSans-32"/>
    <use x="685.107422" xlink:href="#DejaVuSans-97"/>
    <use x="746.386719" xlink:href="#DejaVuSans-110"/>
    <use x="809.765625" xlink:href="#DejaVuSans-100"/>
    <use x="873.242188" xlink:href="#DejaVuSans-32"/>
    <use x="905.029297" xlink:href="#DejaVuSans-76"/>
    <use x="960.726562" xlink:href="#DejaVuSans-101"/>
    <use x="1022.25" xlink:href="#DejaVuSans-110"/>
    <use x="1085.628906" xlink:href="#DejaVuSans-103"/>
    <use x="1149.105469" xlink:href="#DejaVuSans-104"/>
    <use x="1212.484375" xlink:href="#DejaVuSans-116"/>
    <use x="1251.693359" xlink:href="#DejaVuSans-115"/>
    <use x="1303.792969" xlink:href="#DejaVuSans-32"/>
    <use x="1335.580078" xlink:href="#DejaVuSans-40"/>
    <use x="1374.59375" xlink:href="#DejaVuSans-8213"/>
    <use x="1474.59375" xlink:href="#DejaVuSans-41"/>
    <use x="1513.607422" xlink:href="#DejaVuSans-32"/>
    <use x="1545.394531" xlink:href="#DejaVuSans-45"/>
    <use x="1581.478516" xlink:href="#DejaVuSans-32"/>
    <use x="1613.265625" xlink:href="#DejaVuSans-80"/>
    <use x="1673.568359" xlink:href="#DejaVuSans-52"/>
    <use x="1737.191406" xlink:href="#DejaVuSans-48"/>
    <use x="1800.814453" xlink:href="#DejaVuSans-48"/>
    <use x="1864.4375" xlink:href="#DejaVuSans-48"/>
    <use x="1928.060547" xlink:href="#DejaVuSans-48"/>
    <use x="1991.683594" xlink:href="#DejaVuSans-32"/>
    <use x="2023.470703" xlink:href="#DejaVuSans-73"/>
    <use x="2052.962891" xlink:href="#DejaVuSans-48"/>
    <use x="2116.585938" xlink:href="#DejaVuSans-32"/>
    <use x="2148.373047" xlink:href="#DejaVuSans-68"/>
    <use x="2225.375" xlink:href="#DejaVuSans-48"/>
   </g>
   <!-- Bagfile elbow_left_D from 10s for 5s - Logging Rate 30 - Simulation Rate 400 - 99.99% real time speed -->
   <defs>
    <path d="M 19.671875 34.8125 
L 19.671875 8.109375 
L 35.5 8.109375 
Q 43.453125 8.109375 47.28125 11.40625 
Q 51.125 14.703125 51.125 21.484375 
Q 51.125 28.328125 47.28125 31.5625 
Q 43.453125 34.8125 35.5 34.8125 
z
M 19.671875 64.796875 
L 19.671875 42.828125 
L 34.28125 42.828125 
Q 41.5 42.828125 45.03125 45.53125 
Q 48.578125 48.25 48.578125 53.8125 
Q 48.578125 59.328125 45.03125 62.0625 
Q 41.5 64.796875 34.28125 64.796875 
z
M 9.8125 72.90625 
L 35.015625 72.90625 
Q 46.296875 72.90625 52.390625 68.21875 
Q 58.5 63.53125 58.5 54.890625 
Q 58.5 48.1875 55.375 44.234375 
Q 52.25 40.28125 46.1875 39.3125 
Q 53.46875 37.75 57.5 32.78125 
Q 61.53125 27.828125 61.53125 20.40625 
Q 61.53125 10.640625 54.890625 5.3125 
Q 48.25 0 35.984375 0 
L 9.8125 0 
z
" id="DejaVuSans-66"/>
    <path d="M 37.109375 75.984375 
L 37.109375 68.5 
L 28.515625 68.5 
Q 23.6875 68.5 21.796875 66.546875 
Q 19.921875 64.59375 19.921875 59.515625 
L 19.921875 54.6875 
L 34.71875 54.6875 
L 34.71875 47.703125 
L 19.921875 47.703125 
L 19.921875 0 
L 10.890625 0 
L 10.890625 47.703125 
L 2.296875 47.703125 
L 2.296875 54.6875 
L 10.890625 54.6875 
L 10.890625 58.5 
Q 10.890625 67.625 15.140625 71.796875 
Q 19.390625 75.984375 28.609375 75.984375 
z
" id="DejaVuSans-102"/>
    <path d="M 48.6875 27.296875 
Q 48.6875 37.203125 44.609375 42.84375 
Q 40.53125 48.484375 33.40625 48.484375 
Q 26.265625 48.484375 22.1875 42.84375 
Q 18.109375 37.203125 18.109375 27.296875 
Q 18.109375 17.390625 22.1875 11.75 
Q 26.265625 6.109375 33.40625 6.109375 
Q 40.53125 6.109375 44.609375 11.75 
Q 48.6875 17.390625 48.6875 27.296875 
z
M 18.109375 46.390625 
Q 20.953125 51.265625 25.265625 53.625 
Q 29.59375 56 35.59375 56 
Q 45.5625 56 51.78125 48.09375 
Q 58.015625 40.1875 58.015625 27.296875 
Q 58.015625 14.40625 51.78125 6.484375 
Q 45.5625 -1.421875 35.59375 -1.421875 
Q 29.59375 -1.421875 25.265625 0.953125 
Q 20.953125 3.328125 18.109375 8.203125 
L 18.109375 0 
L 9.078125 0 
L 9.078125 75.984375 
L 18.109375 75.984375 
z
" id="DejaVuSans-98"/>
    <path d="M 4.203125 54.6875 
L 13.1875 54.6875 
L 24.421875 12.015625 
L 35.59375 54.6875 
L 46.1875 54.6875 
L 57.421875 12.015625 
L 68.609375 54.6875 
L 77.59375 54.6875 
L 63.28125 0 
L 52.6875 0 
L 40.921875 44.828125 
L 29.109375 0 
L 18.5 0 
z
" id="DejaVuSans-119"/>
    <path d="M 50.984375 -16.609375 
L 50.984375 -23.578125 
L -0.984375 -23.578125 
L -0.984375 -16.609375 
z
" id="DejaVuSans-95"/>
    <path d="M 44.390625 34.1875 
Q 47.5625 33.109375 50.5625 29.59375 
Q 53.5625 26.078125 56.59375 19.921875 
L 66.609375 0 
L 56 0 
L 46.6875 18.703125 
Q 43.0625 26.03125 39.671875 28.421875 
Q 36.28125 30.8125 30.421875 30.8125 
L 19.671875 30.8125 
L 19.671875 0 
L 9.8125 0 
L 9.8125 72.90625 
L 32.078125 72.90625 
Q 44.578125 72.90625 50.734375 67.671875 
Q 56.890625 62.453125 56.890625 51.90625 
Q 56.890625 45.015625 53.6875 40.46875 
Q 50.484375 35.9375 44.390625 34.1875 
z
M 19.671875 64.796875 
L 19.671875 38.921875 
L 32.078125 38.921875 
Q 39.203125 38.921875 42.84375 42.21875 
Q 46.484375 45.515625 46.484375 51.90625 
Q 46.484375 58.296875 42.84375 61.546875 
Q 39.203125 64.796875 32.078125 64.796875 
z
" id="DejaVuSans-82"/>
    <path d="M 10.984375 1.515625 
L 10.984375 10.5 
Q 14.703125 8.734375 18.5 7.8125 
Q 22.3125 6.890625 25.984375 6.890625 
Q 35.75 6.890625 40.890625 13.453125 
Q 46.046875 20.015625 46.78125 33.40625 
Q 43.953125 29.203125 39.59375 26.953125 
Q 35.25 24.703125 29.984375 24.703125 
Q 19.046875 24.703125 12.671875 31.3125 
Q 6.296875 37.9375 6.296875 49.421875 
Q 6.296875 60.640625 12.9375 67.421875 
Q 19.578125 74.21875 30.609375 74.21875 
Q 43.265625 74.21875 49.921875 64.515625 
Q 56.59375 54.828125 56.59375 36.375 
Q 56.59375 19.140625 48.40625 8.859375 
Q 40.234375 -1.421875 26.421875 -1.421875 
Q 22.703125 -1.421875 18.890625 -0.6875 
Q 15.09375 0.046875 10.984375 1.515625 
z
M 30.609375 32.421875 
Q 37.25 32.421875 41.125 36.953125 
Q 45.015625 41.5 45.015625 49.421875 
Q 45.015625 57.28125 41.125 61.84375 
Q 37.25 66.40625 30.609375 66.40625 
Q 23.96875 66.40625 20.09375 61.84375 
Q 16.21875 57.28125 16.21875 49.421875 
Q 16.21875 41.5 20.09375 36.953125 
Q 23.96875 32.421875 30.609375 32.421875 
z
" id="DejaVuSans-57"/>
    <path d="M 72.703125 32.078125 
Q 68.453125 32.078125 66.03125 28.46875 
Q 63.625 24.859375 63.625 18.40625 
Q 63.625 12.0625 66.03125 8.421875 
Q 68.453125 4.78125 72.703125 4.78125 
Q 76.859375 4.78125 79.265625 8.421875 
Q 81.6875 12.0625 81.6875 18.40625 
Q 81.6875 24.8125 79.265625 28.4375 
Q 76.859375 32.078125 72.703125 32.078125 
z
M 72.703125 38.28125 
Q 80.421875 38.28125 84.953125 32.90625 
Q 89.5 27.546875 89.5 18.40625 
Q 89.5 9.28125 84.9375 3.921875 
Q 80.375 -1.421875 72.703125 -1.421875 
Q 64.890625 -1.421875 60.34375 3.921875 
Q 55.8125 9.28125 55.8125 18.40625 
Q 55.8125 27.59375 60.375 32.9375 
Q 64.9375 38.28125 72.703125 38.28125 
z
M 22.3125 68.015625 
Q 18.109375 68.015625 15.6875 64.375 
Q 13.28125 60.75 13.28125 54.390625 
Q 13.28125 47.953125 15.671875 44.328125 
Q 18.0625 40.71875 22.3125 40.71875 
Q 26.5625 40.71875 28.96875 44.328125 
Q 31.390625 47.953125 31.390625 54.390625 
Q 31.390625 60.6875 28.953125 64.34375 
Q 26.515625 68.015625 22.3125 68.015625 
z
M 66.40625 74.21875 
L 74.21875 74.21875 
L 28.609375 -1.421875 
L 20.796875 -1.421875 
z
M 22.3125 74.21875 
Q 30.03125 74.21875 34.609375 68.875 
Q 39.203125 63.53125 39.203125 54.390625 
Q 39.203125 45.171875 34.640625 39.84375 
Q 30.078125 34.515625 22.3125 34.515625 
Q 14.546875 34.515625 10.03125 39.859375 
Q 5.515625 45.21875 5.515625 54.390625 
Q 5.515625 63.484375 10.046875 68.84375 
Q 14.59375 74.21875 22.3125 74.21875 
z
" id="DejaVuSans-37"/>
   </defs>
   <g transform="translate(565.671406 66.90749)scale(0.34 -0.34)">
    <use xlink:href="#DejaVuSans-66"/>
    <use x="68.603516" xlink:href="#DejaVuSans-97"/>
    <use x="129.882812" xlink:href="#DejaVuSans-103"/>
    <use x="193.359375" xlink:href="#DejaVuSans-102"/>
    <use x="228.564453" xlink:href="#DejaVuSans-105"/>
    <use x="256.347656" xlink:href="#DejaVuSans-108"/>
    <use x="284.130859" xlink:href="#DejaVuSans-101"/>
    <use x="345.654297" xlink:href="#DejaVuSans-32"/>
    <use x="377.441406" xlink:href="#DejaVuSans-101"/>
    <use x="438.964844" xlink:href="#DejaVuSans-108"/>
    <use x="466.748047" xlink:href="#DejaVuSans-98"/>
    <use x="530.224609" xlink:href="#DejaVuSans-111"/>
    <use x="591.40625" xlink:href="#DejaVuSans-119"/>
    <use x="673.193359" xlink:href="#DejaVuSans-95"/>
    <use x="723.193359" xlink:href="#DejaVuSans-108"/>
    <use x="750.976562" xlink:href="#DejaVuSans-101"/>
    <use x="812.5" xlink:href="#DejaVuSans-102"/>
    <use x="847.689453" xlink:href="#DejaVuSans-116"/>
    <use x="886.898438" xlink:href="#DejaVuSans-95"/>
    <use x="936.898438" xlink:href="#DejaVuSans-68"/>
    <use x="1013.900391" xlink:href="#DejaVuSans-32"/>
    <use x="1045.6875" xlink:href="#DejaVuSans-102"/>
    <use x="1080.892578" xlink:href="#DejaVuSans-114"/>
    <use x="1121.974609" xlink:href="#DejaVuSans-111"/>
    <use x="1183.15625" xlink:href="#DejaVuSans-109"/>
    <use x="1280.568359" xlink:href="#DejaVuSans-32"/>
    <use x="1312.355469" xlink:href="#DejaVuSans-49"/>
    <use x="1375.978516" xlink:href="#DejaVuSans-48"/>
    <use x="1439.601562" xlink:href="#DejaVuSans-115"/>
    <use x="1491.701172" xlink:href="#DejaVuSans-32"/>
    <use x="1523.488281" xlink:href="#DejaVuSans-102"/>
    <use x="1558.693359" xlink:href="#DejaVuSans-111"/>
    <use x="1619.875" xlink:href="#DejaVuSans-114"/>
    <use x="1660.988281" xlink:href="#DejaVuSans-32"/>
    <use x="1692.775391" xlink:href="#DejaVuSans-53"/>
    <use x="1756.398438" xlink:href="#DejaVuSans-115"/>
    <use x="1808.498047" xlink:href="#DejaVuSans-32"/>
    <use x="1840.285156" xlink:href="#DejaVuSans-45"/>
    <use x="1876.369141" xlink:href="#DejaVuSans-32"/>
    <use x="1908.15625" xlink:href="#DejaVuSans-76"/>
    <use x="1963.853516" xlink:href="#DejaVuSans-111"/>
    <use x="2025.035156" xlink:href="#DejaVuSans-103"/>
    <use x="2088.511719" xlink:href="#DejaVuSans-103"/>
    <use x="2151.988281" xlink:href="#DejaVuSans-105"/>
    <use x="2179.771484" xlink:href="#DejaVuSans-110"/>
    <use x="2243.150391" xlink:href="#DejaVuSans-103"/>
    <use x="2306.626953" xlink:href="#DejaVuSans-32"/>
    <use x="2338.414062" xlink:href="#DejaVuSans-82"/>
    <use x="2407.865234" xlink:href="#DejaVuSans-97"/>
    <use x="2469.144531" xlink:href="#DejaVuSans-116"/>
    <use x="2508.353516" xlink:href="#DejaVuSans-101"/>
    <use x="2569.876953" xlink:href="#DejaVuSans-32"/>
    <use x="2601.664062" xlink:href="#DejaVuSans-51"/>
    <use x="2665.287109" xlink:href="#DejaVuSans-48"/>
    <use x="2728.910156" xlink:href="#DejaVuSans-32"/>
    <use x="2760.697266" xlink:href="#DejaVuSans-45"/>
    <use x="2796.78125" xlink:href="#DejaVuSans-32"/>
    <use x="2828.568359" xlink:href="#DejaVuSans-83"/>
    <use x="2892.044922" xlink:href="#DejaVuSans-105"/>
    <use x="2919.828125" xlink:href="#DejaVuSans-109"/>
    <use x="3017.240234" xlink:href="#DejaVuSans-117"/>
    <use x="3080.619141" xlink:href="#DejaVuSans-108"/>
    <use x="3108.402344" xlink:href="#DejaVuSans-97"/>
    <use x="3169.681641" xlink:href="#DejaVuSans-116"/>
    <use x="3208.890625" xlink:href="#DejaVuSans-105"/>
    <use x="3236.673828" xlink:href="#DejaVuSans-111"/>
    <use x="3297.855469" xlink:href="#DejaVuSans-110"/>
    <use x="3361.234375" xlink:href="#DejaVuSans-32"/>
    <use x="3393.021484" xlink:href="#DejaVuSans-82"/>
    <use x="3462.472656" xlink:href="#DejaVuSans-97"/>
    <use x="3523.751953" xlink:href="#DejaVuSans-116"/>
    <use x="3562.960938" xlink:href="#DejaVuSans-101"/>
    <use x="3624.484375" xlink:href="#DejaVuSans-32"/>
    <use x="3656.271484" xlink:href="#DejaVuSans-52"/>
    <use x="3719.894531" xlink:href="#DejaVuSans-48"/>
    <use x="3783.517578" xlink:href="#DejaVuSans-48"/>
    <use x="3847.140625" xlink:href="#DejaVuSans-32"/>
    <use x="3878.927734" xlink:href="#DejaVuSans-45"/>
    <use x="3915.011719" xlink:href="#DejaVuSans-32"/>
    <use x="3946.798828" xlink:href="#DejaVuSans-57"/>
    <use x="4010.421875" xlink:href="#DejaVuSans-57"/>
    <use x="4074.044922" xlink:href="#DejaVuSans-46"/>
    <use x="4105.832031" xlink:href="#DejaVuSans-57"/>
    <use x="4169.455078" xlink:href="#DejaVuSans-57"/>
    <use x="4233.078125" xlink:href="#DejaVuSans-37"/>
    <use x="4328.097656" xlink:href="#DejaVuSans-32"/>
    <use x="4359.884766" xlink:href="#DejaVuSans-114"/>
    <use x="4400.966797" xlink:href="#DejaVuSans-101"/>
    <use x="4462.490234" xlink:href="#DejaVuSans-97"/>
    <use x="4523.769531" xlink:href="#DejaVuSans-108"/>
    <use x="4551.552734" xlink:href="#DejaVuSans-32"/>
    <use x="4583.339844" xlink:href="#DejaVuSans-116"/>
    <use x="4622.548828" xlink:href="#DejaVuSans-105"/>
    <use x="4650.332031" xlink:href="#DejaVuSans-109"/>
    <use x="4747.744141" xlink:href="#DejaVuSans-101"/>
    <use x="4809.267578" xlink:href="#DejaVuSans-32"/>
    <use x="4841.054688" xlink:href="#DejaVuSans-115"/>
    <use x="4893.154297" xlink:href="#DejaVuSans-112"/>
    <use x="4956.630859" xlink:href="#DejaVuSans-101"/>
    <use x="5018.154297" xlink:href="#DejaVuSans-101"/>
    <use x="5079.677734" xlink:href="#DejaVuSans-100"/>
   </g>
   <!--  -->
   <g transform="translate(1440 105.925677)scale(0.34 -0.34)"/>
  </g>
 </g>
 <defs>
  <clipPath id="p3db8db899f">
   <rect height="930.508742" width="2780.580145" x="96.419615" y="157.9032"/>
  </clipPath>
  <clipPath id="p40557cbb66">
   <rect height="930.508742" width="2780.580145" x="96.419615" y="1204.437422"/>
  </clipPath>
  <clipPath id="p3fe22a4294">
   <rect height="930.508742" width="2780.580145" x="96.419615" y="2250.971643"/>
  </clipPath>
 </defs>
</svg>
