<?xml version="1.0" encoding="utf-8" standalone="no"?>
<!DOCTYPE svg PUBLIC "-//W3C//DTD SVG 1.1//EN"
  "http://www.w3.org/Graphics/SVG/1.1/DTD/svg11.dtd">
<!-- Created with matplotlib (https://matplotlib.org/) -->
<svg height="1080pt" version="1.1" viewBox="0 0 2880 1080" width="2880pt" xmlns="http://www.w3.org/2000/svg" xmlns:xlink="http://www.w3.org/1999/xlink">
 <defs>
  <style type="text/css">
*{stroke-linecap:butt;stroke-linejoin:round;}
  </style>
 </defs>
 <g id="figure_1">
  <g id="patch_1">
   <path d="M 0 1080 
L 2880 1080 
L 2880 0 
L 0 0 
z
" style="fill:#ffffff;"/>
  </g>
  <g id="axes_1">
   <g id="patch_2">
    <path d="M 94.09774 1021.480385 
L 2876.99976 1021.480385 
L 2876.99976 157.9032 
L 94.09774 157.9032 
z
" style="fill:#ffffff;"/>
   </g>
   <g id="matplotlib.axis_1">
    <g id="xtick_1">
     <g id="line2d_1">
      <defs>
       <path d="M 0 0 
L 0 3.5 
" id="mf773dea612" style="stroke:#000000;stroke-width:0.8;"/>
      </defs>
      <g>
       <use style="stroke:#000000;stroke-width:0.8;" x="353.841439" xlink:href="#mf773dea612" y="1021.480385"/>
      </g>
     </g>
     <g id="text_1">
      <!-- 40 -->
      <defs>
       <path d="M 37.796875 64.3125 
L 12.890625 25.390625 
L 37.796875 25.390625 
z
M 35.203125 72.90625 
L 47.609375 72.90625 
L 47.609375 25.390625 
L 58.015625 25.390625 
L 58.015625 17.1875 
L 47.609375 17.1875 
L 47.609375 0 
L 37.796875 0 
L 37.796875 17.1875 
L 4.890625 17.1875 
L 4.890625 26.703125 
z
" id="DejaVuSans-52"/>
       <path d="M 31.78125 66.40625 
Q 24.171875 66.40625 20.328125 58.90625 
Q 16.5 51.421875 16.5 36.375 
Q 16.5 21.390625 20.328125 13.890625 
Q 24.171875 6.390625 31.78125 6.390625 
Q 39.453125 6.390625 43.28125 13.890625 
Q 47.125 21.390625 47.125 36.375 
Q 47.125 51.421875 43.28125 58.90625 
Q 39.453125 66.40625 31.78125 66.40625 
z
M 31.78125 74.21875 
Q 44.046875 74.21875 50.515625 64.515625 
Q 56.984375 54.828125 56.984375 36.375 
Q 56.984375 17.96875 50.515625 8.265625 
Q 44.046875 -1.421875 31.78125 -1.421875 
Q 19.53125 -1.421875 13.0625 8.265625 
Q 6.59375 17.96875 6.59375 36.375 
Q 6.59375 54.828125 13.0625 64.515625 
Q 19.53125 74.21875 31.78125 74.21875 
z
" id="DejaVuSans-48"/>
      </defs>
      <g transform="translate(341.116439 1043.67726)scale(0.2 -0.2)">
       <use xlink:href="#DejaVuSans-52"/>
       <use x="63.623047" xlink:href="#DejaVuSans-48"/>
      </g>
     </g>
    </g>
    <g id="xtick_2">
     <g id="line2d_2">
      <g>
       <use style="stroke:#000000;stroke-width:0.8;" x="886.834048" xlink:href="#mf773dea612" y="1021.480385"/>
      </g>
     </g>
     <g id="text_2">
      <!-- 60 -->
      <defs>
       <path d="M 33.015625 40.375 
Q 26.375 40.375 22.484375 35.828125 
Q 18.609375 31.296875 18.609375 23.390625 
Q 18.609375 15.53125 22.484375 10.953125 
Q 26.375 6.390625 33.015625 6.390625 
Q 39.65625 6.390625 43.53125 10.953125 
Q 47.40625 15.53125 47.40625 23.390625 
Q 47.40625 31.296875 43.53125 35.828125 
Q 39.65625 40.375 33.015625 40.375 
z
M 52.59375 71.296875 
L 52.59375 62.3125 
Q 48.875 64.0625 45.09375 64.984375 
Q 41.3125 65.921875 37.59375 65.921875 
Q 27.828125 65.921875 22.671875 59.328125 
Q 17.53125 52.734375 16.796875 39.40625 
Q 19.671875 43.65625 24.015625 45.921875 
Q 28.375 48.1875 33.59375 48.1875 
Q 44.578125 48.1875 50.953125 41.515625 
Q 57.328125 34.859375 57.328125 23.390625 
Q 57.328125 12.15625 50.6875 5.359375 
Q 44.046875 -1.421875 33.015625 -1.421875 
Q 20.359375 -1.421875 13.671875 8.265625 
Q 6.984375 17.96875 6.984375 36.375 
Q 6.984375 53.65625 15.1875 63.9375 
Q 23.390625 74.21875 37.203125 74.21875 
Q 40.921875 74.21875 44.703125 73.484375 
Q 48.484375 72.75 52.59375 71.296875 
z
" id="DejaVuSans-54"/>
      </defs>
      <g transform="translate(874.109048 1043.67726)scale(0.2 -0.2)">
       <use xlink:href="#DejaVuSans-54"/>
       <use x="63.623047" xlink:href="#DejaVuSans-48"/>
      </g>
     </g>
    </g>
    <g id="xtick_3">
     <g id="line2d_3">
      <g>
       <use style="stroke:#000000;stroke-width:0.8;" x="1419.826658" xlink:href="#mf773dea612" y="1021.480385"/>
      </g>
     </g>
     <g id="text_3">
      <!-- 80 -->
      <defs>
       <path d="M 31.78125 34.625 
Q 24.75 34.625 20.71875 30.859375 
Q 16.703125 27.09375 16.703125 20.515625 
Q 16.703125 13.921875 20.71875 10.15625 
Q 24.75 6.390625 31.78125 6.390625 
Q 38.8125 6.390625 42.859375 10.171875 
Q 46.921875 13.96875 46.921875 20.515625 
Q 46.921875 27.09375 42.890625 30.859375 
Q 38.875 34.625 31.78125 34.625 
z
M 21.921875 38.8125 
Q 15.578125 40.375 12.03125 44.71875 
Q 8.5 49.078125 8.5 55.328125 
Q 8.5 64.0625 14.71875 69.140625 
Q 20.953125 74.21875 31.78125 74.21875 
Q 42.671875 74.21875 48.875 69.140625 
Q 55.078125 64.0625 55.078125 55.328125 
Q 55.078125 49.078125 51.53125 44.71875 
Q 48 40.375 41.703125 38.8125 
Q 48.828125 37.15625 52.796875 32.3125 
Q 56.78125 27.484375 56.78125 20.515625 
Q 56.78125 9.90625 50.3125 4.234375 
Q 43.84375 -1.421875 31.78125 -1.421875 
Q 19.734375 -1.421875 13.25 4.234375 
Q 6.78125 9.90625 6.78125 20.515625 
Q 6.78125 27.484375 10.78125 32.3125 
Q 14.796875 37.15625 21.921875 38.8125 
z
M 18.3125 54.390625 
Q 18.3125 48.734375 21.84375 45.5625 
Q 25.390625 42.390625 31.78125 42.390625 
Q 38.140625 42.390625 41.71875 45.5625 
Q 45.3125 48.734375 45.3125 54.390625 
Q 45.3125 60.0625 41.71875 63.234375 
Q 38.140625 66.40625 31.78125 66.40625 
Q 25.390625 66.40625 21.84375 63.234375 
Q 18.3125 60.0625 18.3125 54.390625 
z
" id="DejaVuSans-56"/>
      </defs>
      <g transform="translate(1407.101658 1043.67726)scale(0.2 -0.2)">
       <use xlink:href="#DejaVuSans-56"/>
       <use x="63.623047" xlink:href="#DejaVuSans-48"/>
      </g>
     </g>
    </g>
    <g id="xtick_4">
     <g id="line2d_4">
      <g>
       <use style="stroke:#000000;stroke-width:0.8;" x="1952.819267" xlink:href="#mf773dea612" y="1021.480385"/>
      </g>
     </g>
     <g id="text_4">
      <!-- 100 -->
      <defs>
       <path d="M 12.40625 8.296875 
L 28.515625 8.296875 
L 28.515625 63.921875 
L 10.984375 60.40625 
L 10.984375 69.390625 
L 28.421875 72.90625 
L 38.28125 72.90625 
L 38.28125 8.296875 
L 54.390625 8.296875 
L 54.390625 0 
L 12.40625 0 
z
" id="DejaVuSans-49"/>
      </defs>
      <g transform="translate(1933.731767 1043.67726)scale(0.2 -0.2)">
       <use xlink:href="#DejaVuSans-49"/>
       <use x="63.623047" xlink:href="#DejaVuSans-48"/>
       <use x="127.246094" xlink:href="#DejaVuSans-48"/>
      </g>
     </g>
    </g>
    <g id="xtick_5">
     <g id="line2d_5">
      <g>
       <use style="stroke:#000000;stroke-width:0.8;" x="2485.811877" xlink:href="#mf773dea612" y="1021.480385"/>
      </g>
     </g>
     <g id="text_5">
      <!-- 120 -->
      <defs>
       <path d="M 19.1875 8.296875 
L 53.609375 8.296875 
L 53.609375 0 
L 7.328125 0 
L 7.328125 8.296875 
Q 12.9375 14.109375 22.625 23.890625 
Q 32.328125 33.6875 34.8125 36.53125 
Q 39.546875 41.84375 41.421875 45.53125 
Q 43.3125 49.21875 43.3125 52.78125 
Q 43.3125 58.59375 39.234375 62.25 
Q 35.15625 65.921875 28.609375 65.921875 
Q 23.96875 65.921875 18.8125 64.3125 
Q 13.671875 62.703125 7.8125 59.421875 
L 7.8125 69.390625 
Q 13.765625 71.78125 18.9375 73 
Q 24.125 74.21875 28.421875 74.21875 
Q 39.75 74.21875 46.484375 68.546875 
Q 53.21875 62.890625 53.21875 53.421875 
Q 53.21875 48.921875 51.53125 44.890625 
Q 49.859375 40.875 45.40625 35.40625 
Q 44.1875 33.984375 37.640625 27.21875 
Q 31.109375 20.453125 19.1875 8.296875 
z
" id="DejaVuSans-50"/>
      </defs>
      <g transform="translate(2466.724377 1043.67726)scale(0.2 -0.2)">
       <use xlink:href="#DejaVuSans-49"/>
       <use x="63.623047" xlink:href="#DejaVuSans-50"/>
       <use x="127.246094" xlink:href="#DejaVuSans-48"/>
      </g>
     </g>
    </g>
    <g id="text_6">
     <!-- Time [s] -->
     <defs>
      <path d="M -0.296875 72.90625 
L 61.375 72.90625 
L 61.375 64.59375 
L 35.5 64.59375 
L 35.5 0 
L 25.59375 0 
L 25.59375 64.59375 
L -0.296875 64.59375 
z
" id="DejaVuSans-84"/>
      <path d="M 9.421875 54.6875 
L 18.40625 54.6875 
L 18.40625 0 
L 9.421875 0 
z
M 9.421875 75.984375 
L 18.40625 75.984375 
L 18.40625 64.59375 
L 9.421875 64.59375 
z
" id="DejaVuSans-105"/>
      <path d="M 52 44.1875 
Q 55.375 50.25 60.0625 53.125 
Q 64.75 56 71.09375 56 
Q 79.640625 56 84.28125 50.015625 
Q 88.921875 44.046875 88.921875 33.015625 
L 88.921875 0 
L 79.890625 0 
L 79.890625 32.71875 
Q 79.890625 40.578125 77.09375 44.375 
Q 74.3125 48.1875 68.609375 48.1875 
Q 61.625 48.1875 57.5625 43.546875 
Q 53.515625 38.921875 53.515625 30.90625 
L 53.515625 0 
L 44.484375 0 
L 44.484375 32.71875 
Q 44.484375 40.625 41.703125 44.40625 
Q 38.921875 48.1875 33.109375 48.1875 
Q 26.21875 48.1875 22.15625 43.53125 
Q 18.109375 38.875 18.109375 30.90625 
L 18.109375 0 
L 9.078125 0 
L 9.078125 54.6875 
L 18.109375 54.6875 
L 18.109375 46.1875 
Q 21.1875 51.21875 25.484375 53.609375 
Q 29.78125 56 35.6875 56 
Q 41.65625 56 45.828125 52.96875 
Q 50 49.953125 52 44.1875 
z
" id="DejaVuSans-109"/>
      <path d="M 56.203125 29.59375 
L 56.203125 25.203125 
L 14.890625 25.203125 
Q 15.484375 15.921875 20.484375 11.0625 
Q 25.484375 6.203125 34.421875 6.203125 
Q 39.59375 6.203125 44.453125 7.46875 
Q 49.3125 8.734375 54.109375 11.28125 
L 54.109375 2.78125 
Q 49.265625 0.734375 44.1875 -0.34375 
Q 39.109375 -1.421875 33.890625 -1.421875 
Q 20.796875 -1.421875 13.15625 6.1875 
Q 5.515625 13.8125 5.515625 26.8125 
Q 5.515625 40.234375 12.765625 48.109375 
Q 20.015625 56 32.328125 56 
Q 43.359375 56 49.78125 48.890625 
Q 56.203125 41.796875 56.203125 29.59375 
z
M 47.21875 32.234375 
Q 47.125 39.59375 43.09375 43.984375 
Q 39.0625 48.390625 32.421875 48.390625 
Q 24.90625 48.390625 20.390625 44.140625 
Q 15.875 39.890625 15.1875 32.171875 
z
" id="DejaVuSans-101"/>
      <path id="DejaVuSans-32"/>
      <path d="M 8.59375 75.984375 
L 29.296875 75.984375 
L 29.296875 69 
L 17.578125 69 
L 17.578125 -6.203125 
L 29.296875 -6.203125 
L 29.296875 -13.1875 
L 8.59375 -13.1875 
z
" id="DejaVuSans-91"/>
      <path d="M 44.28125 53.078125 
L 44.28125 44.578125 
Q 40.484375 46.53125 36.375 47.5 
Q 32.28125 48.484375 27.875 48.484375 
Q 21.1875 48.484375 17.84375 46.4375 
Q 14.5 44.390625 14.5 40.28125 
Q 14.5 37.15625 16.890625 35.375 
Q 19.28125 33.59375 26.515625 31.984375 
L 29.59375 31.296875 
Q 39.15625 29.25 43.1875 25.515625 
Q 47.21875 21.78125 47.21875 15.09375 
Q 47.21875 7.46875 41.1875 3.015625 
Q 35.15625 -1.421875 24.609375 -1.421875 
Q 20.21875 -1.421875 15.453125 -0.5625 
Q 10.6875 0.296875 5.421875 2 
L 5.421875 11.28125 
Q 10.40625 8.6875 15.234375 7.390625 
Q 20.0625 6.109375 24.8125 6.109375 
Q 31.15625 6.109375 34.5625 8.28125 
Q 37.984375 10.453125 37.984375 14.40625 
Q 37.984375 18.0625 35.515625 20.015625 
Q 33.0625 21.96875 24.703125 23.78125 
L 21.578125 24.515625 
Q 13.234375 26.265625 9.515625 29.90625 
Q 5.8125 33.546875 5.8125 39.890625 
Q 5.8125 47.609375 11.28125 51.796875 
Q 16.75 56 26.8125 56 
Q 31.78125 56 36.171875 55.265625 
Q 40.578125 54.546875 44.28125 53.078125 
z
" id="DejaVuSans-115"/>
      <path d="M 30.421875 75.984375 
L 30.421875 -13.1875 
L 9.71875 -13.1875 
L 9.71875 -6.203125 
L 21.390625 -6.203125 
L 21.390625 69 
L 9.71875 69 
L 9.71875 75.984375 
z
" id="DejaVuSans-93"/>
     </defs>
     <g transform="translate(1432.293437 1071.592572)scale(0.26 -0.26)">
      <use xlink:href="#DejaVuSans-84"/>
      <use x="61.037109" xlink:href="#DejaVuSans-105"/>
      <use x="88.820312" xlink:href="#DejaVuSans-109"/>
      <use x="186.232422" xlink:href="#DejaVuSans-101"/>
      <use x="247.755859" xlink:href="#DejaVuSans-32"/>
      <use x="279.542969" xlink:href="#DejaVuSans-91"/>
      <use x="318.556641" xlink:href="#DejaVuSans-115"/>
      <use x="370.65625" xlink:href="#DejaVuSans-93"/>
     </g>
    </g>
   </g>
   <g id="matplotlib.axis_2">
    <g id="ytick_1">
     <g id="line2d_6">
      <defs>
       <path d="M 0 0 
L -3.5 0 
" id="m52333a7e62" style="stroke:#000000;stroke-width:0.8;"/>
      </defs>
      <g>
       <use style="stroke:#000000;stroke-width:0.8;" x="94.09774" xlink:href="#m52333a7e62" y="920.247653"/>
      </g>
     </g>
     <g id="text_7">
      <!-- −140 -->
      <defs>
       <path d="M 10.59375 35.5 
L 73.1875 35.5 
L 73.1875 27.203125 
L 10.59375 27.203125 
z
" id="DejaVuSans-8722"/>
      </defs>
      <g transform="translate(32.163365 927.84609)scale(0.2 -0.2)">
       <use xlink:href="#DejaVuSans-8722"/>
       <use x="83.789062" xlink:href="#DejaVuSans-49"/>
       <use x="147.412109" xlink:href="#DejaVuSans-52"/>
       <use x="211.035156" xlink:href="#DejaVuSans-48"/>
      </g>
     </g>
    </g>
    <g id="ytick_2">
     <g id="line2d_7">
      <g>
       <use style="stroke:#000000;stroke-width:0.8;" x="94.09774" xlink:href="#m52333a7e62" y="816.948946"/>
      </g>
     </g>
     <g id="text_8">
      <!-- −120 -->
      <g transform="translate(32.163365 824.547384)scale(0.2 -0.2)">
       <use xlink:href="#DejaVuSans-8722"/>
       <use x="83.789062" xlink:href="#DejaVuSans-49"/>
       <use x="147.412109" xlink:href="#DejaVuSans-50"/>
       <use x="211.035156" xlink:href="#DejaVuSans-48"/>
      </g>
     </g>
    </g>
    <g id="ytick_3">
     <g id="line2d_8">
      <g>
       <use style="stroke:#000000;stroke-width:0.8;" x="94.09774" xlink:href="#m52333a7e62" y="713.65024"/>
      </g>
     </g>
     <g id="text_9">
      <!-- −100 -->
      <g transform="translate(32.163365 721.248678)scale(0.2 -0.2)">
       <use xlink:href="#DejaVuSans-8722"/>
       <use x="83.789062" xlink:href="#DejaVuSans-49"/>
       <use x="147.412109" xlink:href="#DejaVuSans-48"/>
       <use x="211.035156" xlink:href="#DejaVuSans-48"/>
      </g>
     </g>
    </g>
    <g id="ytick_4">
     <g id="line2d_9">
      <g>
       <use style="stroke:#000000;stroke-width:0.8;" x="94.09774" xlink:href="#m52333a7e62" y="610.351534"/>
      </g>
     </g>
     <g id="text_10">
      <!-- −80 -->
      <g transform="translate(44.888365 617.949971)scale(0.2 -0.2)">
       <use xlink:href="#DejaVuSans-8722"/>
       <use x="83.789062" xlink:href="#DejaVuSans-56"/>
       <use x="147.412109" xlink:href="#DejaVuSans-48"/>
      </g>
     </g>
    </g>
    <g id="ytick_5">
     <g id="line2d_10">
      <g>
       <use style="stroke:#000000;stroke-width:0.8;" x="94.09774" xlink:href="#m52333a7e62" y="507.052827"/>
      </g>
     </g>
     <g id="text_11">
      <!-- −60 -->
      <g transform="translate(44.888365 514.651265)scale(0.2 -0.2)">
       <use xlink:href="#DejaVuSans-8722"/>
       <use x="83.789062" xlink:href="#DejaVuSans-54"/>
       <use x="147.412109" xlink:href="#DejaVuSans-48"/>
      </g>
     </g>
    </g>
    <g id="ytick_6">
     <g id="line2d_11">
      <g>
       <use style="stroke:#000000;stroke-width:0.8;" x="94.09774" xlink:href="#m52333a7e62" y="403.754121"/>
      </g>
     </g>
     <g id="text_12">
      <!-- −40 -->
      <g transform="translate(44.888365 411.352559)scale(0.2 -0.2)">
       <use xlink:href="#DejaVuSans-8722"/>
       <use x="83.789062" xlink:href="#DejaVuSans-52"/>
       <use x="147.412109" xlink:href="#DejaVuSans-48"/>
      </g>
     </g>
    </g>
    <g id="ytick_7">
     <g id="line2d_12">
      <g>
       <use style="stroke:#000000;stroke-width:0.8;" x="94.09774" xlink:href="#m52333a7e62" y="300.455415"/>
      </g>
     </g>
     <g id="text_13">
      <!-- −20 -->
      <g transform="translate(44.888365 308.053852)scale(0.2 -0.2)">
       <use xlink:href="#DejaVuSans-8722"/>
       <use x="83.789062" xlink:href="#DejaVuSans-50"/>
       <use x="147.412109" xlink:href="#DejaVuSans-48"/>
      </g>
     </g>
    </g>
    <g id="ytick_8">
     <g id="line2d_13">
      <g>
       <use style="stroke:#000000;stroke-width:0.8;" x="94.09774" xlink:href="#m52333a7e62" y="197.156708"/>
      </g>
     </g>
     <g id="text_14">
      <!-- 0 -->
      <g transform="translate(74.37274 204.755146)scale(0.2 -0.2)">
       <use xlink:href="#DejaVuSans-48"/>
      </g>
     </g>
    </g>
    <g id="text_15">
     <!-- Length [m] -->
     <defs>
      <path d="M 9.8125 72.90625 
L 19.671875 72.90625 
L 19.671875 8.296875 
L 55.171875 8.296875 
L 55.171875 0 
L 9.8125 0 
z
" id="DejaVuSans-76"/>
      <path d="M 54.890625 33.015625 
L 54.890625 0 
L 45.90625 0 
L 45.90625 32.71875 
Q 45.90625 40.484375 42.875 44.328125 
Q 39.84375 48.1875 33.796875 48.1875 
Q 26.515625 48.1875 22.3125 43.546875 
Q 18.109375 38.921875 18.109375 30.90625 
L 18.109375 0 
L 9.078125 0 
L 9.078125 54.6875 
L 18.109375 54.6875 
L 18.109375 46.1875 
Q 21.34375 51.125 25.703125 53.5625 
Q 30.078125 56 35.796875 56 
Q 45.21875 56 50.046875 50.171875 
Q 54.890625 44.34375 54.890625 33.015625 
z
" id="DejaVuSans-110"/>
      <path d="M 45.40625 27.984375 
Q 45.40625 37.75 41.375 43.109375 
Q 37.359375 48.484375 30.078125 48.484375 
Q 22.859375 48.484375 18.828125 43.109375 
Q 14.796875 37.75 14.796875 27.984375 
Q 14.796875 18.265625 18.828125 12.890625 
Q 22.859375 7.515625 30.078125 7.515625 
Q 37.359375 7.515625 41.375 12.890625 
Q 45.40625 18.265625 45.40625 27.984375 
z
M 54.390625 6.78125 
Q 54.390625 -7.171875 48.1875 -13.984375 
Q 42 -20.796875 29.203125 -20.796875 
Q 24.46875 -20.796875 20.265625 -20.09375 
Q 16.0625 -19.390625 12.109375 -17.921875 
L 12.109375 -9.1875 
Q 16.0625 -11.328125 19.921875 -12.34375 
Q 23.78125 -13.375 27.78125 -13.375 
Q 36.625 -13.375 41.015625 -8.765625 
Q 45.40625 -4.15625 45.40625 5.171875 
L 45.40625 9.625 
Q 42.625 4.78125 38.28125 2.390625 
Q 33.9375 0 27.875 0 
Q 17.828125 0 11.671875 7.65625 
Q 5.515625 15.328125 5.515625 27.984375 
Q 5.515625 40.671875 11.671875 48.328125 
Q 17.828125 56 27.875 56 
Q 33.9375 56 38.28125 53.609375 
Q 42.625 51.21875 45.40625 46.390625 
L 45.40625 54.6875 
L 54.390625 54.6875 
z
" id="DejaVuSans-103"/>
      <path d="M 18.3125 70.21875 
L 18.3125 54.6875 
L 36.8125 54.6875 
L 36.8125 47.703125 
L 18.3125 47.703125 
L 18.3125 18.015625 
Q 18.3125 11.328125 20.140625 9.421875 
Q 21.96875 7.515625 27.59375 7.515625 
L 36.8125 7.515625 
L 36.8125 0 
L 27.59375 0 
Q 17.1875 0 13.234375 3.875 
Q 9.28125 7.765625 9.28125 18.015625 
L 9.28125 47.703125 
L 2.6875 47.703125 
L 2.6875 54.6875 
L 9.28125 54.6875 
L 9.28125 70.21875 
z
" id="DejaVuSans-116"/>
      <path d="M 54.890625 33.015625 
L 54.890625 0 
L 45.90625 0 
L 45.90625 32.71875 
Q 45.90625 40.484375 42.875 44.328125 
Q 39.84375 48.1875 33.796875 48.1875 
Q 26.515625 48.1875 22.3125 43.546875 
Q 18.109375 38.921875 18.109375 30.90625 
L 18.109375 0 
L 9.078125 0 
L 9.078125 75.984375 
L 18.109375 75.984375 
L 18.109375 46.1875 
Q 21.34375 51.125 25.703125 53.5625 
Q 30.078125 56 35.796875 56 
Q 45.21875 56 50.046875 50.171875 
Q 54.890625 44.34375 54.890625 33.015625 
z
" id="DejaVuSans-104"/>
     </defs>
     <g transform="translate(22.756178 661.697574)rotate(-90)scale(0.26 -0.26)">
      <use xlink:href="#DejaVuSans-76"/>
      <use x="55.697266" xlink:href="#DejaVuSans-101"/>
      <use x="117.220703" xlink:href="#DejaVuSans-110"/>
      <use x="180.599609" xlink:href="#DejaVuSans-103"/>
      <use x="244.076172" xlink:href="#DejaVuSans-116"/>
      <use x="283.285156" xlink:href="#DejaVuSans-104"/>
      <use x="346.664062" xlink:href="#DejaVuSans-32"/>
      <use x="378.451172" xlink:href="#DejaVuSans-91"/>
      <use x="417.464844" xlink:href="#DejaVuSans-109"/>
      <use x="514.876953" xlink:href="#DejaVuSans-93"/>
     </g>
    </g>
   </g>
   <g id="line2d_14">
    <path clip-path="url(#pe7e8614bdc)" d="M 220.593286 197.156708 
L 221.461332 227.640364 
L 222.320278 396.490411 
L 223.187059 197.156708 
L 224.053109 197.156708 
L 225.785331 372.595175 
L 226.658535 197.156708 
L 230.117698 197.156708 
L 230.983919 982.226877 
L 233.582019 982.226877 
L 234.451735 197.156708 
L 237.050528 197.156708 
L 238.776846 982.226877 
L 240.512047 982.226877 
L 241.375283 290.433679 
L 242.241238 197.156708 
L 243.9729 197.156708 
L 244.840507 982.226877 
L 246.573459 982.226877 
L 247.439629 779.148354 
L 248.304606 197.156708 
L 250.905266 197.156708 
L 251.770503 982.226877 
L 254.368965 982.226877 
L 255.235104 197.156708 
L 257.831349 197.156708 
L 258.699623 982.226877 
L 261.297774 982.226877 
L 262.16315 197.156708 
L 265.627974 197.156708 
L 266.491851 982.226877 
L 268.22446 982.226877 
L 269.091304 197.156708 
L 272.555823 197.156708 
L 273.423925 982.226877 
L 276.023868 982.226877 
L 276.888571 197.156708 
L 280.350713 197.156708 
L 281.218409 982.226877 
L 283.817595 982.226877 
L 284.68531 197.156708 
L 288.152167 197.156708 
L 289.013579 982.226877 
L 291.60995 982.226877 
L 292.480131 197.156708 
L 295.940608 197.156708 
L 296.809683 982.226877 
L 299.408469 982.226877 
L 300.275529 197.156708 
L 303.739476 197.156708 
L 304.605037 982.226877 
L 307.202654 982.226877 
L 308.066143 197.156708 
L 311.532136 197.156708 
L 312.404032 709.476885 
L 313.264948 982.226877 
L 315.866034 982.226877 
L 316.732485 197.156708 
L 320.196114 197.156708 
L 321.061643 982.226877 
L 323.661204 982.226877 
L 324.522426 197.156708 
L 327.98655 197.156708 
L 328.855593 313.219335 
L 329.717901 982.226877 
L 332.320385 982.226877 
L 333.186378 197.156708 
L 336.653933 197.156708 
L 337.51499 982.226877 
L 340.98102 982.226877 
L 341.847515 197.156708 
L 345.312942 197.156708 
L 346.177067 982.226877 
L 348.77539 982.226877 
L 349.642425 749.460605 
L 350.508564 197.156708 
L 353.972059 197.156708 
L 354.836426 982.226877 
L 357.43457 982.226877 
L 358.302514 790.134172 
L 359.170337 197.156708 
L 362.6307 197.156708 
L 363.498192 982.226877 
L 366.969179 982.226877 
L 367.83096 197.156708 
L 371.291882 197.156708 
L 372.171548 982.226877 
L 375.629999 982.226877 
L 376.489162 197.156708 
L 380.821491 197.156708 
L 381.6854 982.226877 
L 384.285895 982.226877 
L 385.149734 197.156708 
L 389.482876 197.156708 
L 390.350419 982.226877 
L 392.947534 982.226877 
L 393.813794 501.127581 
L 394.685201 197.156708 
L 398.144719 197.156708 
L 399.012205 982.226877 
L 402.472816 982.226877 
L 403.342507 197.156708 
L 407.672084 197.156708 
L 408.540727 982.226877 
L 411.136787 982.226877 
L 412.003606 700.735407 
L 412.866028 197.156708 
L 416.329797 197.156708 
L 417.19722 834.978875 
L 418.065411 982.226877 
L 420.663181 982.226877 
L 421.532719 197.156708 
L 425.856693 197.156708 
L 426.726123 982.226877 
L 430.190807 982.226877 
L 431.053204 197.156708 
L 435.387667 197.156708 
L 436.254899 982.226877 
L 439.715466 982.226877 
L 440.582062 197.156708 
L 444.916316 197.156708 
L 445.778656 982.226877 
L 449.247285 982.226877 
L 450.109371 197.156708 
L 454.441026 197.156708 
L 455.305507 982.226877 
L 457.903835 982.226877 
L 458.772027 853.567299 
L 459.636705 197.156708 
L 463.968271 197.156708 
L 464.831831 982.226877 
L 467.430293 982.226877 
L 468.298262 732.813012 
L 469.166561 197.156708 
L 473.495014 197.156708 
L 474.361865 982.226877 
L 476.960594 982.226877 
L 477.827508 807.812219 
L 478.697294 197.156708 
L 483.019978 197.156708 
L 483.886759 982.226877 
L 487.353971 982.226877 
L 488.217264 197.156708 
L 492.548919 197.156708 
L 493.421063 982.226877 
L 496.88114 982.226877 
L 497.747203 197.156708 
L 502.076044 197.156708 
L 502.941554 982.226877 
L 506.409522 982.226877 
L 507.274181 197.156708 
L 511.602564 197.156708 
L 512.471887 982.226877 
L 515.931754 982.226877 
L 516.805727 197.156708 
L 521.129447 197.156708 
L 522.001387 982.226877 
L 525.463396 982.226877 
L 526.333614 197.156708 
L 531.529382 197.156708 
L 532.390667 982.226877 
L 535.85617 982.226877 
L 536.720702 197.156708 
L 541.053259 197.156708 
L 541.91767 982.226877 
L 545.381363 982.226877 
L 546.249605 197.156708 
L 550.579761 197.156708 
L 551.444197 982.226877 
L 554.914847 982.226877 
L 555.776615 197.156708 
L 560.973386 197.156708 
L 561.83842 982.226877 
L 565.303173 982.226877 
L 566.168175 197.156708 
L 570.500466 197.156708 
L 571.364807 982.226877 
L 574.829916 982.226877 
L 575.697873 197.156708 
L 580.02557 197.156708 
L 580.893037 982.226877 
L 584.357587 982.226877 
L 586.09207 197.156708 
L 590.422957 197.156708 
L 591.287444 982.226877 
L 594.752998 982.226877 
L 595.617542 197.156708 
L 599.945938 197.156708 
L 600.818132 982.226877 
L 604.276285 982.226877 
L 605.143491 197.156708 
L 610.342702 197.156708 
L 611.210462 982.226877 
L 614.669802 982.226877 
L 615.53563 197.156708 
L 619.867133 197.156708 
L 620.732281 982.226877 
L 624.197028 982.226877 
L 625.076999 197.156708 
L 630.261889 197.156708 
L 631.129649 982.226877 
L 634.595381 982.226877 
L 635.463413 197.156708 
L 639.786262 197.156708 
L 640.655038 982.226877 
L 644.119264 982.226877 
L 644.987087 848.830843 
L 645.850838 197.156708 
L 650.183827 197.156708 
L 651.052978 982.226877 
L 654.511454 982.226877 
L 655.376875 197.156708 
L 660.575191 197.156708 
L 661.441527 982.226877 
L 664.911605 982.226877 
L 665.7758 197.156708 
L 670.101724 197.156708 
L 670.97132 982.226877 
L 674.432147 982.226877 
L 675.300821 197.156708 
L 680.497516 197.156708 
L 681.362906 982.226877 
L 684.828549 982.226877 
L 685.69322 197.156708 
L 690.021375 197.156708 
L 690.888683 982.226877 
L 694.352642 982.226877 
L 695.222301 905.7469 
L 696.086998 197.156708 
L 700.41723 197.156708 
L 701.281438 982.226877 
L 704.749832 982.226877 
L 705.613989 197.156708 
L 710.811517 197.156708 
L 711.681913 982.226877 
L 715.144023 982.226877 
L 716.010842 197.156708 
L 720.337732 197.156708 
L 721.207868 982.226877 
L 724.666732 982.226877 
L 725.5335 197.156708 
L 730.733486 197.156708 
L 731.594752 982.226877 
L 735.064233 982.226877 
L 735.929546 197.156708 
L 740.256404 197.156708 
L 741.124672 489.521456 
L 741.989343 982.226877 
L 745.454783 982.226877 
L 746.319448 197.156708 
L 750.650862 197.156708 
L 751.515972 982.226877 
L 754.980205 982.226877 
L 755.848078 197.156708 
L 761.050549 197.156708 
L 761.908765 982.226877 
L 765.374002 982.226877 
L 766.240821 197.156708 
L 770.569477 197.156708 
L 771.440775 447.383447 
L 772.307899 982.226877 
L 775.77048 982.226877 
L 776.632972 197.156708 
L 780.965797 197.156708 
L 781.82989 982.226877 
L 785.297382 982.226877 
L 786.162339 220.825718 
L 787.026382 197.156708 
L 791.364613 197.156708 
L 792.223592 982.226877 
L 795.695334 982.226877 
L 796.554198 197.156708 
L 801.753766 197.156708 
L 802.619829 982.226877 
L 806.086876 982.226877 
L 806.947932 197.156708 
L 811.280261 197.156708 
L 812.148084 982.226877 
L 816.474802 982.226877 
L 817.341608 197.156708 
L 821.673149 197.156708 
L 822.536702 982.226877 
L 826.005052 982.226877 
L 826.870099 197.156708 
L 832.06363 197.156708 
L 832.929178 982.226877 
L 836.395825 982.226877 
L 837.266272 197.156708 
L 842.458647 197.156708 
L 843.325733 982.226877 
L 846.789152 982.226877 
L 847.654217 197.156708 
L 851.984646 197.156708 
L 852.853499 908.998602 
L 853.717141 982.226877 
L 857.183953 982.226877 
L 858.050321 197.156708 
L 862.377732 197.156708 
L 863.244659 982.226877 
L 866.707811 982.226877 
L 867.582407 483.356848 
L 868.443673 197.156708 
L 872.771046 197.156708 
L 873.644918 982.226877 
L 877.103476 982.226877 
L 877.97461 197.156708 
L 883.16673 197.156708 
L 884.033759 982.226877 
L 887.495628 982.226877 
L 888.361418 197.156708 
L 893.560807 197.156708 
L 894.423077 982.226877 
L 897.88823 982.226877 
L 898.762636 197.156708 
L 903.085949 197.156708 
L 903.952189 982.226877 
L 908.281818 982.226877 
L 909.150823 197.156708 
L 913.481182 197.156708 
L 914.346749 982.226877 
L 917.809184 982.226877 
L 918.679592 197.156708 
L 923.877838 197.156708 
L 924.740025 982.226877 
L 928.204747 982.226877 
L 929.072074 197.156708 
L 934.27424 197.156708 
L 935.135188 982.226877 
L 938.596365 982.226877 
L 939.466024 197.156708 
L 944.663577 197.156708 
L 945.525395 982.226877 
L 948.996801 982.226877 
L 949.857604 197.156708 
L 954.189208 197.156708 
L 955.055658 982.226877 
L 959.385357 982.226877 
L 960.249736 197.156708 
L 964.579504 197.156708 
L 965.446914 982.226877 
L 968.909952 982.226877 
L 969.776015 197.156708 
L 974.977482 197.156708 
L 975.844034 982.226877 
L 979.304315 982.226877 
L 980.171579 197.156708 
L 985.373363 197.156708 
L 986.231338 982.226877 
L 989.704421 982.226877 
L 990.567167 197.156708 
L 995.760114 197.156708 
L 996.627791 982.226877 
L 1000.095454 982.226877 
L 1000.959192 197.156708 
L 1005.29011 197.156708 
L 1006.152945 982.226877 
L 1010.491431 982.226877 
L 1011.352258 197.156708 
L 1015.685184 197.156708 
L 1016.553299 982.226877 
L 1020.012678 982.226877 
L 1020.877127 544.269797 
L 1021.743495 197.156708 
L 1026.077094 197.156708 
L 1026.938957 982.226877 
L 1030.40406 982.226877 
L 1031.276026 197.156708 
L 1035.603189 197.156708 
L 1036.471571 982.226877 
L 1041.664244 982.226877 
L 1042.530771 197.156708 
L 1047.727339 197.156708 
L 1048.595283 982.226877 
L 1054.662902 982.226877 
L 1055.523043 197.156708 
L 1062.453808 197.156708 
L 1063.317069 982.226877 
L 1068.512405 982.226877 
L 1069.380298 197.156708 
L 1076.313357 197.156708 
L 1077.173866 982.226877 
L 1083.237076 982.226877 
L 1084.10413 197.156708 
L 1090.166596 197.156708 
L 1091.032334 982.226877 
L 1097.097825 982.226877 
L 1097.960634 197.156708 
L 1104.025216 197.156708 
L 1104.889138 982.226877 
L 1110.954793 982.226877 
L 1111.819026 197.156708 
L 1117.884485 197.156708 
L 1118.749703 982.226877 
L 1123.945705 982.226877 
L 1124.810301 197.156708 
L 1130.874978 197.156708 
L 1131.739998 982.226877 
L 1136.935696 982.226877 
L 1137.80383 197.156708 
L 1143.867567 197.156708 
L 1144.729576 982.226877 
L 1149.932085 982.226877 
L 1150.800486 197.156708 
L 1156.860735 197.156708 
L 1157.730953 982.226877 
L 1162.919998 982.226877 
L 1163.785705 197.156708 
L 1169.851685 197.156708 
L 1170.714825 982.226877 
L 1175.911184 982.226877 
L 1176.78137 197.156708 
L 1181.981617 197.156708 
L 1182.841943 982.226877 
L 1188.040626 982.226877 
L 1188.90566 197.156708 
L 1194.967573 197.156708 
L 1195.833782 982.226877 
L 1200.160882 982.226877 
L 1201.027828 197.156708 
L 1207.090224 197.156708 
L 1207.96097 982.226877 
L 1212.295637 982.226877 
L 1213.153084 197.156708 
L 1219.22027 197.156708 
L 1220.088665 982.226877 
L 1224.415345 982.226877 
L 1225.282978 197.156708 
L 1230.479451 197.156708 
L 1231.349872 461.150533 
L 1232.212091 982.226877 
L 1236.543327 982.226877 
L 1237.408291 197.156708 
L 1242.601949 197.156708 
L 1243.467599 982.226877 
L 1247.800093 982.226877 
L 1248.665647 757.798065 
L 1249.534525 197.156708 
L 1254.729911 197.156708 
L 1255.594392 982.226877 
L 1259.927884 982.226877 
L 1260.799506 197.156708 
L 1265.991716 197.156708 
L 1266.853801 982.226877 
L 1271.185024 982.226877 
L 1272.050331 197.156708 
L 1277.247554 197.156708 
L 1278.113966 370.590108 
L 1278.980963 982.226877 
L 1283.311475 982.226877 
L 1284.174952 197.156708 
L 1289.374214 197.156708 
L 1290.237938 982.226877 
L 1294.5696 982.226877 
L 1295.439564 197.156708 
L 1300.639633 197.156708 
L 1301.502036 982.226877 
L 1305.829771 982.226877 
L 1306.698306 197.156708 
L 1311.890509 197.156708 
L 1312.757461 982.226877 
L 1317.091538 982.226877 
L 1317.961483 197.156708 
L 1323.158191 197.156708 
L 1324.018522 982.226877 
L 1328.352268 982.226877 
L 1329.215605 197.156708 
L 1334.410845 197.156708 
L 1335.279799 982.226877 
L 1339.611868 982.226877 
L 1340.475573 197.156708 
L 1345.676519 197.156708 
L 1346.536063 982.226877 
L 1350.00245 982.226877 
L 1351.734658 197.156708 
L 1356.062749 197.156708 
L 1356.932421 982.226877 
L 1361.261363 982.226877 
L 1362.13214 197.156708 
L 1367.322564 197.156708 
L 1368.187141 982.226877 
L 1372.518421 982.226877 
L 1373.383982 197.156708 
L 1378.580671 197.156708 
L 1379.452439 982.226877 
L 1382.912199 982.226877 
L 1383.782957 197.156708 
L 1388.977429 197.156708 
L 1389.841605 982.226877 
L 1394.1734 982.226877 
L 1395.038757 197.156708 
L 1400.238166 197.156708 
L 1401.102475 982.226877 
L 1404.565983 982.226877 
L 1405.433901 197.156708 
L 1410.630336 197.156708 
L 1411.501711 982.226877 
L 1415.827737 982.226877 
L 1416.693545 197.156708 
L 1421.028765 197.156708 
L 1421.888557 982.226877 
L 1426.221178 982.226877 
L 1427.092368 197.156708 
L 1432.282786 197.156708 
L 1433.149065 982.226877 
L 1436.613933 982.226877 
L 1438.343816 197.156708 
L 1442.672828 197.156708 
L 1443.544152 982.226877 
L 1447.872586 982.226877 
L 1448.737372 197.156708 
L 1453.070336 197.156708 
L 1453.936087 982.226877 
L 1458.264756 982.226877 
L 1459.131264 197.156708 
L 1464.330799 197.156708 
L 1465.195032 982.226877 
L 1468.662232 982.226877 
L 1469.52393 197.156708 
L 1474.723154 197.156708 
L 1475.585799 982.226877 
L 1479.050934 982.226877 
L 1479.916857 197.156708 
L 1485.116748 197.156708 
L 1485.980199 982.226877 
L 1489.444527 982.226877 
L 1490.317255 900.202951 
L 1491.178928 197.156708 
L 1495.508772 197.156708 
L 1496.374225 982.226877 
L 1500.703879 982.226877 
L 1501.575025 197.156708 
L 1505.901114 197.156708 
L 1506.771663 982.226877 
L 1511.100459 982.226877 
L 1511.963656 197.156708 
L 1516.308159 197.156708 
L 1517.161387 982.226877 
L 1521.490685 982.226877 
L 1522.357053 197.156708 
L 1526.688963 197.156708 
L 1527.554308 982.226877 
L 1531.884667 982.226877 
L 1532.753074 197.156708 
L 1537.080288 197.156708 
L 1537.948499 982.226877 
L 1542.285586 982.226877 
L 1543.148237 197.156708 
L 1547.477777 197.156708 
L 1548.340669 982.226877 
L 1552.672363 982.226877 
L 1553.539893 197.156708 
L 1557.871205 197.156708 
L 1558.734066 982.226877 
L 1563.067589 982.226877 
L 1563.935635 197.156708 
L 1568.264825 197.156708 
L 1569.12719 982.226877 
L 1573.462187 982.226877 
L 1574.323809 197.156708 
L 1578.657319 197.156708 
L 1579.520231 982.226877 
L 1583.850939 982.226877 
L 1584.720789 197.156708 
L 1589.046637 197.156708 
L 1589.913545 982.226877 
L 1594.243643 982.226877 
L 1595.108912 197.156708 
L 1599.441209 197.156708 
L 1600.311605 982.226877 
L 1603.77235 982.226877 
L 1604.646475 718.999152 
L 1605.507379 197.156708 
L 1609.834707 197.156708 
L 1610.703973 982.226877 
L 1614.165988 982.226877 
L 1615.033696 197.156708 
L 1620.227545 197.156708 
L 1621.096556 982.226877 
L 1624.558597 982.226877 
L 1625.426134 197.156708 
L 1630.620427 197.156708 
L 1631.488168 982.226877 
L 1634.950354 982.226877 
L 1635.822059 197.156708 
L 1640.148956 197.156708 
L 1641.015838 753.019747 
L 1641.881793 982.226877 
L 1645.345009 982.226877 
L 1646.21146 197.156708 
L 1650.545803 197.156708 
L 1651.406871 982.226877 
L 1655.737516 982.226877 
L 1656.608154 197.156708 
L 1660.937039 197.156708 
L 1661.802753 982.226877 
L 1666.131873 982.226877 
L 1666.998393 197.156708 
L 1671.327564 197.156708 
L 1672.200184 982.226877 
L 1675.665694 982.226877 
L 1676.526356 432.719833 
L 1677.393353 197.156708 
L 1681.724729 197.156708 
L 1682.587773 982.226877 
L 1686.05139 982.226877 
L 1686.919562 197.156708 
L 1692.113849 197.156708 
L 1692.983369 982.226877 
L 1696.445289 982.226877 
L 1697.310824 197.156708 
L 1701.644328 197.156708 
L 1702.511745 982.226877 
L 1706.838241 982.226877 
L 1707.705797 197.156708 
L 1712.034713 197.156708 
L 1712.899722 982.226877 
L 1717.235418 982.226877 
L 1718.100312 197.156708 
L 1722.433104 197.156708 
L 1723.298297 982.226877 
L 1726.76225 982.226877 
L 1727.625835 309.273948 
L 1728.492406 197.156708 
L 1732.82713 197.156708 
L 1733.688949 982.226877 
L 1737.154725 982.226877 
L 1738.018069 197.156708 
L 1742.349006 197.156708 
L 1743.218316 330.42964 
L 1744.08502 982.226877 
L 1747.549329 982.226877 
L 1748.411466 197.156708 
L 1752.743223 197.156708 
L 1753.60783 982.226877 
L 1757.940382 982.226877 
L 1758.808834 197.156708 
L 1763.135234 197.156708 
L 1764.004131 982.226877 
L 1767.468173 982.226877 
L 1768.331987 747.444239 
L 1769.198596 197.156708 
L 1773.532494 197.156708 
L 1774.400711 982.226877 
L 1777.859892 982.226877 
L 1778.729748 197.156708 
L 1783.92483 197.156708 
L 1784.7898 982.226877 
L 1788.252597 982.226877 
L 1789.118736 197.156708 
L 1793.448841 197.156708 
L 1794.316924 982.226877 
L 1798.650365 982.226877 
L 1799.513505 197.156708 
L 1803.845065 197.156708 
L 1804.711878 982.226877 
L 1808.173467 982.226877 
L 1809.042967 647.244298 
L 1809.908973 197.156708 
L 1814.238182 197.156708 
L 1815.107397 982.226877 
L 1818.569342 982.226877 
L 1819.435729 197.156708 
L 1823.771527 197.156708 
L 1824.630035 387.870456 
L 1825.496117 982.226877 
L 1828.959867 982.226877 
L 1829.827842 197.156708 
L 1834.159466 197.156708 
L 1835.029277 982.226877 
L 1838.491642 982.226877 
L 1839.353823 197.156708 
L 1844.551649 197.156708 
L 1845.421194 522.912151 
L 1846.285363 982.226877 
L 1851.481989 982.226877 
L 1852.346628 673.261961 
L 1853.210652 197.156708 
L 1859.276383 197.156708 
L 1860.140489 982.226877 
L 1865.339275 982.226877 
L 1866.203247 197.156708 
L 1872.264862 197.156708 
L 1873.135328 982.226877 
L 1878.336928 982.226877 
L 1879.194852 197.156708 
L 1885.259542 197.156708 
L 1886.128693 982.226877 
L 1891.321379 982.226877 
L 1892.189087 197.156708 
L 1898.24964 197.156708 
L 1899.116231 982.226877 
L 1903.445929 982.226877 
L 1904.315391 197.156708 
L 1910.375347 197.156708 
L 1911.243952 982.226877 
L 1916.437616 982.226877 
L 1917.30786 197.156708 
L 1923.366806 197.156708 
L 1924.239718 982.226877 
L 1928.565649 982.226877 
L 1929.429666 197.156708 
L 1935.492532 197.156708 
L 1936.360463 982.226877 
L 1940.691432 982.226877 
L 1941.554845 197.156708 
L 1947.618652 197.156708 
L 1948.483685 982.226877 
L 1952.820106 982.226877 
L 1953.684085 197.156708 
L 1959.744937 197.156708 
L 1960.609176 982.226877 
L 1964.945629 982.226877 
L 1965.808991 197.156708 
L 1971.008399 197.156708 
L 1971.868001 494.571913 
L 1972.738174 982.226877 
L 1977.068038 982.226877 
L 1977.931979 197.156708 
L 1983.127562 197.156708 
L 1983.99616 982.226877 
L 1988.327853 982.226877 
L 1989.192271 197.156708 
L 1995.257443 197.156708 
L 1996.120336 982.226877 
L 2000.450326 982.226877 
L 2001.324154 197.156708 
L 2006.516446 197.156708 
L 2007.382083 982.226877 
L 2011.711743 982.226877 
L 2012.575201 197.156708 
L 2017.773262 197.156708 
L 2018.639458 982.226877 
L 2022.972467 982.226877 
L 2023.83691 197.156708 
L 2029.033961 197.156708 
L 2029.899566 955.111883 
L 2030.7673 982.226877 
L 2034.230955 982.226877 
L 2035.096389 197.156708 
L 2040.292423 197.156708 
L 2041.158378 497.725534 
L 2042.027694 982.226877 
L 2045.498852 982.226877 
L 2046.357354 197.156708 
L 2051.553026 197.156708 
L 2052.420824 546.198118 
L 2053.28683 982.226877 
L 2056.74995 982.226877 
L 2057.615073 197.156708 
L 2062.818357 197.156708 
L 2063.682082 969.96452 
L 2064.544822 982.226877 
L 2068.010967 982.226877 
L 2068.874901 197.156708 
L 2074.070453 197.156708 
L 2074.93623 982.226877 
L 2079.268101 982.226877 
L 2080.133192 197.156708 
L 2085.338153 197.156708 
L 2086.199057 982.226877 
L 2090.529181 982.226877 
L 2091.396921 197.156708 
L 2096.590255 197.156708 
L 2097.458898 982.226877 
L 2100.924166 982.226877 
L 2101.784816 313.391834 
L 2102.653458 197.156708 
L 2106.981492 197.156708 
L 2107.853292 805.480881 
L 2108.71649 982.226877 
L 2112.184096 982.226877 
L 2113.047872 197.156708 
L 2118.241771 197.156708 
L 2119.110287 982.226877 
L 2123.438034 982.226877 
L 2124.304866 197.156708 
L 2129.501491 197.156708 
L 2130.367129 982.226877 
L 2133.835167 982.226877 
L 2134.700506 197.156708 
L 2139.897995 197.156708 
L 2140.767159 982.226877 
L 2145.094525 982.226877 
L 2145.960855 197.156708 
L 2151.15457 197.156708 
L 2152.028143 982.226877 
L 2155.487039 982.226877 
L 2156.351418 197.156708 
L 2161.551818 197.156708 
L 2162.415771 982.226877 
L 2166.744573 982.226877 
L 2167.612631 197.156708 
L 2171.943753 197.156708 
L 2172.807808 882.728109 
L 2173.676432 982.226877 
L 2177.137665 982.226877 
L 2178.003557 197.156708 
L 2183.200601 197.156708 
L 2184.066823 982.226877 
L 2187.533616 982.226877 
L 2188.397087 197.156708 
L 2193.593312 197.156708 
L 2194.46346 982.226877 
L 2198.792625 982.226877 
L 2199.657659 197.156708 
L 2203.989848 197.156708 
L 2204.855936 848.200427 
L 2205.724883 982.226877 
L 2209.186352 982.226877 
L 2210.050693 197.156708 
L 2215.249669 197.156708 
L 2216.115764 982.226877 
L 2219.577671 982.226877 
L 2220.442915 197.156708 
L 2225.643257 197.156708 
L 2226.50606 982.226877 
L 2229.975414 982.226877 
L 2230.840931 197.156708 
L 2236.035351 197.156708 
L 2236.904902 982.226877 
L 2241.23352 982.226877 
L 2242.096826 197.156708 
L 2246.430209 197.156708 
L 2247.296101 982.226877 
L 2251.62639 982.226877 
L 2252.489829 197.156708 
L 2256.82332 197.156708 
L 2257.688227 440.184438 
L 2258.555186 982.226877 
L 2262.016584 982.226877 
L 2262.882488 197.156708 
L 2268.084095 197.156708 
L 2268.948118 982.226877 
L 2272.409962 982.226877 
L 2273.275015 197.156708 
L 2278.476958 197.156708 
L 2279.34271 982.226877 
L 2282.803899 982.226877 
L 2283.674511 197.156708 
L 2288.869307 197.156708 
L 2289.733228 982.226877 
L 2293.199761 982.226877 
L 2294.069249 197.156708 
L 2299.260441 197.156708 
L 2300.128817 982.226877 
L 2303.591538 982.226877 
L 2304.457848 197.156708 
L 2309.655281 197.156708 
L 2310.520041 982.226877 
L 2313.988645 982.226877 
L 2314.850248 666.227673 
L 2315.715338 197.156708 
L 2320.048925 197.156708 
L 2320.915211 982.226877 
L 2325.245646 982.226877 
L 2326.108977 197.156708 
L 2330.440181 197.156708 
L 2331.309313 982.226877 
L 2335.638668 982.226877 
L 2336.502545 197.156708 
L 2340.834937 197.156708 
L 2341.700378 982.226877 
L 2346.030292 982.226877 
L 2346.897683 197.156708 
L 2351.226898 197.156708 
L 2352.09373 982.226877 
L 2356.423466 982.226877 
L 2357.290254 197.156708 
L 2361.622716 197.156708 
L 2362.487775 982.226877 
L 2366.824386 982.226877 
L 2367.681808 197.156708 
L 2372.016862 197.156708 
L 2372.881362 831.50219 
L 2373.748677 982.226877 
L 2377.212439 982.226877 
L 2378.078299 197.156708 
L 2382.406701 197.156708 
L 2383.272777 774.960657 
L 2384.140612 982.226877 
L 2387.603295 982.226877 
L 2388.470387 197.156708 
L 2392.802144 197.156708 
L 2393.669814 798.159984 
L 2394.538133 982.226877 
L 2397.998725 982.226877 
L 2398.866617 197.156708 
L 2403.195 197.156708 
L 2404.067411 902.312286 
L 2404.925919 982.226877 
L 2408.390679 982.226877 
L 2409.256418 197.156708 
L 2413.586345 197.156708 
L 2414.45331 982.226877 
L 2418.786541 982.226877 
L 2419.649891 197.156708 
L 2423.982944 197.156708 
L 2424.845506 982.226877 
L 2429.177784 982.226877 
L 2430.04811 197.156708 
L 2434.375534 197.156708 
L 2435.239405 982.226877 
L 2439.571384 982.226877 
L 2440.438318 197.156708 
L 2444.770983 197.156708 
L 2445.634956 982.226877 
L 2449.966306 982.226877 
L 2450.831454 197.156708 
L 2455.160345 197.156708 
L 2456.028626 982.226877 
L 2460.359499 982.226877 
L 2461.221947 197.156708 
L 2465.554498 197.156708 
L 2466.424253 982.226877 
L 2469.884241 982.226877 
L 2470.750977 529.973725 
L 2471.616888 197.156708 
L 2475.95191 197.156708 
L 2476.815711 982.226877 
L 2480.276983 982.226877 
L 2481.143465 197.156708 
L 2486.343998 197.156708 
L 2487.205773 982.226877 
L 2490.671651 982.226877 
L 2491.537853 197.156708 
L 2496.736537 197.156708 
L 2497.599112 982.226877 
L 2501.072018 982.226877 
L 2501.932286 197.156708 
L 2507.127571 197.156708 
L 2507.995419 982.226877 
L 2511.458317 982.226877 
L 2512.325823 197.156708 
L 2517.519767 197.156708 
L 2518.385893 982.226877 
L 2521.856321 982.226877 
L 2522.719988 197.156708 
L 2527.913449 197.156708 
L 2528.779646 982.226877 
L 2532.244355 982.226877 
L 2533.112025 197.156708 
L 2537.444386 197.156708 
L 2538.30954 660.391059 
L 2539.172344 982.226877 
L 2542.644715 982.226877 
L 2543.507754 197.156708 
L 2547.84129 197.156708 
L 2548.703375 982.226877 
L 2553.031384 982.226877 
L 2553.896525 197.156708 
L 2558.226656 197.156708 
L 2559.093112 982.226877 
L 2562.565618 982.226877 
L 2563.42614 905.818806 
L 2564.290011 197.156708 
L 2568.621526 197.156708 
L 2569.491757 982.226877 
L 2572.952565 982.226877 
L 2573.817377 197.156708 
L 2579.021582 197.156708 
L 2579.88037 982.226877 
L 2583.345625 982.226877 
L 2584.214719 197.156708 
L 2589.407577 197.156708 
L 2590.277191 982.226877 
L 2593.740738 982.226877 
L 2594.603624 197.156708 
L 2599.802117 197.156708 
L 2600.670251 982.226877 
L 2604.13545 982.226877 
L 2605.001913 197.156708 
L 2610.19728 197.156708 
L 2611.06483 982.226877 
L 2614.526413 982.226877 
L 2615.39477 197.156708 
L 2619.726215 197.156708 
L 2620.589953 392.861777 
L 2621.457108 982.226877 
L 2624.921691 982.226877 
L 2625.785561 197.156708 
L 2630.118297 197.156708 
L 2630.981037 982.226877 
L 2635.312844 982.226877 
L 2636.18068 197.156708 
L 2640.510842 197.156708 
L 2641.376009 982.226877 
L 2647.435953 982.226877 
L 2648.307728 197.156708 
L 2653.503216 197.156708 
L 2654.366108 982.226877 
L 2660.432081 982.226877 
L 2661.295914 197.156708 
L 2668.223826 197.156708 
L 2669.098753 982.226877 
L 2675.15564 982.226877 
L 2676.019981 197.156708 
L 2682.083603 197.156708 
L 2682.946312 982.226877 
L 2689.01191 982.226877 
L 2689.879123 197.156708 
L 2696.80842 197.156708 
L 2697.671256 982.226877 
L 2702.871725 982.226877 
L 2703.735246 197.156708 
L 2709.802814 197.156708 
L 2710.666323 650.850364 
L 2711.532195 982.226877 
L 2716.725803 982.226877 
L 2717.591904 197.156708 
L 2723.66066 197.156708 
L 2724.524321 982.226877 
L 2729.718379 982.226877 
L 2730.58551 197.156708 
L 2736.648554 197.156708 
L 2737.51475 708.267035 
L 2738.378037 982.226877 
L 2743.576898 982.226877 
L 2744.442434 197.156708 
L 2750.504214 197.156708 
L 2750.504214 197.156708 
" style="fill:none;stroke:#008000;stroke-linecap:square;stroke-width:3;"/>
   </g>
   <g id="line2d_15">
    <path clip-path="url(#pe7e8614bdc)" d="M 220.593286 407.849339 
L 221.461332 197.156708 
L 222.320278 197.156708 
L 223.187059 262.934887 
L 224.053109 389.387735 
L 224.927013 197.156708 
L 225.785331 197.156708 
L 226.658535 311.34501 
L 227.530571 359.631005 
L 228.386074 982.226877 
L 230.117698 982.226877 
L 230.983919 197.156708 
L 233.582019 197.156708 
L 234.451735 982.226877 
L 237.050528 982.226877 
L 237.910326 197.156708 
L 241.375283 197.156708 
L 242.241238 982.226877 
L 243.9729 982.226877 
L 244.840507 197.156708 
L 247.439629 197.156708 
L 248.304606 982.226877 
L 250.905266 982.226877 
L 251.770503 197.156708 
L 254.368965 197.156708 
L 255.235104 982.226877 
L 257.831349 982.226877 
L 258.699623 197.156708 
L 261.297774 197.156708 
L 262.16315 982.226877 
L 264.765145 982.226877 
L 265.627974 651.06951 
L 266.491851 197.156708 
L 268.22446 197.156708 
L 269.091304 410.69885 
L 269.960442 982.226877 
L 272.555823 982.226877 
L 273.423925 197.156708 
L 276.023868 197.156708 
L 276.888571 982.226877 
L 280.350713 982.226877 
L 281.218409 197.156708 
L 283.817595 197.156708 
L 284.68531 982.226877 
L 288.152167 982.226877 
L 289.013579 197.156708 
L 291.60995 197.156708 
L 292.480131 982.226877 
L 295.940608 982.226877 
L 296.809683 197.156708 
L 299.408469 197.156708 
L 300.275529 982.226877 
L 303.739476 982.226877 
L 304.605037 197.156708 
L 307.202654 197.156708 
L 308.066143 982.226877 
L 311.532136 982.226877 
L 312.404032 197.156708 
L 315.866034 197.156708 
L 316.732485 982.226877 
L 320.196114 982.226877 
L 321.061643 197.156708 
L 323.661204 197.156708 
L 324.522426 982.226877 
L 327.98655 982.226877 
L 328.855593 197.156708 
L 332.320385 197.156708 
L 333.186378 982.226877 
L 336.653933 982.226877 
L 337.51499 197.156708 
L 340.98102 197.156708 
L 341.847515 982.226877 
L 345.312942 982.226877 
L 346.177067 197.156708 
L 349.642425 197.156708 
L 350.508564 982.226877 
L 353.972059 982.226877 
L 354.836426 197.156708 
L 358.302514 197.156708 
L 359.170337 982.226877 
L 362.6307 982.226877 
L 363.498192 197.156708 
L 366.969179 197.156708 
L 367.83096 982.226877 
L 371.291882 982.226877 
L 372.171548 197.156708 
L 375.629999 197.156708 
L 376.489162 982.226877 
L 379.953229 982.226877 
L 380.821491 202.977941 
L 381.6854 197.156708 
L 384.285895 197.156708 
L 385.149734 982.226877 
L 389.482876 982.226877 
L 390.350419 197.156708 
L 393.813794 197.156708 
L 394.685201 982.226877 
L 398.144719 982.226877 
L 399.012205 197.156708 
L 402.472816 197.156708 
L 403.342507 982.226877 
L 407.672084 982.226877 
L 408.540727 197.156708 
L 412.003606 197.156708 
L 412.866028 982.226877 
L 416.329797 982.226877 
L 417.19722 197.156708 
L 420.663181 197.156708 
L 421.532719 982.226877 
L 425.856693 982.226877 
L 426.726123 197.156708 
L 430.190807 197.156708 
L 431.053204 982.226877 
L 435.387667 982.226877 
L 436.254899 197.156708 
L 439.715466 197.156708 
L 440.582062 982.226877 
L 444.916316 982.226877 
L 445.778656 197.156708 
L 449.247285 197.156708 
L 450.109371 982.226877 
L 454.441026 982.226877 
L 455.305507 197.156708 
L 458.772027 197.156708 
L 459.636705 982.226877 
L 463.100029 982.226877 
L 463.968271 832.209175 
L 464.831831 197.156708 
L 468.298262 197.156708 
L 469.166561 982.226877 
L 472.629822 982.226877 
L 473.495014 813.970193 
L 474.361865 197.156708 
L 477.827508 197.156708 
L 478.697294 982.226877 
L 482.15591 982.226877 
L 483.019978 981.701479 
L 483.886759 197.156708 
L 487.353971 197.156708 
L 488.217264 982.226877 
L 492.548919 982.226877 
L 493.421063 197.156708 
L 496.88114 197.156708 
L 497.747203 982.226877 
L 502.076044 982.226877 
L 502.941554 197.156708 
L 506.409522 197.156708 
L 507.274181 982.226877 
L 511.602564 982.226877 
L 512.471887 197.156708 
L 515.931754 197.156708 
L 516.805727 982.226877 
L 521.129447 982.226877 
L 522.001387 197.156708 
L 525.463396 197.156708 
L 526.333614 827.501651 
L 527.196634 982.226877 
L 530.65795 982.226877 
L 532.390667 197.156708 
L 535.85617 197.156708 
L 536.720702 982.226877 
L 541.053259 982.226877 
L 541.91767 197.156708 
L 545.381363 197.156708 
L 546.249605 982.226877 
L 550.579761 982.226877 
L 551.444197 197.156708 
L 554.914847 197.156708 
L 555.776615 982.226877 
L 560.104204 982.226877 
L 561.83842 197.156708 
L 565.303173 197.156708 
L 566.168175 982.226877 
L 570.500466 982.226877 
L 571.364807 197.156708 
L 574.829916 197.156708 
L 575.697873 982.226877 
L 580.02557 982.226877 
L 580.893037 197.156708 
L 585.22229 197.156708 
L 586.09207 982.226877 
L 590.422957 982.226877 
L 591.287444 197.156708 
L 594.752998 197.156708 
L 595.617542 982.226877 
L 599.945938 982.226877 
L 600.818132 197.156708 
L 604.276285 197.156708 
L 605.143491 291.530371 
L 606.009624 982.226877 
L 610.342702 982.226877 
L 611.210462 197.156708 
L 614.669802 197.156708 
L 615.53563 982.226877 
L 619.867133 982.226877 
L 620.732281 197.156708 
L 624.197028 197.156708 
L 625.076999 247.321995 
L 625.929084 982.226877 
L 630.261889 982.226877 
L 631.129649 197.156708 
L 634.595381 197.156708 
L 635.463413 982.226877 
L 639.786262 982.226877 
L 640.655038 197.156708 
L 644.987087 197.156708 
L 645.850838 982.226877 
L 650.183827 982.226877 
L 651.052978 197.156708 
L 654.511454 197.156708 
L 655.376875 982.226877 
L 659.710551 982.226877 
L 660.575191 218.62025 
L 661.441527 197.156708 
L 664.911605 197.156708 
L 665.7758 982.226877 
L 670.101724 982.226877 
L 670.97132 197.156708 
L 674.432147 197.156708 
L 675.300821 974.371914 
L 676.166001 982.226877 
L 680.497516 982.226877 
L 681.362906 197.156708 
L 684.828549 197.156708 
L 685.69322 982.226877 
L 690.021375 982.226877 
L 690.888683 197.156708 
L 695.222301 197.156708 
L 696.086998 982.226877 
L 700.41723 982.226877 
L 701.281438 197.156708 
L 704.749832 197.156708 
L 705.613989 982.226877 
L 709.945619 982.226877 
L 710.811517 642.961913 
L 711.681913 197.156708 
L 715.144023 197.156708 
L 716.010842 982.226877 
L 720.337732 982.226877 
L 721.207868 197.156708 
L 724.666732 197.156708 
L 725.5335 372.330302 
L 726.404226 982.226877 
L 730.733486 982.226877 
L 731.594752 197.156708 
L 735.064233 197.156708 
L 735.929546 982.226877 
L 740.256404 982.226877 
L 741.124672 197.156708 
L 745.454783 197.156708 
L 746.319448 982.226877 
L 750.650862 982.226877 
L 751.515972 197.156708 
L 754.980205 197.156708 
L 755.848078 798.353408 
L 756.711632 982.226877 
L 761.050549 982.226877 
L 761.908765 197.156708 
L 765.374002 197.156708 
L 766.240821 982.226877 
L 770.569477 982.226877 
L 771.440775 197.156708 
L 775.77048 197.156708 
L 776.632972 982.226877 
L 780.965797 982.226877 
L 781.82989 197.156708 
L 786.162339 197.156708 
L 787.026382 982.226877 
L 791.364613 982.226877 
L 792.223592 197.156708 
L 795.695334 197.156708 
L 796.554198 982.226877 
L 801.753766 982.226877 
L 802.619829 197.156708 
L 806.086876 197.156708 
L 806.947932 982.226877 
L 811.280261 982.226877 
L 812.148084 197.156708 
L 816.474802 197.156708 
L 817.341608 982.226877 
L 821.673149 982.226877 
L 822.536702 197.156708 
L 826.005052 197.156708 
L 827.734643 982.226877 
L 832.06363 982.226877 
L 832.929178 197.156708 
L 836.395825 197.156708 
L 837.266272 982.226877 
L 841.592012 982.226877 
L 842.458647 973.714493 
L 843.325733 197.156708 
L 846.789152 197.156708 
L 847.654217 982.226877 
L 851.984646 982.226877 
L 852.853499 197.156708 
L 857.183953 197.156708 
L 858.050321 982.226877 
L 862.377732 982.226877 
L 863.244659 197.156708 
L 867.582407 197.156708 
L 868.443673 982.226877 
L 872.771046 982.226877 
L 873.644918 197.156708 
L 877.103476 197.156708 
L 877.97461 982.226877 
L 883.16673 982.226877 
L 884.033759 197.156708 
L 887.495628 197.156708 
L 888.361418 982.226877 
L 892.695004 982.226877 
L 893.560807 358.799427 
L 894.423077 197.156708 
L 897.88823 197.156708 
L 898.762636 982.226877 
L 903.085949 982.226877 
L 903.952189 197.156708 
L 908.281818 197.156708 
L 909.150823 982.226877 
L 913.481182 982.226877 
L 914.346749 197.156708 
L 917.809184 197.156708 
L 918.679592 344.18028 
L 919.545166 982.226877 
L 923.877838 982.226877 
L 924.740025 197.156708 
L 928.204747 197.156708 
L 929.072074 982.226877 
L 934.27424 982.226877 
L 935.135188 197.156708 
L 938.596365 197.156708 
L 939.466024 982.226877 
L 943.796148 982.226877 
L 944.663577 257.188399 
L 945.525395 197.156708 
L 948.996801 197.156708 
L 949.857604 982.226877 
L 954.189208 982.226877 
L 955.055658 197.156708 
L 959.385357 197.156708 
L 960.249736 982.226877 
L 964.579504 982.226877 
L 965.446914 197.156708 
L 968.909952 197.156708 
L 969.776015 272.206162 
L 970.650173 982.226877 
L 974.977482 982.226877 
L 975.844034 197.156708 
L 979.304315 197.156708 
L 980.171579 982.226877 
L 985.373363 982.226877 
L 986.231338 197.156708 
L 989.704421 197.156708 
L 990.567167 982.226877 
L 994.893428 982.226877 
L 995.760114 547.654374 
L 996.627791 197.156708 
L 1000.095454 197.156708 
L 1000.959192 982.226877 
L 1005.29011 982.226877 
L 1006.152945 197.156708 
L 1010.491431 197.156708 
L 1011.352258 982.226877 
L 1015.685184 982.226877 
L 1016.553299 197.156708 
L 1020.877127 197.156708 
L 1021.743495 982.226877 
L 1026.077094 982.226877 
L 1026.938957 197.156708 
L 1030.40406 197.156708 
L 1031.276026 982.226877 
L 1035.603189 982.226877 
L 1036.471571 197.156708 
L 1041.664244 197.156708 
L 1042.530771 982.226877 
L 1047.727339 982.226877 
L 1048.595283 197.156708 
L 1054.662902 197.156708 
L 1055.523043 982.226877 
L 1061.59077 982.226877 
L 1062.453808 302.534531 
L 1063.317069 197.156708 
L 1068.512405 197.156708 
L 1069.380298 982.226877 
L 1076.313357 982.226877 
L 1077.173866 197.156708 
L 1083.237076 197.156708 
L 1084.10413 982.226877 
L 1090.166596 982.226877 
L 1091.032334 197.156708 
L 1097.097825 197.156708 
L 1097.960634 982.226877 
L 1104.025216 982.226877 
L 1104.889138 197.156708 
L 1110.954793 197.156708 
L 1111.819026 982.226877 
L 1117.884485 982.226877 
L 1118.749703 197.156708 
L 1123.945705 197.156708 
L 1124.810301 982.226877 
L 1130.874978 982.226877 
L 1131.739998 197.156708 
L 1136.935696 197.156708 
L 1137.80383 982.226877 
L 1143.867567 982.226877 
L 1144.729576 197.156708 
L 1149.932085 197.156708 
L 1150.800486 982.226877 
L 1156.860735 982.226877 
L 1157.730953 197.156708 
L 1162.919998 197.156708 
L 1163.785705 982.226877 
L 1169.851685 982.226877 
L 1170.714825 197.156708 
L 1175.911184 197.156708 
L 1176.78137 982.226877 
L 1181.981617 982.226877 
L 1182.841943 197.156708 
L 1188.040626 197.156708 
L 1188.90566 982.226877 
L 1194.09942 982.226877 
L 1194.967573 798.801259 
L 1195.833782 197.156708 
L 1200.160882 197.156708 
L 1201.027828 982.226877 
L 1207.090224 982.226877 
L 1207.96097 197.156708 
L 1212.295637 197.156708 
L 1213.153084 982.226877 
L 1219.22027 982.226877 
L 1220.088665 197.156708 
L 1224.415345 197.156708 
L 1225.282978 982.226877 
L 1230.479451 982.226877 
L 1231.349872 197.156708 
L 1236.543327 197.156708 
L 1237.408291 982.226877 
L 1242.601949 982.226877 
L 1243.467599 197.156708 
L 1248.665647 197.156708 
L 1249.534525 982.226877 
L 1254.729911 982.226877 
L 1255.594392 197.156708 
L 1259.927884 197.156708 
L 1260.799506 982.226877 
L 1265.991716 982.226877 
L 1266.853801 197.156708 
L 1271.185024 197.156708 
L 1272.050331 450.086015 
L 1272.917881 982.226877 
L 1277.247554 982.226877 
L 1278.113966 197.156708 
L 1283.311475 197.156708 
L 1284.174952 982.226877 
L 1289.374214 982.226877 
L 1290.237938 197.156708 
L 1294.5696 197.156708 
L 1295.439564 982.226877 
L 1300.639633 982.226877 
L 1301.502036 197.156708 
L 1305.829771 197.156708 
L 1306.698306 982.226877 
L 1311.890509 982.226877 
L 1312.757461 197.156708 
L 1317.091538 197.156708 
L 1317.961483 982.226877 
L 1323.158191 982.226877 
L 1324.018522 197.156708 
L 1328.352268 197.156708 
L 1329.215605 982.226877 
L 1334.410845 982.226877 
L 1335.279799 197.156708 
L 1339.611868 197.156708 
L 1340.475573 982.226877 
L 1344.803048 982.226877 
L 1345.676519 211.793488 
L 1346.536063 197.156708 
L 1350.869783 197.156708 
L 1351.734658 982.226877 
L 1356.062749 982.226877 
L 1356.932421 197.156708 
L 1361.261363 197.156708 
L 1362.13214 982.226877 
L 1367.322564 982.226877 
L 1368.187141 197.156708 
L 1372.518421 197.156708 
L 1373.383982 982.226877 
L 1377.71788 982.226877 
L 1378.580671 497.37553 
L 1379.452439 197.156708 
L 1382.912199 197.156708 
L 1383.782957 235.844815 
L 1384.647235 982.226877 
L 1388.977429 982.226877 
L 1389.841605 197.156708 
L 1394.1734 197.156708 
L 1395.038757 982.226877 
L 1399.370235 982.226877 
L 1400.238166 659.470689 
L 1401.102475 197.156708 
L 1404.565983 197.156708 
L 1405.433901 502.762219 
L 1406.301794 982.226877 
L 1410.630336 982.226877 
L 1411.501711 197.156708 
L 1415.827737 197.156708 
L 1416.693545 982.226877 
L 1421.028765 982.226877 
L 1421.888557 197.156708 
L 1426.221178 197.156708 
L 1427.092368 982.226877 
L 1432.282786 982.226877 
L 1433.149065 197.156708 
L 1437.479405 197.156708 
L 1438.343816 982.226877 
L 1442.672828 982.226877 
L 1443.544152 197.156708 
L 1447.872586 197.156708 
L 1448.737372 982.226877 
L 1453.070336 982.226877 
L 1453.936087 197.156708 
L 1458.264756 197.156708 
L 1459.131264 982.226877 
L 1463.465664 982.226877 
L 1464.330799 250.680251 
L 1465.195032 197.156708 
L 1468.662232 197.156708 
L 1469.52393 982.226877 
L 1474.723154 982.226877 
L 1475.585799 197.156708 
L 1479.050934 197.156708 
L 1479.916857 454.865589 
L 1480.788397 982.226877 
L 1485.116748 982.226877 
L 1485.980199 197.156708 
L 1490.317255 197.156708 
L 1491.178928 982.226877 
L 1495.508772 982.226877 
L 1496.374225 197.156708 
L 1500.703879 197.156708 
L 1501.575025 982.226877 
L 1505.901114 982.226877 
L 1506.771663 197.156708 
L 1511.100459 197.156708 
L 1511.963656 982.226877 
L 1516.308159 982.226877 
L 1517.161387 197.156708 
L 1521.490685 197.156708 
L 1522.357053 982.226877 
L 1526.688963 982.226877 
L 1527.554308 197.156708 
L 1531.884667 197.156708 
L 1532.753074 982.226877 
L 1537.080288 982.226877 
L 1537.948499 197.156708 
L 1542.285586 197.156708 
L 1543.148237 982.226877 
L 1547.477777 982.226877 
L 1548.340669 197.156708 
L 1552.672363 197.156708 
L 1553.539893 982.226877 
L 1557.871205 982.226877 
L 1558.734066 197.156708 
L 1563.067589 197.156708 
L 1563.935635 982.226877 
L 1568.264825 982.226877 
L 1569.12719 197.156708 
L 1573.462187 197.156708 
L 1574.323809 982.226877 
L 1578.657319 982.226877 
L 1579.520231 197.156708 
L 1583.850939 197.156708 
L 1584.720789 982.226877 
L 1589.046637 982.226877 
L 1589.913545 197.156708 
L 1594.243643 197.156708 
L 1595.108912 982.226877 
L 1599.441209 982.226877 
L 1600.311605 197.156708 
L 1604.646475 197.156708 
L 1605.507379 982.226877 
L 1609.834707 982.226877 
L 1610.703973 197.156708 
L 1614.165988 197.156708 
L 1615.033696 462.650861 
L 1615.896246 982.226877 
L 1620.227545 982.226877 
L 1621.096556 197.156708 
L 1624.558597 197.156708 
L 1625.426134 982.226877 
L 1629.758424 982.226877 
L 1630.620427 617.833883 
L 1631.488168 197.156708 
L 1634.950354 197.156708 
L 1635.822059 982.226877 
L 1640.148956 982.226877 
L 1641.015838 197.156708 
L 1645.345009 197.156708 
L 1646.21146 982.226877 
L 1650.545803 982.226877 
L 1651.406871 197.156708 
L 1655.737516 197.156708 
L 1656.608154 982.226877 
L 1660.937039 982.226877 
L 1661.802753 197.156708 
L 1666.131873 197.156708 
L 1666.998393 982.226877 
L 1671.327564 982.226877 
L 1672.200184 197.156708 
L 1676.526356 197.156708 
L 1677.393353 982.226877 
L 1681.724729 982.226877 
L 1682.587773 197.156708 
L 1686.05139 197.156708 
L 1686.919562 982.226877 
L 1691.250258 982.226877 
L 1692.983369 197.156708 
L 1696.445289 197.156708 
L 1697.310824 982.226877 
L 1701.644328 982.226877 
L 1702.511745 197.156708 
L 1706.838241 197.156708 
L 1707.705797 982.226877 
L 1712.034713 982.226877 
L 1712.899722 197.156708 
L 1717.235418 197.156708 
L 1718.100312 982.226877 
L 1722.433104 982.226877 
L 1723.298297 197.156708 
L 1727.625835 197.156708 
L 1728.492406 982.226877 
L 1732.82713 982.226877 
L 1733.688949 197.156708 
L 1737.154725 197.156708 
L 1738.018069 982.226877 
L 1742.349006 982.226877 
L 1743.218316 197.156708 
L 1747.549329 197.156708 
L 1748.411466 982.226877 
L 1752.743223 982.226877 
L 1753.60783 197.156708 
L 1757.940382 197.156708 
L 1758.808834 982.226877 
L 1763.135234 982.226877 
L 1764.004131 197.156708 
L 1768.331987 197.156708 
L 1769.198596 982.226877 
L 1773.532494 982.226877 
L 1774.400711 197.156708 
L 1777.859892 197.156708 
L 1778.729748 982.226877 
L 1783.057096 982.226877 
L 1783.92483 296.929876 
L 1784.7898 197.156708 
L 1788.252597 197.156708 
L 1789.118736 982.226877 
L 1793.448841 982.226877 
L 1794.316924 197.156708 
L 1798.650365 197.156708 
L 1799.513505 982.226877 
L 1803.845065 982.226877 
L 1804.711878 197.156708 
L 1809.042967 197.156708 
L 1809.908973 982.226877 
L 1814.238182 982.226877 
L 1815.107397 197.156708 
L 1818.569342 197.156708 
L 1819.435729 982.226877 
L 1823.771527 982.226877 
L 1824.630035 197.156708 
L 1828.959867 197.156708 
L 1829.827842 982.226877 
L 1834.159466 982.226877 
L 1835.029277 197.156708 
L 1838.491642 197.156708 
L 1839.353823 982.226877 
L 1844.551649 982.226877 
L 1845.421194 197.156708 
L 1852.346628 197.156708 
L 1853.210652 982.226877 
L 1859.276383 982.226877 
L 1860.140489 197.156708 
L 1865.339275 197.156708 
L 1866.203247 982.226877 
L 1872.264862 982.226877 
L 1873.135328 197.156708 
L 1878.336928 197.156708 
L 1879.194852 982.226877 
L 1885.259542 982.226877 
L 1886.128693 197.156708 
L 1891.321379 197.156708 
L 1892.189087 982.226877 
L 1898.24964 982.226877 
L 1899.116231 197.156708 
L 1903.445929 197.156708 
L 1904.315391 939.178296 
L 1905.180406 982.226877 
L 1910.375347 982.226877 
L 1911.243952 197.156708 
L 1916.437616 197.156708 
L 1917.30786 982.226877 
L 1923.366806 982.226877 
L 1924.239718 197.156708 
L 1928.565649 197.156708 
L 1929.429666 982.226877 
L 1935.492532 982.226877 
L 1936.360463 197.156708 
L 1940.691432 197.156708 
L 1941.554845 982.226877 
L 1947.618652 982.226877 
L 1948.483685 197.156708 
L 1952.820106 197.156708 
L 1953.684085 982.226877 
L 1959.744937 982.226877 
L 1960.609176 197.156708 
L 1964.945629 197.156708 
L 1965.808991 982.226877 
L 1971.008399 982.226877 
L 1971.868001 197.156708 
L 1977.068038 197.156708 
L 1977.931979 982.226877 
L 1983.127562 982.226877 
L 1983.99616 197.156708 
L 1988.327853 197.156708 
L 1989.192271 982.226877 
L 1994.392276 982.226877 
L 1995.257443 762.936143 
L 1996.120336 197.156708 
L 2000.450326 197.156708 
L 2001.324154 982.226877 
L 2006.516446 982.226877 
L 2007.382083 197.156708 
L 2011.711743 197.156708 
L 2012.575201 982.226877 
L 2017.773262 982.226877 
L 2018.639458 197.156708 
L 2022.972467 197.156708 
L 2023.83691 982.226877 
L 2029.033961 982.226877 
L 2029.899566 197.156708 
L 2034.230955 197.156708 
L 2035.096389 982.226877 
L 2040.292423 982.226877 
L 2041.158378 197.156708 
L 2045.498852 197.156708 
L 2046.357354 982.226877 
L 2051.553026 982.226877 
L 2052.420824 197.156708 
L 2056.74995 197.156708 
L 2057.615073 982.226877 
L 2062.818357 982.226877 
L 2063.682082 197.156708 
L 2068.010967 197.156708 
L 2068.874901 982.226877 
L 2074.070453 982.226877 
L 2074.93623 197.156708 
L 2079.268101 197.156708 
L 2080.133192 982.226877 
L 2085.338153 982.226877 
L 2086.199057 197.156708 
L 2090.529181 197.156708 
L 2091.396921 982.226877 
L 2096.590255 982.226877 
L 2097.458898 197.156708 
L 2101.784816 197.156708 
L 2102.653458 982.226877 
L 2106.981492 982.226877 
L 2107.853292 197.156708 
L 2112.184096 197.156708 
L 2113.047872 982.226877 
L 2118.241771 982.226877 
L 2119.110287 197.156708 
L 2123.438034 197.156708 
L 2124.304866 982.226877 
L 2128.636058 982.226877 
L 2129.501491 787.594915 
L 2130.367129 197.156708 
L 2133.835167 197.156708 
L 2134.700506 982.226877 
L 2139.897995 982.226877 
L 2140.767159 197.156708 
L 2145.094525 197.156708 
L 2145.960855 982.226877 
L 2150.28892 982.226877 
L 2151.15457 636.736267 
L 2152.028143 197.156708 
L 2155.487039 197.156708 
L 2156.351418 982.226877 
L 2161.551818 982.226877 
L 2162.415771 197.156708 
L 2166.744573 197.156708 
L 2167.612631 982.226877 
L 2171.943753 982.226877 
L 2172.807808 197.156708 
L 2177.137665 197.156708 
L 2178.003557 982.226877 
L 2183.200601 982.226877 
L 2184.066823 197.156708 
L 2187.533616 197.156708 
L 2188.397087 982.226877 
L 2193.593312 982.226877 
L 2194.46346 197.156708 
L 2198.792625 197.156708 
L 2199.657659 982.226877 
L 2203.989848 982.226877 
L 2204.855936 197.156708 
L 2209.186352 197.156708 
L 2210.050693 982.226877 
L 2215.249669 982.226877 
L 2216.115764 197.156708 
L 2219.577671 197.156708 
L 2220.442915 982.226877 
L 2225.643257 982.226877 
L 2226.50606 197.156708 
L 2229.975414 197.156708 
L 2230.840931 491.110759 
L 2231.703842 982.226877 
L 2236.035351 982.226877 
L 2236.904902 197.156708 
L 2241.23352 197.156708 
L 2242.096826 982.226877 
L 2246.430209 982.226877 
L 2247.296101 197.156708 
L 2251.62639 197.156708 
L 2252.489829 982.226877 
L 2256.82332 982.226877 
L 2257.688227 197.156708 
L 2262.016584 197.156708 
L 2262.882488 982.226877 
L 2268.084095 982.226877 
L 2268.948118 197.156708 
L 2272.409962 197.156708 
L 2273.275015 982.226877 
L 2278.476958 982.226877 
L 2279.34271 197.156708 
L 2282.803899 197.156708 
L 2283.674511 982.226877 
L 2288.869307 982.226877 
L 2289.733228 197.156708 
L 2293.199761 197.156708 
L 2294.069249 982.226877 
L 2299.260441 982.226877 
L 2300.128817 197.156708 
L 2303.591538 197.156708 
L 2304.457848 284.000171 
L 2305.323466 982.226877 
L 2309.655281 982.226877 
L 2310.520041 197.156708 
L 2314.850248 197.156708 
L 2315.715338 982.226877 
L 2320.048925 982.226877 
L 2320.915211 197.156708 
L 2325.245646 197.156708 
L 2326.108977 982.226877 
L 2330.440181 982.226877 
L 2331.309313 197.156708 
L 2335.638668 197.156708 
L 2336.502545 982.226877 
L 2340.834937 982.226877 
L 2341.700378 197.156708 
L 2346.030292 197.156708 
L 2346.897683 982.226877 
L 2351.226898 982.226877 
L 2352.09373 197.156708 
L 2356.423466 197.156708 
L 2357.290254 982.226877 
L 2361.622716 982.226877 
L 2362.487775 197.156708 
L 2366.824386 197.156708 
L 2367.681808 982.226877 
L 2372.016862 982.226877 
L 2372.881362 197.156708 
L 2377.212439 197.156708 
L 2378.078299 982.226877 
L 2382.406701 982.226877 
L 2383.272777 197.156708 
L 2387.603295 197.156708 
L 2388.470387 982.226877 
L 2392.802144 982.226877 
L 2393.669814 197.156708 
L 2397.998725 197.156708 
L 2398.866617 982.226877 
L 2403.195 982.226877 
L 2404.067411 197.156708 
L 2408.390679 197.156708 
L 2409.256418 982.226877 
L 2413.586345 982.226877 
L 2414.45331 197.156708 
L 2418.786541 197.156708 
L 2419.649891 982.226877 
L 2423.982944 982.226877 
L 2424.845506 197.156708 
L 2429.177784 197.156708 
L 2430.04811 982.226877 
L 2434.375534 982.226877 
L 2435.239405 197.156708 
L 2439.571384 197.156708 
L 2440.438318 982.226877 
L 2444.770983 982.226877 
L 2445.634956 197.156708 
L 2449.966306 197.156708 
L 2450.831454 982.226877 
L 2455.160345 982.226877 
L 2456.028626 197.156708 
L 2460.359499 197.156708 
L 2461.221947 982.226877 
L 2465.554498 982.226877 
L 2466.424253 197.156708 
L 2470.750977 197.156708 
L 2471.616888 982.226877 
L 2475.95191 982.226877 
L 2476.815711 197.156708 
L 2480.276983 197.156708 
L 2481.143465 450.665418 
L 2482.008652 982.226877 
L 2486.343998 982.226877 
L 2487.205773 197.156708 
L 2490.671651 197.156708 
L 2491.537853 982.226877 
L 2496.736537 982.226877 
L 2497.599112 197.156708 
L 2501.072018 197.156708 
L 2501.932286 982.226877 
L 2507.127571 982.226877 
L 2507.995419 197.156708 
L 2511.458317 197.156708 
L 2512.325823 982.226877 
L 2517.519767 982.226877 
L 2518.385893 197.156708 
L 2521.856321 197.156708 
L 2522.719988 982.226877 
L 2527.049941 982.226877 
L 2527.913449 431.436657 
L 2528.779646 197.156708 
L 2532.244355 197.156708 
L 2533.112025 982.226877 
L 2537.444386 982.226877 
L 2538.30954 197.156708 
L 2542.644715 197.156708 
L 2543.507754 982.226877 
L 2547.84129 982.226877 
L 2548.703375 197.156708 
L 2553.031384 197.156708 
L 2553.896525 982.226877 
L 2558.226656 982.226877 
L 2559.093112 197.156708 
L 2563.42614 197.156708 
L 2564.290011 982.226877 
L 2568.621526 982.226877 
L 2569.491757 197.156708 
L 2572.952565 197.156708 
L 2573.817377 248.394454 
L 2574.686375 982.226877 
L 2579.021582 982.226877 
L 2579.88037 197.156708 
L 2583.345625 197.156708 
L 2584.214719 982.226877 
L 2589.407577 982.226877 
L 2590.277191 197.156708 
L 2593.740738 197.156708 
L 2594.603624 982.226877 
L 2599.802117 982.226877 
L 2600.670251 197.156708 
L 2604.13545 197.156708 
L 2605.001913 982.226877 
L 2609.331103 982.226877 
L 2610.19728 901.980591 
L 2611.06483 197.156708 
L 2614.526413 197.156708 
L 2615.39477 982.226877 
L 2619.726215 982.226877 
L 2620.589953 197.156708 
L 2624.921691 197.156708 
L 2625.785561 982.226877 
L 2630.118297 982.226877 
L 2630.981037 197.156708 
L 2635.312844 197.156708 
L 2636.18068 982.226877 
L 2640.510842 982.226877 
L 2641.376009 197.156708 
L 2647.435953 197.156708 
L 2648.307728 982.226877 
L 2653.503216 982.226877 
L 2654.366108 197.156708 
L 2660.432081 197.156708 
L 2661.295914 982.226877 
L 2668.223826 982.226877 
L 2669.098753 197.156708 
L 2675.15564 197.156708 
L 2676.019981 982.226877 
L 2682.083603 982.226877 
L 2682.946312 197.156708 
L 2689.01191 197.156708 
L 2689.879123 982.226877 
L 2695.94521 982.226877 
L 2696.80842 480.715366 
L 2697.671256 197.156708 
L 2702.871725 197.156708 
L 2703.735246 982.226877 
L 2709.802814 982.226877 
L 2710.666323 197.156708 
L 2716.725803 197.156708 
L 2717.591904 982.226877 
L 2723.66066 982.226877 
L 2724.524321 197.156708 
L 2729.718379 197.156708 
L 2730.58551 982.226877 
L 2736.648554 982.226877 
L 2737.51475 197.156708 
L 2743.576898 197.156708 
L 2744.442434 982.226877 
L 2749.639409 982.226877 
L 2750.504214 904.396578 
L 2750.504214 904.396578 
" style="fill:none;stroke:#ff0000;stroke-linecap:square;stroke-width:3;"/>
   </g>
   <g id="patch_3">
    <path d="M 94.09774 1021.480385 
L 94.09774 157.9032 
" style="fill:none;stroke:#000000;stroke-linecap:square;stroke-linejoin:miter;stroke-width:0.8;"/>
   </g>
   <g id="patch_4">
    <path d="M 2876.99976 1021.480385 
L 2876.99976 157.9032 
" style="fill:none;stroke:#000000;stroke-linecap:square;stroke-linejoin:miter;stroke-width:0.8;"/>
   </g>
   <g id="patch_5">
    <path d="M 94.09774 1021.480385 
L 2876.99976 1021.480385 
" style="fill:none;stroke:#000000;stroke-linecap:square;stroke-linejoin:miter;stroke-width:0.8;"/>
   </g>
   <g id="patch_6">
    <path d="M 94.09774 157.9032 
L 2876.99976 157.9032 
" style="fill:none;stroke:#000000;stroke-linecap:square;stroke-linejoin:miter;stroke-width:0.8;"/>
   </g>
   <g id="text_16">
    <!-- Biceps (red) and Triceps (green) -->
    <defs>
     <path d="M 19.671875 34.8125 
L 19.671875 8.109375 
L 35.5 8.109375 
Q 43.453125 8.109375 47.28125 11.40625 
Q 51.125 14.703125 51.125 21.484375 
Q 51.125 28.328125 47.28125 31.5625 
Q 43.453125 34.8125 35.5 34.8125 
z
M 19.671875 64.796875 
L 19.671875 42.828125 
L 34.28125 42.828125 
Q 41.5 42.828125 45.03125 45.53125 
Q 48.578125 48.25 48.578125 53.8125 
Q 48.578125 59.328125 45.03125 62.0625 
Q 41.5 64.796875 34.28125 64.796875 
z
M 9.8125 72.90625 
L 35.015625 72.90625 
Q 46.296875 72.90625 52.390625 68.21875 
Q 58.5 63.53125 58.5 54.890625 
Q 58.5 48.1875 55.375 44.234375 
Q 52.25 40.28125 46.1875 39.3125 
Q 53.46875 37.75 57.5 32.78125 
Q 61.53125 27.828125 61.53125 20.40625 
Q 61.53125 10.640625 54.890625 5.3125 
Q 48.25 0 35.984375 0 
L 9.8125 0 
z
" id="DejaVuSans-66"/>
     <path d="M 48.78125 52.59375 
L 48.78125 44.1875 
Q 44.96875 46.296875 41.140625 47.34375 
Q 37.3125 48.390625 33.40625 48.390625 
Q 24.65625 48.390625 19.8125 42.84375 
Q 14.984375 37.3125 14.984375 27.296875 
Q 14.984375 17.28125 19.8125 11.734375 
Q 24.65625 6.203125 33.40625 6.203125 
Q 37.3125 6.203125 41.140625 7.25 
Q 44.96875 8.296875 48.78125 10.40625 
L 48.78125 2.09375 
Q 45.015625 0.34375 40.984375 -0.53125 
Q 36.96875 -1.421875 32.421875 -1.421875 
Q 20.0625 -1.421875 12.78125 6.34375 
Q 5.515625 14.109375 5.515625 27.296875 
Q 5.515625 40.671875 12.859375 48.328125 
Q 20.21875 56 33.015625 56 
Q 37.15625 56 41.109375 55.140625 
Q 45.0625 54.296875 48.78125 52.59375 
z
" id="DejaVuSans-99"/>
     <path d="M 18.109375 8.203125 
L 18.109375 -20.796875 
L 9.078125 -20.796875 
L 9.078125 54.6875 
L 18.109375 54.6875 
L 18.109375 46.390625 
Q 20.953125 51.265625 25.265625 53.625 
Q 29.59375 56 35.59375 56 
Q 45.5625 56 51.78125 48.09375 
Q 58.015625 40.1875 58.015625 27.296875 
Q 58.015625 14.40625 51.78125 6.484375 
Q 45.5625 -1.421875 35.59375 -1.421875 
Q 29.59375 -1.421875 25.265625 0.953125 
Q 20.953125 3.328125 18.109375 8.203125 
z
M 48.6875 27.296875 
Q 48.6875 37.203125 44.609375 42.84375 
Q 40.53125 48.484375 33.40625 48.484375 
Q 26.265625 48.484375 22.1875 42.84375 
Q 18.109375 37.203125 18.109375 27.296875 
Q 18.109375 17.390625 22.1875 11.75 
Q 26.265625 6.109375 33.40625 6.109375 
Q 40.53125 6.109375 44.609375 11.75 
Q 48.6875 17.390625 48.6875 27.296875 
z
" id="DejaVuSans-112"/>
     <path d="M 31 75.875 
Q 24.46875 64.65625 21.28125 53.65625 
Q 18.109375 42.671875 18.109375 31.390625 
Q 18.109375 20.125 21.3125 9.0625 
Q 24.515625 -2 31 -13.1875 
L 23.1875 -13.1875 
Q 15.875 -1.703125 12.234375 9.375 
Q 8.59375 20.453125 8.59375 31.390625 
Q 8.59375 42.28125 12.203125 53.3125 
Q 15.828125 64.359375 23.1875 75.875 
z
" id="DejaVuSans-40"/>
     <path d="M 41.109375 46.296875 
Q 39.59375 47.171875 37.8125 47.578125 
Q 36.03125 48 33.890625 48 
Q 26.265625 48 22.1875 43.046875 
Q 18.109375 38.09375 18.109375 28.8125 
L 18.109375 0 
L 9.078125 0 
L 9.078125 54.6875 
L 18.109375 54.6875 
L 18.109375 46.1875 
Q 20.953125 51.171875 25.484375 53.578125 
Q 30.03125 56 36.53125 56 
Q 37.453125 56 38.578125 55.875 
Q 39.703125 55.765625 41.0625 55.515625 
z
" id="DejaVuSans-114"/>
     <path d="M 45.40625 46.390625 
L 45.40625 75.984375 
L 54.390625 75.984375 
L 54.390625 0 
L 45.40625 0 
L 45.40625 8.203125 
Q 42.578125 3.328125 38.25 0.953125 
Q 33.9375 -1.421875 27.875 -1.421875 
Q 17.96875 -1.421875 11.734375 6.484375 
Q 5.515625 14.40625 5.515625 27.296875 
Q 5.515625 40.1875 11.734375 48.09375 
Q 17.96875 56 27.875 56 
Q 33.9375 56 38.25 53.625 
Q 42.578125 51.265625 45.40625 46.390625 
z
M 14.796875 27.296875 
Q 14.796875 17.390625 18.875 11.75 
Q 22.953125 6.109375 30.078125 6.109375 
Q 37.203125 6.109375 41.296875 11.75 
Q 45.40625 17.390625 45.40625 27.296875 
Q 45.40625 37.203125 41.296875 42.84375 
Q 37.203125 48.484375 30.078125 48.484375 
Q 22.953125 48.484375 18.875 42.84375 
Q 14.796875 37.203125 14.796875 27.296875 
z
" id="DejaVuSans-100"/>
     <path d="M 8.015625 75.875 
L 15.828125 75.875 
Q 23.140625 64.359375 26.78125 53.3125 
Q 30.421875 42.28125 30.421875 31.390625 
Q 30.421875 20.453125 26.78125 9.375 
Q 23.140625 -1.703125 15.828125 -13.1875 
L 8.015625 -13.1875 
Q 14.5 -2 17.703125 9.0625 
Q 20.90625 20.125 20.90625 31.390625 
Q 20.90625 42.671875 17.703125 53.65625 
Q 14.5 64.65625 8.015625 75.875 
z
" id="DejaVuSans-41"/>
     <path d="M 34.28125 27.484375 
Q 23.390625 27.484375 19.1875 25 
Q 14.984375 22.515625 14.984375 16.5 
Q 14.984375 11.71875 18.140625 8.90625 
Q 21.296875 6.109375 26.703125 6.109375 
Q 34.1875 6.109375 38.703125 11.40625 
Q 43.21875 16.703125 43.21875 25.484375 
L 43.21875 27.484375 
z
M 52.203125 31.203125 
L 52.203125 0 
L 43.21875 0 
L 43.21875 8.296875 
Q 40.140625 3.328125 35.546875 0.953125 
Q 30.953125 -1.421875 24.3125 -1.421875 
Q 15.921875 -1.421875 10.953125 3.296875 
Q 6 8.015625 6 15.921875 
Q 6 25.140625 12.171875 29.828125 
Q 18.359375 34.515625 30.609375 34.515625 
L 43.21875 34.515625 
L 43.21875 35.40625 
Q 43.21875 41.609375 39.140625 45 
Q 35.0625 48.390625 27.6875 48.390625 
Q 23 48.390625 18.546875 47.265625 
Q 14.109375 46.140625 10.015625 43.890625 
L 10.015625 52.203125 
Q 14.9375 54.109375 19.578125 55.046875 
Q 24.21875 56 28.609375 56 
Q 40.484375 56 46.34375 49.84375 
Q 52.203125 43.703125 52.203125 31.203125 
z
" id="DejaVuSans-97"/>
    </defs>
    <g transform="translate(1210.36125 150.832262)scale(0.34 -0.34)">
     <use xlink:href="#DejaVuSans-66"/>
     <use x="68.603516" xlink:href="#DejaVuSans-105"/>
     <use x="96.386719" xlink:href="#DejaVuSans-99"/>
     <use x="151.367188" xlink:href="#DejaVuSans-101"/>
     <use x="212.890625" xlink:href="#DejaVuSans-112"/>
     <use x="276.367188" xlink:href="#DejaVuSans-115"/>
     <use x="328.466797" xlink:href="#DejaVuSans-32"/>
     <use x="360.253906" xlink:href="#DejaVuSans-40"/>
     <use x="399.267578" xlink:href="#DejaVuSans-114"/>
     <use x="440.349609" xlink:href="#DejaVuSans-101"/>
     <use x="501.873047" xlink:href="#DejaVuSans-100"/>
     <use x="565.349609" xlink:href="#DejaVuSans-41"/>
     <use x="604.363281" xlink:href="#DejaVuSans-32"/>
     <use x="636.150391" xlink:href="#DejaVuSans-97"/>
     <use x="697.429688" xlink:href="#DejaVuSans-110"/>
     <use x="760.808594" xlink:href="#DejaVuSans-100"/>
     <use x="824.285156" xlink:href="#DejaVuSans-32"/>
     <use x="856.072266" xlink:href="#DejaVuSans-84"/>
     <use x="916.9375" xlink:href="#DejaVuSans-114"/>
     <use x="958.050781" xlink:href="#DejaVuSans-105"/>
     <use x="985.833984" xlink:href="#DejaVuSans-99"/>
     <use x="1040.814453" xlink:href="#DejaVuSans-101"/>
     <use x="1102.337891" xlink:href="#DejaVuSans-112"/>
     <use x="1165.814453" xlink:href="#DejaVuSans-115"/>
     <use x="1217.914062" xlink:href="#DejaVuSans-32"/>
     <use x="1249.701172" xlink:href="#DejaVuSans-40"/>
     <use x="1288.714844" xlink:href="#DejaVuSans-103"/>
     <use x="1352.191406" xlink:href="#DejaVuSans-114"/>
     <use x="1393.273438" xlink:href="#DejaVuSans-101"/>
     <use x="1454.796875" xlink:href="#DejaVuSans-101"/>
     <use x="1516.320312" xlink:href="#DejaVuSans-110"/>
     <use x="1579.699219" xlink:href="#DejaVuSans-41"/>
    </g>
   </g>
  </g>
  <g id="text_17">
   <!-- Forces - P310000 I0 D0 -->
   <defs>
    <path d="M 9.8125 72.90625 
L 51.703125 72.90625 
L 51.703125 64.59375 
L 19.671875 64.59375 
L 19.671875 43.109375 
L 48.578125 43.109375 
L 48.578125 34.8125 
L 19.671875 34.8125 
L 19.671875 0 
L 9.8125 0 
z
" id="DejaVuSans-70"/>
    <path d="M 30.609375 48.390625 
Q 23.390625 48.390625 19.1875 42.75 
Q 14.984375 37.109375 14.984375 27.296875 
Q 14.984375 17.484375 19.15625 11.84375 
Q 23.34375 6.203125 30.609375 6.203125 
Q 37.796875 6.203125 41.984375 11.859375 
Q 46.1875 17.53125 46.1875 27.296875 
Q 46.1875 37.015625 41.984375 42.703125 
Q 37.796875 48.390625 30.609375 48.390625 
z
M 30.609375 56 
Q 42.328125 56 49.015625 48.375 
Q 55.71875 40.765625 55.71875 27.296875 
Q 55.71875 13.875 49.015625 6.21875 
Q 42.328125 -1.421875 30.609375 -1.421875 
Q 18.84375 -1.421875 12.171875 6.21875 
Q 5.515625 13.875 5.515625 27.296875 
Q 5.515625 40.765625 12.171875 48.375 
Q 18.84375 56 30.609375 56 
z
" id="DejaVuSans-111"/>
    <path d="M 4.890625 31.390625 
L 31.203125 31.390625 
L 31.203125 23.390625 
L 4.890625 23.390625 
z
" id="DejaVuSans-45"/>
    <path d="M 19.671875 64.796875 
L 19.671875 37.40625 
L 32.078125 37.40625 
Q 38.96875 37.40625 42.71875 40.96875 
Q 46.484375 44.53125 46.484375 51.125 
Q 46.484375 57.671875 42.71875 61.234375 
Q 38.96875 64.796875 32.078125 64.796875 
z
M 9.8125 72.90625 
L 32.078125 72.90625 
Q 44.34375 72.90625 50.609375 67.359375 
Q 56.890625 61.8125 56.890625 51.125 
Q 56.890625 40.328125 50.609375 34.8125 
Q 44.34375 29.296875 32.078125 29.296875 
L 19.671875 29.296875 
L 19.671875 0 
L 9.8125 0 
z
" id="DejaVuSans-80"/>
    <path d="M 40.578125 39.3125 
Q 47.65625 37.796875 51.625 33 
Q 55.609375 28.21875 55.609375 21.1875 
Q 55.609375 10.40625 48.1875 4.484375 
Q 40.765625 -1.421875 27.09375 -1.421875 
Q 22.515625 -1.421875 17.65625 -0.515625 
Q 12.796875 0.390625 7.625 2.203125 
L 7.625 11.71875 
Q 11.71875 9.328125 16.59375 8.109375 
Q 21.484375 6.890625 26.8125 6.890625 
Q 36.078125 6.890625 40.9375 10.546875 
Q 45.796875 14.203125 45.796875 21.1875 
Q 45.796875 27.640625 41.28125 31.265625 
Q 36.765625 34.90625 28.71875 34.90625 
L 20.21875 34.90625 
L 20.21875 43.015625 
L 29.109375 43.015625 
Q 36.375 43.015625 40.234375 45.921875 
Q 44.09375 48.828125 44.09375 54.296875 
Q 44.09375 59.90625 40.109375 62.90625 
Q 36.140625 65.921875 28.71875 65.921875 
Q 24.65625 65.921875 20.015625 65.03125 
Q 15.375 64.15625 9.8125 62.3125 
L 9.8125 71.09375 
Q 15.4375 72.65625 20.34375 73.4375 
Q 25.25 74.21875 29.59375 74.21875 
Q 40.828125 74.21875 47.359375 69.109375 
Q 53.90625 64.015625 53.90625 55.328125 
Q 53.90625 49.265625 50.4375 45.09375 
Q 46.96875 40.921875 40.578125 39.3125 
z
" id="DejaVuSans-51"/>
    <path d="M 9.8125 72.90625 
L 19.671875 72.90625 
L 19.671875 0 
L 9.8125 0 
z
" id="DejaVuSans-73"/>
    <path d="M 19.671875 64.796875 
L 19.671875 8.109375 
L 31.59375 8.109375 
Q 46.6875 8.109375 53.6875 14.9375 
Q 60.6875 21.78125 60.6875 36.53125 
Q 60.6875 51.171875 53.6875 57.984375 
Q 46.6875 64.796875 31.59375 64.796875 
z
M 9.8125 72.90625 
L 30.078125 72.90625 
Q 51.265625 72.90625 61.171875 64.09375 
Q 71.09375 55.28125 71.09375 36.53125 
Q 71.09375 17.671875 61.125 8.828125 
Q 51.171875 0 30.078125 0 
L 9.8125 0 
z
" id="DejaVuSans-68"/>
   </defs>
   <g transform="translate(1241.551562 28.834927)scale(0.34 -0.34)">
    <use xlink:href="#DejaVuSans-70"/>
    <use x="57.472656" xlink:href="#DejaVuSans-111"/>
    <use x="118.654297" xlink:href="#DejaVuSans-114"/>
    <use x="159.736328" xlink:href="#DejaVuSans-99"/>
    <use x="214.716797" xlink:href="#DejaVuSans-101"/>
    <use x="276.240234" xlink:href="#DejaVuSans-115"/>
    <use x="328.339844" xlink:href="#DejaVuSans-32"/>
    <use x="360.126953" xlink:href="#DejaVuSans-45"/>
    <use x="396.210938" xlink:href="#DejaVuSans-32"/>
    <use x="427.998047" xlink:href="#DejaVuSans-80"/>
    <use x="488.300781" xlink:href="#DejaVuSans-51"/>
    <use x="551.923828" xlink:href="#DejaVuSans-49"/>
    <use x="615.546875" xlink:href="#DejaVuSans-48"/>
    <use x="679.169922" xlink:href="#DejaVuSans-48"/>
    <use x="742.792969" xlink:href="#DejaVuSans-48"/>
    <use x="806.416016" xlink:href="#DejaVuSans-48"/>
    <use x="870.039062" xlink:href="#DejaVuSans-32"/>
    <use x="901.826172" xlink:href="#DejaVuSans-73"/>
    <use x="931.318359" xlink:href="#DejaVuSans-48"/>
    <use x="994.941406" xlink:href="#DejaVuSans-32"/>
    <use x="1026.728516" xlink:href="#DejaVuSans-68"/>
    <use x="1103.730469" xlink:href="#DejaVuSans-48"/>
   </g>
   <!-- Bagfile elbow_left_c from 35s for 95s - Logging Rate 30 - Simulation Rate 400 - 100.00% real time speed -->
   <defs>
    <path d="M 37.109375 75.984375 
L 37.109375 68.5 
L 28.515625 68.5 
Q 23.6875 68.5 21.796875 66.546875 
Q 19.921875 64.59375 19.921875 59.515625 
L 19.921875 54.6875 
L 34.71875 54.6875 
L 34.71875 47.703125 
L 19.921875 47.703125 
L 19.921875 0 
L 10.890625 0 
L 10.890625 47.703125 
L 2.296875 47.703125 
L 2.296875 54.6875 
L 10.890625 54.6875 
L 10.890625 58.5 
Q 10.890625 67.625 15.140625 71.796875 
Q 19.390625 75.984375 28.609375 75.984375 
z
" id="DejaVuSans-102"/>
    <path d="M 9.421875 75.984375 
L 18.40625 75.984375 
L 18.40625 0 
L 9.421875 0 
z
" id="DejaVuSans-108"/>
    <path d="M 48.6875 27.296875 
Q 48.6875 37.203125 44.609375 42.84375 
Q 40.53125 48.484375 33.40625 48.484375 
Q 26.265625 48.484375 22.1875 42.84375 
Q 18.109375 37.203125 18.109375 27.296875 
Q 18.109375 17.390625 22.1875 11.75 
Q 26.265625 6.109375 33.40625 6.109375 
Q 40.53125 6.109375 44.609375 11.75 
Q 48.6875 17.390625 48.6875 27.296875 
z
M 18.109375 46.390625 
Q 20.953125 51.265625 25.265625 53.625 
Q 29.59375 56 35.59375 56 
Q 45.5625 56 51.78125 48.09375 
Q 58.015625 40.1875 58.015625 27.296875 
Q 58.015625 14.40625 51.78125 6.484375 
Q 45.5625 -1.421875 35.59375 -1.421875 
Q 29.59375 -1.421875 25.265625 0.953125 
Q 20.953125 3.328125 18.109375 8.203125 
L 18.109375 0 
L 9.078125 0 
L 9.078125 75.984375 
L 18.109375 75.984375 
z
" id="DejaVuSans-98"/>
    <path d="M 4.203125 54.6875 
L 13.1875 54.6875 
L 24.421875 12.015625 
L 35.59375 54.6875 
L 46.1875 54.6875 
L 57.421875 12.015625 
L 68.609375 54.6875 
L 77.59375 54.6875 
L 63.28125 0 
L 52.6875 0 
L 40.921875 44.828125 
L 29.109375 0 
L 18.5 0 
z
" id="DejaVuSans-119"/>
    <path d="M 50.984375 -16.609375 
L 50.984375 -23.578125 
L -0.984375 -23.578125 
L -0.984375 -16.609375 
z
" id="DejaVuSans-95"/>
    <path d="M 10.796875 72.90625 
L 49.515625 72.90625 
L 49.515625 64.59375 
L 19.828125 64.59375 
L 19.828125 46.734375 
Q 21.96875 47.46875 24.109375 47.828125 
Q 26.265625 48.1875 28.421875 48.1875 
Q 40.625 48.1875 47.75 41.5 
Q 54.890625 34.8125 54.890625 23.390625 
Q 54.890625 11.625 47.5625 5.09375 
Q 40.234375 -1.421875 26.90625 -1.421875 
Q 22.3125 -1.421875 17.546875 -0.640625 
Q 12.796875 0.140625 7.71875 1.703125 
L 7.71875 11.625 
Q 12.109375 9.234375 16.796875 8.0625 
Q 21.484375 6.890625 26.703125 6.890625 
Q 35.15625 6.890625 40.078125 11.328125 
Q 45.015625 15.765625 45.015625 23.390625 
Q 45.015625 31 40.078125 35.4375 
Q 35.15625 39.890625 26.703125 39.890625 
Q 22.75 39.890625 18.8125 39.015625 
Q 14.890625 38.140625 10.796875 36.28125 
z
" id="DejaVuSans-53"/>
    <path d="M 10.984375 1.515625 
L 10.984375 10.5 
Q 14.703125 8.734375 18.5 7.8125 
Q 22.3125 6.890625 25.984375 6.890625 
Q 35.75 6.890625 40.890625 13.453125 
Q 46.046875 20.015625 46.78125 33.40625 
Q 43.953125 29.203125 39.59375 26.953125 
Q 35.25 24.703125 29.984375 24.703125 
Q 19.046875 24.703125 12.671875 31.3125 
Q 6.296875 37.9375 6.296875 49.421875 
Q 6.296875 60.640625 12.9375 67.421875 
Q 19.578125 74.21875 30.609375 74.21875 
Q 43.265625 74.21875 49.921875 64.515625 
Q 56.59375 54.828125 56.59375 36.375 
Q 56.59375 19.140625 48.40625 8.859375 
Q 40.234375 -1.421875 26.421875 -1.421875 
Q 22.703125 -1.421875 18.890625 -0.6875 
Q 15.09375 0.046875 10.984375 1.515625 
z
M 30.609375 32.421875 
Q 37.25 32.421875 41.125 36.953125 
Q 45.015625 41.5 45.015625 49.421875 
Q 45.015625 57.28125 41.125 61.84375 
Q 37.25 66.40625 30.609375 66.40625 
Q 23.96875 66.40625 20.09375 61.84375 
Q 16.21875 57.28125 16.21875 49.421875 
Q 16.21875 41.5 20.09375 36.953125 
Q 23.96875 32.421875 30.609375 32.421875 
z
" id="DejaVuSans-57"/>
    <path d="M 44.390625 34.1875 
Q 47.5625 33.109375 50.5625 29.59375 
Q 53.5625 26.078125 56.59375 19.921875 
L 66.609375 0 
L 56 0 
L 46.6875 18.703125 
Q 43.0625 26.03125 39.671875 28.421875 
Q 36.28125 30.8125 30.421875 30.8125 
L 19.671875 30.8125 
L 19.671875 0 
L 9.8125 0 
L 9.8125 72.90625 
L 32.078125 72.90625 
Q 44.578125 72.90625 50.734375 67.671875 
Q 56.890625 62.453125 56.890625 51.90625 
Q 56.890625 45.015625 53.6875 40.46875 
Q 50.484375 35.9375 44.390625 34.1875 
z
M 19.671875 64.796875 
L 19.671875 38.921875 
L 32.078125 38.921875 
Q 39.203125 38.921875 42.84375 42.21875 
Q 46.484375 45.515625 46.484375 51.90625 
Q 46.484375 58.296875 42.84375 61.546875 
Q 39.203125 64.796875 32.078125 64.796875 
z
" id="DejaVuSans-82"/>
    <path d="M 53.515625 70.515625 
L 53.515625 60.890625 
Q 47.90625 63.578125 42.921875 64.890625 
Q 37.9375 66.21875 33.296875 66.21875 
Q 25.25 66.21875 20.875 63.09375 
Q 16.5 59.96875 16.5 54.203125 
Q 16.5 49.359375 19.40625 46.890625 
Q 22.3125 44.4375 30.421875 42.921875 
L 36.375 41.703125 
Q 47.40625 39.59375 52.65625 34.296875 
Q 57.90625 29 57.90625 20.125 
Q 57.90625 9.515625 50.796875 4.046875 
Q 43.703125 -1.421875 29.984375 -1.421875 
Q 24.8125 -1.421875 18.96875 -0.25 
Q 13.140625 0.921875 6.890625 3.21875 
L 6.890625 13.375 
Q 12.890625 10.015625 18.65625 8.296875 
Q 24.421875 6.59375 29.984375 6.59375 
Q 38.421875 6.59375 43.015625 9.90625 
Q 47.609375 13.234375 47.609375 19.390625 
Q 47.609375 24.75 44.3125 27.78125 
Q 41.015625 30.8125 33.5 32.328125 
L 27.484375 33.5 
Q 16.453125 35.6875 11.515625 40.375 
Q 6.59375 45.0625 6.59375 53.421875 
Q 6.59375 63.09375 13.40625 68.65625 
Q 20.21875 74.21875 32.171875 74.21875 
Q 37.3125 74.21875 42.625 73.28125 
Q 47.953125 72.359375 53.515625 70.515625 
z
" id="DejaVuSans-83"/>
    <path d="M 8.5 21.578125 
L 8.5 54.6875 
L 17.484375 54.6875 
L 17.484375 21.921875 
Q 17.484375 14.15625 20.5 10.265625 
Q 23.53125 6.390625 29.59375 6.390625 
Q 36.859375 6.390625 41.078125 11.03125 
Q 45.3125 15.671875 45.3125 23.6875 
L 45.3125 54.6875 
L 54.296875 54.6875 
L 54.296875 0 
L 45.3125 0 
L 45.3125 8.40625 
Q 42.046875 3.421875 37.71875 1 
Q 33.40625 -1.421875 27.6875 -1.421875 
Q 18.265625 -1.421875 13.375 4.4375 
Q 8.5 10.296875 8.5 21.578125 
z
M 31.109375 56 
z
" id="DejaVuSans-117"/>
    <path d="M 10.6875 12.40625 
L 21 12.40625 
L 21 0 
L 10.6875 0 
z
" id="DejaVuSans-46"/>
    <path d="M 72.703125 32.078125 
Q 68.453125 32.078125 66.03125 28.46875 
Q 63.625 24.859375 63.625 18.40625 
Q 63.625 12.0625 66.03125 8.421875 
Q 68.453125 4.78125 72.703125 4.78125 
Q 76.859375 4.78125 79.265625 8.421875 
Q 81.6875 12.0625 81.6875 18.40625 
Q 81.6875 24.8125 79.265625 28.4375 
Q 76.859375 32.078125 72.703125 32.078125 
z
M 72.703125 38.28125 
Q 80.421875 38.28125 84.953125 32.90625 
Q 89.5 27.546875 89.5 18.40625 
Q 89.5 9.28125 84.9375 3.921875 
Q 80.375 -1.421875 72.703125 -1.421875 
Q 64.890625 -1.421875 60.34375 3.921875 
Q 55.8125 9.28125 55.8125 18.40625 
Q 55.8125 27.59375 60.375 32.9375 
Q 64.9375 38.28125 72.703125 38.28125 
z
M 22.3125 68.015625 
Q 18.109375 68.015625 15.6875 64.375 
Q 13.28125 60.75 13.28125 54.390625 
Q 13.28125 47.953125 15.671875 44.328125 
Q 18.0625 40.71875 22.3125 40.71875 
Q 26.5625 40.71875 28.96875 44.328125 
Q 31.390625 47.953125 31.390625 54.390625 
Q 31.390625 60.6875 28.953125 64.34375 
Q 26.515625 68.015625 22.3125 68.015625 
z
M 66.40625 74.21875 
L 74.21875 74.21875 
L 28.609375 -1.421875 
L 20.796875 -1.421875 
z
M 22.3125 74.21875 
Q 30.03125 74.21875 34.609375 68.875 
Q 39.203125 63.53125 39.203125 54.390625 
Q 39.203125 45.171875 34.640625 39.84375 
Q 30.078125 34.515625 22.3125 34.515625 
Q 14.546875 34.515625 10.03125 39.859375 
Q 5.515625 45.21875 5.515625 54.390625 
Q 5.515625 63.484375 10.046875 68.84375 
Q 14.59375 74.21875 22.3125 74.21875 
z
" id="DejaVuSans-37"/>
   </defs>
   <g transform="translate(547.781562 66.90749)scale(0.34 -0.34)">
    <use xlink:href="#DejaVuSans-66"/>
    <use x="68.603516" xlink:href="#DejaVuSans-97"/>
    <use x="129.882812" xlink:href="#DejaVuSans-103"/>
    <use x="193.359375" xlink:href="#DejaVuSans-102"/>
    <use x="228.564453" xlink:href="#DejaVuSans-105"/>
    <use x="256.347656" xlink:href="#DejaVuSans-108"/>
    <use x="284.130859" xlink:href="#DejaVuSans-101"/>
    <use x="345.654297" xlink:href="#DejaVuSans-32"/>
    <use x="377.441406" xlink:href="#DejaVuSans-101"/>
    <use x="438.964844" xlink:href="#DejaVuSans-108"/>
    <use x="466.748047" xlink:href="#DejaVuSans-98"/>
    <use x="530.224609" xlink:href="#DejaVuSans-111"/>
    <use x="591.40625" xlink:href="#DejaVuSans-119"/>
    <use x="673.193359" xlink:href="#DejaVuSans-95"/>
    <use x="723.193359" xlink:href="#DejaVuSans-108"/>
    <use x="750.976562" xlink:href="#DejaVuSans-101"/>
    <use x="812.5" xlink:href="#DejaVuSans-102"/>
    <use x="847.689453" xlink:href="#DejaVuSans-116"/>
    <use x="886.898438" xlink:href="#DejaVuSans-95"/>
    <use x="936.898438" xlink:href="#DejaVuSans-99"/>
    <use x="991.878906" xlink:href="#DejaVuSans-32"/>
    <use x="1023.666016" xlink:href="#DejaVuSans-102"/>
    <use x="1058.871094" xlink:href="#DejaVuSans-114"/>
    <use x="1099.953125" xlink:href="#DejaVuSans-111"/>
    <use x="1161.134766" xlink:href="#DejaVuSans-109"/>
    <use x="1258.546875" xlink:href="#DejaVuSans-32"/>
    <use x="1290.333984" xlink:href="#DejaVuSans-51"/>
    <use x="1353.957031" xlink:href="#DejaVuSans-53"/>
    <use x="1417.580078" xlink:href="#DejaVuSans-115"/>
    <use x="1469.679688" xlink:href="#DejaVuSans-32"/>
    <use x="1501.466797" xlink:href="#DejaVuSans-102"/>
    <use x="1536.671875" xlink:href="#DejaVuSans-111"/>
    <use x="1597.853516" xlink:href="#DejaVuSans-114"/>
    <use x="1638.966797" xlink:href="#DejaVuSans-32"/>
    <use x="1670.753906" xlink:href="#DejaVuSans-57"/>
    <use x="1734.376953" xlink:href="#DejaVuSans-53"/>
    <use x="1798" xlink:href="#DejaVuSans-115"/>
    <use x="1850.099609" xlink:href="#DejaVuSans-32"/>
    <use x="1881.886719" xlink:href="#DejaVuSans-45"/>
    <use x="1917.970703" xlink:href="#DejaVuSans-32"/>
    <use x="1949.757812" xlink:href="#DejaVuSans-76"/>
    <use x="2005.455078" xlink:href="#DejaVuSans-111"/>
    <use x="2066.636719" xlink:href="#DejaVuSans-103"/>
    <use x="2130.113281" xlink:href="#DejaVuSans-103"/>
    <use x="2193.589844" xlink:href="#DejaVuSans-105"/>
    <use x="2221.373047" xlink:href="#DejaVuSans-110"/>
    <use x="2284.751953" xlink:href="#DejaVuSans-103"/>
    <use x="2348.228516" xlink:href="#DejaVuSans-32"/>
    <use x="2380.015625" xlink:href="#DejaVuSans-82"/>
    <use x="2449.466797" xlink:href="#DejaVuSans-97"/>
    <use x="2510.746094" xlink:href="#DejaVuSans-116"/>
    <use x="2549.955078" xlink:href="#DejaVuSans-101"/>
    <use x="2611.478516" xlink:href="#DejaVuSans-32"/>
    <use x="2643.265625" xlink:href="#DejaVuSans-51"/>
    <use x="2706.888672" xlink:href="#DejaVuSans-48"/>
    <use x="2770.511719" xlink:href="#DejaVuSans-32"/>
    <use x="2802.298828" xlink:href="#DejaVuSans-45"/>
    <use x="2838.382812" xlink:href="#DejaVuSans-32"/>
    <use x="2870.169922" xlink:href="#DejaVuSans-83"/>
    <use x="2933.646484" xlink:href="#DejaVuSans-105"/>
    <use x="2961.429688" xlink:href="#DejaVuSans-109"/>
    <use x="3058.841797" xlink:href="#DejaVuSans-117"/>
    <use x="3122.220703" xlink:href="#DejaVuSans-108"/>
    <use x="3150.003906" xlink:href="#DejaVuSans-97"/>
    <use x="3211.283203" xlink:href="#DejaVuSans-116"/>
    <use x="3250.492188" xlink:href="#DejaVuSans-105"/>
    <use x="3278.275391" xlink:href="#DejaVuSans-111"/>
    <use x="3339.457031" xlink:href="#DejaVuSans-110"/>
    <use x="3402.835938" xlink:href="#DejaVuSans-32"/>
    <use x="3434.623047" xlink:href="#DejaVuSans-82"/>
    <use x="3504.074219" xlink:href="#DejaVuSans-97"/>
    <use x="3565.353516" xlink:href="#DejaVuSans-116"/>
    <use x="3604.5625" xlink:href="#DejaVuSans-101"/>
    <use x="3666.085938" xlink:href="#DejaVuSans-32"/>
    <use x="3697.873047" xlink:href="#DejaVuSans-52"/>
    <use x="3761.496094" xlink:href="#DejaVuSans-48"/>
    <use x="3825.119141" xlink:href="#DejaVuSans-48"/>
    <use x="3888.742188" xlink:href="#DejaVuSans-32"/>
    <use x="3920.529297" xlink:href="#DejaVuSans-45"/>
    <use x="3956.613281" xlink:href="#DejaVuSans-32"/>
    <use x="3988.400391" xlink:href="#DejaVuSans-49"/>
    <use x="4052.023438" xlink:href="#DejaVuSans-48"/>
    <use x="4115.646484" xlink:href="#DejaVuSans-48"/>
    <use x="4179.269531" xlink:href="#DejaVuSans-46"/>
    <use x="4211.056641" xlink:href="#DejaVuSans-48"/>
    <use x="4274.679688" xlink:href="#DejaVuSans-48"/>
    <use x="4338.302734" xlink:href="#DejaVuSans-37"/>
    <use x="4433.322266" xlink:href="#DejaVuSans-32"/>
    <use x="4465.109375" xlink:href="#DejaVuSans-114"/>
    <use x="4506.191406" xlink:href="#DejaVuSans-101"/>
    <use x="4567.714844" xlink:href="#DejaVuSans-97"/>
    <use x="4628.994141" xlink:href="#DejaVuSans-108"/>
    <use x="4656.777344" xlink:href="#DejaVuSans-32"/>
    <use x="4688.564453" xlink:href="#DejaVuSans-116"/>
    <use x="4727.773438" xlink:href="#DejaVuSans-105"/>
    <use x="4755.556641" xlink:href="#DejaVuSans-109"/>
    <use x="4852.96875" xlink:href="#DejaVuSans-101"/>
    <use x="4914.492188" xlink:href="#DejaVuSans-32"/>
    <use x="4946.279297" xlink:href="#DejaVuSans-115"/>
    <use x="4998.378906" xlink:href="#DejaVuSans-112"/>
    <use x="5061.855469" xlink:href="#DejaVuSans-101"/>
    <use x="5123.378906" xlink:href="#DejaVuSans-101"/>
    <use x="5184.902344" xlink:href="#DejaVuSans-100"/>
   </g>
   <!--  -->
   <g transform="translate(1440 105.925677)scale(0.34 -0.34)"/>
  </g>
 </g>
 <defs>
  <clipPath id="pe7e8614bdc">
   <rect height="863.577185" width="2782.90202" x="94.09774" y="157.9032"/>
  </clipPath>
 </defs>
</svg>
