<?xml version="1.0" encoding="utf-8" standalone="no"?>
<!DOCTYPE svg PUBLIC "-//W3C//DTD SVG 1.1//EN"
  "http://www.w3.org/Graphics/SVG/1.1/DTD/svg11.dtd">
<!-- Created with matplotlib (https://matplotlib.org/) -->
<svg height="1080pt" version="1.1" viewBox="0 0 2880 1080" width="2880pt" xmlns="http://www.w3.org/2000/svg" xmlns:xlink="http://www.w3.org/1999/xlink">
 <defs>
  <style type="text/css">
*{stroke-linecap:butt;stroke-linejoin:round;}
  </style>
 </defs>
 <g id="figure_1">
  <g id="patch_1">
   <path d="M 0 1080 
L 2880 1080 
L 2880 0 
L 0 0 
z
" style="fill:#ffffff;"/>
  </g>
  <g id="axes_1">
   <g id="patch_2">
    <path d="M 83.694615 1021.480385 
L 2876.99976 1021.480385 
L 2876.99976 157.9032 
L 83.694615 157.9032 
z
" style="fill:#ffffff;"/>
   </g>
   <g id="matplotlib.axis_1">
    <g id="xtick_1">
     <g id="line2d_1">
      <defs>
       <path d="M 0 0 
L 0 3.5 
" id="m138b1b9b98" style="stroke:#000000;stroke-width:0.8;"/>
      </defs>
      <g>
       <use style="stroke:#000000;stroke-width:0.8;" x="141.564567" xlink:href="#m138b1b9b98" y="1021.480385"/>
      </g>
     </g>
     <g id="text_1">
      <!-- 0 -->
      <defs>
       <path d="M 31.78125 66.40625 
Q 24.171875 66.40625 20.328125 58.90625 
Q 16.5 51.421875 16.5 36.375 
Q 16.5 21.390625 20.328125 13.890625 
Q 24.171875 6.390625 31.78125 6.390625 
Q 39.453125 6.390625 43.28125 13.890625 
Q 47.125 21.390625 47.125 36.375 
Q 47.125 51.421875 43.28125 58.90625 
Q 39.453125 66.40625 31.78125 66.40625 
z
M 31.78125 74.21875 
Q 44.046875 74.21875 50.515625 64.515625 
Q 56.984375 54.828125 56.984375 36.375 
Q 56.984375 17.96875 50.515625 8.265625 
Q 44.046875 -1.421875 31.78125 -1.421875 
Q 19.53125 -1.421875 13.0625 8.265625 
Q 6.59375 17.96875 6.59375 36.375 
Q 6.59375 54.828125 13.0625 64.515625 
Q 19.53125 74.21875 31.78125 74.21875 
z
" id="DejaVuSans-48"/>
      </defs>
      <g transform="translate(135.202067 1043.67726)scale(0.2 -0.2)">
       <use xlink:href="#DejaVuSans-48"/>
      </g>
     </g>
    </g>
    <g id="xtick_2">
     <g id="line2d_2">
      <g>
       <use style="stroke:#000000;stroke-width:0.8;" x="487.056885" xlink:href="#m138b1b9b98" y="1021.480385"/>
      </g>
     </g>
     <g id="text_2">
      <!-- 50 -->
      <defs>
       <path d="M 10.796875 72.90625 
L 49.515625 72.90625 
L 49.515625 64.59375 
L 19.828125 64.59375 
L 19.828125 46.734375 
Q 21.96875 47.46875 24.109375 47.828125 
Q 26.265625 48.1875 28.421875 48.1875 
Q 40.625 48.1875 47.75 41.5 
Q 54.890625 34.8125 54.890625 23.390625 
Q 54.890625 11.625 47.5625 5.09375 
Q 40.234375 -1.421875 26.90625 -1.421875 
Q 22.3125 -1.421875 17.546875 -0.640625 
Q 12.796875 0.140625 7.71875 1.703125 
L 7.71875 11.625 
Q 12.109375 9.234375 16.796875 8.0625 
Q 21.484375 6.890625 26.703125 6.890625 
Q 35.15625 6.890625 40.078125 11.328125 
Q 45.015625 15.765625 45.015625 23.390625 
Q 45.015625 31 40.078125 35.4375 
Q 35.15625 39.890625 26.703125 39.890625 
Q 22.75 39.890625 18.8125 39.015625 
Q 14.890625 38.140625 10.796875 36.28125 
z
" id="DejaVuSans-53"/>
      </defs>
      <g transform="translate(474.331885 1043.67726)scale(0.2 -0.2)">
       <use xlink:href="#DejaVuSans-53"/>
       <use x="63.623047" xlink:href="#DejaVuSans-48"/>
      </g>
     </g>
    </g>
    <g id="xtick_3">
     <g id="line2d_3">
      <g>
       <use style="stroke:#000000;stroke-width:0.8;" x="832.549203" xlink:href="#m138b1b9b98" y="1021.480385"/>
      </g>
     </g>
     <g id="text_3">
      <!-- 100 -->
      <defs>
       <path d="M 12.40625 8.296875 
L 28.515625 8.296875 
L 28.515625 63.921875 
L 10.984375 60.40625 
L 10.984375 69.390625 
L 28.421875 72.90625 
L 38.28125 72.90625 
L 38.28125 8.296875 
L 54.390625 8.296875 
L 54.390625 0 
L 12.40625 0 
z
" id="DejaVuSans-49"/>
      </defs>
      <g transform="translate(813.461703 1043.67726)scale(0.2 -0.2)">
       <use xlink:href="#DejaVuSans-49"/>
       <use x="63.623047" xlink:href="#DejaVuSans-48"/>
       <use x="127.246094" xlink:href="#DejaVuSans-48"/>
      </g>
     </g>
    </g>
    <g id="xtick_4">
     <g id="line2d_4">
      <g>
       <use style="stroke:#000000;stroke-width:0.8;" x="1178.041521" xlink:href="#m138b1b9b98" y="1021.480385"/>
      </g>
     </g>
     <g id="text_4">
      <!-- 150 -->
      <g transform="translate(1158.954021 1043.67726)scale(0.2 -0.2)">
       <use xlink:href="#DejaVuSans-49"/>
       <use x="63.623047" xlink:href="#DejaVuSans-53"/>
       <use x="127.246094" xlink:href="#DejaVuSans-48"/>
      </g>
     </g>
    </g>
    <g id="xtick_5">
     <g id="line2d_5">
      <g>
       <use style="stroke:#000000;stroke-width:0.8;" x="1523.533839" xlink:href="#m138b1b9b98" y="1021.480385"/>
      </g>
     </g>
     <g id="text_5">
      <!-- 200 -->
      <defs>
       <path d="M 19.1875 8.296875 
L 53.609375 8.296875 
L 53.609375 0 
L 7.328125 0 
L 7.328125 8.296875 
Q 12.9375 14.109375 22.625 23.890625 
Q 32.328125 33.6875 34.8125 36.53125 
Q 39.546875 41.84375 41.421875 45.53125 
Q 43.3125 49.21875 43.3125 52.78125 
Q 43.3125 58.59375 39.234375 62.25 
Q 35.15625 65.921875 28.609375 65.921875 
Q 23.96875 65.921875 18.8125 64.3125 
Q 13.671875 62.703125 7.8125 59.421875 
L 7.8125 69.390625 
Q 13.765625 71.78125 18.9375 73 
Q 24.125 74.21875 28.421875 74.21875 
Q 39.75 74.21875 46.484375 68.546875 
Q 53.21875 62.890625 53.21875 53.421875 
Q 53.21875 48.921875 51.53125 44.890625 
Q 49.859375 40.875 45.40625 35.40625 
Q 44.1875 33.984375 37.640625 27.21875 
Q 31.109375 20.453125 19.1875 8.296875 
z
" id="DejaVuSans-50"/>
      </defs>
      <g transform="translate(1504.446339 1043.67726)scale(0.2 -0.2)">
       <use xlink:href="#DejaVuSans-50"/>
       <use x="63.623047" xlink:href="#DejaVuSans-48"/>
       <use x="127.246094" xlink:href="#DejaVuSans-48"/>
      </g>
     </g>
    </g>
    <g id="xtick_6">
     <g id="line2d_6">
      <g>
       <use style="stroke:#000000;stroke-width:0.8;" x="1869.026157" xlink:href="#m138b1b9b98" y="1021.480385"/>
      </g>
     </g>
     <g id="text_6">
      <!-- 250 -->
      <g transform="translate(1849.938657 1043.67726)scale(0.2 -0.2)">
       <use xlink:href="#DejaVuSans-50"/>
       <use x="63.623047" xlink:href="#DejaVuSans-53"/>
       <use x="127.246094" xlink:href="#DejaVuSans-48"/>
      </g>
     </g>
    </g>
    <g id="xtick_7">
     <g id="line2d_7">
      <g>
       <use style="stroke:#000000;stroke-width:0.8;" x="2214.518475" xlink:href="#m138b1b9b98" y="1021.480385"/>
      </g>
     </g>
     <g id="text_7">
      <!-- 300 -->
      <defs>
       <path d="M 40.578125 39.3125 
Q 47.65625 37.796875 51.625 33 
Q 55.609375 28.21875 55.609375 21.1875 
Q 55.609375 10.40625 48.1875 4.484375 
Q 40.765625 -1.421875 27.09375 -1.421875 
Q 22.515625 -1.421875 17.65625 -0.515625 
Q 12.796875 0.390625 7.625 2.203125 
L 7.625 11.71875 
Q 11.71875 9.328125 16.59375 8.109375 
Q 21.484375 6.890625 26.8125 6.890625 
Q 36.078125 6.890625 40.9375 10.546875 
Q 45.796875 14.203125 45.796875 21.1875 
Q 45.796875 27.640625 41.28125 31.265625 
Q 36.765625 34.90625 28.71875 34.90625 
L 20.21875 34.90625 
L 20.21875 43.015625 
L 29.109375 43.015625 
Q 36.375 43.015625 40.234375 45.921875 
Q 44.09375 48.828125 44.09375 54.296875 
Q 44.09375 59.90625 40.109375 62.90625 
Q 36.140625 65.921875 28.71875 65.921875 
Q 24.65625 65.921875 20.015625 65.03125 
Q 15.375 64.15625 9.8125 62.3125 
L 9.8125 71.09375 
Q 15.4375 72.65625 20.34375 73.4375 
Q 25.25 74.21875 29.59375 74.21875 
Q 40.828125 74.21875 47.359375 69.109375 
Q 53.90625 64.015625 53.90625 55.328125 
Q 53.90625 49.265625 50.4375 45.09375 
Q 46.96875 40.921875 40.578125 39.3125 
z
" id="DejaVuSans-51"/>
      </defs>
      <g transform="translate(2195.430975 1043.67726)scale(0.2 -0.2)">
       <use xlink:href="#DejaVuSans-51"/>
       <use x="63.623047" xlink:href="#DejaVuSans-48"/>
       <use x="127.246094" xlink:href="#DejaVuSans-48"/>
      </g>
     </g>
    </g>
    <g id="xtick_8">
     <g id="line2d_8">
      <g>
       <use style="stroke:#000000;stroke-width:0.8;" x="2560.010793" xlink:href="#m138b1b9b98" y="1021.480385"/>
      </g>
     </g>
     <g id="text_8">
      <!-- 350 -->
      <g transform="translate(2540.923293 1043.67726)scale(0.2 -0.2)">
       <use xlink:href="#DejaVuSans-51"/>
       <use x="63.623047" xlink:href="#DejaVuSans-53"/>
       <use x="127.246094" xlink:href="#DejaVuSans-48"/>
      </g>
     </g>
    </g>
    <g id="text_9">
     <!-- Time [s] -->
     <defs>
      <path d="M -0.296875 72.90625 
L 61.375 72.90625 
L 61.375 64.59375 
L 35.5 64.59375 
L 35.5 0 
L 25.59375 0 
L 25.59375 64.59375 
L -0.296875 64.59375 
z
" id="DejaVuSans-84"/>
      <path d="M 9.421875 54.6875 
L 18.40625 54.6875 
L 18.40625 0 
L 9.421875 0 
z
M 9.421875 75.984375 
L 18.40625 75.984375 
L 18.40625 64.59375 
L 9.421875 64.59375 
z
" id="DejaVuSans-105"/>
      <path d="M 52 44.1875 
Q 55.375 50.25 60.0625 53.125 
Q 64.75 56 71.09375 56 
Q 79.640625 56 84.28125 50.015625 
Q 88.921875 44.046875 88.921875 33.015625 
L 88.921875 0 
L 79.890625 0 
L 79.890625 32.71875 
Q 79.890625 40.578125 77.09375 44.375 
Q 74.3125 48.1875 68.609375 48.1875 
Q 61.625 48.1875 57.5625 43.546875 
Q 53.515625 38.921875 53.515625 30.90625 
L 53.515625 0 
L 44.484375 0 
L 44.484375 32.71875 
Q 44.484375 40.625 41.703125 44.40625 
Q 38.921875 48.1875 33.109375 48.1875 
Q 26.21875 48.1875 22.15625 43.53125 
Q 18.109375 38.875 18.109375 30.90625 
L 18.109375 0 
L 9.078125 0 
L 9.078125 54.6875 
L 18.109375 54.6875 
L 18.109375 46.1875 
Q 21.1875 51.21875 25.484375 53.609375 
Q 29.78125 56 35.6875 56 
Q 41.65625 56 45.828125 52.96875 
Q 50 49.953125 52 44.1875 
z
" id="DejaVuSans-109"/>
      <path d="M 56.203125 29.59375 
L 56.203125 25.203125 
L 14.890625 25.203125 
Q 15.484375 15.921875 20.484375 11.0625 
Q 25.484375 6.203125 34.421875 6.203125 
Q 39.59375 6.203125 44.453125 7.46875 
Q 49.3125 8.734375 54.109375 11.28125 
L 54.109375 2.78125 
Q 49.265625 0.734375 44.1875 -0.34375 
Q 39.109375 -1.421875 33.890625 -1.421875 
Q 20.796875 -1.421875 13.15625 6.1875 
Q 5.515625 13.8125 5.515625 26.8125 
Q 5.515625 40.234375 12.765625 48.109375 
Q 20.015625 56 32.328125 56 
Q 43.359375 56 49.78125 48.890625 
Q 56.203125 41.796875 56.203125 29.59375 
z
M 47.21875 32.234375 
Q 47.125 39.59375 43.09375 43.984375 
Q 39.0625 48.390625 32.421875 48.390625 
Q 24.90625 48.390625 20.390625 44.140625 
Q 15.875 39.890625 15.1875 32.171875 
z
" id="DejaVuSans-101"/>
      <path id="DejaVuSans-32"/>
      <path d="M 8.59375 75.984375 
L 29.296875 75.984375 
L 29.296875 69 
L 17.578125 69 
L 17.578125 -6.203125 
L 29.296875 -6.203125 
L 29.296875 -13.1875 
L 8.59375 -13.1875 
z
" id="DejaVuSans-91"/>
      <path d="M 44.28125 53.078125 
L 44.28125 44.578125 
Q 40.484375 46.53125 36.375 47.5 
Q 32.28125 48.484375 27.875 48.484375 
Q 21.1875 48.484375 17.84375 46.4375 
Q 14.5 44.390625 14.5 40.28125 
Q 14.5 37.15625 16.890625 35.375 
Q 19.28125 33.59375 26.515625 31.984375 
L 29.59375 31.296875 
Q 39.15625 29.25 43.1875 25.515625 
Q 47.21875 21.78125 47.21875 15.09375 
Q 47.21875 7.46875 41.1875 3.015625 
Q 35.15625 -1.421875 24.609375 -1.421875 
Q 20.21875 -1.421875 15.453125 -0.5625 
Q 10.6875 0.296875 5.421875 2 
L 5.421875 11.28125 
Q 10.40625 8.6875 15.234375 7.390625 
Q 20.0625 6.109375 24.8125 6.109375 
Q 31.15625 6.109375 34.5625 8.28125 
Q 37.984375 10.453125 37.984375 14.40625 
Q 37.984375 18.0625 35.515625 20.015625 
Q 33.0625 21.96875 24.703125 23.78125 
L 21.578125 24.515625 
Q 13.234375 26.265625 9.515625 29.90625 
Q 5.8125 33.546875 5.8125 39.890625 
Q 5.8125 47.609375 11.28125 51.796875 
Q 16.75 56 26.8125 56 
Q 31.78125 56 36.171875 55.265625 
Q 40.578125 54.546875 44.28125 53.078125 
z
" id="DejaVuSans-115"/>
      <path d="M 30.421875 75.984375 
L 30.421875 -13.1875 
L 9.71875 -13.1875 
L 9.71875 -6.203125 
L 21.390625 -6.203125 
L 21.390625 69 
L 9.71875 69 
L 9.71875 75.984375 
z
" id="DejaVuSans-93"/>
     </defs>
     <g transform="translate(1427.091875 1071.592572)scale(0.26 -0.26)">
      <use xlink:href="#DejaVuSans-84"/>
      <use x="61.037109" xlink:href="#DejaVuSans-105"/>
      <use x="88.820312" xlink:href="#DejaVuSans-109"/>
      <use x="186.232422" xlink:href="#DejaVuSans-101"/>
      <use x="247.755859" xlink:href="#DejaVuSans-32"/>
      <use x="279.542969" xlink:href="#DejaVuSans-91"/>
      <use x="318.556641" xlink:href="#DejaVuSans-115"/>
      <use x="370.65625" xlink:href="#DejaVuSans-93"/>
     </g>
    </g>
   </g>
   <g id="matplotlib.axis_2">
    <g id="ytick_1">
     <g id="line2d_9">
      <defs>
       <path d="M 0 0 
L -3.5 0 
" id="m8ef043eaf8" style="stroke:#000000;stroke-width:0.8;"/>
      </defs>
      <g>
       <use style="stroke:#000000;stroke-width:0.8;" x="83.694615" xlink:href="#m8ef043eaf8" y="959.713087"/>
      </g>
     </g>
     <g id="text_10">
      <!-- 0.07 -->
      <defs>
       <path d="M 10.6875 12.40625 
L 21 12.40625 
L 21 0 
L 10.6875 0 
z
" id="DejaVuSans-46"/>
       <path d="M 8.203125 72.90625 
L 55.078125 72.90625 
L 55.078125 68.703125 
L 28.609375 0 
L 18.3125 0 
L 43.21875 64.59375 
L 8.203125 64.59375 
z
" id="DejaVuSans-55"/>
      </defs>
      <g transform="translate(32.163365 967.311524)scale(0.2 -0.2)">
       <use xlink:href="#DejaVuSans-48"/>
       <use x="63.623047" xlink:href="#DejaVuSans-46"/>
       <use x="95.410156" xlink:href="#DejaVuSans-48"/>
       <use x="159.033203" xlink:href="#DejaVuSans-55"/>
      </g>
     </g>
    </g>
    <g id="ytick_2">
     <g id="line2d_10">
      <g>
       <use style="stroke:#000000;stroke-width:0.8;" x="83.694615" xlink:href="#m8ef043eaf8" y="863.083954"/>
      </g>
     </g>
     <g id="text_11">
      <!-- 0.08 -->
      <defs>
       <path d="M 31.78125 34.625 
Q 24.75 34.625 20.71875 30.859375 
Q 16.703125 27.09375 16.703125 20.515625 
Q 16.703125 13.921875 20.71875 10.15625 
Q 24.75 6.390625 31.78125 6.390625 
Q 38.8125 6.390625 42.859375 10.171875 
Q 46.921875 13.96875 46.921875 20.515625 
Q 46.921875 27.09375 42.890625 30.859375 
Q 38.875 34.625 31.78125 34.625 
z
M 21.921875 38.8125 
Q 15.578125 40.375 12.03125 44.71875 
Q 8.5 49.078125 8.5 55.328125 
Q 8.5 64.0625 14.71875 69.140625 
Q 20.953125 74.21875 31.78125 74.21875 
Q 42.671875 74.21875 48.875 69.140625 
Q 55.078125 64.0625 55.078125 55.328125 
Q 55.078125 49.078125 51.53125 44.71875 
Q 48 40.375 41.703125 38.8125 
Q 48.828125 37.15625 52.796875 32.3125 
Q 56.78125 27.484375 56.78125 20.515625 
Q 56.78125 9.90625 50.3125 4.234375 
Q 43.84375 -1.421875 31.78125 -1.421875 
Q 19.734375 -1.421875 13.25 4.234375 
Q 6.78125 9.90625 6.78125 20.515625 
Q 6.78125 27.484375 10.78125 32.3125 
Q 14.796875 37.15625 21.921875 38.8125 
z
M 18.3125 54.390625 
Q 18.3125 48.734375 21.84375 45.5625 
Q 25.390625 42.390625 31.78125 42.390625 
Q 38.140625 42.390625 41.71875 45.5625 
Q 45.3125 48.734375 45.3125 54.390625 
Q 45.3125 60.0625 41.71875 63.234375 
Q 38.140625 66.40625 31.78125 66.40625 
Q 25.390625 66.40625 21.84375 63.234375 
Q 18.3125 60.0625 18.3125 54.390625 
z
" id="DejaVuSans-56"/>
      </defs>
      <g transform="translate(32.163365 870.682391)scale(0.2 -0.2)">
       <use xlink:href="#DejaVuSans-48"/>
       <use x="63.623047" xlink:href="#DejaVuSans-46"/>
       <use x="95.410156" xlink:href="#DejaVuSans-48"/>
       <use x="159.033203" xlink:href="#DejaVuSans-56"/>
      </g>
     </g>
    </g>
    <g id="ytick_3">
     <g id="line2d_11">
      <g>
       <use style="stroke:#000000;stroke-width:0.8;" x="83.694615" xlink:href="#m8ef043eaf8" y="766.45482"/>
      </g>
     </g>
     <g id="text_12">
      <!-- 0.09 -->
      <defs>
       <path d="M 10.984375 1.515625 
L 10.984375 10.5 
Q 14.703125 8.734375 18.5 7.8125 
Q 22.3125 6.890625 25.984375 6.890625 
Q 35.75 6.890625 40.890625 13.453125 
Q 46.046875 20.015625 46.78125 33.40625 
Q 43.953125 29.203125 39.59375 26.953125 
Q 35.25 24.703125 29.984375 24.703125 
Q 19.046875 24.703125 12.671875 31.3125 
Q 6.296875 37.9375 6.296875 49.421875 
Q 6.296875 60.640625 12.9375 67.421875 
Q 19.578125 74.21875 30.609375 74.21875 
Q 43.265625 74.21875 49.921875 64.515625 
Q 56.59375 54.828125 56.59375 36.375 
Q 56.59375 19.140625 48.40625 8.859375 
Q 40.234375 -1.421875 26.421875 -1.421875 
Q 22.703125 -1.421875 18.890625 -0.6875 
Q 15.09375 0.046875 10.984375 1.515625 
z
M 30.609375 32.421875 
Q 37.25 32.421875 41.125 36.953125 
Q 45.015625 41.5 45.015625 49.421875 
Q 45.015625 57.28125 41.125 61.84375 
Q 37.25 66.40625 30.609375 66.40625 
Q 23.96875 66.40625 20.09375 61.84375 
Q 16.21875 57.28125 16.21875 49.421875 
Q 16.21875 41.5 20.09375 36.953125 
Q 23.96875 32.421875 30.609375 32.421875 
z
" id="DejaVuSans-57"/>
      </defs>
      <g transform="translate(32.163365 774.053258)scale(0.2 -0.2)">
       <use xlink:href="#DejaVuSans-48"/>
       <use x="63.623047" xlink:href="#DejaVuSans-46"/>
       <use x="95.410156" xlink:href="#DejaVuSans-48"/>
       <use x="159.033203" xlink:href="#DejaVuSans-57"/>
      </g>
     </g>
    </g>
    <g id="ytick_4">
     <g id="line2d_12">
      <g>
       <use style="stroke:#000000;stroke-width:0.8;" x="83.694615" xlink:href="#m8ef043eaf8" y="669.825687"/>
      </g>
     </g>
     <g id="text_13">
      <!-- 0.10 -->
      <g transform="translate(32.163365 677.424125)scale(0.2 -0.2)">
       <use xlink:href="#DejaVuSans-48"/>
       <use x="63.623047" xlink:href="#DejaVuSans-46"/>
       <use x="95.410156" xlink:href="#DejaVuSans-49"/>
       <use x="159.033203" xlink:href="#DejaVuSans-48"/>
      </g>
     </g>
    </g>
    <g id="ytick_5">
     <g id="line2d_13">
      <g>
       <use style="stroke:#000000;stroke-width:0.8;" x="83.694615" xlink:href="#m8ef043eaf8" y="573.196554"/>
      </g>
     </g>
     <g id="text_14">
      <!-- 0.11 -->
      <g transform="translate(32.163365 580.794991)scale(0.2 -0.2)">
       <use xlink:href="#DejaVuSans-48"/>
       <use x="63.623047" xlink:href="#DejaVuSans-46"/>
       <use x="95.410156" xlink:href="#DejaVuSans-49"/>
       <use x="159.033203" xlink:href="#DejaVuSans-49"/>
      </g>
     </g>
    </g>
    <g id="ytick_6">
     <g id="line2d_14">
      <g>
       <use style="stroke:#000000;stroke-width:0.8;" x="83.694615" xlink:href="#m8ef043eaf8" y="476.56742"/>
      </g>
     </g>
     <g id="text_15">
      <!-- 0.12 -->
      <g transform="translate(32.163365 484.165858)scale(0.2 -0.2)">
       <use xlink:href="#DejaVuSans-48"/>
       <use x="63.623047" xlink:href="#DejaVuSans-46"/>
       <use x="95.410156" xlink:href="#DejaVuSans-49"/>
       <use x="159.033203" xlink:href="#DejaVuSans-50"/>
      </g>
     </g>
    </g>
    <g id="ytick_7">
     <g id="line2d_15">
      <g>
       <use style="stroke:#000000;stroke-width:0.8;" x="83.694615" xlink:href="#m8ef043eaf8" y="379.938287"/>
      </g>
     </g>
     <g id="text_16">
      <!-- 0.13 -->
      <g transform="translate(32.163365 387.536725)scale(0.2 -0.2)">
       <use xlink:href="#DejaVuSans-48"/>
       <use x="63.623047" xlink:href="#DejaVuSans-46"/>
       <use x="95.410156" xlink:href="#DejaVuSans-49"/>
       <use x="159.033203" xlink:href="#DejaVuSans-51"/>
      </g>
     </g>
    </g>
    <g id="ytick_8">
     <g id="line2d_16">
      <g>
       <use style="stroke:#000000;stroke-width:0.8;" x="83.694615" xlink:href="#m8ef043eaf8" y="283.309154"/>
      </g>
     </g>
     <g id="text_17">
      <!-- 0.14 -->
      <defs>
       <path d="M 37.796875 64.3125 
L 12.890625 25.390625 
L 37.796875 25.390625 
z
M 35.203125 72.90625 
L 47.609375 72.90625 
L 47.609375 25.390625 
L 58.015625 25.390625 
L 58.015625 17.1875 
L 47.609375 17.1875 
L 47.609375 0 
L 37.796875 0 
L 37.796875 17.1875 
L 4.890625 17.1875 
L 4.890625 26.703125 
z
" id="DejaVuSans-52"/>
      </defs>
      <g transform="translate(32.163365 290.907591)scale(0.2 -0.2)">
       <use xlink:href="#DejaVuSans-48"/>
       <use x="63.623047" xlink:href="#DejaVuSans-46"/>
       <use x="95.410156" xlink:href="#DejaVuSans-49"/>
       <use x="159.033203" xlink:href="#DejaVuSans-52"/>
      </g>
     </g>
    </g>
    <g id="ytick_9">
     <g id="line2d_17">
      <g>
       <use style="stroke:#000000;stroke-width:0.8;" x="83.694615" xlink:href="#m8ef043eaf8" y="186.68002"/>
      </g>
     </g>
     <g id="text_18">
      <!-- 0.15 -->
      <g transform="translate(32.163365 194.278458)scale(0.2 -0.2)">
       <use xlink:href="#DejaVuSans-48"/>
       <use x="63.623047" xlink:href="#DejaVuSans-46"/>
       <use x="95.410156" xlink:href="#DejaVuSans-49"/>
       <use x="159.033203" xlink:href="#DejaVuSans-53"/>
      </g>
     </g>
    </g>
    <g id="text_19">
     <!-- Length [m] -->
     <defs>
      <path d="M 9.8125 72.90625 
L 19.671875 72.90625 
L 19.671875 8.296875 
L 55.171875 8.296875 
L 55.171875 0 
L 9.8125 0 
z
" id="DejaVuSans-76"/>
      <path d="M 54.890625 33.015625 
L 54.890625 0 
L 45.90625 0 
L 45.90625 32.71875 
Q 45.90625 40.484375 42.875 44.328125 
Q 39.84375 48.1875 33.796875 48.1875 
Q 26.515625 48.1875 22.3125 43.546875 
Q 18.109375 38.921875 18.109375 30.90625 
L 18.109375 0 
L 9.078125 0 
L 9.078125 54.6875 
L 18.109375 54.6875 
L 18.109375 46.1875 
Q 21.34375 51.125 25.703125 53.5625 
Q 30.078125 56 35.796875 56 
Q 45.21875 56 50.046875 50.171875 
Q 54.890625 44.34375 54.890625 33.015625 
z
" id="DejaVuSans-110"/>
      <path d="M 45.40625 27.984375 
Q 45.40625 37.75 41.375 43.109375 
Q 37.359375 48.484375 30.078125 48.484375 
Q 22.859375 48.484375 18.828125 43.109375 
Q 14.796875 37.75 14.796875 27.984375 
Q 14.796875 18.265625 18.828125 12.890625 
Q 22.859375 7.515625 30.078125 7.515625 
Q 37.359375 7.515625 41.375 12.890625 
Q 45.40625 18.265625 45.40625 27.984375 
z
M 54.390625 6.78125 
Q 54.390625 -7.171875 48.1875 -13.984375 
Q 42 -20.796875 29.203125 -20.796875 
Q 24.46875 -20.796875 20.265625 -20.09375 
Q 16.0625 -19.390625 12.109375 -17.921875 
L 12.109375 -9.1875 
Q 16.0625 -11.328125 19.921875 -12.34375 
Q 23.78125 -13.375 27.78125 -13.375 
Q 36.625 -13.375 41.015625 -8.765625 
Q 45.40625 -4.15625 45.40625 5.171875 
L 45.40625 9.625 
Q 42.625 4.78125 38.28125 2.390625 
Q 33.9375 0 27.875 0 
Q 17.828125 0 11.671875 7.65625 
Q 5.515625 15.328125 5.515625 27.984375 
Q 5.515625 40.671875 11.671875 48.328125 
Q 17.828125 56 27.875 56 
Q 33.9375 56 38.28125 53.609375 
Q 42.625 51.21875 45.40625 46.390625 
L 45.40625 54.6875 
L 54.390625 54.6875 
z
" id="DejaVuSans-103"/>
      <path d="M 18.3125 70.21875 
L 18.3125 54.6875 
L 36.8125 54.6875 
L 36.8125 47.703125 
L 18.3125 47.703125 
L 18.3125 18.015625 
Q 18.3125 11.328125 20.140625 9.421875 
Q 21.96875 7.515625 27.59375 7.515625 
L 36.8125 7.515625 
L 36.8125 0 
L 27.59375 0 
Q 17.1875 0 13.234375 3.875 
Q 9.28125 7.765625 9.28125 18.015625 
L 9.28125 47.703125 
L 2.6875 47.703125 
L 2.6875 54.6875 
L 9.28125 54.6875 
L 9.28125 70.21875 
z
" id="DejaVuSans-116"/>
      <path d="M 54.890625 33.015625 
L 54.890625 0 
L 45.90625 0 
L 45.90625 32.71875 
Q 45.90625 40.484375 42.875 44.328125 
Q 39.84375 48.1875 33.796875 48.1875 
Q 26.515625 48.1875 22.3125 43.546875 
Q 18.109375 38.921875 18.109375 30.90625 
L 18.109375 0 
L 9.078125 0 
L 9.078125 75.984375 
L 18.109375 75.984375 
L 18.109375 46.1875 
Q 21.34375 51.125 25.703125 53.5625 
Q 30.078125 56 35.796875 56 
Q 45.21875 56 50.046875 50.171875 
Q 54.890625 44.34375 54.890625 33.015625 
z
" id="DejaVuSans-104"/>
     </defs>
     <g transform="translate(22.756178 661.697574)rotate(-90)scale(0.26 -0.26)">
      <use xlink:href="#DejaVuSans-76"/>
      <use x="55.697266" xlink:href="#DejaVuSans-101"/>
      <use x="117.220703" xlink:href="#DejaVuSans-110"/>
      <use x="180.599609" xlink:href="#DejaVuSans-103"/>
      <use x="244.076172" xlink:href="#DejaVuSans-116"/>
      <use x="283.285156" xlink:href="#DejaVuSans-104"/>
      <use x="346.664062" xlink:href="#DejaVuSans-32"/>
      <use x="378.451172" xlink:href="#DejaVuSans-91"/>
      <use x="417.464844" xlink:href="#DejaVuSans-109"/>
      <use x="514.876953" xlink:href="#DejaVuSans-93"/>
     </g>
    </g>
   </g>
   <g id="line2d_18">
    <path clip-path="url(#p8c3e89e06e)" d="M 210.663031 834.772351 
L 230.701843 834.738297 
L 231.39271 829.050531 
L 232.083318 796.205428 
L 232.776098 794.450063 
L 248.667034 794.445095 
L 648.056379 794.445095 
L 648.747231 741.575423 
L 650.129553 592.517026 
L 651.510979 480.224398 
L 652.202123 461.274054 
L 652.892832 460.629273 
L 660.493908 460.618906 
L 1063.337972 460.618906 
L 1064.029229 469.813804 
L 1064.719679 500.775247 
L 1065.410855 501.353577 
L 1136.582334 501.354657 
L 1479.310235 501.354657 
L 1480.001602 469.516827 
L 1480.694457 405.979541 
L 1482.07471 307.762449 
L 1482.765577 256.532591 
L 1483.456922 233.428607 
L 1484.147683 229.589726 
L 1487.602419 229.532419 
L 1491.748446 229.543506 
L 1551.172918 229.533283 
L 1576.739335 229.535011 
L 1641.000979 229.532851 
L 1681.769277 229.531843 
L 1685.223942 229.537026 
L 1701.807691 229.533427 
L 1707.335633 229.537026 
L 1733.59328 229.53861 
L 1743.267097 229.532419 
L 1753.633179 229.545522 
L 1760.541561 229.536306 
L 1781.962245 229.54437 
L 1788.871838 229.532419 
L 1793.708805 229.556609 
L 1796.47278 229.535875 
L 1802.692037 229.541634 
L 1809.601285 229.544514 
L 1845.53264 229.531843 
L 1873.862951 229.547826 
L 1879.391212 229.536163 
L 1894.593673 229.532131 
L 1895.284967 235.22141 
L 1898.047142 576.586772 
L 1898.737908 669.708754 
L 1899.429449 704.670705 
L 1900.120352 709.881509 
L 1900.810905 710.003684 
L 2053.518925 710.004188 
L 2310.566477 710.004188 
L 2311.256203 686.945921 
L 2314.020163 422.576534 
L 2316.092987 278.119942 
L 2317.474922 233.54927 
L 2318.166439 229.599661 
L 2319.54793 229.532851 
L 2323.002874 229.557041 
L 2326.458371 229.536306 
L 2333.368041 229.533859 
L 2354.097054 229.533571 
L 2357.552249 229.535155 
L 2431.487546 229.533283 
L 2461.199815 229.537458 
L 2465.345539 229.533283 
L 2501.276828 229.531267 
L 2506.804894 229.544658 
L 2512.332688 229.534867 
L 2515.787672 229.532419 
L 2531.68206 229.53933 
L 2544.117893 229.533427 
L 2573.830114 229.531843 
L 2580.740209 229.544082 
L 2586.959119 229.532563 
L 2591.795995 229.533571 
L 2614.59818 229.532995 
L 2617.362455 229.531411 
L 2647.765762 229.535587 
L 2661.585407 229.532419 
L 2669.87718 229.535731 
L 2692.680004 229.533859 
L 2695.443664 229.532131 
L 2730.685691 229.533715 
L 2750.031344 229.533283 
L 2750.031344 229.533283 
" style="fill:none;stroke:#008000;stroke-dasharray:9.6,2.4,1.5,2.4;stroke-dashoffset:0;stroke-width:1.5;"/>
   </g>
   <g id="line2d_19">
    <path clip-path="url(#p8c3e89e06e)" d="M 210.663031 834.946626 
L 224.482686 834.789879 
L 230.701843 834.770695 
L 231.39271 834.379745 
L 232.083318 793.09766 
L 232.776098 776.487528 
L 233.465494 822.33925 
L 234.156344 774.597681 
L 234.84735 797.981508 
L 235.538465 812.645881 
L 236.229779 769.823059 
L 236.920363 817.085351 
L 237.611259 787.883259 
L 238.3022 785.302288 
L 238.99327 816.877341 
L 239.684205 771.666081 
L 240.376307 812.030762 
L 241.066255 792.696497 
L 241.757237 783.85827 
L 242.448696 815.421692 
L 243.139266 773.197503 
L 243.830196 812.408748 
L 244.521135 788.345655 
L 245.212226 790.483967 
L 245.903172 809.727776 
L 246.593894 775.54605 
L 247.285585 814.716687 
L 247.976025 779.394039 
L 248.667034 803.637371 
L 250.048821 786.631843 
L 250.739805 809.496895 
L 251.431468 777.504732 
L 252.122275 812.537533 
L 252.812711 779.818011 
L 253.504097 805.839655 
L 254.196599 790.033241 
L 254.885649 793.880822 
L 255.57709 801.722368 
L 256.267996 783.604983 
L 256.959147 809.072449 
L 257.650009 779.763211 
L 258.340802 809.101737 
L 259.031723 783.482248 
L 259.722877 802.304216 
L 260.413752 792.470266 
L 261.105195 792.412279 
L 261.795756 801.750962 
L 262.486867 784.797809 
L 263.177768 806.624409 
L 263.868698 783.010824 
L 264.559461 805.442786 
L 265.250473 787.041505 
L 265.941464 799.200038 
L 266.632687 794.43478 
L 267.323573 791.656588 
L 268.015111 800.90991 
L 268.705513 786.925959 
L 269.397051 803.390166 
L 270.087626 786.893274 
L 270.780251 801.373995 
L 271.469611 790.603917 
L 272.160974 796.446689 
L 272.8519 795.657102 
L 273.542902 791.89392 
L 274.233374 799.01038 
L 274.924457 790.130993 
L 275.615264 799.361814 
L 276.306548 791.120591 
L 276.997404 797.227637 
L 277.688465 793.622369 
L 279.070438 795.760276 
L 279.761684 793.324099 
L 280.452579 796.326603 
L 281.143844 793.513841 
L 281.834382 795.571711 
L 282.525486 794.544911 
L 283.216268 794.601601 
L 283.907238 794.835202 
L 306.709616 794.781393 
L 647.365603 794.778666 
L 648.056379 794.778663 
L 648.747231 754.455689 
L 649.438059 636.894483 
L 650.129553 610.827039 
L 650.821084 543.346037 
L 651.510979 442.876168 
L 652.202123 468.498322 
L 652.892832 483.179478 
L 653.58417 436.058407 
L 654.275568 483.647319 
L 655.657089 444.186916 
L 656.34803 489.006299 
L 657.039095 444.177381 
L 657.730402 466.373921 
L 658.420841 479.826667 
L 659.111958 438.879004 
L 659.802962 484.73606 
L 660.493908 454.644161 
L 661.184645 456.33115 
L 661.877403 482.866374 
L 662.566936 439.855581 
L 663.257771 481.291842 
L 663.94878 457.476342 
L 664.639929 455.734371 
L 665.331269 481.075278 
L 666.021783 441.200415 
L 666.713091 481.588637 
L 667.403639 452.798167 
L 668.094748 462.535129 
L 668.785735 474.688036 
L 669.47665 444.790075 
L 670.169354 482.313392 
L 670.858687 445.21197 
L 671.550004 474.259289 
L 672.240688 460.309749 
L 672.931736 457.028947 
L 673.622546 475.572398 
L 674.313325 445.690789 
L 675.004535 480.165818 
L 675.69559 446.07819 
L 676.386562 474.781749 
L 677.07756 455.855933 
L 677.768283 462.588968 
L 678.45949 468.169191 
L 679.150594 451.632722 
L 679.841362 476.154482 
L 680.532685 446.800793 
L 681.223571 477.388659 
L 681.914304 448.361697 
L 682.606387 473.073188 
L 683.296835 454.516463 
L 683.989119 465.306527 
L 684.678118 462.343606 
L 685.369432 457.626674 
L 686.060536 469.227367 
L 686.751576 452.335479 
L 687.442298 473.458558 
L 688.133344 449.990799 
L 688.824335 474.465128 
L 689.515029 450.513212 
L 690.206201 472.456119 
L 690.897162 453.558344 
L 691.588263 468.331259 
L 692.27923 458.213148 
L 692.969951 463.273196 
L 693.66161 463.266317 
L 694.352264 458.737803 
L 695.043077 467.482139 
L 695.734229 455.636071 
L 696.425063 469.952544 
L 697.116097 454.354306 
L 697.806847 470.453943 
L 698.498623 454.816795 
L 699.188928 469.407689 
L 699.879889 456.478586 
L 700.570898 467.310747 
L 701.261888 458.81616 
L 701.953026 464.75856 
L 702.644316 461.361708 
L 703.334857 462.310917 
L 704.026407 463.688347 
L 704.717367 460.387035 
L 705.407931 465.440642 
L 706.09891 459.185367 
L 706.791551 466.441184 
L 707.481505 458.709684 
L 708.171769 466.705066 
L 708.863177 458.843547 
L 709.553406 466.391625 
L 710.245306 459.394917 
L 710.935796 465.734966 
L 711.627183 460.156688 
L 712.317826 464.952739 
L 713.008817 460.968365 
L 713.699826 464.195153 
L 714.390533 461.712784 
L 715.081766 463.487555 
L 715.772727 462.370411 
L 716.463686 462.901398 
L 717.1548 462.85537 
L 717.84582 462.560055 
L 718.537013 462.932655 
L 728.212044 462.805431 
L 755.849677 462.772058 
L 1063.337972 462.771669 
L 1064.029229 463.040019 
L 1064.719679 517.288055 
L 1065.410855 529.530875 
L 1066.102212 471.370926 
L 1066.792897 519.238739 
L 1067.483907 525.749929 
L 1068.175229 471.992797 
L 1068.865575 523.840936 
L 1069.556604 518.702284 
L 1070.248008 473.887338 
L 1070.939008 529.219899 
L 1071.63003 507.00393 
L 1072.320828 479.543364 
L 1073.011771 532.845208 
L 1073.702725 491.802373 
L 1074.39357 492.129716 
L 1075.084703 531.458514 
L 1075.777201 479.554788 
L 1076.467028 511.349968 
L 1077.15777 521.403746 
L 1077.848691 477.113592 
L 1078.539693 526.369653 
L 1079.230323 499.973722 
L 1079.921368 489.387494 
L 1080.612263 528.724712 
L 1081.303748 480.953789 
L 1081.994426 514.483871 
L 1082.685559 513.363616 
L 1083.376328 482.609096 
L 1084.067496 527.380365 
L 1084.758478 486.512737 
L 1085.449655 507.966219 
L 1086.140819 515.968563 
L 1086.831468 482.825938 
L 1087.522151 525.614956 
L 1088.214184 486.858601 
L 1088.904394 509.950218 
L 1089.595312 511.276679 
L 1090.292866 486.994053 
L 1090.977361 523.962334 
L 1091.668058 483.680414 
L 1092.359253 517.404331 
L 1093.050284 499.384956 
L 1093.741516 498.266334 
L 1094.432541 517.051854 
L 1095.123324 485.190174 
L 1095.814379 521.958852 
L 1096.504756 486.421097 
L 1097.196434 515.104799 
L 1097.887632 498.488461 
L 1098.57823 500.970737 
L 1099.269205 512.039421 
L 1099.96016 489.566821 
L 1100.651199 519.06296 
L 1101.34188 486.127768 
L 1102.033047 518.255342 
L 1102.72418 490.26752 
L 1103.415131 511.300377 
L 1104.107781 498.950153 
L 1104.796948 501.576521 
L 1105.488078 508.054143 
L 1106.179036 493.683208 
L 1106.869896 514.353455 
L 1107.560729 489.593179 
L 1108.251489 516.538107 
L 1108.942738 489.314611 
L 1109.63418 514.955297 
L 1110.324942 492.199987 
L 1111.016939 510.629806 
L 1111.706873 497.296166 
L 1112.397819 504.808773 
L 1113.088894 503.236345 
L 1113.779827 499.224234 
L 1114.47115 508.502831 
L 1115.16202 495.211151 
L 1115.854522 511.827375 
L 1116.543815 493.324188 
L 1117.234791 512.657411 
L 1117.926576 493.679757 
L 1118.616769 511.268187 
L 1119.308188 495.914622 
L 1119.998729 508.408772 
L 1120.68965 499.240832 
L 1121.380847 504.92461 
L 1122.07202 502.724883 
L 1122.76237 501.774584 
L 1123.453548 505.556393 
L 1124.144479 499.598686 
L 1124.835528 507.359564 
L 1125.52752 498.525825 
L 1126.217118 508.106168 
L 1126.909625 498.385492 
L 1127.599282 507.933785 
L 1128.290342 498.964534 
L 1128.981207 507.102547 
L 1129.673495 500.005407 
L 1130.363503 505.929724 
L 1131.054606 501.237704 
L 1131.745341 504.737761 
L 1132.436373 502.39481 
L 1133.127461 503.769699 
L 1133.81826 503.270992 
L 1134.509386 503.129872 
L 1135.200515 503.787876 
L 1135.891222 502.764138 
L 1136.582334 503.999823 
L 1137.273607 502.720837 
L 1137.964378 503.855759 
L 1138.654827 503.079912 
L 1139.346278 503.277984 
L 1151.093385 503.338376 
L 1227.793251 503.348785 
L 1479.310235 503.348785 
L 1480.001602 485.717772 
L 1480.694457 396.568724 
L 1481.383752 363.537464 
L 1482.07471 306.636194 
L 1482.765577 237.514812 
L 1483.456922 254.934077 
L 1484.147683 220.015631 
L 1484.838531 228.437269 
L 1485.531155 250.788506 
L 1486.220644 211.29618 
L 1486.911728 245.165621 
L 1487.602419 236.368664 
L 1488.293403 216.160611 
L 1488.984271 252.002764 
L 1489.675404 217.663633 
L 1490.366462 234.830148 
L 1491.057358 243.747149 
L 1491.748446 213.556932 
L 1492.439371 249.522316 
L 1493.130327 222.44954 
L 1493.821746 230.045224 
L 1494.51246 244.909838 
L 1495.203827 214.078766 
L 1495.894268 247.864052 
L 1496.585349 223.128916 
L 1497.276041 230.110575 
L 1497.967061 243.209884 
L 1498.658302 215.372801 
L 1499.34899 247.597441 
L 1500.040195 220.934635 
L 1500.731546 233.637635 
L 1501.423901 238.886429 
L 1502.113259 217.991662 
L 1502.804814 247.351743 
L 1503.49491 217.834247 
L 1504.186393 239.392618 
L 1505.568155 223.54858 
L 1506.259021 244.596107 
L 1506.950132 216.658233 
L 1507.640809 244.674156 
L 1508.332113 222.920827 
L 1509.023434 232.771094 
L 1509.714048 236.475504 
L 1510.404722 220.726078 
L 1511.095759 244.957758 
L 1511.787131 217.918444 
L 1512.478147 242.377339 
L 1513.168991 224.879295 
L 1513.859968 231.291657 
L 1514.551285 236.442449 
L 1515.241962 221.46257 
L 1515.93291 243.795393 
L 1516.623846 218.787832 
L 1517.314921 242.43353 
L 1518.005933 223.544515 
L 1518.69695 233.929367 
L 1519.387558 232.652213 
L 1520.079386 224.877747 
L 1520.770183 240.768485 
L 1521.460736 220.238181 
L 1522.151766 243.068108 
L 1522.842765 221.122992 
L 1523.533731 239.037469 
L 1524.224479 226.525656 
L 1524.917221 231.465951 
L 1525.606771 234.068323 
L 1526.297662 224.830232 
L 1526.988922 240.17701 
L 1527.679374 221.575728 
L 1528.370394 241.89241 
L 1529.062144 222.29648 
L 1529.752128 238.760283 
L 1530.44349 226.500228 
L 1531.134592 232.782361 
L 1531.825563 232.587537 
L 1532.516512 227.038837 
L 1533.207709 238.061107 
L 1533.89852 223.658322 
L 1534.589517 240.528836 
L 1535.280392 223.323156 
L 1535.971836 239.285116 
L 1536.662342 225.72312 
L 1537.35385 235.331183 
L 1538.044803 229.936631 
L 1538.735254 230.654674 
L 1539.426318 234.541806 
L 1540.117636 227.05125 
L 1540.808322 237.79303 
L 1541.499068 225.370438 
L 1542.190711 238.787765 
L 1542.88129 225.627019 
L 1543.572642 237.638645 
L 1544.263563 227.359485 
L 1544.955553 235.16854 
L 1545.645371 229.972576 
L 1546.335998 232.401661 
L 1547.027296 232.681851 
L 1547.718193 230.151691 
L 1548.409225 234.778344 
L 1549.100352 228.774127 
L 1549.791193 235.936674 
L 1550.483786 228.277254 
L 1551.172918 236.181782 
L 1551.865698 228.453917 
L 1552.554838 235.843236 
L 1553.245999 229.003611 
L 1553.936577 235.18888 
L 1554.627945 229.732918 
L 1555.319073 234.478592 
L 1556.009961 230.462684 
L 1556.700685 233.741312 
L 1557.392132 231.188568 
L 1558.082868 233.038531 
L 1558.773978 231.84209 
L 1559.46492 232.450601 
L 1560.156222 232.345737 
L 1560.846773 232.066042 
L 1561.537815 232.583654 
L 1562.229242 232.020928 
L 1562.920038 232.315951 
L 1598.160433 232.286916 
L 1768.833631 232.286956 
L 1894.593673 232.286927 
L 1895.284967 232.670966 
L 1895.9743 273.586593 
L 1896.665284 420.04363 
L 1897.356405 515.669601 
L 1898.047142 539.701448 
L 1899.429449 802.768302 
L 1900.120352 805.593517 
L 1900.810905 688.614597 
L 1901.502381 615.390308 
L 1902.193314 681.321221 
L 1902.884025 798.26725 
L 1903.575498 794.427837 
L 1904.26668 676.054146 
L 1904.957143 622.85936 
L 1906.339129 801.372906 
L 1907.03023 769.575953 
L 1907.721011 650.633244 
L 1908.412163 640.272871 
L 1909.103165 752.379463 
L 1909.794179 797.468979 
L 1911.176104 633.773365 
L 1911.867085 686.966529 
L 1912.559748 786.50898 
L 1913.249194 764.956303 
L 1913.941353 655.776707 
L 1914.631678 654.269152 
L 1915.322924 761.076526 
L 1916.013114 780.536178 
L 1916.705734 683.440821 
L 1917.394706 645.58969 
L 1918.086484 737.659109 
L 1918.777114 781.994239 
L 1919.467968 703.405035 
L 1920.159064 646.481588 
L 1920.849885 724.661941 
L 1921.54117 778.828317 
L 1922.922855 649.833682 
L 1923.61358 724.949034 
L 1924.306477 774.614692 
L 1924.995831 701.66978 
L 1925.686801 654.522663 
L 1926.377823 736.208381 
L 1927.068778 768.021975 
L 1927.75986 684.701205 
L 1928.450755 664.293783 
L 1929.141773 752.125953 
L 1929.832772 753.821816 
L 1930.523743 667.344704 
L 1931.214727 686.770526 
L 1931.905787 763.708774 
L 1932.596405 723.723969 
L 1933.287554 661.095722 
L 1933.97835 727.739471 
L 1934.669518 759.002505 
L 1935.360451 681.111422 
L 1936.051452 679.972053 
L 1936.744258 756.759704 
L 1937.43351 724.84706 
L 1938.124522 665.679041 
L 1938.81706 731.567211 
L 1939.50622 750.560172 
L 1940.19752 675.109828 
L 1940.888201 698.0401 
L 1941.58008 755.873892 
L 1942.270176 696.768064 
L 1942.961573 678.714326 
L 1943.65212 749.867336 
L 1944.343406 719.583697 
L 1945.034237 672.494458 
L 1945.725334 739.385016 
L 1946.416588 733.355981 
L 1947.108365 672.864093 
L 1947.798179 729.18641 
L 1948.489274 739.482139 
L 1949.180226 675.453396 
L 1949.870993 722.080765 
L 1950.562135 741.159943 
L 1951.25487 677.711657 
L 1951.943974 719.615218 
L 1952.634887 740.106754 
L 1953.326196 678.696935 
L 1954.018671 721.715065 
L 1954.708488 736.705865 
L 1955.399187 678.841377 
L 1956.090125 727.353664 
L 1956.781071 730.163918 
L 1957.471818 679.762989 
L 1958.163244 734.340336 
L 1958.854084 718.784321 
L 1959.545142 684.033968 
L 1960.236102 739.786937 
L 1960.926868 702.726912 
L 1961.618315 695.14165 
L 1962.309215 740.146122 
L 1963.000033 688.417824 
L 1963.691053 714.859902 
L 1964.381473 731.1572 
L 1965.07421 683.912097 
L 1965.76399 732.863168 
L 1966.454999 709.36876 
L 1967.145841 694.810407 
L 1967.836364 736.878495 
L 1968.528974 688.816081 
L 1969.218785 720.989785 
L 1969.90975 721.026622 
L 1970.600705 689.926712 
L 1971.292867 735.242022 
L 1971.983564 693.327625 
L 1972.673752 716.524496 
L 1973.364466 721.804894 
L 1974.055481 691.348461 
L 1974.746821 733.560903 
L 1975.43782 692.560077 
L 1976.128786 720.787489 
L 1976.819549 714.456158 
L 1977.510671 698.020362 
L 1978.201692 730.37932 
L 1978.89272 690.533948 
L 1979.58379 728.529973 
L 1980.274663 700.559949 
L 1980.965262 713.323996 
L 1981.656251 717.889333 
L 1982.347213 697.812502 
L 1983.038869 728.179916 
L 1983.729499 692.569485 
L 1984.420533 727.80743 
L 1985.111774 697.638349 
L 1985.802487 719.256679 
L 1986.493335 708.608496 
L 1987.184289 707.471956 
L 1987.875558 719.272925 
L 1988.566367 698.519596 
L 1989.257392 725.385926 
L 1989.948409 695.343134 
L 1990.639234 725.55909 
L 1991.330455 697.899786 
L 1992.023078 720.500011 
L 1992.712708 704.870804 
L 1993.403067 712.218212 
L 1994.0946 713.423053 
L 1994.785281 704.264004 
L 1995.476275 720.138809 
L 1996.167229 699.560784 
L 1996.858131 722.711255 
L 1997.549054 699.349532 
L 1998.239929 720.823459 
L 1998.931285 703.115767 
L 1999.622228 715.458447 
L 2000.313133 709.295661 
L 2001.004947 709.100646 
L 2001.695125 715.136099 
L 2002.385867 704.448266 
L 2003.076907 718.377053 
L 2003.767796 702.966642 
L 2004.45879 718.314833 
L 2005.150009 704.499396 
L 2005.840535 715.531246 
L 2006.531909 708.105724 
L 2007.223753 711.571448 
L 2007.913975 711.856421 
L 2008.604883 708.506223 
L 2009.295864 714.034456 
L 2009.98665 707.4533 
L 2010.678337 714.189424 
L 2011.369071 708.164497 
L 2012.05991 712.876782 
L 2012.750592 709.753753 
L 2013.441789 711.393244 
L 2014.132855 710.90496 
L 2014.823646 710.668508 
L 2015.514721 711.210856 
L 2016.205828 710.959339 
L 2039.699547 710.921034 
L 2310.566477 710.920502 
L 2311.256203 706.504827 
L 2312.638195 532.374084 
L 2313.328883 516.10016 
L 2314.020163 412.779263 
L 2314.711192 377.686764 
L 2315.402125 348.653183 
L 2316.092987 249.573783 
L 2316.784176 243.756865 
L 2317.474922 274.759445 
L 2318.166439 217.640547 
L 2318.857165 202.193762 
L 2319.54793 266.002736 
L 2320.240067 255.284888 
L 2320.929911 197.156708 
L 2321.621064 237.644152 
L 2322.312037 269.867511 
L 2323.002874 214.035951 
L 2323.693931 210.154364 
L 2324.384931 267.218825 
L 2325.075986 239.598211 
L 2325.767268 200.300058 
L 2326.458371 255.162273 
L 2327.148676 255.899709 
L 2327.840057 201.51146 
L 2328.53097 239.892573 
L 2329.221816 262.564876 
L 2329.912567 207.918016 
L 2330.603625 226.720645 
L 2331.294888 263.913704 
L 2331.985761 215.286744 
L 2332.676747 219.048747 
L 2333.368041 262.917656 
L 2334.058713 220.662927 
L 2334.749704 215.935696 
L 2335.44075 261.441879 
L 2336.13155 222.724869 
L 2336.823041 216.02619 
L 2337.513615 260.228203 
L 2338.204701 221.484074 
L 2338.895318 218.809989 
L 2339.586628 259.114189 
L 2340.277678 217.626055 
L 2340.969275 224.543481 
L 2341.659519 257.218079 
L 2342.350508 212.688425 
L 2343.732685 252.966363 
L 2344.424152 209.156081 
L 2345.114602 243.98692 
L 2345.805492 244.322074 
L 2346.496433 209.996419 
L 2347.187452 251.983211 
L 2347.880063 229.843808 
L 2348.56939 218.510549 
L 2349.261929 253.994195 
L 2349.951584 215.688928 
L 2350.643658 234.978375 
L 2351.33387 246.719162 
L 2352.024055 211.402168 
L 2352.715096 249.264022 
L 2353.406024 228.466254 
L 2354.097054 222.292711 
L 2354.788177 250.680208 
L 2355.479263 213.611537 
L 2356.170357 242.594663 
L 2356.861229 235.573543 
L 2357.552249 218.188288 
L 2358.24322 250.110587 
L 2358.934163 216.144846 
L 2359.626376 239.330554 
L 2360.316445 236.655234 
L 2361.006805 218.239384 
L 2361.699051 248.945508 
L 2362.38907 216.581995 
L 2363.080113 239.777216 
L 2363.772403 234.0192 
L 2364.46205 220.658295 
L 2365.1529 247.368967 
L 2365.843928 215.909782 
L 2366.534996 242.73054 
L 2367.226578 228.474893 
L 2367.916933 225.699629 
L 2368.608284 244.020668 
L 2369.298773 216.228363 
L 2369.989941 245.783114 
L 2370.680851 221.883585 
L 2371.371893 233.601598 
L 2372.063213 236.587358 
L 2372.753867 220.259993 
L 2373.444793 245.628074 
L 2374.135822 217.559069 
L 2374.826831 242.13025 
L 2375.5175 226.021419 
L 2376.208932 229.532867 
L 2376.899754 238.733602 
L 2377.590804 219.756753 
L 2378.281798 244.851019 
L 2378.972701 218.809668 
L 2379.663774 240.914513 
L 2380.354592 226.133155 
L 2381.045688 230.271103 
L 2381.736662 236.812513 
L 2382.427503 221.602754 
L 2383.118712 243.37363 
L 2383.809662 219.295953 
L 2384.500598 242.15665 
L 2385.191925 223.429793 
L 2385.882472 234.605852 
L 2386.573743 231.497504 
L 2387.264595 226.210128 
L 2387.955215 239.285873 
L 2388.64606 221.305133 
L 2389.337539 242.57632 
L 2390.029641 221.050661 
L 2390.719441 240.197375 
L 2391.410817 225.004237 
L 2392.101107 233.893907 
L 2392.79404 231.538385 
L 2393.483332 227.248713 
L 2394.174174 237.952957 
L 2394.865399 223.078439 
L 2395.556773 241.188495 
L 2396.247278 222.348052 
L 2396.938321 240.029118 
L 2397.629346 224.947828 
L 2398.320586 235.481895 
L 2399.011379 229.859474 
L 2399.702362 229.975802 
L 2400.393783 235.241541 
L 2401.084503 225.893806 
L 2401.775176 238.881896 
L 2402.466236 224.19432 
L 2403.156903 239.606481 
L 2403.84825 224.905446 
L 2404.539295 237.577593 
L 2405.230399 227.54467 
L 2405.920973 233.993085 
L 2406.612001 231.22341 
L 2407.30326 230.360374 
L 2407.993989 234.707498 
L 2408.685032 227.795894 
L 2409.376049 236.988582 
L 2410.067038 226.659439 
L 2410.758118 237.673073 
L 2411.448976 226.858422 
L 2412.139715 236.977649 
L 2412.830976 227.945477 
L 2413.521895 235.509644 
L 2414.212693 229.545551 
L 2414.90428 233.858973 
L 2415.594882 231.179524 
L 2416.285917 232.421061 
L 2416.976886 232.532396 
L 2417.667621 231.436404 
L 2418.358796 233.407451 
L 2419.049884 230.885798 
L 2419.740784 233.834621 
L 2420.432266 230.641405 
L 2421.123184 233.958061 
L 2421.813451 230.637437 
L 2422.506508 233.849706 
L 2423.195786 230.869226 
L 2423.887133 233.50358 
L 2424.577603 231.32431 
L 2425.268475 232.95942 
L 2425.960411 231.912994 
L 2426.650655 232.343812 
L 2428.723625 232.363897 
L 2443.925146 232.291967 
L 2750.031344 232.285147 
L 2750.031344 232.285147 
" style="fill:none;stroke:#008000;stroke-linecap:square;stroke-width:3;"/>
   </g>
   <g id="line2d_20">
    <path clip-path="url(#p8c3e89e06e)" d="M 210.663031 264.955349 
L 230.701843 264.988467 
L 231.39271 270.516478 
L 232.083318 302.724287 
L 232.776098 304.459206 
L 248.667034 304.464101 
L 648.056379 304.464245 
L 648.747231 357.367396 
L 650.129553 513.321984 
L 651.510979 637.694394 
L 652.202123 659.30212 
L 652.892832 660.040565 
L 659.802962 660.052444 
L 1063.337972 660.052444 
L 1064.029229 649.541922 
L 1064.719679 614.469028 
L 1065.410855 613.818488 
L 1128.290342 613.817264 
L 1479.310235 613.817264 
L 1480.001602 649.880728 
L 1480.694457 723.432639 
L 1482.07471 841.612963 
L 1482.765577 905.657089 
L 1483.456922 935.137177 
L 1484.147683 940.073539 
L 1486.911728 940.149349 
L 1524.917221 940.145389 
L 1556.009961 940.148629 
L 1568.447796 940.147837 
L 1582.95841 940.13531 
L 1588.486251 940.146757 
L 1599.542077 940.119255 
L 1602.997023 940.132934 
L 1607.833575 940.147837 
L 1812.366531 940.146973 
L 1814.438529 940.141574 
L 1824.802817 940.145533 
L 1828.949256 940.13531 
L 1834.477163 940.140134 
L 1846.915108 940.148125 
L 1860.734493 940.135382 
L 1865.571496 940.146181 
L 1871.098714 940.132574 
L 1875.935626 940.149061 
L 1894.593673 940.147693 
L 1895.284967 932.835591 
L 1896.665284 732.473757 
L 1898.737908 431.29483 
L 1899.429449 395.039285 
L 1900.120352 389.683052 
L 1900.810905 389.557638 
L 2079.085585 389.557062 
L 2310.566477 389.557062 
L 2311.256203 413.350751 
L 2315.402125 830.93347 
L 2316.092987 878.454109 
L 2317.474922 934.982317 
L 2318.166439 940.060652 
L 2319.54793 940.146613 
L 2323.002874 940.115584 
L 2325.767268 940.148701 
L 2337.513615 940.149565 
L 2351.33387 940.127391 
L 2355.479263 940.143374 
L 2368.608284 940.147189 
L 2370.680851 940.135238 
L 2376.208932 940.143949 
L 2378.281798 940.147117 
L 2407.993989 940.146901 
L 2410.758118 940.149061 
L 2430.796305 940.148917 
L 2459.817796 940.134446 
L 2466.036676 940.148773 
L 2481.929746 940.146685 
L 2683.697517 940.147045 
L 2686.460932 940.142222 
L 2718.93738 940.145677 
L 2723.082856 940.136534 
L 2734.829967 940.145317 
L 2750.031344 940.146037 
L 2750.031344 940.146037 
" style="fill:none;stroke:#ff0000;stroke-dasharray:9.6,2.4,1.5,2.4;stroke-dashoffset:0;stroke-width:1.5;"/>
   </g>
   <g id="line2d_21">
    <path clip-path="url(#p8c3e89e06e)" d="M 210.663031 264.786198 
L 224.482686 264.938336 
L 230.701843 264.956958 
L 231.39271 265.336419 
L 232.083318 305.796618 
L 232.776098 322.292963 
L 233.465494 277.057634 
L 234.156344 324.177216 
L 234.84735 300.970742 
L 235.538465 286.541613 
L 236.229779 328.946144 
L 236.920363 282.193174 
L 237.611259 310.961731 
L 238.3022 313.52359 
L 238.99327 282.396359 
L 239.684205 327.104125 
L 240.376307 287.145529 
L 241.066255 306.193476 
L 241.757237 314.957772 
L 242.448696 283.821492 
L 243.139266 325.574769 
L 243.830196 286.774737 
L 244.521135 310.503232 
L 245.212226 308.384825 
L 245.903172 289.405064 
L 246.593894 323.231525 
L 247.285585 284.512274 
L 247.976025 319.397112 
L 248.667034 295.394378 
L 250.048821 312.203856 
L 250.739805 289.631827 
L 251.431468 321.279053 
L 252.122275 286.648189 
L 252.812711 318.975123 
L 253.504097 293.226888 
L 254.196599 308.830636 
L 254.885649 305.022578 
L 255.57709 297.280111 
L 256.267996 315.209327 
L 256.959147 290.048776 
L 257.650009 319.029821 
L 258.340802 290.020245 
L 259.031723 315.330922 
L 259.722877 296.707364 
L 260.413752 306.417487 
L 261.105195 306.475433 
L 261.795756 297.252007 
L 262.486867 314.024331 
L 263.177768 292.454679 
L 263.868698 315.799575 
L 264.559461 293.6171 
L 265.250473 311.796921 
L 265.941464 299.767883 
L 266.632687 304.47419 
L 267.323573 307.223381 
L 268.015111 298.081107 
L 268.705513 311.911789 
L 269.397051 295.637358 
L 270.087626 311.944114 
L 270.780251 297.623878 
L 271.469611 308.2655 
L 272.160974 302.486102 
L 272.8519 303.265984 
L 273.542902 306.988332 
L 274.233374 299.954699 
L 274.924457 308.734135 
L 275.615264 299.608047 
L 276.306548 307.753879 
L 276.997404 301.714657 
L 277.688465 305.277787 
L 279.070438 303.164106 
L 279.761684 305.572935 
L 280.452579 302.604573 
L 281.143844 305.385198 
L 281.834382 303.350515 
L 282.525486 304.365486 
L 283.216268 304.309462 
L 283.907238 304.078502 
L 306.709616 304.131696 
L 648.056379 304.134395 
L 648.747231 344.36326 
L 649.438059 465.828835 
L 650.129553 493.615302 
L 650.821084 567.027973 
L 651.510979 680.457322 
L 652.202123 651.041716 
L 652.892832 634.342582 
L 653.58417 688.342893 
L 654.275568 633.811088 
L 655.657089 678.943913 
L 656.34803 627.744078 
L 657.039095 678.95651 
L 657.730402 653.467673 
L 658.420841 638.147044 
L 659.111958 685.077522 
L 659.802962 632.577437 
L 660.493908 666.906414 
L 661.184645 664.967283 
L 661.877403 634.697502 
L 662.566936 683.948208 
L 663.257771 636.482723 
L 663.94878 663.655602 
L 664.639929 665.652324 
L 665.331269 636.729432 
L 666.021783 682.393486 
L 666.713091 636.146083 
L 667.403639 669.027399 
L 668.094748 657.857201 
L 668.785735 643.989015 
L 669.47665 678.248158 
L 670.169354 635.324258 
L 670.858687 677.762471 
L 671.550004 644.475499 
L 672.240688 660.407506 
L 672.931736 664.166686 
L 673.622546 642.982547 
L 674.313325 677.209262 
L 675.004535 637.761353 
L 675.69559 676.76335 
L 676.386562 643.880968 
L 677.07756 665.514812 
L 677.768283 657.795722 
L 678.45949 651.419619 
L 679.150594 670.365698 
L 679.841362 642.320178 
L 680.532685 675.929658 
L 681.223571 640.916296 
L 681.914304 674.131684 
L 682.606387 645.826313 
L 683.296835 667.052693 
L 683.989119 654.687759 
L 684.678118 658.078417 
L 685.369432 663.48122 
L 686.060536 650.211795 
L 686.751576 669.55772 
L 687.442298 645.388371 
L 688.133344 672.255285 
L 688.824335 644.241962 
L 689.515029 671.654438 
L 690.206201 646.529494 
L 690.897162 668.153098 
L 691.588263 651.233101 
L 692.27923 662.810029 
L 692.969951 657.013095 
L 693.66161 657.022295 
L 694.352264 662.207245 
L 695.043077 652.203595 
L 695.734229 665.76577 
L 696.425063 649.384034 
L 697.116097 667.237938 
L 697.806847 648.811981 
L 698.498623 666.706954 
L 699.188928 650.005139 
L 699.879889 664.799356 
L 700.570898 652.398448 
L 701.261888 662.118328 
L 701.953026 655.314542 
L 702.644316 659.201931 
L 703.334857 658.114444 
L 704.026407 656.539201 
L 704.717367 660.317452 
L 705.407931 654.535567 
L 706.09891 661.694493 
L 706.791551 653.392158 
L 707.481505 662.239868 
L 708.171769 653.090592 
L 708.863177 662.086499 
L 709.553406 653.448549 
L 710.245306 661.454586 
L 710.935796 654.198781 
L 711.627183 660.581747 
L 712.317826 655.09281 
L 713.008817 659.65203 
L 713.699826 655.959007 
L 714.390533 658.799627 
L 715.081766 656.768338 
L 715.772727 658.046826 
L 716.463686 657.438986 
L 717.1548 657.491801 
L 717.84582 657.829643 
L 718.537013 657.403302 
L 727.51939 657.544326 
L 750.322118 657.58643 
L 1063.337972 657.587516 
L 1064.029229 657.280398 
L 1064.719679 595.960146 
L 1065.410855 582.326306 
L 1066.102212 647.76549 
L 1066.792897 593.782619 
L 1067.483907 586.52942 
L 1068.175229 647.05661 
L 1068.865575 588.653096 
L 1069.556604 594.382743 
L 1070.248008 644.898403 
L 1070.939008 582.671001 
L 1071.63003 607.472602 
L 1072.320828 638.466501 
L 1073.011771 578.647252 
L 1073.702725 624.584002 
L 1074.39357 624.212385 
L 1075.084703 580.185959 
L 1075.777201 638.454497 
L 1076.467028 602.599871 
L 1077.15777 591.369522 
L 1077.848691 641.227776 
L 1078.539693 585.839256 
L 1079.230323 615.371682 
L 1079.921368 627.311142 
L 1080.612263 583.221665 
L 1081.303748 636.866125 
L 1081.994426 599.093512 
L 1082.685559 600.347992 
L 1083.376328 634.987255 
L 1084.067496 584.715629 
L 1084.758478 630.565155 
L 1085.449655 606.39141 
L 1086.140819 597.4355 
L 1086.831468 634.74141 
L 1087.522151 586.679091 
L 1088.214184 630.17357 
L 1088.904394 604.167698 
L 1089.595312 602.683687 
L 1090.292866 630.018997 
L 1090.977361 588.518692 
L 1091.668058 633.773294 
L 1092.359253 595.83051 
L 1093.050284 616.034234 
L 1093.741516 617.291916 
L 1094.432541 596.225219 
L 1095.123324 632.061836 
L 1095.814379 590.750301 
L 1096.504756 630.668585 
L 1097.196434 598.399592 
L 1097.887632 617.043504 
L 1098.57823 614.248096 
L 1099.269205 601.82968 
L 1099.96016 627.108653 
L 1100.651199 593.979839 
L 1101.34188 631.000265 
L 1102.033047 594.880752 
L 1102.72418 626.317622 
L 1103.415131 602.655729 
L 1104.107781 616.52357 
L 1104.796948 613.566869 
L 1105.488078 606.29448 
L 1106.179036 622.458993 
L 1106.869896 599.2406 
L 1107.560729 627.079089 
L 1108.251489 596.798613 
L 1108.942738 627.394391 
L 1109.63418 598.567074 
L 1110.324942 624.134302 
L 1111.016939 603.406812 
L 1111.706873 618.386194 
L 1112.397819 609.934824 
L 1113.088894 611.702385 
L 1113.779827 616.213675 
L 1114.47115 605.791189 
L 1115.16202 620.735443 
L 1115.854522 602.06662 
L 1116.543815 622.864523 
L 1117.234791 601.137387 
L 1117.926576 622.463475 
L 1118.616769 602.692242 
L 1119.308188 619.942879 
L 1119.998729 605.895796 
L 1120.68965 616.195878 
L 1121.380847 609.80493 
L 1122.07202 612.276912 
L 1122.76237 613.344471 
L 1123.453548 609.09633 
L 1124.144479 615.792409 
L 1124.835528 607.072885 
L 1125.52752 617.000343 
L 1126.217118 606.235472 
L 1126.909625 617.158483 
L 1127.599282 606.428654 
L 1128.290342 616.506579 
L 1128.981207 607.360856 
L 1129.673495 615.335056 
L 1130.363503 608.676789 
L 1131.054606 613.948743 
L 1131.745341 610.014937 
L 1132.436373 612.647679 
L 1133.127461 611.102271 
L 1133.81826 611.662909 
L 1134.509386 611.821207 
L 1135.200515 611.08212 
L 1135.891222 612.23228 
L 1136.582334 610.843977 
L 1137.273607 612.280996 
L 1137.964378 611.005765 
L 1138.654827 611.877487 
L 1139.346278 611.654885 
L 1149.711325 611.589931 
L 1206.372059 611.575347 
L 1479.310235 611.575346 
L 1480.001602 631.465874 
L 1480.694457 734.512734 
L 1481.383752 773.799966 
L 1482.07471 843.003976 
L 1482.765577 929.892285 
L 1483.456922 907.684149 
L 1484.147683 952.433533 
L 1484.838531 941.554557 
L 1485.531155 912.952253 
L 1486.220644 963.748457 
L 1486.911728 920.111611 
L 1487.602419 931.366375 
L 1488.293403 957.426097 
L 1488.984271 911.407769 
L 1489.675404 955.479871 
L 1490.366462 933.335238 
L 1491.057358 921.925185 
L 1491.748446 960.80761 
L 1492.439371 914.561646 
L 1493.130327 949.285136 
L 1493.821746 939.484425 
L 1494.51246 920.440976 
L 1495.203827 960.129848 
L 1495.894268 916.672746 
L 1496.585349 948.407083 
L 1497.276041 939.400403 
L 1497.967061 922.611173 
L 1498.658302 958.449279 
L 1499.34899 917.012608 
L 1500.040195 951.243783 
L 1500.731546 934.866336 
L 1501.423901 928.140154 
L 1502.113259 955.052011 
L 1502.804814 917.326253 
L 1503.49491 955.257969 
L 1504.186393 927.488315 
L 1505.568155 947.861312 
L 1506.259021 920.840966 
L 1506.950132 956.781803 
L 1507.640809 920.739456 
L 1508.332113 948.675565 
L 1509.023434 935.979549 
L 1509.714048 931.229112 
L 1510.404722 951.510839 
L 1511.095759 920.379046 
L 1511.787131 955.148178 
L 1512.478147 923.671923 
L 1513.168991 946.146256 
L 1513.859968 937.881309 
L 1514.551285 931.271411 
L 1515.241962 950.558116 
L 1515.93291 921.862634 
L 1516.623846 954.021478 
L 1517.314921 923.600362 
L 1518.005933 947.869465 
L 1518.69695 934.491995 
L 1519.387558 936.136284 
L 1520.079386 946.145192 
L 1520.770183 925.731101 
L 1521.460736 952.142884 
L 1522.151766 922.790537 
L 1522.842765 950.998988 
L 1523.533731 927.943351 
L 1524.224479 944.022008 
L 1524.917221 937.657374 
L 1525.606771 934.317235 
L 1526.297662 946.206686 
L 1526.988922 926.487497 
L 1527.679374 950.412389 
L 1528.370394 924.292673 
L 1529.062144 949.481295 
L 1529.752128 928.298404 
L 1530.44349 944.054501 
L 1531.134592 935.965449 
L 1531.825563 936.218967 
L 1532.516512 943.357587 
L 1533.207709 929.196219 
L 1533.89852 947.720429 
L 1534.589517 926.036507 
L 1535.280392 948.15408 
L 1535.971836 927.626941 
L 1536.662342 945.056315 
L 1537.35385 932.693263 
L 1538.044803 939.627552 
L 1538.735254 938.70109 
L 1539.426318 933.708779 
L 1540.117636 943.341834 
L 1540.808322 929.539142 
L 1541.499068 945.510139 
L 1542.190711 928.264396 
L 1542.88129 945.179566 
L 1543.572642 929.735543 
L 1544.263563 942.945944 
L 1544.955553 932.902186 
L 1545.645371 939.580863 
L 1546.335998 936.455015 
L 1547.027296 936.097002 
L 1547.718193 939.348527 
L 1548.409225 933.404636 
L 1549.100352 941.122117 
L 1549.791193 931.918263 
L 1550.483786 941.762345 
L 1551.172918 931.603601 
L 1551.865698 941.535014 
L 1552.554838 932.037488 
L 1553.245999 940.827287 
L 1553.936577 932.876718 
L 1554.627945 939.888537 
L 1555.319073 933.788135 
L 1556.009961 938.949514 
L 1556.700685 934.734647 
L 1557.392132 938.015829 
L 1558.082868 935.6373 
L 1558.773978 937.175504 
L 1559.46492 936.39277 
L 1560.156222 936.528055 
L 1560.846773 936.887122 
L 1561.537815 936.222194 
L 1562.229242 936.945246 
L 1562.920038 936.56607 
L 1591.250276 936.601445 
L 1702.498829 936.60495 
L 1894.593673 936.6034 
L 1895.284967 936.109687 
L 1895.9743 884.137301 
L 1896.665284 706.964417 
L 1897.356405 597.769641 
L 1898.047142 571.05342 
L 1899.429449 296.249506 
L 1900.120352 293.468274 
L 1900.810905 411.620852 
L 1901.502381 488.728087 
L 1902.193314 419.191157 
L 1902.884025 300.687852 
L 1903.575498 304.480765 
L 1904.26668 424.673566 
L 1904.957143 480.75015 
L 1906.339129 297.624475 
L 1907.03023 329.192606 
L 1907.721011 451.310056 
L 1908.412163 462.250352 
L 1909.103165 346.454663 
L 1909.794179 301.475817 
L 1911.176104 469.139017 
L 1911.867085 413.329262 
L 1912.559748 312.325033 
L 1913.249194 333.816763 
L 1913.941353 445.89683 
L 1914.631678 447.482015 
L 1915.322924 337.707957 
L 1916.013114 318.259996 
L 1916.705734 416.988726 
L 1917.394706 456.629688 
L 1918.086484 361.336249 
L 1918.777114 316.809685 
L 1919.467968 396.342211 
L 1920.159064 455.688105 
L 1920.849885 374.556607 
L 1921.54117 319.960041 
L 1922.922855 452.152475 
L 1923.61358 374.263763 
L 1924.306477 324.159902 
L 1924.995831 398.12963 
L 1925.686801 447.215372 
L 1926.377823 362.808115 
L 1927.068778 330.747053 
L 1927.75986 415.679925 
L 1928.450755 436.95948 
L 1929.141773 346.710036 
L 1929.832772 345.001451 
L 1930.523743 433.766247 
L 1931.214727 413.532544 
L 1931.905787 335.067252 
L 1932.596405 375.513427 
L 1933.287554 440.311445 
L 1933.97835 371.419364 
L 1934.669518 339.790507 
L 1935.360451 419.409436 
L 1936.051452 420.594228 
L 1936.744258 342.045039 
L 1937.43351 374.367575 
L 1938.124522 435.509061 
L 1938.81706 367.52329 
L 1939.50622 348.288339 
L 1940.19752 425.657677 
L 1940.888201 401.872739 
L 1941.58008 342.936003 
L 1942.270176 403.186028 
L 1942.961573 421.902952 
L 1943.65212 348.987269 
L 1944.343406 379.742511 
L 1945.034237 428.385565 
L 1945.725334 359.586322 
L 1946.416588 365.704626 
L 1947.108365 427.999855 
L 1947.798179 369.945805 
L 1948.489274 359.487714 
L 1949.180226 425.299504 
L 1949.870993 377.19112 
L 1950.562135 357.787999 
L 1951.25487 422.946867 
L 1951.943974 379.710429 
L 1952.634887 358.8548 
L 1953.326196 421.921131 
L 1954.018671 377.564619 
L 1954.708488 362.303034 
L 1955.399187 421.770781 
L 1956.090125 371.812396 
L 1956.781071 368.950663 
L 1957.471818 420.811765 
L 1958.163244 364.704714 
L 1958.854084 380.559925 
L 1959.545142 416.372554 
L 1960.236102 359.178947 
L 1960.926868 397.040555 
L 1961.618315 404.866074 
L 1962.309215 358.814956 
L 1963.000033 411.824716 
L 1963.691053 384.577154 
L 1964.381473 367.940105 
L 1965.07421 416.499139 
L 1965.76399 366.205616 
L 1966.454999 390.209565 
L 1967.145841 405.208403 
L 1967.836364 362.127921 
L 1968.528974 411.411975 
L 1969.218785 378.305539 
L 1969.90975 378.267766 
L 1970.600705 410.261299 
L 1971.292867 363.78893 
L 1971.983564 406.741488 
L 1972.673752 382.872397 
L 1973.364466 377.472719 
L 1974.055481 408.789184 
L 1974.746821 365.496472 
L 1975.43782 407.535421 
L 1976.128786 378.512235 
L 1976.819549 384.990736 
L 1977.510671 401.893117 
L 1978.201692 368.731513 
L 1978.89272 409.632471 
L 1979.58379 370.614122 
L 1980.274663 399.273525 
L 1980.965262 386.151212 
L 1981.656251 381.475454 
L 1982.347213 402.107661 
L 1983.038869 370.970558 
L 1983.729499 407.525658 
L 1984.420533 371.350028 
L 1985.111774 402.287467 
L 1985.802487 380.076987 
L 1986.493335 390.990475 
L 1987.184289 392.158378 
L 1987.875558 380.060278 
L 1988.566367 401.377926 
L 1989.257392 373.818038 
L 1989.948409 404.657903 
L 1990.639234 373.641496 
L 1991.330455 402.017602 
L 1992.023078 378.805984 
L 1992.712708 394.833437 
L 1993.403067 387.285119 
L 1994.0946 386.049599 
L 1994.785281 395.457916 
L 1995.476275 379.175079 
L 1996.167229 400.303811 
L 1996.858131 376.547217 
L 1997.549054 400.521714 
L 1998.239929 378.475433 
L 1998.931285 396.640071 
L 1999.622228 383.963995 
L 2000.313133 390.284648 
L 2001.004947 390.484958 
L 2001.695125 384.294136 
L 2002.385867 395.268268 
L 2003.076907 380.976539 
L 2003.767796 396.79364 
L 2004.45879 381.0402 
L 2005.150009 395.215648 
L 2005.840535 383.889422 
L 2006.531909 391.507049 
L 2007.223753 387.948579 
L 2007.913975 387.656203 
L 2008.604883 391.095562 
L 2009.295864 385.422922 
L 2009.98665 392.177544 
L 2010.678337 385.26411 
L 2011.369071 391.446662 
L 2012.05991 386.609704 
L 2012.750592 389.814239 
L 2013.441789 388.131414 
L 2014.132855 388.632475 
L 2014.823646 388.875158 
L 2015.514721 388.318561 
L 2016.205828 388.576668 
L 2039.008446 388.615859 
L 2310.566477 388.616526 
L 2311.256203 393.15262 
L 2312.638195 579.168475 
L 2313.328883 597.288177 
L 2314.020163 715.457208 
L 2315.402125 791.713887 
L 2316.092987 914.494397 
L 2316.784176 921.907405 
L 2317.474922 882.669337 
L 2318.166439 955.511019 
L 2318.857165 975.624536 
L 2319.54793 893.684347 
L 2320.240067 907.241573 
L 2320.929911 982.226877 
L 2321.621064 929.726437 
L 2322.312037 888.817243 
L 2323.002874 960.188433 
L 2323.693931 965.233039 
L 2324.384931 892.151881 
L 2325.075986 927.229286 
L 2325.767268 978.104253 
L 2326.458371 907.394446 
L 2327.148676 906.461731 
L 2327.840057 976.51881 
L 2328.53097 926.847674 
L 2329.221816 898.025054 
L 2329.912567 968.149961 
L 2330.603625 943.766701 
L 2331.294888 896.321319 
L 2331.985761 958.5639 
L 2332.676747 953.681529 
L 2333.368041 897.578913 
L 2334.058713 951.596344 
L 2334.749704 957.717632 
L 2335.44075 899.443672 
L 2336.13155 948.929882 
L 2336.823041 957.600219 
L 2337.513615 900.978505 
L 2338.204701 950.533985 
L 2338.895318 953.99087 
L 2339.586628 902.388365 
L 2340.277678 955.529179 
L 2340.969275 946.57589 
L 2341.659519 904.790039 
L 2342.350508 961.938712 
L 2343.732685 910.184377 
L 2344.424152 966.535178 
L 2345.114602 921.615418 
L 2345.805492 921.19136 
L 2346.496433 965.439447 
L 2347.187452 911.431714 
L 2347.880063 939.748439 
L 2348.56939 954.378928 
L 2349.261929 908.878603 
L 2349.951584 958.041125 
L 2350.643658 933.144956 
L 2351.33387 918.133596 
L 2352.024055 963.609842 
L 2352.715096 914.889916 
L 2353.406024 941.522008 
L 2354.097054 949.483898 
L 2354.788177 913.089705 
L 2355.479263 960.738052 
L 2356.170357 923.393664 
L 2356.861229 932.386088 
L 2357.552249 954.796769 
L 2358.24322 913.813909 
L 2358.934163 957.449031 
L 2359.626376 927.567566 
L 2360.316445 930.998867 
L 2361.006805 954.730689 
L 2361.699051 915.296584 
L 2362.38907 956.88178 
L 2363.080113 926.996049 
L 2363.772403 934.380821 
L 2364.46205 951.598231 
L 2365.1529 917.30476 
L 2365.843928 957.753395 
L 2366.534996 923.220372 
L 2367.226578 941.510614 
L 2367.916933 945.084171 
L 2368.608284 921.575642 
L 2369.298773 957.339247 
L 2369.989941 919.324987 
L 2370.680851 950.016315 
L 2371.371893 934.912705 
L 2372.063213 931.085742 
L 2372.753867 952.113994 
L 2373.444793 919.523909 
L 2374.135822 955.614134 
L 2374.826831 923.987515 
L 2375.5175 944.672731 
L 2376.208932 940.1442 
L 2376.899754 928.335668 
L 2377.590804 952.765695 
L 2378.281798 920.514938 
L 2378.972701 953.99357 
L 2379.663774 925.541646 
L 2380.354592 944.528475 
L 2381.045688 939.194152 
L 2381.736662 930.796916 
L 2382.427503 950.376867 
L 2383.118712 922.401142 
L 2383.809662 953.363312 
L 2384.500598 923.95421 
L 2385.191925 948.017539 
L 2385.882472 933.623624 
L 2386.573743 937.620423 
L 2387.264595 944.426001 
L 2387.955215 927.62824 
L 2388.64606 950.762166 
L 2389.337539 923.41907 
L 2390.029641 951.092263 
L 2390.719441 926.459222 
L 2391.410817 945.984447 
L 2392.101107 934.537686 
L 2392.79404 937.567648 
L 2393.483332 943.086939 
L 2394.174174 929.334967 
L 2394.865399 948.469518 
L 2395.556773 925.193016 
L 2396.247278 949.414234 
L 2396.938321 926.674792 
L 2397.629346 946.056867 
L 2398.320586 932.499826 
L 2399.011379 939.727022 
L 2399.702362 939.574531 
L 2400.393783 932.810972 
L 2401.084503 944.834456 
L 2401.775176 928.144605 
L 2402.466236 947.028442 
L 2403.156903 927.216193 
L 2403.84825 946.110963 
L 2404.539295 929.81351 
L 2405.230399 942.707587 
L 2405.920973 934.410681 
L 2406.612001 937.971998 
L 2407.30326 939.079839 
L 2407.993989 933.495877 
L 2408.685032 942.382175 
L 2409.376049 930.569817 
L 2410.067038 943.847423 
L 2410.758118 929.692114 
L 2411.448976 943.591239 
L 2412.139715 930.582786 
L 2412.830976 942.190524 
L 2413.521895 932.464832 
L 2414.212693 940.130139 
L 2414.90428 934.583185 
L 2415.594882 938.027907 
L 2416.285917 936.430272 
L 2416.976886 936.288715 
L 2417.667621 937.696092 
L 2418.358796 935.16441 
L 2419.049884 938.404306 
L 2419.740784 934.615685 
L 2420.432266 938.718823 
L 2421.123184 934.45703 
L 2421.813451 938.724086 
L 2422.506508 934.596003 
L 2423.195786 938.426069 
L 2423.887133 935.040359 
L 2424.577603 937.840909 
L 2425.268475 935.739235 
L 2425.960411 937.084097 
L 2426.650655 936.530226 
L 2428.032989 936.492305 
L 2439.08826 936.586273 
L 2477.09236 936.604771 
L 2668.496243 936.604311 
L 2750.031344 936.605689 
L 2750.031344 936.605689 
" style="fill:none;stroke:#ff0000;stroke-linecap:square;stroke-width:3;"/>
   </g>
   <g id="patch_3">
    <path d="M 83.694615 1021.480385 
L 83.694615 157.9032 
" style="fill:none;stroke:#000000;stroke-linecap:square;stroke-linejoin:miter;stroke-width:0.8;"/>
   </g>
   <g id="patch_4">
    <path d="M 2876.99976 1021.480385 
L 2876.99976 157.9032 
" style="fill:none;stroke:#000000;stroke-linecap:square;stroke-linejoin:miter;stroke-width:0.8;"/>
   </g>
   <g id="patch_5">
    <path d="M 83.694615 1021.480385 
L 2876.99976 1021.480385 
" style="fill:none;stroke:#000000;stroke-linecap:square;stroke-linejoin:miter;stroke-width:0.8;"/>
   </g>
   <g id="patch_6">
    <path d="M 83.694615 157.9032 
L 2876.99976 157.9032 
" style="fill:none;stroke:#000000;stroke-linecap:square;stroke-linejoin:miter;stroke-width:0.8;"/>
   </g>
   <g id="text_20">
    <!-- Biceps (red) and Triceps (green) -->
    <defs>
     <path d="M 19.671875 34.8125 
L 19.671875 8.109375 
L 35.5 8.109375 
Q 43.453125 8.109375 47.28125 11.40625 
Q 51.125 14.703125 51.125 21.484375 
Q 51.125 28.328125 47.28125 31.5625 
Q 43.453125 34.8125 35.5 34.8125 
z
M 19.671875 64.796875 
L 19.671875 42.828125 
L 34.28125 42.828125 
Q 41.5 42.828125 45.03125 45.53125 
Q 48.578125 48.25 48.578125 53.8125 
Q 48.578125 59.328125 45.03125 62.0625 
Q 41.5 64.796875 34.28125 64.796875 
z
M 9.8125 72.90625 
L 35.015625 72.90625 
Q 46.296875 72.90625 52.390625 68.21875 
Q 58.5 63.53125 58.5 54.890625 
Q 58.5 48.1875 55.375 44.234375 
Q 52.25 40.28125 46.1875 39.3125 
Q 53.46875 37.75 57.5 32.78125 
Q 61.53125 27.828125 61.53125 20.40625 
Q 61.53125 10.640625 54.890625 5.3125 
Q 48.25 0 35.984375 0 
L 9.8125 0 
z
" id="DejaVuSans-66"/>
     <path d="M 48.78125 52.59375 
L 48.78125 44.1875 
Q 44.96875 46.296875 41.140625 47.34375 
Q 37.3125 48.390625 33.40625 48.390625 
Q 24.65625 48.390625 19.8125 42.84375 
Q 14.984375 37.3125 14.984375 27.296875 
Q 14.984375 17.28125 19.8125 11.734375 
Q 24.65625 6.203125 33.40625 6.203125 
Q 37.3125 6.203125 41.140625 7.25 
Q 44.96875 8.296875 48.78125 10.40625 
L 48.78125 2.09375 
Q 45.015625 0.34375 40.984375 -0.53125 
Q 36.96875 -1.421875 32.421875 -1.421875 
Q 20.0625 -1.421875 12.78125 6.34375 
Q 5.515625 14.109375 5.515625 27.296875 
Q 5.515625 40.671875 12.859375 48.328125 
Q 20.21875 56 33.015625 56 
Q 37.15625 56 41.109375 55.140625 
Q 45.0625 54.296875 48.78125 52.59375 
z
" id="DejaVuSans-99"/>
     <path d="M 18.109375 8.203125 
L 18.109375 -20.796875 
L 9.078125 -20.796875 
L 9.078125 54.6875 
L 18.109375 54.6875 
L 18.109375 46.390625 
Q 20.953125 51.265625 25.265625 53.625 
Q 29.59375 56 35.59375 56 
Q 45.5625 56 51.78125 48.09375 
Q 58.015625 40.1875 58.015625 27.296875 
Q 58.015625 14.40625 51.78125 6.484375 
Q 45.5625 -1.421875 35.59375 -1.421875 
Q 29.59375 -1.421875 25.265625 0.953125 
Q 20.953125 3.328125 18.109375 8.203125 
z
M 48.6875 27.296875 
Q 48.6875 37.203125 44.609375 42.84375 
Q 40.53125 48.484375 33.40625 48.484375 
Q 26.265625 48.484375 22.1875 42.84375 
Q 18.109375 37.203125 18.109375 27.296875 
Q 18.109375 17.390625 22.1875 11.75 
Q 26.265625 6.109375 33.40625 6.109375 
Q 40.53125 6.109375 44.609375 11.75 
Q 48.6875 17.390625 48.6875 27.296875 
z
" id="DejaVuSans-112"/>
     <path d="M 31 75.875 
Q 24.46875 64.65625 21.28125 53.65625 
Q 18.109375 42.671875 18.109375 31.390625 
Q 18.109375 20.125 21.3125 9.0625 
Q 24.515625 -2 31 -13.1875 
L 23.1875 -13.1875 
Q 15.875 -1.703125 12.234375 9.375 
Q 8.59375 20.453125 8.59375 31.390625 
Q 8.59375 42.28125 12.203125 53.3125 
Q 15.828125 64.359375 23.1875 75.875 
z
" id="DejaVuSans-40"/>
     <path d="M 41.109375 46.296875 
Q 39.59375 47.171875 37.8125 47.578125 
Q 36.03125 48 33.890625 48 
Q 26.265625 48 22.1875 43.046875 
Q 18.109375 38.09375 18.109375 28.8125 
L 18.109375 0 
L 9.078125 0 
L 9.078125 54.6875 
L 18.109375 54.6875 
L 18.109375 46.1875 
Q 20.953125 51.171875 25.484375 53.578125 
Q 30.03125 56 36.53125 56 
Q 37.453125 56 38.578125 55.875 
Q 39.703125 55.765625 41.0625 55.515625 
z
" id="DejaVuSans-114"/>
     <path d="M 45.40625 46.390625 
L 45.40625 75.984375 
L 54.390625 75.984375 
L 54.390625 0 
L 45.40625 0 
L 45.40625 8.203125 
Q 42.578125 3.328125 38.25 0.953125 
Q 33.9375 -1.421875 27.875 -1.421875 
Q 17.96875 -1.421875 11.734375 6.484375 
Q 5.515625 14.40625 5.515625 27.296875 
Q 5.515625 40.1875 11.734375 48.09375 
Q 17.96875 56 27.875 56 
Q 33.9375 56 38.25 53.625 
Q 42.578125 51.265625 45.40625 46.390625 
z
M 14.796875 27.296875 
Q 14.796875 17.390625 18.875 11.75 
Q 22.953125 6.109375 30.078125 6.109375 
Q 37.203125 6.109375 41.296875 11.75 
Q 45.40625 17.390625 45.40625 27.296875 
Q 45.40625 37.203125 41.296875 42.84375 
Q 37.203125 48.484375 30.078125 48.484375 
Q 22.953125 48.484375 18.875 42.84375 
Q 14.796875 37.203125 14.796875 27.296875 
z
" id="DejaVuSans-100"/>
     <path d="M 8.015625 75.875 
L 15.828125 75.875 
Q 23.140625 64.359375 26.78125 53.3125 
Q 30.421875 42.28125 30.421875 31.390625 
Q 30.421875 20.453125 26.78125 9.375 
Q 23.140625 -1.703125 15.828125 -13.1875 
L 8.015625 -13.1875 
Q 14.5 -2 17.703125 9.0625 
Q 20.90625 20.125 20.90625 31.390625 
Q 20.90625 42.671875 17.703125 53.65625 
Q 14.5 64.65625 8.015625 75.875 
z
" id="DejaVuSans-41"/>
     <path d="M 34.28125 27.484375 
Q 23.390625 27.484375 19.1875 25 
Q 14.984375 22.515625 14.984375 16.5 
Q 14.984375 11.71875 18.140625 8.90625 
Q 21.296875 6.109375 26.703125 6.109375 
Q 34.1875 6.109375 38.703125 11.40625 
Q 43.21875 16.703125 43.21875 25.484375 
L 43.21875 27.484375 
z
M 52.203125 31.203125 
L 52.203125 0 
L 43.21875 0 
L 43.21875 8.296875 
Q 40.140625 3.328125 35.546875 0.953125 
Q 30.953125 -1.421875 24.3125 -1.421875 
Q 15.921875 -1.421875 10.953125 3.296875 
Q 6 8.015625 6 15.921875 
Q 6 25.140625 12.171875 29.828125 
Q 18.359375 34.515625 30.609375 34.515625 
L 43.21875 34.515625 
L 43.21875 35.40625 
Q 43.21875 41.609375 39.140625 45 
Q 35.0625 48.390625 27.6875 48.390625 
Q 23 48.390625 18.546875 47.265625 
Q 14.109375 46.140625 10.015625 43.890625 
L 10.015625 52.203125 
Q 14.9375 54.109375 19.578125 55.046875 
Q 24.21875 56 28.609375 56 
Q 40.484375 56 46.34375 49.84375 
Q 52.203125 43.703125 52.203125 31.203125 
z
" id="DejaVuSans-97"/>
    </defs>
    <g transform="translate(1205.159688 150.832262)scale(0.34 -0.34)">
     <use xlink:href="#DejaVuSans-66"/>
     <use x="68.603516" xlink:href="#DejaVuSans-105"/>
     <use x="96.386719" xlink:href="#DejaVuSans-99"/>
     <use x="151.367188" xlink:href="#DejaVuSans-101"/>
     <use x="212.890625" xlink:href="#DejaVuSans-112"/>
     <use x="276.367188" xlink:href="#DejaVuSans-115"/>
     <use x="328.466797" xlink:href="#DejaVuSans-32"/>
     <use x="360.253906" xlink:href="#DejaVuSans-40"/>
     <use x="399.267578" xlink:href="#DejaVuSans-114"/>
     <use x="440.349609" xlink:href="#DejaVuSans-101"/>
     <use x="501.873047" xlink:href="#DejaVuSans-100"/>
     <use x="565.349609" xlink:href="#DejaVuSans-41"/>
     <use x="604.363281" xlink:href="#DejaVuSans-32"/>
     <use x="636.150391" xlink:href="#DejaVuSans-97"/>
     <use x="697.429688" xlink:href="#DejaVuSans-110"/>
     <use x="760.808594" xlink:href="#DejaVuSans-100"/>
     <use x="824.285156" xlink:href="#DejaVuSans-32"/>
     <use x="856.072266" xlink:href="#DejaVuSans-84"/>
     <use x="916.9375" xlink:href="#DejaVuSans-114"/>
     <use x="958.050781" xlink:href="#DejaVuSans-105"/>
     <use x="985.833984" xlink:href="#DejaVuSans-99"/>
     <use x="1040.814453" xlink:href="#DejaVuSans-101"/>
     <use x="1102.337891" xlink:href="#DejaVuSans-112"/>
     <use x="1165.814453" xlink:href="#DejaVuSans-115"/>
     <use x="1217.914062" xlink:href="#DejaVuSans-32"/>
     <use x="1249.701172" xlink:href="#DejaVuSans-40"/>
     <use x="1288.714844" xlink:href="#DejaVuSans-103"/>
     <use x="1352.191406" xlink:href="#DejaVuSans-114"/>
     <use x="1393.273438" xlink:href="#DejaVuSans-101"/>
     <use x="1454.796875" xlink:href="#DejaVuSans-101"/>
     <use x="1516.320312" xlink:href="#DejaVuSans-110"/>
     <use x="1579.699219" xlink:href="#DejaVuSans-41"/>
    </g>
   </g>
  </g>
  <g id="text_21">
   <!-- Setpoints (- -) and Lenghts () - P90000 I0 D0 -->
   <defs>
    <path d="M 53.515625 70.515625 
L 53.515625 60.890625 
Q 47.90625 63.578125 42.921875 64.890625 
Q 37.9375 66.21875 33.296875 66.21875 
Q 25.25 66.21875 20.875 63.09375 
Q 16.5 59.96875 16.5 54.203125 
Q 16.5 49.359375 19.40625 46.890625 
Q 22.3125 44.4375 30.421875 42.921875 
L 36.375 41.703125 
Q 47.40625 39.59375 52.65625 34.296875 
Q 57.90625 29 57.90625 20.125 
Q 57.90625 9.515625 50.796875 4.046875 
Q 43.703125 -1.421875 29.984375 -1.421875 
Q 24.8125 -1.421875 18.96875 -0.25 
Q 13.140625 0.921875 6.890625 3.21875 
L 6.890625 13.375 
Q 12.890625 10.015625 18.65625 8.296875 
Q 24.421875 6.59375 29.984375 6.59375 
Q 38.421875 6.59375 43.015625 9.90625 
Q 47.609375 13.234375 47.609375 19.390625 
Q 47.609375 24.75 44.3125 27.78125 
Q 41.015625 30.8125 33.5 32.328125 
L 27.484375 33.5 
Q 16.453125 35.6875 11.515625 40.375 
Q 6.59375 45.0625 6.59375 53.421875 
Q 6.59375 63.09375 13.40625 68.65625 
Q 20.21875 74.21875 32.171875 74.21875 
Q 37.3125 74.21875 42.625 73.28125 
Q 47.953125 72.359375 53.515625 70.515625 
z
" id="DejaVuSans-83"/>
    <path d="M 30.609375 48.390625 
Q 23.390625 48.390625 19.1875 42.75 
Q 14.984375 37.109375 14.984375 27.296875 
Q 14.984375 17.484375 19.15625 11.84375 
Q 23.34375 6.203125 30.609375 6.203125 
Q 37.796875 6.203125 41.984375 11.859375 
Q 46.1875 17.53125 46.1875 27.296875 
Q 46.1875 37.015625 41.984375 42.703125 
Q 37.796875 48.390625 30.609375 48.390625 
z
M 30.609375 56 
Q 42.328125 56 49.015625 48.375 
Q 55.71875 40.765625 55.71875 27.296875 
Q 55.71875 13.875 49.015625 6.21875 
Q 42.328125 -1.421875 30.609375 -1.421875 
Q 18.84375 -1.421875 12.171875 6.21875 
Q 5.515625 13.875 5.515625 27.296875 
Q 5.515625 40.765625 12.171875 48.375 
Q 18.84375 56 30.609375 56 
z
" id="DejaVuSans-111"/>
    <path d="M 4.890625 31.390625 
L 31.203125 31.390625 
L 31.203125 23.390625 
L 4.890625 23.390625 
z
" id="DejaVuSans-45"/>
    <path d="M 0 30.90625 
L 100 30.90625 
L 100 23.875 
L 0 23.875 
z
" id="DejaVuSans-8213"/>
    <path d="M 19.671875 64.796875 
L 19.671875 37.40625 
L 32.078125 37.40625 
Q 38.96875 37.40625 42.71875 40.96875 
Q 46.484375 44.53125 46.484375 51.125 
Q 46.484375 57.671875 42.71875 61.234375 
Q 38.96875 64.796875 32.078125 64.796875 
z
M 9.8125 72.90625 
L 32.078125 72.90625 
Q 44.34375 72.90625 50.609375 67.359375 
Q 56.890625 61.8125 56.890625 51.125 
Q 56.890625 40.328125 50.609375 34.8125 
Q 44.34375 29.296875 32.078125 29.296875 
L 19.671875 29.296875 
L 19.671875 0 
L 9.8125 0 
z
" id="DejaVuSans-80"/>
    <path d="M 9.8125 72.90625 
L 19.671875 72.90625 
L 19.671875 0 
L 9.8125 0 
z
" id="DejaVuSans-73"/>
    <path d="M 19.671875 64.796875 
L 19.671875 8.109375 
L 31.59375 8.109375 
Q 46.6875 8.109375 53.6875 14.9375 
Q 60.6875 21.78125 60.6875 36.53125 
Q 60.6875 51.171875 53.6875 57.984375 
Q 46.6875 64.796875 31.59375 64.796875 
z
M 9.8125 72.90625 
L 30.078125 72.90625 
Q 51.265625 72.90625 61.171875 64.09375 
Q 71.09375 55.28125 71.09375 36.53125 
Q 71.09375 17.671875 61.125 8.828125 
Q 51.171875 0 30.078125 0 
L 9.8125 0 
z
" id="DejaVuSans-68"/>
   </defs>
   <g transform="translate(1050.875312 28.834927)scale(0.34 -0.34)">
    <use xlink:href="#DejaVuSans-83"/>
    <use x="63.476562" xlink:href="#DejaVuSans-101"/>
    <use x="125" xlink:href="#DejaVuSans-116"/>
    <use x="164.208984" xlink:href="#DejaVuSans-112"/>
    <use x="227.685547" xlink:href="#DejaVuSans-111"/>
    <use x="288.867188" xlink:href="#DejaVuSans-105"/>
    <use x="316.650391" xlink:href="#DejaVuSans-110"/>
    <use x="380.029297" xlink:href="#DejaVuSans-116"/>
    <use x="419.238281" xlink:href="#DejaVuSans-115"/>
    <use x="471.337891" xlink:href="#DejaVuSans-32"/>
    <use x="503.125" xlink:href="#DejaVuSans-40"/>
    <use x="542.138672" xlink:href="#DejaVuSans-45"/>
    <use x="578.222656" xlink:href="#DejaVuSans-45"/>
    <use x="614.306641" xlink:href="#DejaVuSans-41"/>
    <use x="653.320312" xlink:href="#DejaVuSans-32"/>
    <use x="685.107422" xlink:href="#DejaVuSans-97"/>
    <use x="746.386719" xlink:href="#DejaVuSans-110"/>
    <use x="809.765625" xlink:href="#DejaVuSans-100"/>
    <use x="873.242188" xlink:href="#DejaVuSans-32"/>
    <use x="905.029297" xlink:href="#DejaVuSans-76"/>
    <use x="960.726562" xlink:href="#DejaVuSans-101"/>
    <use x="1022.25" xlink:href="#DejaVuSans-110"/>
    <use x="1085.628906" xlink:href="#DejaVuSans-103"/>
    <use x="1149.105469" xlink:href="#DejaVuSans-104"/>
    <use x="1212.484375" xlink:href="#DejaVuSans-116"/>
    <use x="1251.693359" xlink:href="#DejaVuSans-115"/>
    <use x="1303.792969" xlink:href="#DejaVuSans-32"/>
    <use x="1335.580078" xlink:href="#DejaVuSans-40"/>
    <use x="1374.59375" xlink:href="#DejaVuSans-8213"/>
    <use x="1474.59375" xlink:href="#DejaVuSans-41"/>
    <use x="1513.607422" xlink:href="#DejaVuSans-32"/>
    <use x="1545.394531" xlink:href="#DejaVuSans-45"/>
    <use x="1581.478516" xlink:href="#DejaVuSans-32"/>
    <use x="1613.265625" xlink:href="#DejaVuSans-80"/>
    <use x="1673.568359" xlink:href="#DejaVuSans-57"/>
    <use x="1737.191406" xlink:href="#DejaVuSans-48"/>
    <use x="1800.814453" xlink:href="#DejaVuSans-48"/>
    <use x="1864.4375" xlink:href="#DejaVuSans-48"/>
    <use x="1928.060547" xlink:href="#DejaVuSans-48"/>
    <use x="1991.683594" xlink:href="#DejaVuSans-32"/>
    <use x="2023.470703" xlink:href="#DejaVuSans-73"/>
    <use x="2052.962891" xlink:href="#DejaVuSans-48"/>
    <use x="2116.585938" xlink:href="#DejaVuSans-32"/>
    <use x="2148.373047" xlink:href="#DejaVuSans-68"/>
    <use x="2225.375" xlink:href="#DejaVuSans-48"/>
   </g>
   <!-- Bagfile elbow_left_D from 10s for 367s - Logging Rate 10 - Simulation Rate 800 - 100.00% real time speed -->
   <defs>
    <path d="M 37.109375 75.984375 
L 37.109375 68.5 
L 28.515625 68.5 
Q 23.6875 68.5 21.796875 66.546875 
Q 19.921875 64.59375 19.921875 59.515625 
L 19.921875 54.6875 
L 34.71875 54.6875 
L 34.71875 47.703125 
L 19.921875 47.703125 
L 19.921875 0 
L 10.890625 0 
L 10.890625 47.703125 
L 2.296875 47.703125 
L 2.296875 54.6875 
L 10.890625 54.6875 
L 10.890625 58.5 
Q 10.890625 67.625 15.140625 71.796875 
Q 19.390625 75.984375 28.609375 75.984375 
z
" id="DejaVuSans-102"/>
    <path d="M 9.421875 75.984375 
L 18.40625 75.984375 
L 18.40625 0 
L 9.421875 0 
z
" id="DejaVuSans-108"/>
    <path d="M 48.6875 27.296875 
Q 48.6875 37.203125 44.609375 42.84375 
Q 40.53125 48.484375 33.40625 48.484375 
Q 26.265625 48.484375 22.1875 42.84375 
Q 18.109375 37.203125 18.109375 27.296875 
Q 18.109375 17.390625 22.1875 11.75 
Q 26.265625 6.109375 33.40625 6.109375 
Q 40.53125 6.109375 44.609375 11.75 
Q 48.6875 17.390625 48.6875 27.296875 
z
M 18.109375 46.390625 
Q 20.953125 51.265625 25.265625 53.625 
Q 29.59375 56 35.59375 56 
Q 45.5625 56 51.78125 48.09375 
Q 58.015625 40.1875 58.015625 27.296875 
Q 58.015625 14.40625 51.78125 6.484375 
Q 45.5625 -1.421875 35.59375 -1.421875 
Q 29.59375 -1.421875 25.265625 0.953125 
Q 20.953125 3.328125 18.109375 8.203125 
L 18.109375 0 
L 9.078125 0 
L 9.078125 75.984375 
L 18.109375 75.984375 
z
" id="DejaVuSans-98"/>
    <path d="M 4.203125 54.6875 
L 13.1875 54.6875 
L 24.421875 12.015625 
L 35.59375 54.6875 
L 46.1875 54.6875 
L 57.421875 12.015625 
L 68.609375 54.6875 
L 77.59375 54.6875 
L 63.28125 0 
L 52.6875 0 
L 40.921875 44.828125 
L 29.109375 0 
L 18.5 0 
z
" id="DejaVuSans-119"/>
    <path d="M 50.984375 -16.609375 
L 50.984375 -23.578125 
L -0.984375 -23.578125 
L -0.984375 -16.609375 
z
" id="DejaVuSans-95"/>
    <path d="M 33.015625 40.375 
Q 26.375 40.375 22.484375 35.828125 
Q 18.609375 31.296875 18.609375 23.390625 
Q 18.609375 15.53125 22.484375 10.953125 
Q 26.375 6.390625 33.015625 6.390625 
Q 39.65625 6.390625 43.53125 10.953125 
Q 47.40625 15.53125 47.40625 23.390625 
Q 47.40625 31.296875 43.53125 35.828125 
Q 39.65625 40.375 33.015625 40.375 
z
M 52.59375 71.296875 
L 52.59375 62.3125 
Q 48.875 64.0625 45.09375 64.984375 
Q 41.3125 65.921875 37.59375 65.921875 
Q 27.828125 65.921875 22.671875 59.328125 
Q 17.53125 52.734375 16.796875 39.40625 
Q 19.671875 43.65625 24.015625 45.921875 
Q 28.375 48.1875 33.59375 48.1875 
Q 44.578125 48.1875 50.953125 41.515625 
Q 57.328125 34.859375 57.328125 23.390625 
Q 57.328125 12.15625 50.6875 5.359375 
Q 44.046875 -1.421875 33.015625 -1.421875 
Q 20.359375 -1.421875 13.671875 8.265625 
Q 6.984375 17.96875 6.984375 36.375 
Q 6.984375 53.65625 15.1875 63.9375 
Q 23.390625 74.21875 37.203125 74.21875 
Q 40.921875 74.21875 44.703125 73.484375 
Q 48.484375 72.75 52.59375 71.296875 
z
" id="DejaVuSans-54"/>
    <path d="M 44.390625 34.1875 
Q 47.5625 33.109375 50.5625 29.59375 
Q 53.5625 26.078125 56.59375 19.921875 
L 66.609375 0 
L 56 0 
L 46.6875 18.703125 
Q 43.0625 26.03125 39.671875 28.421875 
Q 36.28125 30.8125 30.421875 30.8125 
L 19.671875 30.8125 
L 19.671875 0 
L 9.8125 0 
L 9.8125 72.90625 
L 32.078125 72.90625 
Q 44.578125 72.90625 50.734375 67.671875 
Q 56.890625 62.453125 56.890625 51.90625 
Q 56.890625 45.015625 53.6875 40.46875 
Q 50.484375 35.9375 44.390625 34.1875 
z
M 19.671875 64.796875 
L 19.671875 38.921875 
L 32.078125 38.921875 
Q 39.203125 38.921875 42.84375 42.21875 
Q 46.484375 45.515625 46.484375 51.90625 
Q 46.484375 58.296875 42.84375 61.546875 
Q 39.203125 64.796875 32.078125 64.796875 
z
" id="DejaVuSans-82"/>
    <path d="M 8.5 21.578125 
L 8.5 54.6875 
L 17.484375 54.6875 
L 17.484375 21.921875 
Q 17.484375 14.15625 20.5 10.265625 
Q 23.53125 6.390625 29.59375 6.390625 
Q 36.859375 6.390625 41.078125 11.03125 
Q 45.3125 15.671875 45.3125 23.6875 
L 45.3125 54.6875 
L 54.296875 54.6875 
L 54.296875 0 
L 45.3125 0 
L 45.3125 8.40625 
Q 42.046875 3.421875 37.71875 1 
Q 33.40625 -1.421875 27.6875 -1.421875 
Q 18.265625 -1.421875 13.375 4.4375 
Q 8.5 10.296875 8.5 21.578125 
z
M 31.109375 56 
z
" id="DejaVuSans-117"/>
    <path d="M 72.703125 32.078125 
Q 68.453125 32.078125 66.03125 28.46875 
Q 63.625 24.859375 63.625 18.40625 
Q 63.625 12.0625 66.03125 8.421875 
Q 68.453125 4.78125 72.703125 4.78125 
Q 76.859375 4.78125 79.265625 8.421875 
Q 81.6875 12.0625 81.6875 18.40625 
Q 81.6875 24.8125 79.265625 28.4375 
Q 76.859375 32.078125 72.703125 32.078125 
z
M 72.703125 38.28125 
Q 80.421875 38.28125 84.953125 32.90625 
Q 89.5 27.546875 89.5 18.40625 
Q 89.5 9.28125 84.9375 3.921875 
Q 80.375 -1.421875 72.703125 -1.421875 
Q 64.890625 -1.421875 60.34375 3.921875 
Q 55.8125 9.28125 55.8125 18.40625 
Q 55.8125 27.59375 60.375 32.9375 
Q 64.9375 38.28125 72.703125 38.28125 
z
M 22.3125 68.015625 
Q 18.109375 68.015625 15.6875 64.375 
Q 13.28125 60.75 13.28125 54.390625 
Q 13.28125 47.953125 15.671875 44.328125 
Q 18.0625 40.71875 22.3125 40.71875 
Q 26.5625 40.71875 28.96875 44.328125 
Q 31.390625 47.953125 31.390625 54.390625 
Q 31.390625 60.6875 28.953125 64.34375 
Q 26.515625 68.015625 22.3125 68.015625 
z
M 66.40625 74.21875 
L 74.21875 74.21875 
L 28.609375 -1.421875 
L 20.796875 -1.421875 
z
M 22.3125 74.21875 
Q 30.03125 74.21875 34.609375 68.875 
Q 39.203125 63.53125 39.203125 54.390625 
Q 39.203125 45.171875 34.640625 39.84375 
Q 30.078125 34.515625 22.3125 34.515625 
Q 14.546875 34.515625 10.03125 39.859375 
Q 5.515625 45.21875 5.515625 54.390625 
Q 5.515625 63.484375 10.046875 68.84375 
Q 14.59375 74.21875 22.3125 74.21875 
z
" id="DejaVuSans-37"/>
   </defs>
   <g transform="translate(533.222656 66.90749)scale(0.34 -0.34)">
    <use xlink:href="#DejaVuSans-66"/>
    <use x="68.603516" xlink:href="#DejaVuSans-97"/>
    <use x="129.882812" xlink:href="#DejaVuSans-103"/>
    <use x="193.359375" xlink:href="#DejaVuSans-102"/>
    <use x="228.564453" xlink:href="#DejaVuSans-105"/>
    <use x="256.347656" xlink:href="#DejaVuSans-108"/>
    <use x="284.130859" xlink:href="#DejaVuSans-101"/>
    <use x="345.654297" xlink:href="#DejaVuSans-32"/>
    <use x="377.441406" xlink:href="#DejaVuSans-101"/>
    <use x="438.964844" xlink:href="#DejaVuSans-108"/>
    <use x="466.748047" xlink:href="#DejaVuSans-98"/>
    <use x="530.224609" xlink:href="#DejaVuSans-111"/>
    <use x="591.40625" xlink:href="#DejaVuSans-119"/>
    <use x="673.193359" xlink:href="#DejaVuSans-95"/>
    <use x="723.193359" xlink:href="#DejaVuSans-108"/>
    <use x="750.976562" xlink:href="#DejaVuSans-101"/>
    <use x="812.5" xlink:href="#DejaVuSans-102"/>
    <use x="847.689453" xlink:href="#DejaVuSans-116"/>
    <use x="886.898438" xlink:href="#DejaVuSans-95"/>
    <use x="936.898438" xlink:href="#DejaVuSans-68"/>
    <use x="1013.900391" xlink:href="#DejaVuSans-32"/>
    <use x="1045.6875" xlink:href="#DejaVuSans-102"/>
    <use x="1080.892578" xlink:href="#DejaVuSans-114"/>
    <use x="1121.974609" xlink:href="#DejaVuSans-111"/>
    <use x="1183.15625" xlink:href="#DejaVuSans-109"/>
    <use x="1280.568359" xlink:href="#DejaVuSans-32"/>
    <use x="1312.355469" xlink:href="#DejaVuSans-49"/>
    <use x="1375.978516" xlink:href="#DejaVuSans-48"/>
    <use x="1439.601562" xlink:href="#DejaVuSans-115"/>
    <use x="1491.701172" xlink:href="#DejaVuSans-32"/>
    <use x="1523.488281" xlink:href="#DejaVuSans-102"/>
    <use x="1558.693359" xlink:href="#DejaVuSans-111"/>
    <use x="1619.875" xlink:href="#DejaVuSans-114"/>
    <use x="1660.988281" xlink:href="#DejaVuSans-32"/>
    <use x="1692.775391" xlink:href="#DejaVuSans-51"/>
    <use x="1756.398438" xlink:href="#DejaVuSans-54"/>
    <use x="1820.021484" xlink:href="#DejaVuSans-55"/>
    <use x="1883.644531" xlink:href="#DejaVuSans-115"/>
    <use x="1935.744141" xlink:href="#DejaVuSans-32"/>
    <use x="1967.53125" xlink:href="#DejaVuSans-45"/>
    <use x="2003.615234" xlink:href="#DejaVuSans-32"/>
    <use x="2035.402344" xlink:href="#DejaVuSans-76"/>
    <use x="2091.099609" xlink:href="#DejaVuSans-111"/>
    <use x="2152.28125" xlink:href="#DejaVuSans-103"/>
    <use x="2215.757812" xlink:href="#DejaVuSans-103"/>
    <use x="2279.234375" xlink:href="#DejaVuSans-105"/>
    <use x="2307.017578" xlink:href="#DejaVuSans-110"/>
    <use x="2370.396484" xlink:href="#DejaVuSans-103"/>
    <use x="2433.873047" xlink:href="#DejaVuSans-32"/>
    <use x="2465.660156" xlink:href="#DejaVuSans-82"/>
    <use x="2535.111328" xlink:href="#DejaVuSans-97"/>
    <use x="2596.390625" xlink:href="#DejaVuSans-116"/>
    <use x="2635.599609" xlink:href="#DejaVuSans-101"/>
    <use x="2697.123047" xlink:href="#DejaVuSans-32"/>
    <use x="2728.910156" xlink:href="#DejaVuSans-49"/>
    <use x="2792.533203" xlink:href="#DejaVuSans-48"/>
    <use x="2856.15625" xlink:href="#DejaVuSans-32"/>
    <use x="2887.943359" xlink:href="#DejaVuSans-45"/>
    <use x="2924.027344" xlink:href="#DejaVuSans-32"/>
    <use x="2955.814453" xlink:href="#DejaVuSans-83"/>
    <use x="3019.291016" xlink:href="#DejaVuSans-105"/>
    <use x="3047.074219" xlink:href="#DejaVuSans-109"/>
    <use x="3144.486328" xlink:href="#DejaVuSans-117"/>
    <use x="3207.865234" xlink:href="#DejaVuSans-108"/>
    <use x="3235.648438" xlink:href="#DejaVuSans-97"/>
    <use x="3296.927734" xlink:href="#DejaVuSans-116"/>
    <use x="3336.136719" xlink:href="#DejaVuSans-105"/>
    <use x="3363.919922" xlink:href="#DejaVuSans-111"/>
    <use x="3425.101562" xlink:href="#DejaVuSans-110"/>
    <use x="3488.480469" xlink:href="#DejaVuSans-32"/>
    <use x="3520.267578" xlink:href="#DejaVuSans-82"/>
    <use x="3589.71875" xlink:href="#DejaVuSans-97"/>
    <use x="3650.998047" xlink:href="#DejaVuSans-116"/>
    <use x="3690.207031" xlink:href="#DejaVuSans-101"/>
    <use x="3751.730469" xlink:href="#DejaVuSans-32"/>
    <use x="3783.517578" xlink:href="#DejaVuSans-56"/>
    <use x="3847.140625" xlink:href="#DejaVuSans-48"/>
    <use x="3910.763672" xlink:href="#DejaVuSans-48"/>
    <use x="3974.386719" xlink:href="#DejaVuSans-32"/>
    <use x="4006.173828" xlink:href="#DejaVuSans-45"/>
    <use x="4042.257812" xlink:href="#DejaVuSans-32"/>
    <use x="4074.044922" xlink:href="#DejaVuSans-49"/>
    <use x="4137.667969" xlink:href="#DejaVuSans-48"/>
    <use x="4201.291016" xlink:href="#DejaVuSans-48"/>
    <use x="4264.914062" xlink:href="#DejaVuSans-46"/>
    <use x="4296.701172" xlink:href="#DejaVuSans-48"/>
    <use x="4360.324219" xlink:href="#DejaVuSans-48"/>
    <use x="4423.947266" xlink:href="#DejaVuSans-37"/>
    <use x="4518.966797" xlink:href="#DejaVuSans-32"/>
    <use x="4550.753906" xlink:href="#DejaVuSans-114"/>
    <use x="4591.835938" xlink:href="#DejaVuSans-101"/>
    <use x="4653.359375" xlink:href="#DejaVuSans-97"/>
    <use x="4714.638672" xlink:href="#DejaVuSans-108"/>
    <use x="4742.421875" xlink:href="#DejaVuSans-32"/>
    <use x="4774.208984" xlink:href="#DejaVuSans-116"/>
    <use x="4813.417969" xlink:href="#DejaVuSans-105"/>
    <use x="4841.201172" xlink:href="#DejaVuSans-109"/>
    <use x="4938.613281" xlink:href="#DejaVuSans-101"/>
    <use x="5000.136719" xlink:href="#DejaVuSans-32"/>
    <use x="5031.923828" xlink:href="#DejaVuSans-115"/>
    <use x="5084.023438" xlink:href="#DejaVuSans-112"/>
    <use x="5147.5" xlink:href="#DejaVuSans-101"/>
    <use x="5209.023438" xlink:href="#DejaVuSans-101"/>
    <use x="5270.546875" xlink:href="#DejaVuSans-100"/>
   </g>
   <!--  -->
   <g transform="translate(1440 105.925677)scale(0.34 -0.34)"/>
  </g>
 </g>
 <defs>
  <clipPath id="p8c3e89e06e">
   <rect height="863.577185" width="2793.305145" x="83.694615" y="157.9032"/>
  </clipPath>
 </defs>
</svg>
