<?xml version="1.0" encoding="utf-8" standalone="no"?>
<!DOCTYPE svg PUBLIC "-//W3C//DTD SVG 1.1//EN"
  "http://www.w3.org/Graphics/SVG/1.1/DTD/svg11.dtd">
<!-- Created with matplotlib (https://matplotlib.org/) -->
<svg height="1080pt" version="1.1" viewBox="0 0 2880 1080" width="2880pt" xmlns="http://www.w3.org/2000/svg" xmlns:xlink="http://www.w3.org/1999/xlink">
 <defs>
  <style type="text/css">
*{stroke-linecap:butt;stroke-linejoin:round;}
  </style>
 </defs>
 <g id="figure_1">
  <g id="patch_1">
   <path d="M 0 1080 
L 2880 1080 
L 2880 0 
L 0 0 
z
" style="fill:#ffffff;"/>
  </g>
  <g id="axes_1">
   <g id="patch_2">
    <path d="M 83.694615 1021.480385 
L 2876.99976 1021.480385 
L 2876.99976 157.9032 
L 83.694615 157.9032 
z
" style="fill:#ffffff;"/>
   </g>
   <g id="matplotlib.axis_1">
    <g id="xtick_1">
     <g id="line2d_1">
      <defs>
       <path d="M 0 0 
L 0 3.5 
" id="m327a855614" style="stroke:#000000;stroke-width:0.8;"/>
      </defs>
      <g>
       <use style="stroke:#000000;stroke-width:0.8;" x="141.566516" xlink:href="#m327a855614" y="1021.480385"/>
      </g>
     </g>
     <g id="text_1">
      <!-- 0 -->
      <defs>
       <path d="M 31.78125 66.40625 
Q 24.171875 66.40625 20.328125 58.90625 
Q 16.5 51.421875 16.5 36.375 
Q 16.5 21.390625 20.328125 13.890625 
Q 24.171875 6.390625 31.78125 6.390625 
Q 39.453125 6.390625 43.28125 13.890625 
Q 47.125 21.390625 47.125 36.375 
Q 47.125 51.421875 43.28125 58.90625 
Q 39.453125 66.40625 31.78125 66.40625 
z
M 31.78125 74.21875 
Q 44.046875 74.21875 50.515625 64.515625 
Q 56.984375 54.828125 56.984375 36.375 
Q 56.984375 17.96875 50.515625 8.265625 
Q 44.046875 -1.421875 31.78125 -1.421875 
Q 19.53125 -1.421875 13.0625 8.265625 
Q 6.59375 17.96875 6.59375 36.375 
Q 6.59375 54.828125 13.0625 64.515625 
Q 19.53125 74.21875 31.78125 74.21875 
z
" id="DejaVuSans-48"/>
      </defs>
      <g transform="translate(135.204016 1043.67726)scale(0.2 -0.2)">
       <use xlink:href="#DejaVuSans-48"/>
      </g>
     </g>
    </g>
    <g id="xtick_2">
     <g id="line2d_2">
      <g>
       <use style="stroke:#000000;stroke-width:0.8;" x="487.049091" xlink:href="#m327a855614" y="1021.480385"/>
      </g>
     </g>
     <g id="text_2">
      <!-- 50 -->
      <defs>
       <path d="M 10.796875 72.90625 
L 49.515625 72.90625 
L 49.515625 64.59375 
L 19.828125 64.59375 
L 19.828125 46.734375 
Q 21.96875 47.46875 24.109375 47.828125 
Q 26.265625 48.1875 28.421875 48.1875 
Q 40.625 48.1875 47.75 41.5 
Q 54.890625 34.8125 54.890625 23.390625 
Q 54.890625 11.625 47.5625 5.09375 
Q 40.234375 -1.421875 26.90625 -1.421875 
Q 22.3125 -1.421875 17.546875 -0.640625 
Q 12.796875 0.140625 7.71875 1.703125 
L 7.71875 11.625 
Q 12.109375 9.234375 16.796875 8.0625 
Q 21.484375 6.890625 26.703125 6.890625 
Q 35.15625 6.890625 40.078125 11.328125 
Q 45.015625 15.765625 45.015625 23.390625 
Q 45.015625 31 40.078125 35.4375 
Q 35.15625 39.890625 26.703125 39.890625 
Q 22.75 39.890625 18.8125 39.015625 
Q 14.890625 38.140625 10.796875 36.28125 
z
" id="DejaVuSans-53"/>
      </defs>
      <g transform="translate(474.324091 1043.67726)scale(0.2 -0.2)">
       <use xlink:href="#DejaVuSans-53"/>
       <use x="63.623047" xlink:href="#DejaVuSans-48"/>
      </g>
     </g>
    </g>
    <g id="xtick_3">
     <g id="line2d_3">
      <g>
       <use style="stroke:#000000;stroke-width:0.8;" x="832.531666" xlink:href="#m327a855614" y="1021.480385"/>
      </g>
     </g>
     <g id="text_3">
      <!-- 100 -->
      <defs>
       <path d="M 12.40625 8.296875 
L 28.515625 8.296875 
L 28.515625 63.921875 
L 10.984375 60.40625 
L 10.984375 69.390625 
L 28.421875 72.90625 
L 38.28125 72.90625 
L 38.28125 8.296875 
L 54.390625 8.296875 
L 54.390625 0 
L 12.40625 0 
z
" id="DejaVuSans-49"/>
      </defs>
      <g transform="translate(813.444166 1043.67726)scale(0.2 -0.2)">
       <use xlink:href="#DejaVuSans-49"/>
       <use x="63.623047" xlink:href="#DejaVuSans-48"/>
       <use x="127.246094" xlink:href="#DejaVuSans-48"/>
      </g>
     </g>
    </g>
    <g id="xtick_4">
     <g id="line2d_4">
      <g>
       <use style="stroke:#000000;stroke-width:0.8;" x="1178.014241" xlink:href="#m327a855614" y="1021.480385"/>
      </g>
     </g>
     <g id="text_4">
      <!-- 150 -->
      <g transform="translate(1158.926741 1043.67726)scale(0.2 -0.2)">
       <use xlink:href="#DejaVuSans-49"/>
       <use x="63.623047" xlink:href="#DejaVuSans-53"/>
       <use x="127.246094" xlink:href="#DejaVuSans-48"/>
      </g>
     </g>
    </g>
    <g id="xtick_5">
     <g id="line2d_5">
      <g>
       <use style="stroke:#000000;stroke-width:0.8;" x="1523.496816" xlink:href="#m327a855614" y="1021.480385"/>
      </g>
     </g>
     <g id="text_5">
      <!-- 200 -->
      <defs>
       <path d="M 19.1875 8.296875 
L 53.609375 8.296875 
L 53.609375 0 
L 7.328125 0 
L 7.328125 8.296875 
Q 12.9375 14.109375 22.625 23.890625 
Q 32.328125 33.6875 34.8125 36.53125 
Q 39.546875 41.84375 41.421875 45.53125 
Q 43.3125 49.21875 43.3125 52.78125 
Q 43.3125 58.59375 39.234375 62.25 
Q 35.15625 65.921875 28.609375 65.921875 
Q 23.96875 65.921875 18.8125 64.3125 
Q 13.671875 62.703125 7.8125 59.421875 
L 7.8125 69.390625 
Q 13.765625 71.78125 18.9375 73 
Q 24.125 74.21875 28.421875 74.21875 
Q 39.75 74.21875 46.484375 68.546875 
Q 53.21875 62.890625 53.21875 53.421875 
Q 53.21875 48.921875 51.53125 44.890625 
Q 49.859375 40.875 45.40625 35.40625 
Q 44.1875 33.984375 37.640625 27.21875 
Q 31.109375 20.453125 19.1875 8.296875 
z
" id="DejaVuSans-50"/>
      </defs>
      <g transform="translate(1504.409316 1043.67726)scale(0.2 -0.2)">
       <use xlink:href="#DejaVuSans-50"/>
       <use x="63.623047" xlink:href="#DejaVuSans-48"/>
       <use x="127.246094" xlink:href="#DejaVuSans-48"/>
      </g>
     </g>
    </g>
    <g id="xtick_6">
     <g id="line2d_6">
      <g>
       <use style="stroke:#000000;stroke-width:0.8;" x="1868.979391" xlink:href="#m327a855614" y="1021.480385"/>
      </g>
     </g>
     <g id="text_6">
      <!-- 250 -->
      <g transform="translate(1849.891891 1043.67726)scale(0.2 -0.2)">
       <use xlink:href="#DejaVuSans-50"/>
       <use x="63.623047" xlink:href="#DejaVuSans-53"/>
       <use x="127.246094" xlink:href="#DejaVuSans-48"/>
      </g>
     </g>
    </g>
    <g id="xtick_7">
     <g id="line2d_7">
      <g>
       <use style="stroke:#000000;stroke-width:0.8;" x="2214.461967" xlink:href="#m327a855614" y="1021.480385"/>
      </g>
     </g>
     <g id="text_7">
      <!-- 300 -->
      <defs>
       <path d="M 40.578125 39.3125 
Q 47.65625 37.796875 51.625 33 
Q 55.609375 28.21875 55.609375 21.1875 
Q 55.609375 10.40625 48.1875 4.484375 
Q 40.765625 -1.421875 27.09375 -1.421875 
Q 22.515625 -1.421875 17.65625 -0.515625 
Q 12.796875 0.390625 7.625 2.203125 
L 7.625 11.71875 
Q 11.71875 9.328125 16.59375 8.109375 
Q 21.484375 6.890625 26.8125 6.890625 
Q 36.078125 6.890625 40.9375 10.546875 
Q 45.796875 14.203125 45.796875 21.1875 
Q 45.796875 27.640625 41.28125 31.265625 
Q 36.765625 34.90625 28.71875 34.90625 
L 20.21875 34.90625 
L 20.21875 43.015625 
L 29.109375 43.015625 
Q 36.375 43.015625 40.234375 45.921875 
Q 44.09375 48.828125 44.09375 54.296875 
Q 44.09375 59.90625 40.109375 62.90625 
Q 36.140625 65.921875 28.71875 65.921875 
Q 24.65625 65.921875 20.015625 65.03125 
Q 15.375 64.15625 9.8125 62.3125 
L 9.8125 71.09375 
Q 15.4375 72.65625 20.34375 73.4375 
Q 25.25 74.21875 29.59375 74.21875 
Q 40.828125 74.21875 47.359375 69.109375 
Q 53.90625 64.015625 53.90625 55.328125 
Q 53.90625 49.265625 50.4375 45.09375 
Q 46.96875 40.921875 40.578125 39.3125 
z
" id="DejaVuSans-51"/>
      </defs>
      <g transform="translate(2195.374467 1043.67726)scale(0.2 -0.2)">
       <use xlink:href="#DejaVuSans-51"/>
       <use x="63.623047" xlink:href="#DejaVuSans-48"/>
       <use x="127.246094" xlink:href="#DejaVuSans-48"/>
      </g>
     </g>
    </g>
    <g id="xtick_8">
     <g id="line2d_8">
      <g>
       <use style="stroke:#000000;stroke-width:0.8;" x="2559.944542" xlink:href="#m327a855614" y="1021.480385"/>
      </g>
     </g>
     <g id="text_8">
      <!-- 350 -->
      <g transform="translate(2540.857042 1043.67726)scale(0.2 -0.2)">
       <use xlink:href="#DejaVuSans-51"/>
       <use x="63.623047" xlink:href="#DejaVuSans-53"/>
       <use x="127.246094" xlink:href="#DejaVuSans-48"/>
      </g>
     </g>
    </g>
    <g id="text_9">
     <!-- Time [s] -->
     <defs>
      <path d="M -0.296875 72.90625 
L 61.375 72.90625 
L 61.375 64.59375 
L 35.5 64.59375 
L 35.5 0 
L 25.59375 0 
L 25.59375 64.59375 
L -0.296875 64.59375 
z
" id="DejaVuSans-84"/>
      <path d="M 9.421875 54.6875 
L 18.40625 54.6875 
L 18.40625 0 
L 9.421875 0 
z
M 9.421875 75.984375 
L 18.40625 75.984375 
L 18.40625 64.59375 
L 9.421875 64.59375 
z
" id="DejaVuSans-105"/>
      <path d="M 52 44.1875 
Q 55.375 50.25 60.0625 53.125 
Q 64.75 56 71.09375 56 
Q 79.640625 56 84.28125 50.015625 
Q 88.921875 44.046875 88.921875 33.015625 
L 88.921875 0 
L 79.890625 0 
L 79.890625 32.71875 
Q 79.890625 40.578125 77.09375 44.375 
Q 74.3125 48.1875 68.609375 48.1875 
Q 61.625 48.1875 57.5625 43.546875 
Q 53.515625 38.921875 53.515625 30.90625 
L 53.515625 0 
L 44.484375 0 
L 44.484375 32.71875 
Q 44.484375 40.625 41.703125 44.40625 
Q 38.921875 48.1875 33.109375 48.1875 
Q 26.21875 48.1875 22.15625 43.53125 
Q 18.109375 38.875 18.109375 30.90625 
L 18.109375 0 
L 9.078125 0 
L 9.078125 54.6875 
L 18.109375 54.6875 
L 18.109375 46.1875 
Q 21.1875 51.21875 25.484375 53.609375 
Q 29.78125 56 35.6875 56 
Q 41.65625 56 45.828125 52.96875 
Q 50 49.953125 52 44.1875 
z
" id="DejaVuSans-109"/>
      <path d="M 56.203125 29.59375 
L 56.203125 25.203125 
L 14.890625 25.203125 
Q 15.484375 15.921875 20.484375 11.0625 
Q 25.484375 6.203125 34.421875 6.203125 
Q 39.59375 6.203125 44.453125 7.46875 
Q 49.3125 8.734375 54.109375 11.28125 
L 54.109375 2.78125 
Q 49.265625 0.734375 44.1875 -0.34375 
Q 39.109375 -1.421875 33.890625 -1.421875 
Q 20.796875 -1.421875 13.15625 6.1875 
Q 5.515625 13.8125 5.515625 26.8125 
Q 5.515625 40.234375 12.765625 48.109375 
Q 20.015625 56 32.328125 56 
Q 43.359375 56 49.78125 48.890625 
Q 56.203125 41.796875 56.203125 29.59375 
z
M 47.21875 32.234375 
Q 47.125 39.59375 43.09375 43.984375 
Q 39.0625 48.390625 32.421875 48.390625 
Q 24.90625 48.390625 20.390625 44.140625 
Q 15.875 39.890625 15.1875 32.171875 
z
" id="DejaVuSans-101"/>
      <path id="DejaVuSans-32"/>
      <path d="M 8.59375 75.984375 
L 29.296875 75.984375 
L 29.296875 69 
L 17.578125 69 
L 17.578125 -6.203125 
L 29.296875 -6.203125 
L 29.296875 -13.1875 
L 8.59375 -13.1875 
z
" id="DejaVuSans-91"/>
      <path d="M 44.28125 53.078125 
L 44.28125 44.578125 
Q 40.484375 46.53125 36.375 47.5 
Q 32.28125 48.484375 27.875 48.484375 
Q 21.1875 48.484375 17.84375 46.4375 
Q 14.5 44.390625 14.5 40.28125 
Q 14.5 37.15625 16.890625 35.375 
Q 19.28125 33.59375 26.515625 31.984375 
L 29.59375 31.296875 
Q 39.15625 29.25 43.1875 25.515625 
Q 47.21875 21.78125 47.21875 15.09375 
Q 47.21875 7.46875 41.1875 3.015625 
Q 35.15625 -1.421875 24.609375 -1.421875 
Q 20.21875 -1.421875 15.453125 -0.5625 
Q 10.6875 0.296875 5.421875 2 
L 5.421875 11.28125 
Q 10.40625 8.6875 15.234375 7.390625 
Q 20.0625 6.109375 24.8125 6.109375 
Q 31.15625 6.109375 34.5625 8.28125 
Q 37.984375 10.453125 37.984375 14.40625 
Q 37.984375 18.0625 35.515625 20.015625 
Q 33.0625 21.96875 24.703125 23.78125 
L 21.578125 24.515625 
Q 13.234375 26.265625 9.515625 29.90625 
Q 5.8125 33.546875 5.8125 39.890625 
Q 5.8125 47.609375 11.28125 51.796875 
Q 16.75 56 26.8125 56 
Q 31.78125 56 36.171875 55.265625 
Q 40.578125 54.546875 44.28125 53.078125 
z
" id="DejaVuSans-115"/>
      <path d="M 30.421875 75.984375 
L 30.421875 -13.1875 
L 9.71875 -13.1875 
L 9.71875 -6.203125 
L 21.390625 -6.203125 
L 21.390625 69 
L 9.71875 69 
L 9.71875 75.984375 
z
" id="DejaVuSans-93"/>
     </defs>
     <g transform="translate(1427.091875 1071.592572)scale(0.26 -0.26)">
      <use xlink:href="#DejaVuSans-84"/>
      <use x="61.037109" xlink:href="#DejaVuSans-105"/>
      <use x="88.820312" xlink:href="#DejaVuSans-109"/>
      <use x="186.232422" xlink:href="#DejaVuSans-101"/>
      <use x="247.755859" xlink:href="#DejaVuSans-32"/>
      <use x="279.542969" xlink:href="#DejaVuSans-91"/>
      <use x="318.556641" xlink:href="#DejaVuSans-115"/>
      <use x="370.65625" xlink:href="#DejaVuSans-93"/>
     </g>
    </g>
   </g>
   <g id="matplotlib.axis_2">
    <g id="ytick_1">
     <g id="line2d_9">
      <defs>
       <path d="M 0 0 
L -3.5 0 
" id="mece6c6ba89" style="stroke:#000000;stroke-width:0.8;"/>
      </defs>
      <g>
       <use style="stroke:#000000;stroke-width:0.8;" x="83.694615" xlink:href="#mece6c6ba89" y="859.574958"/>
      </g>
     </g>
     <g id="text_10">
      <!-- 0.08 -->
      <defs>
       <path d="M 10.6875 12.40625 
L 21 12.40625 
L 21 0 
L 10.6875 0 
z
" id="DejaVuSans-46"/>
       <path d="M 31.78125 34.625 
Q 24.75 34.625 20.71875 30.859375 
Q 16.703125 27.09375 16.703125 20.515625 
Q 16.703125 13.921875 20.71875 10.15625 
Q 24.75 6.390625 31.78125 6.390625 
Q 38.8125 6.390625 42.859375 10.171875 
Q 46.921875 13.96875 46.921875 20.515625 
Q 46.921875 27.09375 42.890625 30.859375 
Q 38.875 34.625 31.78125 34.625 
z
M 21.921875 38.8125 
Q 15.578125 40.375 12.03125 44.71875 
Q 8.5 49.078125 8.5 55.328125 
Q 8.5 64.0625 14.71875 69.140625 
Q 20.953125 74.21875 31.78125 74.21875 
Q 42.671875 74.21875 48.875 69.140625 
Q 55.078125 64.0625 55.078125 55.328125 
Q 55.078125 49.078125 51.53125 44.71875 
Q 48 40.375 41.703125 38.8125 
Q 48.828125 37.15625 52.796875 32.3125 
Q 56.78125 27.484375 56.78125 20.515625 
Q 56.78125 9.90625 50.3125 4.234375 
Q 43.84375 -1.421875 31.78125 -1.421875 
Q 19.734375 -1.421875 13.25 4.234375 
Q 6.78125 9.90625 6.78125 20.515625 
Q 6.78125 27.484375 10.78125 32.3125 
Q 14.796875 37.15625 21.921875 38.8125 
z
M 18.3125 54.390625 
Q 18.3125 48.734375 21.84375 45.5625 
Q 25.390625 42.390625 31.78125 42.390625 
Q 38.140625 42.390625 41.71875 45.5625 
Q 45.3125 48.734375 45.3125 54.390625 
Q 45.3125 60.0625 41.71875 63.234375 
Q 38.140625 66.40625 31.78125 66.40625 
Q 25.390625 66.40625 21.84375 63.234375 
Q 18.3125 60.0625 18.3125 54.390625 
z
" id="DejaVuSans-56"/>
      </defs>
      <g transform="translate(32.163365 867.173396)scale(0.2 -0.2)">
       <use xlink:href="#DejaVuSans-48"/>
       <use x="63.623047" xlink:href="#DejaVuSans-46"/>
       <use x="95.410156" xlink:href="#DejaVuSans-48"/>
       <use x="159.033203" xlink:href="#DejaVuSans-56"/>
      </g>
     </g>
    </g>
    <g id="ytick_2">
     <g id="line2d_10">
      <g>
       <use style="stroke:#000000;stroke-width:0.8;" x="83.694615" xlink:href="#mece6c6ba89" y="668.392721"/>
      </g>
     </g>
     <g id="text_11">
      <!-- 0.10 -->
      <g transform="translate(32.163365 675.991159)scale(0.2 -0.2)">
       <use xlink:href="#DejaVuSans-48"/>
       <use x="63.623047" xlink:href="#DejaVuSans-46"/>
       <use x="95.410156" xlink:href="#DejaVuSans-49"/>
       <use x="159.033203" xlink:href="#DejaVuSans-48"/>
      </g>
     </g>
    </g>
    <g id="ytick_3">
     <g id="line2d_11">
      <g>
       <use style="stroke:#000000;stroke-width:0.8;" x="83.694615" xlink:href="#mece6c6ba89" y="477.210484"/>
      </g>
     </g>
     <g id="text_12">
      <!-- 0.12 -->
      <g transform="translate(32.163365 484.808922)scale(0.2 -0.2)">
       <use xlink:href="#DejaVuSans-48"/>
       <use x="63.623047" xlink:href="#DejaVuSans-46"/>
       <use x="95.410156" xlink:href="#DejaVuSans-49"/>
       <use x="159.033203" xlink:href="#DejaVuSans-50"/>
      </g>
     </g>
    </g>
    <g id="ytick_4">
     <g id="line2d_12">
      <g>
       <use style="stroke:#000000;stroke-width:0.8;" x="83.694615" xlink:href="#mece6c6ba89" y="286.028248"/>
      </g>
     </g>
     <g id="text_13">
      <!-- 0.14 -->
      <defs>
       <path d="M 37.796875 64.3125 
L 12.890625 25.390625 
L 37.796875 25.390625 
z
M 35.203125 72.90625 
L 47.609375 72.90625 
L 47.609375 25.390625 
L 58.015625 25.390625 
L 58.015625 17.1875 
L 47.609375 17.1875 
L 47.609375 0 
L 37.796875 0 
L 37.796875 17.1875 
L 4.890625 17.1875 
L 4.890625 26.703125 
z
" id="DejaVuSans-52"/>
      </defs>
      <g transform="translate(32.163365 293.626685)scale(0.2 -0.2)">
       <use xlink:href="#DejaVuSans-48"/>
       <use x="63.623047" xlink:href="#DejaVuSans-46"/>
       <use x="95.410156" xlink:href="#DejaVuSans-49"/>
       <use x="159.033203" xlink:href="#DejaVuSans-52"/>
      </g>
     </g>
    </g>
    <g id="text_14">
     <!-- Length [m] -->
     <defs>
      <path d="M 9.8125 72.90625 
L 19.671875 72.90625 
L 19.671875 8.296875 
L 55.171875 8.296875 
L 55.171875 0 
L 9.8125 0 
z
" id="DejaVuSans-76"/>
      <path d="M 54.890625 33.015625 
L 54.890625 0 
L 45.90625 0 
L 45.90625 32.71875 
Q 45.90625 40.484375 42.875 44.328125 
Q 39.84375 48.1875 33.796875 48.1875 
Q 26.515625 48.1875 22.3125 43.546875 
Q 18.109375 38.921875 18.109375 30.90625 
L 18.109375 0 
L 9.078125 0 
L 9.078125 54.6875 
L 18.109375 54.6875 
L 18.109375 46.1875 
Q 21.34375 51.125 25.703125 53.5625 
Q 30.078125 56 35.796875 56 
Q 45.21875 56 50.046875 50.171875 
Q 54.890625 44.34375 54.890625 33.015625 
z
" id="DejaVuSans-110"/>
      <path d="M 45.40625 27.984375 
Q 45.40625 37.75 41.375 43.109375 
Q 37.359375 48.484375 30.078125 48.484375 
Q 22.859375 48.484375 18.828125 43.109375 
Q 14.796875 37.75 14.796875 27.984375 
Q 14.796875 18.265625 18.828125 12.890625 
Q 22.859375 7.515625 30.078125 7.515625 
Q 37.359375 7.515625 41.375 12.890625 
Q 45.40625 18.265625 45.40625 27.984375 
z
M 54.390625 6.78125 
Q 54.390625 -7.171875 48.1875 -13.984375 
Q 42 -20.796875 29.203125 -20.796875 
Q 24.46875 -20.796875 20.265625 -20.09375 
Q 16.0625 -19.390625 12.109375 -17.921875 
L 12.109375 -9.1875 
Q 16.0625 -11.328125 19.921875 -12.34375 
Q 23.78125 -13.375 27.78125 -13.375 
Q 36.625 -13.375 41.015625 -8.765625 
Q 45.40625 -4.15625 45.40625 5.171875 
L 45.40625 9.625 
Q 42.625 4.78125 38.28125 2.390625 
Q 33.9375 0 27.875 0 
Q 17.828125 0 11.671875 7.65625 
Q 5.515625 15.328125 5.515625 27.984375 
Q 5.515625 40.671875 11.671875 48.328125 
Q 17.828125 56 27.875 56 
Q 33.9375 56 38.28125 53.609375 
Q 42.625 51.21875 45.40625 46.390625 
L 45.40625 54.6875 
L 54.390625 54.6875 
z
" id="DejaVuSans-103"/>
      <path d="M 18.3125 70.21875 
L 18.3125 54.6875 
L 36.8125 54.6875 
L 36.8125 47.703125 
L 18.3125 47.703125 
L 18.3125 18.015625 
Q 18.3125 11.328125 20.140625 9.421875 
Q 21.96875 7.515625 27.59375 7.515625 
L 36.8125 7.515625 
L 36.8125 0 
L 27.59375 0 
Q 17.1875 0 13.234375 3.875 
Q 9.28125 7.765625 9.28125 18.015625 
L 9.28125 47.703125 
L 2.6875 47.703125 
L 2.6875 54.6875 
L 9.28125 54.6875 
L 9.28125 70.21875 
z
" id="DejaVuSans-116"/>
      <path d="M 54.890625 33.015625 
L 54.890625 0 
L 45.90625 0 
L 45.90625 32.71875 
Q 45.90625 40.484375 42.875 44.328125 
Q 39.84375 48.1875 33.796875 48.1875 
Q 26.515625 48.1875 22.3125 43.546875 
Q 18.109375 38.921875 18.109375 30.90625 
L 18.109375 0 
L 9.078125 0 
L 9.078125 75.984375 
L 18.109375 75.984375 
L 18.109375 46.1875 
Q 21.34375 51.125 25.703125 53.5625 
Q 30.078125 56 35.796875 56 
Q 45.21875 56 50.046875 50.171875 
Q 54.890625 44.34375 54.890625 33.015625 
z
" id="DejaVuSans-104"/>
     </defs>
     <g transform="translate(22.756178 661.697574)rotate(-90)scale(0.26 -0.26)">
      <use xlink:href="#DejaVuSans-76"/>
      <use x="55.697266" xlink:href="#DejaVuSans-101"/>
      <use x="117.220703" xlink:href="#DejaVuSans-110"/>
      <use x="180.599609" xlink:href="#DejaVuSans-103"/>
      <use x="244.076172" xlink:href="#DejaVuSans-116"/>
      <use x="283.285156" xlink:href="#DejaVuSans-104"/>
      <use x="346.664062" xlink:href="#DejaVuSans-32"/>
      <use x="378.451172" xlink:href="#DejaVuSans-91"/>
      <use x="417.464844" xlink:href="#DejaVuSans-109"/>
      <use x="514.876953" xlink:href="#DejaVuSans-93"/>
     </g>
    </g>
   </g>
   <g id="line2d_13">
    <path clip-path="url(#p3faa5ad31b)" d="M 210.663031 831.567486 
L 230.702818 831.533727 
L 231.392433 825.907131 
L 232.083108 793.414859 
L 232.773863 791.67835 
L 248.666659 791.673436 
L 648.043918 791.673436 
L 648.735195 739.371703 
L 649.426171 659.696916 
L 651.498748 480.828177 
L 652.189952 462.081403 
L 652.880676 461.443549 
L 660.481483 461.433293 
L 1063.314106 461.433293 
L 1064.005077 470.529417 
L 1064.696244 501.158264 
L 1065.387139 501.730382 
L 1137.93824 501.73145 
L 1479.275275 501.73145 
L 1479.966643 470.23563 
L 1480.657232 409.80125 
L 1482.729824 259.539325 
L 1483.421072 237.99015 
L 1484.11175 232.924917 
L 1485.493815 232.829196 
L 1507.604867 232.847429 
L 1513.1327 232.829623 
L 1521.42386 232.841161 
L 1526.953541 232.840164 
L 1533.861547 232.833469 
L 1545.607663 232.827344 
L 1573.937544 232.83062 
L 1612.631824 232.827914 
L 1647.871039 232.849708 
L 1653.398716 232.834609 
L 1665.144952 232.831475 
L 1678.964245 232.829054 
L 1711.439698 232.83874 
L 1718.349241 232.830051 
L 1759.808155 232.829623 
L 1767.407544 232.827629 
L 1816.466744 232.831618 
L 1835.813559 232.827629 
L 1859.337869 232.836318 
L 1869.703808 232.829196 
L 1879.37592 232.8329 
L 1894.577348 232.828911 
L 1895.268089 238.457074 
L 1898.032584 576.155402 
L 1898.723382 668.277044 
L 1899.413945 702.863425 
L 1900.105743 708.018254 
L 1900.795643 708.139116 
L 2054.920148 708.139614 
L 2310.578289 708.139614 
L 2311.268452 685.329045 
L 2311.959407 619.118789 
L 2312.650548 540.898975 
L 2316.105224 274.557683 
L 2317.486981 235.213958 
L 2318.178132 232.864379 
L 2320.250948 232.838455 
L 2329.233192 232.843868 
L 2334.761163 232.828769 
L 2359.635977 232.830905 
L 2409.385529 232.831333 
L 2416.986305 232.835606 
L 2426.659481 232.829338 
L 2461.207909 232.831048 
L 2464.662769 232.837743 
L 2474.336712 232.829766 
L 2490.228193 232.838312 
L 2497.830111 232.830905 
L 2519.939625 232.831618 
L 2523.394705 232.831048 
L 2573.83515 232.828626 
L 2580.744599 232.847429 
L 2584.890633 232.832472 
L 2589.037422 232.83176 
L 2606.310532 232.8329 
L 2612.529259 232.831048 
L 2640.858874 232.827344 
L 2663.660458 232.833469 
L 2676.790629 232.828769 
L 2750.031344 232.830051 
L 2750.031344 232.830051 
" style="fill:none;stroke:#008000;stroke-dasharray:9.6,2.4,1.5,2.4;stroke-dashoffset:0;stroke-width:1.5;"/>
   </g>
   <g id="line2d_14">
    <path clip-path="url(#p3faa5ad31b)" d="M 210.663031 831.481605 
L 212.045703 831.574682 
L 230.702818 831.547363 
L 231.392433 831.197333 
L 232.083108 787.493915 
L 232.773863 778.171598 
L 233.465597 817.070317 
L 234.15599 768.810554 
L 234.847271 805.671398 
L 235.538093 798.036415 
L 236.228719 773.560585 
L 236.919983 816.252696 
L 237.610735 771.71565 
L 238.301767 803.179395 
L 238.993128 797.380691 
L 239.683925 776.069209 
L 240.374594 814.123748 
L 241.065768 771.100569 
L 241.756728 808.070463 
L 242.447687 787.407486 
L 243.138418 786.408697 
L 243.829593 807.460197 
L 244.520426 772.788622 
L 245.211346 812.420328 
L 245.902223 774.695398 
L 246.594624 804.844211 
L 247.284389 787.703825 
L 247.97539 789.556922 
L 248.666659 802.207602 
L 249.357235 777.890164 
L 250.04831 809.227332 
L 250.738688 774.306133 
L 251.430082 809.546168 
L 252.121497 776.460599 
L 252.811906 805.673521 
L 253.503015 782.018129 
L 254.19409 799.384247 
L 254.885084 788.662514 
L 255.575909 793.140783 
L 256.268058 794.151254 
L 256.957803 788.452587 
L 257.650532 797.791258 
L 258.33978 785.562609 
L 259.030527 799.754384 
L 259.721539 784.173454 
L 260.413141 800.451047 
L 261.104264 783.888912 
L 261.794779 800.21488 
L 262.485697 784.440386 
L 263.17653 799.251838 
L 263.86773 785.622743 
L 264.55859 797.743453 
L 265.249968 787.131155 
L 265.940017 796.124182 
L 266.63113 788.707951 
L 267.322341 794.581223 
L 268.013357 790.184212 
L 268.704809 793.159394 
L 269.395057 791.513805 
L 270.086015 791.893152 
L 270.777335 792.67217 
L 271.468249 790.811676 
L 272.160968 793.629816 
L 272.850235 789.945886 
L 273.541121 794.361795 
L 274.232069 789.310016 
L 274.923038 794.847342 
L 275.613639 788.92127 
L 276.304964 795.091066 
L 276.996197 788.775671 
L 277.686921 795.107937 
L 278.378416 788.843187 
L 279.068822 794.908118 
L 279.759809 789.112723 
L 280.451008 794.523348 
L 281.141536 789.525615 
L 281.832678 794.009047 
L 282.523529 790.085414 
L 283.214628 793.434235 
L 283.90557 790.695591 
L 284.596548 792.916341 
L 285.287914 791.191432 
L 285.978402 792.387371 
L 286.669339 791.742117 
L 288.742577 791.871307 
L 307.398554 791.919588 
L 648.043918 791.921388 
L 648.735195 749.651761 
L 649.426171 641.165582 
L 650.117347 613.295858 
L 650.808113 520.734321 
L 651.498748 479.74991 
L 652.189952 457.943559 
L 652.880676 466.058894 
L 653.572055 464.765985 
L 654.262623 459.652526 
L 654.95549 469.943539 
L 655.644847 455.121483 
L 656.335757 473.065976 
L 657.026763 452.406167 
L 657.717572 474.618322 
L 658.408693 451.055634 
L 659.099371 475.177735 
L 659.790639 450.602188 
L 660.481483 475.134596 
L 661.172568 450.712562 
L 661.86341 474.691708 
L 662.554707 451.192068 
L 663.245585 473.943978 
L 663.936414 452.026125 
L 664.628515 472.838915 
L 665.318557 453.288798 
L 666.009364 471.212378 
L 666.700323 455.086078 
L 667.391192 468.898057 
L 668.082423 457.512383 
L 668.77319 465.873504 
L 669.464501 460.560454 
L 670.846051 464.025946 
L 671.537374 458.880469 
L 672.227868 467.36848 
L 672.918868 456.127904 
L 673.60995 469.807834 
L 674.301066 454.646926 
L 674.992161 470.761035 
L 675.682817 454.556776 
L 676.374155 470.283579 
L 677.066354 455.76271 
L 677.755747 468.549099 
L 678.446688 457.973856 
L 679.137659 465.97072 
L 679.828503 460.75142 
L 680.519473 463.157569 
L 681.210464 463.548026 
L 681.901894 460.772584 
L 682.592961 465.726667 
L 683.283389 459.208307 
L 683.974686 466.947449 
L 684.665294 458.638961 
L 685.356041 467.116867 
L 686.047246 459.108052 
L 686.739038 466.144626 
L 687.429518 460.484389 
L 688.120209 464.395583 
L 688.810709 462.372459 
L 689.501619 462.510387 
L 690.194086 464.149125 
L 690.885766 461.164094 
L 691.575081 465.152609 
L 692.266312 460.794265 
L 692.956957 465.07595 
L 693.647655 461.359316 
L 694.338908 464.191244 
L 695.029885 462.414438 
L 695.721996 463.185328 
L 696.411758 463.197482 
L 697.102897 462.725655 
L 697.793768 463.314396 
L 698.484644 462.897263 
L 700.557471 462.981714 
L 715.758858 463.03026 
L 1013.565056 463.032151 
L 1063.314106 463.032151 
L 1064.005077 463.212057 
L 1064.696244 519.913441 
L 1065.387139 528.044688 
L 1066.078222 471.600758 
L 1066.769093 522.462468 
L 1067.459779 523.501487 
L 1068.150959 472.604003 
L 1068.842306 527.023656 
L 1069.532734 515.362473 
L 1070.225578 475.518784 
L 1070.916491 531.721572 
L 1071.605841 502.293545 
L 1072.297877 482.86759 
L 1072.987755 533.919376 
L 1073.678768 487.216797 
L 1074.369724 497.75165 
L 1075.060962 530.454729 
L 1075.751684 477.700008 
L 1076.443525 517.328005 
L 1077.133287 517.819251 
L 1077.824518 478.520723 
L 1078.515702 529.244225 
L 1079.206637 494.455642 
L 1079.89775 494.613003 
L 1080.588439 528.049267 
L 1081.279415 479.232927 
L 1081.970307 519.857681 
L 1082.661726 509.014419 
L 1083.35233 485.556894 
L 1084.043492 528.402541 
L 1084.734587 483.277719 
L 1085.425124 513.980264 
L 1086.116092 512.696434 
L 1086.807068 484.995385 
L 1087.497987 526.90151 
L 1088.188969 483.92769 
L 1088.880247 515.369077 
L 1089.570925 508.006389 
L 1090.26196 489.735647 
L 1090.952786 524.391034 
L 1091.644248 482.396523 
L 1092.335448 521.149824 
L 1093.026269 495.593236 
L 1093.716718 502.880887 
L 1094.409386 515.742885 
L 1095.100296 486.32665 
L 1095.78959 523.388108 
L 1096.480851 484.440968 
L 1097.171735 519.308339 
L 1097.862574 494.560739 
L 1098.553343 506.621333 
L 1099.244436 509.537496 
L 1099.935707 492.822841 
L 1100.626363 518.797401 
L 1101.31701 486.116141 
L 1102.008289 521.158624 
L 1102.699153 486.210315 
L 1103.390216 518.664525 
L 1104.08119 490.998471 
L 1104.771891 513.126728 
L 1105.46349 498.212853 
L 1106.154125 506.061794 
L 1106.845037 505.058516 
L 1107.535805 499.810486 
L 1108.226913 510.089091 
L 1108.917967 495.437039 
L 1109.608962 513.105054 
L 1110.299886 492.850845 
L 1110.99084 514.585876 
L 1111.68211 491.603672 
L 1112.372629 515.078444 
L 1113.06519 491.253626 
L 1113.754611 514.930335 
L 1114.447248 491.522398 
L 1115.136715 514.312166 
L 1115.827603 492.262649 
L 1116.518798 513.255358 
L 1117.209527 493.448682 
L 1117.900488 511.690599 
L 1118.591433 495.170954 
L 1119.282302 509.461007 
L 1119.97324 497.517162 
L 1120.664376 506.521707 
L 1121.355683 500.487568 
L 1122.047534 503.034523 
L 1122.736958 503.921658 
L 1123.428959 499.448549 
L 1124.119546 507.353495 
L 1124.810189 496.427864 
L 1125.501073 510.035783 
L 1126.19186 494.648032 
L 1126.883071 511.265477 
L 1127.573978 494.312056 
L 1128.264844 511.030072 
L 1128.956448 495.32088 
L 1129.64689 509.488504 
L 1130.337867 497.413871 
L 1131.02896 507.025509 
L 1131.71953 500.119382 
L 1132.410608 504.206807 
L 1133.792986 501.670375 
L 1134.483565 505.327462 
L 1135.174583 499.949331 
L 1135.866232 506.68703 
L 1136.556578 499.280551 
L 1137.247952 506.917303 
L 1137.93824 499.52044 
L 1138.629838 506.364971 
L 1139.321945 500.498517 
L 1140.01228 505.04937 
L 1140.70232 502.014219 
L 1141.393714 503.450618 
L 1142.084259 503.574621 
L 1142.775334 502.16863 
L 1143.465916 504.588988 
L 1144.157928 501.648123 
L 1144.848056 504.715117 
L 1145.539111 501.930641 
L 1146.230542 504.181838 
L 1146.920981 502.568285 
L 1147.611998 503.592391 
L 1148.302934 502.993818 
L 1148.994803 503.364173 
L 1150.376334 503.270941 
L 1164.194818 503.215667 
L 1352.828633 503.212625 
L 1479.275275 503.212625 
L 1479.966643 484.507746 
L 1480.657232 400.857702 
L 1481.348177 369.93792 
L 1482.039227 293.991165 
L 1483.421072 236.017664 
L 1484.11175 234.216483 
L 1484.803363 232.956299 
L 1485.493815 235.12676 
L 1486.184821 231.977729 
L 1486.876441 236.203053 
L 1487.566916 230.972198 
L 1488.257833 237.342544 
L 1488.94884 229.958725 
L 1489.63981 238.485359 
L 1490.330736 229.056262 
L 1491.021424 239.55947 
L 1491.712557 228.240961 
L 1492.403674 240.514733 
L 1493.094575 227.665925 
L 1493.78587 241.201658 
L 1494.476639 227.278616 
L 1495.16746 241.622382 
L 1495.858874 227.153053 
L 1496.549667 241.700882 
L 1497.240123 227.320412 
L 1497.931377 241.414713 
L 1498.622287 227.80066 
L 1499.313245 240.743543 
L 1500.004712 228.543509 
L 1500.695202 239.754876 
L 1501.386269 229.59546 
L 1502.077111 238.461406 
L 1502.768272 230.864567 
L 1503.458953 236.963382 
L 1504.150033 232.350412 
L 1504.84107 235.315417 
L 1505.53198 234.039448 
L 1506.222633 233.660952 
L 1506.913886 235.740995 
L 1507.604867 232.18293 
L 1508.295881 237.30921 
L 1508.986465 231.022716 
L 1509.678144 238.533751 
L 1510.368692 230.314525 
L 1511.059541 239.199123 
L 1511.750614 230.124943 
L 1512.441648 239.212148 
L 1513.1327 230.538506 
L 1513.82363 238.523617 
L 1514.514452 231.479952 
L 1515.205929 237.225805 
L 1515.896377 232.944295 
L 1516.58796 235.553568 
L 1517.969321 233.900651 
L 1518.660208 236.339159 
L 1519.351547 232.69653 
L 1520.042397 237.269814 
L 1520.733194 232.381418 
L 1521.42386 237.158511 
L 1522.11483 233.004688 
L 1522.806079 236.15838 
L 1523.497042 234.252113 
L 1524.188011 234.897359 
L 1524.880103 235.307661 
L 1525.569963 234.189883 
L 1526.260875 235.648936 
L 1526.953541 234.19058 
L 1527.642613 235.383613 
L 1528.334054 234.582647 
L 1529.024786 234.953651 
L 1542.844066 234.878754 
L 1620.923065 234.87368 
L 1894.577348 234.874928 
L 1895.268089 235.442552 
L 1895.959729 281.869905 
L 1896.649892 426.629662 
L 1897.340977 504.959404 
L 1898.032584 547.882348 
L 1898.723382 697.893922 
L 1899.413945 775.099613 
L 1900.105743 728.308276 
L 1900.795643 649.426633 
L 1901.486428 702.952959 
L 1902.177824 772.088877 
L 1902.868336 718.559822 
L 1903.559933 651.824933 
L 1904.250795 718.47793 
L 1904.941181 768.334429 
L 1905.633152 697.155282 
L 1906.323588 657.809674 
L 1907.014541 740.131104 
L 1907.705539 758.069898 
L 1908.397948 673.306829 
L 1909.087749 675.501312 
L 1909.778409 757.650198 
L 1910.469588 732.611853 
L 1911.160941 660.329836 
L 1911.851324 714.8755 
L 1912.542649 759.112564 
L 1913.233571 687.317383 
L 1913.924339 672.419774 
L 1914.615225 750.908409 
L 1915.306224 731.132921 
L 1915.996841 664.323494 
L 1916.688568 721.990749 
L 1917.378732 751.542512 
L 1918.070246 677.761593 
L 1918.761239 689.277947 
L 1919.45151 753.345072 
L 1920.142876 701.756762 
L 1920.834253 673.754665 
L 1921.524828 745.191248 
L 1922.215818 723.852981 
L 1922.906364 669.915297 
L 1923.597399 733.585768 
L 1924.29008 735.521228 
L 1924.979661 671.663535 
L 1925.672047 722.845925 
L 1926.361509 740.380032 
L 1927.052424 674.909371 
L 1927.743334 715.69205 
L 1928.435949 741.456348 
L 1929.125487 677.314998 
L 1929.815948 713.480251 
L 1930.507349 740.280596 
L 1931.198392 678.041891 
L 1931.889324 716.066499 
L 1932.580703 737.161934 
L 1933.271225 677.619134 
L 1933.962497 722.428639 
L 1934.653126 731.275649 
L 1935.344374 677.633949 
L 1936.035381 730.358562 
L 1936.726057 720.874635 
L 1937.417084 680.640937 
L 1938.107979 736.988135 
L 1938.799226 704.458562 
L 1939.490195 690.025686 
L 1940.180868 738.921506 
L 1940.871841 688.405227 
L 1942.253376 732.030261 
L 1942.944703 681.664565 
L 1943.635438 729.214296 
L 1944.326894 711.898603 
L 1945.018135 689.552596 
L 1945.708561 735.934103 
L 1946.4387 688.519565 
L 1947.131049 715.496778 
L 1947.822631 723.652378 
L 1948.511233 685.708487 
L 1949.203833 733.412508 
L 1949.893678 694.062251 
L 1951.275605 724.630999 
L 1951.966563 686.895099 
L 1952.657374 732.021387 
L 1953.349223 692.851461 
L 1954.039293 714.935066 
L 1954.730417 718.232807 
L 1955.421387 691.784601 
L 1956.112302 730.709455 
L 1956.803253 688.565231 
L 1957.494229 725.170177 
L 1958.185172 702.565372 
L 1958.876241 706.794841 
L 1959.566932 721.174644 
L 1960.258091 692.120162 
L 1960.949208 728.60897 
L 1961.640624 689.840867 
L 1962.331602 726.004895 
L 1963.022021 696.779406 
L 1963.71445 716.378327 
L 1964.405502 708.930917 
L 1965.094766 704.387779 
L 1965.78583 719.137315 
L 1966.476557 696.051672 
L 1967.167516 724.32358 
L 1967.859008 692.597652 
L 1968.549459 725.670714 
L 1969.240683 692.435106 
L 1969.931411 724.775865 
L 1970.622327 693.988146 
L 1971.313274 722.904248 
L 1972.004986 696.133027 
L 1972.695687 720.868967 
L 1973.386582 698.088629 
L 1974.077433 719.253953 
L 1974.768783 699.321485 
L 1975.459082 718.3855 
L 1976.151392 699.686073 
L 1976.841326 718.305837 
L 1977.532239 699.294245 
L 1978.223265 718.805479 
L 1978.914193 698.482502 
L 1979.605462 719.481224 
L 1980.296366 697.747239 
L 1980.987094 719.902172 
L 1981.678565 697.489547 
L 1982.370679 719.826947 
L 1983.060222 697.868366 
L 1983.750677 719.121321 
L 1984.442037 698.885184 
L 1985.132867 717.835553 
L 1985.823834 700.394959 
L 1986.515326 716.115852 
L 1987.205775 702.256014 
L 1987.896736 714.146691 
L 1988.587417 704.272257 
L 1989.27871 712.119387 
L 1989.969694 706.25911 
L 1990.660764 710.220823 
L 1991.351583 708.043999 
L 1992.042367 708.619252 
L 1992.733458 709.477211 
L 1993.424441 707.4408 
L 1994.116832 710.460637 
L 1994.806381 706.748446 
L 1995.49739 710.944107 
L 1996.188287 706.557243 
L 1996.879205 710.943536 
L 1997.570453 706.812115 
L 1998.26125 710.534286 
L 1998.952007 707.400346 
L 1999.643473 709.891183 
L 2000.334038 708.043183 
L 2001.024961 709.322744 
L 2001.716423 708.593046 
L 2002.40675 708.753739 
L 2012.771306 708.811529 
L 2089.468955 708.820674 
L 2310.578289 708.820656 
L 2311.268452 701.183802 
L 2311.959407 602.103406 
L 2312.650548 540.084461 
L 2313.342636 505.39233 
L 2314.032245 406.715594 
L 2314.723158 394.044634 
L 2316.105224 250.472186 
L 2316.796373 281.415072 
L 2317.486981 253.666605 
L 2318.178132 197.156708 
L 2318.869055 245.136296 
L 2319.560249 276.345141 
L 2320.250948 218.302112 
L 2320.941924 208.046568 
L 2321.632668 270.54622 
L 2322.32385 254.394369 
L 2323.014854 200.413673 
L 2323.705739 246.956366 
L 2324.396531 270.735765 
L 2325.087825 212.256168 
L 2325.778694 219.497838 
L 2326.47147 271.496947 
L 2327.160614 234.242749 
L 2327.852274 206.684314 
L 2328.542558 263.635657 
L 2329.233192 251.824903 
L 2329.925616 204.303718 
L 2330.615462 252.611553 
L 2331.306286 260.475648 
L 2331.997794 206.893267 
L 2332.688062 242.25856 
L 2333.379295 263.741349 
L 2334.070375 210.809688 
L 2334.761163 234.971095 
L 2335.452537 264.26779 
L 2336.143087 213.789323 
L 2336.834025 231.889996 
L 2337.525138 263.503018 
L 2338.216585 214.794901 
L 2338.906973 232.652407 
L 2339.597886 261.915709 
L 2340.288879 213.83458 
L 2341.670964 259.22259 
L 2342.361883 211.958424 
L 2343.05275 243.745555 
L 2343.7438 254.379802 
L 2344.435142 210.943888 
L 2345.125744 251.310335 
L 2345.816871 245.806554 
L 2346.507734 213.155664 
L 2347.198418 257.189987 
L 2347.889279 232.079785 
L 2348.581377 221.556851 
L 2349.271519 258.520704 
L 2349.962474 218.468505 
L 2350.653445 237.815096 
L 2351.344418 252.262103 
L 2352.035669 213.578504 
L 2352.726381 252.424667 
L 2353.41742 235.52516 
L 2354.108487 221.943308 
L 2354.799089 256.054146 
L 2355.489926 217.693379 
L 2356.181151 243.132352 
L 2356.87199 244.779638 
L 2357.563078 217.634844 
L 2358.253807 254.658663 
L 2358.944777 221.820061 
L 2359.635977 238.753538 
L 2360.326783 246.033104 
L 2361.017929 218.020592 
L 2361.708783 253.42128 
L 2362.400706 221.477506 
L 2363.090761 241.015852 
L 2363.78179 241.943676 
L 2364.472748 221.573815 
L 2365.163637 252.136386 
L 2365.854351 218.512792 
L 2366.5456 247.260276 
L 2367.236884 231.500182 
L 2367.927692 231.451679 
L 2368.618532 246.486676 
L 2369.309577 219.808017 
L 2370.000525 250.790874 
L 2370.691618 220.385158 
L 2371.382278 245.770094 
L 2372.073354 230.484811 
L 2372.764867 234.113759 
L 2373.455069 242.303735 
L 2374.146297 223.821992 
L 2374.837201 248.312674 
L 2375.529147 220.011444 
L 2376.218891 248.597496 
L 2376.91013 222.407328 
L 2377.601918 244.51373 
L 2378.292074 228.806124 
L 2378.983012 237.352147 
L 2379.673743 236.377504 
L 2380.365015 229.904873 
L 2381.055571 242.619033 
L 2381.747005 224.579102 
L 2382.437899 246.023886 
L 2383.128835 221.987517 
L 2383.819689 247.08084 
L 2384.510763 221.836919 
L 2385.202108 246.264628 
L 2385.89284 223.602234 
L 2386.584142 243.917713 
L 2387.274352 226.674584 
L 2387.966091 240.400705 
L 2388.656439 230.402889 
L 2389.347511 236.359326 
L 2390.03837 234.246747 
L 2390.729394 232.528117 
L 2391.420307 237.799896 
L 2392.111354 229.312324 
L 2392.802243 240.676608 
L 2393.493626 226.844085 
L 2394.184488 242.768309 
L 2394.875214 225.134741 
L 2395.566209 244.088333 
L 2396.258119 224.072468 
L 2396.948158 244.807206 
L 2397.639508 223.561503 
L 2398.330637 245.097317 
L 2399.021459 223.455855 
L 2399.711945 245.015947 
L 2400.402877 223.64823 
L 2401.093932 244.716375 
L 2401.78542 224.032309 
L 2402.475498 244.25321 
L 2403.166695 224.556603 
L 2403.857647 243.681368 
L 2404.548858 225.097535 
L 2405.239696 243.090816 
L 2405.930731 225.638949 
L 2406.621638 242.529044 
L 2407.312667 226.151694 
L 2408.003453 242.005739 
L 2408.694241 226.542925 
L 2409.385529 241.628872 
L 2410.076179 226.797285 
L 2410.767399 241.392037 
L 2411.458259 226.968301 
L 2412.149318 241.267754 
L 2412.840004 227.002797 
L 2413.531261 241.28372 
L 2414.222239 226.937749 
L 2414.914325 241.439899 
L 2415.604076 226.779533 
L 2416.295437 241.640716 
L 2416.986305 226.59414 
L 2417.677384 241.904645 
L 2418.368472 226.392183 
L 2419.058729 242.172988 
L 2419.749945 226.203108 
L 2420.440803 242.425547 
L 2421.131924 226.061279 
L 2421.822519 242.589743 
L 2422.514172 226.03777 
L 2423.204596 242.621717 
L 2423.896238 226.127831 
L 2424.586459 242.465793 
L 2425.277473 226.405747 
L 2425.968576 242.057452 
L 2426.659481 226.901991 
L 2427.350583 241.366992 
L 2428.041506 227.640208 
L 2428.732523 240.403592 
L 2429.424048 228.591574 
L 2430.114569 239.209088 
L 2430.806901 229.752048 
L 2431.496659 237.843457 
L 2432.187476 231.064209 
L 2432.878307 236.324948 
L 2433.569184 232.556361 
L 2434.259877 234.748838 
L 2434.951462 234.143678 
L 2435.642054 233.214209 
L 2436.333172 235.765685 
L 2437.023825 231.833904 
L 2437.7163 237.267561 
L 2438.405952 230.647019 
L 2439.097623 238.577379 
L 2439.788413 229.760525 
L 2440.480501 239.552481 
L 2441.16992 229.237023 
L 2441.860868 240.060741 
L 2442.551844 229.139808 
L 2443.242782 240.032862 
L 2443.934103 229.488126 
L 2444.624761 239.451644 
L 2445.315704 230.285566 
L 2446.006683 238.344077 
L 2446.697346 231.526278 
L 2447.389012 236.800015 
L 2448.079588 233.124689 
L 2448.771081 235.066185 
L 2449.462535 234.913974 
L 2450.153485 233.421881 
L 2450.843301 236.574713 
L 2451.534401 232.170569 
L 2452.225428 237.731119 
L 2452.916872 231.618543 
L 2453.607597 238.024911 
L 2454.298293 231.850085 
L 2454.989042 237.398389 
L 2455.680146 232.877332 
L 2456.37103 236.045277 
L 2457.062179 234.447482 
L 2457.753063 234.498162 
L 2458.444021 235.883815 
L 2459.135209 233.485099 
L 2459.826083 236.380773 
L 2460.516638 233.468305 
L 2461.207909 236.048337 
L 2461.898847 234.010644 
L 2462.589533 235.423571 
L 2463.280759 234.575001 
L 2463.971676 235.013878 
L 2464.662769 234.772046 
L 2465.354852 234.955696 
L 2476.409178 234.881417 
L 2600.782695 234.872343 
L 2750.031344 234.872943 
L 2750.031344 234.872943 
" style="fill:none;stroke:#008000;stroke-linecap:square;stroke-width:3;"/>
   </g>
   <g id="line2d_15">
    <path clip-path="url(#p3faa5ad31b)" d="M 210.663031 267.871604 
L 230.702818 267.904366 
L 231.392433 273.372994 
L 232.083108 305.234818 
L 232.773863 306.9511 
L 248.666659 306.955943 
L 648.043918 306.956086 
L 648.735195 359.290937 
L 649.426171 441.40675 
L 651.498748 636.606591 
L 652.189952 657.982201 
L 652.880676 658.712714 
L 659.790639 658.724465 
L 1063.314106 658.724465 
L 1064.005077 648.32685 
L 1064.696244 613.630718 
L 1065.387139 612.987166 
L 1128.956448 612.985955 
L 1479.275275 612.985955 
L 1479.966643 648.662016 
L 1480.657232 718.581885 
L 1482.039227 838.334614 
L 1482.729824 901.690762 
L 1483.421072 929.176487 
L 1484.11175 935.687149 
L 1485.493815 935.810432 
L 1500.695202 935.787072 
L 1504.150033 935.810147 
L 1539.389258 935.810005 
L 1544.916931 935.805589 
L 1555.972513 935.811785 
L 1569.100906 935.805732 
L 1586.374676 935.807085 
L 1589.829887 935.790633 
L 1593.284579 935.809791 
L 1600.885365 935.800817 
L 1607.794601 935.811002 
L 1812.320476 935.810147 
L 1814.393328 935.811144 
L 1894.577348 935.810859 
L 1895.268089 928.577305 
L 1896.649892 730.36781 
L 1898.723382 432.424223 
L 1899.413945 396.558145 
L 1900.105743 391.25945 
L 1900.795643 391.135383 
L 2081.177066 391.134813 
L 2310.578289 391.134813 
L 2311.268452 414.672904 
L 2311.959407 484.349483 
L 2312.650548 569.319404 
L 2313.342636 630.380528 
L 2314.032245 702.210258 
L 2316.105224 882.732391 
L 2317.486981 932.742519 
L 2318.178132 935.765136 
L 2320.250948 935.798609 
L 2327.160614 935.791701 
L 2331.306286 935.812498 
L 2366.5456 935.810432 
L 2503.356729 935.804806 
L 2512.339334 935.80737 
L 2515.103266 935.794692 
L 2519.939625 935.807227 
L 2522.013306 935.809293 
L 2541.360373 935.804307 
L 2544.814656 935.812284 
L 2565.544183 935.786929 
L 2568.99945 935.800889 
L 2576.598779 935.809862 
L 2580.744599 935.787 
L 2583.508238 935.809364 
L 2587.654901 935.802028 
L 2598.019352 935.810076 
L 2615.984151 935.795476 
L 2622.893506 935.801672 
L 2632.567214 935.809435 
L 2638.095563 935.811572 
L 2650.532614 935.798182 
L 2658.133009 935.810361 
L 2664.3525 935.81264 
L 2721.010827 935.811785 
L 2750.031344 935.809221 
L 2750.031344 935.809221 
" style="fill:none;stroke:#ff0000;stroke-dasharray:9.6,2.4,1.5,2.4;stroke-dashoffset:0;stroke-width:1.5;"/>
   </g>
   <g id="line2d_16">
    <path clip-path="url(#p3faa5ad31b)" d="M 210.663031 267.954982 
L 212.045703 267.864623 
L 230.702818 267.891138 
L 231.392433 268.23088 
L 232.083108 311.092335 
L 232.773863 320.348111 
L 233.465597 281.990316 
L 234.15599 329.680977 
L 234.847271 293.159994 
L 235.538093 300.673179 
L 236.228719 324.940364 
L 236.919983 282.789553 
L 237.610735 326.780215 
L 238.301767 295.609639 
L 238.993128 301.319757 
L 239.683925 322.440729 
L 240.374594 284.871825 
L 241.065768 327.394118 
L 241.756728 290.804263 
L 242.447687 311.177871 
L 243.138418 312.168434 
L 243.829593 291.402609 
L 244.520426 325.710056 
L 245.211346 286.539539 
L 245.902223 323.808927 
L 246.594624 293.972725 
L 247.284389 310.884315 
L 247.97539 309.050268 
L 248.666659 296.56485 
L 249.357235 320.628044 
L 250.04831 289.668796 
L 250.738688 324.197027 
L 251.430082 289.356296 
L 252.121497 322.05065 
L 252.811906 293.157727 
L 253.503015 316.52393 
L 254.19409 299.345613 
L 254.885084 309.934885 
L 255.575909 305.506064 
L 256.268058 304.507025 
L 256.957803 310.143503 
L 257.650532 300.91497 
L 258.33978 313.007137 
L 259.030527 298.98022 
L 259.721539 314.384965 
L 260.413141 298.294059 
L 261.104264 314.667284 
L 261.794779 298.526657 
L 262.485697 314.120115 
L 263.17653 299.475373 
L 263.86773 312.947463 
L 264.55859 300.962165 
L 265.249968 311.452352 
L 265.940017 302.55941 
L 266.63113 309.890559 
L 267.322341 304.082497 
L 268.013357 308.429359 
L 268.704809 305.486978 
L 269.395057 307.114169 
L 270.086015 306.738547 
L 270.777335 305.968999 
L 271.468249 307.808075 
L 272.160968 305.022713 
L 272.850235 308.664689 
L 273.541121 304.299686 
L 274.232069 309.294046 
L 274.923038 303.820202 
L 275.613639 309.678912 
L 276.304964 303.579544 
L 276.996197 309.823093 
L 277.686921 303.562857 
L 278.378416 309.756273 
L 279.068822 303.760103 
L 279.759809 309.489455 
L 280.451008 304.139998 
L 281.141536 309.080774 
L 281.832678 304.647901 
L 282.523529 308.526793 
L 283.214628 305.215717 
L 283.90557 307.923113 
L 284.596548 305.727444 
L 285.287914 307.432671 
L 285.978402 306.250239 
L 286.669339 306.888115 
L 288.742577 306.760396 
L 307.398554 306.712659 
L 648.043918 306.71088 
L 648.735195 348.906252 
L 649.426171 460.922916 
L 650.117347 490.57477 
L 650.808113 591.705233 
L 651.498748 637.829948 
L 652.189952 662.725633 
L 652.880676 653.430497 
L 653.572055 654.910912 
L 654.262623 660.763838 
L 654.95549 648.996237 
L 655.644847 665.963662 
L 656.335757 645.435945 
L 657.026763 669.085036 
L 657.717572 643.667759 
L 658.408693 670.639042 
L 659.099371 643.030825 
L 659.790639 671.161066 
L 660.481483 643.079878 
L 661.172568 671.034046 
L 661.86341 643.584053 
L 662.554707 670.482145 
L 663.245585 644.435524 
L 663.936414 669.522414 
L 664.628515 645.694462 
L 665.318557 668.070182 
L 666.009364 647.548647 
L 666.700323 666.004562 
L 667.391192 650.189233 
L 668.082423 663.218742 
L 668.77319 653.644332 
L 669.464501 659.723479 
L 670.846051 655.755556 
L 671.537374 661.65086 
L 672.227868 651.934492 
L 672.918868 664.809225 
L 673.60995 649.149754 
L 674.301066 666.510032 
L 674.992161 648.062637 
L 675.682817 666.613331 
L 676.374155 648.607506 
L 677.066354 665.227766 
L 677.755747 650.587188 
L 678.446688 662.689544 
L 679.137659 653.532802 
L 679.828503 659.50491 
L 680.519473 656.750479 
L 681.210464 656.302644 
L 681.901894 659.48157 
L 682.592961 653.810933 
L 683.283389 661.274374 
L 683.974686 652.415911 
L 684.665294 661.927083 
L 685.356041 652.22254 
L 686.047246 661.388957 
L 686.739038 653.333713 
L 687.429518 659.81113 
L 688.120209 655.333712 
L 688.810709 657.648397 
L 689.501619 657.491076 
L 690.194086 655.61508 
L 690.885766 659.032774 
L 691.575081 654.467471 
L 692.266312 659.45633 
L 692.956957 654.555277 
L 693.647655 658.808864 
L 694.338908 655.567262 
L 695.029885 657.600484 
L 695.721996 656.718292 
L 696.411758 656.70415 
L 697.102897 657.244401 
L 697.793768 656.570399 
L 698.484644 657.047915 
L 700.557471 656.951206 
L 714.376885 656.896402 
L 908.53805 656.893485 
L 1063.314106 656.893485 
L 1064.005077 656.687531 
L 1064.696244 592.620013 
L 1065.387139 583.566972 
L 1066.078222 647.104157 
L 1066.769093 589.778092 
L 1067.459779 588.621871 
L 1068.150959 645.960459 
L 1068.842306 584.701188 
L 1069.532734 597.703276 
L 1070.225578 642.640787 
L 1070.916491 579.482865 
L 1071.605841 612.354808 
L 1072.297877 634.290944 
L 1072.987755 577.045469 
L 1073.678768 629.364182 
L 1074.369724 617.464674 
L 1075.060962 580.889527 
L 1075.751684 640.160174 
L 1076.443525 595.505618 
L 1077.133287 594.958528 
L 1077.824518 639.226679 
L 1078.515702 582.233474 
L 1079.206637 621.183039 
L 1079.89775 621.003468 
L 1080.588439 583.561729 
L 1081.279415 638.417855 
L 1081.970307 592.682253 
L 1082.661726 604.809324 
L 1083.35233 631.242397 
L 1084.043492 583.168932 
L 1084.734587 633.826914 
L 1085.425124 599.247152 
L 1086.116092 600.685159 
L 1086.807068 631.878679 
L 1087.497987 584.837581 
L 1088.188969 633.089875 
L 1088.880247 597.694371 
L 1089.570925 605.939563 
L 1090.26196 626.512691 
L 1090.952786 587.631074 
L 1091.644248 634.826012 
L 1092.335448 591.2415 
L 1093.026269 619.899695 
L 1093.716718 611.692439 
L 1094.409386 597.277972 
L 1095.100296 630.370628 
L 1095.78959 588.747763 
L 1096.480851 632.507748 
L 1097.171735 593.295395 
L 1097.862574 621.064318 
L 1098.553343 607.4915 
L 1099.244436 604.222954 
L 1099.935707 623.024247 
L 1100.626363 593.866358 
L 1101.31701 630.609225 
L 1102.008289 591.232111 
L 1102.699153 630.503054 
L 1103.390216 594.013986 
L 1104.08119 625.086591 
L 1104.771891 600.202185 
L 1105.46349 616.947066 
L 1106.154125 608.11954 
L 1106.845037 609.247723 
L 1107.535805 615.14629 
L 1108.226913 603.604766 
L 1108.917967 620.074105 
L 1109.608962 600.227706 
L 1110.299886 622.992754 
L 1110.99084 598.571224 
L 1111.68211 624.401505 
L 1112.372629 598.020438 
L 1113.06519 624.797079 
L 1113.754611 598.185991 
L 1114.447248 624.493405 
L 1115.136715 598.877214 
L 1115.827603 623.657161 
L 1116.518798 600.059382 
L 1117.209527 622.3179 
L 1117.900488 601.810798 
L 1118.591433 620.374401 
L 1119.282302 604.308464 
L 1119.97324 617.729273 
L 1120.664376 607.604949 
L 1121.355683 614.384464 
L 1122.047534 611.521474 
L 1122.736958 610.523145 
L 1123.428959 615.555264 
L 1124.119546 606.670388 
L 1124.810189 618.958117 
L 1125.501073 603.663363 
L 1126.19186 620.965166 
L 1126.883071 602.286164 
L 1127.573978 621.34401 
L 1128.264844 602.549999 
L 1128.956448 620.205674 
L 1129.64689 604.277266 
L 1130.337867 617.845937 
L 1131.02896 607.039282 
L 1131.71953 614.799049 
L 1132.410608 610.203841 
L 1133.792986 613.054836 
L 1134.483565 608.944462 
L 1135.174583 614.991082 
L 1135.866232 607.418505 
L 1136.556578 615.743796 
L 1137.247952 607.160255 
L 1137.93824 615.473588 
L 1138.629838 607.780182 
L 1139.321945 614.372632 
L 1140.01228 609.257226 
L 1140.70232 612.667571 
L 1141.393714 611.053249 
L 1142.084259 610.913505 
L 1142.775334 612.494288 
L 1143.465916 609.773968 
L 1144.157928 613.079538 
L 1144.848056 609.632394 
L 1145.539111 612.761731 
L 1146.230542 610.231475 
L 1146.920981 612.044737 
L 1147.611998 610.89376 
L 1148.302934 611.566403 
L 1148.994803 611.150193 
L 1150.376334 611.254971 
L 1163.50401 611.31654 
L 1309.297737 611.320502 
L 1479.275275 611.320502 
L 1479.966643 632.433214 
L 1480.657232 729.098575 
L 1481.348177 765.810033 
L 1482.039227 858.432704 
L 1483.421072 931.70973 
L 1484.11175 934.022925 
L 1484.803363 935.648051 
L 1485.493815 932.852572 
L 1486.184821 936.907899 
L 1486.876441 931.469419 
L 1487.566916 938.203163 
L 1488.257833 930.006034 
L 1488.94884 939.509407 
L 1489.63981 928.539409 
L 1490.330736 940.673163 
L 1491.021424 927.161919 
L 1491.712557 941.72501 
L 1492.403674 925.937652 
L 1493.094575 942.467096 
L 1493.78587 925.057819 
L 1494.476639 942.966975 
L 1495.16746 924.519272 
L 1495.858874 943.128868 
L 1496.549667 924.419092 
L 1497.240123 942.91245 
L 1497.931377 924.785963 
L 1498.622287 942.29205 
L 1499.313245 925.646119 
L 1500.004712 941.332935 
L 1500.695202 926.91358 
L 1501.386269 939.975569 
L 1502.077111 928.572737 
L 1502.768272 938.339205 
L 1503.458953 930.49572 
L 1504.150033 936.425012 
L 1504.84107 932.613006 
L 1505.53198 934.251144 
L 1506.222633 934.740577 
L 1506.913886 932.063449 
L 1507.604867 936.642867 
L 1508.295881 930.049243 
L 1508.986465 938.137134 
L 1509.678144 928.477896 
L 1510.368692 939.049563 
L 1511.059541 927.624784 
L 1511.750614 939.29362 
L 1512.441648 927.608502 
L 1513.1327 938.760126 
L 1513.82363 928.492089 
L 1514.514452 937.546645 
L 1515.205929 930.15808 
L 1515.896377 935.660731 
L 1516.58796 932.306316 
L 1517.969321 934.431578 
L 1518.660208 931.295326 
L 1519.351547 935.980861 
L 1520.042397 930.100468 
L 1520.733194 936.386147 
L 1521.42386 930.243792 
L 1522.11483 935.583397 
L 1522.806079 931.528629 
L 1523.497042 933.978204 
L 1524.188011 933.149363 
L 1524.880103 932.621084 
L 1525.569963 934.058987 
L 1526.260875 932.182651 
L 1526.953541 934.057901 
L 1527.642613 932.523791 
L 1528.334054 933.553607 
L 1529.024786 933.076509 
L 1540.771037 933.169919 
L 1587.756814 933.175684 
L 1818.539198 933.178402 
L 1894.577348 933.177759 
L 1895.268089 932.447804 
L 1895.959729 873.556046 
L 1896.649892 698.913627 
L 1897.340977 609.359157 
L 1898.032584 561.612829 
L 1898.723382 401.677924 
L 1899.413945 323.405757 
L 1900.105743 370.52031 
L 1900.795643 452.203049 
L 1901.486428 396.466069 
L 1902.177824 326.407452 
L 1902.868336 380.461171 
L 1903.559933 449.677482 
L 1904.250795 380.545026 
L 1904.941181 330.1563 
L 1905.633152 402.439881 
L 1906.323588 443.386772 
L 1907.014541 358.522284 
L 1907.705539 340.438189 
L 1908.397948 427.174253 
L 1909.087749 424.88722 
L 1909.778409 340.859741 
L 1910.469588 366.14553 
L 1911.160941 440.742779 
L 1911.851324 384.229588 
L 1912.542649 339.3916 
L 1913.233571 412.611732 
L 1913.924339 428.099134 
L 1914.615225 347.640237 
L 1915.306224 367.647984 
L 1915.996841 436.558791 
L 1916.688568 376.957788 
L 1917.378732 347.001486 
L 1918.070246 422.534218 
L 1918.761239 410.580967 
L 1919.45151 345.187139 
L 1920.142876 397.697354 
L 1920.834253 426.707239 
L 1921.524828 353.406357 
L 1922.215818 375.058183 
L 1922.906364 430.712816 
L 1923.597399 365.156869 
L 1924.29008 363.19279 
L 1924.979661 428.888101 
L 1925.672047 376.085337 
L 1926.361509 358.270125 
L 1927.052424 425.503958 
L 1927.743334 383.393901 
L 1928.435949 357.181116 
L 1929.125487 422.998936 
L 1929.815948 385.658232 
L 1930.507349 358.370769 
L 1931.198392 422.242526 
L 1931.889324 383.010777 
L 1932.580703 361.52933 
L 1933.271225 422.682404 
L 1933.962497 376.511001 
L 1934.653126 367.502952 
L 1935.344374 422.666964 
L 1936.035381 368.435229 
L 1936.726057 378.096764 
L 1937.417084 419.539871 
L 1938.107979 361.705592 
L 1938.799226 394.917237 
L 1939.490195 409.806973 
L 1940.180868 359.746752 
L 1940.871841 411.484756 
L 1942.253376 366.736275 
L 1942.944703 418.476343 
L 1943.635438 369.598761 
L 1944.326894 387.278717 
L 1945.018135 410.296653 
L 1945.708561 362.774135 
L 1946.4387 411.366331 
L 1947.131049 383.593714 
L 1947.822631 375.262726 
L 1948.511233 414.279334 
L 1949.203833 365.332657 
L 1949.893678 405.633128 
L 1951.275605 374.265109 
L 1951.966563 413.049233 
L 1952.657374 366.745364 
L 1953.349223 406.884337 
L 1954.039293 384.168604 
L 1954.730417 380.795397 
L 1955.421387 407.987302 
L 1956.112302 368.078428 
L 1956.803253 411.319013 
L 1957.494229 373.715774 
L 1958.185172 396.864956 
L 1958.876241 392.515953 
L 1959.566932 377.790517 
L 1960.258091 407.640313 
L 1960.949208 370.214429 
L 1961.640624 409.998306 
L 1962.331602 372.865376 
L 1963.022021 402.827689 
L 1963.71445 382.691759 
L 1964.405502 390.322553 
L 1965.094766 394.99004 
L 1965.78583 379.871092 
L 1966.476557 403.57869 
L 1967.167516 374.578475 
L 1967.859008 407.146655 
L 1968.549459 373.205736 
L 1969.240683 407.314712 
L 1969.931411 374.117543 
L 1970.622327 405.709664 
L 1971.313274 376.025773 
L 1972.004986 403.494755 
L 1972.695687 378.102664 
L 1973.386582 401.477128 
L 1974.077433 379.752029 
L 1974.768783 400.206065 
L 1975.459082 380.639441 
L 1976.151392 399.83031 
L 1976.841326 380.720857 
L 1977.532239 400.23414 
L 1978.223265 380.210242 
L 1978.914193 401.07097 
L 1979.605462 379.519834 
L 1980.296366 401.829212 
L 1980.987094 379.089851 
L 1981.678565 402.095013 
L 1982.370679 379.166668 
L 1983.060222 401.704273 
L 1983.750677 379.887477 
L 1984.442037 400.65579 
L 1985.132867 381.201507 
L 1985.823834 399.099873 
L 1986.515326 382.96019 
L 1987.205775 397.183372 
L 1987.896736 384.975644 
L 1988.587417 395.108842 
L 1989.27871 387.052453 
L 1989.969694 393.066364 
L 1990.660764 388.999074 
L 1991.351583 391.233037 
L 1992.042367 390.642462 
L 1992.733458 389.76198 
L 1993.424441 391.852429 
L 1994.116832 388.753125 
L 1994.806381 392.563594 
L 1995.49739 388.257312 
L 1996.188287 392.760031 
L 1996.879205 388.257894 
L 1997.570453 392.498189 
L 1998.26125 388.67758 
L 1998.952007 391.893982 
L 1999.643473 389.337239 
L 2000.334038 391.233866 
L 2001.024961 389.92047 
L 2001.716423 390.669372 
L 2002.40675 390.504429 
L 2012.771306 390.445114 
L 2087.395928 390.435732 
L 2310.578289 390.435745 
L 2311.268452 398.287347 
L 2311.959407 502.585565 
L 2312.650548 570.218784 
L 2313.342636 608.872869 
L 2314.032245 722.204354 
L 2314.723158 737.141011 
L 2316.105224 913.211624 
L 2316.796373 874.12828 
L 2317.486981 909.15004 
L 2318.178132 982.226877 
L 2318.869055 920.021428 
L 2319.560249 880.488526 
L 2320.250948 954.593803 
L 2320.941924 967.948291 
L 2321.632668 887.781687 
L 2322.32385 908.224613 
L 2323.014854 977.946564 
L 2323.705739 917.696678 
L 2324.396531 887.543991 
L 2325.087825 962.458014 
L 2325.778694 953.037139 
L 2326.47147 886.584788 
L 2327.160614 933.993804 
L 2327.852274 969.729284 
L 2328.542558 896.504438 
L 2329.233192 911.493735 
L 2329.925616 972.845421 
L 2330.615462 910.488991 
L 2331.306286 900.506286 
L 2331.997794 969.457399 
L 2332.688062 923.702503 
L 2333.379295 896.372342 
L 2334.070375 964.343225 
L 2334.761163 933.05169 
L 2335.452537 895.70656 
L 2336.143087 960.460459 
L 2336.834025 937.016615 
L 2337.525138 896.673608 
L 2338.216585 959.151601 
L 2338.906973 936.03485 
L 2339.597886 898.682213 
L 2340.288879 960.401287 
L 2341.670964 902.094294 
L 2342.361883 962.844862 
L 2343.05275 921.799948 
L 2343.7438 908.242975 
L 2344.435142 964.166938 
L 2345.125744 912.145928 
L 2345.816871 919.169688 
L 2346.507734 961.283195 
L 2347.198418 904.671444 
L 2347.889279 936.777525 
L 2348.581377 950.3672 
L 2349.271519 902.983889 
L 2349.962474 954.376714 
L 2350.653445 929.398477 
L 2351.344418 910.936919 
L 2352.035669 960.733139 
L 2352.726381 910.727744 
L 2353.41742 932.344816 
L 2354.108487 949.86647 
L 2354.799089 906.114617 
L 2355.489926 955.382871 
L 2356.181151 922.584651 
L 2356.87199 920.482025 
L 2357.563078 955.456524 
L 2358.253807 907.88729 
L 2358.944777 950.029816 
L 2359.635977 928.194443 
L 2360.326783 918.8801 
L 2361.017929 954.9556 
L 2361.708783 909.460717 
L 2362.400706 950.473523 
L 2363.090761 925.294418 
L 2363.78179 924.110466 
L 2364.472748 950.345489 
L 2365.163637 911.096215 
L 2365.854351 954.318176 
L 2366.5456 917.310102 
L 2367.236884 937.523868 
L 2367.927692 937.58154 
L 2368.618532 918.300554 
L 2369.309577 952.635607 
L 2370.000525 912.809322 
L 2370.691618 951.888938 
L 2371.382278 919.213032 
L 2372.073354 938.832217 
L 2372.764867 934.154614 
L 2373.455069 923.649298 
L 2374.146297 947.433978 
L 2374.837201 915.969232 
L 2375.529147 952.372431 
L 2376.218891 915.604906 
L 2376.91013 949.268272 
L 2377.601918 920.818709 
L 2378.292074 940.996941 
L 2378.983012 929.993152 
L 2379.673743 931.249325 
L 2380.365015 939.575506 
L 2381.055571 923.245503 
L 2381.747005 946.454531 
L 2382.437899 918.891155 
L 2383.128835 949.810355 
L 2383.819689 917.54071 
L 2384.510763 950.006306 
L 2385.202108 918.582203 
L 2385.89284 947.720948 
L 2386.584142 921.581004 
L 2387.274352 943.748572 
L 2387.966091 926.083108 
L 2388.656439 938.9375 
L 2389.347511 931.268319 
L 2390.03837 933.988111 
L 2390.729394 936.195521 
L 2391.420307 929.42269 
L 2392.111354 940.339993 
L 2392.802243 925.733154 
L 2393.493626 943.526511 
L 2394.184488 923.054169 
L 2394.875214 945.736162 
L 2395.566209 921.365069 
L 2396.258119 947.110614 
L 2396.948158 920.445588 
L 2397.639508 947.772223 
L 2398.330637 920.074425 
L 2399.021459 947.909276 
L 2399.711945 920.178097 
L 2400.402877 947.66055 
L 2401.093932 920.56072 
L 2401.78542 947.163732 
L 2402.475498 921.152611 
L 2403.166695 946.485603 
L 2403.857647 921.883709 
L 2404.548858 945.786139 
L 2405.239696 922.639032 
L 2405.930731 945.086241 
L 2406.621638 923.357826 
L 2407.312667 944.423578 
L 2408.003453 924.027648 
L 2408.694241 943.918081 
L 2409.385529 924.510174 
L 2410.076179 943.589483 
L 2410.767399 924.813476 
L 2411.458259 943.368556 
L 2412.149318 924.972674 
L 2412.840004 943.32396 
L 2413.531261 924.952259 
L 2414.222239 943.407921 
L 2414.914325 924.752277 
L 2415.604076 943.612219 
L 2416.295437 924.495176 
L 2416.986305 943.851625 
L 2417.677384 924.157324 
L 2418.368472 944.112432 
L 2419.058729 923.813909 
L 2419.749945 944.3566 
L 2420.440803 923.490787 
L 2421.131924 944.539712 
L 2421.822519 923.280849 
L 2422.514172 944.569893 
L 2423.204596 923.240186 
L 2423.896238 944.453282 
L 2424.586459 923.440061 
L 2425.277473 944.09391 
L 2425.968576 923.963125 
L 2426.659481 943.452553 
L 2427.350583 924.847633 
L 2428.041506 942.498925 
L 2428.732523 926.082234 
L 2429.424048 941.270655 
L 2430.114569 927.613836 
L 2430.806901 939.773416 
L 2431.496659 929.366064 
L 2432.187476 938.081759 
L 2432.878307 931.316 
L 2433.569184 936.159695 
L 2434.259877 933.341637 
L 2434.951462 934.116951 
L 2435.642054 935.315667 
L 2436.333172 932.031602 
L 2437.023825 937.092596 
L 2437.7163 930.102561 
L 2438.405952 938.621587 
L 2439.097623 928.421701 
L 2439.788413 939.764192 
L 2440.480501 927.171358 
L 2441.16992 940.439071 
L 2441.860868 926.520126 
L 2442.551844 940.564152 
L 2443.242782 926.556261 
L 2443.934103 940.114531 
L 2444.624761 927.301815 
L 2445.315704 939.085945 
L 2446.006683 928.722814 
L 2446.697346 937.486768 
L 2447.389012 930.705126 
L 2448.079588 935.428402 
L 2448.771081 932.933009 
L 2449.462535 933.126654 
L 2450.153485 935.047756 
L 2450.843301 930.99262 
L 2451.534401 936.658236 
L 2452.225428 929.508104 
L 2452.916872 937.368825 
L 2453.607597 929.131455 
L 2454.298293 937.070188 
L 2454.989042 929.936059 
L 2455.680146 935.747161 
L 2456.37103 931.674143 
L 2457.062179 933.726788 
L 2457.753063 933.662819 
L 2458.444021 931.880517 
L 2459.135209 934.965745 
L 2459.826083 931.242354 
L 2460.516638 934.987055 
L 2461.207909 931.669681 
L 2461.898847 934.289116 
L 2462.589533 932.47265 
L 2463.280759 933.563247 
L 2463.971676 932.999241 
L 2464.662769 933.30996 
L 2465.354852 933.073912 
L 2474.336712 933.16327 
L 2506.121918 933.178351 
L 2666.425173 933.179361 
L 2750.031344 933.180311 
L 2750.031344 933.180311 
" style="fill:none;stroke:#ff0000;stroke-linecap:square;stroke-width:3;"/>
   </g>
   <g id="patch_3">
    <path d="M 83.694615 1021.480385 
L 83.694615 157.9032 
" style="fill:none;stroke:#000000;stroke-linecap:square;stroke-linejoin:miter;stroke-width:0.8;"/>
   </g>
   <g id="patch_4">
    <path d="M 2876.99976 1021.480385 
L 2876.99976 157.9032 
" style="fill:none;stroke:#000000;stroke-linecap:square;stroke-linejoin:miter;stroke-width:0.8;"/>
   </g>
   <g id="patch_5">
    <path d="M 83.694615 1021.480385 
L 2876.99976 1021.480385 
" style="fill:none;stroke:#000000;stroke-linecap:square;stroke-linejoin:miter;stroke-width:0.8;"/>
   </g>
   <g id="patch_6">
    <path d="M 83.694615 157.9032 
L 2876.99976 157.9032 
" style="fill:none;stroke:#000000;stroke-linecap:square;stroke-linejoin:miter;stroke-width:0.8;"/>
   </g>
   <g id="text_15">
    <!-- Biceps (red) and Triceps (green) -->
    <defs>
     <path d="M 19.671875 34.8125 
L 19.671875 8.109375 
L 35.5 8.109375 
Q 43.453125 8.109375 47.28125 11.40625 
Q 51.125 14.703125 51.125 21.484375 
Q 51.125 28.328125 47.28125 31.5625 
Q 43.453125 34.8125 35.5 34.8125 
z
M 19.671875 64.796875 
L 19.671875 42.828125 
L 34.28125 42.828125 
Q 41.5 42.828125 45.03125 45.53125 
Q 48.578125 48.25 48.578125 53.8125 
Q 48.578125 59.328125 45.03125 62.0625 
Q 41.5 64.796875 34.28125 64.796875 
z
M 9.8125 72.90625 
L 35.015625 72.90625 
Q 46.296875 72.90625 52.390625 68.21875 
Q 58.5 63.53125 58.5 54.890625 
Q 58.5 48.1875 55.375 44.234375 
Q 52.25 40.28125 46.1875 39.3125 
Q 53.46875 37.75 57.5 32.78125 
Q 61.53125 27.828125 61.53125 20.40625 
Q 61.53125 10.640625 54.890625 5.3125 
Q 48.25 0 35.984375 0 
L 9.8125 0 
z
" id="DejaVuSans-66"/>
     <path d="M 48.78125 52.59375 
L 48.78125 44.1875 
Q 44.96875 46.296875 41.140625 47.34375 
Q 37.3125 48.390625 33.40625 48.390625 
Q 24.65625 48.390625 19.8125 42.84375 
Q 14.984375 37.3125 14.984375 27.296875 
Q 14.984375 17.28125 19.8125 11.734375 
Q 24.65625 6.203125 33.40625 6.203125 
Q 37.3125 6.203125 41.140625 7.25 
Q 44.96875 8.296875 48.78125 10.40625 
L 48.78125 2.09375 
Q 45.015625 0.34375 40.984375 -0.53125 
Q 36.96875 -1.421875 32.421875 -1.421875 
Q 20.0625 -1.421875 12.78125 6.34375 
Q 5.515625 14.109375 5.515625 27.296875 
Q 5.515625 40.671875 12.859375 48.328125 
Q 20.21875 56 33.015625 56 
Q 37.15625 56 41.109375 55.140625 
Q 45.0625 54.296875 48.78125 52.59375 
z
" id="DejaVuSans-99"/>
     <path d="M 18.109375 8.203125 
L 18.109375 -20.796875 
L 9.078125 -20.796875 
L 9.078125 54.6875 
L 18.109375 54.6875 
L 18.109375 46.390625 
Q 20.953125 51.265625 25.265625 53.625 
Q 29.59375 56 35.59375 56 
Q 45.5625 56 51.78125 48.09375 
Q 58.015625 40.1875 58.015625 27.296875 
Q 58.015625 14.40625 51.78125 6.484375 
Q 45.5625 -1.421875 35.59375 -1.421875 
Q 29.59375 -1.421875 25.265625 0.953125 
Q 20.953125 3.328125 18.109375 8.203125 
z
M 48.6875 27.296875 
Q 48.6875 37.203125 44.609375 42.84375 
Q 40.53125 48.484375 33.40625 48.484375 
Q 26.265625 48.484375 22.1875 42.84375 
Q 18.109375 37.203125 18.109375 27.296875 
Q 18.109375 17.390625 22.1875 11.75 
Q 26.265625 6.109375 33.40625 6.109375 
Q 40.53125 6.109375 44.609375 11.75 
Q 48.6875 17.390625 48.6875 27.296875 
z
" id="DejaVuSans-112"/>
     <path d="M 31 75.875 
Q 24.46875 64.65625 21.28125 53.65625 
Q 18.109375 42.671875 18.109375 31.390625 
Q 18.109375 20.125 21.3125 9.0625 
Q 24.515625 -2 31 -13.1875 
L 23.1875 -13.1875 
Q 15.875 -1.703125 12.234375 9.375 
Q 8.59375 20.453125 8.59375 31.390625 
Q 8.59375 42.28125 12.203125 53.3125 
Q 15.828125 64.359375 23.1875 75.875 
z
" id="DejaVuSans-40"/>
     <path d="M 41.109375 46.296875 
Q 39.59375 47.171875 37.8125 47.578125 
Q 36.03125 48 33.890625 48 
Q 26.265625 48 22.1875 43.046875 
Q 18.109375 38.09375 18.109375 28.8125 
L 18.109375 0 
L 9.078125 0 
L 9.078125 54.6875 
L 18.109375 54.6875 
L 18.109375 46.1875 
Q 20.953125 51.171875 25.484375 53.578125 
Q 30.03125 56 36.53125 56 
Q 37.453125 56 38.578125 55.875 
Q 39.703125 55.765625 41.0625 55.515625 
z
" id="DejaVuSans-114"/>
     <path d="M 45.40625 46.390625 
L 45.40625 75.984375 
L 54.390625 75.984375 
L 54.390625 0 
L 45.40625 0 
L 45.40625 8.203125 
Q 42.578125 3.328125 38.25 0.953125 
Q 33.9375 -1.421875 27.875 -1.421875 
Q 17.96875 -1.421875 11.734375 6.484375 
Q 5.515625 14.40625 5.515625 27.296875 
Q 5.515625 40.1875 11.734375 48.09375 
Q 17.96875 56 27.875 56 
Q 33.9375 56 38.25 53.625 
Q 42.578125 51.265625 45.40625 46.390625 
z
M 14.796875 27.296875 
Q 14.796875 17.390625 18.875 11.75 
Q 22.953125 6.109375 30.078125 6.109375 
Q 37.203125 6.109375 41.296875 11.75 
Q 45.40625 17.390625 45.40625 27.296875 
Q 45.40625 37.203125 41.296875 42.84375 
Q 37.203125 48.484375 30.078125 48.484375 
Q 22.953125 48.484375 18.875 42.84375 
Q 14.796875 37.203125 14.796875 27.296875 
z
" id="DejaVuSans-100"/>
     <path d="M 8.015625 75.875 
L 15.828125 75.875 
Q 23.140625 64.359375 26.78125 53.3125 
Q 30.421875 42.28125 30.421875 31.390625 
Q 30.421875 20.453125 26.78125 9.375 
Q 23.140625 -1.703125 15.828125 -13.1875 
L 8.015625 -13.1875 
Q 14.5 -2 17.703125 9.0625 
Q 20.90625 20.125 20.90625 31.390625 
Q 20.90625 42.671875 17.703125 53.65625 
Q 14.5 64.65625 8.015625 75.875 
z
" id="DejaVuSans-41"/>
     <path d="M 34.28125 27.484375 
Q 23.390625 27.484375 19.1875 25 
Q 14.984375 22.515625 14.984375 16.5 
Q 14.984375 11.71875 18.140625 8.90625 
Q 21.296875 6.109375 26.703125 6.109375 
Q 34.1875 6.109375 38.703125 11.40625 
Q 43.21875 16.703125 43.21875 25.484375 
L 43.21875 27.484375 
z
M 52.203125 31.203125 
L 52.203125 0 
L 43.21875 0 
L 43.21875 8.296875 
Q 40.140625 3.328125 35.546875 0.953125 
Q 30.953125 -1.421875 24.3125 -1.421875 
Q 15.921875 -1.421875 10.953125 3.296875 
Q 6 8.015625 6 15.921875 
Q 6 25.140625 12.171875 29.828125 
Q 18.359375 34.515625 30.609375 34.515625 
L 43.21875 34.515625 
L 43.21875 35.40625 
Q 43.21875 41.609375 39.140625 45 
Q 35.0625 48.390625 27.6875 48.390625 
Q 23 48.390625 18.546875 47.265625 
Q 14.109375 46.140625 10.015625 43.890625 
L 10.015625 52.203125 
Q 14.9375 54.109375 19.578125 55.046875 
Q 24.21875 56 28.609375 56 
Q 40.484375 56 46.34375 49.84375 
Q 52.203125 43.703125 52.203125 31.203125 
z
" id="DejaVuSans-97"/>
    </defs>
    <g transform="translate(1205.159688 150.832262)scale(0.34 -0.34)">
     <use xlink:href="#DejaVuSans-66"/>
     <use x="68.603516" xlink:href="#DejaVuSans-105"/>
     <use x="96.386719" xlink:href="#DejaVuSans-99"/>
     <use x="151.367188" xlink:href="#DejaVuSans-101"/>
     <use x="212.890625" xlink:href="#DejaVuSans-112"/>
     <use x="276.367188" xlink:href="#DejaVuSans-115"/>
     <use x="328.466797" xlink:href="#DejaVuSans-32"/>
     <use x="360.253906" xlink:href="#DejaVuSans-40"/>
     <use x="399.267578" xlink:href="#DejaVuSans-114"/>
     <use x="440.349609" xlink:href="#DejaVuSans-101"/>
     <use x="501.873047" xlink:href="#DejaVuSans-100"/>
     <use x="565.349609" xlink:href="#DejaVuSans-41"/>
     <use x="604.363281" xlink:href="#DejaVuSans-32"/>
     <use x="636.150391" xlink:href="#DejaVuSans-97"/>
     <use x="697.429688" xlink:href="#DejaVuSans-110"/>
     <use x="760.808594" xlink:href="#DejaVuSans-100"/>
     <use x="824.285156" xlink:href="#DejaVuSans-32"/>
     <use x="856.072266" xlink:href="#DejaVuSans-84"/>
     <use x="916.9375" xlink:href="#DejaVuSans-114"/>
     <use x="958.050781" xlink:href="#DejaVuSans-105"/>
     <use x="985.833984" xlink:href="#DejaVuSans-99"/>
     <use x="1040.814453" xlink:href="#DejaVuSans-101"/>
     <use x="1102.337891" xlink:href="#DejaVuSans-112"/>
     <use x="1165.814453" xlink:href="#DejaVuSans-115"/>
     <use x="1217.914062" xlink:href="#DejaVuSans-32"/>
     <use x="1249.701172" xlink:href="#DejaVuSans-40"/>
     <use x="1288.714844" xlink:href="#DejaVuSans-103"/>
     <use x="1352.191406" xlink:href="#DejaVuSans-114"/>
     <use x="1393.273438" xlink:href="#DejaVuSans-101"/>
     <use x="1454.796875" xlink:href="#DejaVuSans-101"/>
     <use x="1516.320312" xlink:href="#DejaVuSans-110"/>
     <use x="1579.699219" xlink:href="#DejaVuSans-41"/>
    </g>
   </g>
  </g>
  <g id="text_16">
   <!-- Setpoints (- -) and Lenghts () - P120000 I0 D0 -->
   <defs>
    <path d="M 53.515625 70.515625 
L 53.515625 60.890625 
Q 47.90625 63.578125 42.921875 64.890625 
Q 37.9375 66.21875 33.296875 66.21875 
Q 25.25 66.21875 20.875 63.09375 
Q 16.5 59.96875 16.5 54.203125 
Q 16.5 49.359375 19.40625 46.890625 
Q 22.3125 44.4375 30.421875 42.921875 
L 36.375 41.703125 
Q 47.40625 39.59375 52.65625 34.296875 
Q 57.90625 29 57.90625 20.125 
Q 57.90625 9.515625 50.796875 4.046875 
Q 43.703125 -1.421875 29.984375 -1.421875 
Q 24.8125 -1.421875 18.96875 -0.25 
Q 13.140625 0.921875 6.890625 3.21875 
L 6.890625 13.375 
Q 12.890625 10.015625 18.65625 8.296875 
Q 24.421875 6.59375 29.984375 6.59375 
Q 38.421875 6.59375 43.015625 9.90625 
Q 47.609375 13.234375 47.609375 19.390625 
Q 47.609375 24.75 44.3125 27.78125 
Q 41.015625 30.8125 33.5 32.328125 
L 27.484375 33.5 
Q 16.453125 35.6875 11.515625 40.375 
Q 6.59375 45.0625 6.59375 53.421875 
Q 6.59375 63.09375 13.40625 68.65625 
Q 20.21875 74.21875 32.171875 74.21875 
Q 37.3125 74.21875 42.625 73.28125 
Q 47.953125 72.359375 53.515625 70.515625 
z
" id="DejaVuSans-83"/>
    <path d="M 30.609375 48.390625 
Q 23.390625 48.390625 19.1875 42.75 
Q 14.984375 37.109375 14.984375 27.296875 
Q 14.984375 17.484375 19.15625 11.84375 
Q 23.34375 6.203125 30.609375 6.203125 
Q 37.796875 6.203125 41.984375 11.859375 
Q 46.1875 17.53125 46.1875 27.296875 
Q 46.1875 37.015625 41.984375 42.703125 
Q 37.796875 48.390625 30.609375 48.390625 
z
M 30.609375 56 
Q 42.328125 56 49.015625 48.375 
Q 55.71875 40.765625 55.71875 27.296875 
Q 55.71875 13.875 49.015625 6.21875 
Q 42.328125 -1.421875 30.609375 -1.421875 
Q 18.84375 -1.421875 12.171875 6.21875 
Q 5.515625 13.875 5.515625 27.296875 
Q 5.515625 40.765625 12.171875 48.375 
Q 18.84375 56 30.609375 56 
z
" id="DejaVuSans-111"/>
    <path d="M 4.890625 31.390625 
L 31.203125 31.390625 
L 31.203125 23.390625 
L 4.890625 23.390625 
z
" id="DejaVuSans-45"/>
    <path d="M 0 30.90625 
L 100 30.90625 
L 100 23.875 
L 0 23.875 
z
" id="DejaVuSans-8213"/>
    <path d="M 19.671875 64.796875 
L 19.671875 37.40625 
L 32.078125 37.40625 
Q 38.96875 37.40625 42.71875 40.96875 
Q 46.484375 44.53125 46.484375 51.125 
Q 46.484375 57.671875 42.71875 61.234375 
Q 38.96875 64.796875 32.078125 64.796875 
z
M 9.8125 72.90625 
L 32.078125 72.90625 
Q 44.34375 72.90625 50.609375 67.359375 
Q 56.890625 61.8125 56.890625 51.125 
Q 56.890625 40.328125 50.609375 34.8125 
Q 44.34375 29.296875 32.078125 29.296875 
L 19.671875 29.296875 
L 19.671875 0 
L 9.8125 0 
z
" id="DejaVuSans-80"/>
    <path d="M 9.8125 72.90625 
L 19.671875 72.90625 
L 19.671875 0 
L 9.8125 0 
z
" id="DejaVuSans-73"/>
    <path d="M 19.671875 64.796875 
L 19.671875 8.109375 
L 31.59375 8.109375 
Q 46.6875 8.109375 53.6875 14.9375 
Q 60.6875 21.78125 60.6875 36.53125 
Q 60.6875 51.171875 53.6875 57.984375 
Q 46.6875 64.796875 31.59375 64.796875 
z
M 9.8125 72.90625 
L 30.078125 72.90625 
Q 51.265625 72.90625 61.171875 64.09375 
Q 71.09375 55.28125 71.09375 36.53125 
Q 71.09375 17.671875 61.125 8.828125 
Q 51.171875 0 30.078125 0 
L 9.8125 0 
z
" id="DejaVuSans-68"/>
   </defs>
   <g transform="translate(1040.059062 28.834927)scale(0.34 -0.34)">
    <use xlink:href="#DejaVuSans-83"/>
    <use x="63.476562" xlink:href="#DejaVuSans-101"/>
    <use x="125" xlink:href="#DejaVuSans-116"/>
    <use x="164.208984" xlink:href="#DejaVuSans-112"/>
    <use x="227.685547" xlink:href="#DejaVuSans-111"/>
    <use x="288.867188" xlink:href="#DejaVuSans-105"/>
    <use x="316.650391" xlink:href="#DejaVuSans-110"/>
    <use x="380.029297" xlink:href="#DejaVuSans-116"/>
    <use x="419.238281" xlink:href="#DejaVuSans-115"/>
    <use x="471.337891" xlink:href="#DejaVuSans-32"/>
    <use x="503.125" xlink:href="#DejaVuSans-40"/>
    <use x="542.138672" xlink:href="#DejaVuSans-45"/>
    <use x="578.222656" xlink:href="#DejaVuSans-45"/>
    <use x="614.306641" xlink:href="#DejaVuSans-41"/>
    <use x="653.320312" xlink:href="#DejaVuSans-32"/>
    <use x="685.107422" xlink:href="#DejaVuSans-97"/>
    <use x="746.386719" xlink:href="#DejaVuSans-110"/>
    <use x="809.765625" xlink:href="#DejaVuSans-100"/>
    <use x="873.242188" xlink:href="#DejaVuSans-32"/>
    <use x="905.029297" xlink:href="#DejaVuSans-76"/>
    <use x="960.726562" xlink:href="#DejaVuSans-101"/>
    <use x="1022.25" xlink:href="#DejaVuSans-110"/>
    <use x="1085.628906" xlink:href="#DejaVuSans-103"/>
    <use x="1149.105469" xlink:href="#DejaVuSans-104"/>
    <use x="1212.484375" xlink:href="#DejaVuSans-116"/>
    <use x="1251.693359" xlink:href="#DejaVuSans-115"/>
    <use x="1303.792969" xlink:href="#DejaVuSans-32"/>
    <use x="1335.580078" xlink:href="#DejaVuSans-40"/>
    <use x="1374.59375" xlink:href="#DejaVuSans-8213"/>
    <use x="1474.59375" xlink:href="#DejaVuSans-41"/>
    <use x="1513.607422" xlink:href="#DejaVuSans-32"/>
    <use x="1545.394531" xlink:href="#DejaVuSans-45"/>
    <use x="1581.478516" xlink:href="#DejaVuSans-32"/>
    <use x="1613.265625" xlink:href="#DejaVuSans-80"/>
    <use x="1673.568359" xlink:href="#DejaVuSans-49"/>
    <use x="1737.191406" xlink:href="#DejaVuSans-50"/>
    <use x="1800.814453" xlink:href="#DejaVuSans-48"/>
    <use x="1864.4375" xlink:href="#DejaVuSans-48"/>
    <use x="1928.060547" xlink:href="#DejaVuSans-48"/>
    <use x="1991.683594" xlink:href="#DejaVuSans-48"/>
    <use x="2055.306641" xlink:href="#DejaVuSans-32"/>
    <use x="2087.09375" xlink:href="#DejaVuSans-73"/>
    <use x="2116.585938" xlink:href="#DejaVuSans-48"/>
    <use x="2180.208984" xlink:href="#DejaVuSans-32"/>
    <use x="2211.996094" xlink:href="#DejaVuSans-68"/>
    <use x="2288.998047" xlink:href="#DejaVuSans-48"/>
   </g>
   <!-- Bagfile elbow_left_D from 10s for 367s - Logging Rate 10 - Simulation Rate 800 - 100.00% real time speed -->
   <defs>
    <path d="M 37.109375 75.984375 
L 37.109375 68.5 
L 28.515625 68.5 
Q 23.6875 68.5 21.796875 66.546875 
Q 19.921875 64.59375 19.921875 59.515625 
L 19.921875 54.6875 
L 34.71875 54.6875 
L 34.71875 47.703125 
L 19.921875 47.703125 
L 19.921875 0 
L 10.890625 0 
L 10.890625 47.703125 
L 2.296875 47.703125 
L 2.296875 54.6875 
L 10.890625 54.6875 
L 10.890625 58.5 
Q 10.890625 67.625 15.140625 71.796875 
Q 19.390625 75.984375 28.609375 75.984375 
z
" id="DejaVuSans-102"/>
    <path d="M 9.421875 75.984375 
L 18.40625 75.984375 
L 18.40625 0 
L 9.421875 0 
z
" id="DejaVuSans-108"/>
    <path d="M 48.6875 27.296875 
Q 48.6875 37.203125 44.609375 42.84375 
Q 40.53125 48.484375 33.40625 48.484375 
Q 26.265625 48.484375 22.1875 42.84375 
Q 18.109375 37.203125 18.109375 27.296875 
Q 18.109375 17.390625 22.1875 11.75 
Q 26.265625 6.109375 33.40625 6.109375 
Q 40.53125 6.109375 44.609375 11.75 
Q 48.6875 17.390625 48.6875 27.296875 
z
M 18.109375 46.390625 
Q 20.953125 51.265625 25.265625 53.625 
Q 29.59375 56 35.59375 56 
Q 45.5625 56 51.78125 48.09375 
Q 58.015625 40.1875 58.015625 27.296875 
Q 58.015625 14.40625 51.78125 6.484375 
Q 45.5625 -1.421875 35.59375 -1.421875 
Q 29.59375 -1.421875 25.265625 0.953125 
Q 20.953125 3.328125 18.109375 8.203125 
L 18.109375 0 
L 9.078125 0 
L 9.078125 75.984375 
L 18.109375 75.984375 
z
" id="DejaVuSans-98"/>
    <path d="M 4.203125 54.6875 
L 13.1875 54.6875 
L 24.421875 12.015625 
L 35.59375 54.6875 
L 46.1875 54.6875 
L 57.421875 12.015625 
L 68.609375 54.6875 
L 77.59375 54.6875 
L 63.28125 0 
L 52.6875 0 
L 40.921875 44.828125 
L 29.109375 0 
L 18.5 0 
z
" id="DejaVuSans-119"/>
    <path d="M 50.984375 -16.609375 
L 50.984375 -23.578125 
L -0.984375 -23.578125 
L -0.984375 -16.609375 
z
" id="DejaVuSans-95"/>
    <path d="M 33.015625 40.375 
Q 26.375 40.375 22.484375 35.828125 
Q 18.609375 31.296875 18.609375 23.390625 
Q 18.609375 15.53125 22.484375 10.953125 
Q 26.375 6.390625 33.015625 6.390625 
Q 39.65625 6.390625 43.53125 10.953125 
Q 47.40625 15.53125 47.40625 23.390625 
Q 47.40625 31.296875 43.53125 35.828125 
Q 39.65625 40.375 33.015625 40.375 
z
M 52.59375 71.296875 
L 52.59375 62.3125 
Q 48.875 64.0625 45.09375 64.984375 
Q 41.3125 65.921875 37.59375 65.921875 
Q 27.828125 65.921875 22.671875 59.328125 
Q 17.53125 52.734375 16.796875 39.40625 
Q 19.671875 43.65625 24.015625 45.921875 
Q 28.375 48.1875 33.59375 48.1875 
Q 44.578125 48.1875 50.953125 41.515625 
Q 57.328125 34.859375 57.328125 23.390625 
Q 57.328125 12.15625 50.6875 5.359375 
Q 44.046875 -1.421875 33.015625 -1.421875 
Q 20.359375 -1.421875 13.671875 8.265625 
Q 6.984375 17.96875 6.984375 36.375 
Q 6.984375 53.65625 15.1875 63.9375 
Q 23.390625 74.21875 37.203125 74.21875 
Q 40.921875 74.21875 44.703125 73.484375 
Q 48.484375 72.75 52.59375 71.296875 
z
" id="DejaVuSans-54"/>
    <path d="M 8.203125 72.90625 
L 55.078125 72.90625 
L 55.078125 68.703125 
L 28.609375 0 
L 18.3125 0 
L 43.21875 64.59375 
L 8.203125 64.59375 
z
" id="DejaVuSans-55"/>
    <path d="M 44.390625 34.1875 
Q 47.5625 33.109375 50.5625 29.59375 
Q 53.5625 26.078125 56.59375 19.921875 
L 66.609375 0 
L 56 0 
L 46.6875 18.703125 
Q 43.0625 26.03125 39.671875 28.421875 
Q 36.28125 30.8125 30.421875 30.8125 
L 19.671875 30.8125 
L 19.671875 0 
L 9.8125 0 
L 9.8125 72.90625 
L 32.078125 72.90625 
Q 44.578125 72.90625 50.734375 67.671875 
Q 56.890625 62.453125 56.890625 51.90625 
Q 56.890625 45.015625 53.6875 40.46875 
Q 50.484375 35.9375 44.390625 34.1875 
z
M 19.671875 64.796875 
L 19.671875 38.921875 
L 32.078125 38.921875 
Q 39.203125 38.921875 42.84375 42.21875 
Q 46.484375 45.515625 46.484375 51.90625 
Q 46.484375 58.296875 42.84375 61.546875 
Q 39.203125 64.796875 32.078125 64.796875 
z
" id="DejaVuSans-82"/>
    <path d="M 8.5 21.578125 
L 8.5 54.6875 
L 17.484375 54.6875 
L 17.484375 21.921875 
Q 17.484375 14.15625 20.5 10.265625 
Q 23.53125 6.390625 29.59375 6.390625 
Q 36.859375 6.390625 41.078125 11.03125 
Q 45.3125 15.671875 45.3125 23.6875 
L 45.3125 54.6875 
L 54.296875 54.6875 
L 54.296875 0 
L 45.3125 0 
L 45.3125 8.40625 
Q 42.046875 3.421875 37.71875 1 
Q 33.40625 -1.421875 27.6875 -1.421875 
Q 18.265625 -1.421875 13.375 4.4375 
Q 8.5 10.296875 8.5 21.578125 
z
M 31.109375 56 
z
" id="DejaVuSans-117"/>
    <path d="M 72.703125 32.078125 
Q 68.453125 32.078125 66.03125 28.46875 
Q 63.625 24.859375 63.625 18.40625 
Q 63.625 12.0625 66.03125 8.421875 
Q 68.453125 4.78125 72.703125 4.78125 
Q 76.859375 4.78125 79.265625 8.421875 
Q 81.6875 12.0625 81.6875 18.40625 
Q 81.6875 24.8125 79.265625 28.4375 
Q 76.859375 32.078125 72.703125 32.078125 
z
M 72.703125 38.28125 
Q 80.421875 38.28125 84.953125 32.90625 
Q 89.5 27.546875 89.5 18.40625 
Q 89.5 9.28125 84.9375 3.921875 
Q 80.375 -1.421875 72.703125 -1.421875 
Q 64.890625 -1.421875 60.34375 3.921875 
Q 55.8125 9.28125 55.8125 18.40625 
Q 55.8125 27.59375 60.375 32.9375 
Q 64.9375 38.28125 72.703125 38.28125 
z
M 22.3125 68.015625 
Q 18.109375 68.015625 15.6875 64.375 
Q 13.28125 60.75 13.28125 54.390625 
Q 13.28125 47.953125 15.671875 44.328125 
Q 18.0625 40.71875 22.3125 40.71875 
Q 26.5625 40.71875 28.96875 44.328125 
Q 31.390625 47.953125 31.390625 54.390625 
Q 31.390625 60.6875 28.953125 64.34375 
Q 26.515625 68.015625 22.3125 68.015625 
z
M 66.40625 74.21875 
L 74.21875 74.21875 
L 28.609375 -1.421875 
L 20.796875 -1.421875 
z
M 22.3125 74.21875 
Q 30.03125 74.21875 34.609375 68.875 
Q 39.203125 63.53125 39.203125 54.390625 
Q 39.203125 45.171875 34.640625 39.84375 
Q 30.078125 34.515625 22.3125 34.515625 
Q 14.546875 34.515625 10.03125 39.859375 
Q 5.515625 45.21875 5.515625 54.390625 
Q 5.515625 63.484375 10.046875 68.84375 
Q 14.59375 74.21875 22.3125 74.21875 
z
" id="DejaVuSans-37"/>
   </defs>
   <g transform="translate(533.222656 66.90749)scale(0.34 -0.34)">
    <use xlink:href="#DejaVuSans-66"/>
    <use x="68.603516" xlink:href="#DejaVuSans-97"/>
    <use x="129.882812" xlink:href="#DejaVuSans-103"/>
    <use x="193.359375" xlink:href="#DejaVuSans-102"/>
    <use x="228.564453" xlink:href="#DejaVuSans-105"/>
    <use x="256.347656" xlink:href="#DejaVuSans-108"/>
    <use x="284.130859" xlink:href="#DejaVuSans-101"/>
    <use x="345.654297" xlink:href="#DejaVuSans-32"/>
    <use x="377.441406" xlink:href="#DejaVuSans-101"/>
    <use x="438.964844" xlink:href="#DejaVuSans-108"/>
    <use x="466.748047" xlink:href="#DejaVuSans-98"/>
    <use x="530.224609" xlink:href="#DejaVuSans-111"/>
    <use x="591.40625" xlink:href="#DejaVuSans-119"/>
    <use x="673.193359" xlink:href="#DejaVuSans-95"/>
    <use x="723.193359" xlink:href="#DejaVuSans-108"/>
    <use x="750.976562" xlink:href="#DejaVuSans-101"/>
    <use x="812.5" xlink:href="#DejaVuSans-102"/>
    <use x="847.689453" xlink:href="#DejaVuSans-116"/>
    <use x="886.898438" xlink:href="#DejaVuSans-95"/>
    <use x="936.898438" xlink:href="#DejaVuSans-68"/>
    <use x="1013.900391" xlink:href="#DejaVuSans-32"/>
    <use x="1045.6875" xlink:href="#DejaVuSans-102"/>
    <use x="1080.892578" xlink:href="#DejaVuSans-114"/>
    <use x="1121.974609" xlink:href="#DejaVuSans-111"/>
    <use x="1183.15625" xlink:href="#DejaVuSans-109"/>
    <use x="1280.568359" xlink:href="#DejaVuSans-32"/>
    <use x="1312.355469" xlink:href="#DejaVuSans-49"/>
    <use x="1375.978516" xlink:href="#DejaVuSans-48"/>
    <use x="1439.601562" xlink:href="#DejaVuSans-115"/>
    <use x="1491.701172" xlink:href="#DejaVuSans-32"/>
    <use x="1523.488281" xlink:href="#DejaVuSans-102"/>
    <use x="1558.693359" xlink:href="#DejaVuSans-111"/>
    <use x="1619.875" xlink:href="#DejaVuSans-114"/>
    <use x="1660.988281" xlink:href="#DejaVuSans-32"/>
    <use x="1692.775391" xlink:href="#DejaVuSans-51"/>
    <use x="1756.398438" xlink:href="#DejaVuSans-54"/>
    <use x="1820.021484" xlink:href="#DejaVuSans-55"/>
    <use x="1883.644531" xlink:href="#DejaVuSans-115"/>
    <use x="1935.744141" xlink:href="#DejaVuSans-32"/>
    <use x="1967.53125" xlink:href="#DejaVuSans-45"/>
    <use x="2003.615234" xlink:href="#DejaVuSans-32"/>
    <use x="2035.402344" xlink:href="#DejaVuSans-76"/>
    <use x="2091.099609" xlink:href="#DejaVuSans-111"/>
    <use x="2152.28125" xlink:href="#DejaVuSans-103"/>
    <use x="2215.757812" xlink:href="#DejaVuSans-103"/>
    <use x="2279.234375" xlink:href="#DejaVuSans-105"/>
    <use x="2307.017578" xlink:href="#DejaVuSans-110"/>
    <use x="2370.396484" xlink:href="#DejaVuSans-103"/>
    <use x="2433.873047" xlink:href="#DejaVuSans-32"/>
    <use x="2465.660156" xlink:href="#DejaVuSans-82"/>
    <use x="2535.111328" xlink:href="#DejaVuSans-97"/>
    <use x="2596.390625" xlink:href="#DejaVuSans-116"/>
    <use x="2635.599609" xlink:href="#DejaVuSans-101"/>
    <use x="2697.123047" xlink:href="#DejaVuSans-32"/>
    <use x="2728.910156" xlink:href="#DejaVuSans-49"/>
    <use x="2792.533203" xlink:href="#DejaVuSans-48"/>
    <use x="2856.15625" xlink:href="#DejaVuSans-32"/>
    <use x="2887.943359" xlink:href="#DejaVuSans-45"/>
    <use x="2924.027344" xlink:href="#DejaVuSans-32"/>
    <use x="2955.814453" xlink:href="#DejaVuSans-83"/>
    <use x="3019.291016" xlink:href="#DejaVuSans-105"/>
    <use x="3047.074219" xlink:href="#DejaVuSans-109"/>
    <use x="3144.486328" xlink:href="#DejaVuSans-117"/>
    <use x="3207.865234" xlink:href="#DejaVuSans-108"/>
    <use x="3235.648438" xlink:href="#DejaVuSans-97"/>
    <use x="3296.927734" xlink:href="#DejaVuSans-116"/>
    <use x="3336.136719" xlink:href="#DejaVuSans-105"/>
    <use x="3363.919922" xlink:href="#DejaVuSans-111"/>
    <use x="3425.101562" xlink:href="#DejaVuSans-110"/>
    <use x="3488.480469" xlink:href="#DejaVuSans-32"/>
    <use x="3520.267578" xlink:href="#DejaVuSans-82"/>
    <use x="3589.71875" xlink:href="#DejaVuSans-97"/>
    <use x="3650.998047" xlink:href="#DejaVuSans-116"/>
    <use x="3690.207031" xlink:href="#DejaVuSans-101"/>
    <use x="3751.730469" xlink:href="#DejaVuSans-32"/>
    <use x="3783.517578" xlink:href="#DejaVuSans-56"/>
    <use x="3847.140625" xlink:href="#DejaVuSans-48"/>
    <use x="3910.763672" xlink:href="#DejaVuSans-48"/>
    <use x="3974.386719" xlink:href="#DejaVuSans-32"/>
    <use x="4006.173828" xlink:href="#DejaVuSans-45"/>
    <use x="4042.257812" xlink:href="#DejaVuSans-32"/>
    <use x="4074.044922" xlink:href="#DejaVuSans-49"/>
    <use x="4137.667969" xlink:href="#DejaVuSans-48"/>
    <use x="4201.291016" xlink:href="#DejaVuSans-48"/>
    <use x="4264.914062" xlink:href="#DejaVuSans-46"/>
    <use x="4296.701172" xlink:href="#DejaVuSans-48"/>
    <use x="4360.324219" xlink:href="#DejaVuSans-48"/>
    <use x="4423.947266" xlink:href="#DejaVuSans-37"/>
    <use x="4518.966797" xlink:href="#DejaVuSans-32"/>
    <use x="4550.753906" xlink:href="#DejaVuSans-114"/>
    <use x="4591.835938" xlink:href="#DejaVuSans-101"/>
    <use x="4653.359375" xlink:href="#DejaVuSans-97"/>
    <use x="4714.638672" xlink:href="#DejaVuSans-108"/>
    <use x="4742.421875" xlink:href="#DejaVuSans-32"/>
    <use x="4774.208984" xlink:href="#DejaVuSans-116"/>
    <use x="4813.417969" xlink:href="#DejaVuSans-105"/>
    <use x="4841.201172" xlink:href="#DejaVuSans-109"/>
    <use x="4938.613281" xlink:href="#DejaVuSans-101"/>
    <use x="5000.136719" xlink:href="#DejaVuSans-32"/>
    <use x="5031.923828" xlink:href="#DejaVuSans-115"/>
    <use x="5084.023438" xlink:href="#DejaVuSans-112"/>
    <use x="5147.5" xlink:href="#DejaVuSans-101"/>
    <use x="5209.023438" xlink:href="#DejaVuSans-101"/>
    <use x="5270.546875" xlink:href="#DejaVuSans-100"/>
   </g>
   <!--  -->
   <g transform="translate(1440 105.925677)scale(0.34 -0.34)"/>
  </g>
 </g>
 <defs>
  <clipPath id="p3faa5ad31b">
   <rect height="863.577185" width="2793.305145" x="83.694615" y="157.9032"/>
  </clipPath>
 </defs>
</svg>
