<?xml version="1.0" encoding="utf-8" standalone="no"?>
<!DOCTYPE svg PUBLIC "-//W3C//DTD SVG 1.1//EN"
  "http://www.w3.org/Graphics/SVG/1.1/DTD/svg11.dtd">
<!-- Created with matplotlib (https://matplotlib.org/) -->
<svg height="3240pt" version="1.1" viewBox="0 0 2880 3240" width="2880pt" xmlns="http://www.w3.org/2000/svg" xmlns:xlink="http://www.w3.org/1999/xlink">
 <defs>
  <style type="text/css">
*{stroke-linecap:butt;stroke-linejoin:round;}
  </style>
 </defs>
 <g id="figure_1">
  <g id="patch_1">
   <path d="M 0 3240 
L 2880 3240 
L 2880 0 
L 0 0 
z
" style="fill:#ffffff;"/>
  </g>
  <g id="axes_1">
   <g id="patch_2">
    <path d="M 96.419615 1088.411942 
L 2876.99976 1088.411942 
L 2876.99976 157.9032 
L 96.419615 157.9032 
z
" style="fill:#ffffff;"/>
   </g>
   <g id="matplotlib.axis_1">
    <g id="xtick_1">
     <g id="line2d_1">
      <defs>
       <path d="M 0 0 
L 0 3.5 
" id="md3cf25fdfb" style="stroke:#000000;stroke-width:0.8;"/>
      </defs>
      <g>
       <use style="stroke:#000000;stroke-width:0.8;" x="222.809622" xlink:href="#md3cf25fdfb" y="1088.411942"/>
      </g>
     </g>
     <g id="text_1">
      <!-- 35 -->
      <defs>
       <path d="M 40.578125 39.3125 
Q 47.65625 37.796875 51.625 33 
Q 55.609375 28.21875 55.609375 21.1875 
Q 55.609375 10.40625 48.1875 4.484375 
Q 40.765625 -1.421875 27.09375 -1.421875 
Q 22.515625 -1.421875 17.65625 -0.515625 
Q 12.796875 0.390625 7.625 2.203125 
L 7.625 11.71875 
Q 11.71875 9.328125 16.59375 8.109375 
Q 21.484375 6.890625 26.8125 6.890625 
Q 36.078125 6.890625 40.9375 10.546875 
Q 45.796875 14.203125 45.796875 21.1875 
Q 45.796875 27.640625 41.28125 31.265625 
Q 36.765625 34.90625 28.71875 34.90625 
L 20.21875 34.90625 
L 20.21875 43.015625 
L 29.109375 43.015625 
Q 36.375 43.015625 40.234375 45.921875 
Q 44.09375 48.828125 44.09375 54.296875 
Q 44.09375 59.90625 40.109375 62.90625 
Q 36.140625 65.921875 28.71875 65.921875 
Q 24.65625 65.921875 20.015625 65.03125 
Q 15.375 64.15625 9.8125 62.3125 
L 9.8125 71.09375 
Q 15.4375 72.65625 20.34375 73.4375 
Q 25.25 74.21875 29.59375 74.21875 
Q 40.828125 74.21875 47.359375 69.109375 
Q 53.90625 64.015625 53.90625 55.328125 
Q 53.90625 49.265625 50.4375 45.09375 
Q 46.96875 40.921875 40.578125 39.3125 
z
" id="DejaVuSans-51"/>
       <path d="M 10.796875 72.90625 
L 49.515625 72.90625 
L 49.515625 64.59375 
L 19.828125 64.59375 
L 19.828125 46.734375 
Q 21.96875 47.46875 24.109375 47.828125 
Q 26.265625 48.1875 28.421875 48.1875 
Q 40.625 48.1875 47.75 41.5 
Q 54.890625 34.8125 54.890625 23.390625 
Q 54.890625 11.625 47.5625 5.09375 
Q 40.234375 -1.421875 26.90625 -1.421875 
Q 22.3125 -1.421875 17.546875 -0.640625 
Q 12.796875 0.140625 7.71875 1.703125 
L 7.71875 11.625 
Q 12.109375 9.234375 16.796875 8.0625 
Q 21.484375 6.890625 26.703125 6.890625 
Q 35.15625 6.890625 40.078125 11.328125 
Q 45.015625 15.765625 45.015625 23.390625 
Q 45.015625 31 40.078125 35.4375 
Q 35.15625 39.890625 26.703125 39.890625 
Q 22.75 39.890625 18.8125 39.015625 
Q 14.890625 38.140625 10.796875 36.28125 
z
" id="DejaVuSans-53"/>
      </defs>
      <g transform="translate(210.084622 1110.608817)scale(0.2 -0.2)">
       <use xlink:href="#DejaVuSans-51"/>
       <use x="63.623047" xlink:href="#DejaVuSans-53"/>
      </g>
     </g>
    </g>
    <g id="xtick_2">
     <g id="line2d_2">
      <g>
       <use style="stroke:#000000;stroke-width:0.8;" x="733.068409" xlink:href="#md3cf25fdfb" y="1088.411942"/>
      </g>
     </g>
     <g id="text_2">
      <!-- 36 -->
      <defs>
       <path d="M 33.015625 40.375 
Q 26.375 40.375 22.484375 35.828125 
Q 18.609375 31.296875 18.609375 23.390625 
Q 18.609375 15.53125 22.484375 10.953125 
Q 26.375 6.390625 33.015625 6.390625 
Q 39.65625 6.390625 43.53125 10.953125 
Q 47.40625 15.53125 47.40625 23.390625 
Q 47.40625 31.296875 43.53125 35.828125 
Q 39.65625 40.375 33.015625 40.375 
z
M 52.59375 71.296875 
L 52.59375 62.3125 
Q 48.875 64.0625 45.09375 64.984375 
Q 41.3125 65.921875 37.59375 65.921875 
Q 27.828125 65.921875 22.671875 59.328125 
Q 17.53125 52.734375 16.796875 39.40625 
Q 19.671875 43.65625 24.015625 45.921875 
Q 28.375 48.1875 33.59375 48.1875 
Q 44.578125 48.1875 50.953125 41.515625 
Q 57.328125 34.859375 57.328125 23.390625 
Q 57.328125 12.15625 50.6875 5.359375 
Q 44.046875 -1.421875 33.015625 -1.421875 
Q 20.359375 -1.421875 13.671875 8.265625 
Q 6.984375 17.96875 6.984375 36.375 
Q 6.984375 53.65625 15.1875 63.9375 
Q 23.390625 74.21875 37.203125 74.21875 
Q 40.921875 74.21875 44.703125 73.484375 
Q 48.484375 72.75 52.59375 71.296875 
z
" id="DejaVuSans-54"/>
      </defs>
      <g transform="translate(720.343409 1110.608817)scale(0.2 -0.2)">
       <use xlink:href="#DejaVuSans-51"/>
       <use x="63.623047" xlink:href="#DejaVuSans-54"/>
      </g>
     </g>
    </g>
    <g id="xtick_3">
     <g id="line2d_3">
      <g>
       <use style="stroke:#000000;stroke-width:0.8;" x="1243.327196" xlink:href="#md3cf25fdfb" y="1088.411942"/>
      </g>
     </g>
     <g id="text_3">
      <!-- 37 -->
      <defs>
       <path d="M 8.203125 72.90625 
L 55.078125 72.90625 
L 55.078125 68.703125 
L 28.609375 0 
L 18.3125 0 
L 43.21875 64.59375 
L 8.203125 64.59375 
z
" id="DejaVuSans-55"/>
      </defs>
      <g transform="translate(1230.602196 1110.608817)scale(0.2 -0.2)">
       <use xlink:href="#DejaVuSans-51"/>
       <use x="63.623047" xlink:href="#DejaVuSans-55"/>
      </g>
     </g>
    </g>
    <g id="xtick_4">
     <g id="line2d_4">
      <g>
       <use style="stroke:#000000;stroke-width:0.8;" x="1753.585983" xlink:href="#md3cf25fdfb" y="1088.411942"/>
      </g>
     </g>
     <g id="text_4">
      <!-- 38 -->
      <defs>
       <path d="M 31.78125 34.625 
Q 24.75 34.625 20.71875 30.859375 
Q 16.703125 27.09375 16.703125 20.515625 
Q 16.703125 13.921875 20.71875 10.15625 
Q 24.75 6.390625 31.78125 6.390625 
Q 38.8125 6.390625 42.859375 10.171875 
Q 46.921875 13.96875 46.921875 20.515625 
Q 46.921875 27.09375 42.890625 30.859375 
Q 38.875 34.625 31.78125 34.625 
z
M 21.921875 38.8125 
Q 15.578125 40.375 12.03125 44.71875 
Q 8.5 49.078125 8.5 55.328125 
Q 8.5 64.0625 14.71875 69.140625 
Q 20.953125 74.21875 31.78125 74.21875 
Q 42.671875 74.21875 48.875 69.140625 
Q 55.078125 64.0625 55.078125 55.328125 
Q 55.078125 49.078125 51.53125 44.71875 
Q 48 40.375 41.703125 38.8125 
Q 48.828125 37.15625 52.796875 32.3125 
Q 56.78125 27.484375 56.78125 20.515625 
Q 56.78125 9.90625 50.3125 4.234375 
Q 43.84375 -1.421875 31.78125 -1.421875 
Q 19.734375 -1.421875 13.25 4.234375 
Q 6.78125 9.90625 6.78125 20.515625 
Q 6.78125 27.484375 10.78125 32.3125 
Q 14.796875 37.15625 21.921875 38.8125 
z
M 18.3125 54.390625 
Q 18.3125 48.734375 21.84375 45.5625 
Q 25.390625 42.390625 31.78125 42.390625 
Q 38.140625 42.390625 41.71875 45.5625 
Q 45.3125 48.734375 45.3125 54.390625 
Q 45.3125 60.0625 41.71875 63.234375 
Q 38.140625 66.40625 31.78125 66.40625 
Q 25.390625 66.40625 21.84375 63.234375 
Q 18.3125 60.0625 18.3125 54.390625 
z
" id="DejaVuSans-56"/>
      </defs>
      <g transform="translate(1740.860983 1110.608817)scale(0.2 -0.2)">
       <use xlink:href="#DejaVuSans-51"/>
       <use x="63.623047" xlink:href="#DejaVuSans-56"/>
      </g>
     </g>
    </g>
    <g id="xtick_5">
     <g id="line2d_5">
      <g>
       <use style="stroke:#000000;stroke-width:0.8;" x="2263.84477" xlink:href="#md3cf25fdfb" y="1088.411942"/>
      </g>
     </g>
     <g id="text_5">
      <!-- 39 -->
      <defs>
       <path d="M 10.984375 1.515625 
L 10.984375 10.5 
Q 14.703125 8.734375 18.5 7.8125 
Q 22.3125 6.890625 25.984375 6.890625 
Q 35.75 6.890625 40.890625 13.453125 
Q 46.046875 20.015625 46.78125 33.40625 
Q 43.953125 29.203125 39.59375 26.953125 
Q 35.25 24.703125 29.984375 24.703125 
Q 19.046875 24.703125 12.671875 31.3125 
Q 6.296875 37.9375 6.296875 49.421875 
Q 6.296875 60.640625 12.9375 67.421875 
Q 19.578125 74.21875 30.609375 74.21875 
Q 43.265625 74.21875 49.921875 64.515625 
Q 56.59375 54.828125 56.59375 36.375 
Q 56.59375 19.140625 48.40625 8.859375 
Q 40.234375 -1.421875 26.421875 -1.421875 
Q 22.703125 -1.421875 18.890625 -0.6875 
Q 15.09375 0.046875 10.984375 1.515625 
z
M 30.609375 32.421875 
Q 37.25 32.421875 41.125 36.953125 
Q 45.015625 41.5 45.015625 49.421875 
Q 45.015625 57.28125 41.125 61.84375 
Q 37.25 66.40625 30.609375 66.40625 
Q 23.96875 66.40625 20.09375 61.84375 
Q 16.21875 57.28125 16.21875 49.421875 
Q 16.21875 41.5 20.09375 36.953125 
Q 23.96875 32.421875 30.609375 32.421875 
z
" id="DejaVuSans-57"/>
      </defs>
      <g transform="translate(2251.11977 1110.608817)scale(0.2 -0.2)">
       <use xlink:href="#DejaVuSans-51"/>
       <use x="63.623047" xlink:href="#DejaVuSans-57"/>
      </g>
     </g>
    </g>
    <g id="xtick_6">
     <g id="line2d_6">
      <g>
       <use style="stroke:#000000;stroke-width:0.8;" x="2774.103557" xlink:href="#md3cf25fdfb" y="1088.411942"/>
      </g>
     </g>
     <g id="text_6">
      <!-- 40 -->
      <defs>
       <path d="M 37.796875 64.3125 
L 12.890625 25.390625 
L 37.796875 25.390625 
z
M 35.203125 72.90625 
L 47.609375 72.90625 
L 47.609375 25.390625 
L 58.015625 25.390625 
L 58.015625 17.1875 
L 47.609375 17.1875 
L 47.609375 0 
L 37.796875 0 
L 37.796875 17.1875 
L 4.890625 17.1875 
L 4.890625 26.703125 
z
" id="DejaVuSans-52"/>
       <path d="M 31.78125 66.40625 
Q 24.171875 66.40625 20.328125 58.90625 
Q 16.5 51.421875 16.5 36.375 
Q 16.5 21.390625 20.328125 13.890625 
Q 24.171875 6.390625 31.78125 6.390625 
Q 39.453125 6.390625 43.28125 13.890625 
Q 47.125 21.390625 47.125 36.375 
Q 47.125 51.421875 43.28125 58.90625 
Q 39.453125 66.40625 31.78125 66.40625 
z
M 31.78125 74.21875 
Q 44.046875 74.21875 50.515625 64.515625 
Q 56.984375 54.828125 56.984375 36.375 
Q 56.984375 17.96875 50.515625 8.265625 
Q 44.046875 -1.421875 31.78125 -1.421875 
Q 19.53125 -1.421875 13.0625 8.265625 
Q 6.59375 17.96875 6.59375 36.375 
Q 6.59375 54.828125 13.0625 64.515625 
Q 19.53125 74.21875 31.78125 74.21875 
z
" id="DejaVuSans-48"/>
      </defs>
      <g transform="translate(2761.378557 1110.608817)scale(0.2 -0.2)">
       <use xlink:href="#DejaVuSans-52"/>
       <use x="63.623047" xlink:href="#DejaVuSans-48"/>
      </g>
     </g>
    </g>
    <g id="text_7">
     <!-- Time [s] -->
     <defs>
      <path d="M -0.296875 72.90625 
L 61.375 72.90625 
L 61.375 64.59375 
L 35.5 64.59375 
L 35.5 0 
L 25.59375 0 
L 25.59375 64.59375 
L -0.296875 64.59375 
z
" id="DejaVuSans-84"/>
      <path d="M 9.421875 54.6875 
L 18.40625 54.6875 
L 18.40625 0 
L 9.421875 0 
z
M 9.421875 75.984375 
L 18.40625 75.984375 
L 18.40625 64.59375 
L 9.421875 64.59375 
z
" id="DejaVuSans-105"/>
      <path d="M 52 44.1875 
Q 55.375 50.25 60.0625 53.125 
Q 64.75 56 71.09375 56 
Q 79.640625 56 84.28125 50.015625 
Q 88.921875 44.046875 88.921875 33.015625 
L 88.921875 0 
L 79.890625 0 
L 79.890625 32.71875 
Q 79.890625 40.578125 77.09375 44.375 
Q 74.3125 48.1875 68.609375 48.1875 
Q 61.625 48.1875 57.5625 43.546875 
Q 53.515625 38.921875 53.515625 30.90625 
L 53.515625 0 
L 44.484375 0 
L 44.484375 32.71875 
Q 44.484375 40.625 41.703125 44.40625 
Q 38.921875 48.1875 33.109375 48.1875 
Q 26.21875 48.1875 22.15625 43.53125 
Q 18.109375 38.875 18.109375 30.90625 
L 18.109375 0 
L 9.078125 0 
L 9.078125 54.6875 
L 18.109375 54.6875 
L 18.109375 46.1875 
Q 21.1875 51.21875 25.484375 53.609375 
Q 29.78125 56 35.6875 56 
Q 41.65625 56 45.828125 52.96875 
Q 50 49.953125 52 44.1875 
z
" id="DejaVuSans-109"/>
      <path d="M 56.203125 29.59375 
L 56.203125 25.203125 
L 14.890625 25.203125 
Q 15.484375 15.921875 20.484375 11.0625 
Q 25.484375 6.203125 34.421875 6.203125 
Q 39.59375 6.203125 44.453125 7.46875 
Q 49.3125 8.734375 54.109375 11.28125 
L 54.109375 2.78125 
Q 49.265625 0.734375 44.1875 -0.34375 
Q 39.109375 -1.421875 33.890625 -1.421875 
Q 20.796875 -1.421875 13.15625 6.1875 
Q 5.515625 13.8125 5.515625 26.8125 
Q 5.515625 40.234375 12.765625 48.109375 
Q 20.015625 56 32.328125 56 
Q 43.359375 56 49.78125 48.890625 
Q 56.203125 41.796875 56.203125 29.59375 
z
M 47.21875 32.234375 
Q 47.125 39.59375 43.09375 43.984375 
Q 39.0625 48.390625 32.421875 48.390625 
Q 24.90625 48.390625 20.390625 44.140625 
Q 15.875 39.890625 15.1875 32.171875 
z
" id="DejaVuSans-101"/>
      <path id="DejaVuSans-32"/>
      <path d="M 8.59375 75.984375 
L 29.296875 75.984375 
L 29.296875 69 
L 17.578125 69 
L 17.578125 -6.203125 
L 29.296875 -6.203125 
L 29.296875 -13.1875 
L 8.59375 -13.1875 
z
" id="DejaVuSans-91"/>
      <path d="M 44.28125 53.078125 
L 44.28125 44.578125 
Q 40.484375 46.53125 36.375 47.5 
Q 32.28125 48.484375 27.875 48.484375 
Q 21.1875 48.484375 17.84375 46.4375 
Q 14.5 44.390625 14.5 40.28125 
Q 14.5 37.15625 16.890625 35.375 
Q 19.28125 33.59375 26.515625 31.984375 
L 29.59375 31.296875 
Q 39.15625 29.25 43.1875 25.515625 
Q 47.21875 21.78125 47.21875 15.09375 
Q 47.21875 7.46875 41.1875 3.015625 
Q 35.15625 -1.421875 24.609375 -1.421875 
Q 20.21875 -1.421875 15.453125 -0.5625 
Q 10.6875 0.296875 5.421875 2 
L 5.421875 11.28125 
Q 10.40625 8.6875 15.234375 7.390625 
Q 20.0625 6.109375 24.8125 6.109375 
Q 31.15625 6.109375 34.5625 8.28125 
Q 37.984375 10.453125 37.984375 14.40625 
Q 37.984375 18.0625 35.515625 20.015625 
Q 33.0625 21.96875 24.703125 23.78125 
L 21.578125 24.515625 
Q 13.234375 26.265625 9.515625 29.90625 
Q 5.8125 33.546875 5.8125 39.890625 
Q 5.8125 47.609375 11.28125 51.796875 
Q 16.75 56 26.8125 56 
Q 31.78125 56 36.171875 55.265625 
Q 40.578125 54.546875 44.28125 53.078125 
z
" id="DejaVuSans-115"/>
      <path d="M 30.421875 75.984375 
L 30.421875 -13.1875 
L 9.71875 -13.1875 
L 9.71875 -6.203125 
L 21.390625 -6.203125 
L 21.390625 69 
L 9.71875 69 
L 9.71875 75.984375 
z
" id="DejaVuSans-93"/>
     </defs>
     <g transform="translate(1433.454375 1138.524129)scale(0.26 -0.26)">
      <use xlink:href="#DejaVuSans-84"/>
      <use x="61.037109" xlink:href="#DejaVuSans-105"/>
      <use x="88.820312" xlink:href="#DejaVuSans-109"/>
      <use x="186.232422" xlink:href="#DejaVuSans-101"/>
      <use x="247.755859" xlink:href="#DejaVuSans-32"/>
      <use x="279.542969" xlink:href="#DejaVuSans-91"/>
      <use x="318.556641" xlink:href="#DejaVuSans-115"/>
      <use x="370.65625" xlink:href="#DejaVuSans-93"/>
     </g>
    </g>
   </g>
   <g id="matplotlib.axis_2">
    <g id="ytick_1">
     <g id="line2d_7">
      <defs>
       <path d="M 0 0 
L -3.5 0 
" id="m22b0310285" style="stroke:#000000;stroke-width:0.8;"/>
      </defs>
      <g>
       <use style="stroke:#000000;stroke-width:0.8;" x="96.419615" xlink:href="#m22b0310285" y="1012.907882"/>
      </g>
     </g>
     <g id="text_8">
      <!-- 0.40 -->
      <defs>
       <path d="M 10.6875 12.40625 
L 21 12.40625 
L 21 0 
L 10.6875 0 
z
" id="DejaVuSans-46"/>
      </defs>
      <g transform="translate(44.888365 1020.50632)scale(0.2 -0.2)">
       <use xlink:href="#DejaVuSans-48"/>
       <use x="63.623047" xlink:href="#DejaVuSans-46"/>
       <use x="95.410156" xlink:href="#DejaVuSans-52"/>
       <use x="159.033203" xlink:href="#DejaVuSans-48"/>
      </g>
     </g>
    </g>
    <g id="ytick_2">
     <g id="line2d_8">
      <g>
       <use style="stroke:#000000;stroke-width:0.8;" x="96.419615" xlink:href="#m22b0310285" y="900.898832"/>
      </g>
     </g>
     <g id="text_9">
      <!-- 0.41 -->
      <defs>
       <path d="M 12.40625 8.296875 
L 28.515625 8.296875 
L 28.515625 63.921875 
L 10.984375 60.40625 
L 10.984375 69.390625 
L 28.421875 72.90625 
L 38.28125 72.90625 
L 38.28125 8.296875 
L 54.390625 8.296875 
L 54.390625 0 
L 12.40625 0 
z
" id="DejaVuSans-49"/>
      </defs>
      <g transform="translate(44.888365 908.49727)scale(0.2 -0.2)">
       <use xlink:href="#DejaVuSans-48"/>
       <use x="63.623047" xlink:href="#DejaVuSans-46"/>
       <use x="95.410156" xlink:href="#DejaVuSans-52"/>
       <use x="159.033203" xlink:href="#DejaVuSans-49"/>
      </g>
     </g>
    </g>
    <g id="ytick_3">
     <g id="line2d_9">
      <g>
       <use style="stroke:#000000;stroke-width:0.8;" x="96.419615" xlink:href="#m22b0310285" y="788.889782"/>
      </g>
     </g>
     <g id="text_10">
      <!-- 0.42 -->
      <defs>
       <path d="M 19.1875 8.296875 
L 53.609375 8.296875 
L 53.609375 0 
L 7.328125 0 
L 7.328125 8.296875 
Q 12.9375 14.109375 22.625 23.890625 
Q 32.328125 33.6875 34.8125 36.53125 
Q 39.546875 41.84375 41.421875 45.53125 
Q 43.3125 49.21875 43.3125 52.78125 
Q 43.3125 58.59375 39.234375 62.25 
Q 35.15625 65.921875 28.609375 65.921875 
Q 23.96875 65.921875 18.8125 64.3125 
Q 13.671875 62.703125 7.8125 59.421875 
L 7.8125 69.390625 
Q 13.765625 71.78125 18.9375 73 
Q 24.125 74.21875 28.421875 74.21875 
Q 39.75 74.21875 46.484375 68.546875 
Q 53.21875 62.890625 53.21875 53.421875 
Q 53.21875 48.921875 51.53125 44.890625 
Q 49.859375 40.875 45.40625 35.40625 
Q 44.1875 33.984375 37.640625 27.21875 
Q 31.109375 20.453125 19.1875 8.296875 
z
" id="DejaVuSans-50"/>
      </defs>
      <g transform="translate(44.888365 796.48822)scale(0.2 -0.2)">
       <use xlink:href="#DejaVuSans-48"/>
       <use x="63.623047" xlink:href="#DejaVuSans-46"/>
       <use x="95.410156" xlink:href="#DejaVuSans-52"/>
       <use x="159.033203" xlink:href="#DejaVuSans-50"/>
      </g>
     </g>
    </g>
    <g id="ytick_4">
     <g id="line2d_10">
      <g>
       <use style="stroke:#000000;stroke-width:0.8;" x="96.419615" xlink:href="#m22b0310285" y="676.880732"/>
      </g>
     </g>
     <g id="text_11">
      <!-- 0.43 -->
      <g transform="translate(44.888365 684.47917)scale(0.2 -0.2)">
       <use xlink:href="#DejaVuSans-48"/>
       <use x="63.623047" xlink:href="#DejaVuSans-46"/>
       <use x="95.410156" xlink:href="#DejaVuSans-52"/>
       <use x="159.033203" xlink:href="#DejaVuSans-51"/>
      </g>
     </g>
    </g>
    <g id="ytick_5">
     <g id="line2d_11">
      <g>
       <use style="stroke:#000000;stroke-width:0.8;" x="96.419615" xlink:href="#m22b0310285" y="564.871682"/>
      </g>
     </g>
     <g id="text_12">
      <!-- 0.44 -->
      <g transform="translate(44.888365 572.47012)scale(0.2 -0.2)">
       <use xlink:href="#DejaVuSans-48"/>
       <use x="63.623047" xlink:href="#DejaVuSans-46"/>
       <use x="95.410156" xlink:href="#DejaVuSans-52"/>
       <use x="159.033203" xlink:href="#DejaVuSans-52"/>
      </g>
     </g>
    </g>
    <g id="ytick_6">
     <g id="line2d_12">
      <g>
       <use style="stroke:#000000;stroke-width:0.8;" x="96.419615" xlink:href="#m22b0310285" y="452.862632"/>
      </g>
     </g>
     <g id="text_13">
      <!-- 0.45 -->
      <g transform="translate(44.888365 460.46107)scale(0.2 -0.2)">
       <use xlink:href="#DejaVuSans-48"/>
       <use x="63.623047" xlink:href="#DejaVuSans-46"/>
       <use x="95.410156" xlink:href="#DejaVuSans-52"/>
       <use x="159.033203" xlink:href="#DejaVuSans-53"/>
      </g>
     </g>
    </g>
    <g id="ytick_7">
     <g id="line2d_13">
      <g>
       <use style="stroke:#000000;stroke-width:0.8;" x="96.419615" xlink:href="#m22b0310285" y="340.853582"/>
      </g>
     </g>
     <g id="text_14">
      <!-- 0.46 -->
      <g transform="translate(44.888365 348.45202)scale(0.2 -0.2)">
       <use xlink:href="#DejaVuSans-48"/>
       <use x="63.623047" xlink:href="#DejaVuSans-46"/>
       <use x="95.410156" xlink:href="#DejaVuSans-52"/>
       <use x="159.033203" xlink:href="#DejaVuSans-54"/>
      </g>
     </g>
    </g>
    <g id="ytick_8">
     <g id="line2d_14">
      <g>
       <use style="stroke:#000000;stroke-width:0.8;" x="96.419615" xlink:href="#m22b0310285" y="228.844532"/>
      </g>
     </g>
     <g id="text_15">
      <!-- 0.47 -->
      <g transform="translate(44.888365 236.442969)scale(0.2 -0.2)">
       <use xlink:href="#DejaVuSans-48"/>
       <use x="63.623047" xlink:href="#DejaVuSans-46"/>
       <use x="95.410156" xlink:href="#DejaVuSans-52"/>
       <use x="159.033203" xlink:href="#DejaVuSans-55"/>
      </g>
     </g>
    </g>
    <g id="text_16">
     <!-- Length [m] -->
     <defs>
      <path d="M 9.8125 72.90625 
L 19.671875 72.90625 
L 19.671875 8.296875 
L 55.171875 8.296875 
L 55.171875 0 
L 9.8125 0 
z
" id="DejaVuSans-76"/>
      <path d="M 54.890625 33.015625 
L 54.890625 0 
L 45.90625 0 
L 45.90625 32.71875 
Q 45.90625 40.484375 42.875 44.328125 
Q 39.84375 48.1875 33.796875 48.1875 
Q 26.515625 48.1875 22.3125 43.546875 
Q 18.109375 38.921875 18.109375 30.90625 
L 18.109375 0 
L 9.078125 0 
L 9.078125 54.6875 
L 18.109375 54.6875 
L 18.109375 46.1875 
Q 21.34375 51.125 25.703125 53.5625 
Q 30.078125 56 35.796875 56 
Q 45.21875 56 50.046875 50.171875 
Q 54.890625 44.34375 54.890625 33.015625 
z
" id="DejaVuSans-110"/>
      <path d="M 45.40625 27.984375 
Q 45.40625 37.75 41.375 43.109375 
Q 37.359375 48.484375 30.078125 48.484375 
Q 22.859375 48.484375 18.828125 43.109375 
Q 14.796875 37.75 14.796875 27.984375 
Q 14.796875 18.265625 18.828125 12.890625 
Q 22.859375 7.515625 30.078125 7.515625 
Q 37.359375 7.515625 41.375 12.890625 
Q 45.40625 18.265625 45.40625 27.984375 
z
M 54.390625 6.78125 
Q 54.390625 -7.171875 48.1875 -13.984375 
Q 42 -20.796875 29.203125 -20.796875 
Q 24.46875 -20.796875 20.265625 -20.09375 
Q 16.0625 -19.390625 12.109375 -17.921875 
L 12.109375 -9.1875 
Q 16.0625 -11.328125 19.921875 -12.34375 
Q 23.78125 -13.375 27.78125 -13.375 
Q 36.625 -13.375 41.015625 -8.765625 
Q 45.40625 -4.15625 45.40625 5.171875 
L 45.40625 9.625 
Q 42.625 4.78125 38.28125 2.390625 
Q 33.9375 0 27.875 0 
Q 17.828125 0 11.671875 7.65625 
Q 5.515625 15.328125 5.515625 27.984375 
Q 5.515625 40.671875 11.671875 48.328125 
Q 17.828125 56 27.875 56 
Q 33.9375 56 38.28125 53.609375 
Q 42.625 51.21875 45.40625 46.390625 
L 45.40625 54.6875 
L 54.390625 54.6875 
z
" id="DejaVuSans-103"/>
      <path d="M 18.3125 70.21875 
L 18.3125 54.6875 
L 36.8125 54.6875 
L 36.8125 47.703125 
L 18.3125 47.703125 
L 18.3125 18.015625 
Q 18.3125 11.328125 20.140625 9.421875 
Q 21.96875 7.515625 27.59375 7.515625 
L 36.8125 7.515625 
L 36.8125 0 
L 27.59375 0 
Q 17.1875 0 13.234375 3.875 
Q 9.28125 7.765625 9.28125 18.015625 
L 9.28125 47.703125 
L 2.6875 47.703125 
L 2.6875 54.6875 
L 9.28125 54.6875 
L 9.28125 70.21875 
z
" id="DejaVuSans-116"/>
      <path d="M 54.890625 33.015625 
L 54.890625 0 
L 45.90625 0 
L 45.90625 32.71875 
Q 45.90625 40.484375 42.875 44.328125 
Q 39.84375 48.1875 33.796875 48.1875 
Q 26.515625 48.1875 22.3125 43.546875 
Q 18.109375 38.921875 18.109375 30.90625 
L 18.109375 0 
L 9.078125 0 
L 9.078125 75.984375 
L 18.109375 75.984375 
L 18.109375 46.1875 
Q 21.34375 51.125 25.703125 53.5625 
Q 30.078125 56 35.796875 56 
Q 45.21875 56 50.046875 50.171875 
Q 54.890625 44.34375 54.890625 33.015625 
z
" id="DejaVuSans-104"/>
     </defs>
     <g transform="translate(35.481177 695.163352)rotate(-90)scale(0.26 -0.26)">
      <use xlink:href="#DejaVuSans-76"/>
      <use x="55.697266" xlink:href="#DejaVuSans-101"/>
      <use x="117.220703" xlink:href="#DejaVuSans-110"/>
      <use x="180.599609" xlink:href="#DejaVuSans-103"/>
      <use x="244.076172" xlink:href="#DejaVuSans-116"/>
      <use x="283.285156" xlink:href="#DejaVuSans-104"/>
      <use x="346.664062" xlink:href="#DejaVuSans-32"/>
      <use x="378.451172" xlink:href="#DejaVuSans-91"/>
      <use x="417.464844" xlink:href="#DejaVuSans-109"/>
      <use x="514.876953" xlink:href="#DejaVuSans-93"/>
     </g>
    </g>
   </g>
   <g id="line2d_15">
    <path clip-path="url(#p12dcfbbcb1)" d="M 222.809622 671.84041 
L 338.883987 671.840076 
L 372.074317 671.584709 
L 539.210766 671.569354 
L 2750.609753 671.566683 
L 2750.609753 671.566683 
" style="fill:none;stroke:#8000ff;stroke-dasharray:9.6,2.4,1.5,2.4;stroke-dashoffset:0;stroke-width:1.5;"/>
   </g>
   <g id="line2d_16">
    <path clip-path="url(#p12dcfbbcb1)" d="M 222.809622 502.314167 
L 372.074317 502.338991 
L 388.648862 502.513372 
L 438.480767 502.503353 
L 488.134327 502.411243 
L 504.734541 502.25052 
L 588.951917 502.33991 
L 605.542764 502.505523 
L 655.273331 502.503656 
L 754.823517 502.391491 
L 787.924552 502.363898 
L 821.159286 502.532217 
L 953.780824 502.483644 
L 1103.035543 502.499379 
L 2750.609753 502.490211 
L 2750.609753 502.490211 
" style="fill:none;stroke:#8000ff;stroke-linecap:square;stroke-width:3;"/>
   </g>
   <g id="line2d_17">
    <path clip-path="url(#p12dcfbbcb1)" d="M 222.809622 832.040932 
L 1302.050879 832.13006 
L 2750.609753 832.13006 
L 2750.609753 832.13006 
" style="fill:none;stroke:#386df9;stroke-dasharray:9.6,2.4,1.5,2.4;stroke-dashoffset:0;stroke-width:1.5;"/>
   </g>
   <g id="line2d_18">
    <path clip-path="url(#p12dcfbbcb1)" d="M 222.809622 831.92758 
L 372.074317 831.977341 
L 388.648862 832.328711 
L 421.813644 832.328897 
L 471.576085 832.274933 
L 488.134327 832.122485 
L 504.734541 831.799225 
L 588.951917 831.979276 
L 605.542764 832.312917 
L 622.130933 832.379826 
L 688.4886 832.285622 
L 738.197878 832.189293 
L 771.430787 832.000481 
L 787.924552 832.027038 
L 804.545447 832.295873 
L 837.693076 832.327116 
L 1003.568812 832.244396 
L 1053.310693 832.289948 
L 1401.540603 832.275344 
L 1784.274718 832.291985 
L 2750.609753 832.281091 
L 2750.609753 832.281091 
" style="fill:none;stroke:#386df9;stroke-linecap:square;stroke-width:3;"/>
   </g>
   <g id="line2d_19">
    <path clip-path="url(#p12dcfbbcb1)" d="M 222.809622 464.692096 
L 355.478362 464.775216 
L 405.204306 464.821949 
L 1185.975297 464.822951 
L 2750.609753 464.822951 
L 2750.609753 464.822951 
" style="fill:none;stroke:#12c8e6;stroke-dasharray:9.6,2.4,1.5,2.4;stroke-dashoffset:0;stroke-width:1.5;"/>
   </g>
   <g id="line2d_20">
    <path clip-path="url(#p12dcfbbcb1)" d="M 222.809622 464.882392 
L 372.074317 464.911206 
L 388.648862 465.113659 
L 438.480767 465.101995 
L 488.134327 464.995031 
L 504.734541 464.808504 
L 588.951917 464.912298 
L 605.542764 465.104548 
L 638.72628 465.115313 
L 804.545447 465.094921 
L 837.693076 465.113571 
L 1069.878182 465.094657 
L 1850.644185 465.085355 
L 2634.541592 465.087093 
L 2750.609753 465.086744 
L 2750.609753 465.086744 
" style="fill:none;stroke:#12c8e6;stroke-linecap:square;stroke-width:3;"/>
   </g>
   <g id="line2d_21">
    <path clip-path="url(#p12dcfbbcb1)" d="M 222.809622 200.200387 
L 338.883987 200.199052 
L 372.074317 200.374638 
L 638.72628 200.376307 
L 2750.609753 200.377976 
L 2750.609753 200.377976 
" style="fill:none;stroke:#5af8c8;stroke-dasharray:9.6,2.4,1.5,2.4;stroke-dashoffset:0;stroke-width:1.5;"/>
   </g>
   <g id="line2d_22">
    <path clip-path="url(#p12dcfbbcb1)" d="M 222.809622 200.540923 
L 372.074317 200.582854 
L 388.648862 200.877347 
L 421.813644 200.87853 
L 488.134327 200.704742 
L 504.734541 200.433303 
L 588.951917 200.584484 
L 605.542764 200.864108 
L 638.72628 200.87967 
L 754.823517 200.671558 
L 787.924552 200.624952 
L 804.545447 200.850088 
L 837.693076 200.877129 
L 1003.568812 200.806883 
L 1069.878182 200.84962 
L 1600.550464 200.842514 
L 1951.771631 200.83689 
L 2417.573724 200.839992 
L 2750.609753 200.838145 
L 2750.609753 200.838145 
" style="fill:none;stroke:#5af8c8;stroke-linecap:square;stroke-width:3;"/>
   </g>
   <g id="line2d_23">
    <path clip-path="url(#p12dcfbbcb1)" d="M 222.809622 785.365198 
L 355.478362 785.283747 
L 405.204306 785.244358 
L 1103.035543 785.242021 
L 2750.609753 785.242021 
L 2750.609753 785.242021 
" style="fill:none;stroke:#a4f89f;stroke-dasharray:9.6,2.4,1.5,2.4;stroke-dashoffset:0;stroke-width:1.5;"/>
   </g>
   <g id="line2d_24">
    <path clip-path="url(#p12dcfbbcb1)" d="M 222.809622 785.65409 
L 372.074317 785.612162 
L 388.648862 785.316804 
L 421.813644 785.31629 
L 488.134327 785.48976 
L 504.734541 785.76205 
L 588.951917 785.610668 
L 605.542764 785.330089 
L 638.72628 785.315213 
L 754.823517 785.523486 
L 787.924552 785.57032 
L 804.545447 785.344308 
L 837.693076 785.317763 
L 1003.568812 785.38759 
L 1069.878182 785.345169 
L 1617.130361 785.357431 
L 2018.058129 785.34898 
L 2750.609753 785.356509 
L 2750.609753 785.356509 
" style="fill:none;stroke:#a4f89f;stroke-linecap:square;stroke-width:3;"/>
   </g>
   <g id="line2d_25">
    <path clip-path="url(#p12dcfbbcb1)" d="M 222.809622 914.245049 
L 338.883987 914.245383 
L 372.074317 914.456019 
L 471.576085 914.469372 
L 1501.043952 914.475046 
L 2750.609753 914.475046 
L 2750.609753 914.475046 
" style="fill:none;stroke:#ecc86f;stroke-dasharray:9.6,2.4,1.5,2.4;stroke-dashoffset:0;stroke-width:1.5;"/>
   </g>
   <g id="line2d_26">
    <path clip-path="url(#p12dcfbbcb1)" d="M 222.809622 915.109767 
L 372.074317 915.030399 
L 388.648862 914.466216 
L 405.204306 914.388653 
L 454.978061 914.52503 
L 471.576085 914.554886 
L 488.134327 914.798443 
L 504.734541 915.31662 
L 588.951917 915.027 
L 605.542764 914.491479 
L 622.130933 914.386661 
L 671.891063 914.522668 
L 738.197878 914.690915 
L 771.430787 914.994267 
L 787.924552 914.951688 
L 804.545447 914.519701 
L 821.159286 914.409549 
L 870.892287 914.507936 
L 1219.101636 914.565033 
L 2717.443998 914.541908 
L 2750.609753 914.545031 
L 2750.609753 914.545031 
" style="fill:none;stroke:#ecc86f;stroke-linecap:square;stroke-width:3;"/>
   </g>
   <g id="line2d_27">
    <path clip-path="url(#p12dcfbbcb1)" d="M 222.809622 828.537898 
L 355.478362 828.613674 
L 405.204306 828.68778 
L 1550.801527 828.683107 
L 2750.609753 828.683107 
L 2750.609753 828.683107 
" style="fill:none;stroke:#ff6d38;stroke-dasharray:9.6,2.4,1.5,2.4;stroke-dashoffset:0;stroke-width:1.5;"/>
   </g>
   <g id="line2d_28">
    <path clip-path="url(#p12dcfbbcb1)" d="M 222.809622 704.236807 
L 372.074317 704.207508 
L 388.648862 703.999943 
L 438.480767 704.013675 
L 488.134327 704.121979 
L 504.734541 704.312935 
L 588.951917 704.206295 
L 605.542764 704.009241 
L 638.72628 703.999929 
L 787.924552 704.178391 
L 804.545447 704.019508 
L 837.693076 704.001786 
L 1053.310693 704.023384 
L 1800.894761 704.022903 
L 2750.609753 704.028619 
L 2750.609753 704.028619 
" style="fill:none;stroke:#ff6d38;stroke-linecap:square;stroke-width:3;"/>
   </g>
   <g id="line2d_29">
    <path clip-path="url(#p12dcfbbcb1)" d="M 222.809622 1046.087157 
L 338.883987 1046.088826 
L 372.074317 1045.888204 
L 522.882451 1045.873517 
L 1517.594044 1045.8852 
L 2750.609753 1045.8852 
L 2750.609753 1045.8852 
" style="fill:none;stroke:#ff0000;stroke-dasharray:9.6,2.4,1.5,2.4;stroke-dashoffset:0;stroke-width:1.5;"/>
   </g>
   <g id="line2d_30">
    <path clip-path="url(#p12dcfbbcb1)" d="M 222.809622 1045.949873 
L 372.074317 1045.885299 
L 388.648862 1045.431198 
L 405.204306 1045.366245 
L 454.978061 1045.474863 
L 471.576085 1045.500119 
L 488.134327 1045.697348 
L 504.734541 1046.11609 
L 588.951917 1045.882816 
L 605.542764 1045.451592 
L 622.130933 1045.364626 
L 671.891063 1045.47256 
L 738.197878 1045.61097 
L 771.430787 1045.85505 
L 787.924552 1045.820672 
L 804.545447 1045.473382 
L 821.159286 1045.382884 
L 870.892287 1045.459613 
L 1252.263377 1045.504022 
L 1451.289905 1045.507543 
L 2750.609753 1045.492096 
L 2750.609753 1045.492096 
" style="fill:none;stroke:#ff0000;stroke-linecap:square;stroke-width:3;"/>
   </g>
   <g id="patch_3">
    <path d="M 96.419615 1088.411942 
L 96.419615 157.9032 
" style="fill:none;stroke:#000000;stroke-linecap:square;stroke-linejoin:miter;stroke-width:0.8;"/>
   </g>
   <g id="patch_4">
    <path d="M 2876.99976 1088.411942 
L 2876.99976 157.9032 
" style="fill:none;stroke:#000000;stroke-linecap:square;stroke-linejoin:miter;stroke-width:0.8;"/>
   </g>
   <g id="patch_5">
    <path d="M 96.419615 1088.411942 
L 2876.99976 1088.411942 
" style="fill:none;stroke:#000000;stroke-linecap:square;stroke-linejoin:miter;stroke-width:0.8;"/>
   </g>
   <g id="patch_6">
    <path d="M 96.419615 157.9032 
L 2876.99976 157.9032 
" style="fill:none;stroke:#000000;stroke-linecap:square;stroke-linejoin:miter;stroke-width:0.8;"/>
   </g>
   <g id="text_17">
    <!-- All shoulder Tendons -->
    <defs>
     <path d="M 34.1875 63.1875 
L 20.796875 26.90625 
L 47.609375 26.90625 
z
M 28.609375 72.90625 
L 39.796875 72.90625 
L 67.578125 0 
L 57.328125 0 
L 50.6875 18.703125 
L 17.828125 18.703125 
L 11.1875 0 
L 0.78125 0 
z
" id="DejaVuSans-65"/>
     <path d="M 9.421875 75.984375 
L 18.40625 75.984375 
L 18.40625 0 
L 9.421875 0 
z
" id="DejaVuSans-108"/>
     <path d="M 30.609375 48.390625 
Q 23.390625 48.390625 19.1875 42.75 
Q 14.984375 37.109375 14.984375 27.296875 
Q 14.984375 17.484375 19.15625 11.84375 
Q 23.34375 6.203125 30.609375 6.203125 
Q 37.796875 6.203125 41.984375 11.859375 
Q 46.1875 17.53125 46.1875 27.296875 
Q 46.1875 37.015625 41.984375 42.703125 
Q 37.796875 48.390625 30.609375 48.390625 
z
M 30.609375 56 
Q 42.328125 56 49.015625 48.375 
Q 55.71875 40.765625 55.71875 27.296875 
Q 55.71875 13.875 49.015625 6.21875 
Q 42.328125 -1.421875 30.609375 -1.421875 
Q 18.84375 -1.421875 12.171875 6.21875 
Q 5.515625 13.875 5.515625 27.296875 
Q 5.515625 40.765625 12.171875 48.375 
Q 18.84375 56 30.609375 56 
z
" id="DejaVuSans-111"/>
     <path d="M 8.5 21.578125 
L 8.5 54.6875 
L 17.484375 54.6875 
L 17.484375 21.921875 
Q 17.484375 14.15625 20.5 10.265625 
Q 23.53125 6.390625 29.59375 6.390625 
Q 36.859375 6.390625 41.078125 11.03125 
Q 45.3125 15.671875 45.3125 23.6875 
L 45.3125 54.6875 
L 54.296875 54.6875 
L 54.296875 0 
L 45.3125 0 
L 45.3125 8.40625 
Q 42.046875 3.421875 37.71875 1 
Q 33.40625 -1.421875 27.6875 -1.421875 
Q 18.265625 -1.421875 13.375 4.4375 
Q 8.5 10.296875 8.5 21.578125 
z
M 31.109375 56 
z
" id="DejaVuSans-117"/>
     <path d="M 45.40625 46.390625 
L 45.40625 75.984375 
L 54.390625 75.984375 
L 54.390625 0 
L 45.40625 0 
L 45.40625 8.203125 
Q 42.578125 3.328125 38.25 0.953125 
Q 33.9375 -1.421875 27.875 -1.421875 
Q 17.96875 -1.421875 11.734375 6.484375 
Q 5.515625 14.40625 5.515625 27.296875 
Q 5.515625 40.1875 11.734375 48.09375 
Q 17.96875 56 27.875 56 
Q 33.9375 56 38.25 53.625 
Q 42.578125 51.265625 45.40625 46.390625 
z
M 14.796875 27.296875 
Q 14.796875 17.390625 18.875 11.75 
Q 22.953125 6.109375 30.078125 6.109375 
Q 37.203125 6.109375 41.296875 11.75 
Q 45.40625 17.390625 45.40625 27.296875 
Q 45.40625 37.203125 41.296875 42.84375 
Q 37.203125 48.484375 30.078125 48.484375 
Q 22.953125 48.484375 18.875 42.84375 
Q 14.796875 37.203125 14.796875 27.296875 
z
" id="DejaVuSans-100"/>
     <path d="M 41.109375 46.296875 
Q 39.59375 47.171875 37.8125 47.578125 
Q 36.03125 48 33.890625 48 
Q 26.265625 48 22.1875 43.046875 
Q 18.109375 38.09375 18.109375 28.8125 
L 18.109375 0 
L 9.078125 0 
L 9.078125 54.6875 
L 18.109375 54.6875 
L 18.109375 46.1875 
Q 20.953125 51.171875 25.484375 53.578125 
Q 30.03125 56 36.53125 56 
Q 37.453125 56 38.578125 55.875 
Q 39.703125 55.765625 41.0625 55.515625 
z
" id="DejaVuSans-114"/>
    </defs>
    <g transform="translate(1308.663906 150.832263)scale(0.34 -0.34)">
     <use xlink:href="#DejaVuSans-65"/>
     <use x="68.408203" xlink:href="#DejaVuSans-108"/>
     <use x="96.191406" xlink:href="#DejaVuSans-108"/>
     <use x="123.974609" xlink:href="#DejaVuSans-32"/>
     <use x="155.761719" xlink:href="#DejaVuSans-115"/>
     <use x="207.861328" xlink:href="#DejaVuSans-104"/>
     <use x="271.240234" xlink:href="#DejaVuSans-111"/>
     <use x="332.421875" xlink:href="#DejaVuSans-117"/>
     <use x="395.800781" xlink:href="#DejaVuSans-108"/>
     <use x="423.583984" xlink:href="#DejaVuSans-100"/>
     <use x="487.060547" xlink:href="#DejaVuSans-101"/>
     <use x="548.583984" xlink:href="#DejaVuSans-114"/>
     <use x="589.697266" xlink:href="#DejaVuSans-32"/>
     <use x="621.484375" xlink:href="#DejaVuSans-84"/>
     <use x="682.302734" xlink:href="#DejaVuSans-101"/>
     <use x="743.826172" xlink:href="#DejaVuSans-110"/>
     <use x="807.205078" xlink:href="#DejaVuSans-100"/>
     <use x="870.681641" xlink:href="#DejaVuSans-111"/>
     <use x="931.863281" xlink:href="#DejaVuSans-110"/>
     <use x="995.242188" xlink:href="#DejaVuSans-115"/>
    </g>
   </g>
  </g>
  <g id="axes_2">
   <g id="patch_7">
    <path d="M 96.419615 2134.946163 
L 2876.99976 2134.946163 
L 2876.99976 1204.437422 
L 96.419615 1204.437422 
z
" style="fill:#ffffff;"/>
   </g>
   <g id="matplotlib.axis_3">
    <g id="xtick_7">
     <g id="line2d_31">
      <g>
       <use style="stroke:#000000;stroke-width:0.8;" x="222.809622" xlink:href="#md3cf25fdfb" y="2134.946163"/>
      </g>
     </g>
     <g id="text_18">
      <!-- 35 -->
      <g transform="translate(210.084622 2157.143038)scale(0.2 -0.2)">
       <use xlink:href="#DejaVuSans-51"/>
       <use x="63.623047" xlink:href="#DejaVuSans-53"/>
      </g>
     </g>
    </g>
    <g id="xtick_8">
     <g id="line2d_32">
      <g>
       <use style="stroke:#000000;stroke-width:0.8;" x="733.068409" xlink:href="#md3cf25fdfb" y="2134.946163"/>
      </g>
     </g>
     <g id="text_19">
      <!-- 36 -->
      <g transform="translate(720.343409 2157.143038)scale(0.2 -0.2)">
       <use xlink:href="#DejaVuSans-51"/>
       <use x="63.623047" xlink:href="#DejaVuSans-54"/>
      </g>
     </g>
    </g>
    <g id="xtick_9">
     <g id="line2d_33">
      <g>
       <use style="stroke:#000000;stroke-width:0.8;" x="1243.327196" xlink:href="#md3cf25fdfb" y="2134.946163"/>
      </g>
     </g>
     <g id="text_20">
      <!-- 37 -->
      <g transform="translate(1230.602196 2157.143038)scale(0.2 -0.2)">
       <use xlink:href="#DejaVuSans-51"/>
       <use x="63.623047" xlink:href="#DejaVuSans-55"/>
      </g>
     </g>
    </g>
    <g id="xtick_10">
     <g id="line2d_34">
      <g>
       <use style="stroke:#000000;stroke-width:0.8;" x="1753.585983" xlink:href="#md3cf25fdfb" y="2134.946163"/>
      </g>
     </g>
     <g id="text_21">
      <!-- 38 -->
      <g transform="translate(1740.860983 2157.143038)scale(0.2 -0.2)">
       <use xlink:href="#DejaVuSans-51"/>
       <use x="63.623047" xlink:href="#DejaVuSans-56"/>
      </g>
     </g>
    </g>
    <g id="xtick_11">
     <g id="line2d_35">
      <g>
       <use style="stroke:#000000;stroke-width:0.8;" x="2263.84477" xlink:href="#md3cf25fdfb" y="2134.946163"/>
      </g>
     </g>
     <g id="text_22">
      <!-- 39 -->
      <g transform="translate(2251.11977 2157.143038)scale(0.2 -0.2)">
       <use xlink:href="#DejaVuSans-51"/>
       <use x="63.623047" xlink:href="#DejaVuSans-57"/>
      </g>
     </g>
    </g>
    <g id="xtick_12">
     <g id="line2d_36">
      <g>
       <use style="stroke:#000000;stroke-width:0.8;" x="2774.103557" xlink:href="#md3cf25fdfb" y="2134.946163"/>
      </g>
     </g>
     <g id="text_23">
      <!-- 40 -->
      <g transform="translate(2761.378557 2157.143038)scale(0.2 -0.2)">
       <use xlink:href="#DejaVuSans-52"/>
       <use x="63.623047" xlink:href="#DejaVuSans-48"/>
      </g>
     </g>
    </g>
    <g id="text_24">
     <!-- Time [s] -->
     <g transform="translate(1433.454375 2185.058351)scale(0.26 -0.26)">
      <use xlink:href="#DejaVuSans-84"/>
      <use x="61.037109" xlink:href="#DejaVuSans-105"/>
      <use x="88.820312" xlink:href="#DejaVuSans-109"/>
      <use x="186.232422" xlink:href="#DejaVuSans-101"/>
      <use x="247.755859" xlink:href="#DejaVuSans-32"/>
      <use x="279.542969" xlink:href="#DejaVuSans-91"/>
      <use x="318.556641" xlink:href="#DejaVuSans-115"/>
      <use x="370.65625" xlink:href="#DejaVuSans-93"/>
     </g>
    </g>
   </g>
   <g id="matplotlib.axis_4">
    <g id="ytick_9">
     <g id="line2d_37">
      <g>
       <use style="stroke:#000000;stroke-width:0.8;" x="96.419615" xlink:href="#m22b0310285" y="2130.313813"/>
      </g>
     </g>
     <g id="text_25">
      <!-- 0.415 -->
      <g transform="translate(32.163365 2137.91225)scale(0.2 -0.2)">
       <use xlink:href="#DejaVuSans-48"/>
       <use x="63.623047" xlink:href="#DejaVuSans-46"/>
       <use x="95.410156" xlink:href="#DejaVuSans-52"/>
       <use x="159.033203" xlink:href="#DejaVuSans-49"/>
       <use x="222.65625" xlink:href="#DejaVuSans-53"/>
      </g>
     </g>
    </g>
    <g id="ytick_10">
     <g id="line2d_38">
      <g>
       <use style="stroke:#000000;stroke-width:0.8;" x="96.419615" xlink:href="#m22b0310285" y="2000.16091"/>
      </g>
     </g>
     <g id="text_26">
      <!-- 0.420 -->
      <g transform="translate(32.163365 2007.759347)scale(0.2 -0.2)">
       <use xlink:href="#DejaVuSans-48"/>
       <use x="63.623047" xlink:href="#DejaVuSans-46"/>
       <use x="95.410156" xlink:href="#DejaVuSans-52"/>
       <use x="159.033203" xlink:href="#DejaVuSans-50"/>
       <use x="222.65625" xlink:href="#DejaVuSans-48"/>
      </g>
     </g>
    </g>
    <g id="ytick_11">
     <g id="line2d_39">
      <g>
       <use style="stroke:#000000;stroke-width:0.8;" x="96.419615" xlink:href="#m22b0310285" y="1870.008007"/>
      </g>
     </g>
     <g id="text_27">
      <!-- 0.425 -->
      <g transform="translate(32.163365 1877.606444)scale(0.2 -0.2)">
       <use xlink:href="#DejaVuSans-48"/>
       <use x="63.623047" xlink:href="#DejaVuSans-46"/>
       <use x="95.410156" xlink:href="#DejaVuSans-52"/>
       <use x="159.033203" xlink:href="#DejaVuSans-50"/>
       <use x="222.65625" xlink:href="#DejaVuSans-53"/>
      </g>
     </g>
    </g>
    <g id="ytick_12">
     <g id="line2d_40">
      <g>
       <use style="stroke:#000000;stroke-width:0.8;" x="96.419615" xlink:href="#m22b0310285" y="1739.855104"/>
      </g>
     </g>
     <g id="text_28">
      <!-- 0.430 -->
      <g transform="translate(32.163365 1747.453541)scale(0.2 -0.2)">
       <use xlink:href="#DejaVuSans-48"/>
       <use x="63.623047" xlink:href="#DejaVuSans-46"/>
       <use x="95.410156" xlink:href="#DejaVuSans-52"/>
       <use x="159.033203" xlink:href="#DejaVuSans-51"/>
       <use x="222.65625" xlink:href="#DejaVuSans-48"/>
      </g>
     </g>
    </g>
    <g id="ytick_13">
     <g id="line2d_41">
      <g>
       <use style="stroke:#000000;stroke-width:0.8;" x="96.419615" xlink:href="#m22b0310285" y="1609.7022"/>
      </g>
     </g>
     <g id="text_29">
      <!-- 0.435 -->
      <g transform="translate(32.163365 1617.300638)scale(0.2 -0.2)">
       <use xlink:href="#DejaVuSans-48"/>
       <use x="63.623047" xlink:href="#DejaVuSans-46"/>
       <use x="95.410156" xlink:href="#DejaVuSans-52"/>
       <use x="159.033203" xlink:href="#DejaVuSans-51"/>
       <use x="222.65625" xlink:href="#DejaVuSans-53"/>
      </g>
     </g>
    </g>
    <g id="ytick_14">
     <g id="line2d_42">
      <g>
       <use style="stroke:#000000;stroke-width:0.8;" x="96.419615" xlink:href="#m22b0310285" y="1479.549297"/>
      </g>
     </g>
     <g id="text_30">
      <!-- 0.440 -->
      <g transform="translate(32.163365 1487.147735)scale(0.2 -0.2)">
       <use xlink:href="#DejaVuSans-48"/>
       <use x="63.623047" xlink:href="#DejaVuSans-46"/>
       <use x="95.410156" xlink:href="#DejaVuSans-52"/>
       <use x="159.033203" xlink:href="#DejaVuSans-52"/>
       <use x="222.65625" xlink:href="#DejaVuSans-48"/>
      </g>
     </g>
    </g>
    <g id="ytick_15">
     <g id="line2d_43">
      <g>
       <use style="stroke:#000000;stroke-width:0.8;" x="96.419615" xlink:href="#m22b0310285" y="1349.396394"/>
      </g>
     </g>
     <g id="text_31">
      <!-- 0.445 -->
      <g transform="translate(32.163365 1356.994832)scale(0.2 -0.2)">
       <use xlink:href="#DejaVuSans-48"/>
       <use x="63.623047" xlink:href="#DejaVuSans-46"/>
       <use x="95.410156" xlink:href="#DejaVuSans-52"/>
       <use x="159.033203" xlink:href="#DejaVuSans-52"/>
       <use x="222.65625" xlink:href="#DejaVuSans-53"/>
      </g>
     </g>
    </g>
    <g id="ytick_16">
     <g id="line2d_44">
      <g>
       <use style="stroke:#000000;stroke-width:0.8;" x="96.419615" xlink:href="#m22b0310285" y="1219.243491"/>
      </g>
     </g>
     <g id="text_32">
      <!-- 0.450 -->
      <g transform="translate(32.163365 1226.841929)scale(0.2 -0.2)">
       <use xlink:href="#DejaVuSans-48"/>
       <use x="63.623047" xlink:href="#DejaVuSans-46"/>
       <use x="95.410156" xlink:href="#DejaVuSans-52"/>
       <use x="159.033203" xlink:href="#DejaVuSans-53"/>
       <use x="222.65625" xlink:href="#DejaVuSans-48"/>
      </g>
     </g>
    </g>
    <g id="text_33">
     <!-- Length [m] -->
     <g transform="translate(22.756177 1741.697574)rotate(-90)scale(0.26 -0.26)">
      <use xlink:href="#DejaVuSans-76"/>
      <use x="55.697266" xlink:href="#DejaVuSans-101"/>
      <use x="117.220703" xlink:href="#DejaVuSans-110"/>
      <use x="180.599609" xlink:href="#DejaVuSans-103"/>
      <use x="244.076172" xlink:href="#DejaVuSans-116"/>
      <use x="283.285156" xlink:href="#DejaVuSans-104"/>
      <use x="346.664062" xlink:href="#DejaVuSans-32"/>
      <use x="378.451172" xlink:href="#DejaVuSans-91"/>
      <use x="417.464844" xlink:href="#DejaVuSans-109"/>
      <use x="514.876953" xlink:href="#DejaVuSans-93"/>
     </g>
    </g>
   </g>
   <g id="line2d_45">
    <path clip-path="url(#p4621a216d4)" d="M 222.809622 1728.14154 
L 338.883987 1728.140764 
L 355.478362 1727.782357 
L 372.074317 1727.547298 
L 454.978061 1727.504631 
L 1252.263377 1727.505407 
L 2750.609753 1727.505407 
L 2750.609753 1727.505407 
" style="fill:none;stroke:#8000ff;stroke-dasharray:9.6,2.4,1.5,2.4;stroke-dashoffset:0;stroke-width:1.5;"/>
   </g>
   <g id="line2d_46">
    <path clip-path="url(#p4621a216d4)" d="M 222.809622 1334.167433 
L 372.074317 1334.225124 
L 388.648862 1334.63038 
L 405.204306 1334.689016 
L 488.134327 1334.393037 
L 504.734541 1334.01952 
L 588.951917 1334.227261 
L 605.542764 1334.612139 
L 622.130933 1334.690458 
L 671.891063 1334.594365 
L 738.197878 1334.470051 
L 771.430787 1334.252335 
L 787.924552 1334.283007 
L 804.545447 1334.592882 
L 821.159286 1334.674176 
L 887.465492 1334.600648 
L 1103.035543 1334.597861 
L 1968.332185 1334.58035 
L 2334.619128 1334.570873 
L 2750.609753 1334.576554 
L 2750.609753 1334.576554 
" style="fill:none;stroke:#8000ff;stroke-linecap:square;stroke-width:3;"/>
   </g>
   <g id="line2d_47">
    <path clip-path="url(#p4621a216d4)" d="M 222.809622 1246.734825 
L 338.883987 1246.733274 
L 372.074317 1247.031946 
L 522.882451 1247.052116 
L 1384.973601 1247.038928 
L 2750.609753 1247.038928 
L 2750.609753 1247.038928 
" style="fill:none;stroke:#12c8e6;stroke-dasharray:9.6,2.4,1.5,2.4;stroke-dashoffset:0;stroke-width:1.5;"/>
   </g>
   <g id="line2d_48">
    <path clip-path="url(#p4621a216d4)" d="M 222.809622 1247.177067 
L 372.074317 1247.24403 
L 388.648862 1247.714524 
L 405.204306 1247.782602 
L 454.978061 1247.670116 
L 471.576085 1247.64358 
L 488.134327 1247.438838 
L 504.734541 1247.005353 
L 588.951917 1247.246569 
L 605.542764 1247.69335 
L 622.130933 1247.784305 
L 671.891063 1247.672628 
L 738.197878 1247.528368 
L 771.430787 1247.275657 
L 787.924552 1247.311253 
L 804.545447 1247.670977 
L 821.159286 1247.765384 
L 870.892287 1247.686335 
L 1252.263377 1247.639256 
L 1434.708183 1247.636014 
L 2750.609753 1247.651975 
L 2750.609753 1247.651975 
" style="fill:none;stroke:#12c8e6;stroke-linecap:square;stroke-width:3;"/>
   </g>
   <g id="line2d_49">
    <path clip-path="url(#p4621a216d4)" d="M 222.809622 1991.969877 
L 338.883987 1991.969877 
L 372.074317 1991.689824 
L 471.576085 1991.670429 
L 1501.043952 1991.683617 
L 2750.609753 1991.683617 
L 2750.609753 1991.683617 
" style="fill:none;stroke:#a4f89f;stroke-dasharray:9.6,2.4,1.5,2.4;stroke-dashoffset:0;stroke-width:1.5;"/>
   </g>
   <g id="line2d_50">
    <path clip-path="url(#p4621a216d4)" d="M 222.809622 1992.641254 
L 372.074317 1992.543814 
L 388.648862 1991.857412 
L 405.204306 1991.759586 
L 438.480767 1991.898717 
L 471.576085 1991.961366 
L 488.134327 1992.259357 
L 504.734541 1992.89215 
L 588.951917 1992.540342 
L 605.542764 1991.888286 
L 622.130933 1991.757295 
L 655.273331 1991.897663 
L 721.617981 1991.994759 
L 787.924552 1992.446576 
L 804.545447 1991.921329 
L 821.159286 1991.784859 
L 870.892287 1991.900782 
L 1086.454186 1991.916406 
L 1650.266068 1991.967367 
L 2401.023146 1991.950717 
L 2750.609753 1991.949685 
L 2750.609753 1991.949685 
" style="fill:none;stroke:#a4f89f;stroke-linecap:square;stroke-width:3;"/>
   </g>
   <g id="line2d_51">
    <path clip-path="url(#p4621a216d4)" d="M 222.809622 2092.30199 
L 338.883987 2092.30199 
L 372.074317 2092.613074 
L 454.978061 2092.634796 
L 1202.539865 2092.639451 
L 2750.609753 2092.639451 
L 2750.609753 2092.639451 
" style="fill:none;stroke:#ff6d38;stroke-dasharray:9.6,2.4,1.5,2.4;stroke-dashoffset:0;stroke-width:1.5;"/>
   </g>
   <g id="line2d_52">
    <path clip-path="url(#p4621a216d4)" d="M 222.809622 1803.429833 
L 372.074317 1803.361743 
L 388.648862 1802.879368 
L 405.204306 1802.812393 
L 454.978061 1802.928586 
L 471.576085 1802.954432 
L 488.134327 1803.162977 
L 504.734541 1803.606752 
L 588.951917 1803.358924 
L 605.542764 1802.900976 
L 622.130933 1802.810696 
L 671.891063 1802.926465 
L 738.197878 1803.071128 
L 771.430787 1803.330528 
L 787.924552 1803.294076 
L 804.545447 1802.924836 
L 821.159286 1802.830203 
L 870.892287 1802.913569 
L 1252.263377 1802.957577 
L 1451.289905 1802.961204 
L 2734.031073 1802.944542 
L 2750.609753 1802.94601 
L 2750.609753 1802.94601 
" style="fill:none;stroke:#ff6d38;stroke-linecap:square;stroke-width:3;"/>
   </g>
   <g id="patch_8">
    <path d="M 96.419615 2134.946163 
L 96.419615 1204.437422 
" style="fill:none;stroke:#000000;stroke-linecap:square;stroke-linejoin:miter;stroke-width:0.8;"/>
   </g>
   <g id="patch_9">
    <path d="M 2876.99976 2134.946163 
L 2876.99976 1204.437422 
" style="fill:none;stroke:#000000;stroke-linecap:square;stroke-linejoin:miter;stroke-width:0.8;"/>
   </g>
   <g id="patch_10">
    <path d="M 96.419615 2134.946163 
L 2876.99976 2134.946163 
" style="fill:none;stroke:#000000;stroke-linecap:square;stroke-linejoin:miter;stroke-width:0.8;"/>
   </g>
   <g id="patch_11">
    <path d="M 96.419615 1204.437422 
L 2876.99976 1204.437422 
" style="fill:none;stroke:#000000;stroke-linecap:square;stroke-linejoin:miter;stroke-width:0.8;"/>
   </g>
   <g id="text_34">
    <!-- Shoulder Tendons [0, 2, 4, 6] -->
    <defs>
     <path d="M 53.515625 70.515625 
L 53.515625 60.890625 
Q 47.90625 63.578125 42.921875 64.890625 
Q 37.9375 66.21875 33.296875 66.21875 
Q 25.25 66.21875 20.875 63.09375 
Q 16.5 59.96875 16.5 54.203125 
Q 16.5 49.359375 19.40625 46.890625 
Q 22.3125 44.4375 30.421875 42.921875 
L 36.375 41.703125 
Q 47.40625 39.59375 52.65625 34.296875 
Q 57.90625 29 57.90625 20.125 
Q 57.90625 9.515625 50.796875 4.046875 
Q 43.703125 -1.421875 29.984375 -1.421875 
Q 24.8125 -1.421875 18.96875 -0.25 
Q 13.140625 0.921875 6.890625 3.21875 
L 6.890625 13.375 
Q 12.890625 10.015625 18.65625 8.296875 
Q 24.421875 6.59375 29.984375 6.59375 
Q 38.421875 6.59375 43.015625 9.90625 
Q 47.609375 13.234375 47.609375 19.390625 
Q 47.609375 24.75 44.3125 27.78125 
Q 41.015625 30.8125 33.5 32.328125 
L 27.484375 33.5 
Q 16.453125 35.6875 11.515625 40.375 
Q 6.59375 45.0625 6.59375 53.421875 
Q 6.59375 63.09375 13.40625 68.65625 
Q 20.21875 74.21875 32.171875 74.21875 
Q 37.3125 74.21875 42.625 73.28125 
Q 47.953125 72.359375 53.515625 70.515625 
z
" id="DejaVuSans-83"/>
     <path d="M 11.71875 12.40625 
L 22.015625 12.40625 
L 22.015625 4 
L 14.015625 -11.625 
L 7.71875 -11.625 
L 11.71875 4 
z
" id="DejaVuSans-44"/>
    </defs>
    <g transform="translate(1238.855 1197.366484)scale(0.34 -0.34)">
     <use xlink:href="#DejaVuSans-83"/>
     <use x="63.476562" xlink:href="#DejaVuSans-104"/>
     <use x="126.855469" xlink:href="#DejaVuSans-111"/>
     <use x="188.037109" xlink:href="#DejaVuSans-117"/>
     <use x="251.416016" xlink:href="#DejaVuSans-108"/>
     <use x="279.199219" xlink:href="#DejaVuSans-100"/>
     <use x="342.675781" xlink:href="#DejaVuSans-101"/>
     <use x="404.199219" xlink:href="#DejaVuSans-114"/>
     <use x="445.3125" xlink:href="#DejaVuSans-32"/>
     <use x="477.099609" xlink:href="#DejaVuSans-84"/>
     <use x="537.917969" xlink:href="#DejaVuSans-101"/>
     <use x="599.441406" xlink:href="#DejaVuSans-110"/>
     <use x="662.820312" xlink:href="#DejaVuSans-100"/>
     <use x="726.296875" xlink:href="#DejaVuSans-111"/>
     <use x="787.478516" xlink:href="#DejaVuSans-110"/>
     <use x="850.857422" xlink:href="#DejaVuSans-115"/>
     <use x="902.957031" xlink:href="#DejaVuSans-32"/>
     <use x="934.744141" xlink:href="#DejaVuSans-91"/>
     <use x="973.757812" xlink:href="#DejaVuSans-48"/>
     <use x="1037.380859" xlink:href="#DejaVuSans-44"/>
     <use x="1069.167969" xlink:href="#DejaVuSans-32"/>
     <use x="1100.955078" xlink:href="#DejaVuSans-50"/>
     <use x="1164.578125" xlink:href="#DejaVuSans-44"/>
     <use x="1196.365234" xlink:href="#DejaVuSans-32"/>
     <use x="1228.152344" xlink:href="#DejaVuSans-52"/>
     <use x="1291.775391" xlink:href="#DejaVuSans-44"/>
     <use x="1323.5625" xlink:href="#DejaVuSans-32"/>
     <use x="1355.349609" xlink:href="#DejaVuSans-54"/>
     <use x="1418.972656" xlink:href="#DejaVuSans-93"/>
    </g>
   </g>
  </g>
  <g id="axes_3">
   <g id="patch_12">
    <path d="M 96.419615 3181.480385 
L 2876.99976 3181.480385 
L 2876.99976 2250.971643 
L 96.419615 2250.971643 
z
" style="fill:#ffffff;"/>
   </g>
   <g id="matplotlib.axis_5">
    <g id="xtick_13">
     <g id="line2d_53">
      <g>
       <use style="stroke:#000000;stroke-width:0.8;" x="222.809622" xlink:href="#md3cf25fdfb" y="3181.480385"/>
      </g>
     </g>
     <g id="text_35">
      <!-- 35 -->
      <g transform="translate(210.084622 3203.67726)scale(0.2 -0.2)">
       <use xlink:href="#DejaVuSans-51"/>
       <use x="63.623047" xlink:href="#DejaVuSans-53"/>
      </g>
     </g>
    </g>
    <g id="xtick_14">
     <g id="line2d_54">
      <g>
       <use style="stroke:#000000;stroke-width:0.8;" x="733.068409" xlink:href="#md3cf25fdfb" y="3181.480385"/>
      </g>
     </g>
     <g id="text_36">
      <!-- 36 -->
      <g transform="translate(720.343409 3203.67726)scale(0.2 -0.2)">
       <use xlink:href="#DejaVuSans-51"/>
       <use x="63.623047" xlink:href="#DejaVuSans-54"/>
      </g>
     </g>
    </g>
    <g id="xtick_15">
     <g id="line2d_55">
      <g>
       <use style="stroke:#000000;stroke-width:0.8;" x="1243.327196" xlink:href="#md3cf25fdfb" y="3181.480385"/>
      </g>
     </g>
     <g id="text_37">
      <!-- 37 -->
      <g transform="translate(1230.602196 3203.67726)scale(0.2 -0.2)">
       <use xlink:href="#DejaVuSans-51"/>
       <use x="63.623047" xlink:href="#DejaVuSans-55"/>
      </g>
     </g>
    </g>
    <g id="xtick_16">
     <g id="line2d_56">
      <g>
       <use style="stroke:#000000;stroke-width:0.8;" x="1753.585983" xlink:href="#md3cf25fdfb" y="3181.480385"/>
      </g>
     </g>
     <g id="text_38">
      <!-- 38 -->
      <g transform="translate(1740.860983 3203.67726)scale(0.2 -0.2)">
       <use xlink:href="#DejaVuSans-51"/>
       <use x="63.623047" xlink:href="#DejaVuSans-56"/>
      </g>
     </g>
    </g>
    <g id="xtick_17">
     <g id="line2d_57">
      <g>
       <use style="stroke:#000000;stroke-width:0.8;" x="2263.84477" xlink:href="#md3cf25fdfb" y="3181.480385"/>
      </g>
     </g>
     <g id="text_39">
      <!-- 39 -->
      <g transform="translate(2251.11977 3203.67726)scale(0.2 -0.2)">
       <use xlink:href="#DejaVuSans-51"/>
       <use x="63.623047" xlink:href="#DejaVuSans-57"/>
      </g>
     </g>
    </g>
    <g id="xtick_18">
     <g id="line2d_58">
      <g>
       <use style="stroke:#000000;stroke-width:0.8;" x="2774.103557" xlink:href="#md3cf25fdfb" y="3181.480385"/>
      </g>
     </g>
     <g id="text_40">
      <!-- 40 -->
      <g transform="translate(2761.378557 3203.67726)scale(0.2 -0.2)">
       <use xlink:href="#DejaVuSans-52"/>
       <use x="63.623047" xlink:href="#DejaVuSans-48"/>
      </g>
     </g>
    </g>
    <g id="text_41">
     <!-- Time [s] -->
     <g transform="translate(1433.454375 3231.592572)scale(0.26 -0.26)">
      <use xlink:href="#DejaVuSans-84"/>
      <use x="61.037109" xlink:href="#DejaVuSans-105"/>
      <use x="88.820312" xlink:href="#DejaVuSans-109"/>
      <use x="186.232422" xlink:href="#DejaVuSans-101"/>
      <use x="247.755859" xlink:href="#DejaVuSans-32"/>
      <use x="279.542969" xlink:href="#DejaVuSans-91"/>
      <use x="318.556641" xlink:href="#DejaVuSans-115"/>
      <use x="370.65625" xlink:href="#DejaVuSans-93"/>
     </g>
    </g>
   </g>
   <g id="matplotlib.axis_6">
    <g id="ytick_17">
     <g id="line2d_59">
      <g>
       <use style="stroke:#000000;stroke-width:0.8;" x="96.419615" xlink:href="#m22b0310285" y="3105.976326"/>
      </g>
     </g>
     <g id="text_42">
      <!-- 0.40 -->
      <g transform="translate(44.888365 3113.574763)scale(0.2 -0.2)">
       <use xlink:href="#DejaVuSans-48"/>
       <use x="63.623047" xlink:href="#DejaVuSans-46"/>
       <use x="95.410156" xlink:href="#DejaVuSans-52"/>
       <use x="159.033203" xlink:href="#DejaVuSans-48"/>
      </g>
     </g>
    </g>
    <g id="ytick_18">
     <g id="line2d_60">
      <g>
       <use style="stroke:#000000;stroke-width:0.8;" x="96.419615" xlink:href="#m22b0310285" y="2993.967276"/>
      </g>
     </g>
     <g id="text_43">
      <!-- 0.41 -->
      <g transform="translate(44.888365 3001.565713)scale(0.2 -0.2)">
       <use xlink:href="#DejaVuSans-48"/>
       <use x="63.623047" xlink:href="#DejaVuSans-46"/>
       <use x="95.410156" xlink:href="#DejaVuSans-52"/>
       <use x="159.033203" xlink:href="#DejaVuSans-49"/>
      </g>
     </g>
    </g>
    <g id="ytick_19">
     <g id="line2d_61">
      <g>
       <use style="stroke:#000000;stroke-width:0.8;" x="96.419615" xlink:href="#m22b0310285" y="2881.958226"/>
      </g>
     </g>
     <g id="text_44">
      <!-- 0.42 -->
      <g transform="translate(44.888365 2889.556663)scale(0.2 -0.2)">
       <use xlink:href="#DejaVuSans-48"/>
       <use x="63.623047" xlink:href="#DejaVuSans-46"/>
       <use x="95.410156" xlink:href="#DejaVuSans-52"/>
       <use x="159.033203" xlink:href="#DejaVuSans-50"/>
      </g>
     </g>
    </g>
    <g id="ytick_20">
     <g id="line2d_62">
      <g>
       <use style="stroke:#000000;stroke-width:0.8;" x="96.419615" xlink:href="#m22b0310285" y="2769.949176"/>
      </g>
     </g>
     <g id="text_45">
      <!-- 0.43 -->
      <g transform="translate(44.888365 2777.547613)scale(0.2 -0.2)">
       <use xlink:href="#DejaVuSans-48"/>
       <use x="63.623047" xlink:href="#DejaVuSans-46"/>
       <use x="95.410156" xlink:href="#DejaVuSans-52"/>
       <use x="159.033203" xlink:href="#DejaVuSans-51"/>
      </g>
     </g>
    </g>
    <g id="ytick_21">
     <g id="line2d_63">
      <g>
       <use style="stroke:#000000;stroke-width:0.8;" x="96.419615" xlink:href="#m22b0310285" y="2657.940125"/>
      </g>
     </g>
     <g id="text_46">
      <!-- 0.44 -->
      <g transform="translate(44.888365 2665.538563)scale(0.2 -0.2)">
       <use xlink:href="#DejaVuSans-48"/>
       <use x="63.623047" xlink:href="#DejaVuSans-46"/>
       <use x="95.410156" xlink:href="#DejaVuSans-52"/>
       <use x="159.033203" xlink:href="#DejaVuSans-52"/>
      </g>
     </g>
    </g>
    <g id="ytick_22">
     <g id="line2d_64">
      <g>
       <use style="stroke:#000000;stroke-width:0.8;" x="96.419615" xlink:href="#m22b0310285" y="2545.931075"/>
      </g>
     </g>
     <g id="text_47">
      <!-- 0.45 -->
      <g transform="translate(44.888365 2553.529513)scale(0.2 -0.2)">
       <use xlink:href="#DejaVuSans-48"/>
       <use x="63.623047" xlink:href="#DejaVuSans-46"/>
       <use x="95.410156" xlink:href="#DejaVuSans-52"/>
       <use x="159.033203" xlink:href="#DejaVuSans-53"/>
      </g>
     </g>
    </g>
    <g id="ytick_23">
     <g id="line2d_65">
      <g>
       <use style="stroke:#000000;stroke-width:0.8;" x="96.419615" xlink:href="#m22b0310285" y="2433.922025"/>
      </g>
     </g>
     <g id="text_48">
      <!-- 0.46 -->
      <g transform="translate(44.888365 2441.520463)scale(0.2 -0.2)">
       <use xlink:href="#DejaVuSans-48"/>
       <use x="63.623047" xlink:href="#DejaVuSans-46"/>
       <use x="95.410156" xlink:href="#DejaVuSans-52"/>
       <use x="159.033203" xlink:href="#DejaVuSans-54"/>
      </g>
     </g>
    </g>
    <g id="ytick_24">
     <g id="line2d_66">
      <g>
       <use style="stroke:#000000;stroke-width:0.8;" x="96.419615" xlink:href="#m22b0310285" y="2321.912975"/>
      </g>
     </g>
     <g id="text_49">
      <!-- 0.47 -->
      <g transform="translate(44.888365 2329.511413)scale(0.2 -0.2)">
       <use xlink:href="#DejaVuSans-48"/>
       <use x="63.623047" xlink:href="#DejaVuSans-46"/>
       <use x="95.410156" xlink:href="#DejaVuSans-52"/>
       <use x="159.033203" xlink:href="#DejaVuSans-55"/>
      </g>
     </g>
    </g>
    <g id="text_50">
     <!-- Length [m] -->
     <g transform="translate(35.481177 2788.231795)rotate(-90)scale(0.26 -0.26)">
      <use xlink:href="#DejaVuSans-76"/>
      <use x="55.697266" xlink:href="#DejaVuSans-101"/>
      <use x="117.220703" xlink:href="#DejaVuSans-110"/>
      <use x="180.599609" xlink:href="#DejaVuSans-103"/>
      <use x="244.076172" xlink:href="#DejaVuSans-116"/>
      <use x="283.285156" xlink:href="#DejaVuSans-104"/>
      <use x="346.664062" xlink:href="#DejaVuSans-32"/>
      <use x="378.451172" xlink:href="#DejaVuSans-91"/>
      <use x="417.464844" xlink:href="#DejaVuSans-109"/>
      <use x="514.876953" xlink:href="#DejaVuSans-93"/>
     </g>
    </g>
   </g>
   <g id="line2d_67">
    <path clip-path="url(#p63927bddf7)" d="M 222.809622 2925.109375 
L 1302.050879 2925.198503 
L 2750.609753 2925.198503 
L 2750.609753 2925.198503 
" style="fill:none;stroke:#386df9;stroke-dasharray:9.6,2.4,1.5,2.4;stroke-dashoffset:0;stroke-width:1.5;"/>
   </g>
   <g id="line2d_68">
    <path clip-path="url(#p63927bddf7)" d="M 222.809622 2924.996023 
L 372.074317 2925.045784 
L 388.648862 2925.397154 
L 421.813644 2925.39734 
L 471.576085 2925.343376 
L 488.134327 2925.190928 
L 504.734541 2924.867668 
L 588.951917 2925.04772 
L 605.542764 2925.38136 
L 622.130933 2925.448269 
L 688.4886 2925.354065 
L 738.197878 2925.257737 
L 771.430787 2925.068925 
L 787.924552 2925.095482 
L 804.545447 2925.364316 
L 837.693076 2925.395559 
L 1003.568812 2925.312839 
L 1053.310693 2925.358391 
L 1401.540603 2925.343787 
L 1784.274718 2925.360428 
L 2750.609753 2925.349534 
L 2750.609753 2925.349534 
" style="fill:none;stroke:#386df9;stroke-linecap:square;stroke-width:3;"/>
   </g>
   <g id="line2d_69">
    <path clip-path="url(#p63927bddf7)" d="M 222.809622 2293.26883 
L 338.883987 2293.267495 
L 372.074317 2293.443081 
L 638.72628 2293.44475 
L 2750.609753 2293.446419 
L 2750.609753 2293.446419 
" style="fill:none;stroke:#5af8c8;stroke-dasharray:9.6,2.4,1.5,2.4;stroke-dashoffset:0;stroke-width:1.5;"/>
   </g>
   <g id="line2d_70">
    <path clip-path="url(#p63927bddf7)" d="M 222.809622 2293.609367 
L 372.074317 2293.651298 
L 388.648862 2293.94579 
L 421.813644 2293.946974 
L 488.134327 2293.773185 
L 504.734541 2293.501746 
L 588.951917 2293.652927 
L 605.542764 2293.932551 
L 638.72628 2293.948113 
L 754.823517 2293.740002 
L 787.924552 2293.693395 
L 804.545447 2293.918531 
L 837.693076 2293.945572 
L 1003.568812 2293.875326 
L 1069.878182 2293.918063 
L 1600.550464 2293.910957 
L 1951.771631 2293.905334 
L 2417.573724 2293.908435 
L 2750.609753 2293.906588 
L 2750.609753 2293.906588 
" style="fill:none;stroke:#5af8c8;stroke-linecap:square;stroke-width:3;"/>
   </g>
   <g id="line2d_71">
    <path clip-path="url(#p63927bddf7)" d="M 222.809622 3007.313493 
L 338.883987 3007.313826 
L 372.074317 3007.524462 
L 471.576085 3007.537815 
L 1501.043952 3007.54349 
L 2750.609753 3007.54349 
L 2750.609753 3007.54349 
" style="fill:none;stroke:#ecc86f;stroke-dasharray:9.6,2.4,1.5,2.4;stroke-dashoffset:0;stroke-width:1.5;"/>
   </g>
   <g id="line2d_72">
    <path clip-path="url(#p63927bddf7)" d="M 222.809622 3008.17821 
L 372.074317 3008.098843 
L 388.648862 3007.53466 
L 405.204306 3007.457096 
L 454.978061 3007.593473 
L 471.576085 3007.623329 
L 488.134327 3007.866886 
L 504.734541 3008.385063 
L 588.951917 3008.095444 
L 605.542764 3007.559922 
L 622.130933 3007.455105 
L 671.891063 3007.591112 
L 738.197878 3007.759359 
L 771.430787 3008.062711 
L 787.924552 3008.020132 
L 804.545447 3007.588144 
L 821.159286 3007.477992 
L 870.892287 3007.576379 
L 1219.101636 3007.633476 
L 2717.443998 3007.610351 
L 2750.609753 3007.613474 
L 2750.609753 3007.613474 
" style="fill:none;stroke:#ecc86f;stroke-linecap:square;stroke-width:3;"/>
   </g>
   <g id="line2d_73">
    <path clip-path="url(#p63927bddf7)" d="M 222.809622 3139.1556 
L 338.883987 3139.157269 
L 372.074317 3138.956648 
L 522.882451 3138.94196 
L 1517.594044 3138.953643 
L 2750.609753 3138.953643 
L 2750.609753 3138.953643 
" style="fill:none;stroke:#ff0000;stroke-dasharray:9.6,2.4,1.5,2.4;stroke-dashoffset:0;stroke-width:1.5;"/>
   </g>
   <g id="line2d_74">
    <path clip-path="url(#p63927bddf7)" d="M 222.809622 3139.018316 
L 372.074317 3138.953742 
L 388.648862 3138.499641 
L 405.204306 3138.434688 
L 454.978061 3138.543307 
L 471.576085 3138.568562 
L 488.134327 3138.765791 
L 504.734541 3139.184533 
L 588.951917 3138.95126 
L 605.542764 3138.520035 
L 622.130933 3138.433069 
L 671.891063 3138.541003 
L 738.197878 3138.679413 
L 771.430787 3138.923494 
L 787.924552 3138.889115 
L 804.545447 3138.541825 
L 821.159286 3138.451327 
L 870.892287 3138.528056 
L 1252.263377 3138.572466 
L 1451.289905 3138.575986 
L 2750.609753 3138.560539 
L 2750.609753 3138.560539 
" style="fill:none;stroke:#ff0000;stroke-linecap:square;stroke-width:3;"/>
   </g>
   <g id="patch_13">
    <path d="M 96.419615 3181.480385 
L 96.419615 2250.971643 
" style="fill:none;stroke:#000000;stroke-linecap:square;stroke-linejoin:miter;stroke-width:0.8;"/>
   </g>
   <g id="patch_14">
    <path d="M 2876.99976 3181.480385 
L 2876.99976 2250.971643 
" style="fill:none;stroke:#000000;stroke-linecap:square;stroke-linejoin:miter;stroke-width:0.8;"/>
   </g>
   <g id="patch_15">
    <path d="M 96.419615 3181.480385 
L 2876.99976 3181.480385 
" style="fill:none;stroke:#000000;stroke-linecap:square;stroke-linejoin:miter;stroke-width:0.8;"/>
   </g>
   <g id="patch_16">
    <path d="M 96.419615 2250.971643 
L 2876.99976 2250.971643 
" style="fill:none;stroke:#000000;stroke-linecap:square;stroke-linejoin:miter;stroke-width:0.8;"/>
   </g>
   <g id="text_51">
    <!-- Shoulder Tendons [1, 3, 5, 7] -->
    <g transform="translate(1238.855 2243.900706)scale(0.34 -0.34)">
     <use xlink:href="#DejaVuSans-83"/>
     <use x="63.476562" xlink:href="#DejaVuSans-104"/>
     <use x="126.855469" xlink:href="#DejaVuSans-111"/>
     <use x="188.037109" xlink:href="#DejaVuSans-117"/>
     <use x="251.416016" xlink:href="#DejaVuSans-108"/>
     <use x="279.199219" xlink:href="#DejaVuSans-100"/>
     <use x="342.675781" xlink:href="#DejaVuSans-101"/>
     <use x="404.199219" xlink:href="#DejaVuSans-114"/>
     <use x="445.3125" xlink:href="#DejaVuSans-32"/>
     <use x="477.099609" xlink:href="#DejaVuSans-84"/>
     <use x="537.917969" xlink:href="#DejaVuSans-101"/>
     <use x="599.441406" xlink:href="#DejaVuSans-110"/>
     <use x="662.820312" xlink:href="#DejaVuSans-100"/>
     <use x="726.296875" xlink:href="#DejaVuSans-111"/>
     <use x="787.478516" xlink:href="#DejaVuSans-110"/>
     <use x="850.857422" xlink:href="#DejaVuSans-115"/>
     <use x="902.957031" xlink:href="#DejaVuSans-32"/>
     <use x="934.744141" xlink:href="#DejaVuSans-91"/>
     <use x="973.757812" xlink:href="#DejaVuSans-49"/>
     <use x="1037.380859" xlink:href="#DejaVuSans-44"/>
     <use x="1069.167969" xlink:href="#DejaVuSans-32"/>
     <use x="1100.955078" xlink:href="#DejaVuSans-51"/>
     <use x="1164.578125" xlink:href="#DejaVuSans-44"/>
     <use x="1196.365234" xlink:href="#DejaVuSans-32"/>
     <use x="1228.152344" xlink:href="#DejaVuSans-53"/>
     <use x="1291.775391" xlink:href="#DejaVuSans-44"/>
     <use x="1323.5625" xlink:href="#DejaVuSans-32"/>
     <use x="1355.349609" xlink:href="#DejaVuSans-55"/>
     <use x="1418.972656" xlink:href="#DejaVuSans-93"/>
    </g>
   </g>
  </g>
  <g id="text_52">
   <!-- Setpoints (- -) and Lenghts () - P20000 I0 D0 -->
   <defs>
    <path d="M 18.109375 8.203125 
L 18.109375 -20.796875 
L 9.078125 -20.796875 
L 9.078125 54.6875 
L 18.109375 54.6875 
L 18.109375 46.390625 
Q 20.953125 51.265625 25.265625 53.625 
Q 29.59375 56 35.59375 56 
Q 45.5625 56 51.78125 48.09375 
Q 58.015625 40.1875 58.015625 27.296875 
Q 58.015625 14.40625 51.78125 6.484375 
Q 45.5625 -1.421875 35.59375 -1.421875 
Q 29.59375 -1.421875 25.265625 0.953125 
Q 20.953125 3.328125 18.109375 8.203125 
z
M 48.6875 27.296875 
Q 48.6875 37.203125 44.609375 42.84375 
Q 40.53125 48.484375 33.40625 48.484375 
Q 26.265625 48.484375 22.1875 42.84375 
Q 18.109375 37.203125 18.109375 27.296875 
Q 18.109375 17.390625 22.1875 11.75 
Q 26.265625 6.109375 33.40625 6.109375 
Q 40.53125 6.109375 44.609375 11.75 
Q 48.6875 17.390625 48.6875 27.296875 
z
" id="DejaVuSans-112"/>
    <path d="M 31 75.875 
Q 24.46875 64.65625 21.28125 53.65625 
Q 18.109375 42.671875 18.109375 31.390625 
Q 18.109375 20.125 21.3125 9.0625 
Q 24.515625 -2 31 -13.1875 
L 23.1875 -13.1875 
Q 15.875 -1.703125 12.234375 9.375 
Q 8.59375 20.453125 8.59375 31.390625 
Q 8.59375 42.28125 12.203125 53.3125 
Q 15.828125 64.359375 23.1875 75.875 
z
" id="DejaVuSans-40"/>
    <path d="M 4.890625 31.390625 
L 31.203125 31.390625 
L 31.203125 23.390625 
L 4.890625 23.390625 
z
" id="DejaVuSans-45"/>
    <path d="M 8.015625 75.875 
L 15.828125 75.875 
Q 23.140625 64.359375 26.78125 53.3125 
Q 30.421875 42.28125 30.421875 31.390625 
Q 30.421875 20.453125 26.78125 9.375 
Q 23.140625 -1.703125 15.828125 -13.1875 
L 8.015625 -13.1875 
Q 14.5 -2 17.703125 9.0625 
Q 20.90625 20.125 20.90625 31.390625 
Q 20.90625 42.671875 17.703125 53.65625 
Q 14.5 64.65625 8.015625 75.875 
z
" id="DejaVuSans-41"/>
    <path d="M 34.28125 27.484375 
Q 23.390625 27.484375 19.1875 25 
Q 14.984375 22.515625 14.984375 16.5 
Q 14.984375 11.71875 18.140625 8.90625 
Q 21.296875 6.109375 26.703125 6.109375 
Q 34.1875 6.109375 38.703125 11.40625 
Q 43.21875 16.703125 43.21875 25.484375 
L 43.21875 27.484375 
z
M 52.203125 31.203125 
L 52.203125 0 
L 43.21875 0 
L 43.21875 8.296875 
Q 40.140625 3.328125 35.546875 0.953125 
Q 30.953125 -1.421875 24.3125 -1.421875 
Q 15.921875 -1.421875 10.953125 3.296875 
Q 6 8.015625 6 15.921875 
Q 6 25.140625 12.171875 29.828125 
Q 18.359375 34.515625 30.609375 34.515625 
L 43.21875 34.515625 
L 43.21875 35.40625 
Q 43.21875 41.609375 39.140625 45 
Q 35.0625 48.390625 27.6875 48.390625 
Q 23 48.390625 18.546875 47.265625 
Q 14.109375 46.140625 10.015625 43.890625 
L 10.015625 52.203125 
Q 14.9375 54.109375 19.578125 55.046875 
Q 24.21875 56 28.609375 56 
Q 40.484375 56 46.34375 49.84375 
Q 52.203125 43.703125 52.203125 31.203125 
z
" id="DejaVuSans-97"/>
    <path d="M 0 30.90625 
L 100 30.90625 
L 100 23.875 
L 0 23.875 
z
" id="DejaVuSans-8213"/>
    <path d="M 19.671875 64.796875 
L 19.671875 37.40625 
L 32.078125 37.40625 
Q 38.96875 37.40625 42.71875 40.96875 
Q 46.484375 44.53125 46.484375 51.125 
Q 46.484375 57.671875 42.71875 61.234375 
Q 38.96875 64.796875 32.078125 64.796875 
z
M 9.8125 72.90625 
L 32.078125 72.90625 
Q 44.34375 72.90625 50.609375 67.359375 
Q 56.890625 61.8125 56.890625 51.125 
Q 56.890625 40.328125 50.609375 34.8125 
Q 44.34375 29.296875 32.078125 29.296875 
L 19.671875 29.296875 
L 19.671875 0 
L 9.8125 0 
z
" id="DejaVuSans-80"/>
    <path d="M 9.8125 72.90625 
L 19.671875 72.90625 
L 19.671875 0 
L 9.8125 0 
z
" id="DejaVuSans-73"/>
    <path d="M 19.671875 64.796875 
L 19.671875 8.109375 
L 31.59375 8.109375 
Q 46.6875 8.109375 53.6875 14.9375 
Q 60.6875 21.78125 60.6875 36.53125 
Q 60.6875 51.171875 53.6875 57.984375 
Q 46.6875 64.796875 31.59375 64.796875 
z
M 9.8125 72.90625 
L 30.078125 72.90625 
Q 51.265625 72.90625 61.171875 64.09375 
Q 71.09375 55.28125 71.09375 36.53125 
Q 71.09375 17.671875 61.125 8.828125 
Q 51.171875 0 30.078125 0 
L 9.8125 0 
z
" id="DejaVuSans-68"/>
   </defs>
   <g transform="translate(1050.875312 28.834928)scale(0.34 -0.34)">
    <use xlink:href="#DejaVuSans-83"/>
    <use x="63.476562" xlink:href="#DejaVuSans-101"/>
    <use x="125" xlink:href="#DejaVuSans-116"/>
    <use x="164.208984" xlink:href="#DejaVuSans-112"/>
    <use x="227.685547" xlink:href="#DejaVuSans-111"/>
    <use x="288.867188" xlink:href="#DejaVuSans-105"/>
    <use x="316.650391" xlink:href="#DejaVuSans-110"/>
    <use x="380.029297" xlink:href="#DejaVuSans-116"/>
    <use x="419.238281" xlink:href="#DejaVuSans-115"/>
    <use x="471.337891" xlink:href="#DejaVuSans-32"/>
    <use x="503.125" xlink:href="#DejaVuSans-40"/>
    <use x="542.138672" xlink:href="#DejaVuSans-45"/>
    <use x="578.222656" xlink:href="#DejaVuSans-45"/>
    <use x="614.306641" xlink:href="#DejaVuSans-41"/>
    <use x="653.320312" xlink:href="#DejaVuSans-32"/>
    <use x="685.107422" xlink:href="#DejaVuSans-97"/>
    <use x="746.386719" xlink:href="#DejaVuSans-110"/>
    <use x="809.765625" xlink:href="#DejaVuSans-100"/>
    <use x="873.242188" xlink:href="#DejaVuSans-32"/>
    <use x="905.029297" xlink:href="#DejaVuSans-76"/>
    <use x="960.726562" xlink:href="#DejaVuSans-101"/>
    <use x="1022.25" xlink:href="#DejaVuSans-110"/>
    <use x="1085.628906" xlink:href="#DejaVuSans-103"/>
    <use x="1149.105469" xlink:href="#DejaVuSans-104"/>
    <use x="1212.484375" xlink:href="#DejaVuSans-116"/>
    <use x="1251.693359" xlink:href="#DejaVuSans-115"/>
    <use x="1303.792969" xlink:href="#DejaVuSans-32"/>
    <use x="1335.580078" xlink:href="#DejaVuSans-40"/>
    <use x="1374.59375" xlink:href="#DejaVuSans-8213"/>
    <use x="1474.59375" xlink:href="#DejaVuSans-41"/>
    <use x="1513.607422" xlink:href="#DejaVuSans-32"/>
    <use x="1545.394531" xlink:href="#DejaVuSans-45"/>
    <use x="1581.478516" xlink:href="#DejaVuSans-32"/>
    <use x="1613.265625" xlink:href="#DejaVuSans-80"/>
    <use x="1673.568359" xlink:href="#DejaVuSans-50"/>
    <use x="1737.191406" xlink:href="#DejaVuSans-48"/>
    <use x="1800.814453" xlink:href="#DejaVuSans-48"/>
    <use x="1864.4375" xlink:href="#DejaVuSans-48"/>
    <use x="1928.060547" xlink:href="#DejaVuSans-48"/>
    <use x="1991.683594" xlink:href="#DejaVuSans-32"/>
    <use x="2023.470703" xlink:href="#DejaVuSans-73"/>
    <use x="2052.962891" xlink:href="#DejaVuSans-48"/>
    <use x="2116.585938" xlink:href="#DejaVuSans-32"/>
    <use x="2148.373047" xlink:href="#DejaVuSans-68"/>
    <use x="2225.375" xlink:href="#DejaVuSans-48"/>
   </g>
   <!-- Bagfile elbow_left_c from 35s for 5s - Logging Rate 30 - Simulation Rate 800 - 99.04% real time speed -->
   <defs>
    <path d="M 19.671875 34.8125 
L 19.671875 8.109375 
L 35.5 8.109375 
Q 43.453125 8.109375 47.28125 11.40625 
Q 51.125 14.703125 51.125 21.484375 
Q 51.125 28.328125 47.28125 31.5625 
Q 43.453125 34.8125 35.5 34.8125 
z
M 19.671875 64.796875 
L 19.671875 42.828125 
L 34.28125 42.828125 
Q 41.5 42.828125 45.03125 45.53125 
Q 48.578125 48.25 48.578125 53.8125 
Q 48.578125 59.328125 45.03125 62.0625 
Q 41.5 64.796875 34.28125 64.796875 
z
M 9.8125 72.90625 
L 35.015625 72.90625 
Q 46.296875 72.90625 52.390625 68.21875 
Q 58.5 63.53125 58.5 54.890625 
Q 58.5 48.1875 55.375 44.234375 
Q 52.25 40.28125 46.1875 39.3125 
Q 53.46875 37.75 57.5 32.78125 
Q 61.53125 27.828125 61.53125 20.40625 
Q 61.53125 10.640625 54.890625 5.3125 
Q 48.25 0 35.984375 0 
L 9.8125 0 
z
" id="DejaVuSans-66"/>
    <path d="M 37.109375 75.984375 
L 37.109375 68.5 
L 28.515625 68.5 
Q 23.6875 68.5 21.796875 66.546875 
Q 19.921875 64.59375 19.921875 59.515625 
L 19.921875 54.6875 
L 34.71875 54.6875 
L 34.71875 47.703125 
L 19.921875 47.703125 
L 19.921875 0 
L 10.890625 0 
L 10.890625 47.703125 
L 2.296875 47.703125 
L 2.296875 54.6875 
L 10.890625 54.6875 
L 10.890625 58.5 
Q 10.890625 67.625 15.140625 71.796875 
Q 19.390625 75.984375 28.609375 75.984375 
z
" id="DejaVuSans-102"/>
    <path d="M 48.6875 27.296875 
Q 48.6875 37.203125 44.609375 42.84375 
Q 40.53125 48.484375 33.40625 48.484375 
Q 26.265625 48.484375 22.1875 42.84375 
Q 18.109375 37.203125 18.109375 27.296875 
Q 18.109375 17.390625 22.1875 11.75 
Q 26.265625 6.109375 33.40625 6.109375 
Q 40.53125 6.109375 44.609375 11.75 
Q 48.6875 17.390625 48.6875 27.296875 
z
M 18.109375 46.390625 
Q 20.953125 51.265625 25.265625 53.625 
Q 29.59375 56 35.59375 56 
Q 45.5625 56 51.78125 48.09375 
Q 58.015625 40.1875 58.015625 27.296875 
Q 58.015625 14.40625 51.78125 6.484375 
Q 45.5625 -1.421875 35.59375 -1.421875 
Q 29.59375 -1.421875 25.265625 0.953125 
Q 20.953125 3.328125 18.109375 8.203125 
L 18.109375 0 
L 9.078125 0 
L 9.078125 75.984375 
L 18.109375 75.984375 
z
" id="DejaVuSans-98"/>
    <path d="M 4.203125 54.6875 
L 13.1875 54.6875 
L 24.421875 12.015625 
L 35.59375 54.6875 
L 46.1875 54.6875 
L 57.421875 12.015625 
L 68.609375 54.6875 
L 77.59375 54.6875 
L 63.28125 0 
L 52.6875 0 
L 40.921875 44.828125 
L 29.109375 0 
L 18.5 0 
z
" id="DejaVuSans-119"/>
    <path d="M 50.984375 -16.609375 
L 50.984375 -23.578125 
L -0.984375 -23.578125 
L -0.984375 -16.609375 
z
" id="DejaVuSans-95"/>
    <path d="M 48.78125 52.59375 
L 48.78125 44.1875 
Q 44.96875 46.296875 41.140625 47.34375 
Q 37.3125 48.390625 33.40625 48.390625 
Q 24.65625 48.390625 19.8125 42.84375 
Q 14.984375 37.3125 14.984375 27.296875 
Q 14.984375 17.28125 19.8125 11.734375 
Q 24.65625 6.203125 33.40625 6.203125 
Q 37.3125 6.203125 41.140625 7.25 
Q 44.96875 8.296875 48.78125 10.40625 
L 48.78125 2.09375 
Q 45.015625 0.34375 40.984375 -0.53125 
Q 36.96875 -1.421875 32.421875 -1.421875 
Q 20.0625 -1.421875 12.78125 6.34375 
Q 5.515625 14.109375 5.515625 27.296875 
Q 5.515625 40.671875 12.859375 48.328125 
Q 20.21875 56 33.015625 56 
Q 37.15625 56 41.109375 55.140625 
Q 45.0625 54.296875 48.78125 52.59375 
z
" id="DejaVuSans-99"/>
    <path d="M 44.390625 34.1875 
Q 47.5625 33.109375 50.5625 29.59375 
Q 53.5625 26.078125 56.59375 19.921875 
L 66.609375 0 
L 56 0 
L 46.6875 18.703125 
Q 43.0625 26.03125 39.671875 28.421875 
Q 36.28125 30.8125 30.421875 30.8125 
L 19.671875 30.8125 
L 19.671875 0 
L 9.8125 0 
L 9.8125 72.90625 
L 32.078125 72.90625 
Q 44.578125 72.90625 50.734375 67.671875 
Q 56.890625 62.453125 56.890625 51.90625 
Q 56.890625 45.015625 53.6875 40.46875 
Q 50.484375 35.9375 44.390625 34.1875 
z
M 19.671875 64.796875 
L 19.671875 38.921875 
L 32.078125 38.921875 
Q 39.203125 38.921875 42.84375 42.21875 
Q 46.484375 45.515625 46.484375 51.90625 
Q 46.484375 58.296875 42.84375 61.546875 
Q 39.203125 64.796875 32.078125 64.796875 
z
" id="DejaVuSans-82"/>
    <path d="M 72.703125 32.078125 
Q 68.453125 32.078125 66.03125 28.46875 
Q 63.625 24.859375 63.625 18.40625 
Q 63.625 12.0625 66.03125 8.421875 
Q 68.453125 4.78125 72.703125 4.78125 
Q 76.859375 4.78125 79.265625 8.421875 
Q 81.6875 12.0625 81.6875 18.40625 
Q 81.6875 24.8125 79.265625 28.4375 
Q 76.859375 32.078125 72.703125 32.078125 
z
M 72.703125 38.28125 
Q 80.421875 38.28125 84.953125 32.90625 
Q 89.5 27.546875 89.5 18.40625 
Q 89.5 9.28125 84.9375 3.921875 
Q 80.375 -1.421875 72.703125 -1.421875 
Q 64.890625 -1.421875 60.34375 3.921875 
Q 55.8125 9.28125 55.8125 18.40625 
Q 55.8125 27.59375 60.375 32.9375 
Q 64.9375 38.28125 72.703125 38.28125 
z
M 22.3125 68.015625 
Q 18.109375 68.015625 15.6875 64.375 
Q 13.28125 60.75 13.28125 54.390625 
Q 13.28125 47.953125 15.671875 44.328125 
Q 18.0625 40.71875 22.3125 40.71875 
Q 26.5625 40.71875 28.96875 44.328125 
Q 31.390625 47.953125 31.390625 54.390625 
Q 31.390625 60.6875 28.953125 64.34375 
Q 26.515625 68.015625 22.3125 68.015625 
z
M 66.40625 74.21875 
L 74.21875 74.21875 
L 28.609375 -1.421875 
L 20.796875 -1.421875 
z
M 22.3125 74.21875 
Q 30.03125 74.21875 34.609375 68.875 
Q 39.203125 63.53125 39.203125 54.390625 
Q 39.203125 45.171875 34.640625 39.84375 
Q 30.078125 34.515625 22.3125 34.515625 
Q 14.546875 34.515625 10.03125 39.859375 
Q 5.515625 45.21875 5.515625 54.390625 
Q 5.515625 63.484375 10.046875 68.84375 
Q 14.59375 74.21875 22.3125 74.21875 
z
" id="DejaVuSans-37"/>
   </defs>
   <g transform="translate(569.414062 66.90749)scale(0.34 -0.34)">
    <use xlink:href="#DejaVuSans-66"/>
    <use x="68.603516" xlink:href="#DejaVuSans-97"/>
    <use x="129.882812" xlink:href="#DejaVuSans-103"/>
    <use x="193.359375" xlink:href="#DejaVuSans-102"/>
    <use x="228.564453" xlink:href="#DejaVuSans-105"/>
    <use x="256.347656" xlink:href="#DejaVuSans-108"/>
    <use x="284.130859" xlink:href="#DejaVuSans-101"/>
    <use x="345.654297" xlink:href="#DejaVuSans-32"/>
    <use x="377.441406" xlink:href="#DejaVuSans-101"/>
    <use x="438.964844" xlink:href="#DejaVuSans-108"/>
    <use x="466.748047" xlink:href="#DejaVuSans-98"/>
    <use x="530.224609" xlink:href="#DejaVuSans-111"/>
    <use x="591.40625" xlink:href="#DejaVuSans-119"/>
    <use x="673.193359" xlink:href="#DejaVuSans-95"/>
    <use x="723.193359" xlink:href="#DejaVuSans-108"/>
    <use x="750.976562" xlink:href="#DejaVuSans-101"/>
    <use x="812.5" xlink:href="#DejaVuSans-102"/>
    <use x="847.689453" xlink:href="#DejaVuSans-116"/>
    <use x="886.898438" xlink:href="#DejaVuSans-95"/>
    <use x="936.898438" xlink:href="#DejaVuSans-99"/>
    <use x="991.878906" xlink:href="#DejaVuSans-32"/>
    <use x="1023.666016" xlink:href="#DejaVuSans-102"/>
    <use x="1058.871094" xlink:href="#DejaVuSans-114"/>
    <use x="1099.953125" xlink:href="#DejaVuSans-111"/>
    <use x="1161.134766" xlink:href="#DejaVuSans-109"/>
    <use x="1258.546875" xlink:href="#DejaVuSans-32"/>
    <use x="1290.333984" xlink:href="#DejaVuSans-51"/>
    <use x="1353.957031" xlink:href="#DejaVuSans-53"/>
    <use x="1417.580078" xlink:href="#DejaVuSans-115"/>
    <use x="1469.679688" xlink:href="#DejaVuSans-32"/>
    <use x="1501.466797" xlink:href="#DejaVuSans-102"/>
    <use x="1536.671875" xlink:href="#DejaVuSans-111"/>
    <use x="1597.853516" xlink:href="#DejaVuSans-114"/>
    <use x="1638.966797" xlink:href="#DejaVuSans-32"/>
    <use x="1670.753906" xlink:href="#DejaVuSans-53"/>
    <use x="1734.376953" xlink:href="#DejaVuSans-115"/>
    <use x="1786.476562" xlink:href="#DejaVuSans-32"/>
    <use x="1818.263672" xlink:href="#DejaVuSans-45"/>
    <use x="1854.347656" xlink:href="#DejaVuSans-32"/>
    <use x="1886.134766" xlink:href="#DejaVuSans-76"/>
    <use x="1941.832031" xlink:href="#DejaVuSans-111"/>
    <use x="2003.013672" xlink:href="#DejaVuSans-103"/>
    <use x="2066.490234" xlink:href="#DejaVuSans-103"/>
    <use x="2129.966797" xlink:href="#DejaVuSans-105"/>
    <use x="2157.75" xlink:href="#DejaVuSans-110"/>
    <use x="2221.128906" xlink:href="#DejaVuSans-103"/>
    <use x="2284.605469" xlink:href="#DejaVuSans-32"/>
    <use x="2316.392578" xlink:href="#DejaVuSans-82"/>
    <use x="2385.84375" xlink:href="#DejaVuSans-97"/>
    <use x="2447.123047" xlink:href="#DejaVuSans-116"/>
    <use x="2486.332031" xlink:href="#DejaVuSans-101"/>
    <use x="2547.855469" xlink:href="#DejaVuSans-32"/>
    <use x="2579.642578" xlink:href="#DejaVuSans-51"/>
    <use x="2643.265625" xlink:href="#DejaVuSans-48"/>
    <use x="2706.888672" xlink:href="#DejaVuSans-32"/>
    <use x="2738.675781" xlink:href="#DejaVuSans-45"/>
    <use x="2774.759766" xlink:href="#DejaVuSans-32"/>
    <use x="2806.546875" xlink:href="#DejaVuSans-83"/>
    <use x="2870.023438" xlink:href="#DejaVuSans-105"/>
    <use x="2897.806641" xlink:href="#DejaVuSans-109"/>
    <use x="2995.21875" xlink:href="#DejaVuSans-117"/>
    <use x="3058.597656" xlink:href="#DejaVuSans-108"/>
    <use x="3086.380859" xlink:href="#DejaVuSans-97"/>
    <use x="3147.660156" xlink:href="#DejaVuSans-116"/>
    <use x="3186.869141" xlink:href="#DejaVuSans-105"/>
    <use x="3214.652344" xlink:href="#DejaVuSans-111"/>
    <use x="3275.833984" xlink:href="#DejaVuSans-110"/>
    <use x="3339.212891" xlink:href="#DejaVuSans-32"/>
    <use x="3371" xlink:href="#DejaVuSans-82"/>
    <use x="3440.451172" xlink:href="#DejaVuSans-97"/>
    <use x="3501.730469" xlink:href="#DejaVuSans-116"/>
    <use x="3540.939453" xlink:href="#DejaVuSans-101"/>
    <use x="3602.462891" xlink:href="#DejaVuSans-32"/>
    <use x="3634.25" xlink:href="#DejaVuSans-56"/>
    <use x="3697.873047" xlink:href="#DejaVuSans-48"/>
    <use x="3761.496094" xlink:href="#DejaVuSans-48"/>
    <use x="3825.119141" xlink:href="#DejaVuSans-32"/>
    <use x="3856.90625" xlink:href="#DejaVuSans-45"/>
    <use x="3892.990234" xlink:href="#DejaVuSans-32"/>
    <use x="3924.777344" xlink:href="#DejaVuSans-57"/>
    <use x="3988.400391" xlink:href="#DejaVuSans-57"/>
    <use x="4052.023438" xlink:href="#DejaVuSans-46"/>
    <use x="4083.810547" xlink:href="#DejaVuSans-48"/>
    <use x="4147.433594" xlink:href="#DejaVuSans-52"/>
    <use x="4211.056641" xlink:href="#DejaVuSans-37"/>
    <use x="4306.076172" xlink:href="#DejaVuSans-32"/>
    <use x="4337.863281" xlink:href="#DejaVuSans-114"/>
    <use x="4378.945312" xlink:href="#DejaVuSans-101"/>
    <use x="4440.46875" xlink:href="#DejaVuSans-97"/>
    <use x="4501.748047" xlink:href="#DejaVuSans-108"/>
    <use x="4529.53125" xlink:href="#DejaVuSans-32"/>
    <use x="4561.318359" xlink:href="#DejaVuSans-116"/>
    <use x="4600.527344" xlink:href="#DejaVuSans-105"/>
    <use x="4628.310547" xlink:href="#DejaVuSans-109"/>
    <use x="4725.722656" xlink:href="#DejaVuSans-101"/>
    <use x="4787.246094" xlink:href="#DejaVuSans-32"/>
    <use x="4819.033203" xlink:href="#DejaVuSans-115"/>
    <use x="4871.132812" xlink:href="#DejaVuSans-112"/>
    <use x="4934.609375" xlink:href="#DejaVuSans-101"/>
    <use x="4996.132812" xlink:href="#DejaVuSans-101"/>
    <use x="5057.65625" xlink:href="#DejaVuSans-100"/>
   </g>
   <!--  -->
   <g transform="translate(1440 105.925677)scale(0.34 -0.34)"/>
  </g>
 </g>
 <defs>
  <clipPath id="p12dcfbbcb1">
   <rect height="930.508742" width="2780.580145" x="96.419615" y="157.9032"/>
  </clipPath>
  <clipPath id="p4621a216d4">
   <rect height="930.508742" width="2780.580145" x="96.419615" y="1204.437422"/>
  </clipPath>
  <clipPath id="p63927bddf7">
   <rect height="930.508742" width="2780.580145" x="96.419615" y="2250.971643"/>
  </clipPath>
 </defs>
</svg>
