<?xml version="1.0" encoding="utf-8" standalone="no"?>
<!DOCTYPE svg PUBLIC "-//W3C//DTD SVG 1.1//EN"
  "http://www.w3.org/Graphics/SVG/1.1/DTD/svg11.dtd">
<!-- Created with matplotlib (https://matplotlib.org/) -->
<svg height="1080pt" version="1.1" viewBox="0 0 2880 1080" width="2880pt" xmlns="http://www.w3.org/2000/svg" xmlns:xlink="http://www.w3.org/1999/xlink">
 <defs>
  <style type="text/css">
*{stroke-linecap:butt;stroke-linejoin:round;}
  </style>
 </defs>
 <g id="figure_1">
  <g id="patch_1">
   <path d="M 0 1080 
L 2880 1080 
L 2880 0 
L 0 0 
z
" style="fill:#ffffff;"/>
  </g>
  <g id="axes_1">
   <g id="patch_2">
    <path d="M 94.09774 1021.480385 
L 2876.99976 1021.480385 
L 2876.99976 157.9032 
L 94.09774 157.9032 
z
" style="fill:#ffffff;"/>
   </g>
   <g id="matplotlib.axis_1">
    <g id="xtick_1">
     <g id="line2d_1">
      <defs>
       <path d="M 0 0 
L 0 3.5 
" id="m5f30b39a69" style="stroke:#000000;stroke-width:0.8;"/>
      </defs>
      <g>
       <use style="stroke:#000000;stroke-width:0.8;" x="353.841205" xlink:href="#m5f30b39a69" y="1021.480385"/>
      </g>
     </g>
     <g id="text_1">
      <!-- 40 -->
      <defs>
       <path d="M 37.796875 64.3125 
L 12.890625 25.390625 
L 37.796875 25.390625 
z
M 35.203125 72.90625 
L 47.609375 72.90625 
L 47.609375 25.390625 
L 58.015625 25.390625 
L 58.015625 17.1875 
L 47.609375 17.1875 
L 47.609375 0 
L 37.796875 0 
L 37.796875 17.1875 
L 4.890625 17.1875 
L 4.890625 26.703125 
z
" id="DejaVuSans-52"/>
       <path d="M 31.78125 66.40625 
Q 24.171875 66.40625 20.328125 58.90625 
Q 16.5 51.421875 16.5 36.375 
Q 16.5 21.390625 20.328125 13.890625 
Q 24.171875 6.390625 31.78125 6.390625 
Q 39.453125 6.390625 43.28125 13.890625 
Q 47.125 21.390625 47.125 36.375 
Q 47.125 51.421875 43.28125 58.90625 
Q 39.453125 66.40625 31.78125 66.40625 
z
M 31.78125 74.21875 
Q 44.046875 74.21875 50.515625 64.515625 
Q 56.984375 54.828125 56.984375 36.375 
Q 56.984375 17.96875 50.515625 8.265625 
Q 44.046875 -1.421875 31.78125 -1.421875 
Q 19.53125 -1.421875 13.0625 8.265625 
Q 6.59375 17.96875 6.59375 36.375 
Q 6.59375 54.828125 13.0625 64.515625 
Q 19.53125 74.21875 31.78125 74.21875 
z
" id="DejaVuSans-48"/>
      </defs>
      <g transform="translate(341.116205 1043.67726)scale(0.2 -0.2)">
       <use xlink:href="#DejaVuSans-52"/>
       <use x="63.623047" xlink:href="#DejaVuSans-48"/>
      </g>
     </g>
    </g>
    <g id="xtick_2">
     <g id="line2d_2">
      <g>
       <use style="stroke:#000000;stroke-width:0.8;" x="886.832879" xlink:href="#m5f30b39a69" y="1021.480385"/>
      </g>
     </g>
     <g id="text_2">
      <!-- 60 -->
      <defs>
       <path d="M 33.015625 40.375 
Q 26.375 40.375 22.484375 35.828125 
Q 18.609375 31.296875 18.609375 23.390625 
Q 18.609375 15.53125 22.484375 10.953125 
Q 26.375 6.390625 33.015625 6.390625 
Q 39.65625 6.390625 43.53125 10.953125 
Q 47.40625 15.53125 47.40625 23.390625 
Q 47.40625 31.296875 43.53125 35.828125 
Q 39.65625 40.375 33.015625 40.375 
z
M 52.59375 71.296875 
L 52.59375 62.3125 
Q 48.875 64.0625 45.09375 64.984375 
Q 41.3125 65.921875 37.59375 65.921875 
Q 27.828125 65.921875 22.671875 59.328125 
Q 17.53125 52.734375 16.796875 39.40625 
Q 19.671875 43.65625 24.015625 45.921875 
Q 28.375 48.1875 33.59375 48.1875 
Q 44.578125 48.1875 50.953125 41.515625 
Q 57.328125 34.859375 57.328125 23.390625 
Q 57.328125 12.15625 50.6875 5.359375 
Q 44.046875 -1.421875 33.015625 -1.421875 
Q 20.359375 -1.421875 13.671875 8.265625 
Q 6.984375 17.96875 6.984375 36.375 
Q 6.984375 53.65625 15.1875 63.9375 
Q 23.390625 74.21875 37.203125 74.21875 
Q 40.921875 74.21875 44.703125 73.484375 
Q 48.484375 72.75 52.59375 71.296875 
z
" id="DejaVuSans-54"/>
      </defs>
      <g transform="translate(874.107879 1043.67726)scale(0.2 -0.2)">
       <use xlink:href="#DejaVuSans-54"/>
       <use x="63.623047" xlink:href="#DejaVuSans-48"/>
      </g>
     </g>
    </g>
    <g id="xtick_3">
     <g id="line2d_3">
      <g>
       <use style="stroke:#000000;stroke-width:0.8;" x="1419.824552" xlink:href="#m5f30b39a69" y="1021.480385"/>
      </g>
     </g>
     <g id="text_3">
      <!-- 80 -->
      <defs>
       <path d="M 31.78125 34.625 
Q 24.75 34.625 20.71875 30.859375 
Q 16.703125 27.09375 16.703125 20.515625 
Q 16.703125 13.921875 20.71875 10.15625 
Q 24.75 6.390625 31.78125 6.390625 
Q 38.8125 6.390625 42.859375 10.171875 
Q 46.921875 13.96875 46.921875 20.515625 
Q 46.921875 27.09375 42.890625 30.859375 
Q 38.875 34.625 31.78125 34.625 
z
M 21.921875 38.8125 
Q 15.578125 40.375 12.03125 44.71875 
Q 8.5 49.078125 8.5 55.328125 
Q 8.5 64.0625 14.71875 69.140625 
Q 20.953125 74.21875 31.78125 74.21875 
Q 42.671875 74.21875 48.875 69.140625 
Q 55.078125 64.0625 55.078125 55.328125 
Q 55.078125 49.078125 51.53125 44.71875 
Q 48 40.375 41.703125 38.8125 
Q 48.828125 37.15625 52.796875 32.3125 
Q 56.78125 27.484375 56.78125 20.515625 
Q 56.78125 9.90625 50.3125 4.234375 
Q 43.84375 -1.421875 31.78125 -1.421875 
Q 19.734375 -1.421875 13.25 4.234375 
Q 6.78125 9.90625 6.78125 20.515625 
Q 6.78125 27.484375 10.78125 32.3125 
Q 14.796875 37.15625 21.921875 38.8125 
z
M 18.3125 54.390625 
Q 18.3125 48.734375 21.84375 45.5625 
Q 25.390625 42.390625 31.78125 42.390625 
Q 38.140625 42.390625 41.71875 45.5625 
Q 45.3125 48.734375 45.3125 54.390625 
Q 45.3125 60.0625 41.71875 63.234375 
Q 38.140625 66.40625 31.78125 66.40625 
Q 25.390625 66.40625 21.84375 63.234375 
Q 18.3125 60.0625 18.3125 54.390625 
z
" id="DejaVuSans-56"/>
      </defs>
      <g transform="translate(1407.099552 1043.67726)scale(0.2 -0.2)">
       <use xlink:href="#DejaVuSans-56"/>
       <use x="63.623047" xlink:href="#DejaVuSans-48"/>
      </g>
     </g>
    </g>
    <g id="xtick_4">
     <g id="line2d_4">
      <g>
       <use style="stroke:#000000;stroke-width:0.8;" x="1952.816226" xlink:href="#m5f30b39a69" y="1021.480385"/>
      </g>
     </g>
     <g id="text_4">
      <!-- 100 -->
      <defs>
       <path d="M 12.40625 8.296875 
L 28.515625 8.296875 
L 28.515625 63.921875 
L 10.984375 60.40625 
L 10.984375 69.390625 
L 28.421875 72.90625 
L 38.28125 72.90625 
L 38.28125 8.296875 
L 54.390625 8.296875 
L 54.390625 0 
L 12.40625 0 
z
" id="DejaVuSans-49"/>
      </defs>
      <g transform="translate(1933.728726 1043.67726)scale(0.2 -0.2)">
       <use xlink:href="#DejaVuSans-49"/>
       <use x="63.623047" xlink:href="#DejaVuSans-48"/>
       <use x="127.246094" xlink:href="#DejaVuSans-48"/>
      </g>
     </g>
    </g>
    <g id="xtick_5">
     <g id="line2d_5">
      <g>
       <use style="stroke:#000000;stroke-width:0.8;" x="2485.8079" xlink:href="#m5f30b39a69" y="1021.480385"/>
      </g>
     </g>
     <g id="text_5">
      <!-- 120 -->
      <defs>
       <path d="M 19.1875 8.296875 
L 53.609375 8.296875 
L 53.609375 0 
L 7.328125 0 
L 7.328125 8.296875 
Q 12.9375 14.109375 22.625 23.890625 
Q 32.328125 33.6875 34.8125 36.53125 
Q 39.546875 41.84375 41.421875 45.53125 
Q 43.3125 49.21875 43.3125 52.78125 
Q 43.3125 58.59375 39.234375 62.25 
Q 35.15625 65.921875 28.609375 65.921875 
Q 23.96875 65.921875 18.8125 64.3125 
Q 13.671875 62.703125 7.8125 59.421875 
L 7.8125 69.390625 
Q 13.765625 71.78125 18.9375 73 
Q 24.125 74.21875 28.421875 74.21875 
Q 39.75 74.21875 46.484375 68.546875 
Q 53.21875 62.890625 53.21875 53.421875 
Q 53.21875 48.921875 51.53125 44.890625 
Q 49.859375 40.875 45.40625 35.40625 
Q 44.1875 33.984375 37.640625 27.21875 
Q 31.109375 20.453125 19.1875 8.296875 
z
" id="DejaVuSans-50"/>
      </defs>
      <g transform="translate(2466.7204 1043.67726)scale(0.2 -0.2)">
       <use xlink:href="#DejaVuSans-49"/>
       <use x="63.623047" xlink:href="#DejaVuSans-50"/>
       <use x="127.246094" xlink:href="#DejaVuSans-48"/>
      </g>
     </g>
    </g>
    <g id="text_6">
     <!-- Time [s] -->
     <defs>
      <path d="M -0.296875 72.90625 
L 61.375 72.90625 
L 61.375 64.59375 
L 35.5 64.59375 
L 35.5 0 
L 25.59375 0 
L 25.59375 64.59375 
L -0.296875 64.59375 
z
" id="DejaVuSans-84"/>
      <path d="M 9.421875 54.6875 
L 18.40625 54.6875 
L 18.40625 0 
L 9.421875 0 
z
M 9.421875 75.984375 
L 18.40625 75.984375 
L 18.40625 64.59375 
L 9.421875 64.59375 
z
" id="DejaVuSans-105"/>
      <path d="M 52 44.1875 
Q 55.375 50.25 60.0625 53.125 
Q 64.75 56 71.09375 56 
Q 79.640625 56 84.28125 50.015625 
Q 88.921875 44.046875 88.921875 33.015625 
L 88.921875 0 
L 79.890625 0 
L 79.890625 32.71875 
Q 79.890625 40.578125 77.09375 44.375 
Q 74.3125 48.1875 68.609375 48.1875 
Q 61.625 48.1875 57.5625 43.546875 
Q 53.515625 38.921875 53.515625 30.90625 
L 53.515625 0 
L 44.484375 0 
L 44.484375 32.71875 
Q 44.484375 40.625 41.703125 44.40625 
Q 38.921875 48.1875 33.109375 48.1875 
Q 26.21875 48.1875 22.15625 43.53125 
Q 18.109375 38.875 18.109375 30.90625 
L 18.109375 0 
L 9.078125 0 
L 9.078125 54.6875 
L 18.109375 54.6875 
L 18.109375 46.1875 
Q 21.1875 51.21875 25.484375 53.609375 
Q 29.78125 56 35.6875 56 
Q 41.65625 56 45.828125 52.96875 
Q 50 49.953125 52 44.1875 
z
" id="DejaVuSans-109"/>
      <path d="M 56.203125 29.59375 
L 56.203125 25.203125 
L 14.890625 25.203125 
Q 15.484375 15.921875 20.484375 11.0625 
Q 25.484375 6.203125 34.421875 6.203125 
Q 39.59375 6.203125 44.453125 7.46875 
Q 49.3125 8.734375 54.109375 11.28125 
L 54.109375 2.78125 
Q 49.265625 0.734375 44.1875 -0.34375 
Q 39.109375 -1.421875 33.890625 -1.421875 
Q 20.796875 -1.421875 13.15625 6.1875 
Q 5.515625 13.8125 5.515625 26.8125 
Q 5.515625 40.234375 12.765625 48.109375 
Q 20.015625 56 32.328125 56 
Q 43.359375 56 49.78125 48.890625 
Q 56.203125 41.796875 56.203125 29.59375 
z
M 47.21875 32.234375 
Q 47.125 39.59375 43.09375 43.984375 
Q 39.0625 48.390625 32.421875 48.390625 
Q 24.90625 48.390625 20.390625 44.140625 
Q 15.875 39.890625 15.1875 32.171875 
z
" id="DejaVuSans-101"/>
      <path id="DejaVuSans-32"/>
      <path d="M 8.59375 75.984375 
L 29.296875 75.984375 
L 29.296875 69 
L 17.578125 69 
L 17.578125 -6.203125 
L 29.296875 -6.203125 
L 29.296875 -13.1875 
L 8.59375 -13.1875 
z
" id="DejaVuSans-91"/>
      <path d="M 44.28125 53.078125 
L 44.28125 44.578125 
Q 40.484375 46.53125 36.375 47.5 
Q 32.28125 48.484375 27.875 48.484375 
Q 21.1875 48.484375 17.84375 46.4375 
Q 14.5 44.390625 14.5 40.28125 
Q 14.5 37.15625 16.890625 35.375 
Q 19.28125 33.59375 26.515625 31.984375 
L 29.59375 31.296875 
Q 39.15625 29.25 43.1875 25.515625 
Q 47.21875 21.78125 47.21875 15.09375 
Q 47.21875 7.46875 41.1875 3.015625 
Q 35.15625 -1.421875 24.609375 -1.421875 
Q 20.21875 -1.421875 15.453125 -0.5625 
Q 10.6875 0.296875 5.421875 2 
L 5.421875 11.28125 
Q 10.40625 8.6875 15.234375 7.390625 
Q 20.0625 6.109375 24.8125 6.109375 
Q 31.15625 6.109375 34.5625 8.28125 
Q 37.984375 10.453125 37.984375 14.40625 
Q 37.984375 18.0625 35.515625 20.015625 
Q 33.0625 21.96875 24.703125 23.78125 
L 21.578125 24.515625 
Q 13.234375 26.265625 9.515625 29.90625 
Q 5.8125 33.546875 5.8125 39.890625 
Q 5.8125 47.609375 11.28125 51.796875 
Q 16.75 56 26.8125 56 
Q 31.78125 56 36.171875 55.265625 
Q 40.578125 54.546875 44.28125 53.078125 
z
" id="DejaVuSans-115"/>
      <path d="M 30.421875 75.984375 
L 30.421875 -13.1875 
L 9.71875 -13.1875 
L 9.71875 -6.203125 
L 21.390625 -6.203125 
L 21.390625 69 
L 9.71875 69 
L 9.71875 75.984375 
z
" id="DejaVuSans-93"/>
     </defs>
     <g transform="translate(1432.293437 1071.592572)scale(0.26 -0.26)">
      <use xlink:href="#DejaVuSans-84"/>
      <use x="61.037109" xlink:href="#DejaVuSans-105"/>
      <use x="88.820312" xlink:href="#DejaVuSans-109"/>
      <use x="186.232422" xlink:href="#DejaVuSans-101"/>
      <use x="247.755859" xlink:href="#DejaVuSans-32"/>
      <use x="279.542969" xlink:href="#DejaVuSans-91"/>
      <use x="318.556641" xlink:href="#DejaVuSans-115"/>
      <use x="370.65625" xlink:href="#DejaVuSans-93"/>
     </g>
    </g>
   </g>
   <g id="matplotlib.axis_2">
    <g id="ytick_1">
     <g id="line2d_6">
      <defs>
       <path d="M 0 0 
L -3.5 0 
" id="m9c90112063" style="stroke:#000000;stroke-width:0.8;"/>
      </defs>
      <g>
       <use style="stroke:#000000;stroke-width:0.8;" x="94.09774" xlink:href="#m9c90112063" y="920.247653"/>
      </g>
     </g>
     <g id="text_7">
      <!-- −140 -->
      <defs>
       <path d="M 10.59375 35.5 
L 73.1875 35.5 
L 73.1875 27.203125 
L 10.59375 27.203125 
z
" id="DejaVuSans-8722"/>
      </defs>
      <g transform="translate(32.163365 927.84609)scale(0.2 -0.2)">
       <use xlink:href="#DejaVuSans-8722"/>
       <use x="83.789062" xlink:href="#DejaVuSans-49"/>
       <use x="147.412109" xlink:href="#DejaVuSans-52"/>
       <use x="211.035156" xlink:href="#DejaVuSans-48"/>
      </g>
     </g>
    </g>
    <g id="ytick_2">
     <g id="line2d_7">
      <g>
       <use style="stroke:#000000;stroke-width:0.8;" x="94.09774" xlink:href="#m9c90112063" y="816.948946"/>
      </g>
     </g>
     <g id="text_8">
      <!-- −120 -->
      <g transform="translate(32.163365 824.547384)scale(0.2 -0.2)">
       <use xlink:href="#DejaVuSans-8722"/>
       <use x="83.789062" xlink:href="#DejaVuSans-49"/>
       <use x="147.412109" xlink:href="#DejaVuSans-50"/>
       <use x="211.035156" xlink:href="#DejaVuSans-48"/>
      </g>
     </g>
    </g>
    <g id="ytick_3">
     <g id="line2d_8">
      <g>
       <use style="stroke:#000000;stroke-width:0.8;" x="94.09774" xlink:href="#m9c90112063" y="713.65024"/>
      </g>
     </g>
     <g id="text_9">
      <!-- −100 -->
      <g transform="translate(32.163365 721.248678)scale(0.2 -0.2)">
       <use xlink:href="#DejaVuSans-8722"/>
       <use x="83.789062" xlink:href="#DejaVuSans-49"/>
       <use x="147.412109" xlink:href="#DejaVuSans-48"/>
       <use x="211.035156" xlink:href="#DejaVuSans-48"/>
      </g>
     </g>
    </g>
    <g id="ytick_4">
     <g id="line2d_9">
      <g>
       <use style="stroke:#000000;stroke-width:0.8;" x="94.09774" xlink:href="#m9c90112063" y="610.351534"/>
      </g>
     </g>
     <g id="text_10">
      <!-- −80 -->
      <g transform="translate(44.888365 617.949971)scale(0.2 -0.2)">
       <use xlink:href="#DejaVuSans-8722"/>
       <use x="83.789062" xlink:href="#DejaVuSans-56"/>
       <use x="147.412109" xlink:href="#DejaVuSans-48"/>
      </g>
     </g>
    </g>
    <g id="ytick_5">
     <g id="line2d_10">
      <g>
       <use style="stroke:#000000;stroke-width:0.8;" x="94.09774" xlink:href="#m9c90112063" y="507.052827"/>
      </g>
     </g>
     <g id="text_11">
      <!-- −60 -->
      <g transform="translate(44.888365 514.651265)scale(0.2 -0.2)">
       <use xlink:href="#DejaVuSans-8722"/>
       <use x="83.789062" xlink:href="#DejaVuSans-54"/>
       <use x="147.412109" xlink:href="#DejaVuSans-48"/>
      </g>
     </g>
    </g>
    <g id="ytick_6">
     <g id="line2d_11">
      <g>
       <use style="stroke:#000000;stroke-width:0.8;" x="94.09774" xlink:href="#m9c90112063" y="403.754121"/>
      </g>
     </g>
     <g id="text_12">
      <!-- −40 -->
      <g transform="translate(44.888365 411.352559)scale(0.2 -0.2)">
       <use xlink:href="#DejaVuSans-8722"/>
       <use x="83.789062" xlink:href="#DejaVuSans-52"/>
       <use x="147.412109" xlink:href="#DejaVuSans-48"/>
      </g>
     </g>
    </g>
    <g id="ytick_7">
     <g id="line2d_12">
      <g>
       <use style="stroke:#000000;stroke-width:0.8;" x="94.09774" xlink:href="#m9c90112063" y="300.455415"/>
      </g>
     </g>
     <g id="text_13">
      <!-- −20 -->
      <g transform="translate(44.888365 308.053852)scale(0.2 -0.2)">
       <use xlink:href="#DejaVuSans-8722"/>
       <use x="83.789062" xlink:href="#DejaVuSans-50"/>
       <use x="147.412109" xlink:href="#DejaVuSans-48"/>
      </g>
     </g>
    </g>
    <g id="ytick_8">
     <g id="line2d_13">
      <g>
       <use style="stroke:#000000;stroke-width:0.8;" x="94.09774" xlink:href="#m9c90112063" y="197.156708"/>
      </g>
     </g>
     <g id="text_14">
      <!-- 0 -->
      <g transform="translate(74.37274 204.755146)scale(0.2 -0.2)">
       <use xlink:href="#DejaVuSans-48"/>
      </g>
     </g>
    </g>
    <g id="text_15">
     <!-- Length [m] -->
     <defs>
      <path d="M 9.8125 72.90625 
L 19.671875 72.90625 
L 19.671875 8.296875 
L 55.171875 8.296875 
L 55.171875 0 
L 9.8125 0 
z
" id="DejaVuSans-76"/>
      <path d="M 54.890625 33.015625 
L 54.890625 0 
L 45.90625 0 
L 45.90625 32.71875 
Q 45.90625 40.484375 42.875 44.328125 
Q 39.84375 48.1875 33.796875 48.1875 
Q 26.515625 48.1875 22.3125 43.546875 
Q 18.109375 38.921875 18.109375 30.90625 
L 18.109375 0 
L 9.078125 0 
L 9.078125 54.6875 
L 18.109375 54.6875 
L 18.109375 46.1875 
Q 21.34375 51.125 25.703125 53.5625 
Q 30.078125 56 35.796875 56 
Q 45.21875 56 50.046875 50.171875 
Q 54.890625 44.34375 54.890625 33.015625 
z
" id="DejaVuSans-110"/>
      <path d="M 45.40625 27.984375 
Q 45.40625 37.75 41.375 43.109375 
Q 37.359375 48.484375 30.078125 48.484375 
Q 22.859375 48.484375 18.828125 43.109375 
Q 14.796875 37.75 14.796875 27.984375 
Q 14.796875 18.265625 18.828125 12.890625 
Q 22.859375 7.515625 30.078125 7.515625 
Q 37.359375 7.515625 41.375 12.890625 
Q 45.40625 18.265625 45.40625 27.984375 
z
M 54.390625 6.78125 
Q 54.390625 -7.171875 48.1875 -13.984375 
Q 42 -20.796875 29.203125 -20.796875 
Q 24.46875 -20.796875 20.265625 -20.09375 
Q 16.0625 -19.390625 12.109375 -17.921875 
L 12.109375 -9.1875 
Q 16.0625 -11.328125 19.921875 -12.34375 
Q 23.78125 -13.375 27.78125 -13.375 
Q 36.625 -13.375 41.015625 -8.765625 
Q 45.40625 -4.15625 45.40625 5.171875 
L 45.40625 9.625 
Q 42.625 4.78125 38.28125 2.390625 
Q 33.9375 0 27.875 0 
Q 17.828125 0 11.671875 7.65625 
Q 5.515625 15.328125 5.515625 27.984375 
Q 5.515625 40.671875 11.671875 48.328125 
Q 17.828125 56 27.875 56 
Q 33.9375 56 38.28125 53.609375 
Q 42.625 51.21875 45.40625 46.390625 
L 45.40625 54.6875 
L 54.390625 54.6875 
z
" id="DejaVuSans-103"/>
      <path d="M 18.3125 70.21875 
L 18.3125 54.6875 
L 36.8125 54.6875 
L 36.8125 47.703125 
L 18.3125 47.703125 
L 18.3125 18.015625 
Q 18.3125 11.328125 20.140625 9.421875 
Q 21.96875 7.515625 27.59375 7.515625 
L 36.8125 7.515625 
L 36.8125 0 
L 27.59375 0 
Q 17.1875 0 13.234375 3.875 
Q 9.28125 7.765625 9.28125 18.015625 
L 9.28125 47.703125 
L 2.6875 47.703125 
L 2.6875 54.6875 
L 9.28125 54.6875 
L 9.28125 70.21875 
z
" id="DejaVuSans-116"/>
      <path d="M 54.890625 33.015625 
L 54.890625 0 
L 45.90625 0 
L 45.90625 32.71875 
Q 45.90625 40.484375 42.875 44.328125 
Q 39.84375 48.1875 33.796875 48.1875 
Q 26.515625 48.1875 22.3125 43.546875 
Q 18.109375 38.921875 18.109375 30.90625 
L 18.109375 0 
L 9.078125 0 
L 9.078125 75.984375 
L 18.109375 75.984375 
L 18.109375 46.1875 
Q 21.34375 51.125 25.703125 53.5625 
Q 30.078125 56 35.796875 56 
Q 45.21875 56 50.046875 50.171875 
Q 54.890625 44.34375 54.890625 33.015625 
z
" id="DejaVuSans-104"/>
     </defs>
     <g transform="translate(22.756178 661.697574)rotate(-90)scale(0.26 -0.26)">
      <use xlink:href="#DejaVuSans-76"/>
      <use x="55.697266" xlink:href="#DejaVuSans-101"/>
      <use x="117.220703" xlink:href="#DejaVuSans-110"/>
      <use x="180.599609" xlink:href="#DejaVuSans-103"/>
      <use x="244.076172" xlink:href="#DejaVuSans-116"/>
      <use x="283.285156" xlink:href="#DejaVuSans-104"/>
      <use x="346.664062" xlink:href="#DejaVuSans-32"/>
      <use x="378.451172" xlink:href="#DejaVuSans-91"/>
      <use x="417.464844" xlink:href="#DejaVuSans-109"/>
      <use x="514.876953" xlink:href="#DejaVuSans-93"/>
     </g>
    </g>
   </g>
   <g id="line2d_14">
    <path clip-path="url(#pbe428f0dca)" d="M 220.593286 197.156708 
L 221.45943 323.32612 
L 222.324418 356.778021 
L 223.192926 197.156708 
L 224.055035 197.156708 
L 224.925074 373.262322 
L 226.653302 197.156708 
L 230.117242 197.156708 
L 230.983628 982.226877 
L 233.582657 982.226877 
L 234.448515 197.156708 
L 237.04879 197.156708 
L 238.779261 982.226877 
L 240.511314 982.226877 
L 241.377305 197.156708 
L 243.975661 197.156708 
L 244.841646 982.226877 
L 246.573121 982.226877 
L 248.305053 197.156708 
L 250.904749 197.156708 
L 251.773117 982.226877 
L 254.368645 982.226877 
L 255.234554 197.156708 
L 257.835115 197.156708 
L 258.700071 489.642668 
L 259.566075 982.226877 
L 261.298115 982.226877 
L 262.164342 197.156708 
L 265.628727 197.156708 
L 266.494693 982.226877 
L 269.091708 982.226877 
L 269.959155 197.156708 
L 273.423845 197.156708 
L 274.289252 982.226877 
L 276.888421 982.226877 
L 277.761294 197.156708 
L 281.217909 197.156708 
L 282.085114 982.226877 
L 284.684378 982.226877 
L 285.553438 197.156708 
L 289.014412 197.156708 
L 289.878929 982.226877 
L 292.477279 982.226877 
L 293.344852 197.156708 
L 296.808151 197.156708 
L 297.674568 982.226877 
L 300.272556 982.226877 
L 301.142201 197.156708 
L 304.605201 197.156708 
L 305.469547 982.226877 
L 308.069713 982.226877 
L 308.932985 197.156708 
L 313.264442 197.156708 
L 314.130669 982.226877 
L 316.728821 982.226877 
L 317.596027 197.156708 
L 321.062439 197.156708 
L 321.929396 982.226877 
L 325.394862 982.226877 
L 326.256672 197.156708 
L 329.722532 197.156708 
L 330.585867 982.226877 
L 333.185348 982.226877 
L 334.050628 197.156708 
L 338.382199 197.156708 
L 339.248254 982.226877 
L 341.846597 982.226877 
L 342.712887 197.156708 
L 347.044967 197.156708 
L 347.90923 982.226877 
L 350.506805 982.226877 
L 351.373387 197.156708 
L 355.704558 197.156708 
L 356.568478 982.226877 
L 359.168734 982.226877 
L 360.033683 197.156708 
L 364.368101 197.156708 
L 365.231462 982.226877 
L 367.832531 982.226877 
L 368.695161 331.610189 
L 369.561725 197.156708 
L 373.027889 197.156708 
L 373.893417 982.226877 
L 377.356983 982.226877 
L 378.222663 197.156708 
L 381.690486 197.156708 
L 382.553701 730.103941 
L 383.419114 982.226877 
L 386.017972 982.226877 
L 386.884001 197.156708 
L 391.214512 197.156708 
L 392.079556 982.226877 
L 394.678884 982.226877 
L 395.54513 534.736252 
L 396.414 197.156708 
L 399.87625 197.156708 
L 400.742858 982.226877 
L 404.206481 982.226877 
L 405.074817 197.156708 
L 409.403332 197.156708 
L 410.267964 982.226877 
L 413.737178 982.226877 
L 414.60026 197.156708 
L 418.066227 197.156708 
L 418.93117 433.811031 
L 419.796177 982.226877 
L 422.395073 982.226877 
L 423.260823 197.156708 
L 427.591607 197.156708 
L 428.456397 982.226877 
L 431.927079 982.226877 
L 432.78807 197.156708 
L 437.118155 197.156708 
L 437.985773 982.226877 
L 441.449097 982.226877 
L 442.31493 197.156708 
L 446.64544 197.156708 
L 447.510733 982.226877 
L 450.976821 982.226877 
L 451.846561 197.156708 
L 456.175356 197.156708 
L 457.041195 982.226877 
L 460.506299 982.226877 
L 461.368554 197.156708 
L 465.703652 197.156708 
L 466.566034 982.226877 
L 470.031214 982.226877 
L 470.896043 197.156708 
L 475.227779 197.156708 
L 476.093936 982.226877 
L 479.558023 982.226877 
L 480.424548 197.156708 
L 484.755668 197.156708 
L 485.621457 982.226877 
L 489.084889 982.226877 
L 489.951694 197.156708 
L 494.281461 197.156708 
L 495.148291 982.226877 
L 498.613032 982.226877 
L 499.478814 197.156708 
L 503.810093 197.156708 
L 504.675189 982.226877 
L 508.14162 982.226877 
L 509.005991 197.156708 
L 513.336419 197.156708 
L 514.202995 982.226877 
L 517.667806 982.226877 
L 518.533925 197.156708 
L 522.863323 197.156708 
L 523.728482 982.226877 
L 527.193687 982.226877 
L 528.060295 197.156708 
L 532.390755 197.156708 
L 533.257998 383.848409 
L 534.122267 982.226877 
L 536.721875 982.226877 
L 537.587492 790.485508 
L 538.453839 197.156708 
L 542.784915 197.156708 
L 543.653854 982.226877 
L 547.114186 982.226877 
L 547.980381 197.156708 
L 552.314252 197.156708 
L 553.177868 982.226877 
L 556.642278 982.226877 
L 557.512914 197.156708 
L 561.841754 197.156708 
L 562.704086 878.661592 
L 563.573425 982.226877 
L 566.169831 982.226877 
L 567.901045 197.156708 
L 572.235145 197.156708 
L 573.096994 982.226877 
L 576.562847 982.226877 
L 577.427409 197.156708 
L 581.766433 197.156708 
L 582.627863 982.226877 
L 586.093684 982.226877 
L 586.959974 197.156708 
L 592.15396 197.156708 
L 593.021661 982.226877 
L 596.483606 982.226877 
L 597.348619 197.156708 
L 601.680178 197.156708 
L 602.546837 982.226877 
L 606.010307 982.226877 
L 606.880638 197.156708 
L 612.073595 197.156708 
L 612.938512 982.226877 
L 616.403972 982.226877 
L 617.269664 197.156708 
L 621.600473 197.156708 
L 622.465766 982.226877 
L 625.931873 982.226877 
L 626.800025 197.156708 
L 631.996254 197.156708 
L 632.863668 982.226877 
L 636.323987 982.226877 
L 637.190398 197.156708 
L 641.520477 197.156708 
L 642.387707 982.226877 
L 645.851921 982.226877 
L 646.719431 197.156708 
L 651.915329 197.156708 
L 652.780444 982.226877 
L 656.244683 982.226877 
L 657.111348 197.156708 
L 661.442208 197.156708 
L 662.306071 982.226877 
L 665.772159 982.226877 
L 666.63843 560.805048 
L 667.503297 197.156708 
L 671.836527 197.156708 
L 672.703459 982.226877 
L 676.165131 982.226877 
L 677.030894 197.156708 
L 681.369467 197.156708 
L 682.229289 328.503308 
L 683.093508 982.226877 
L 686.558325 982.226877 
L 687.425156 197.156708 
L 691.75498 197.156708 
L 692.622623 982.226877 
L 696.092466 982.226877 
L 696.958776 197.156708 
L 702.147717 197.156708 
L 703.017609 982.226877 
L 706.479587 982.226877 
L 707.345807 197.156708 
L 711.676711 197.156708 
L 712.541559 982.226877 
L 716.872597 982.226877 
L 717.738334 197.156708 
L 722.073146 197.156708 
L 722.937549 982.226877 
L 726.402856 982.226877 
L 727.269101 197.156708 
L 732.465902 197.156708 
L 733.330819 982.226877 
L 736.795586 982.226877 
L 737.66227 197.156708 
L 741.993079 197.156708 
L 742.856599 982.226877 
L 746.319135 982.226877 
L 747.18993 965.25983 
L 748.052732 197.156708 
L 752.383884 197.156708 
L 753.248567 982.226877 
L 756.714236 982.226877 
L 757.579503 197.156708 
L 762.781317 197.156708 
L 763.642079 982.226877 
L 767.106718 982.226877 
L 767.972945 197.156708 
L 772.305857 197.156708 
L 773.168697 982.226877 
L 777.500002 982.226877 
L 778.367912 197.156708 
L 782.696732 197.156708 
L 783.565361 982.226877 
L 787.02737 982.226877 
L 787.894136 197.156708 
L 793.093148 197.156708 
L 793.956191 982.226877 
L 797.419846 982.226877 
L 798.287077 197.156708 
L 803.48645 197.156708 
L 804.350625 982.226877 
L 807.813206 982.226877 
L 808.680773 197.156708 
L 813.011296 197.156708 
L 813.877033 982.226877 
L 817.341209 982.226877 
L 818.207645 822.150199 
L 819.075835 197.156708 
L 823.404001 197.156708 
L 824.271409 982.226877 
L 827.734797 982.226877 
L 828.600598 197.156708 
L 833.79987 197.156708 
L 834.66867 982.226877 
L 838.127578 982.226877 
L 838.994053 197.156708 
L 844.191165 197.156708 
L 845.056813 982.226877 
L 848.521986 982.226877 
L 849.386453 197.156708 
L 853.719784 197.156708 
L 854.583952 982.226877 
L 858.049043 982.226877 
L 858.91492 937.844944 
L 859.790182 197.156708 
L 864.111466 197.156708 
L 864.977992 982.226877 
L 868.444194 982.226877 
L 869.309677 197.156708 
L 874.505347 197.156708 
L 875.370652 982.226877 
L 878.8358 982.226877 
L 879.701487 197.156708 
L 884.900397 197.156708 
L 885.763599 982.226877 
L 889.230449 982.226877 
L 890.095323 197.156708 
L 894.427167 197.156708 
L 895.293432 982.226877 
L 899.621992 982.226877 
L 900.488466 197.156708 
L 904.818538 197.156708 
L 905.687516 982.226877 
L 909.152384 982.226877 
L 910.016565 197.156708 
L 915.213905 197.156708 
L 916.078378 982.226877 
L 919.546868 982.226877 
L 920.410375 197.156708 
L 925.606401 197.156708 
L 926.474991 982.226877 
L 929.939141 982.226877 
L 930.800831 197.156708 
L 935.135802 197.156708 
L 936.001736 736.996072 
L 936.86884 982.226877 
L 940.328758 982.226877 
L 941.200017 197.156708 
L 945.525965 197.156708 
L 946.398883 982.226877 
L 949.856895 982.226877 
L 950.723395 383.721283 
L 951.591661 197.156708 
L 955.921307 197.156708 
L 956.787902 982.226877 
L 960.250718 982.226877 
L 961.116621 197.156708 
L 966.314578 197.156708 
L 967.178028 982.226877 
L 970.646899 982.226877 
L 971.509428 197.156708 
L 975.848109 197.156708 
L 976.707531 347.883697 
L 977.576337 982.226877 
L 981.035766 982.226877 
L 981.903022 197.156708 
L 986.233329 197.156708 
L 987.101646 982.226877 
L 990.564653 982.226877 
L 991.432773 934.018217 
L 992.298828 197.156708 
L 996.627356 197.156708 
L 997.497153 982.226877 
L 1000.959105 982.226877 
L 1001.824099 197.156708 
L 1007.024013 197.156708 
L 1007.888855 982.226877 
L 1011.351124 982.226877 
L 1012.220223 197.156708 
L 1017.415422 197.156708 
L 1018.278872 982.226877 
L 1021.74707 982.226877 
L 1022.609503 197.156708 
L 1026.940712 197.156708 
L 1027.809893 982.226877 
L 1032.140016 982.226877 
L 1033.005925 197.156708 
L 1035.601669 197.156708 
L 1036.471797 982.226877 
L 1040.801354 982.226877 
L 1041.666202 197.156708 
L 1047.729877 197.156708 
L 1048.595526 982.226877 
L 1054.66133 982.226877 
L 1055.523992 197.156708 
L 1061.59336 197.156708 
L 1062.456537 982.226877 
L 1068.516482 982.226877 
L 1069.382207 197.156708 
L 1076.311041 197.156708 
L 1077.175832 982.226877 
L 1082.373884 982.226877 
L 1083.240803 300.196196 
L 1084.106115 197.156708 
L 1090.167642 197.156708 
L 1091.032751 982.226877 
L 1096.231413 982.226877 
L 1097.10257 241.279975 
L 1097.960378 197.156708 
L 1104.027674 197.156708 
L 1104.89284 982.226877 
L 1110.089119 982.226877 
L 1110.956992 197.156708 
L 1117.020718 197.156708 
L 1117.891468 982.226877 
L 1123.945695 982.226877 
L 1124.811642 197.156708 
L 1130.877058 197.156708 
L 1131.742637 982.226877 
L 1136.937538 982.226877 
L 1137.806191 197.156708 
L 1143.868653 197.156708 
L 1144.738603 982.226877 
L 1149.92903 982.226877 
L 1150.797297 197.156708 
L 1156.861099 197.156708 
L 1157.728717 982.226877 
L 1162.059799 982.226877 
L 1162.920625 272.507895 
L 1163.786521 197.156708 
L 1168.984129 197.156708 
L 1169.851359 982.226877 
L 1175.04835 982.226877 
L 1175.91107 197.156708 
L 1181.976848 197.156708 
L 1182.840031 982.226877 
L 1187.172009 982.226877 
L 1188.039551 197.156708 
L 1194.102387 197.156708 
L 1194.966917 982.226877 
L 1199.299016 982.226877 
L 1200.161964 524.853794 
L 1201.029315 197.156708 
L 1206.226491 197.156708 
L 1207.092559 982.226877 
L 1211.424727 982.226877 
L 1212.291208 426.807344 
L 1213.15434 197.156708 
L 1218.3536 197.156708 
L 1219.220582 982.226877 
L 1223.553272 982.226877 
L 1224.41359 197.156708 
L 1230.476331 197.156708 
L 1231.345601 982.226877 
L 1235.678843 982.226877 
L 1236.540222 197.156708 
L 1241.739214 197.156708 
L 1242.603548 982.226877 
L 1247.798791 982.226877 
L 1248.667712 197.156708 
L 1253.86586 197.156708 
L 1254.736527 982.226877 
L 1259.058619 982.226877 
L 1259.927527 197.156708 
L 1265.121563 197.156708 
L 1265.987549 982.226877 
L 1270.325747 982.226877 
L 1271.185721 197.156708 
L 1276.388583 197.156708 
L 1277.24641 982.226877 
L 1281.575999 982.226877 
L 1282.443961 197.156708 
L 1287.640278 197.156708 
L 1288.507617 982.226877 
L 1292.83542 982.226877 
L 1293.703305 197.156708 
L 1298.901891 197.156708 
L 1299.766008 982.226877 
L 1304.096944 982.226877 
L 1304.962237 197.156708 
L 1310.159317 197.156708 
L 1311.025061 982.226877 
L 1315.358074 982.226877 
L 1316.223068 197.156708 
L 1321.4187 197.156708 
L 1322.284558 982.226877 
L 1326.616739 982.226877 
L 1327.483925 197.156708 
L 1332.678584 197.156708 
L 1333.551362 982.226877 
L 1337.874807 982.226877 
L 1338.743924 197.156708 
L 1343.070788 197.156708 
L 1343.93988 982.226877 
L 1348.270053 982.226877 
L 1349.138879 197.156708 
L 1354.334319 197.156708 
L 1355.198875 982.226877 
L 1359.529188 982.226877 
L 1360.392594 197.156708 
L 1365.592743 197.156708 
L 1366.458957 982.226877 
L 1369.920044 982.226877 
L 1370.789181 197.156708 
L 1375.985683 197.156708 
L 1376.84933 982.226877 
L 1381.18458 982.226877 
L 1382.049809 197.156708 
L 1386.38166 197.156708 
L 1387.24213 256.193151 
L 1388.111788 982.226877 
L 1391.573854 982.226877 
L 1392.438657 197.156708 
L 1397.636551 197.156708 
L 1398.503578 982.226877 
L 1402.83466 982.226877 
L 1403.702678 197.156708 
L 1408.031175 197.156708 
L 1408.90291 982.226877 
L 1413.230701 982.226877 
L 1414.097182 197.156708 
L 1419.288994 197.156708 
L 1420.154744 982.226877 
L 1423.623819 982.226877 
L 1424.488133 197.156708 
L 1429.68731 197.156708 
L 1430.55022 982.226877 
L 1434.882014 982.226877 
L 1435.746487 197.156708 
L 1440.078465 197.156708 
L 1440.947531 982.226877 
L 1445.275583 982.226877 
L 1446.138061 197.156708 
L 1450.469937 197.156708 
L 1451.338731 450.917221 
L 1452.204849 982.226877 
L 1455.671287 982.226877 
L 1456.539413 197.156708 
L 1461.731404 197.156708 
L 1462.595057 982.226877 
L 1466.064843 982.226877 
L 1466.930873 197.156708 
L 1472.125195 197.156708 
L 1472.986784 982.226877 
L 1477.317523 982.226877 
L 1478.184741 197.156708 
L 1482.518383 197.156708 
L 1483.385322 982.226877 
L 1487.712522 982.226877 
L 1488.580197 197.156708 
L 1492.910072 197.156708 
L 1493.774011 982.226877 
L 1498.107298 982.226877 
L 1498.970951 197.156708 
L 1503.302313 197.156708 
L 1504.16826 982.226877 
L 1508.49926 982.226877 
L 1509.3648 197.156708 
L 1513.695997 197.156708 
L 1514.567821 982.226877 
L 1518.893737 982.226877 
L 1519.758503 197.156708 
L 1524.088473 197.156708 
L 1524.955011 982.226877 
L 1529.286379 982.226877 
L 1530.156456 197.156708 
L 1534.48255 197.156708 
L 1535.347551 982.226877 
L 1539.680653 982.226877 
L 1540.546785 197.156708 
L 1544.875745 197.156708 
L 1545.740859 982.226877 
L 1550.072043 982.226877 
L 1550.939737 197.156708 
L 1555.268043 197.156708 
L 1556.133475 982.226877 
L 1560.471451 982.226877 
L 1561.333205 197.156708 
L 1565.661479 197.156708 
L 1566.534313 982.226877 
L 1570.858883 982.226877 
L 1571.724817 197.156708 
L 1576.0552 197.156708 
L 1576.921694 982.226877 
L 1581.251232 982.226877 
L 1582.118399 197.156708 
L 1586.447378 197.156708 
L 1587.317061 982.226877 
L 1591.645329 982.226877 
L 1592.511015 197.156708 
L 1596.842218 197.156708 
L 1597.708464 982.226877 
L 1602.03839 982.226877 
L 1602.903606 197.156708 
L 1607.236702 197.156708 
L 1608.107262 982.226877 
L 1611.565167 982.226877 
L 1612.4349 553.167996 
L 1613.304171 197.156708 
L 1617.630475 197.156708 
L 1618.493785 982.226877 
L 1621.969798 982.226877 
L 1622.827523 197.156708 
L 1628.022182 197.156708 
L 1628.888491 982.226877 
L 1632.351263 982.226877 
L 1633.217941 197.156708 
L 1638.415643 197.156708 
L 1639.280675 982.226877 
L 1642.750118 982.226877 
L 1643.612444 197.156708 
L 1647.94216 197.156708 
L 1648.807325 982.226877 
L 1653.141661 982.226877 
L 1654.008396 197.156708 
L 1658.337375 197.156708 
L 1659.203906 982.226877 
L 1663.535726 982.226877 
L 1664.400859 197.156708 
L 1668.732361 197.156708 
L 1669.594083 982.226877 
L 1673.924745 982.226877 
L 1674.791976 197.156708 
L 1679.121673 197.156708 
L 1679.98959 982.226877 
L 1683.452895 982.226877 
L 1684.32322 424.113989 
L 1685.187502 197.156708 
L 1689.518946 197.156708 
L 1690.382479 982.226877 
L 1693.848713 982.226877 
L 1694.712576 197.156708 
L 1699.91073 197.156708 
L 1700.777592 982.226877 
L 1704.23868 982.226877 
L 1705.110021 197.156708 
L 1709.439121 197.156708 
L 1710.302183 741.997254 
L 1711.168397 982.226877 
L 1714.639086 982.226877 
L 1715.499206 197.156708 
L 1719.829316 197.156708 
L 1720.696375 982.226877 
L 1725.026695 982.226877 
L 1725.89606 197.156708 
L 1730.225808 197.156708 
L 1731.08882 982.226877 
L 1735.421884 982.226877 
L 1736.285099 197.156708 
L 1740.615896 197.156708 
L 1741.485401 982.226877 
L 1744.947073 982.226877 
L 1745.813065 197.156708 
L 1751.009223 197.156708 
L 1751.876263 982.226877 
L 1755.340922 982.226877 
L 1756.206748 197.156708 
L 1760.537913 197.156708 
L 1761.404762 704.020748 
L 1762.269724 982.226877 
L 1765.735438 982.226877 
L 1766.601906 197.156708 
L 1770.929824 197.156708 
L 1771.79673 982.226877 
L 1776.135291 982.226877 
L 1776.993486 197.156708 
L 1781.328222 197.156708 
L 1782.190452 982.226877 
L 1785.657735 982.226877 
L 1787.388815 197.156708 
L 1791.718392 197.156708 
L 1792.583494 982.226877 
L 1796.048902 982.226877 
L 1796.915548 197.156708 
L 1801.244756 197.156708 
L 1802.110868 247.9993 
L 1802.976211 982.226877 
L 1806.444365 982.226877 
L 1807.307135 197.156708 
L 1811.639214 197.156708 
L 1812.506115 982.226877 
L 1816.833531 982.226877 
L 1817.700571 197.156708 
L 1822.033514 197.156708 
L 1822.897517 982.226877 
L 1826.362277 982.226877 
L 1827.227557 550.803355 
L 1828.093511 197.156708 
L 1832.426257 197.156708 
L 1833.29364 982.226877 
L 1836.761222 982.226877 
L 1837.620262 197.156708 
L 1845.416461 197.156708 
L 1846.281639 982.226877 
L 1853.213085 982.226877 
L 1854.079565 197.156708 
L 1862.739951 197.156708 
L 1863.609799 982.226877 
L 1869.66693 982.226877 
L 1870.534122 197.156708 
L 1878.3329 197.156708 
L 1879.193554 982.226877 
L 1885.256562 982.226877 
L 1886.130064 197.156708 
L 1893.918593 197.156708 
L 1894.784553 982.226877 
L 1900.848184 982.226877 
L 1901.721475 197.156708 
L 1908.645475 197.156708 
L 1909.507571 405.12824 
L 1910.374598 982.226877 
L 1915.573464 982.226877 
L 1916.440015 197.156708 
L 1924.236302 197.156708 
L 1925.098036 982.226877 
L 1930.295942 982.226877 
L 1931.164558 197.156708 
L 1938.092789 197.156708 
L 1938.958075 982.226877 
L 1945.019139 982.226877 
L 1945.885842 197.156708 
L 1952.81906 197.156708 
L 1953.6811 982.226877 
L 1958.876667 982.226877 
L 1959.743237 197.156708 
L 1966.672605 197.156708 
L 1967.5384 982.226877 
L 1972.736757 982.226877 
L 1973.602882 197.156708 
L 1980.530051 197.156708 
L 1981.394829 982.226877 
L 1986.592348 982.226877 
L 1987.456872 197.156708 
L 1993.520407 197.156708 
L 1994.388845 982.226877 
L 1999.583739 982.226877 
L 2000.450016 197.156708 
L 2006.512287 197.156708 
L 2007.381024 947.642104 
L 2008.247511 982.226877 
L 2012.576274 982.226877 
L 2013.440842 197.156708 
L 2019.503857 197.156708 
L 2020.374347 674.798215 
L 2021.236526 982.226877 
L 2025.566998 982.226877 
L 2026.436338 197.156708 
L 2032.503304 197.156708 
L 2033.363152 982.226877 
L 2038.557811 982.226877 
L 2039.427507 197.156708 
L 2045.493088 197.156708 
L 2046.354352 982.226877 
L 2050.686762 982.226877 
L 2052.427317 197.156708 
L 2057.613919 197.156708 
L 2058.483723 982.226877 
L 2063.676629 982.226877 
L 2064.547119 197.156708 
L 2070.604821 197.156708 
L 2071.47108 982.226877 
L 2075.802054 982.226877 
L 2076.668115 197.156708 
L 2082.731441 197.156708 
L 2083.598602 982.226877 
L 2087.930186 982.226877 
L 2088.794868 197.156708 
L 2094.857895 197.156708 
L 2095.724599 982.226877 
L 2100.053819 982.226877 
L 2100.919143 197.156708 
L 2106.983556 197.156708 
L 2107.85031 982.226877 
L 2112.180585 982.226877 
L 2113.045147 197.156708 
L 2118.24168 197.156708 
L 2119.112513 669.928231 
L 2119.973485 982.226877 
L 2124.302795 982.226877 
L 2125.171747 197.156708 
L 2130.372347 197.156708 
L 2131.235537 982.226877 
L 2135.571168 982.226877 
L 2136.431359 197.156708 
L 2142.498185 197.156708 
L 2143.359462 982.226877 
L 2147.688905 982.226877 
L 2148.555894 197.156708 
L 2153.752472 197.156708 
L 2154.620249 982.226877 
L 2158.950639 982.226877 
L 2159.814242 197.156708 
L 2165.017929 197.156708 
L 2165.87622 982.226877 
L 2170.212042 982.226877 
L 2171.074889 197.156708 
L 2176.273741 197.156708 
L 2177.138666 327.669215 
L 2178.002179 982.226877 
L 2181.469792 982.226877 
L 2182.338878 197.156708 
L 2188.396625 197.156708 
L 2189.26282 982.226877 
L 2192.728489 982.226877 
L 2193.594455 197.156708 
L 2199.657564 197.156708 
L 2200.522438 982.226877 
L 2203.988615 982.226877 
L 2204.855845 197.156708 
L 2210.049742 197.156708 
L 2210.922532 362.600998 
L 2211.786567 982.226877 
L 2215.245285 982.226877 
L 2216.111969 197.156708 
L 2221.312753 197.156708 
L 2222.173776 982.226877 
L 2226.508073 982.226877 
L 2227.372006 197.156708 
L 2232.570268 197.156708 
L 2233.435942 982.226877 
L 2237.764749 982.226877 
L 2238.63142 197.156708 
L 2243.829987 197.156708 
L 2244.694403 982.226877 
L 2248.160733 982.226877 
L 2249.026997 373.382461 
L 2249.889577 197.156708 
L 2254.224967 197.156708 
L 2255.087566 912.141416 
L 2255.953773 982.226877 
L 2259.424805 982.226877 
L 2260.286685 197.156708 
L 2265.483467 197.156708 
L 2266.346986 982.226877 
L 2270.679168 982.226877 
L 2271.54143 197.156708 
L 2276.739437 197.156708 
L 2277.611007 982.226877 
L 2281.073989 982.226877 
L 2281.939377 197.156708 
L 2287.131996 197.156708 
L 2288.006102 982.226877 
L 2292.329915 982.226877 
L 2293.197273 197.156708 
L 2298.394905 197.156708 
L 2299.258254 982.226877 
L 2302.723586 982.226877 
L 2303.590918 197.156708 
L 2308.791397 197.156708 
L 2309.654142 982.226877 
L 2313.982384 982.226877 
L 2314.848465 197.156708 
L 2319.181663 197.156708 
L 2320.049694 735.323497 
L 2320.911695 982.226877 
L 2324.376601 982.226877 
L 2325.241246 197.156708 
L 2330.446135 197.156708 
L 2331.307507 982.226877 
L 2334.76984 982.226877 
L 2335.634993 197.156708 
L 2340.832797 197.156708 
L 2341.702061 982.226877 
L 2346.027082 982.226877 
L 2346.896936 197.156708 
L 2352.096094 197.156708 
L 2352.95624 982.226877 
L 2356.421318 982.226877 
L 2357.288383 197.156708 
L 2362.486715 197.156708 
L 2363.352611 982.226877 
L 2366.816933 982.226877 
L 2367.682512 345.189489 
L 2368.549069 197.156708 
L 2372.88531 197.156708 
L 2373.746409 982.226877 
L 2378.075013 982.226877 
L 2378.944747 197.156708 
L 2384.141624 197.156708 
L 2385.005163 982.226877 
L 2388.467737 982.226877 
L 2389.34157 197.156708 
L 2394.533484 197.156708 
L 2395.396978 982.226877 
L 2398.862743 982.226877 
L 2399.730234 197.156708 
L 2404.928546 197.156708 
L 2405.790395 982.226877 
L 2410.119889 982.226877 
L 2410.988625 197.156708 
L 2415.317147 197.156708 
L 2416.18277 982.226877 
L 2420.516991 982.226877 
L 2421.380314 197.156708 
L 2426.578938 197.156708 
L 2427.446994 982.226877 
L 2430.908253 982.226877 
L 2431.775516 197.156708 
L 2436.970804 197.156708 
L 2437.836967 982.226877 
L 2441.301715 982.226877 
L 2442.174409 197.156708 
L 2447.370638 197.156708 
L 2448.231629 982.226877 
L 2451.698861 982.226877 
L 2452.55935 197.156708 
L 2457.759817 197.156708 
L 2458.6226 982.226877 
L 2462.088237 982.226877 
L 2462.954597 329.955551 
L 2463.819762 197.156708 
L 2468.149885 197.156708 
L 2469.016112 982.226877 
L 2473.34835 982.226877 
L 2474.21349 197.156708 
L 2478.546853 197.156708 
L 2479.409712 982.226877 
L 2483.742313 982.226877 
L 2484.604823 197.156708 
L 2488.939565 197.156708 
L 2489.804616 982.226877 
L 2494.135851 982.226877 
L 2495.002414 197.156708 
L 2499.334367 197.156708 
L 2500.197168 959.046786 
L 2501.063319 982.226877 
L 2504.534287 982.226877 
L 2505.39571 197.156708 
L 2509.730992 197.156708 
L 2511.457981 982.226877 
L 2514.920683 982.226877 
L 2515.789457 197.156708 
L 2520.116009 197.156708 
L 2520.983983 260.763398 
L 2521.849669 982.226877 
L 2525.314074 982.226877 
L 2526.185333 197.156708 
L 2531.376573 197.156708 
L 2532.244681 982.226877 
L 2535.714791 982.226877 
L 2536.572783 197.156708 
L 2541.768764 197.156708 
L 2542.639527 982.226877 
L 2546.102013 982.226877 
L 2546.964827 197.156708 
L 2552.163483 197.156708 
L 2553.02856 982.226877 
L 2556.499064 982.226877 
L 2557.370418 197.156708 
L 2562.558069 197.156708 
L 2563.422643 982.226877 
L 2566.89229 982.226877 
L 2567.751908 197.156708 
L 2572.949294 197.156708 
L 2573.815558 982.226877 
L 2577.280547 982.226877 
L 2578.150497 197.156708 
L 2583.343288 197.156708 
L 2584.211624 982.226877 
L 2587.681061 982.226877 
L 2588.542643 197.156708 
L 2593.743319 197.156708 
L 2594.601953 982.226877 
L 2598.071815 982.226877 
L 2598.933334 197.156708 
L 2604.130567 197.156708 
L 2605.000091 982.226877 
L 2608.459831 982.226877 
L 2609.326935 197.156708 
L 2614.526347 197.156708 
L 2615.396684 982.226877 
L 2618.858585 982.226877 
L 2619.724335 197.156708 
L 2624.917387 197.156708 
L 2625.782527 982.226877 
L 2629.249613 982.226877 
L 2630.113374 197.156708 
L 2635.311312 197.156708 
L 2636.179445 982.226877 
L 2639.641848 982.226877 
L 2640.50674 197.156708 
L 2642.239009 197.156708 
L 2643.107123 982.226877 
L 2645.705174 982.226877 
L 2646.573357 197.156708 
L 2652.631689 197.156708 
L 2653.499802 982.226877 
L 2656.968502 982.226877 
L 2657.829391 197.156708 
L 2663.024845 197.156708 
L 2663.898537 982.226877 
L 2667.359549 982.226877 
L 2668.222224 197.156708 
L 2672.554087 197.156708 
L 2673.426286 982.226877 
L 2677.750608 982.226877 
L 2678.614617 197.156708 
L 2682.944575 197.156708 
L 2683.817651 982.226877 
L 2688.149311 982.226877 
L 2689.010817 197.156708 
L 2693.34317 197.156708 
L 2694.209041 982.226877 
L 2697.669881 982.226877 
L 2698.537499 800.659894 
L 2699.404481 197.156708 
L 2703.733835 197.156708 
L 2704.6005 982.226877 
L 2708.063285 982.226877 
L 2708.929568 197.156708 
L 2714.127563 197.156708 
L 2714.997145 982.226877 
L 2718.458194 982.226877 
L 2719.320666 197.156708 
L 2723.652498 197.156708 
L 2724.526737 982.226877 
L 2728.851395 982.226877 
L 2729.716573 197.156708 
L 2734.046029 197.156708 
L 2734.912859 982.226877 
L 2739.247741 982.226877 
L 2740.11161 197.156708 
L 2744.443334 197.156708 
L 2745.308709 982.226877 
L 2748.770655 982.226877 
L 2749.636043 197.156708 
L 2750.504214 197.156708 
L 2750.504214 197.156708 
" style="fill:none;stroke:#008000;stroke-linecap:square;stroke-width:3;"/>
   </g>
   <g id="line2d_15">
    <path clip-path="url(#pbe428f0dca)" d="M 220.593286 389.528392 
L 221.45943 197.156708 
L 222.324418 197.156708 
L 223.192926 356.435215 
L 224.055035 331.04058 
L 224.925074 197.156708 
L 225.787908 197.156708 
L 226.653302 393.081353 
L 227.521987 259.058537 
L 228.386035 982.226877 
L 230.117242 982.226877 
L 230.983628 197.156708 
L 233.582657 197.156708 
L 234.448515 982.226877 
L 237.04879 982.226877 
L 237.911948 197.156708 
L 240.511314 197.156708 
L 241.377305 826.088166 
L 242.243697 982.226877 
L 243.975661 982.226877 
L 244.841646 197.156708 
L 247.439849 197.156708 
L 248.305053 982.226877 
L 250.904749 982.226877 
L 251.773117 197.156708 
L 254.368645 197.156708 
L 255.234554 982.226877 
L 257.835115 982.226877 
L 258.700071 197.156708 
L 261.298115 197.156708 
L 262.164342 982.226877 
L 265.628727 982.226877 
L 266.494693 197.156708 
L 269.091708 197.156708 
L 269.959155 982.226877 
L 273.423845 982.226877 
L 274.289252 197.156708 
L 276.888421 197.156708 
L 277.761294 982.226877 
L 280.352095 982.226877 
L 281.217909 727.079367 
L 282.085114 197.156708 
L 284.684378 197.156708 
L 285.553438 982.226877 
L 288.146343 982.226877 
L 289.014412 975.864303 
L 289.878929 197.156708 
L 292.477279 197.156708 
L 293.344852 982.226877 
L 296.808151 982.226877 
L 297.674568 197.156708 
L 300.272556 197.156708 
L 301.142201 982.226877 
L 304.605201 982.226877 
L 305.469547 197.156708 
L 308.069713 197.156708 
L 308.932985 307.607966 
L 309.803437 982.226877 
L 313.264442 982.226877 
L 314.130669 197.156708 
L 316.728821 197.156708 
L 317.596027 982.226877 
L 321.062439 982.226877 
L 321.929396 197.156708 
L 325.394862 197.156708 
L 326.256672 982.226877 
L 329.722532 982.226877 
L 330.585867 197.156708 
L 333.185348 197.156708 
L 334.050628 645.998369 
L 334.917344 982.226877 
L 338.382199 982.226877 
L 339.248254 197.156708 
L 341.846597 197.156708 
L 342.712887 982.226877 
L 347.044967 982.226877 
L 347.90923 197.156708 
L 350.506805 197.156708 
L 351.373387 982.226877 
L 355.704558 982.226877 
L 356.568478 197.156708 
L 359.168734 197.156708 
L 360.033683 982.226877 
L 364.368101 982.226877 
L 365.231462 197.156708 
L 368.695161 197.156708 
L 369.561725 982.226877 
L 373.027889 982.226877 
L 373.893417 197.156708 
L 377.356983 197.156708 
L 378.222663 982.226877 
L 381.690486 982.226877 
L 382.553701 197.156708 
L 386.017972 197.156708 
L 386.884001 982.226877 
L 391.214512 982.226877 
L 392.079556 197.156708 
L 395.54513 197.156708 
L 396.414 982.226877 
L 399.87625 982.226877 
L 400.742858 197.156708 
L 404.206481 197.156708 
L 405.074817 982.226877 
L 409.403332 982.226877 
L 410.267964 197.156708 
L 413.737178 197.156708 
L 414.60026 982.226877 
L 418.066227 982.226877 
L 418.93117 197.156708 
L 422.395073 197.156708 
L 423.260823 982.226877 
L 427.591607 982.226877 
L 428.456397 197.156708 
L 431.927079 197.156708 
L 432.78807 982.226877 
L 437.118155 982.226877 
L 437.985773 197.156708 
L 441.449097 197.156708 
L 442.31493 982.226877 
L 446.64544 982.226877 
L 447.510733 197.156708 
L 450.976821 197.156708 
L 451.846561 982.226877 
L 456.175356 982.226877 
L 457.041195 197.156708 
L 460.506299 197.156708 
L 461.368554 982.226877 
L 465.703652 982.226877 
L 466.566034 197.156708 
L 470.031214 197.156708 
L 470.896043 982.226877 
L 475.227779 982.226877 
L 476.093936 197.156708 
L 479.558023 197.156708 
L 480.424548 982.226877 
L 484.755668 982.226877 
L 485.621457 197.156708 
L 489.084889 197.156708 
L 489.951694 982.226877 
L 494.281461 982.226877 
L 495.148291 197.156708 
L 498.613032 197.156708 
L 499.478814 982.226877 
L 503.810093 982.226877 
L 504.675189 197.156708 
L 508.14162 197.156708 
L 509.005991 982.226877 
L 513.336419 982.226877 
L 514.202995 197.156708 
L 517.667806 197.156708 
L 518.533925 982.226877 
L 522.863323 982.226877 
L 523.728482 197.156708 
L 527.193687 197.156708 
L 528.060295 982.226877 
L 532.390755 982.226877 
L 533.257998 197.156708 
L 537.587492 197.156708 
L 538.453839 982.226877 
L 542.784915 982.226877 
L 543.653854 197.156708 
L 547.114186 197.156708 
L 547.980381 982.226877 
L 552.314252 982.226877 
L 553.177868 197.156708 
L 556.642278 197.156708 
L 557.512914 982.226877 
L 561.841754 982.226877 
L 562.704086 197.156708 
L 567.036064 197.156708 
L 567.901045 982.226877 
L 572.235145 982.226877 
L 573.096994 197.156708 
L 576.562847 197.156708 
L 577.427409 982.226877 
L 581.766433 982.226877 
L 582.627863 197.156708 
L 586.093684 197.156708 
L 586.959974 946.178818 
L 587.825737 982.226877 
L 592.15396 982.226877 
L 593.021661 197.156708 
L 596.483606 197.156708 
L 597.348619 982.226877 
L 601.680178 982.226877 
L 602.546837 197.156708 
L 606.010307 197.156708 
L 606.880638 982.226877 
L 611.206669 982.226877 
L 612.073595 742.114669 
L 612.938512 197.156708 
L 616.403972 197.156708 
L 617.269664 982.226877 
L 621.600473 982.226877 
L 622.465766 197.156708 
L 625.931873 197.156708 
L 626.800025 982.226877 
L 631.132156 982.226877 
L 631.996254 912.200104 
L 632.863668 197.156708 
L 636.323987 197.156708 
L 637.190398 982.226877 
L 641.520477 982.226877 
L 642.387707 197.156708 
L 645.851921 197.156708 
L 646.719431 932.077114 
L 647.583872 982.226877 
L 651.915329 982.226877 
L 652.780444 197.156708 
L 656.244683 197.156708 
L 657.111348 982.226877 
L 661.442208 982.226877 
L 662.306071 197.156708 
L 666.63843 197.156708 
L 667.503297 982.226877 
L 671.836527 982.226877 
L 672.703459 197.156708 
L 676.165131 197.156708 
L 677.030894 982.226877 
L 681.369467 982.226877 
L 682.229289 197.156708 
L 686.558325 197.156708 
L 687.425156 982.226877 
L 691.75498 982.226877 
L 692.622623 197.156708 
L 696.092466 197.156708 
L 696.958776 982.226877 
L 702.147717 982.226877 
L 703.017609 197.156708 
L 706.479587 197.156708 
L 707.345807 982.226877 
L 711.676711 982.226877 
L 712.541559 197.156708 
L 716.872597 197.156708 
L 717.738334 982.226877 
L 722.073146 982.226877 
L 722.937549 197.156708 
L 726.402856 197.156708 
L 727.269101 982.226877 
L 732.465902 982.226877 
L 733.330819 197.156708 
L 736.795586 197.156708 
L 737.66227 982.226877 
L 741.993079 982.226877 
L 742.856599 197.156708 
L 747.18993 197.156708 
L 748.052732 982.226877 
L 752.383884 982.226877 
L 753.248567 197.156708 
L 756.714236 197.156708 
L 757.579503 982.226877 
L 762.781317 982.226877 
L 763.642079 197.156708 
L 767.106718 197.156708 
L 767.972945 982.226877 
L 772.305857 982.226877 
L 773.168697 197.156708 
L 777.500002 197.156708 
L 778.367912 982.226877 
L 782.696732 982.226877 
L 783.565361 197.156708 
L 787.02737 197.156708 
L 787.894136 828.853685 
L 788.76023 982.226877 
L 793.093148 982.226877 
L 793.956191 197.156708 
L 797.419846 197.156708 
L 798.287077 982.226877 
L 802.620255 982.226877 
L 803.48645 363.866187 
L 804.350625 197.156708 
L 807.813206 197.156708 
L 808.680773 982.226877 
L 813.011296 982.226877 
L 813.877033 197.156708 
L 818.207645 197.156708 
L 819.075835 982.226877 
L 823.404001 982.226877 
L 824.271409 197.156708 
L 827.734797 197.156708 
L 828.600598 982.226877 
L 833.79987 982.226877 
L 834.66867 197.156708 
L 838.127578 197.156708 
L 838.994053 982.226877 
L 843.325523 982.226877 
L 844.191165 246.082288 
L 845.056813 197.156708 
L 848.521986 197.156708 
L 849.386453 982.226877 
L 853.719784 982.226877 
L 854.583952 197.156708 
L 858.91492 197.156708 
L 859.790182 982.226877 
L 864.111466 982.226877 
L 864.977992 197.156708 
L 868.444194 197.156708 
L 869.309677 982.226877 
L 874.505347 982.226877 
L 875.370652 197.156708 
L 878.8358 197.156708 
L 879.701487 982.226877 
L 884.034494 982.226877 
L 884.900397 523.213463 
L 885.763599 197.156708 
L 889.230449 197.156708 
L 890.095323 982.226877 
L 894.427167 982.226877 
L 895.293432 197.156708 
L 899.621992 197.156708 
L 900.488466 982.226877 
L 904.818538 982.226877 
L 905.687516 197.156708 
L 909.152384 197.156708 
L 910.016565 489.823438 
L 910.885682 982.226877 
L 915.213905 982.226877 
L 916.078378 197.156708 
L 919.546868 197.156708 
L 920.410375 982.226877 
L 925.606401 982.226877 
L 926.474991 197.156708 
L 929.939141 197.156708 
L 930.800831 982.226877 
L 935.135802 982.226877 
L 936.001736 197.156708 
L 940.328758 197.156708 
L 941.200017 982.226877 
L 945.525965 982.226877 
L 946.398883 197.156708 
L 950.723395 197.156708 
L 951.591661 982.226877 
L 955.921307 982.226877 
L 956.787902 197.156708 
L 960.250718 197.156708 
L 961.116621 982.226877 
L 966.314578 982.226877 
L 967.178028 197.156708 
L 970.646899 197.156708 
L 971.509428 982.226877 
L 975.848109 982.226877 
L 976.707531 197.156708 
L 981.035766 197.156708 
L 981.903022 982.226877 
L 986.233329 982.226877 
L 987.101646 197.156708 
L 991.432773 197.156708 
L 992.298828 982.226877 
L 996.627356 982.226877 
L 997.497153 197.156708 
L 1000.959105 197.156708 
L 1001.824099 982.226877 
L 1007.024013 982.226877 
L 1007.888855 197.156708 
L 1011.351124 197.156708 
L 1012.220223 982.226877 
L 1016.547734 982.226877 
L 1017.415422 752.694499 
L 1018.278872 197.156708 
L 1021.74707 197.156708 
L 1022.609503 982.226877 
L 1026.940712 982.226877 
L 1027.809893 197.156708 
L 1032.140016 197.156708 
L 1033.005925 982.226877 
L 1035.601669 982.226877 
L 1036.471797 197.156708 
L 1040.801354 197.156708 
L 1041.666202 982.226877 
L 1047.729877 982.226877 
L 1048.595526 197.156708 
L 1054.66133 197.156708 
L 1055.523992 982.226877 
L 1061.59336 982.226877 
L 1062.456537 197.156708 
L 1068.516482 197.156708 
L 1069.382207 982.226877 
L 1076.311041 982.226877 
L 1077.175832 197.156708 
L 1083.240803 197.156708 
L 1084.106115 982.226877 
L 1090.167642 982.226877 
L 1091.032751 197.156708 
L 1097.10257 197.156708 
L 1097.960378 982.226877 
L 1104.027674 982.226877 
L 1104.89284 197.156708 
L 1110.089119 197.156708 
L 1110.956992 982.226877 
L 1117.020718 982.226877 
L 1117.891468 197.156708 
L 1123.945695 197.156708 
L 1124.811642 982.226877 
L 1130.877058 982.226877 
L 1131.742637 197.156708 
L 1136.937538 197.156708 
L 1137.806191 982.226877 
L 1143.868653 982.226877 
L 1144.738603 197.156708 
L 1149.92903 197.156708 
L 1150.797297 982.226877 
L 1155.992896 982.226877 
L 1156.861099 890.507533 
L 1157.728717 197.156708 
L 1162.920625 197.156708 
L 1163.786521 982.226877 
L 1168.984129 982.226877 
L 1169.851359 197.156708 
L 1175.04835 197.156708 
L 1175.91107 982.226877 
L 1181.976848 982.226877 
L 1182.840031 197.156708 
L 1187.172009 197.156708 
L 1188.039551 982.226877 
L 1194.102387 982.226877 
L 1194.966917 197.156708 
L 1200.161964 197.156708 
L 1201.029315 982.226877 
L 1206.226491 982.226877 
L 1207.092559 197.156708 
L 1212.291208 197.156708 
L 1213.15434 982.226877 
L 1218.3536 982.226877 
L 1219.220582 197.156708 
L 1223.553272 197.156708 
L 1224.41359 982.226877 
L 1230.476331 982.226877 
L 1231.345601 197.156708 
L 1235.678843 197.156708 
L 1236.540222 982.226877 
L 1241.739214 982.226877 
L 1242.603548 197.156708 
L 1247.798791 197.156708 
L 1248.667712 982.226877 
L 1253.86586 982.226877 
L 1254.736527 197.156708 
L 1259.058619 197.156708 
L 1259.927527 982.226877 
L 1265.121563 982.226877 
L 1265.987549 197.156708 
L 1270.325747 197.156708 
L 1271.185721 982.226877 
L 1276.388583 982.226877 
L 1277.24641 197.156708 
L 1281.575999 197.156708 
L 1282.443961 982.226877 
L 1287.640278 982.226877 
L 1288.507617 197.156708 
L 1292.83542 197.156708 
L 1293.703305 872.599904 
L 1294.572086 982.226877 
L 1298.901891 982.226877 
L 1299.766008 197.156708 
L 1304.096944 197.156708 
L 1304.962237 982.226877 
L 1310.159317 982.226877 
L 1311.025061 197.156708 
L 1315.358074 197.156708 
L 1316.223068 982.226877 
L 1321.4187 982.226877 
L 1322.284558 197.156708 
L 1326.616739 197.156708 
L 1327.483925 982.226877 
L 1332.678584 982.226877 
L 1333.551362 197.156708 
L 1337.874807 197.156708 
L 1338.743924 982.226877 
L 1343.070788 982.226877 
L 1343.93988 197.156708 
L 1348.270053 197.156708 
L 1349.138879 982.226877 
L 1354.334319 982.226877 
L 1355.198875 197.156708 
L 1359.529188 197.156708 
L 1360.392594 982.226877 
L 1364.725658 982.226877 
L 1365.592743 407.675236 
L 1366.458957 197.156708 
L 1369.920044 197.156708 
L 1370.789181 456.869491 
L 1371.656907 982.226877 
L 1375.985683 982.226877 
L 1376.84933 197.156708 
L 1381.18458 197.156708 
L 1382.049809 982.226877 
L 1386.38166 982.226877 
L 1387.24213 197.156708 
L 1391.573854 197.156708 
L 1392.438657 982.226877 
L 1397.636551 982.226877 
L 1398.503578 197.156708 
L 1402.83466 197.156708 
L 1403.702678 982.226877 
L 1408.031175 982.226877 
L 1408.90291 197.156708 
L 1413.230701 197.156708 
L 1414.097182 982.226877 
L 1418.423956 982.226877 
L 1419.288994 961.364111 
L 1420.154744 197.156708 
L 1423.623819 197.156708 
L 1425.357981 982.226877 
L 1429.68731 982.226877 
L 1430.55022 197.156708 
L 1434.882014 197.156708 
L 1435.746487 982.226877 
L 1440.078465 982.226877 
L 1440.947531 197.156708 
L 1445.275583 197.156708 
L 1446.138061 982.226877 
L 1450.469937 982.226877 
L 1451.338731 197.156708 
L 1455.671287 197.156708 
L 1456.539413 982.226877 
L 1461.731404 982.226877 
L 1462.595057 197.156708 
L 1466.064843 197.156708 
L 1466.930873 549.533704 
L 1467.790168 982.226877 
L 1472.125195 982.226877 
L 1472.986784 197.156708 
L 1477.317523 197.156708 
L 1478.184741 982.226877 
L 1482.518383 982.226877 
L 1483.385322 197.156708 
L 1487.712522 197.156708 
L 1488.580197 982.226877 
L 1492.910072 982.226877 
L 1493.774011 197.156708 
L 1498.107298 197.156708 
L 1498.970951 982.226877 
L 1503.302313 982.226877 
L 1504.16826 197.156708 
L 1508.49926 197.156708 
L 1509.3648 982.226877 
L 1513.695997 982.226877 
L 1514.567821 197.156708 
L 1518.893737 197.156708 
L 1519.758503 982.226877 
L 1524.088473 982.226877 
L 1524.955011 197.156708 
L 1529.286379 197.156708 
L 1530.156456 982.226877 
L 1534.48255 982.226877 
L 1535.347551 197.156708 
L 1539.680653 197.156708 
L 1540.546785 982.226877 
L 1544.875745 982.226877 
L 1545.740859 197.156708 
L 1550.072043 197.156708 
L 1550.939737 982.226877 
L 1555.268043 982.226877 
L 1556.133475 197.156708 
L 1560.471451 197.156708 
L 1561.333205 982.226877 
L 1565.661479 982.226877 
L 1566.534313 197.156708 
L 1570.858883 197.156708 
L 1571.724817 982.226877 
L 1576.0552 982.226877 
L 1576.921694 197.156708 
L 1581.251232 197.156708 
L 1582.118399 982.226877 
L 1586.447378 982.226877 
L 1587.317061 197.156708 
L 1591.645329 197.156708 
L 1592.511015 982.226877 
L 1596.842218 982.226877 
L 1597.708464 197.156708 
L 1602.03839 197.156708 
L 1602.903606 982.226877 
L 1607.236702 982.226877 
L 1608.107262 197.156708 
L 1612.4349 197.156708 
L 1613.304171 982.226877 
L 1617.630475 982.226877 
L 1618.493785 197.156708 
L 1621.969798 197.156708 
L 1622.827523 708.089955 
L 1623.692193 982.226877 
L 1628.022182 982.226877 
L 1628.888491 197.156708 
L 1632.351263 197.156708 
L 1633.217941 982.226877 
L 1637.549823 982.226877 
L 1638.415643 371.721081 
L 1639.280675 197.156708 
L 1642.750118 197.156708 
L 1643.612444 982.226877 
L 1647.94216 982.226877 
L 1648.807325 197.156708 
L 1653.141661 197.156708 
L 1654.008396 982.226877 
L 1658.337375 982.226877 
L 1659.203906 197.156708 
L 1663.535726 197.156708 
L 1664.400859 982.226877 
L 1668.732361 982.226877 
L 1669.594083 197.156708 
L 1673.924745 197.156708 
L 1674.791976 982.226877 
L 1679.121673 982.226877 
L 1679.98959 197.156708 
L 1684.32322 197.156708 
L 1685.187502 982.226877 
L 1689.518946 982.226877 
L 1690.382479 197.156708 
L 1693.848713 197.156708 
L 1694.712576 982.226877 
L 1699.04531 982.226877 
L 1699.91073 836.606843 
L 1700.777592 197.156708 
L 1704.23868 197.156708 
L 1705.110021 982.226877 
L 1709.439121 982.226877 
L 1710.302183 197.156708 
L 1714.639086 197.156708 
L 1715.499206 982.226877 
L 1719.829316 982.226877 
L 1720.696375 197.156708 
L 1725.026695 197.156708 
L 1725.89606 982.226877 
L 1730.225808 982.226877 
L 1731.08882 197.156708 
L 1735.421884 197.156708 
L 1736.285099 982.226877 
L 1740.615896 982.226877 
L 1741.485401 197.156708 
L 1744.947073 197.156708 
L 1745.813065 623.883547 
L 1746.679323 982.226877 
L 1751.009223 982.226877 
L 1751.876263 197.156708 
L 1755.340922 197.156708 
L 1756.206748 982.226877 
L 1760.537913 982.226877 
L 1761.404762 197.156708 
L 1765.735438 197.156708 
L 1766.601906 982.226877 
L 1770.929824 982.226877 
L 1771.79673 197.156708 
L 1776.135291 197.156708 
L 1776.993486 982.226877 
L 1781.328222 982.226877 
L 1782.190452 197.156708 
L 1786.520232 197.156708 
L 1787.388815 982.226877 
L 1791.718392 982.226877 
L 1792.583494 197.156708 
L 1796.048902 197.156708 
L 1796.915548 982.226877 
L 1801.244756 982.226877 
L 1802.110868 197.156708 
L 1806.444365 197.156708 
L 1807.307135 982.226877 
L 1811.639214 982.226877 
L 1812.506115 197.156708 
L 1816.833531 197.156708 
L 1817.700571 982.226877 
L 1822.033514 982.226877 
L 1822.897517 197.156708 
L 1827.227557 197.156708 
L 1828.093511 982.226877 
L 1832.426257 982.226877 
L 1833.29364 197.156708 
L 1836.761222 197.156708 
L 1837.620262 982.226877 
L 1845.416461 982.226877 
L 1846.281639 197.156708 
L 1853.213085 197.156708 
L 1854.079565 982.226877 
L 1861.876914 982.226877 
L 1862.739951 390.433513 
L 1863.609799 197.156708 
L 1869.66693 197.156708 
L 1870.534122 982.226877 
L 1878.3329 982.226877 
L 1879.193554 197.156708 
L 1885.256562 197.156708 
L 1886.130064 982.226877 
L 1893.918593 982.226877 
L 1894.784553 197.156708 
L 1900.848184 197.156708 
L 1901.721475 982.226877 
L 1908.645475 982.226877 
L 1909.507571 197.156708 
L 1915.573464 197.156708 
L 1916.440015 982.226877 
L 1924.236302 982.226877 
L 1925.098036 197.156708 
L 1930.295942 197.156708 
L 1931.164558 982.226877 
L 1938.092789 982.226877 
L 1938.958075 197.156708 
L 1945.019139 197.156708 
L 1945.885842 982.226877 
L 1952.81906 982.226877 
L 1953.6811 197.156708 
L 1958.876667 197.156708 
L 1959.743237 982.226877 
L 1966.672605 982.226877 
L 1967.5384 197.156708 
L 1972.736757 197.156708 
L 1973.602882 982.226877 
L 1980.530051 982.226877 
L 1981.394829 197.156708 
L 1986.592348 197.156708 
L 1987.456872 982.226877 
L 1993.520407 982.226877 
L 1994.388845 197.156708 
L 1999.583739 197.156708 
L 2000.450016 982.226877 
L 2006.512287 982.226877 
L 2007.381024 197.156708 
L 2012.576274 197.156708 
L 2013.440842 982.226877 
L 2019.503857 982.226877 
L 2020.374347 197.156708 
L 2025.566998 197.156708 
L 2026.436338 982.226877 
L 2032.503304 982.226877 
L 2033.363152 197.156708 
L 2038.557811 197.156708 
L 2039.427507 982.226877 
L 2045.493088 982.226877 
L 2046.354352 197.156708 
L 2051.55311 197.156708 
L 2052.427317 982.226877 
L 2057.613919 982.226877 
L 2058.483723 197.156708 
L 2063.676629 197.156708 
L 2064.547119 982.226877 
L 2070.604821 982.226877 
L 2071.47108 197.156708 
L 2075.802054 197.156708 
L 2076.668115 982.226877 
L 2082.731441 982.226877 
L 2083.598602 197.156708 
L 2087.930186 197.156708 
L 2088.794868 982.226877 
L 2094.857895 982.226877 
L 2095.724599 197.156708 
L 2100.053819 197.156708 
L 2100.919143 982.226877 
L 2106.983556 982.226877 
L 2107.85031 197.156708 
L 2112.180585 197.156708 
L 2113.045147 982.226877 
L 2118.24168 982.226877 
L 2119.112513 197.156708 
L 2124.302795 197.156708 
L 2125.171747 982.226877 
L 2130.372347 982.226877 
L 2131.235537 197.156708 
L 2135.571168 197.156708 
L 2136.431359 982.226877 
L 2142.498185 982.226877 
L 2143.359462 197.156708 
L 2147.688905 197.156708 
L 2148.555894 982.226877 
L 2153.752472 982.226877 
L 2154.620249 197.156708 
L 2158.950639 197.156708 
L 2159.814242 982.226877 
L 2165.017929 982.226877 
L 2165.87622 197.156708 
L 2170.212042 197.156708 
L 2171.074889 982.226877 
L 2176.273741 982.226877 
L 2177.138666 197.156708 
L 2181.469792 197.156708 
L 2183.199882 982.226877 
L 2187.530151 982.226877 
L 2188.396625 709.010077 
L 2189.26282 197.156708 
L 2192.728489 197.156708 
L 2193.594455 222.554232 
L 2194.46119 982.226877 
L 2198.790925 982.226877 
L 2199.657564 676.007146 
L 2200.522438 197.156708 
L 2203.988615 197.156708 
L 2205.720541 982.226877 
L 2210.049742 982.226877 
L 2210.922532 197.156708 
L 2215.245285 197.156708 
L 2216.111969 982.226877 
L 2221.312753 982.226877 
L 2222.173776 197.156708 
L 2226.508073 197.156708 
L 2227.372006 982.226877 
L 2232.570268 982.226877 
L 2233.435942 197.156708 
L 2237.764749 197.156708 
L 2238.63142 982.226877 
L 2243.829987 982.226877 
L 2244.694403 197.156708 
L 2249.026997 197.156708 
L 2249.889577 982.226877 
L 2254.224967 982.226877 
L 2255.087566 197.156708 
L 2259.424805 197.156708 
L 2260.286685 982.226877 
L 2265.483467 982.226877 
L 2266.346986 197.156708 
L 2270.679168 197.156708 
L 2271.54143 982.226877 
L 2275.87283 982.226877 
L 2276.739437 400.312226 
L 2277.611007 197.156708 
L 2281.073989 197.156708 
L 2281.939377 982.226877 
L 2287.131996 982.226877 
L 2288.006102 197.156708 
L 2292.329915 197.156708 
L 2293.197273 982.226877 
L 2297.52643 982.226877 
L 2298.394905 482.115788 
L 2299.258254 197.156708 
L 2302.723586 197.156708 
L 2303.590918 982.226877 
L 2308.791397 982.226877 
L 2309.654142 197.156708 
L 2313.982384 197.156708 
L 2314.848465 982.226877 
L 2319.181663 982.226877 
L 2320.049694 197.156708 
L 2324.376601 197.156708 
L 2325.241246 982.226877 
L 2330.446135 982.226877 
L 2331.307507 197.156708 
L 2334.76984 197.156708 
L 2335.634993 445.475155 
L 2336.504066 982.226877 
L 2340.832797 982.226877 
L 2341.702061 197.156708 
L 2346.027082 197.156708 
L 2346.896936 982.226877 
L 2351.227536 982.226877 
L 2352.096094 747.989302 
L 2352.95624 197.156708 
L 2356.421318 197.156708 
L 2357.288383 982.226877 
L 2362.486715 982.226877 
L 2363.352611 197.156708 
L 2367.682512 197.156708 
L 2368.549069 982.226877 
L 2372.88531 982.226877 
L 2373.746409 197.156708 
L 2378.075013 197.156708 
L 2378.944747 982.226877 
L 2383.271954 982.226877 
L 2384.141624 375.815587 
L 2385.005163 197.156708 
L 2388.467737 197.156708 
L 2389.34157 982.226877 
L 2394.533484 982.226877 
L 2395.396978 197.156708 
L 2398.862743 197.156708 
L 2399.730234 980.234909 
L 2400.596473 982.226877 
L 2404.928546 982.226877 
L 2405.790395 197.156708 
L 2410.119889 197.156708 
L 2410.988625 982.226877 
L 2415.317147 982.226877 
L 2416.18277 197.156708 
L 2420.516991 197.156708 
L 2421.380314 982.226877 
L 2425.711167 982.226877 
L 2426.578938 252.270603 
L 2427.446994 197.156708 
L 2430.908253 197.156708 
L 2431.775516 982.226877 
L 2436.970804 982.226877 
L 2437.836967 197.156708 
L 2441.301715 197.156708 
L 2442.174409 982.226877 
L 2447.370638 982.226877 
L 2448.231629 197.156708 
L 2451.698861 197.156708 
L 2452.55935 982.226877 
L 2457.759817 982.226877 
L 2458.6226 197.156708 
L 2462.954597 197.156708 
L 2463.819762 982.226877 
L 2468.149885 982.226877 
L 2469.016112 197.156708 
L 2473.34835 197.156708 
L 2474.21349 982.226877 
L 2478.546853 982.226877 
L 2479.409712 197.156708 
L 2483.742313 197.156708 
L 2484.604823 982.226877 
L 2488.939565 982.226877 
L 2489.804616 197.156708 
L 2494.135851 197.156708 
L 2495.002414 982.226877 
L 2499.334367 982.226877 
L 2500.197168 197.156708 
L 2504.534287 197.156708 
L 2505.39571 982.226877 
L 2509.730992 982.226877 
L 2510.591634 197.156708 
L 2514.920683 197.156708 
L 2515.789457 982.226877 
L 2520.116009 982.226877 
L 2520.983983 197.156708 
L 2525.314074 197.156708 
L 2526.185333 982.226877 
L 2530.512819 982.226877 
L 2531.376573 374.499153 
L 2532.244681 197.156708 
L 2535.714791 197.156708 
L 2536.572783 982.226877 
L 2540.904386 982.226877 
L 2541.768764 651.224178 
L 2542.639527 197.156708 
L 2546.102013 197.156708 
L 2546.964827 982.226877 
L 2551.296602 982.226877 
L 2552.163483 828.30256 
L 2553.02856 197.156708 
L 2556.499064 197.156708 
L 2557.370418 982.226877 
L 2561.690286 982.226877 
L 2562.558069 936.631047 
L 2563.422643 197.156708 
L 2566.89229 197.156708 
L 2567.751908 982.226877 
L 2572.949294 982.226877 
L 2573.815558 197.156708 
L 2577.280547 197.156708 
L 2578.150497 982.226877 
L 2583.343288 982.226877 
L 2584.211624 197.156708 
L 2587.681061 197.156708 
L 2588.542643 982.226877 
L 2593.743319 982.226877 
L 2594.601953 197.156708 
L 2598.071815 197.156708 
L 2598.933334 982.226877 
L 2603.262993 982.226877 
L 2604.130567 914.863176 
L 2605.000091 197.156708 
L 2608.459831 197.156708 
L 2609.326935 982.226877 
L 2613.656263 982.226877 
L 2614.526347 827.215768 
L 2615.396684 197.156708 
L 2618.858585 197.156708 
L 2619.724335 982.226877 
L 2624.053816 982.226877 
L 2624.917387 706.33945 
L 2625.782527 197.156708 
L 2629.249613 197.156708 
L 2630.113374 982.226877 
L 2634.445365 982.226877 
L 2635.311312 471.785403 
L 2636.179445 197.156708 
L 2639.641848 197.156708 
L 2640.50674 982.226877 
L 2641.375114 982.226877 
L 2642.239009 936.145091 
L 2643.107123 197.156708 
L 2645.705174 197.156708 
L 2646.573357 982.226877 
L 2652.631689 982.226877 
L 2653.499802 197.156708 
L 2656.968502 197.156708 
L 2657.829391 982.226877 
L 2662.165309 982.226877 
L 2663.898537 197.156708 
L 2667.359549 197.156708 
L 2668.222224 982.226877 
L 2672.554087 982.226877 
L 2673.426286 197.156708 
L 2677.750608 197.156708 
L 2678.614617 982.226877 
L 2682.944575 982.226877 
L 2683.817651 197.156708 
L 2688.149311 197.156708 
L 2689.010817 982.226877 
L 2693.34317 982.226877 
L 2694.209041 197.156708 
L 2698.537499 197.156708 
L 2699.404481 982.226877 
L 2703.733835 982.226877 
L 2704.6005 197.156708 
L 2708.063285 197.156708 
L 2708.929568 982.226877 
L 2713.260136 982.226877 
L 2714.127563 767.262728 
L 2714.997145 197.156708 
L 2718.458194 197.156708 
L 2719.320666 982.226877 
L 2723.652498 982.226877 
L 2724.526737 197.156708 
L 2728.851395 197.156708 
L 2729.716573 982.226877 
L 2734.046029 982.226877 
L 2734.912859 197.156708 
L 2739.247741 197.156708 
L 2740.11161 982.226877 
L 2744.443334 982.226877 
L 2745.308709 197.156708 
L 2748.770655 197.156708 
L 2749.636043 231.423465 
L 2750.504214 982.226877 
L 2750.504214 982.226877 
" style="fill:none;stroke:#ff0000;stroke-linecap:square;stroke-width:3;"/>
   </g>
   <g id="patch_3">
    <path d="M 94.09774 1021.480385 
L 94.09774 157.9032 
" style="fill:none;stroke:#000000;stroke-linecap:square;stroke-linejoin:miter;stroke-width:0.8;"/>
   </g>
   <g id="patch_4">
    <path d="M 2876.99976 1021.480385 
L 2876.99976 157.9032 
" style="fill:none;stroke:#000000;stroke-linecap:square;stroke-linejoin:miter;stroke-width:0.8;"/>
   </g>
   <g id="patch_5">
    <path d="M 94.09774 1021.480385 
L 2876.99976 1021.480385 
" style="fill:none;stroke:#000000;stroke-linecap:square;stroke-linejoin:miter;stroke-width:0.8;"/>
   </g>
   <g id="patch_6">
    <path d="M 94.09774 157.9032 
L 2876.99976 157.9032 
" style="fill:none;stroke:#000000;stroke-linecap:square;stroke-linejoin:miter;stroke-width:0.8;"/>
   </g>
   <g id="text_16">
    <!-- Biceps (red) and Triceps (green) -->
    <defs>
     <path d="M 19.671875 34.8125 
L 19.671875 8.109375 
L 35.5 8.109375 
Q 43.453125 8.109375 47.28125 11.40625 
Q 51.125 14.703125 51.125 21.484375 
Q 51.125 28.328125 47.28125 31.5625 
Q 43.453125 34.8125 35.5 34.8125 
z
M 19.671875 64.796875 
L 19.671875 42.828125 
L 34.28125 42.828125 
Q 41.5 42.828125 45.03125 45.53125 
Q 48.578125 48.25 48.578125 53.8125 
Q 48.578125 59.328125 45.03125 62.0625 
Q 41.5 64.796875 34.28125 64.796875 
z
M 9.8125 72.90625 
L 35.015625 72.90625 
Q 46.296875 72.90625 52.390625 68.21875 
Q 58.5 63.53125 58.5 54.890625 
Q 58.5 48.1875 55.375 44.234375 
Q 52.25 40.28125 46.1875 39.3125 
Q 53.46875 37.75 57.5 32.78125 
Q 61.53125 27.828125 61.53125 20.40625 
Q 61.53125 10.640625 54.890625 5.3125 
Q 48.25 0 35.984375 0 
L 9.8125 0 
z
" id="DejaVuSans-66"/>
     <path d="M 48.78125 52.59375 
L 48.78125 44.1875 
Q 44.96875 46.296875 41.140625 47.34375 
Q 37.3125 48.390625 33.40625 48.390625 
Q 24.65625 48.390625 19.8125 42.84375 
Q 14.984375 37.3125 14.984375 27.296875 
Q 14.984375 17.28125 19.8125 11.734375 
Q 24.65625 6.203125 33.40625 6.203125 
Q 37.3125 6.203125 41.140625 7.25 
Q 44.96875 8.296875 48.78125 10.40625 
L 48.78125 2.09375 
Q 45.015625 0.34375 40.984375 -0.53125 
Q 36.96875 -1.421875 32.421875 -1.421875 
Q 20.0625 -1.421875 12.78125 6.34375 
Q 5.515625 14.109375 5.515625 27.296875 
Q 5.515625 40.671875 12.859375 48.328125 
Q 20.21875 56 33.015625 56 
Q 37.15625 56 41.109375 55.140625 
Q 45.0625 54.296875 48.78125 52.59375 
z
" id="DejaVuSans-99"/>
     <path d="M 18.109375 8.203125 
L 18.109375 -20.796875 
L 9.078125 -20.796875 
L 9.078125 54.6875 
L 18.109375 54.6875 
L 18.109375 46.390625 
Q 20.953125 51.265625 25.265625 53.625 
Q 29.59375 56 35.59375 56 
Q 45.5625 56 51.78125 48.09375 
Q 58.015625 40.1875 58.015625 27.296875 
Q 58.015625 14.40625 51.78125 6.484375 
Q 45.5625 -1.421875 35.59375 -1.421875 
Q 29.59375 -1.421875 25.265625 0.953125 
Q 20.953125 3.328125 18.109375 8.203125 
z
M 48.6875 27.296875 
Q 48.6875 37.203125 44.609375 42.84375 
Q 40.53125 48.484375 33.40625 48.484375 
Q 26.265625 48.484375 22.1875 42.84375 
Q 18.109375 37.203125 18.109375 27.296875 
Q 18.109375 17.390625 22.1875 11.75 
Q 26.265625 6.109375 33.40625 6.109375 
Q 40.53125 6.109375 44.609375 11.75 
Q 48.6875 17.390625 48.6875 27.296875 
z
" id="DejaVuSans-112"/>
     <path d="M 31 75.875 
Q 24.46875 64.65625 21.28125 53.65625 
Q 18.109375 42.671875 18.109375 31.390625 
Q 18.109375 20.125 21.3125 9.0625 
Q 24.515625 -2 31 -13.1875 
L 23.1875 -13.1875 
Q 15.875 -1.703125 12.234375 9.375 
Q 8.59375 20.453125 8.59375 31.390625 
Q 8.59375 42.28125 12.203125 53.3125 
Q 15.828125 64.359375 23.1875 75.875 
z
" id="DejaVuSans-40"/>
     <path d="M 41.109375 46.296875 
Q 39.59375 47.171875 37.8125 47.578125 
Q 36.03125 48 33.890625 48 
Q 26.265625 48 22.1875 43.046875 
Q 18.109375 38.09375 18.109375 28.8125 
L 18.109375 0 
L 9.078125 0 
L 9.078125 54.6875 
L 18.109375 54.6875 
L 18.109375 46.1875 
Q 20.953125 51.171875 25.484375 53.578125 
Q 30.03125 56 36.53125 56 
Q 37.453125 56 38.578125 55.875 
Q 39.703125 55.765625 41.0625 55.515625 
z
" id="DejaVuSans-114"/>
     <path d="M 45.40625 46.390625 
L 45.40625 75.984375 
L 54.390625 75.984375 
L 54.390625 0 
L 45.40625 0 
L 45.40625 8.203125 
Q 42.578125 3.328125 38.25 0.953125 
Q 33.9375 -1.421875 27.875 -1.421875 
Q 17.96875 -1.421875 11.734375 6.484375 
Q 5.515625 14.40625 5.515625 27.296875 
Q 5.515625 40.1875 11.734375 48.09375 
Q 17.96875 56 27.875 56 
Q 33.9375 56 38.25 53.625 
Q 42.578125 51.265625 45.40625 46.390625 
z
M 14.796875 27.296875 
Q 14.796875 17.390625 18.875 11.75 
Q 22.953125 6.109375 30.078125 6.109375 
Q 37.203125 6.109375 41.296875 11.75 
Q 45.40625 17.390625 45.40625 27.296875 
Q 45.40625 37.203125 41.296875 42.84375 
Q 37.203125 48.484375 30.078125 48.484375 
Q 22.953125 48.484375 18.875 42.84375 
Q 14.796875 37.203125 14.796875 27.296875 
z
" id="DejaVuSans-100"/>
     <path d="M 8.015625 75.875 
L 15.828125 75.875 
Q 23.140625 64.359375 26.78125 53.3125 
Q 30.421875 42.28125 30.421875 31.390625 
Q 30.421875 20.453125 26.78125 9.375 
Q 23.140625 -1.703125 15.828125 -13.1875 
L 8.015625 -13.1875 
Q 14.5 -2 17.703125 9.0625 
Q 20.90625 20.125 20.90625 31.390625 
Q 20.90625 42.671875 17.703125 53.65625 
Q 14.5 64.65625 8.015625 75.875 
z
" id="DejaVuSans-41"/>
     <path d="M 34.28125 27.484375 
Q 23.390625 27.484375 19.1875 25 
Q 14.984375 22.515625 14.984375 16.5 
Q 14.984375 11.71875 18.140625 8.90625 
Q 21.296875 6.109375 26.703125 6.109375 
Q 34.1875 6.109375 38.703125 11.40625 
Q 43.21875 16.703125 43.21875 25.484375 
L 43.21875 27.484375 
z
M 52.203125 31.203125 
L 52.203125 0 
L 43.21875 0 
L 43.21875 8.296875 
Q 40.140625 3.328125 35.546875 0.953125 
Q 30.953125 -1.421875 24.3125 -1.421875 
Q 15.921875 -1.421875 10.953125 3.296875 
Q 6 8.015625 6 15.921875 
Q 6 25.140625 12.171875 29.828125 
Q 18.359375 34.515625 30.609375 34.515625 
L 43.21875 34.515625 
L 43.21875 35.40625 
Q 43.21875 41.609375 39.140625 45 
Q 35.0625 48.390625 27.6875 48.390625 
Q 23 48.390625 18.546875 47.265625 
Q 14.109375 46.140625 10.015625 43.890625 
L 10.015625 52.203125 
Q 14.9375 54.109375 19.578125 55.046875 
Q 24.21875 56 28.609375 56 
Q 40.484375 56 46.34375 49.84375 
Q 52.203125 43.703125 52.203125 31.203125 
z
" id="DejaVuSans-97"/>
    </defs>
    <g transform="translate(1210.36125 150.832262)scale(0.34 -0.34)">
     <use xlink:href="#DejaVuSans-66"/>
     <use x="68.603516" xlink:href="#DejaVuSans-105"/>
     <use x="96.386719" xlink:href="#DejaVuSans-99"/>
     <use x="151.367188" xlink:href="#DejaVuSans-101"/>
     <use x="212.890625" xlink:href="#DejaVuSans-112"/>
     <use x="276.367188" xlink:href="#DejaVuSans-115"/>
     <use x="328.466797" xlink:href="#DejaVuSans-32"/>
     <use x="360.253906" xlink:href="#DejaVuSans-40"/>
     <use x="399.267578" xlink:href="#DejaVuSans-114"/>
     <use x="440.349609" xlink:href="#DejaVuSans-101"/>
     <use x="501.873047" xlink:href="#DejaVuSans-100"/>
     <use x="565.349609" xlink:href="#DejaVuSans-41"/>
     <use x="604.363281" xlink:href="#DejaVuSans-32"/>
     <use x="636.150391" xlink:href="#DejaVuSans-97"/>
     <use x="697.429688" xlink:href="#DejaVuSans-110"/>
     <use x="760.808594" xlink:href="#DejaVuSans-100"/>
     <use x="824.285156" xlink:href="#DejaVuSans-32"/>
     <use x="856.072266" xlink:href="#DejaVuSans-84"/>
     <use x="916.9375" xlink:href="#DejaVuSans-114"/>
     <use x="958.050781" xlink:href="#DejaVuSans-105"/>
     <use x="985.833984" xlink:href="#DejaVuSans-99"/>
     <use x="1040.814453" xlink:href="#DejaVuSans-101"/>
     <use x="1102.337891" xlink:href="#DejaVuSans-112"/>
     <use x="1165.814453" xlink:href="#DejaVuSans-115"/>
     <use x="1217.914062" xlink:href="#DejaVuSans-32"/>
     <use x="1249.701172" xlink:href="#DejaVuSans-40"/>
     <use x="1288.714844" xlink:href="#DejaVuSans-103"/>
     <use x="1352.191406" xlink:href="#DejaVuSans-114"/>
     <use x="1393.273438" xlink:href="#DejaVuSans-101"/>
     <use x="1454.796875" xlink:href="#DejaVuSans-101"/>
     <use x="1516.320312" xlink:href="#DejaVuSans-110"/>
     <use x="1579.699219" xlink:href="#DejaVuSans-41"/>
    </g>
   </g>
  </g>
  <g id="text_17">
   <!-- Forces - P320000 I0 D0 -->
   <defs>
    <path d="M 9.8125 72.90625 
L 51.703125 72.90625 
L 51.703125 64.59375 
L 19.671875 64.59375 
L 19.671875 43.109375 
L 48.578125 43.109375 
L 48.578125 34.8125 
L 19.671875 34.8125 
L 19.671875 0 
L 9.8125 0 
z
" id="DejaVuSans-70"/>
    <path d="M 30.609375 48.390625 
Q 23.390625 48.390625 19.1875 42.75 
Q 14.984375 37.109375 14.984375 27.296875 
Q 14.984375 17.484375 19.15625 11.84375 
Q 23.34375 6.203125 30.609375 6.203125 
Q 37.796875 6.203125 41.984375 11.859375 
Q 46.1875 17.53125 46.1875 27.296875 
Q 46.1875 37.015625 41.984375 42.703125 
Q 37.796875 48.390625 30.609375 48.390625 
z
M 30.609375 56 
Q 42.328125 56 49.015625 48.375 
Q 55.71875 40.765625 55.71875 27.296875 
Q 55.71875 13.875 49.015625 6.21875 
Q 42.328125 -1.421875 30.609375 -1.421875 
Q 18.84375 -1.421875 12.171875 6.21875 
Q 5.515625 13.875 5.515625 27.296875 
Q 5.515625 40.765625 12.171875 48.375 
Q 18.84375 56 30.609375 56 
z
" id="DejaVuSans-111"/>
    <path d="M 4.890625 31.390625 
L 31.203125 31.390625 
L 31.203125 23.390625 
L 4.890625 23.390625 
z
" id="DejaVuSans-45"/>
    <path d="M 19.671875 64.796875 
L 19.671875 37.40625 
L 32.078125 37.40625 
Q 38.96875 37.40625 42.71875 40.96875 
Q 46.484375 44.53125 46.484375 51.125 
Q 46.484375 57.671875 42.71875 61.234375 
Q 38.96875 64.796875 32.078125 64.796875 
z
M 9.8125 72.90625 
L 32.078125 72.90625 
Q 44.34375 72.90625 50.609375 67.359375 
Q 56.890625 61.8125 56.890625 51.125 
Q 56.890625 40.328125 50.609375 34.8125 
Q 44.34375 29.296875 32.078125 29.296875 
L 19.671875 29.296875 
L 19.671875 0 
L 9.8125 0 
z
" id="DejaVuSans-80"/>
    <path d="M 40.578125 39.3125 
Q 47.65625 37.796875 51.625 33 
Q 55.609375 28.21875 55.609375 21.1875 
Q 55.609375 10.40625 48.1875 4.484375 
Q 40.765625 -1.421875 27.09375 -1.421875 
Q 22.515625 -1.421875 17.65625 -0.515625 
Q 12.796875 0.390625 7.625 2.203125 
L 7.625 11.71875 
Q 11.71875 9.328125 16.59375 8.109375 
Q 21.484375 6.890625 26.8125 6.890625 
Q 36.078125 6.890625 40.9375 10.546875 
Q 45.796875 14.203125 45.796875 21.1875 
Q 45.796875 27.640625 41.28125 31.265625 
Q 36.765625 34.90625 28.71875 34.90625 
L 20.21875 34.90625 
L 20.21875 43.015625 
L 29.109375 43.015625 
Q 36.375 43.015625 40.234375 45.921875 
Q 44.09375 48.828125 44.09375 54.296875 
Q 44.09375 59.90625 40.109375 62.90625 
Q 36.140625 65.921875 28.71875 65.921875 
Q 24.65625 65.921875 20.015625 65.03125 
Q 15.375 64.15625 9.8125 62.3125 
L 9.8125 71.09375 
Q 15.4375 72.65625 20.34375 73.4375 
Q 25.25 74.21875 29.59375 74.21875 
Q 40.828125 74.21875 47.359375 69.109375 
Q 53.90625 64.015625 53.90625 55.328125 
Q 53.90625 49.265625 50.4375 45.09375 
Q 46.96875 40.921875 40.578125 39.3125 
z
" id="DejaVuSans-51"/>
    <path d="M 9.8125 72.90625 
L 19.671875 72.90625 
L 19.671875 0 
L 9.8125 0 
z
" id="DejaVuSans-73"/>
    <path d="M 19.671875 64.796875 
L 19.671875 8.109375 
L 31.59375 8.109375 
Q 46.6875 8.109375 53.6875 14.9375 
Q 60.6875 21.78125 60.6875 36.53125 
Q 60.6875 51.171875 53.6875 57.984375 
Q 46.6875 64.796875 31.59375 64.796875 
z
M 9.8125 72.90625 
L 30.078125 72.90625 
Q 51.265625 72.90625 61.171875 64.09375 
Q 71.09375 55.28125 71.09375 36.53125 
Q 71.09375 17.671875 61.125 8.828125 
Q 51.171875 0 30.078125 0 
L 9.8125 0 
z
" id="DejaVuSans-68"/>
   </defs>
   <g transform="translate(1241.551562 28.834927)scale(0.34 -0.34)">
    <use xlink:href="#DejaVuSans-70"/>
    <use x="57.472656" xlink:href="#DejaVuSans-111"/>
    <use x="118.654297" xlink:href="#DejaVuSans-114"/>
    <use x="159.736328" xlink:href="#DejaVuSans-99"/>
    <use x="214.716797" xlink:href="#DejaVuSans-101"/>
    <use x="276.240234" xlink:href="#DejaVuSans-115"/>
    <use x="328.339844" xlink:href="#DejaVuSans-32"/>
    <use x="360.126953" xlink:href="#DejaVuSans-45"/>
    <use x="396.210938" xlink:href="#DejaVuSans-32"/>
    <use x="427.998047" xlink:href="#DejaVuSans-80"/>
    <use x="488.300781" xlink:href="#DejaVuSans-51"/>
    <use x="551.923828" xlink:href="#DejaVuSans-50"/>
    <use x="615.546875" xlink:href="#DejaVuSans-48"/>
    <use x="679.169922" xlink:href="#DejaVuSans-48"/>
    <use x="742.792969" xlink:href="#DejaVuSans-48"/>
    <use x="806.416016" xlink:href="#DejaVuSans-48"/>
    <use x="870.039062" xlink:href="#DejaVuSans-32"/>
    <use x="901.826172" xlink:href="#DejaVuSans-73"/>
    <use x="931.318359" xlink:href="#DejaVuSans-48"/>
    <use x="994.941406" xlink:href="#DejaVuSans-32"/>
    <use x="1026.728516" xlink:href="#DejaVuSans-68"/>
    <use x="1103.730469" xlink:href="#DejaVuSans-48"/>
   </g>
   <!-- Bagfile elbow_left_c from 35s for 95s - Logging Rate 30 - Simulation Rate 400 - 100.00% real time speed -->
   <defs>
    <path d="M 37.109375 75.984375 
L 37.109375 68.5 
L 28.515625 68.5 
Q 23.6875 68.5 21.796875 66.546875 
Q 19.921875 64.59375 19.921875 59.515625 
L 19.921875 54.6875 
L 34.71875 54.6875 
L 34.71875 47.703125 
L 19.921875 47.703125 
L 19.921875 0 
L 10.890625 0 
L 10.890625 47.703125 
L 2.296875 47.703125 
L 2.296875 54.6875 
L 10.890625 54.6875 
L 10.890625 58.5 
Q 10.890625 67.625 15.140625 71.796875 
Q 19.390625 75.984375 28.609375 75.984375 
z
" id="DejaVuSans-102"/>
    <path d="M 9.421875 75.984375 
L 18.40625 75.984375 
L 18.40625 0 
L 9.421875 0 
z
" id="DejaVuSans-108"/>
    <path d="M 48.6875 27.296875 
Q 48.6875 37.203125 44.609375 42.84375 
Q 40.53125 48.484375 33.40625 48.484375 
Q 26.265625 48.484375 22.1875 42.84375 
Q 18.109375 37.203125 18.109375 27.296875 
Q 18.109375 17.390625 22.1875 11.75 
Q 26.265625 6.109375 33.40625 6.109375 
Q 40.53125 6.109375 44.609375 11.75 
Q 48.6875 17.390625 48.6875 27.296875 
z
M 18.109375 46.390625 
Q 20.953125 51.265625 25.265625 53.625 
Q 29.59375 56 35.59375 56 
Q 45.5625 56 51.78125 48.09375 
Q 58.015625 40.1875 58.015625 27.296875 
Q 58.015625 14.40625 51.78125 6.484375 
Q 45.5625 -1.421875 35.59375 -1.421875 
Q 29.59375 -1.421875 25.265625 0.953125 
Q 20.953125 3.328125 18.109375 8.203125 
L 18.109375 0 
L 9.078125 0 
L 9.078125 75.984375 
L 18.109375 75.984375 
z
" id="DejaVuSans-98"/>
    <path d="M 4.203125 54.6875 
L 13.1875 54.6875 
L 24.421875 12.015625 
L 35.59375 54.6875 
L 46.1875 54.6875 
L 57.421875 12.015625 
L 68.609375 54.6875 
L 77.59375 54.6875 
L 63.28125 0 
L 52.6875 0 
L 40.921875 44.828125 
L 29.109375 0 
L 18.5 0 
z
" id="DejaVuSans-119"/>
    <path d="M 50.984375 -16.609375 
L 50.984375 -23.578125 
L -0.984375 -23.578125 
L -0.984375 -16.609375 
z
" id="DejaVuSans-95"/>
    <path d="M 10.796875 72.90625 
L 49.515625 72.90625 
L 49.515625 64.59375 
L 19.828125 64.59375 
L 19.828125 46.734375 
Q 21.96875 47.46875 24.109375 47.828125 
Q 26.265625 48.1875 28.421875 48.1875 
Q 40.625 48.1875 47.75 41.5 
Q 54.890625 34.8125 54.890625 23.390625 
Q 54.890625 11.625 47.5625 5.09375 
Q 40.234375 -1.421875 26.90625 -1.421875 
Q 22.3125 -1.421875 17.546875 -0.640625 
Q 12.796875 0.140625 7.71875 1.703125 
L 7.71875 11.625 
Q 12.109375 9.234375 16.796875 8.0625 
Q 21.484375 6.890625 26.703125 6.890625 
Q 35.15625 6.890625 40.078125 11.328125 
Q 45.015625 15.765625 45.015625 23.390625 
Q 45.015625 31 40.078125 35.4375 
Q 35.15625 39.890625 26.703125 39.890625 
Q 22.75 39.890625 18.8125 39.015625 
Q 14.890625 38.140625 10.796875 36.28125 
z
" id="DejaVuSans-53"/>
    <path d="M 10.984375 1.515625 
L 10.984375 10.5 
Q 14.703125 8.734375 18.5 7.8125 
Q 22.3125 6.890625 25.984375 6.890625 
Q 35.75 6.890625 40.890625 13.453125 
Q 46.046875 20.015625 46.78125 33.40625 
Q 43.953125 29.203125 39.59375 26.953125 
Q 35.25 24.703125 29.984375 24.703125 
Q 19.046875 24.703125 12.671875 31.3125 
Q 6.296875 37.9375 6.296875 49.421875 
Q 6.296875 60.640625 12.9375 67.421875 
Q 19.578125 74.21875 30.609375 74.21875 
Q 43.265625 74.21875 49.921875 64.515625 
Q 56.59375 54.828125 56.59375 36.375 
Q 56.59375 19.140625 48.40625 8.859375 
Q 40.234375 -1.421875 26.421875 -1.421875 
Q 22.703125 -1.421875 18.890625 -0.6875 
Q 15.09375 0.046875 10.984375 1.515625 
z
M 30.609375 32.421875 
Q 37.25 32.421875 41.125 36.953125 
Q 45.015625 41.5 45.015625 49.421875 
Q 45.015625 57.28125 41.125 61.84375 
Q 37.25 66.40625 30.609375 66.40625 
Q 23.96875 66.40625 20.09375 61.84375 
Q 16.21875 57.28125 16.21875 49.421875 
Q 16.21875 41.5 20.09375 36.953125 
Q 23.96875 32.421875 30.609375 32.421875 
z
" id="DejaVuSans-57"/>
    <path d="M 44.390625 34.1875 
Q 47.5625 33.109375 50.5625 29.59375 
Q 53.5625 26.078125 56.59375 19.921875 
L 66.609375 0 
L 56 0 
L 46.6875 18.703125 
Q 43.0625 26.03125 39.671875 28.421875 
Q 36.28125 30.8125 30.421875 30.8125 
L 19.671875 30.8125 
L 19.671875 0 
L 9.8125 0 
L 9.8125 72.90625 
L 32.078125 72.90625 
Q 44.578125 72.90625 50.734375 67.671875 
Q 56.890625 62.453125 56.890625 51.90625 
Q 56.890625 45.015625 53.6875 40.46875 
Q 50.484375 35.9375 44.390625 34.1875 
z
M 19.671875 64.796875 
L 19.671875 38.921875 
L 32.078125 38.921875 
Q 39.203125 38.921875 42.84375 42.21875 
Q 46.484375 45.515625 46.484375 51.90625 
Q 46.484375 58.296875 42.84375 61.546875 
Q 39.203125 64.796875 32.078125 64.796875 
z
" id="DejaVuSans-82"/>
    <path d="M 53.515625 70.515625 
L 53.515625 60.890625 
Q 47.90625 63.578125 42.921875 64.890625 
Q 37.9375 66.21875 33.296875 66.21875 
Q 25.25 66.21875 20.875 63.09375 
Q 16.5 59.96875 16.5 54.203125 
Q 16.5 49.359375 19.40625 46.890625 
Q 22.3125 44.4375 30.421875 42.921875 
L 36.375 41.703125 
Q 47.40625 39.59375 52.65625 34.296875 
Q 57.90625 29 57.90625 20.125 
Q 57.90625 9.515625 50.796875 4.046875 
Q 43.703125 -1.421875 29.984375 -1.421875 
Q 24.8125 -1.421875 18.96875 -0.25 
Q 13.140625 0.921875 6.890625 3.21875 
L 6.890625 13.375 
Q 12.890625 10.015625 18.65625 8.296875 
Q 24.421875 6.59375 29.984375 6.59375 
Q 38.421875 6.59375 43.015625 9.90625 
Q 47.609375 13.234375 47.609375 19.390625 
Q 47.609375 24.75 44.3125 27.78125 
Q 41.015625 30.8125 33.5 32.328125 
L 27.484375 33.5 
Q 16.453125 35.6875 11.515625 40.375 
Q 6.59375 45.0625 6.59375 53.421875 
Q 6.59375 63.09375 13.40625 68.65625 
Q 20.21875 74.21875 32.171875 74.21875 
Q 37.3125 74.21875 42.625 73.28125 
Q 47.953125 72.359375 53.515625 70.515625 
z
" id="DejaVuSans-83"/>
    <path d="M 8.5 21.578125 
L 8.5 54.6875 
L 17.484375 54.6875 
L 17.484375 21.921875 
Q 17.484375 14.15625 20.5 10.265625 
Q 23.53125 6.390625 29.59375 6.390625 
Q 36.859375 6.390625 41.078125 11.03125 
Q 45.3125 15.671875 45.3125 23.6875 
L 45.3125 54.6875 
L 54.296875 54.6875 
L 54.296875 0 
L 45.3125 0 
L 45.3125 8.40625 
Q 42.046875 3.421875 37.71875 1 
Q 33.40625 -1.421875 27.6875 -1.421875 
Q 18.265625 -1.421875 13.375 4.4375 
Q 8.5 10.296875 8.5 21.578125 
z
M 31.109375 56 
z
" id="DejaVuSans-117"/>
    <path d="M 10.6875 12.40625 
L 21 12.40625 
L 21 0 
L 10.6875 0 
z
" id="DejaVuSans-46"/>
    <path d="M 72.703125 32.078125 
Q 68.453125 32.078125 66.03125 28.46875 
Q 63.625 24.859375 63.625 18.40625 
Q 63.625 12.0625 66.03125 8.421875 
Q 68.453125 4.78125 72.703125 4.78125 
Q 76.859375 4.78125 79.265625 8.421875 
Q 81.6875 12.0625 81.6875 18.40625 
Q 81.6875 24.8125 79.265625 28.4375 
Q 76.859375 32.078125 72.703125 32.078125 
z
M 72.703125 38.28125 
Q 80.421875 38.28125 84.953125 32.90625 
Q 89.5 27.546875 89.5 18.40625 
Q 89.5 9.28125 84.9375 3.921875 
Q 80.375 -1.421875 72.703125 -1.421875 
Q 64.890625 -1.421875 60.34375 3.921875 
Q 55.8125 9.28125 55.8125 18.40625 
Q 55.8125 27.59375 60.375 32.9375 
Q 64.9375 38.28125 72.703125 38.28125 
z
M 22.3125 68.015625 
Q 18.109375 68.015625 15.6875 64.375 
Q 13.28125 60.75 13.28125 54.390625 
Q 13.28125 47.953125 15.671875 44.328125 
Q 18.0625 40.71875 22.3125 40.71875 
Q 26.5625 40.71875 28.96875 44.328125 
Q 31.390625 47.953125 31.390625 54.390625 
Q 31.390625 60.6875 28.953125 64.34375 
Q 26.515625 68.015625 22.3125 68.015625 
z
M 66.40625 74.21875 
L 74.21875 74.21875 
L 28.609375 -1.421875 
L 20.796875 -1.421875 
z
M 22.3125 74.21875 
Q 30.03125 74.21875 34.609375 68.875 
Q 39.203125 63.53125 39.203125 54.390625 
Q 39.203125 45.171875 34.640625 39.84375 
Q 30.078125 34.515625 22.3125 34.515625 
Q 14.546875 34.515625 10.03125 39.859375 
Q 5.515625 45.21875 5.515625 54.390625 
Q 5.515625 63.484375 10.046875 68.84375 
Q 14.59375 74.21875 22.3125 74.21875 
z
" id="DejaVuSans-37"/>
   </defs>
   <g transform="translate(547.781562 66.90749)scale(0.34 -0.34)">
    <use xlink:href="#DejaVuSans-66"/>
    <use x="68.603516" xlink:href="#DejaVuSans-97"/>
    <use x="129.882812" xlink:href="#DejaVuSans-103"/>
    <use x="193.359375" xlink:href="#DejaVuSans-102"/>
    <use x="228.564453" xlink:href="#DejaVuSans-105"/>
    <use x="256.347656" xlink:href="#DejaVuSans-108"/>
    <use x="284.130859" xlink:href="#DejaVuSans-101"/>
    <use x="345.654297" xlink:href="#DejaVuSans-32"/>
    <use x="377.441406" xlink:href="#DejaVuSans-101"/>
    <use x="438.964844" xlink:href="#DejaVuSans-108"/>
    <use x="466.748047" xlink:href="#DejaVuSans-98"/>
    <use x="530.224609" xlink:href="#DejaVuSans-111"/>
    <use x="591.40625" xlink:href="#DejaVuSans-119"/>
    <use x="673.193359" xlink:href="#DejaVuSans-95"/>
    <use x="723.193359" xlink:href="#DejaVuSans-108"/>
    <use x="750.976562" xlink:href="#DejaVuSans-101"/>
    <use x="812.5" xlink:href="#DejaVuSans-102"/>
    <use x="847.689453" xlink:href="#DejaVuSans-116"/>
    <use x="886.898438" xlink:href="#DejaVuSans-95"/>
    <use x="936.898438" xlink:href="#DejaVuSans-99"/>
    <use x="991.878906" xlink:href="#DejaVuSans-32"/>
    <use x="1023.666016" xlink:href="#DejaVuSans-102"/>
    <use x="1058.871094" xlink:href="#DejaVuSans-114"/>
    <use x="1099.953125" xlink:href="#DejaVuSans-111"/>
    <use x="1161.134766" xlink:href="#DejaVuSans-109"/>
    <use x="1258.546875" xlink:href="#DejaVuSans-32"/>
    <use x="1290.333984" xlink:href="#DejaVuSans-51"/>
    <use x="1353.957031" xlink:href="#DejaVuSans-53"/>
    <use x="1417.580078" xlink:href="#DejaVuSans-115"/>
    <use x="1469.679688" xlink:href="#DejaVuSans-32"/>
    <use x="1501.466797" xlink:href="#DejaVuSans-102"/>
    <use x="1536.671875" xlink:href="#DejaVuSans-111"/>
    <use x="1597.853516" xlink:href="#DejaVuSans-114"/>
    <use x="1638.966797" xlink:href="#DejaVuSans-32"/>
    <use x="1670.753906" xlink:href="#DejaVuSans-57"/>
    <use x="1734.376953" xlink:href="#DejaVuSans-53"/>
    <use x="1798" xlink:href="#DejaVuSans-115"/>
    <use x="1850.099609" xlink:href="#DejaVuSans-32"/>
    <use x="1881.886719" xlink:href="#DejaVuSans-45"/>
    <use x="1917.970703" xlink:href="#DejaVuSans-32"/>
    <use x="1949.757812" xlink:href="#DejaVuSans-76"/>
    <use x="2005.455078" xlink:href="#DejaVuSans-111"/>
    <use x="2066.636719" xlink:href="#DejaVuSans-103"/>
    <use x="2130.113281" xlink:href="#DejaVuSans-103"/>
    <use x="2193.589844" xlink:href="#DejaVuSans-105"/>
    <use x="2221.373047" xlink:href="#DejaVuSans-110"/>
    <use x="2284.751953" xlink:href="#DejaVuSans-103"/>
    <use x="2348.228516" xlink:href="#DejaVuSans-32"/>
    <use x="2380.015625" xlink:href="#DejaVuSans-82"/>
    <use x="2449.466797" xlink:href="#DejaVuSans-97"/>
    <use x="2510.746094" xlink:href="#DejaVuSans-116"/>
    <use x="2549.955078" xlink:href="#DejaVuSans-101"/>
    <use x="2611.478516" xlink:href="#DejaVuSans-32"/>
    <use x="2643.265625" xlink:href="#DejaVuSans-51"/>
    <use x="2706.888672" xlink:href="#DejaVuSans-48"/>
    <use x="2770.511719" xlink:href="#DejaVuSans-32"/>
    <use x="2802.298828" xlink:href="#DejaVuSans-45"/>
    <use x="2838.382812" xlink:href="#DejaVuSans-32"/>
    <use x="2870.169922" xlink:href="#DejaVuSans-83"/>
    <use x="2933.646484" xlink:href="#DejaVuSans-105"/>
    <use x="2961.429688" xlink:href="#DejaVuSans-109"/>
    <use x="3058.841797" xlink:href="#DejaVuSans-117"/>
    <use x="3122.220703" xlink:href="#DejaVuSans-108"/>
    <use x="3150.003906" xlink:href="#DejaVuSans-97"/>
    <use x="3211.283203" xlink:href="#DejaVuSans-116"/>
    <use x="3250.492188" xlink:href="#DejaVuSans-105"/>
    <use x="3278.275391" xlink:href="#DejaVuSans-111"/>
    <use x="3339.457031" xlink:href="#DejaVuSans-110"/>
    <use x="3402.835938" xlink:href="#DejaVuSans-32"/>
    <use x="3434.623047" xlink:href="#DejaVuSans-82"/>
    <use x="3504.074219" xlink:href="#DejaVuSans-97"/>
    <use x="3565.353516" xlink:href="#DejaVuSans-116"/>
    <use x="3604.5625" xlink:href="#DejaVuSans-101"/>
    <use x="3666.085938" xlink:href="#DejaVuSans-32"/>
    <use x="3697.873047" xlink:href="#DejaVuSans-52"/>
    <use x="3761.496094" xlink:href="#DejaVuSans-48"/>
    <use x="3825.119141" xlink:href="#DejaVuSans-48"/>
    <use x="3888.742188" xlink:href="#DejaVuSans-32"/>
    <use x="3920.529297" xlink:href="#DejaVuSans-45"/>
    <use x="3956.613281" xlink:href="#DejaVuSans-32"/>
    <use x="3988.400391" xlink:href="#DejaVuSans-49"/>
    <use x="4052.023438" xlink:href="#DejaVuSans-48"/>
    <use x="4115.646484" xlink:href="#DejaVuSans-48"/>
    <use x="4179.269531" xlink:href="#DejaVuSans-46"/>
    <use x="4211.056641" xlink:href="#DejaVuSans-48"/>
    <use x="4274.679688" xlink:href="#DejaVuSans-48"/>
    <use x="4338.302734" xlink:href="#DejaVuSans-37"/>
    <use x="4433.322266" xlink:href="#DejaVuSans-32"/>
    <use x="4465.109375" xlink:href="#DejaVuSans-114"/>
    <use x="4506.191406" xlink:href="#DejaVuSans-101"/>
    <use x="4567.714844" xlink:href="#DejaVuSans-97"/>
    <use x="4628.994141" xlink:href="#DejaVuSans-108"/>
    <use x="4656.777344" xlink:href="#DejaVuSans-32"/>
    <use x="4688.564453" xlink:href="#DejaVuSans-116"/>
    <use x="4727.773438" xlink:href="#DejaVuSans-105"/>
    <use x="4755.556641" xlink:href="#DejaVuSans-109"/>
    <use x="4852.96875" xlink:href="#DejaVuSans-101"/>
    <use x="4914.492188" xlink:href="#DejaVuSans-32"/>
    <use x="4946.279297" xlink:href="#DejaVuSans-115"/>
    <use x="4998.378906" xlink:href="#DejaVuSans-112"/>
    <use x="5061.855469" xlink:href="#DejaVuSans-101"/>
    <use x="5123.378906" xlink:href="#DejaVuSans-101"/>
    <use x="5184.902344" xlink:href="#DejaVuSans-100"/>
   </g>
   <!--  -->
   <g transform="translate(1440 105.925677)scale(0.34 -0.34)"/>
  </g>
 </g>
 <defs>
  <clipPath id="pbe428f0dca">
   <rect height="863.577185" width="2782.90202" x="94.09774" y="157.9032"/>
  </clipPath>
 </defs>
</svg>
