<?xml version="1.0" encoding="utf-8" standalone="no"?>
<!DOCTYPE svg PUBLIC "-//W3C//DTD SVG 1.1//EN"
  "http://www.w3.org/Graphics/SVG/1.1/DTD/svg11.dtd">
<!-- Created with matplotlib (https://matplotlib.org/) -->
<svg height="1080pt" version="1.1" viewBox="0 0 2880 1080" width="2880pt" xmlns="http://www.w3.org/2000/svg" xmlns:xlink="http://www.w3.org/1999/xlink">
 <defs>
  <style type="text/css">
*{stroke-linecap:butt;stroke-linejoin:round;}
  </style>
 </defs>
 <g id="figure_1">
  <g id="patch_1">
   <path d="M 0 1080 
L 2880 1080 
L 2880 0 
L 0 0 
z
" style="fill:#ffffff;"/>
  </g>
  <g id="axes_1">
   <g id="patch_2">
    <path d="M 83.694615 1021.480385 
L 2876.99976 1021.480385 
L 2876.99976 157.9032 
L 83.694615 157.9032 
z
" style="fill:#ffffff;"/>
   </g>
   <g id="matplotlib.axis_1">
    <g id="xtick_1">
     <g id="line2d_1">
      <defs>
       <path d="M 0 0 
L 0 3.5 
" id="mafb0762333" style="stroke:#000000;stroke-width:0.8;"/>
      </defs>
      <g>
       <use style="stroke:#000000;stroke-width:0.8;" x="141.564587" xlink:href="#mafb0762333" y="1021.480385"/>
      </g>
     </g>
     <g id="text_1">
      <!-- 0 -->
      <defs>
       <path d="M 31.78125 66.40625 
Q 24.171875 66.40625 20.328125 58.90625 
Q 16.5 51.421875 16.5 36.375 
Q 16.5 21.390625 20.328125 13.890625 
Q 24.171875 6.390625 31.78125 6.390625 
Q 39.453125 6.390625 43.28125 13.890625 
Q 47.125 21.390625 47.125 36.375 
Q 47.125 51.421875 43.28125 58.90625 
Q 39.453125 66.40625 31.78125 66.40625 
z
M 31.78125 74.21875 
Q 44.046875 74.21875 50.515625 64.515625 
Q 56.984375 54.828125 56.984375 36.375 
Q 56.984375 17.96875 50.515625 8.265625 
Q 44.046875 -1.421875 31.78125 -1.421875 
Q 19.53125 -1.421875 13.0625 8.265625 
Q 6.59375 17.96875 6.59375 36.375 
Q 6.59375 54.828125 13.0625 64.515625 
Q 19.53125 74.21875 31.78125 74.21875 
z
" id="DejaVuSans-48"/>
      </defs>
      <g transform="translate(135.202087 1043.67726)scale(0.2 -0.2)">
       <use xlink:href="#DejaVuSans-48"/>
      </g>
     </g>
    </g>
    <g id="xtick_2">
     <g id="line2d_2">
      <g>
       <use style="stroke:#000000;stroke-width:0.8;" x="487.056807" xlink:href="#mafb0762333" y="1021.480385"/>
      </g>
     </g>
     <g id="text_2">
      <!-- 50 -->
      <defs>
       <path d="M 10.796875 72.90625 
L 49.515625 72.90625 
L 49.515625 64.59375 
L 19.828125 64.59375 
L 19.828125 46.734375 
Q 21.96875 47.46875 24.109375 47.828125 
Q 26.265625 48.1875 28.421875 48.1875 
Q 40.625 48.1875 47.75 41.5 
Q 54.890625 34.8125 54.890625 23.390625 
Q 54.890625 11.625 47.5625 5.09375 
Q 40.234375 -1.421875 26.90625 -1.421875 
Q 22.3125 -1.421875 17.546875 -0.640625 
Q 12.796875 0.140625 7.71875 1.703125 
L 7.71875 11.625 
Q 12.109375 9.234375 16.796875 8.0625 
Q 21.484375 6.890625 26.703125 6.890625 
Q 35.15625 6.890625 40.078125 11.328125 
Q 45.015625 15.765625 45.015625 23.390625 
Q 45.015625 31 40.078125 35.4375 
Q 35.15625 39.890625 26.703125 39.890625 
Q 22.75 39.890625 18.8125 39.015625 
Q 14.890625 38.140625 10.796875 36.28125 
z
" id="DejaVuSans-53"/>
      </defs>
      <g transform="translate(474.331807 1043.67726)scale(0.2 -0.2)">
       <use xlink:href="#DejaVuSans-53"/>
       <use x="63.623047" xlink:href="#DejaVuSans-48"/>
      </g>
     </g>
    </g>
    <g id="xtick_3">
     <g id="line2d_3">
      <g>
       <use style="stroke:#000000;stroke-width:0.8;" x="832.549028" xlink:href="#mafb0762333" y="1021.480385"/>
      </g>
     </g>
     <g id="text_3">
      <!-- 100 -->
      <defs>
       <path d="M 12.40625 8.296875 
L 28.515625 8.296875 
L 28.515625 63.921875 
L 10.984375 60.40625 
L 10.984375 69.390625 
L 28.421875 72.90625 
L 38.28125 72.90625 
L 38.28125 8.296875 
L 54.390625 8.296875 
L 54.390625 0 
L 12.40625 0 
z
" id="DejaVuSans-49"/>
      </defs>
      <g transform="translate(813.461528 1043.67726)scale(0.2 -0.2)">
       <use xlink:href="#DejaVuSans-49"/>
       <use x="63.623047" xlink:href="#DejaVuSans-48"/>
       <use x="127.246094" xlink:href="#DejaVuSans-48"/>
      </g>
     </g>
    </g>
    <g id="xtick_4">
     <g id="line2d_4">
      <g>
       <use style="stroke:#000000;stroke-width:0.8;" x="1178.041248" xlink:href="#mafb0762333" y="1021.480385"/>
      </g>
     </g>
     <g id="text_4">
      <!-- 150 -->
      <g transform="translate(1158.953748 1043.67726)scale(0.2 -0.2)">
       <use xlink:href="#DejaVuSans-49"/>
       <use x="63.623047" xlink:href="#DejaVuSans-53"/>
       <use x="127.246094" xlink:href="#DejaVuSans-48"/>
      </g>
     </g>
    </g>
    <g id="xtick_5">
     <g id="line2d_5">
      <g>
       <use style="stroke:#000000;stroke-width:0.8;" x="1523.533469" xlink:href="#mafb0762333" y="1021.480385"/>
      </g>
     </g>
     <g id="text_5">
      <!-- 200 -->
      <defs>
       <path d="M 19.1875 8.296875 
L 53.609375 8.296875 
L 53.609375 0 
L 7.328125 0 
L 7.328125 8.296875 
Q 12.9375 14.109375 22.625 23.890625 
Q 32.328125 33.6875 34.8125 36.53125 
Q 39.546875 41.84375 41.421875 45.53125 
Q 43.3125 49.21875 43.3125 52.78125 
Q 43.3125 58.59375 39.234375 62.25 
Q 35.15625 65.921875 28.609375 65.921875 
Q 23.96875 65.921875 18.8125 64.3125 
Q 13.671875 62.703125 7.8125 59.421875 
L 7.8125 69.390625 
Q 13.765625 71.78125 18.9375 73 
Q 24.125 74.21875 28.421875 74.21875 
Q 39.75 74.21875 46.484375 68.546875 
Q 53.21875 62.890625 53.21875 53.421875 
Q 53.21875 48.921875 51.53125 44.890625 
Q 49.859375 40.875 45.40625 35.40625 
Q 44.1875 33.984375 37.640625 27.21875 
Q 31.109375 20.453125 19.1875 8.296875 
z
" id="DejaVuSans-50"/>
      </defs>
      <g transform="translate(1504.445969 1043.67726)scale(0.2 -0.2)">
       <use xlink:href="#DejaVuSans-50"/>
       <use x="63.623047" xlink:href="#DejaVuSans-48"/>
       <use x="127.246094" xlink:href="#DejaVuSans-48"/>
      </g>
     </g>
    </g>
    <g id="xtick_6">
     <g id="line2d_6">
      <g>
       <use style="stroke:#000000;stroke-width:0.8;" x="1869.025689" xlink:href="#mafb0762333" y="1021.480385"/>
      </g>
     </g>
     <g id="text_6">
      <!-- 250 -->
      <g transform="translate(1849.938189 1043.67726)scale(0.2 -0.2)">
       <use xlink:href="#DejaVuSans-50"/>
       <use x="63.623047" xlink:href="#DejaVuSans-53"/>
       <use x="127.246094" xlink:href="#DejaVuSans-48"/>
      </g>
     </g>
    </g>
    <g id="xtick_7">
     <g id="line2d_7">
      <g>
       <use style="stroke:#000000;stroke-width:0.8;" x="2214.51791" xlink:href="#mafb0762333" y="1021.480385"/>
      </g>
     </g>
     <g id="text_7">
      <!-- 300 -->
      <defs>
       <path d="M 40.578125 39.3125 
Q 47.65625 37.796875 51.625 33 
Q 55.609375 28.21875 55.609375 21.1875 
Q 55.609375 10.40625 48.1875 4.484375 
Q 40.765625 -1.421875 27.09375 -1.421875 
Q 22.515625 -1.421875 17.65625 -0.515625 
Q 12.796875 0.390625 7.625 2.203125 
L 7.625 11.71875 
Q 11.71875 9.328125 16.59375 8.109375 
Q 21.484375 6.890625 26.8125 6.890625 
Q 36.078125 6.890625 40.9375 10.546875 
Q 45.796875 14.203125 45.796875 21.1875 
Q 45.796875 27.640625 41.28125 31.265625 
Q 36.765625 34.90625 28.71875 34.90625 
L 20.21875 34.90625 
L 20.21875 43.015625 
L 29.109375 43.015625 
Q 36.375 43.015625 40.234375 45.921875 
Q 44.09375 48.828125 44.09375 54.296875 
Q 44.09375 59.90625 40.109375 62.90625 
Q 36.140625 65.921875 28.71875 65.921875 
Q 24.65625 65.921875 20.015625 65.03125 
Q 15.375 64.15625 9.8125 62.3125 
L 9.8125 71.09375 
Q 15.4375 72.65625 20.34375 73.4375 
Q 25.25 74.21875 29.59375 74.21875 
Q 40.828125 74.21875 47.359375 69.109375 
Q 53.90625 64.015625 53.90625 55.328125 
Q 53.90625 49.265625 50.4375 45.09375 
Q 46.96875 40.921875 40.578125 39.3125 
z
" id="DejaVuSans-51"/>
      </defs>
      <g transform="translate(2195.43041 1043.67726)scale(0.2 -0.2)">
       <use xlink:href="#DejaVuSans-51"/>
       <use x="63.623047" xlink:href="#DejaVuSans-48"/>
       <use x="127.246094" xlink:href="#DejaVuSans-48"/>
      </g>
     </g>
    </g>
    <g id="xtick_8">
     <g id="line2d_8">
      <g>
       <use style="stroke:#000000;stroke-width:0.8;" x="2560.01013" xlink:href="#mafb0762333" y="1021.480385"/>
      </g>
     </g>
     <g id="text_8">
      <!-- 350 -->
      <g transform="translate(2540.92263 1043.67726)scale(0.2 -0.2)">
       <use xlink:href="#DejaVuSans-51"/>
       <use x="63.623047" xlink:href="#DejaVuSans-53"/>
       <use x="127.246094" xlink:href="#DejaVuSans-48"/>
      </g>
     </g>
    </g>
    <g id="text_9">
     <!-- Time [s] -->
     <defs>
      <path d="M -0.296875 72.90625 
L 61.375 72.90625 
L 61.375 64.59375 
L 35.5 64.59375 
L 35.5 0 
L 25.59375 0 
L 25.59375 64.59375 
L -0.296875 64.59375 
z
" id="DejaVuSans-84"/>
      <path d="M 9.421875 54.6875 
L 18.40625 54.6875 
L 18.40625 0 
L 9.421875 0 
z
M 9.421875 75.984375 
L 18.40625 75.984375 
L 18.40625 64.59375 
L 9.421875 64.59375 
z
" id="DejaVuSans-105"/>
      <path d="M 52 44.1875 
Q 55.375 50.25 60.0625 53.125 
Q 64.75 56 71.09375 56 
Q 79.640625 56 84.28125 50.015625 
Q 88.921875 44.046875 88.921875 33.015625 
L 88.921875 0 
L 79.890625 0 
L 79.890625 32.71875 
Q 79.890625 40.578125 77.09375 44.375 
Q 74.3125 48.1875 68.609375 48.1875 
Q 61.625 48.1875 57.5625 43.546875 
Q 53.515625 38.921875 53.515625 30.90625 
L 53.515625 0 
L 44.484375 0 
L 44.484375 32.71875 
Q 44.484375 40.625 41.703125 44.40625 
Q 38.921875 48.1875 33.109375 48.1875 
Q 26.21875 48.1875 22.15625 43.53125 
Q 18.109375 38.875 18.109375 30.90625 
L 18.109375 0 
L 9.078125 0 
L 9.078125 54.6875 
L 18.109375 54.6875 
L 18.109375 46.1875 
Q 21.1875 51.21875 25.484375 53.609375 
Q 29.78125 56 35.6875 56 
Q 41.65625 56 45.828125 52.96875 
Q 50 49.953125 52 44.1875 
z
" id="DejaVuSans-109"/>
      <path d="M 56.203125 29.59375 
L 56.203125 25.203125 
L 14.890625 25.203125 
Q 15.484375 15.921875 20.484375 11.0625 
Q 25.484375 6.203125 34.421875 6.203125 
Q 39.59375 6.203125 44.453125 7.46875 
Q 49.3125 8.734375 54.109375 11.28125 
L 54.109375 2.78125 
Q 49.265625 0.734375 44.1875 -0.34375 
Q 39.109375 -1.421875 33.890625 -1.421875 
Q 20.796875 -1.421875 13.15625 6.1875 
Q 5.515625 13.8125 5.515625 26.8125 
Q 5.515625 40.234375 12.765625 48.109375 
Q 20.015625 56 32.328125 56 
Q 43.359375 56 49.78125 48.890625 
Q 56.203125 41.796875 56.203125 29.59375 
z
M 47.21875 32.234375 
Q 47.125 39.59375 43.09375 43.984375 
Q 39.0625 48.390625 32.421875 48.390625 
Q 24.90625 48.390625 20.390625 44.140625 
Q 15.875 39.890625 15.1875 32.171875 
z
" id="DejaVuSans-101"/>
      <path id="DejaVuSans-32"/>
      <path d="M 8.59375 75.984375 
L 29.296875 75.984375 
L 29.296875 69 
L 17.578125 69 
L 17.578125 -6.203125 
L 29.296875 -6.203125 
L 29.296875 -13.1875 
L 8.59375 -13.1875 
z
" id="DejaVuSans-91"/>
      <path d="M 44.28125 53.078125 
L 44.28125 44.578125 
Q 40.484375 46.53125 36.375 47.5 
Q 32.28125 48.484375 27.875 48.484375 
Q 21.1875 48.484375 17.84375 46.4375 
Q 14.5 44.390625 14.5 40.28125 
Q 14.5 37.15625 16.890625 35.375 
Q 19.28125 33.59375 26.515625 31.984375 
L 29.59375 31.296875 
Q 39.15625 29.25 43.1875 25.515625 
Q 47.21875 21.78125 47.21875 15.09375 
Q 47.21875 7.46875 41.1875 3.015625 
Q 35.15625 -1.421875 24.609375 -1.421875 
Q 20.21875 -1.421875 15.453125 -0.5625 
Q 10.6875 0.296875 5.421875 2 
L 5.421875 11.28125 
Q 10.40625 8.6875 15.234375 7.390625 
Q 20.0625 6.109375 24.8125 6.109375 
Q 31.15625 6.109375 34.5625 8.28125 
Q 37.984375 10.453125 37.984375 14.40625 
Q 37.984375 18.0625 35.515625 20.015625 
Q 33.0625 21.96875 24.703125 23.78125 
L 21.578125 24.515625 
Q 13.234375 26.265625 9.515625 29.90625 
Q 5.8125 33.546875 5.8125 39.890625 
Q 5.8125 47.609375 11.28125 51.796875 
Q 16.75 56 26.8125 56 
Q 31.78125 56 36.171875 55.265625 
Q 40.578125 54.546875 44.28125 53.078125 
z
" id="DejaVuSans-115"/>
      <path d="M 30.421875 75.984375 
L 30.421875 -13.1875 
L 9.71875 -13.1875 
L 9.71875 -6.203125 
L 21.390625 -6.203125 
L 21.390625 69 
L 9.71875 69 
L 9.71875 75.984375 
z
" id="DejaVuSans-93"/>
     </defs>
     <g transform="translate(1427.091875 1071.592572)scale(0.26 -0.26)">
      <use xlink:href="#DejaVuSans-84"/>
      <use x="61.037109" xlink:href="#DejaVuSans-105"/>
      <use x="88.820312" xlink:href="#DejaVuSans-109"/>
      <use x="186.232422" xlink:href="#DejaVuSans-101"/>
      <use x="247.755859" xlink:href="#DejaVuSans-32"/>
      <use x="279.542969" xlink:href="#DejaVuSans-91"/>
      <use x="318.556641" xlink:href="#DejaVuSans-115"/>
      <use x="370.65625" xlink:href="#DejaVuSans-93"/>
     </g>
    </g>
   </g>
   <g id="matplotlib.axis_2">
    <g id="ytick_1">
     <g id="line2d_9">
      <defs>
       <path d="M 0 0 
L -3.5 0 
" id="maa64c7f7f8" style="stroke:#000000;stroke-width:0.8;"/>
      </defs>
      <g>
       <use style="stroke:#000000;stroke-width:0.8;" x="83.694615" xlink:href="#maa64c7f7f8" y="956.914209"/>
      </g>
     </g>
     <g id="text_10">
      <!-- 0.07 -->
      <defs>
       <path d="M 10.6875 12.40625 
L 21 12.40625 
L 21 0 
L 10.6875 0 
z
" id="DejaVuSans-46"/>
       <path d="M 8.203125 72.90625 
L 55.078125 72.90625 
L 55.078125 68.703125 
L 28.609375 0 
L 18.3125 0 
L 43.21875 64.59375 
L 8.203125 64.59375 
z
" id="DejaVuSans-55"/>
      </defs>
      <g transform="translate(32.163365 964.512646)scale(0.2 -0.2)">
       <use xlink:href="#DejaVuSans-48"/>
       <use x="63.623047" xlink:href="#DejaVuSans-46"/>
       <use x="95.410156" xlink:href="#DejaVuSans-48"/>
       <use x="159.033203" xlink:href="#DejaVuSans-55"/>
      </g>
     </g>
    </g>
    <g id="ytick_2">
     <g id="line2d_10">
      <g>
       <use style="stroke:#000000;stroke-width:0.8;" x="83.694615" xlink:href="#maa64c7f7f8" y="860.92419"/>
      </g>
     </g>
     <g id="text_11">
      <!-- 0.08 -->
      <defs>
       <path d="M 31.78125 34.625 
Q 24.75 34.625 20.71875 30.859375 
Q 16.703125 27.09375 16.703125 20.515625 
Q 16.703125 13.921875 20.71875 10.15625 
Q 24.75 6.390625 31.78125 6.390625 
Q 38.8125 6.390625 42.859375 10.171875 
Q 46.921875 13.96875 46.921875 20.515625 
Q 46.921875 27.09375 42.890625 30.859375 
Q 38.875 34.625 31.78125 34.625 
z
M 21.921875 38.8125 
Q 15.578125 40.375 12.03125 44.71875 
Q 8.5 49.078125 8.5 55.328125 
Q 8.5 64.0625 14.71875 69.140625 
Q 20.953125 74.21875 31.78125 74.21875 
Q 42.671875 74.21875 48.875 69.140625 
Q 55.078125 64.0625 55.078125 55.328125 
Q 55.078125 49.078125 51.53125 44.71875 
Q 48 40.375 41.703125 38.8125 
Q 48.828125 37.15625 52.796875 32.3125 
Q 56.78125 27.484375 56.78125 20.515625 
Q 56.78125 9.90625 50.3125 4.234375 
Q 43.84375 -1.421875 31.78125 -1.421875 
Q 19.734375 -1.421875 13.25 4.234375 
Q 6.78125 9.90625 6.78125 20.515625 
Q 6.78125 27.484375 10.78125 32.3125 
Q 14.796875 37.15625 21.921875 38.8125 
z
M 18.3125 54.390625 
Q 18.3125 48.734375 21.84375 45.5625 
Q 25.390625 42.390625 31.78125 42.390625 
Q 38.140625 42.390625 41.71875 45.5625 
Q 45.3125 48.734375 45.3125 54.390625 
Q 45.3125 60.0625 41.71875 63.234375 
Q 38.140625 66.40625 31.78125 66.40625 
Q 25.390625 66.40625 21.84375 63.234375 
Q 18.3125 60.0625 18.3125 54.390625 
z
" id="DejaVuSans-56"/>
      </defs>
      <g transform="translate(32.163365 868.522628)scale(0.2 -0.2)">
       <use xlink:href="#DejaVuSans-48"/>
       <use x="63.623047" xlink:href="#DejaVuSans-46"/>
       <use x="95.410156" xlink:href="#DejaVuSans-48"/>
       <use x="159.033203" xlink:href="#DejaVuSans-56"/>
      </g>
     </g>
    </g>
    <g id="ytick_3">
     <g id="line2d_11">
      <g>
       <use style="stroke:#000000;stroke-width:0.8;" x="83.694615" xlink:href="#maa64c7f7f8" y="764.934172"/>
      </g>
     </g>
     <g id="text_12">
      <!-- 0.09 -->
      <defs>
       <path d="M 10.984375 1.515625 
L 10.984375 10.5 
Q 14.703125 8.734375 18.5 7.8125 
Q 22.3125 6.890625 25.984375 6.890625 
Q 35.75 6.890625 40.890625 13.453125 
Q 46.046875 20.015625 46.78125 33.40625 
Q 43.953125 29.203125 39.59375 26.953125 
Q 35.25 24.703125 29.984375 24.703125 
Q 19.046875 24.703125 12.671875 31.3125 
Q 6.296875 37.9375 6.296875 49.421875 
Q 6.296875 60.640625 12.9375 67.421875 
Q 19.578125 74.21875 30.609375 74.21875 
Q 43.265625 74.21875 49.921875 64.515625 
Q 56.59375 54.828125 56.59375 36.375 
Q 56.59375 19.140625 48.40625 8.859375 
Q 40.234375 -1.421875 26.421875 -1.421875 
Q 22.703125 -1.421875 18.890625 -0.6875 
Q 15.09375 0.046875 10.984375 1.515625 
z
M 30.609375 32.421875 
Q 37.25 32.421875 41.125 36.953125 
Q 45.015625 41.5 45.015625 49.421875 
Q 45.015625 57.28125 41.125 61.84375 
Q 37.25 66.40625 30.609375 66.40625 
Q 23.96875 66.40625 20.09375 61.84375 
Q 16.21875 57.28125 16.21875 49.421875 
Q 16.21875 41.5 20.09375 36.953125 
Q 23.96875 32.421875 30.609375 32.421875 
z
" id="DejaVuSans-57"/>
      </defs>
      <g transform="translate(32.163365 772.532609)scale(0.2 -0.2)">
       <use xlink:href="#DejaVuSans-48"/>
       <use x="63.623047" xlink:href="#DejaVuSans-46"/>
       <use x="95.410156" xlink:href="#DejaVuSans-48"/>
       <use x="159.033203" xlink:href="#DejaVuSans-57"/>
      </g>
     </g>
    </g>
    <g id="ytick_4">
     <g id="line2d_12">
      <g>
       <use style="stroke:#000000;stroke-width:0.8;" x="83.694615" xlink:href="#maa64c7f7f8" y="668.944154"/>
      </g>
     </g>
     <g id="text_13">
      <!-- 0.10 -->
      <g transform="translate(32.163365 676.542591)scale(0.2 -0.2)">
       <use xlink:href="#DejaVuSans-48"/>
       <use x="63.623047" xlink:href="#DejaVuSans-46"/>
       <use x="95.410156" xlink:href="#DejaVuSans-49"/>
       <use x="159.033203" xlink:href="#DejaVuSans-48"/>
      </g>
     </g>
    </g>
    <g id="ytick_5">
     <g id="line2d_13">
      <g>
       <use style="stroke:#000000;stroke-width:0.8;" x="83.694615" xlink:href="#maa64c7f7f8" y="572.954135"/>
      </g>
     </g>
     <g id="text_14">
      <!-- 0.11 -->
      <g transform="translate(32.163365 580.552573)scale(0.2 -0.2)">
       <use xlink:href="#DejaVuSans-48"/>
       <use x="63.623047" xlink:href="#DejaVuSans-46"/>
       <use x="95.410156" xlink:href="#DejaVuSans-49"/>
       <use x="159.033203" xlink:href="#DejaVuSans-49"/>
      </g>
     </g>
    </g>
    <g id="ytick_6">
     <g id="line2d_14">
      <g>
       <use style="stroke:#000000;stroke-width:0.8;" x="83.694615" xlink:href="#maa64c7f7f8" y="476.964117"/>
      </g>
     </g>
     <g id="text_15">
      <!-- 0.12 -->
      <g transform="translate(32.163365 484.562554)scale(0.2 -0.2)">
       <use xlink:href="#DejaVuSans-48"/>
       <use x="63.623047" xlink:href="#DejaVuSans-46"/>
       <use x="95.410156" xlink:href="#DejaVuSans-49"/>
       <use x="159.033203" xlink:href="#DejaVuSans-50"/>
      </g>
     </g>
    </g>
    <g id="ytick_7">
     <g id="line2d_15">
      <g>
       <use style="stroke:#000000;stroke-width:0.8;" x="83.694615" xlink:href="#maa64c7f7f8" y="380.974099"/>
      </g>
     </g>
     <g id="text_16">
      <!-- 0.13 -->
      <g transform="translate(32.163365 388.572536)scale(0.2 -0.2)">
       <use xlink:href="#DejaVuSans-48"/>
       <use x="63.623047" xlink:href="#DejaVuSans-46"/>
       <use x="95.410156" xlink:href="#DejaVuSans-49"/>
       <use x="159.033203" xlink:href="#DejaVuSans-51"/>
      </g>
     </g>
    </g>
    <g id="ytick_8">
     <g id="line2d_16">
      <g>
       <use style="stroke:#000000;stroke-width:0.8;" x="83.694615" xlink:href="#maa64c7f7f8" y="284.98408"/>
      </g>
     </g>
     <g id="text_17">
      <!-- 0.14 -->
      <defs>
       <path d="M 37.796875 64.3125 
L 12.890625 25.390625 
L 37.796875 25.390625 
z
M 35.203125 72.90625 
L 47.609375 72.90625 
L 47.609375 25.390625 
L 58.015625 25.390625 
L 58.015625 17.1875 
L 47.609375 17.1875 
L 47.609375 0 
L 37.796875 0 
L 37.796875 17.1875 
L 4.890625 17.1875 
L 4.890625 26.703125 
z
" id="DejaVuSans-52"/>
      </defs>
      <g transform="translate(32.163365 292.582518)scale(0.2 -0.2)">
       <use xlink:href="#DejaVuSans-48"/>
       <use x="63.623047" xlink:href="#DejaVuSans-46"/>
       <use x="95.410156" xlink:href="#DejaVuSans-49"/>
       <use x="159.033203" xlink:href="#DejaVuSans-52"/>
      </g>
     </g>
    </g>
    <g id="ytick_9">
     <g id="line2d_17">
      <g>
       <use style="stroke:#000000;stroke-width:0.8;" x="83.694615" xlink:href="#maa64c7f7f8" y="188.994062"/>
      </g>
     </g>
     <g id="text_18">
      <!-- 0.15 -->
      <g transform="translate(32.163365 196.592499)scale(0.2 -0.2)">
       <use xlink:href="#DejaVuSans-48"/>
       <use x="63.623047" xlink:href="#DejaVuSans-46"/>
       <use x="95.410156" xlink:href="#DejaVuSans-49"/>
       <use x="159.033203" xlink:href="#DejaVuSans-53"/>
      </g>
     </g>
    </g>
    <g id="text_19">
     <!-- Length [m] -->
     <defs>
      <path d="M 9.8125 72.90625 
L 19.671875 72.90625 
L 19.671875 8.296875 
L 55.171875 8.296875 
L 55.171875 0 
L 9.8125 0 
z
" id="DejaVuSans-76"/>
      <path d="M 54.890625 33.015625 
L 54.890625 0 
L 45.90625 0 
L 45.90625 32.71875 
Q 45.90625 40.484375 42.875 44.328125 
Q 39.84375 48.1875 33.796875 48.1875 
Q 26.515625 48.1875 22.3125 43.546875 
Q 18.109375 38.921875 18.109375 30.90625 
L 18.109375 0 
L 9.078125 0 
L 9.078125 54.6875 
L 18.109375 54.6875 
L 18.109375 46.1875 
Q 21.34375 51.125 25.703125 53.5625 
Q 30.078125 56 35.796875 56 
Q 45.21875 56 50.046875 50.171875 
Q 54.890625 44.34375 54.890625 33.015625 
z
" id="DejaVuSans-110"/>
      <path d="M 45.40625 27.984375 
Q 45.40625 37.75 41.375 43.109375 
Q 37.359375 48.484375 30.078125 48.484375 
Q 22.859375 48.484375 18.828125 43.109375 
Q 14.796875 37.75 14.796875 27.984375 
Q 14.796875 18.265625 18.828125 12.890625 
Q 22.859375 7.515625 30.078125 7.515625 
Q 37.359375 7.515625 41.375 12.890625 
Q 45.40625 18.265625 45.40625 27.984375 
z
M 54.390625 6.78125 
Q 54.390625 -7.171875 48.1875 -13.984375 
Q 42 -20.796875 29.203125 -20.796875 
Q 24.46875 -20.796875 20.265625 -20.09375 
Q 16.0625 -19.390625 12.109375 -17.921875 
L 12.109375 -9.1875 
Q 16.0625 -11.328125 19.921875 -12.34375 
Q 23.78125 -13.375 27.78125 -13.375 
Q 36.625 -13.375 41.015625 -8.765625 
Q 45.40625 -4.15625 45.40625 5.171875 
L 45.40625 9.625 
Q 42.625 4.78125 38.28125 2.390625 
Q 33.9375 0 27.875 0 
Q 17.828125 0 11.671875 7.65625 
Q 5.515625 15.328125 5.515625 27.984375 
Q 5.515625 40.671875 11.671875 48.328125 
Q 17.828125 56 27.875 56 
Q 33.9375 56 38.28125 53.609375 
Q 42.625 51.21875 45.40625 46.390625 
L 45.40625 54.6875 
L 54.390625 54.6875 
z
" id="DejaVuSans-103"/>
      <path d="M 18.3125 70.21875 
L 18.3125 54.6875 
L 36.8125 54.6875 
L 36.8125 47.703125 
L 18.3125 47.703125 
L 18.3125 18.015625 
Q 18.3125 11.328125 20.140625 9.421875 
Q 21.96875 7.515625 27.59375 7.515625 
L 36.8125 7.515625 
L 36.8125 0 
L 27.59375 0 
Q 17.1875 0 13.234375 3.875 
Q 9.28125 7.765625 9.28125 18.015625 
L 9.28125 47.703125 
L 2.6875 47.703125 
L 2.6875 54.6875 
L 9.28125 54.6875 
L 9.28125 70.21875 
z
" id="DejaVuSans-116"/>
      <path d="M 54.890625 33.015625 
L 54.890625 0 
L 45.90625 0 
L 45.90625 32.71875 
Q 45.90625 40.484375 42.875 44.328125 
Q 39.84375 48.1875 33.796875 48.1875 
Q 26.515625 48.1875 22.3125 43.546875 
Q 18.109375 38.921875 18.109375 30.90625 
L 18.109375 0 
L 9.078125 0 
L 9.078125 75.984375 
L 18.109375 75.984375 
L 18.109375 46.1875 
Q 21.34375 51.125 25.703125 53.5625 
Q 30.078125 56 35.796875 56 
Q 45.21875 56 50.046875 50.171875 
Q 54.890625 44.34375 54.890625 33.015625 
z
" id="DejaVuSans-104"/>
     </defs>
     <g transform="translate(22.756178 661.697574)rotate(-90)scale(0.26 -0.26)">
      <use xlink:href="#DejaVuSans-76"/>
      <use x="55.697266" xlink:href="#DejaVuSans-101"/>
      <use x="117.220703" xlink:href="#DejaVuSans-110"/>
      <use x="180.599609" xlink:href="#DejaVuSans-103"/>
      <use x="244.076172" xlink:href="#DejaVuSans-116"/>
      <use x="283.285156" xlink:href="#DejaVuSans-104"/>
      <use x="346.664062" xlink:href="#DejaVuSans-32"/>
      <use x="378.451172" xlink:href="#DejaVuSans-91"/>
      <use x="417.464844" xlink:href="#DejaVuSans-109"/>
      <use x="514.876953" xlink:href="#DejaVuSans-93"/>
     </g>
    </g>
   </g>
   <g id="line2d_18">
    <path clip-path="url(#p2f0056759f)" d="M 210.663031 832.799843 
L 230.701875 832.766015 
L 231.393798 827.115868 
L 232.083393 794.488006 
L 232.775643 792.744251 
L 248.667784 792.739316 
L 648.056104 792.739316 
L 648.747358 740.219329 
L 650.129388 592.14682 
L 651.511267 480.596906 
L 652.202211 461.771902 
L 652.893416 461.131386 
L 660.494489 461.121087 
L 1063.337995 461.121087 
L 1064.029142 470.255169 
L 1064.719793 501.01183 
L 1065.410809 501.586335 
L 1137.273083 501.587408 
L 1479.31136 501.587408 
L 1480.001556 469.960157 
L 1480.692679 409.273585 
L 1482.765396 258.38462 
L 1483.45622 235.433449 
L 1484.147747 231.65915 
L 1485.529535 231.56303 
L 1505.568243 231.562744 
L 1611.979642 231.564174 
L 1639.618864 231.565748 
L 1645.837541 231.585201 
L 1650.674504 231.562029 
L 1674.859102 231.575188 
L 1681.078397 231.563316 
L 1763.995822 231.563316 
L 1768.142403 231.56303 
L 1774.36187 231.573901 
L 1781.271579 231.572327 
L 1808.2194 231.564317 
L 1894.592415 231.564174 
L 1895.283254 237.214393 
L 1898.047038 576.32193 
L 1898.738569 668.827994 
L 1899.429233 703.558703 
L 1900.119922 708.735043 
L 1900.811036 708.856409 
L 2054.902304 708.85691 
L 2310.565109 708.85691 
L 2311.255707 685.951152 
L 2314.019635 423.330332 
L 2316.093186 279.82919 
L 2317.474638 235.553313 
L 2318.165983 231.629828 
L 2319.547438 231.563459 
L 2323.002711 231.587489 
L 2326.457423 231.566892 
L 2333.367384 231.56446 
L 2354.096668 231.564174 
L 2357.551521 231.565748 
L 2431.487193 231.563888 
L 2461.199389 231.568036 
L 2465.345207 231.563888 
L 2501.27638 231.561886 
L 2506.804336 231.575188 
L 2512.332447 231.565462 
L 2515.787503 231.56303 
L 2531.679958 231.569896 
L 2544.11747 231.564031 
L 2573.830363 231.562458 
L 2580.739812 231.574616 
L 2586.958565 231.563173 
L 2591.79534 231.564174 
L 2614.598403 231.563602 
L 2617.362316 231.562029 
L 2647.766161 231.566177 
L 2661.584727 231.56303 
L 2669.877186 231.56632 
L 2692.6794 231.56446 
L 2695.443105 231.562744 
L 2730.683976 231.564317 
L 2750.031344 231.563888 
L 2750.031344 231.563888 
" style="fill:none;stroke:#008000;stroke-dasharray:9.6,2.4,1.5,2.4;stroke-dashoffset:0;stroke-width:1.5;"/>
   </g>
   <g id="line2d_19">
    <path clip-path="url(#p2f0056759f)" d="M 210.663031 833.061068 
L 211.353967 832.834837 
L 230.701875 832.777781 
L 231.393798 832.165185 
L 232.083393 784.913284 
L 232.775643 784.523234 
L 233.465543 814.749099 
L 234.156651 769.271456 
L 234.847417 812.888489 
L 235.538743 786.594338 
L 236.229979 785.759497 
L 236.920553 812.1453 
L 237.611456 770.832524 
L 238.302998 814.152778 
L 238.993743 779.834328 
L 239.684656 796.348576 
L 240.375543 802.942027 
L 241.066378 776.445807 
L 241.757391 813.849584 
L 242.448321 773.103435 
L 243.1394 810.291287 
L 243.830295 782.967825 
L 244.521279 796.093309 
L 245.212749 799.556027 
L 245.903874 781.207252 
L 246.59425 809.645123 
L 247.28588 775.050484 
L 247.976588 811.721956 
L 248.667784 775.956333 
L 249.357826 808.525058 
L 250.049021 781.276015 
L 250.740423 802.015196 
L 251.431122 788.894657 
L 252.122932 794.52009 
L 252.813595 795.778412 
L 253.504058 788.551839 
L 254.195192 800.455046 
L 254.886576 784.803102 
L 255.57726 803.011538 
L 256.268476 782.941058 
L 256.959481 804.014962 
L 257.650109 782.424189 
L 258.340857 803.942925 
L 259.031872 782.909472 
L 259.723207 802.975802 
L 260.413924 784.363158 
L 261.105049 801.010054 
L 261.795913 786.947044 
L 262.487053 797.804655 
L 263.177849 790.820524 
L 264.559695 795.72649 
L 265.250466 788.121495 
L 265.942315 800.582264 
L 266.632666 783.838348 
L 267.323805 803.473466 
L 268.015087 782.501645 
L 268.705663 802.791824 
L 269.396746 784.927159 
L 270.087845 798.742991 
L 270.778829 790.087403 
L 272.161174 795.671124 
L 272.851639 788.16443 
L 273.542619 799.417709 
L 274.234077 785.924269 
L 274.924588 800.12804 
L 275.615738 786.637262 
L 276.306785 798.138471 
L 276.997327 789.40808 
L 277.688558 794.813333 
L 278.379329 792.780881 
L 279.071298 791.708704 
L 279.76189 795.245536 
L 280.452991 790.074766 
L 281.143503 795.988187 
L 281.834889 790.203502 
L 282.525468 795.227968 
L 283.216456 791.388891 
L 283.907297 793.967111 
L 284.59832 792.401794 
L 285.28938 793.202034 
L 285.980426 792.909322 
L 289.435233 793.004684 
L 305.328367 792.954817 
L 604.524333 792.952916 
L 648.056104 792.952902 
L 648.747358 746.19775 
L 649.437874 642.816595 
L 650.129388 609.798108 
L 650.82012 517.874951 
L 652.202211 452.31948 
L 652.893416 470.619132 
L 653.58423 456.473505 
L 654.275139 464.390456 
L 654.966397 463.475086 
L 655.657298 457.113815 
L 656.348209 469.5904 
L 657.039045 453.226022 
L 657.731086 470.597384 
L 658.420948 455.304097 
L 659.111624 465.56881 
L 660.494489 458.503021 
L 661.184775 468.030158 
L 661.875874 455.216632 
L 662.566993 468.542814 
L 663.257846 457.585762 
L 663.948784 463.974714 
L 664.639837 463.140402 
L 665.331407 458.869557 
L 666.022445 466.990785 
L 666.712678 457.610204 
L 667.403884 465.948843 
L 668.095191 460.407418 
L 668.786188 462.077718 
L 669.477428 464.369805 
L 670.168228 459.165399 
L 670.859022 465.872279 
L 671.549892 459.649362 
L 672.240794 463.709329 
L 672.931772 462.707752 
L 673.622606 460.630944 
L 674.31362 464.966294 
L 675.00464 460.039458 
L 675.695943 464.077244 
L 676.386849 462.040915 
L 677.077805 461.68815 
L 677.76858 463.984364 
L 678.459519 460.931124 
L 679.150468 463.588411 
L 679.841356 462.141931 
L 680.533568 462.220593 
L 681.223233 463.073594 
L 681.914613 461.971435 
L 682.605321 462.823274 
L 683.296214 462.358931 
L 684.67803 462.441595 
L 697.116025 462.495417 
L 898.192548 462.497849 
L 1063.337995 462.497849 
L 1064.029142 462.908507 
L 1064.719793 523.28749 
L 1065.410809 525.413979 
L 1066.102289 471.030107 
L 1066.792955 525.405564 
L 1067.483794 520.656112 
L 1068.174899 472.568517 
L 1068.866305 529.263243 
L 1069.556804 512.124362 
L 1070.247709 476.258465 
L 1070.93967 533.075041 
L 1071.629901 498.807844 
L 1072.320921 484.515576 
L 1073.011811 534.261829 
L 1073.702742 484.760814 
L 1074.393711 500.249163 
L 1075.085096 529.843274 
L 1075.775714 476.633424 
L 1076.466866 519.160836 
L 1077.157731 516.40827 
L 1077.848646 478.561842 
L 1078.540786 529.982266 
L 1079.23052 492.808903 
L 1079.921345 495.386625 
L 1080.612497 528.077462 
L 1081.304293 478.542074 
L 1081.994097 520.440175 
L 1082.685476 508.900662 
L 1083.376867 485.044691 
L 1084.067928 528.820129 
L 1084.758396 482.970484 
L 1085.449326 513.54955 
L 1086.140624 513.876651 
L 1086.831526 483.702979 
L 1087.522327 527.397515 
L 1088.213964 484.263009 
L 1088.904907 513.781581 
L 1089.595853 510.778568 
L 1090.28617 487.103123 
L 1090.977442 525.58324 
L 1091.668023 482.39587 
L 1092.3592 519.505004 
L 1093.050798 499.613608 
L 1093.741052 497.868148 
L 1094.433204 519.539465 
L 1095.123161 483.510773 
L 1095.814835 524.024769 
L 1096.505648 485.921521 
L 1097.197207 515.794455 
L 1097.886945 501.291304 
L 1098.57794 498.820543 
L 1099.269375 516.47342 
L 1099.959998 486.647191 
L 1100.651073 522.159696 
L 1101.341808 484.536625 
L 1102.033144 520.289933 
L 1102.72399 489.936741 
L 1103.414797 513.121683 
L 1104.106303 500.309665 
L 1104.796948 502.706027 
L 1105.487617 510.227276 
L 1106.179444 493.782408 
L 1106.870235 516.229762 
L 1107.560507 488.711977 
L 1108.251891 518.888992 
L 1108.943087 486.83826 
L 1109.633875 519.371782 
L 1110.324925 486.904029 
L 1111.016573 518.641202 
L 1111.706716 487.909426 
L 1112.397725 517.445696 
L 1113.090616 489.174122 
L 1113.779709 516.303901 
L 1114.471241 490.187254 
L 1115.161747 515.524204 
L 1115.852817 490.678851 
L 1116.543762 515.222192 
L 1117.234763 490.592536 
L 1117.925613 515.342545 
L 1118.616493 490.131529 
L 1119.307452 515.622164 
L 1119.998439 489.728653 
L 1120.689319 515.636812 
L 1121.381109 490.01812 
L 1122.071755 514.775777 
L 1122.762249 491.771482 
L 1123.453964 512.238883 
L 1124.144454 495.77772 
L 1124.835764 507.192538 
L 1125.526323 501.888871 
L 1126.217502 500.26491 
L 1126.908615 508.416177 
L 1127.59929 494.328494 
L 1128.290409 512.261759 
L 1128.981419 492.389119 
L 1129.672327 511.540544 
L 1130.363316 495.782528 
L 1131.054786 505.579714 
L 1131.745539 503.060693 
L 1132.436296 497.877898 
L 1133.127484 509.511973 
L 1133.818253 494.407168 
L 1134.509395 509.865598 
L 1135.200498 497.254332 
L 1135.891229 504.582554 
L 1136.582147 503.574084 
L 1137.273083 498.602835 
L 1137.963823 508.165832 
L 1138.655079 496.792717 
L 1139.346244 507.39694 
L 1140.037692 499.783199 
L 1140.72864 503.046072 
L 1141.419566 504.460399 
L 1142.110559 499.52632 
L 1142.801741 506.399473 
L 1143.491866 499.628485 
L 1144.182799 504.728636 
L 1144.874383 502.303562 
L 1145.565042 501.721267 
L 1146.256362 504.885213 
L 1146.947263 500.442119 
L 1147.638013 504.828402 
L 1148.330669 501.755232 
L 1149.710795 503.785619 
L 1150.401997 501.520702 
L 1151.094065 504.074541 
L 1151.783947 502.120768 
L 1152.475768 503.072868 
L 1153.165888 503.007992 
L 1153.85689 502.63614 
L 1154.547674 502.96132 
L 1162.149099 502.880845 
L 1193.243134 502.862893 
L 1479.31136 502.862885 
L 1480.001556 480.714393 
L 1480.692679 400.49733 
L 1481.383702 366.958683 
L 1482.074554 290.397655 
L 1483.45622 234.759584 
L 1484.147747 233.624869 
L 1484.83839 234.214485 
L 1485.529535 231.669736 
L 1486.220206 235.014888 
L 1486.913701 232.174426 
L 1487.602414 233.65666 
L 1488.293879 233.755331 
L 1488.98468 232.461324 
L 1489.675919 234.185272 
L 1490.367888 232.746267 
L 1491.057765 233.587412 
L 1491.748778 233.243947 
L 1492.439207 233.386254 
L 1493.8214 233.326852 
L 1665.876502 233.322866 
L 1841.387083 233.323471 
L 1894.592415 233.324801 
L 1895.283254 233.870199 
L 1895.974156 280.910632 
L 1896.665703 423.739417 
L 1897.356402 496.711753 
L 1898.047038 540.044153 
L 1898.738569 699.379034 
L 1899.429233 791.85261 
L 1900.119922 759.214347 
L 1900.811036 648.665617 
L 1901.503126 653.384458 
L 1902.192883 763.141079 
L 1902.88359 782.469682 
L 1903.574999 684.311463 
L 1904.265697 640.595706 
L 1904.957108 729.901462 
L 1905.648492 784.758628 
L 1907.030432 642.473241 
L 1907.721086 705.430875 
L 1908.41193 780.000875 
L 1909.102948 730.826609 
L 1909.793836 647.356186 
L 1910.484996 696.826805 
L 1911.175853 775.41126 
L 1911.8669 731.401952 
L 1912.557906 650.490664 
L 1913.248912 701.709279 
L 1913.94032 772.659372 
L 1914.632024 720.5144 
L 1915.322072 652.575321 
L 1916.013005 718.71197 
L 1916.703923 769.080905 
L 1917.39446 697.762606 
L 1918.086483 658.576481 
L 1918.776678 741.301009 
L 1919.467525 758.499718 
L 1920.158621 673.334388 
L 1920.850565 677.037154 
L 1921.54101 758.948353 
L 1922.231421 731.936153 
L 1922.922494 660.790967 
L 1923.613474 717.910681 
L 1924.304707 759.45517 
L 1924.995611 685.876555 
L 1925.687495 674.564974 
L 1926.377884 752.918829 
L 1927.068375 729.363799 
L 1927.759263 664.774411 
L 1928.45051 725.928369 
L 1929.14143 751.131911 
L 1929.832518 676.310083 
L 1930.523549 693.105987 
L 1931.214923 754.478579 
L 1931.905464 698.475405 
L 1932.596822 676.118823 
L 1933.287814 747.732706 
L 1933.9786 720.941729 
L 1934.669429 671.003673 
L 1935.360574 737.227681 
L 1936.051129 733.52315 
L 1936.742331 671.763747 
L 1937.433339 727.421797 
L 1938.124036 739.032279 
L 1938.816465 674.340483 
L 1939.506104 720.806814 
L 1940.198278 740.454246 
L 1940.888273 676.445551 
L 1941.579067 718.693716 
L 1942.270301 739.327369 
L 1942.961246 677.292497 
L 1943.651908 721.078076 
L 1944.34302 735.915587 
L 1945.035044 677.352031 
L 1945.725118 726.817831 
L 1946.416263 729.423737 
L 1947.106796 678.200778 
L 1947.79818 733.753162 
L 1948.48894 718.163119 
L 1949.179905 682.341798 
L 1949.871507 739.213696 
L 1950.56187 701.388742 
L 1951.252718 693.074989 
L 1951.944336 739.765514 
L 1952.634781 686.981539 
L 1953.326192 713.318862 
L 1954.017546 731.378341 
L 1954.7078 681.9817 
L 1955.398753 731.864311 
L 1956.090087 709.857899 
L 1956.781648 691.61771 
L 1957.471702 736.938168 
L 1958.163024 687.76559 
L 1958.853807 718.535813 
L 1959.544851 723.196559 
L 1960.235638 686.602735 
L 1960.92641 734.884119 
L 1961.617702 693.426645 
L 1962.309253 712.265167 
L 1962.999495 725.047864 
L 1963.690458 687.393366 
L 1964.381749 733.357516 
L 1965.072722 692.943056 
L 1965.763605 716.063827 
L 1966.454842 719.461307 
L 1967.146584 691.836286 
L 1967.837146 732.099417 
L 1968.527443 688.991957 
L 1969.219504 725.720044 
L 1969.90999 704.507205 
L 1970.600511 705.628434 
L 1971.291503 723.893513 
L 1971.983222 691.23143 
L 1972.673258 730.283226 
L 1973.364361 690.53706 
L 1974.055162 725.887851 
L 1974.746518 699.910103 
L 1975.437488 713.719118 
L 1976.128807 714.216132 
L 1976.819266 700.429316 
L 1977.5108 723.924541 
L 1978.201583 693.303899 
L 1978.892463 727.494866 
L 1979.583716 691.800999 
L 1980.274446 726.963655 
L 1980.965195 693.767958 
L 1981.656212 724.109513 
L 1982.347285 697.554371 
L 1983.03828 720.186338 
L 1983.72918 701.89575 
L 1984.421276 716.255549 
L 1985.110998 705.489013 
L 1985.801996 713.302987 
L 1986.493127 707.704114 
L 1987.184104 711.742111 
L 1987.874962 708.446637 
L 1988.566244 711.603881 
L 1989.257222 707.80012 
L 1989.947915 712.773409 
L 1990.639015 705.900548 
L 1991.329791 715.043843 
L 1992.021669 703.052835 
L 1992.711981 717.917861 
L 1993.403167 699.93178 
L 1994.093907 720.436827 
L 1994.785075 697.758486 
L 1995.475929 721.376089 
L 1996.167165 697.877973 
L 1996.857528 719.679601 
L 1997.548605 701.513987 
L 1998.239798 714.229101 
L 1998.930843 708.317853 
L 1999.622069 706.632217 
L 2000.313336 715.321483 
L 2001.004315 701.050884 
L 2001.695309 718.556869 
L 2002.385696 700.556988 
L 2003.076708 716.552284 
L 2003.767753 704.563082 
L 2004.458631 711.10723 
L 2005.150115 710.485566 
L 2005.84044 705.615079 
L 2006.531628 714.817875 
L 2007.222691 703.182257 
L 2007.914197 715.340508 
L 2008.60512 704.455023 
L 2009.295705 712.75478 
L 2009.986414 707.774953 
L 2011.368335 710.905148 
L 2012.059365 707.018833 
L 2012.75095 712.06554 
L 2013.441278 707.04401 
L 2014.132618 711.210688 
L 2014.823467 708.40557 
L 2015.51432 709.793357 
L 2016.896553 709.195184 
L 2017.587512 709.622126 
L 2018.278219 709.453746 
L 2021.733146 709.436301 
L 2099.814711 709.443553 
L 2310.565109 709.443532 
L 2311.255707 705.072529 
L 2311.946738 613.729001 
L 2312.637724 537.958451 
L 2313.328765 512.436641 
L 2314.019635 410.080543 
L 2314.710748 394.831909 
L 2315.401814 332.434292 
L 2316.093186 247.009658 
L 2316.78376 272.048166 
L 2317.474638 267.680661 
L 2318.165983 199.580131 
L 2318.857155 221.961914 
L 2319.547438 277.484201 
L 2320.929533 197.156708 
L 2321.620625 255.765376 
L 2322.311497 269.648579 
L 2323.002711 206.342343 
L 2323.693496 218.998224 
L 2324.384992 273.203328 
L 2325.766999 201.547929 
L 2326.457423 260.30924 
L 2327.148551 259.567802 
L 2327.839823 202.233172 
L 2328.53032 239.373004 
L 2329.222766 268.31648 
L 2329.912821 212.870656 
L 2330.603291 219.860963 
L 2331.294889 268.489733 
L 2331.985682 227.465016 
L 2332.67645 210.080999 
L 2333.367384 264.551833 
L 2334.058478 239.700594 
L 2334.749437 206.553257 
L 2335.440258 259.747644 
L 2336.131321 246.338948 
L 2336.822713 206.035586 
L 2337.513298 256.088912 
L 2338.20415 248.675925 
L 2338.895188 206.634228 
L 2339.586572 254.561335 
L 2340.277248 247.977903 
L 2340.969762 207.681875 
L 2341.659087 255.132262 
L 2342.349901 244.501048 
L 2343.041261 209.472573 
L 2343.73222 257.084611 
L 2344.423008 237.730376 
L 2345.114158 213.116975 
L 2345.805527 259.053991 
L 2346.495883 227.596394 
L 2347.187238 220.516344 
L 2347.878645 259.097362 
L 2348.568736 217.31 
L 2349.260088 233.436002 
L 2349.950853 254.872987 
L 2350.643071 211.496841 
L 2351.332951 247.590798 
L 2352.023679 243.815865 
L 2352.715192 213.731801 
L 2353.40637 255.672026 
L 2354.096668 225.110746 
L 2354.787822 227.682474 
L 2355.478901 253.980406 
L 2356.170017 213.332016 
L 2356.860851 247.40306 
L 2357.551521 239.085951 
L 2358.242693 218.271837 
L 2358.933823 254.564483 
L 2359.624787 217.740731 
L 2360.31588 240.75905 
L 2361.00644 243.680138 
L 2361.698838 216.814385 
L 2362.388624 253.202372 
L 2363.079596 219.316292 
L 2363.77039 240.233532 
L 2364.461763 241.948386 
L 2365.152394 218.875806 
L 2365.844014 252.081416 
L 2366.534383 217.39924 
L 2367.225487 244.760773 
L 2367.916619 234.176679 
L 2368.607433 226.015862 
L 2369.298429 248.547279 
L 2369.989645 216.578916 
L 2370.680426 249.745059 
L 2371.371812 221.847398 
L 2372.06356 240.346801 
L 2372.753544 236.556568 
L 2373.444951 225.645136 
L 2374.135244 246.971183 
L 2374.82636 218.045547 
L 2375.517195 249.028968 
L 2376.20869 219.586325 
L 2376.899515 244.6285 
L 2377.590293 227.851008 
L 2378.283099 235.571474 
L 2378.972828 237.959084 
L 2379.663416 226.138068 
L 2380.354189 244.541896 
L 2381.045151 220.594351 
L 2381.73654 247.124211 
L 2382.427061 219.154126 
L 2383.118246 246.778591 
L 2383.809933 220.749419 
L 2384.500149 244.511161 
L 2385.19151 224.223737 
L 2385.882125 241.166898 
L 2386.573544 228.241364 
L 2387.264498 237.374596 
L 2387.955167 231.888304 
L 2388.64593 233.937649 
L 2389.338 234.766943 
L 2390.028179 231.301244 
L 2390.718816 236.782203 
L 2391.409598 229.514742 
L 2392.102081 237.959389 
L 2392.792073 228.430119 
L 2393.482887 238.574403 
L 2394.173907 227.849282 
L 2394.865148 238.7792 
L 2395.556422 227.691627 
L 2396.24743 238.650654 
L 2396.937829 227.835942 
L 2397.629358 238.256894 
L 2398.319614 228.276934 
L 2399.010906 237.551217 
L 2399.702129 229.007172 
L 2400.393015 236.550328 
L 2401.08423 230.04854 
L 2401.775007 235.229732 
L 2402.465853 231.380015 
L 2403.156583 233.650791 
L 2403.847405 232.969161 
L 2404.539083 231.860354 
L 2405.229864 234.754891 
L 2405.921324 229.984971 
L 2406.611637 236.642178 
L 2407.302953 228.110489 
L 2407.993596 238.472405 
L 2408.684877 226.343195 
L 2409.375696 240.136142 
L 2410.068192 224.830813 
L 2410.758047 241.41178 
L 2411.448197 223.804614 
L 2412.139481 242.131632 
L 2412.830539 223.330605 
L 2413.521554 242.242803 
L 2414.213132 223.580577 
L 2414.903342 241.658361 
L 2415.594548 224.561284 
L 2416.285556 240.246227 
L 2416.976245 226.345856 
L 2417.667229 237.97958 
L 2418.359071 228.816302 
L 2419.04945 234.992089 
L 2419.740358 231.826857 
L 2420.431336 231.702214 
L 2421.123374 235.094602 
L 2421.813203 228.595505 
L 2422.504389 238.156323 
L 2423.195412 226.074543 
L 2423.886587 240.418139 
L 2424.577754 224.448158 
L 2425.26879 241.530682 
L 2425.95901 223.974234 
L 2426.650012 241.373705 
L 2427.341178 224.774026 
L 2428.032745 239.871428 
L 2428.723042 226.816585 
L 2429.414301 236.989667 
L 2430.106044 229.921078 
L 2430.795738 233.23877 
L 2431.487193 233.699264 
L 2432.17801 229.456091 
L 2432.869059 237.408657 
L 2433.559976 226.447228 
L 2434.251071 240.119072 
L 2434.94216 224.706251 
L 2435.633096 241.161522 
L 2436.324205 224.592402 
L 2437.016386 240.410336 
L 2437.706131 226.132591 
L 2438.396986 237.761503 
L 2439.088249 229.200216 
L 2439.778911 233.743068 
L 2440.46962 233.286044 
L 2441.160798 229.554308 
L 2441.851666 237.392992 
L 2442.543003 226.376814 
L 2443.235476 240.139483 
L 2443.925278 224.921138 
L 2444.615636 240.67263 
L 2445.307276 225.510229 
L 2445.997782 238.837068 
L 2446.688963 228.095986 
L 2447.380066 234.944723 
L 2448.071087 232.149247 
L 2448.761634 230.453725 
L 2449.452328 236.589044 
L 2450.143497 226.917546 
L 2450.835004 239.71429 
L 2451.525462 225.309977 
L 2452.216484 240.265731 
L 2452.907723 226.089035 
L 2453.59844 237.962543 
L 2454.289572 229.108828 
L 2454.980508 233.578369 
L 2455.671459 233.595687 
L 2456.362288 229.09392 
L 2457.053768 237.909808 
L 2457.744204 226.258387 
L 2458.43545 239.970862 
L 2459.126259 225.941707 
L 2459.818026 238.71272 
L 2460.508683 228.307016 
L 2461.199389 234.673924 
L 2461.890274 232.598542 
L 2462.581949 229.989747 
L 2463.273536 237.1381 
L 2463.963016 226.858293 
L 2464.654739 239.526578 
L 2465.345207 226.378124 
L 2466.036254 238.43725 
L 2466.727257 228.641172 
L 2467.41875 234.505662 
L 2468.109401 232.853697 
L 2468.800349 230.01842 
L 2469.491418 237.172591 
L 2470.182469 227.198528 
L 2470.874928 239.154446 
L 2471.564738 227.056953 
L 2472.255218 237.653609 
L 2472.946123 229.631264 
L 2473.637606 233.620703 
L 2474.327756 233.853709 
L 2475.019575 229.544481 
L 2475.710191 237.588695 
L 2476.4012 227.546841 
L 2477.092083 238.496458 
L 2477.783009 228.283446 
L 2478.474146 236.112104 
L 2479.165125 231.402751 
L 2479.856257 232.032429 
L 2480.546944 235.473028 
L 2481.238114 228.929932 
L 2481.928942 237.871501 
L 2482.619901 228.348504 
L 2483.310692 236.990228 
L 2484.002038 230.433981 
L 2484.692859 233.573375 
L 2485.384337 234.135723 
L 2486.074828 230.187333 
L 2486.765995 236.971654 
L 2487.457272 229.082332 
L 2488.149565 236.737635 
L 2488.838944 230.686575 
L 2489.52992 233.796538 
L 2490.221378 234.025116 
L 2490.911876 230.747949 
L 2491.60336 236.415246 
L 2492.294754 230.015027 
L 2492.985155 235.754808 
L 2493.67573 231.921936 
L 2494.366497 232.905605 
L 2495.057586 234.851396 
L 2495.749074 230.916173 
L 2496.439571 235.687078 
L 2497.130723 231.607325 
L 2497.821376 233.820712 
L 2498.512819 234.005189 
L 2499.203693 231.819267 
L 2499.894428 234.968041 
L 2500.586041 232.118942 
L 2501.27638 233.754722 
L 2501.967605 233.649586 
L 2502.658635 232.560177 
L 2503.350762 234.116022 
L 2504.040811 232.748906 
L 2504.731388 233.626354 
L 2505.422249 233.205049 
L 2506.113718 233.418638 
L 2508.186223 233.34969 
L 2530.298452 233.324784 
L 2750.031344 233.32266 
L 2750.031344 233.32266 
" style="fill:none;stroke:#008000;stroke-linecap:square;stroke-width:3;"/>
   </g>
   <g id="line2d_20">
    <path clip-path="url(#p2f0056759f)" d="M 210.663031 266.75167 
L 230.701875 266.784568 
L 231.393798 272.276017 
L 232.083393 304.2708 
L 232.775643 305.994244 
L 248.667784 305.999107 
L 648.056104 305.99925 
L 648.747358 358.552493 
L 650.129388 513.475582 
L 651.511267 637.02538 
L 652.202211 658.49019 
L 652.893416 659.223752 
L 659.802845 659.235552 
L 1063.337995 659.235552 
L 1064.029142 648.794548 
L 1064.719793 613.953629 
L 1065.410809 613.307391 
L 1128.981419 613.306176 
L 1479.31136 613.306176 
L 1480.001556 649.131112 
L 1480.692679 719.342756 
L 1482.074554 839.59521 
L 1482.765396 903.215743 
L 1483.45622 932.500846 
L 1484.147747 937.353995 
L 1485.529535 937.477793 
L 1500.731126 937.454335 
L 1504.186462 937.477364 
L 1539.42632 937.476363 
L 1557.392178 937.461845 
L 1562.920149 937.478866 
L 1572.593363 937.472644 
L 1586.413051 937.474432 
L 1589.867829 937.457911 
L 1593.322898 937.47715 
L 1600.923614 937.468138 
L 1607.834339 937.478365 
L 1812.365118 937.477507 
L 1814.438097 937.472143 
L 1824.802615 937.476077 
L 1828.949711 937.470713 
L 1836.549585 937.475576 
L 1840.695226 937.462059 
L 1846.223427 937.474861 
L 1876.627015 937.476506 
L 1879.390505 937.47293 
L 1894.592415 937.47622 
L 1895.283254 930.214483 
L 1896.665703 731.177863 
L 1898.738569 431.990964 
L 1899.429233 395.975217 
L 1900.119922 390.65441 
L 1900.811036 390.529826 
L 2080.467139 390.529397 
L 2310.565109 390.529254 
L 2311.255707 414.165569 
L 2315.401814 828.986353 
L 2316.093186 876.192686 
L 2317.474638 932.347011 
L 2318.165983 937.391757 
L 2319.547438 937.47715 
L 2323.002711 937.446325 
L 2325.766999 937.479224 
L 2337.513298 937.480082 
L 2351.332951 937.458054 
L 2355.478901 937.473931 
L 2368.607433 937.477722 
L 2370.680426 937.46585 
L 2376.20869 937.474503 
L 2378.283099 937.47765 
L 2407.993596 937.477436 
L 2410.758047 937.479581 
L 2431.487193 937.476649 
L 2458.43545 937.47765 
L 2461.890274 937.45126 
L 2464.654739 937.466636 
L 2472.946123 937.476363 
L 2501.27638 937.479224 
L 2505.422249 937.452404 
L 2508.877576 937.476792 
L 2511.641562 937.478294 
L 2533.061804 937.475004 
L 2548.263627 937.478866 
L 2552.409345 937.462345 
L 2557.247235 937.477007 
L 2565.538172 937.462774 
L 2570.375217 937.479796 
L 2591.79534 937.476291 
L 2609.070307 937.477722 
L 2613.907055 937.476506 
L 2736.211041 937.475719 
L 2740.357347 937.472787 
L 2750.031344 937.476577 
L 2750.031344 937.476577 
" style="fill:none;stroke:#ff0000;stroke-dasharray:9.6,2.4,1.5,2.4;stroke-dashoffset:0;stroke-width:1.5;"/>
   </g>
   <g id="line2d_21">
    <path clip-path="url(#p2f0056759f)" d="M 210.663031 266.498137 
L 211.353967 266.717697 
L 230.701875 266.773086 
L 231.393798 267.367716 
L 232.083393 313.751017 
L 232.775643 314.138788 
L 233.465543 284.34557 
L 234.156651 329.328251 
L 234.847417 286.168034 
L 235.538743 312.083379 
L 236.229979 312.912153 
L 236.920553 286.895744 
L 237.611456 327.768744 
L 238.302998 284.929684 
L 238.993743 318.796788 
L 239.684656 302.433877 
L 240.375543 295.934059 
L 241.066378 322.170149 
L 241.757391 285.22633 
L 242.448321 325.501921 
L 243.1394 288.713954 
L 243.830295 315.682338 
L 244.521279 302.685864 
L 245.212749 299.26904 
L 245.903874 317.432263 
L 246.59425 289.347382 
L 247.28588 323.560419 
L 247.976588 287.310895 
L 248.667784 322.657522 
L 249.357826 290.447048 
L 250.049021 317.363365 
L 250.740423 296.847233 
L 251.431122 309.803694 
L 252.122932 304.23958 
L 252.813595 302.995876 
L 253.504058 310.144077 
L 254.195192 298.383102 
L 254.886576 313.860962 
L 255.57726 295.865728 
L 256.268476 315.709529 
L 256.959481 294.878479 
L 257.650109 316.222924 
L 258.340857 294.949354 
L 259.031872 315.740878 
L 259.723207 295.900933 
L 260.413924 314.297544 
L 261.105049 297.83638 
L 261.795913 311.734415 
L 262.487053 300.996132 
L 263.177849 307.897681 
L 264.559695 303.047931 
L 265.250466 310.569755 
L 265.942315 298.258421 
L 266.632666 314.818079 
L 267.323805 295.411592 
L 268.015087 316.145744 
L 268.705663 296.082169 
L 269.396746 313.737699 
L 270.087845 300.07077 
L 270.778829 308.623234 
L 272.161174 303.102492 
L 272.851639 310.527321 
L 273.542619 299.405951 
L 274.234077 312.748261 
L 274.924588 298.705679 
L 275.615738 312.041301 
L 276.306785 300.667066 
L 276.997327 309.295727 
L 277.688558 303.949262 
L 278.379329 305.958263 
L 279.071298 307.018367 
L 279.76189 303.522624 
L 280.452991 308.635411 
L 281.143503 302.789193 
L 281.834889 308.508039 
L 282.525468 303.53984 
L 283.216456 307.334944 
L 283.907297 304.785477 
L 284.59832 306.333 
L 285.28938 305.541689 
L 285.980426 305.831135 
L 289.435233 305.736822 
L 305.328367 305.786127 
L 607.28813 305.787995 
L 648.056104 305.78802 
L 648.747358 352.507313 
L 649.437874 459.325999 
L 650.129388 494.476104 
L 650.82012 595.054227 
L 652.202211 669.336798 
L 652.893416 648.380014 
L 653.58423 664.563836 
L 654.275139 655.494198 
L 654.966397 656.539636 
L 655.657298 663.830436 
L 656.348209 649.552569 
L 657.039045 668.295217 
L 657.731086 648.404492 
L 658.420948 665.906782 
L 659.111624 654.146651 
L 660.494489 662.236637 
L 661.184775 651.333527 
L 661.875874 666.00779 
L 662.566993 650.748833 
L 663.257846 663.287698 
L 663.948784 655.969378 
L 664.639837 656.922874 
L 665.331407 661.816055 
L 666.022445 652.520789 
L 666.712678 663.260015 
L 667.403884 653.711789 
L 668.095191 660.052566 
L 668.786188 658.140205 
L 669.477428 655.516555 
L 670.168228 661.476608 
L 670.859022 653.799024 
L 671.549892 660.921483 
L 672.240794 656.2727 
L 672.931772 657.418235 
L 673.622606 659.797042 
L 674.31362 654.834617 
L 675.00464 660.474504 
L 675.695943 655.851674 
L 676.386849 658.181694 
L 677.077805 658.586058 
L 677.76858 655.957621 
L 678.459519 659.452902 
L 679.150468 656.410815 
L 679.841356 658.066125 
L 680.533568 657.976315 
L 681.223233 656.999751 
L 681.914613 658.261491 
L 682.605321 657.286307 
L 683.296214 657.81783 
L 684.67803 657.723181 
L 695.734318 657.662744 
L 821.493294 657.658799 
L 1063.337995 657.658799 
L 1064.029142 657.188666 
L 1064.719793 589.018462 
L 1065.410809 586.652087 
L 1066.102289 647.909728 
L 1066.792955 586.66038 
L 1067.483794 591.952171 
L 1068.174899 646.155996 
L 1068.866305 582.371546 
L 1069.556804 601.484392 
L 1070.247709 641.954705 
L 1070.93967 578.140939 
L 1071.629901 616.435157 
L 1072.320921 632.578951 
L 1073.011811 576.825367 
L 1073.702742 632.302605 
L 1074.393711 614.810454 
L 1075.085096 581.727974 
L 1075.775714 641.528769 
L 1076.466866 593.618784 
L 1077.157731 596.693582 
L 1077.848646 639.335861 
L 1078.540786 581.573189 
L 1079.23052 623.199329 
L 1079.921345 620.288461 
L 1080.612497 583.689806 
L 1081.304293 639.358828 
L 1081.994097 592.191777 
L 1082.685476 605.095549 
L 1083.376867 631.979448 
L 1084.067928 582.864321 
L 1084.758396 634.331867 
L 1085.449326 599.887845 
L 1086.140624 599.523617 
L 1086.831526 633.500242 
L 1087.522327 584.445419 
L 1088.213964 632.866464 
L 1088.904907 599.628337 
L 1089.595853 602.991268 
L 1090.28617 629.648213 
L 1090.977442 586.463438 
L 1091.668023 634.983312 
L 1092.3592 593.235032 
L 1093.050798 615.527915 
L 1093.741052 617.49141 
L 1094.433204 593.197558 
L 1095.123161 633.718363 
L 1095.814835 588.197931 
L 1096.505648 630.98729 
L 1097.197207 597.378081 
L 1097.886945 613.640105 
L 1098.57794 616.418749 
L 1099.269375 596.620671 
L 1099.959998 630.164543 
L 1100.651073 590.275633 
L 1101.341808 632.55586 
L 1102.033144 592.359721 
L 1102.72399 626.44401 
L 1103.414797 600.366682 
L 1104.106303 614.744472 
L 1104.796948 612.047319 
L 1105.487617 603.608754 
L 1106.179444 622.098528 
L 1106.870235 596.892826 
L 1107.560507 627.827815 
L 1108.251891 593.923168 
L 1108.943087 629.948472 
L 1109.633875 593.384252 
L 1110.324925 629.874256 
L 1111.016573 594.199378 
L 1111.706716 628.736547 
L 1112.397725 595.533929 
L 1113.090616 627.306021 
L 1113.779709 596.809216 
L 1114.471241 626.160586 
L 1115.161747 597.680458 
L 1115.852817 625.604953 
L 1116.543762 598.01804 
L 1117.234763 625.702453 
L 1117.925613 597.883576 
L 1118.616493 626.223419 
L 1119.307452 597.571165 
L 1119.998439 626.678687 
L 1120.689319 597.554944 
L 1121.381109 626.351154 
L 1122.071755 598.517617 
L 1122.762249 624.369474 
L 1123.453964 601.3558 
L 1124.144454 619.847782 
L 1124.835764 607.01084 
L 1125.526323 612.966252 
L 1126.217502 614.794628 
L 1126.908615 605.637149 
L 1127.59929 621.483602 
L 1128.290409 601.329569 
L 1128.981419 623.672244 
L 1129.672327 602.137391 
L 1130.363316 619.842521 
L 1131.054786 608.820743 
L 1131.745539 611.649011 
L 1132.436296 617.481985 
L 1133.127484 604.409113 
L 1133.818253 621.394373 
L 1134.509395 604.013381 
L 1135.200498 618.183559 
L 1135.891229 609.940311 
L 1136.582147 611.072198 
L 1137.273083 616.665269 
L 1137.963823 605.918276 
L 1138.655079 618.704151 
L 1139.346244 606.781021 
L 1140.037692 615.335594 
L 1140.72864 611.666416 
L 1141.419566 610.076638 
L 1142.110559 615.625255 
L 1142.801741 607.899912 
L 1143.491866 615.509968 
L 1144.182799 609.775884 
L 1144.874383 612.500458 
L 1145.565042 613.155669 
L 1146.256362 609.599697 
L 1146.947263 614.594391 
L 1147.638013 609.663717 
L 1148.330669 613.117102 
L 1149.710795 610.834845 
L 1150.401997 613.381059 
L 1151.094065 610.510392 
L 1151.783947 612.706141 
L 1152.475768 611.635985 
L 1153.165888 611.708762 
L 1153.85689 612.126834 
L 1154.547674 611.761259 
L 1160.76714 611.843411 
L 1181.497404 611.87176 
L 1479.31136 611.87192 
L 1480.001556 636.892836 
L 1480.692679 729.661975 
L 1481.383702 769.503676 
L 1482.074554 862.990433 
L 1483.45622 933.364753 
L 1484.147747 934.824846 
L 1484.83839 934.06591 
L 1485.529535 937.339902 
L 1486.220206 933.038011 
L 1486.913701 936.689768 
L 1487.602414 934.783956 
L 1488.293879 934.656322 
L 1488.98468 936.321131 
L 1489.675919 934.10398 
L 1490.367888 935.95425 
L 1491.057765 934.872707 
L 1491.748778 935.314127 
L 1492.439207 935.131292 
L 1493.8214 935.207622 
L 1627.181245 935.211782 
L 1680.386954 935.213254 
L 1839.313622 935.212565 
L 1894.592415 935.210256 
L 1895.283254 934.508758 
L 1895.974156 874.835624 
L 1896.665703 702.426222 
L 1897.356402 618.796707 
L 1898.047038 570.422901 
L 1898.738569 400.280515 
L 1899.429233 306.875668 
L 1900.119922 339.401396 
L 1900.811036 453.152193 
L 1901.503126 448.18265 
L 1902.192883 335.462982 
L 1902.88359 316.176961 
L 1903.574999 415.866759 
L 1904.265697 461.674201 
L 1904.957108 369.023516 
L 1905.648492 313.904283 
L 1907.030432 459.688797 
L 1908.41193 318.63096 
L 1909.102948 368.082435 
L 1909.793836 454.532874 
L 1910.484996 402.913283 
L 1911.175853 323.200267 
L 1911.8669 367.497532 
L 1912.557906 451.228943 
L 1913.248912 397.879273 
L 1913.94032 325.94452 
L 1914.632024 378.591386 
L 1915.322072 449.034069 
L 1916.013005 380.433306 
L 1916.703923 329.51816 
L 1917.39446 401.947665 
L 1918.086483 442.726827 
L 1918.776678 357.457665 
L 1919.467525 340.118956 
L 1920.158621 427.286727 
L 1920.850565 423.428253 
L 1921.54101 339.668582 
L 1922.231421 366.95459 
L 1922.922494 440.403636 
L 1923.613474 381.252543 
L 1924.304707 339.159674 
L 1924.995611 414.242963 
L 1925.687495 426.003597 
L 1926.377884 345.730695 
L 1927.068375 369.570226 
L 1927.759263 436.230217 
L 1928.45051 373.068331 
L 1929.14143 347.530295 
L 1929.832518 424.185505 
L 1930.523549 406.75686 
L 1931.214923 344.160869 
L 1931.905464 401.212362 
L 1932.596822 424.384587 
L 1933.287814 350.957966 
L 1933.9786 378.15495 
L 1934.669429 429.718448 
L 1935.360574 361.583625 
L 1936.051129 365.342388 
L 1936.742331 428.925151 
L 1937.433339 371.547086 
L 1938.124036 359.754586 
L 1938.816465 426.237672 
L 1939.506104 378.292899 
L 1940.198278 358.314544 
L 1940.888273 424.044377 
L 1941.579067 380.451958 
L 1942.270301 359.455675 
L 1942.961246 423.162498 
L 1943.651908 378.015881 
L 1944.34302 362.914107 
L 1945.035044 423.100507 
L 1945.725118 372.162165 
L 1946.416263 369.509253 
L 1947.106796 422.217085 
L 1947.79818 365.108976 
L 1948.48894 380.994268 
L 1949.179905 417.911694 
L 1949.871507 359.570917 
L 1950.56187 398.209454 
L 1951.252718 406.788911 
L 1951.944336 359.011962 
L 1952.634781 413.097183 
L 1953.326192 385.952824 
L 1954.017546 367.52155 
L 1954.7078 418.285804 
L 1955.398753 367.02775 
L 1956.090087 389.50179 
L 1956.781648 408.296009 
L 1957.471702 361.87704 
L 1958.163024 412.284545 
L 1958.853807 380.613369 
L 1959.544851 375.853434 
L 1960.235638 413.489823 
L 1960.92641 363.960797 
L 1961.617702 406.425456 
L 1962.309253 387.032755 
L 1962.999495 373.965517 
L 1963.690458 412.670242 
L 1964.381749 365.51069 
L 1965.072722 406.925389 
L 1965.763605 383.141863 
L 1966.454842 379.667287 
L 1967.146584 408.069906 
L 1967.837146 366.788742 
L 1968.527443 411.01402 
L 1969.219504 373.280557 
L 1969.90999 394.999384 
L 1970.600511 393.846314 
L 1971.291503 375.142523 
L 1971.983222 408.695671 
L 1972.673258 368.635055 
L 1973.364361 409.414278 
L 1974.055162 373.109545 
L 1974.746518 399.733067 
L 1975.437488 385.542727 
L 1976.128807 385.033503 
L 1976.819266 399.197918 
L 1977.5108 375.110886 
L 1978.201583 406.552281 
L 1978.892463 371.47254 
L 1979.583716 408.106437 
L 1980.274446 372.013545 
L 1980.965195 406.072644 
L 1981.656212 374.92234 
L 1982.347285 402.162499 
L 1983.03828 378.926627 
L 1983.72918 397.68725 
L 1984.421276 382.94565 
L 1985.110998 393.989649 
L 1985.801996 385.96908 
L 1986.493127 391.713147 
L 1987.184104 387.569015 
L 1987.874962 390.95054 
L 1988.566244 387.710756 
L 1989.257222 391.614531 
L 1989.947915 386.511784 
L 1990.639015 393.566539 
L 1991.329791 384.185956 
L 1992.021669 396.495927 
L 1992.711981 381.24516 
L 1993.403167 399.710717 
L 1994.093907 378.670725 
L 1994.785075 401.951886 
L 1995.475929 377.71149 
L 1996.167165 401.828599 
L 1996.857528 379.444263 
L 1997.548605 398.080424 
L 1998.239798 385.020233 
L 1998.930843 391.082825 
L 1999.622069 392.814481 
L 2000.313336 383.901689 
L 2001.004315 398.557491 
L 2001.695309 380.591773 
L 2002.385696 399.066366 
L 2003.076708 382.641934 
L 2003.767753 394.94191 
L 2004.458631 388.220047 
L 2005.150115 388.857793 
L 2005.84044 393.860033 
L 2006.531628 384.417305 
L 2007.222691 396.36271 
L 2007.914197 383.882176 
L 2008.60512 395.053065 
L 2009.295705 386.530826 
L 2009.986414 391.640404 
L 2011.368335 388.427353 
L 2012.059365 392.417198 
L 2012.75095 387.237368 
L 2013.441278 392.39133 
L 2014.132618 388.113952 
L 2014.823467 390.992733 
L 2015.51432 389.568054 
L 2016.896553 390.182021 
L 2017.587512 389.743792 
L 2018.278219 389.916613 
L 2021.733146 389.93452 
L 2097.742147 389.927077 
L 2310.565109 389.927098 
L 2311.255707 394.417929 
L 2312.637724 572.72981 
L 2313.328765 601.134622 
L 2314.019635 718.395374 
L 2314.710748 736.346961 
L 2315.401814 811.20964 
L 2316.093186 917.679265 
L 2316.78376 885.959138 
L 2317.474638 891.464174 
L 2318.165983 979.045252 
L 2318.857155 949.869311 
L 2319.547438 879.13387 
L 2320.239806 926.748316 
L 2320.929533 982.226877 
L 2321.620625 906.537684 
L 2322.311497 888.983813 
L 2323.002711 970.189762 
L 2323.693496 953.709747 
L 2324.384992 884.509647 
L 2325.766999 976.462753 
L 2326.457423 900.777274 
L 2327.148551 901.718574 
L 2327.839823 975.565765 
L 2328.53032 927.443711 
L 2329.222766 890.662381 
L 2329.912821 961.675345 
L 2330.603291 952.591132 
L 2331.294889 890.443587 
L 2331.985682 942.761818 
L 2332.67645 965.306472 
L 2333.367384 895.412288 
L 2334.058478 927.02922 
L 2334.749437 969.911761 
L 2335.440258 901.488906 
L 2336.131321 918.540047 
L 2336.822713 970.588566 
L 2337.513298 906.127682 
L 2338.20415 915.559187 
L 2338.895188 969.80628 
L 2339.586572 908.067316 
L 2340.277248 916.449097 
L 2340.969762 968.437697 
L 2341.659087 907.342325 
L 2342.349901 920.887095 
L 2343.041261 966.100362 
L 2343.73222 904.864705 
L 2344.423008 929.554988 
L 2345.114158 961.351433 
L 2345.805527 902.368355 
L 2346.495883 942.592164 
L 2347.187238 951.741877 
L 2347.878645 902.313961 
L 2348.568736 955.904216 
L 2349.260088 935.064863 
L 2349.950853 907.673693 
L 2350.643071 963.46263 
L 2351.332951 916.93937 
L 2352.023679 921.762684 
L 2352.715192 960.551545 
L 2353.40637 906.657831 
L 2354.096668 945.801507 
L 2354.787822 942.475882 
L 2355.478901 908.80757 
L 2356.170017 961.073193 
L 2356.860851 917.178996 
L 2357.551521 927.816789 
L 2358.242693 954.65247 
L 2358.933823 908.064905 
L 2359.624787 955.344692 
L 2360.31588 925.668841 
L 2361.00644 921.9361 
L 2361.698838 956.544596 
L 2362.388624 909.795733 
L 2363.079596 953.300955 
L 2363.77039 926.341824 
L 2364.461763 924.150922 
L 2365.152394 953.869066 
L 2365.844014 911.221558 
L 2366.534383 955.787446 
L 2367.225487 920.551745 
L 2367.916619 934.117946 
L 2368.607433 944.627471 
L 2369.298429 915.722658 
L 2369.989645 956.851188 
L 2370.680426 914.195005 
L 2371.371812 950.021653 
L 2372.06356 926.196931 
L 2372.753544 931.061008 
L 2373.444951 945.106394 
L 2374.135244 917.732654 
L 2374.82636 954.946935 
L 2375.517195 915.107714 
L 2376.20869 952.95023 
L 2376.899515 920.721093 
L 2377.590293 942.263264 
L 2378.283099 932.320956 
L 2378.972828 929.261396 
L 2379.663416 944.469776 
L 2380.354189 920.834339 
L 2381.045151 951.6416 
L 2381.73654 917.536858 
L 2382.427061 953.509482 
L 2383.118246 917.977092 
L 2383.809933 951.442782 
L 2384.500149 920.871379 
L 2385.19151 946.947145 
L 2385.882125 925.147362 
L 2386.573544 941.759576 
L 2387.264498 930.006713 
L 2387.955167 937.060991 
L 2388.64593 934.420333 
L 2389.338 933.359141 
L 2390.028179 937.812079 
L 2390.718816 930.771165 
L 2391.409598 940.11347 
L 2392.102081 929.26079 
L 2392.792073 941.511916 
L 2393.482887 928.472094 
L 2394.173907 942.261199 
L 2394.865148 928.209502 
L 2395.556422 942.464643 
L 2396.24743 928.374284 
L 2396.937829 942.27847 
L 2397.629358 928.879162 
L 2398.319614 941.709605 
L 2399.010906 929.784273 
L 2399.702129 940.767941 
L 2400.393015 931.068658 
L 2401.08423 939.425764 
L 2401.775007 932.764423 
L 2402.465853 937.710888 
L 2403.156583 934.793585 
L 2403.847405 935.665922 
L 2404.539083 937.09674 
L 2405.229864 933.370307 
L 2405.921324 939.511654 
L 2406.611637 930.946825 
L 2407.302953 941.927951 
L 2407.993596 928.599279 
L 2408.684877 944.208417 
L 2409.375696 926.467574 
L 2410.068192 946.161722 
L 2410.758047 924.834725 
L 2411.448197 947.487908 
L 2412.139481 923.914089 
L 2412.830539 948.100475 
L 2413.521554 923.772408 
L 2414.213132 947.77664 
L 2414.903342 924.520736 
L 2415.594548 946.508127 
L 2416.285556 926.329132 
L 2416.976245 944.202194 
L 2417.667229 929.234578 
L 2418.359071 941.014272 
L 2419.04945 933.069573 
L 2419.740358 937.135836 
L 2420.431336 937.300142 
L 2421.123374 932.933998 
L 2421.813203 941.302333 
L 2422.504389 929.004605 
L 2423.195412 944.555052 
L 2423.886587 926.10668 
L 2424.577754 946.655808 
L 2425.26879 924.683113 
L 2425.95901 947.267864 
L 2426.650012 924.884786 
L 2427.341178 946.233306 
L 2428.032745 926.809144 
L 2428.723042 943.594491 
L 2429.414301 930.504515 
L 2430.106044 939.590274 
L 2430.795738 935.323185 
L 2431.487193 934.727231 
L 2432.17801 940.192894 
L 2432.869059 929.963536 
L 2433.559976 944.07375 
L 2434.251071 926.489755 
L 2434.94216 946.322042 
L 2435.633096 925.155817 
L 2436.324205 946.468438 
L 2437.016386 926.118496 
L 2437.706131 944.47787 
L 2438.396986 929.514108 
L 2439.088249 940.51944 
L 2439.778911 934.67467 
L 2440.46962 935.258617 
L 2441.160798 940.066226 
L 2441.851666 929.983703 
L 2442.543003 944.164487 
L 2443.235476 926.463806 
L 2443.925278 946.044047 
L 2444.615636 925.782064 
L 2445.307276 945.282082 
L 2445.997782 928.134635 
L 2446.688963 941.943528 
L 2447.380066 933.130205 
L 2448.071087 936.721085 
L 2448.761634 938.907406 
L 2449.452328 931.015291 
L 2450.143497 943.46643 
L 2450.835004 927.008428 
L 2451.525462 945.541573 
L 2452.216484 926.303173 
L 2452.907723 944.534395 
L 2453.59844 929.256009 
L 2454.289572 940.637392 
L 2454.980508 934.886268 
L 2455.671459 934.860557 
L 2456.362288 940.659364 
L 2457.053768 929.321029 
L 2457.744204 944.316946 
L 2458.43545 926.680316 
L 2459.126259 944.724987 
L 2459.818026 928.293763 
L 2460.508683 941.671477 
L 2461.199389 933.477966 
L 2461.890274 936.143088 
L 2462.581949 939.504857 
L 2463.273536 930.310917 
L 2463.963016 943.542475 
L 2464.654739 927.249396 
L 2465.345207 944.161447 
L 2466.036254 928.646823 
L 2466.727257 941.240582 
L 2467.41875 933.694073 
L 2468.109401 935.814907 
L 2468.800349 939.467764 
L 2469.491418 930.266769 
L 2470.182469 943.103181 
L 2470.874928 927.726395 
L 2471.564738 943.285 
L 2472.255218 929.651831 
L 2472.946123 939.964191 
L 2473.637606 934.831471 
L 2474.327756 934.529023 
L 2475.019575 940.0782 
L 2475.710191 929.733204 
L 2476.4012 942.653382 
L 2477.092083 928.570147 
L 2477.783009 941.702308 
L 2478.474146 931.630147 
L 2479.165125 937.682311 
L 2479.856257 936.874268 
L 2480.546944 932.448478 
L 2481.238114 940.869877 
L 2481.928942 929.370968 
L 2482.619901 941.618755 
L 2483.310692 930.502573 
L 2484.002038 938.930092 
L 2484.692859 934.891942 
L 2485.384337 934.166713 
L 2486.074828 939.249462 
L 2486.765995 930.525167 
L 2487.457272 940.672672 
L 2488.149565 930.826464 
L 2488.838944 938.60486 
L 2489.52992 934.604809 
L 2490.221378 934.309001 
L 2490.911876 938.527171 
L 2491.60336 931.239387 
L 2492.294754 939.470497 
L 2492.985155 932.08818 
L 2493.67573 937.014342 
L 2494.366497 935.750239 
L 2495.057586 933.247395 
L 2495.749074 938.310089 
L 2496.439571 932.1747 
L 2497.130723 937.419539 
L 2497.821376 934.573263 
L 2498.512819 934.334922 
L 2499.203693 937.147478 
L 2499.894428 933.098139 
L 2500.586041 936.761215 
L 2501.27638 934.657854 
L 2501.967605 934.79228 
L 2502.658635 936.193959 
L 2503.350762 934.192969 
L 2504.040811 935.95089 
L 2504.731388 934.822609 
L 2505.422249 935.364169 
L 2506.113718 935.089634 
L 2507.495683 935.17121 
L 2522.00591 935.208425 
L 2606.306627 935.211297 
L 2750.031344 935.213009 
L 2750.031344 935.213009 
" style="fill:none;stroke:#ff0000;stroke-linecap:square;stroke-width:3;"/>
   </g>
   <g id="patch_3">
    <path d="M 83.694615 1021.480385 
L 83.694615 157.9032 
" style="fill:none;stroke:#000000;stroke-linecap:square;stroke-linejoin:miter;stroke-width:0.8;"/>
   </g>
   <g id="patch_4">
    <path d="M 2876.99976 1021.480385 
L 2876.99976 157.9032 
" style="fill:none;stroke:#000000;stroke-linecap:square;stroke-linejoin:miter;stroke-width:0.8;"/>
   </g>
   <g id="patch_5">
    <path d="M 83.694615 1021.480385 
L 2876.99976 1021.480385 
" style="fill:none;stroke:#000000;stroke-linecap:square;stroke-linejoin:miter;stroke-width:0.8;"/>
   </g>
   <g id="patch_6">
    <path d="M 83.694615 157.9032 
L 2876.99976 157.9032 
" style="fill:none;stroke:#000000;stroke-linecap:square;stroke-linejoin:miter;stroke-width:0.8;"/>
   </g>
   <g id="text_20">
    <!-- Biceps (red) and Triceps (green) -->
    <defs>
     <path d="M 19.671875 34.8125 
L 19.671875 8.109375 
L 35.5 8.109375 
Q 43.453125 8.109375 47.28125 11.40625 
Q 51.125 14.703125 51.125 21.484375 
Q 51.125 28.328125 47.28125 31.5625 
Q 43.453125 34.8125 35.5 34.8125 
z
M 19.671875 64.796875 
L 19.671875 42.828125 
L 34.28125 42.828125 
Q 41.5 42.828125 45.03125 45.53125 
Q 48.578125 48.25 48.578125 53.8125 
Q 48.578125 59.328125 45.03125 62.0625 
Q 41.5 64.796875 34.28125 64.796875 
z
M 9.8125 72.90625 
L 35.015625 72.90625 
Q 46.296875 72.90625 52.390625 68.21875 
Q 58.5 63.53125 58.5 54.890625 
Q 58.5 48.1875 55.375 44.234375 
Q 52.25 40.28125 46.1875 39.3125 
Q 53.46875 37.75 57.5 32.78125 
Q 61.53125 27.828125 61.53125 20.40625 
Q 61.53125 10.640625 54.890625 5.3125 
Q 48.25 0 35.984375 0 
L 9.8125 0 
z
" id="DejaVuSans-66"/>
     <path d="M 48.78125 52.59375 
L 48.78125 44.1875 
Q 44.96875 46.296875 41.140625 47.34375 
Q 37.3125 48.390625 33.40625 48.390625 
Q 24.65625 48.390625 19.8125 42.84375 
Q 14.984375 37.3125 14.984375 27.296875 
Q 14.984375 17.28125 19.8125 11.734375 
Q 24.65625 6.203125 33.40625 6.203125 
Q 37.3125 6.203125 41.140625 7.25 
Q 44.96875 8.296875 48.78125 10.40625 
L 48.78125 2.09375 
Q 45.015625 0.34375 40.984375 -0.53125 
Q 36.96875 -1.421875 32.421875 -1.421875 
Q 20.0625 -1.421875 12.78125 6.34375 
Q 5.515625 14.109375 5.515625 27.296875 
Q 5.515625 40.671875 12.859375 48.328125 
Q 20.21875 56 33.015625 56 
Q 37.15625 56 41.109375 55.140625 
Q 45.0625 54.296875 48.78125 52.59375 
z
" id="DejaVuSans-99"/>
     <path d="M 18.109375 8.203125 
L 18.109375 -20.796875 
L 9.078125 -20.796875 
L 9.078125 54.6875 
L 18.109375 54.6875 
L 18.109375 46.390625 
Q 20.953125 51.265625 25.265625 53.625 
Q 29.59375 56 35.59375 56 
Q 45.5625 56 51.78125 48.09375 
Q 58.015625 40.1875 58.015625 27.296875 
Q 58.015625 14.40625 51.78125 6.484375 
Q 45.5625 -1.421875 35.59375 -1.421875 
Q 29.59375 -1.421875 25.265625 0.953125 
Q 20.953125 3.328125 18.109375 8.203125 
z
M 48.6875 27.296875 
Q 48.6875 37.203125 44.609375 42.84375 
Q 40.53125 48.484375 33.40625 48.484375 
Q 26.265625 48.484375 22.1875 42.84375 
Q 18.109375 37.203125 18.109375 27.296875 
Q 18.109375 17.390625 22.1875 11.75 
Q 26.265625 6.109375 33.40625 6.109375 
Q 40.53125 6.109375 44.609375 11.75 
Q 48.6875 17.390625 48.6875 27.296875 
z
" id="DejaVuSans-112"/>
     <path d="M 31 75.875 
Q 24.46875 64.65625 21.28125 53.65625 
Q 18.109375 42.671875 18.109375 31.390625 
Q 18.109375 20.125 21.3125 9.0625 
Q 24.515625 -2 31 -13.1875 
L 23.1875 -13.1875 
Q 15.875 -1.703125 12.234375 9.375 
Q 8.59375 20.453125 8.59375 31.390625 
Q 8.59375 42.28125 12.203125 53.3125 
Q 15.828125 64.359375 23.1875 75.875 
z
" id="DejaVuSans-40"/>
     <path d="M 41.109375 46.296875 
Q 39.59375 47.171875 37.8125 47.578125 
Q 36.03125 48 33.890625 48 
Q 26.265625 48 22.1875 43.046875 
Q 18.109375 38.09375 18.109375 28.8125 
L 18.109375 0 
L 9.078125 0 
L 9.078125 54.6875 
L 18.109375 54.6875 
L 18.109375 46.1875 
Q 20.953125 51.171875 25.484375 53.578125 
Q 30.03125 56 36.53125 56 
Q 37.453125 56 38.578125 55.875 
Q 39.703125 55.765625 41.0625 55.515625 
z
" id="DejaVuSans-114"/>
     <path d="M 45.40625 46.390625 
L 45.40625 75.984375 
L 54.390625 75.984375 
L 54.390625 0 
L 45.40625 0 
L 45.40625 8.203125 
Q 42.578125 3.328125 38.25 0.953125 
Q 33.9375 -1.421875 27.875 -1.421875 
Q 17.96875 -1.421875 11.734375 6.484375 
Q 5.515625 14.40625 5.515625 27.296875 
Q 5.515625 40.1875 11.734375 48.09375 
Q 17.96875 56 27.875 56 
Q 33.9375 56 38.25 53.625 
Q 42.578125 51.265625 45.40625 46.390625 
z
M 14.796875 27.296875 
Q 14.796875 17.390625 18.875 11.75 
Q 22.953125 6.109375 30.078125 6.109375 
Q 37.203125 6.109375 41.296875 11.75 
Q 45.40625 17.390625 45.40625 27.296875 
Q 45.40625 37.203125 41.296875 42.84375 
Q 37.203125 48.484375 30.078125 48.484375 
Q 22.953125 48.484375 18.875 42.84375 
Q 14.796875 37.203125 14.796875 27.296875 
z
" id="DejaVuSans-100"/>
     <path d="M 8.015625 75.875 
L 15.828125 75.875 
Q 23.140625 64.359375 26.78125 53.3125 
Q 30.421875 42.28125 30.421875 31.390625 
Q 30.421875 20.453125 26.78125 9.375 
Q 23.140625 -1.703125 15.828125 -13.1875 
L 8.015625 -13.1875 
Q 14.5 -2 17.703125 9.0625 
Q 20.90625 20.125 20.90625 31.390625 
Q 20.90625 42.671875 17.703125 53.65625 
Q 14.5 64.65625 8.015625 75.875 
z
" id="DejaVuSans-41"/>
     <path d="M 34.28125 27.484375 
Q 23.390625 27.484375 19.1875 25 
Q 14.984375 22.515625 14.984375 16.5 
Q 14.984375 11.71875 18.140625 8.90625 
Q 21.296875 6.109375 26.703125 6.109375 
Q 34.1875 6.109375 38.703125 11.40625 
Q 43.21875 16.703125 43.21875 25.484375 
L 43.21875 27.484375 
z
M 52.203125 31.203125 
L 52.203125 0 
L 43.21875 0 
L 43.21875 8.296875 
Q 40.140625 3.328125 35.546875 0.953125 
Q 30.953125 -1.421875 24.3125 -1.421875 
Q 15.921875 -1.421875 10.953125 3.296875 
Q 6 8.015625 6 15.921875 
Q 6 25.140625 12.171875 29.828125 
Q 18.359375 34.515625 30.609375 34.515625 
L 43.21875 34.515625 
L 43.21875 35.40625 
Q 43.21875 41.609375 39.140625 45 
Q 35.0625 48.390625 27.6875 48.390625 
Q 23 48.390625 18.546875 47.265625 
Q 14.109375 46.140625 10.015625 43.890625 
L 10.015625 52.203125 
Q 14.9375 54.109375 19.578125 55.046875 
Q 24.21875 56 28.609375 56 
Q 40.484375 56 46.34375 49.84375 
Q 52.203125 43.703125 52.203125 31.203125 
z
" id="DejaVuSans-97"/>
    </defs>
    <g transform="translate(1205.159688 150.832262)scale(0.34 -0.34)">
     <use xlink:href="#DejaVuSans-66"/>
     <use x="68.603516" xlink:href="#DejaVuSans-105"/>
     <use x="96.386719" xlink:href="#DejaVuSans-99"/>
     <use x="151.367188" xlink:href="#DejaVuSans-101"/>
     <use x="212.890625" xlink:href="#DejaVuSans-112"/>
     <use x="276.367188" xlink:href="#DejaVuSans-115"/>
     <use x="328.466797" xlink:href="#DejaVuSans-32"/>
     <use x="360.253906" xlink:href="#DejaVuSans-40"/>
     <use x="399.267578" xlink:href="#DejaVuSans-114"/>
     <use x="440.349609" xlink:href="#DejaVuSans-101"/>
     <use x="501.873047" xlink:href="#DejaVuSans-100"/>
     <use x="565.349609" xlink:href="#DejaVuSans-41"/>
     <use x="604.363281" xlink:href="#DejaVuSans-32"/>
     <use x="636.150391" xlink:href="#DejaVuSans-97"/>
     <use x="697.429688" xlink:href="#DejaVuSans-110"/>
     <use x="760.808594" xlink:href="#DejaVuSans-100"/>
     <use x="824.285156" xlink:href="#DejaVuSans-32"/>
     <use x="856.072266" xlink:href="#DejaVuSans-84"/>
     <use x="916.9375" xlink:href="#DejaVuSans-114"/>
     <use x="958.050781" xlink:href="#DejaVuSans-105"/>
     <use x="985.833984" xlink:href="#DejaVuSans-99"/>
     <use x="1040.814453" xlink:href="#DejaVuSans-101"/>
     <use x="1102.337891" xlink:href="#DejaVuSans-112"/>
     <use x="1165.814453" xlink:href="#DejaVuSans-115"/>
     <use x="1217.914062" xlink:href="#DejaVuSans-32"/>
     <use x="1249.701172" xlink:href="#DejaVuSans-40"/>
     <use x="1288.714844" xlink:href="#DejaVuSans-103"/>
     <use x="1352.191406" xlink:href="#DejaVuSans-114"/>
     <use x="1393.273438" xlink:href="#DejaVuSans-101"/>
     <use x="1454.796875" xlink:href="#DejaVuSans-101"/>
     <use x="1516.320312" xlink:href="#DejaVuSans-110"/>
     <use x="1579.699219" xlink:href="#DejaVuSans-41"/>
    </g>
   </g>
  </g>
  <g id="text_21">
   <!-- Setpoints (- -) and Lenghts () - P140000 I0 D0 -->
   <defs>
    <path d="M 53.515625 70.515625 
L 53.515625 60.890625 
Q 47.90625 63.578125 42.921875 64.890625 
Q 37.9375 66.21875 33.296875 66.21875 
Q 25.25 66.21875 20.875 63.09375 
Q 16.5 59.96875 16.5 54.203125 
Q 16.5 49.359375 19.40625 46.890625 
Q 22.3125 44.4375 30.421875 42.921875 
L 36.375 41.703125 
Q 47.40625 39.59375 52.65625 34.296875 
Q 57.90625 29 57.90625 20.125 
Q 57.90625 9.515625 50.796875 4.046875 
Q 43.703125 -1.421875 29.984375 -1.421875 
Q 24.8125 -1.421875 18.96875 -0.25 
Q 13.140625 0.921875 6.890625 3.21875 
L 6.890625 13.375 
Q 12.890625 10.015625 18.65625 8.296875 
Q 24.421875 6.59375 29.984375 6.59375 
Q 38.421875 6.59375 43.015625 9.90625 
Q 47.609375 13.234375 47.609375 19.390625 
Q 47.609375 24.75 44.3125 27.78125 
Q 41.015625 30.8125 33.5 32.328125 
L 27.484375 33.5 
Q 16.453125 35.6875 11.515625 40.375 
Q 6.59375 45.0625 6.59375 53.421875 
Q 6.59375 63.09375 13.40625 68.65625 
Q 20.21875 74.21875 32.171875 74.21875 
Q 37.3125 74.21875 42.625 73.28125 
Q 47.953125 72.359375 53.515625 70.515625 
z
" id="DejaVuSans-83"/>
    <path d="M 30.609375 48.390625 
Q 23.390625 48.390625 19.1875 42.75 
Q 14.984375 37.109375 14.984375 27.296875 
Q 14.984375 17.484375 19.15625 11.84375 
Q 23.34375 6.203125 30.609375 6.203125 
Q 37.796875 6.203125 41.984375 11.859375 
Q 46.1875 17.53125 46.1875 27.296875 
Q 46.1875 37.015625 41.984375 42.703125 
Q 37.796875 48.390625 30.609375 48.390625 
z
M 30.609375 56 
Q 42.328125 56 49.015625 48.375 
Q 55.71875 40.765625 55.71875 27.296875 
Q 55.71875 13.875 49.015625 6.21875 
Q 42.328125 -1.421875 30.609375 -1.421875 
Q 18.84375 -1.421875 12.171875 6.21875 
Q 5.515625 13.875 5.515625 27.296875 
Q 5.515625 40.765625 12.171875 48.375 
Q 18.84375 56 30.609375 56 
z
" id="DejaVuSans-111"/>
    <path d="M 4.890625 31.390625 
L 31.203125 31.390625 
L 31.203125 23.390625 
L 4.890625 23.390625 
z
" id="DejaVuSans-45"/>
    <path d="M 0 30.90625 
L 100 30.90625 
L 100 23.875 
L 0 23.875 
z
" id="DejaVuSans-8213"/>
    <path d="M 19.671875 64.796875 
L 19.671875 37.40625 
L 32.078125 37.40625 
Q 38.96875 37.40625 42.71875 40.96875 
Q 46.484375 44.53125 46.484375 51.125 
Q 46.484375 57.671875 42.71875 61.234375 
Q 38.96875 64.796875 32.078125 64.796875 
z
M 9.8125 72.90625 
L 32.078125 72.90625 
Q 44.34375 72.90625 50.609375 67.359375 
Q 56.890625 61.8125 56.890625 51.125 
Q 56.890625 40.328125 50.609375 34.8125 
Q 44.34375 29.296875 32.078125 29.296875 
L 19.671875 29.296875 
L 19.671875 0 
L 9.8125 0 
z
" id="DejaVuSans-80"/>
    <path d="M 9.8125 72.90625 
L 19.671875 72.90625 
L 19.671875 0 
L 9.8125 0 
z
" id="DejaVuSans-73"/>
    <path d="M 19.671875 64.796875 
L 19.671875 8.109375 
L 31.59375 8.109375 
Q 46.6875 8.109375 53.6875 14.9375 
Q 60.6875 21.78125 60.6875 36.53125 
Q 60.6875 51.171875 53.6875 57.984375 
Q 46.6875 64.796875 31.59375 64.796875 
z
M 9.8125 72.90625 
L 30.078125 72.90625 
Q 51.265625 72.90625 61.171875 64.09375 
Q 71.09375 55.28125 71.09375 36.53125 
Q 71.09375 17.671875 61.125 8.828125 
Q 51.171875 0 30.078125 0 
L 9.8125 0 
z
" id="DejaVuSans-68"/>
   </defs>
   <g transform="translate(1040.059062 28.834927)scale(0.34 -0.34)">
    <use xlink:href="#DejaVuSans-83"/>
    <use x="63.476562" xlink:href="#DejaVuSans-101"/>
    <use x="125" xlink:href="#DejaVuSans-116"/>
    <use x="164.208984" xlink:href="#DejaVuSans-112"/>
    <use x="227.685547" xlink:href="#DejaVuSans-111"/>
    <use x="288.867188" xlink:href="#DejaVuSans-105"/>
    <use x="316.650391" xlink:href="#DejaVuSans-110"/>
    <use x="380.029297" xlink:href="#DejaVuSans-116"/>
    <use x="419.238281" xlink:href="#DejaVuSans-115"/>
    <use x="471.337891" xlink:href="#DejaVuSans-32"/>
    <use x="503.125" xlink:href="#DejaVuSans-40"/>
    <use x="542.138672" xlink:href="#DejaVuSans-45"/>
    <use x="578.222656" xlink:href="#DejaVuSans-45"/>
    <use x="614.306641" xlink:href="#DejaVuSans-41"/>
    <use x="653.320312" xlink:href="#DejaVuSans-32"/>
    <use x="685.107422" xlink:href="#DejaVuSans-97"/>
    <use x="746.386719" xlink:href="#DejaVuSans-110"/>
    <use x="809.765625" xlink:href="#DejaVuSans-100"/>
    <use x="873.242188" xlink:href="#DejaVuSans-32"/>
    <use x="905.029297" xlink:href="#DejaVuSans-76"/>
    <use x="960.726562" xlink:href="#DejaVuSans-101"/>
    <use x="1022.25" xlink:href="#DejaVuSans-110"/>
    <use x="1085.628906" xlink:href="#DejaVuSans-103"/>
    <use x="1149.105469" xlink:href="#DejaVuSans-104"/>
    <use x="1212.484375" xlink:href="#DejaVuSans-116"/>
    <use x="1251.693359" xlink:href="#DejaVuSans-115"/>
    <use x="1303.792969" xlink:href="#DejaVuSans-32"/>
    <use x="1335.580078" xlink:href="#DejaVuSans-40"/>
    <use x="1374.59375" xlink:href="#DejaVuSans-8213"/>
    <use x="1474.59375" xlink:href="#DejaVuSans-41"/>
    <use x="1513.607422" xlink:href="#DejaVuSans-32"/>
    <use x="1545.394531" xlink:href="#DejaVuSans-45"/>
    <use x="1581.478516" xlink:href="#DejaVuSans-32"/>
    <use x="1613.265625" xlink:href="#DejaVuSans-80"/>
    <use x="1673.568359" xlink:href="#DejaVuSans-49"/>
    <use x="1737.191406" xlink:href="#DejaVuSans-52"/>
    <use x="1800.814453" xlink:href="#DejaVuSans-48"/>
    <use x="1864.4375" xlink:href="#DejaVuSans-48"/>
    <use x="1928.060547" xlink:href="#DejaVuSans-48"/>
    <use x="1991.683594" xlink:href="#DejaVuSans-48"/>
    <use x="2055.306641" xlink:href="#DejaVuSans-32"/>
    <use x="2087.09375" xlink:href="#DejaVuSans-73"/>
    <use x="2116.585938" xlink:href="#DejaVuSans-48"/>
    <use x="2180.208984" xlink:href="#DejaVuSans-32"/>
    <use x="2211.996094" xlink:href="#DejaVuSans-68"/>
    <use x="2288.998047" xlink:href="#DejaVuSans-48"/>
   </g>
   <!-- Bagfile elbow_left_D from 10s for 367s - Logging Rate 10 - Simulation Rate 800 - 100.00% real time speed -->
   <defs>
    <path d="M 37.109375 75.984375 
L 37.109375 68.5 
L 28.515625 68.5 
Q 23.6875 68.5 21.796875 66.546875 
Q 19.921875 64.59375 19.921875 59.515625 
L 19.921875 54.6875 
L 34.71875 54.6875 
L 34.71875 47.703125 
L 19.921875 47.703125 
L 19.921875 0 
L 10.890625 0 
L 10.890625 47.703125 
L 2.296875 47.703125 
L 2.296875 54.6875 
L 10.890625 54.6875 
L 10.890625 58.5 
Q 10.890625 67.625 15.140625 71.796875 
Q 19.390625 75.984375 28.609375 75.984375 
z
" id="DejaVuSans-102"/>
    <path d="M 9.421875 75.984375 
L 18.40625 75.984375 
L 18.40625 0 
L 9.421875 0 
z
" id="DejaVuSans-108"/>
    <path d="M 48.6875 27.296875 
Q 48.6875 37.203125 44.609375 42.84375 
Q 40.53125 48.484375 33.40625 48.484375 
Q 26.265625 48.484375 22.1875 42.84375 
Q 18.109375 37.203125 18.109375 27.296875 
Q 18.109375 17.390625 22.1875 11.75 
Q 26.265625 6.109375 33.40625 6.109375 
Q 40.53125 6.109375 44.609375 11.75 
Q 48.6875 17.390625 48.6875 27.296875 
z
M 18.109375 46.390625 
Q 20.953125 51.265625 25.265625 53.625 
Q 29.59375 56 35.59375 56 
Q 45.5625 56 51.78125 48.09375 
Q 58.015625 40.1875 58.015625 27.296875 
Q 58.015625 14.40625 51.78125 6.484375 
Q 45.5625 -1.421875 35.59375 -1.421875 
Q 29.59375 -1.421875 25.265625 0.953125 
Q 20.953125 3.328125 18.109375 8.203125 
L 18.109375 0 
L 9.078125 0 
L 9.078125 75.984375 
L 18.109375 75.984375 
z
" id="DejaVuSans-98"/>
    <path d="M 4.203125 54.6875 
L 13.1875 54.6875 
L 24.421875 12.015625 
L 35.59375 54.6875 
L 46.1875 54.6875 
L 57.421875 12.015625 
L 68.609375 54.6875 
L 77.59375 54.6875 
L 63.28125 0 
L 52.6875 0 
L 40.921875 44.828125 
L 29.109375 0 
L 18.5 0 
z
" id="DejaVuSans-119"/>
    <path d="M 50.984375 -16.609375 
L 50.984375 -23.578125 
L -0.984375 -23.578125 
L -0.984375 -16.609375 
z
" id="DejaVuSans-95"/>
    <path d="M 33.015625 40.375 
Q 26.375 40.375 22.484375 35.828125 
Q 18.609375 31.296875 18.609375 23.390625 
Q 18.609375 15.53125 22.484375 10.953125 
Q 26.375 6.390625 33.015625 6.390625 
Q 39.65625 6.390625 43.53125 10.953125 
Q 47.40625 15.53125 47.40625 23.390625 
Q 47.40625 31.296875 43.53125 35.828125 
Q 39.65625 40.375 33.015625 40.375 
z
M 52.59375 71.296875 
L 52.59375 62.3125 
Q 48.875 64.0625 45.09375 64.984375 
Q 41.3125 65.921875 37.59375 65.921875 
Q 27.828125 65.921875 22.671875 59.328125 
Q 17.53125 52.734375 16.796875 39.40625 
Q 19.671875 43.65625 24.015625 45.921875 
Q 28.375 48.1875 33.59375 48.1875 
Q 44.578125 48.1875 50.953125 41.515625 
Q 57.328125 34.859375 57.328125 23.390625 
Q 57.328125 12.15625 50.6875 5.359375 
Q 44.046875 -1.421875 33.015625 -1.421875 
Q 20.359375 -1.421875 13.671875 8.265625 
Q 6.984375 17.96875 6.984375 36.375 
Q 6.984375 53.65625 15.1875 63.9375 
Q 23.390625 74.21875 37.203125 74.21875 
Q 40.921875 74.21875 44.703125 73.484375 
Q 48.484375 72.75 52.59375 71.296875 
z
" id="DejaVuSans-54"/>
    <path d="M 44.390625 34.1875 
Q 47.5625 33.109375 50.5625 29.59375 
Q 53.5625 26.078125 56.59375 19.921875 
L 66.609375 0 
L 56 0 
L 46.6875 18.703125 
Q 43.0625 26.03125 39.671875 28.421875 
Q 36.28125 30.8125 30.421875 30.8125 
L 19.671875 30.8125 
L 19.671875 0 
L 9.8125 0 
L 9.8125 72.90625 
L 32.078125 72.90625 
Q 44.578125 72.90625 50.734375 67.671875 
Q 56.890625 62.453125 56.890625 51.90625 
Q 56.890625 45.015625 53.6875 40.46875 
Q 50.484375 35.9375 44.390625 34.1875 
z
M 19.671875 64.796875 
L 19.671875 38.921875 
L 32.078125 38.921875 
Q 39.203125 38.921875 42.84375 42.21875 
Q 46.484375 45.515625 46.484375 51.90625 
Q 46.484375 58.296875 42.84375 61.546875 
Q 39.203125 64.796875 32.078125 64.796875 
z
" id="DejaVuSans-82"/>
    <path d="M 8.5 21.578125 
L 8.5 54.6875 
L 17.484375 54.6875 
L 17.484375 21.921875 
Q 17.484375 14.15625 20.5 10.265625 
Q 23.53125 6.390625 29.59375 6.390625 
Q 36.859375 6.390625 41.078125 11.03125 
Q 45.3125 15.671875 45.3125 23.6875 
L 45.3125 54.6875 
L 54.296875 54.6875 
L 54.296875 0 
L 45.3125 0 
L 45.3125 8.40625 
Q 42.046875 3.421875 37.71875 1 
Q 33.40625 -1.421875 27.6875 -1.421875 
Q 18.265625 -1.421875 13.375 4.4375 
Q 8.5 10.296875 8.5 21.578125 
z
M 31.109375 56 
z
" id="DejaVuSans-117"/>
    <path d="M 72.703125 32.078125 
Q 68.453125 32.078125 66.03125 28.46875 
Q 63.625 24.859375 63.625 18.40625 
Q 63.625 12.0625 66.03125 8.421875 
Q 68.453125 4.78125 72.703125 4.78125 
Q 76.859375 4.78125 79.265625 8.421875 
Q 81.6875 12.0625 81.6875 18.40625 
Q 81.6875 24.8125 79.265625 28.4375 
Q 76.859375 32.078125 72.703125 32.078125 
z
M 72.703125 38.28125 
Q 80.421875 38.28125 84.953125 32.90625 
Q 89.5 27.546875 89.5 18.40625 
Q 89.5 9.28125 84.9375 3.921875 
Q 80.375 -1.421875 72.703125 -1.421875 
Q 64.890625 -1.421875 60.34375 3.921875 
Q 55.8125 9.28125 55.8125 18.40625 
Q 55.8125 27.59375 60.375 32.9375 
Q 64.9375 38.28125 72.703125 38.28125 
z
M 22.3125 68.015625 
Q 18.109375 68.015625 15.6875 64.375 
Q 13.28125 60.75 13.28125 54.390625 
Q 13.28125 47.953125 15.671875 44.328125 
Q 18.0625 40.71875 22.3125 40.71875 
Q 26.5625 40.71875 28.96875 44.328125 
Q 31.390625 47.953125 31.390625 54.390625 
Q 31.390625 60.6875 28.953125 64.34375 
Q 26.515625 68.015625 22.3125 68.015625 
z
M 66.40625 74.21875 
L 74.21875 74.21875 
L 28.609375 -1.421875 
L 20.796875 -1.421875 
z
M 22.3125 74.21875 
Q 30.03125 74.21875 34.609375 68.875 
Q 39.203125 63.53125 39.203125 54.390625 
Q 39.203125 45.171875 34.640625 39.84375 
Q 30.078125 34.515625 22.3125 34.515625 
Q 14.546875 34.515625 10.03125 39.859375 
Q 5.515625 45.21875 5.515625 54.390625 
Q 5.515625 63.484375 10.046875 68.84375 
Q 14.59375 74.21875 22.3125 74.21875 
z
" id="DejaVuSans-37"/>
   </defs>
   <g transform="translate(533.222656 66.90749)scale(0.34 -0.34)">
    <use xlink:href="#DejaVuSans-66"/>
    <use x="68.603516" xlink:href="#DejaVuSans-97"/>
    <use x="129.882812" xlink:href="#DejaVuSans-103"/>
    <use x="193.359375" xlink:href="#DejaVuSans-102"/>
    <use x="228.564453" xlink:href="#DejaVuSans-105"/>
    <use x="256.347656" xlink:href="#DejaVuSans-108"/>
    <use x="284.130859" xlink:href="#DejaVuSans-101"/>
    <use x="345.654297" xlink:href="#DejaVuSans-32"/>
    <use x="377.441406" xlink:href="#DejaVuSans-101"/>
    <use x="438.964844" xlink:href="#DejaVuSans-108"/>
    <use x="466.748047" xlink:href="#DejaVuSans-98"/>
    <use x="530.224609" xlink:href="#DejaVuSans-111"/>
    <use x="591.40625" xlink:href="#DejaVuSans-119"/>
    <use x="673.193359" xlink:href="#DejaVuSans-95"/>
    <use x="723.193359" xlink:href="#DejaVuSans-108"/>
    <use x="750.976562" xlink:href="#DejaVuSans-101"/>
    <use x="812.5" xlink:href="#DejaVuSans-102"/>
    <use x="847.689453" xlink:href="#DejaVuSans-116"/>
    <use x="886.898438" xlink:href="#DejaVuSans-95"/>
    <use x="936.898438" xlink:href="#DejaVuSans-68"/>
    <use x="1013.900391" xlink:href="#DejaVuSans-32"/>
    <use x="1045.6875" xlink:href="#DejaVuSans-102"/>
    <use x="1080.892578" xlink:href="#DejaVuSans-114"/>
    <use x="1121.974609" xlink:href="#DejaVuSans-111"/>
    <use x="1183.15625" xlink:href="#DejaVuSans-109"/>
    <use x="1280.568359" xlink:href="#DejaVuSans-32"/>
    <use x="1312.355469" xlink:href="#DejaVuSans-49"/>
    <use x="1375.978516" xlink:href="#DejaVuSans-48"/>
    <use x="1439.601562" xlink:href="#DejaVuSans-115"/>
    <use x="1491.701172" xlink:href="#DejaVuSans-32"/>
    <use x="1523.488281" xlink:href="#DejaVuSans-102"/>
    <use x="1558.693359" xlink:href="#DejaVuSans-111"/>
    <use x="1619.875" xlink:href="#DejaVuSans-114"/>
    <use x="1660.988281" xlink:href="#DejaVuSans-32"/>
    <use x="1692.775391" xlink:href="#DejaVuSans-51"/>
    <use x="1756.398438" xlink:href="#DejaVuSans-54"/>
    <use x="1820.021484" xlink:href="#DejaVuSans-55"/>
    <use x="1883.644531" xlink:href="#DejaVuSans-115"/>
    <use x="1935.744141" xlink:href="#DejaVuSans-32"/>
    <use x="1967.53125" xlink:href="#DejaVuSans-45"/>
    <use x="2003.615234" xlink:href="#DejaVuSans-32"/>
    <use x="2035.402344" xlink:href="#DejaVuSans-76"/>
    <use x="2091.099609" xlink:href="#DejaVuSans-111"/>
    <use x="2152.28125" xlink:href="#DejaVuSans-103"/>
    <use x="2215.757812" xlink:href="#DejaVuSans-103"/>
    <use x="2279.234375" xlink:href="#DejaVuSans-105"/>
    <use x="2307.017578" xlink:href="#DejaVuSans-110"/>
    <use x="2370.396484" xlink:href="#DejaVuSans-103"/>
    <use x="2433.873047" xlink:href="#DejaVuSans-32"/>
    <use x="2465.660156" xlink:href="#DejaVuSans-82"/>
    <use x="2535.111328" xlink:href="#DejaVuSans-97"/>
    <use x="2596.390625" xlink:href="#DejaVuSans-116"/>
    <use x="2635.599609" xlink:href="#DejaVuSans-101"/>
    <use x="2697.123047" xlink:href="#DejaVuSans-32"/>
    <use x="2728.910156" xlink:href="#DejaVuSans-49"/>
    <use x="2792.533203" xlink:href="#DejaVuSans-48"/>
    <use x="2856.15625" xlink:href="#DejaVuSans-32"/>
    <use x="2887.943359" xlink:href="#DejaVuSans-45"/>
    <use x="2924.027344" xlink:href="#DejaVuSans-32"/>
    <use x="2955.814453" xlink:href="#DejaVuSans-83"/>
    <use x="3019.291016" xlink:href="#DejaVuSans-105"/>
    <use x="3047.074219" xlink:href="#DejaVuSans-109"/>
    <use x="3144.486328" xlink:href="#DejaVuSans-117"/>
    <use x="3207.865234" xlink:href="#DejaVuSans-108"/>
    <use x="3235.648438" xlink:href="#DejaVuSans-97"/>
    <use x="3296.927734" xlink:href="#DejaVuSans-116"/>
    <use x="3336.136719" xlink:href="#DejaVuSans-105"/>
    <use x="3363.919922" xlink:href="#DejaVuSans-111"/>
    <use x="3425.101562" xlink:href="#DejaVuSans-110"/>
    <use x="3488.480469" xlink:href="#DejaVuSans-32"/>
    <use x="3520.267578" xlink:href="#DejaVuSans-82"/>
    <use x="3589.71875" xlink:href="#DejaVuSans-97"/>
    <use x="3650.998047" xlink:href="#DejaVuSans-116"/>
    <use x="3690.207031" xlink:href="#DejaVuSans-101"/>
    <use x="3751.730469" xlink:href="#DejaVuSans-32"/>
    <use x="3783.517578" xlink:href="#DejaVuSans-56"/>
    <use x="3847.140625" xlink:href="#DejaVuSans-48"/>
    <use x="3910.763672" xlink:href="#DejaVuSans-48"/>
    <use x="3974.386719" xlink:href="#DejaVuSans-32"/>
    <use x="4006.173828" xlink:href="#DejaVuSans-45"/>
    <use x="4042.257812" xlink:href="#DejaVuSans-32"/>
    <use x="4074.044922" xlink:href="#DejaVuSans-49"/>
    <use x="4137.667969" xlink:href="#DejaVuSans-48"/>
    <use x="4201.291016" xlink:href="#DejaVuSans-48"/>
    <use x="4264.914062" xlink:href="#DejaVuSans-46"/>
    <use x="4296.701172" xlink:href="#DejaVuSans-48"/>
    <use x="4360.324219" xlink:href="#DejaVuSans-48"/>
    <use x="4423.947266" xlink:href="#DejaVuSans-37"/>
    <use x="4518.966797" xlink:href="#DejaVuSans-32"/>
    <use x="4550.753906" xlink:href="#DejaVuSans-114"/>
    <use x="4591.835938" xlink:href="#DejaVuSans-101"/>
    <use x="4653.359375" xlink:href="#DejaVuSans-97"/>
    <use x="4714.638672" xlink:href="#DejaVuSans-108"/>
    <use x="4742.421875" xlink:href="#DejaVuSans-32"/>
    <use x="4774.208984" xlink:href="#DejaVuSans-116"/>
    <use x="4813.417969" xlink:href="#DejaVuSans-105"/>
    <use x="4841.201172" xlink:href="#DejaVuSans-109"/>
    <use x="4938.613281" xlink:href="#DejaVuSans-101"/>
    <use x="5000.136719" xlink:href="#DejaVuSans-32"/>
    <use x="5031.923828" xlink:href="#DejaVuSans-115"/>
    <use x="5084.023438" xlink:href="#DejaVuSans-112"/>
    <use x="5147.5" xlink:href="#DejaVuSans-101"/>
    <use x="5209.023438" xlink:href="#DejaVuSans-101"/>
    <use x="5270.546875" xlink:href="#DejaVuSans-100"/>
   </g>
   <!--  -->
   <g transform="translate(1440 105.925677)scale(0.34 -0.34)"/>
  </g>
 </g>
 <defs>
  <clipPath id="p2f0056759f">
   <rect height="863.577185" width="2793.305145" x="83.694615" y="157.9032"/>
  </clipPath>
 </defs>
</svg>
