<?xml version="1.0" encoding="utf-8" standalone="no"?>
<!DOCTYPE svg PUBLIC "-//W3C//DTD SVG 1.1//EN"
  "http://www.w3.org/Graphics/SVG/1.1/DTD/svg11.dtd">
<!-- Created with matplotlib (https://matplotlib.org/) -->
<svg height="1080pt" version="1.1" viewBox="0 0 2880 1080" width="2880pt" xmlns="http://www.w3.org/2000/svg" xmlns:xlink="http://www.w3.org/1999/xlink">
 <defs>
  <style type="text/css">
*{stroke-linecap:butt;stroke-linejoin:round;}
  </style>
 </defs>
 <g id="figure_1">
  <g id="patch_1">
   <path d="M 0 1080 
L 2880 1080 
L 2880 0 
L 0 0 
z
" style="fill:#ffffff;"/>
  </g>
  <g id="axes_1">
   <g id="patch_2">
    <path d="M 94.09774 1021.480385 
L 2876.99976 1021.480385 
L 2876.99976 157.9032 
L 94.09774 157.9032 
z
" style="fill:#ffffff;"/>
   </g>
   <g id="matplotlib.axis_1">
    <g id="xtick_1">
     <g id="line2d_1">
      <defs>
       <path d="M 0 0 
L 0 3.5 
" id="mfc5b7d4354" style="stroke:#000000;stroke-width:0.8;"/>
      </defs>
      <g>
       <use style="stroke:#000000;stroke-width:0.8;" x="431.493634" xlink:href="#mfc5b7d4354" y="1021.480385"/>
      </g>
     </g>
     <g id="text_1">
      <!-- 20 -->
      <defs>
       <path d="M 19.1875 8.296875 
L 53.609375 8.296875 
L 53.609375 0 
L 7.328125 0 
L 7.328125 8.296875 
Q 12.9375 14.109375 22.625 23.890625 
Q 32.328125 33.6875 34.8125 36.53125 
Q 39.546875 41.84375 41.421875 45.53125 
Q 43.3125 49.21875 43.3125 52.78125 
Q 43.3125 58.59375 39.234375 62.25 
Q 35.15625 65.921875 28.609375 65.921875 
Q 23.96875 65.921875 18.8125 64.3125 
Q 13.671875 62.703125 7.8125 59.421875 
L 7.8125 69.390625 
Q 13.765625 71.78125 18.9375 73 
Q 24.125 74.21875 28.421875 74.21875 
Q 39.75 74.21875 46.484375 68.546875 
Q 53.21875 62.890625 53.21875 53.421875 
Q 53.21875 48.921875 51.53125 44.890625 
Q 49.859375 40.875 45.40625 35.40625 
Q 44.1875 33.984375 37.640625 27.21875 
Q 31.109375 20.453125 19.1875 8.296875 
z
" id="DejaVuSans-50"/>
       <path d="M 31.78125 66.40625 
Q 24.171875 66.40625 20.328125 58.90625 
Q 16.5 51.421875 16.5 36.375 
Q 16.5 21.390625 20.328125 13.890625 
Q 24.171875 6.390625 31.78125 6.390625 
Q 39.453125 6.390625 43.28125 13.890625 
Q 47.125 21.390625 47.125 36.375 
Q 47.125 51.421875 43.28125 58.90625 
Q 39.453125 66.40625 31.78125 66.40625 
z
M 31.78125 74.21875 
Q 44.046875 74.21875 50.515625 64.515625 
Q 56.984375 54.828125 56.984375 36.375 
Q 56.984375 17.96875 50.515625 8.265625 
Q 44.046875 -1.421875 31.78125 -1.421875 
Q 19.53125 -1.421875 13.0625 8.265625 
Q 6.59375 17.96875 6.59375 36.375 
Q 6.59375 54.828125 13.0625 64.515625 
Q 19.53125 74.21875 31.78125 74.21875 
z
" id="DejaVuSans-48"/>
      </defs>
      <g transform="translate(418.768634 1043.67726)scale(0.2 -0.2)">
       <use xlink:href="#DejaVuSans-50"/>
       <use x="63.623047" xlink:href="#DejaVuSans-48"/>
      </g>
     </g>
    </g>
    <g id="xtick_2">
     <g id="line2d_2">
      <g>
       <use style="stroke:#000000;stroke-width:0.8;" x="853.294331" xlink:href="#mfc5b7d4354" y="1021.480385"/>
      </g>
     </g>
     <g id="text_2">
      <!-- 40 -->
      <defs>
       <path d="M 37.796875 64.3125 
L 12.890625 25.390625 
L 37.796875 25.390625 
z
M 35.203125 72.90625 
L 47.609375 72.90625 
L 47.609375 25.390625 
L 58.015625 25.390625 
L 58.015625 17.1875 
L 47.609375 17.1875 
L 47.609375 0 
L 37.796875 0 
L 37.796875 17.1875 
L 4.890625 17.1875 
L 4.890625 26.703125 
z
" id="DejaVuSans-52"/>
      </defs>
      <g transform="translate(840.569331 1043.67726)scale(0.2 -0.2)">
       <use xlink:href="#DejaVuSans-52"/>
       <use x="63.623047" xlink:href="#DejaVuSans-48"/>
      </g>
     </g>
    </g>
    <g id="xtick_3">
     <g id="line2d_3">
      <g>
       <use style="stroke:#000000;stroke-width:0.8;" x="1275.095027" xlink:href="#mfc5b7d4354" y="1021.480385"/>
      </g>
     </g>
     <g id="text_3">
      <!-- 60 -->
      <defs>
       <path d="M 33.015625 40.375 
Q 26.375 40.375 22.484375 35.828125 
Q 18.609375 31.296875 18.609375 23.390625 
Q 18.609375 15.53125 22.484375 10.953125 
Q 26.375 6.390625 33.015625 6.390625 
Q 39.65625 6.390625 43.53125 10.953125 
Q 47.40625 15.53125 47.40625 23.390625 
Q 47.40625 31.296875 43.53125 35.828125 
Q 39.65625 40.375 33.015625 40.375 
z
M 52.59375 71.296875 
L 52.59375 62.3125 
Q 48.875 64.0625 45.09375 64.984375 
Q 41.3125 65.921875 37.59375 65.921875 
Q 27.828125 65.921875 22.671875 59.328125 
Q 17.53125 52.734375 16.796875 39.40625 
Q 19.671875 43.65625 24.015625 45.921875 
Q 28.375 48.1875 33.59375 48.1875 
Q 44.578125 48.1875 50.953125 41.515625 
Q 57.328125 34.859375 57.328125 23.390625 
Q 57.328125 12.15625 50.6875 5.359375 
Q 44.046875 -1.421875 33.015625 -1.421875 
Q 20.359375 -1.421875 13.671875 8.265625 
Q 6.984375 17.96875 6.984375 36.375 
Q 6.984375 53.65625 15.1875 63.9375 
Q 23.390625 74.21875 37.203125 74.21875 
Q 40.921875 74.21875 44.703125 73.484375 
Q 48.484375 72.75 52.59375 71.296875 
z
" id="DejaVuSans-54"/>
      </defs>
      <g transform="translate(1262.370027 1043.67726)scale(0.2 -0.2)">
       <use xlink:href="#DejaVuSans-54"/>
       <use x="63.623047" xlink:href="#DejaVuSans-48"/>
      </g>
     </g>
    </g>
    <g id="xtick_4">
     <g id="line2d_4">
      <g>
       <use style="stroke:#000000;stroke-width:0.8;" x="1696.895723" xlink:href="#mfc5b7d4354" y="1021.480385"/>
      </g>
     </g>
     <g id="text_4">
      <!-- 80 -->
      <defs>
       <path d="M 31.78125 34.625 
Q 24.75 34.625 20.71875 30.859375 
Q 16.703125 27.09375 16.703125 20.515625 
Q 16.703125 13.921875 20.71875 10.15625 
Q 24.75 6.390625 31.78125 6.390625 
Q 38.8125 6.390625 42.859375 10.171875 
Q 46.921875 13.96875 46.921875 20.515625 
Q 46.921875 27.09375 42.890625 30.859375 
Q 38.875 34.625 31.78125 34.625 
z
M 21.921875 38.8125 
Q 15.578125 40.375 12.03125 44.71875 
Q 8.5 49.078125 8.5 55.328125 
Q 8.5 64.0625 14.71875 69.140625 
Q 20.953125 74.21875 31.78125 74.21875 
Q 42.671875 74.21875 48.875 69.140625 
Q 55.078125 64.0625 55.078125 55.328125 
Q 55.078125 49.078125 51.53125 44.71875 
Q 48 40.375 41.703125 38.8125 
Q 48.828125 37.15625 52.796875 32.3125 
Q 56.78125 27.484375 56.78125 20.515625 
Q 56.78125 9.90625 50.3125 4.234375 
Q 43.84375 -1.421875 31.78125 -1.421875 
Q 19.734375 -1.421875 13.25 4.234375 
Q 6.78125 9.90625 6.78125 20.515625 
Q 6.78125 27.484375 10.78125 32.3125 
Q 14.796875 37.15625 21.921875 38.8125 
z
M 18.3125 54.390625 
Q 18.3125 48.734375 21.84375 45.5625 
Q 25.390625 42.390625 31.78125 42.390625 
Q 38.140625 42.390625 41.71875 45.5625 
Q 45.3125 48.734375 45.3125 54.390625 
Q 45.3125 60.0625 41.71875 63.234375 
Q 38.140625 66.40625 31.78125 66.40625 
Q 25.390625 66.40625 21.84375 63.234375 
Q 18.3125 60.0625 18.3125 54.390625 
z
" id="DejaVuSans-56"/>
      </defs>
      <g transform="translate(1684.170723 1043.67726)scale(0.2 -0.2)">
       <use xlink:href="#DejaVuSans-56"/>
       <use x="63.623047" xlink:href="#DejaVuSans-48"/>
      </g>
     </g>
    </g>
    <g id="xtick_5">
     <g id="line2d_5">
      <g>
       <use style="stroke:#000000;stroke-width:0.8;" x="2118.696419" xlink:href="#mfc5b7d4354" y="1021.480385"/>
      </g>
     </g>
     <g id="text_5">
      <!-- 100 -->
      <defs>
       <path d="M 12.40625 8.296875 
L 28.515625 8.296875 
L 28.515625 63.921875 
L 10.984375 60.40625 
L 10.984375 69.390625 
L 28.421875 72.90625 
L 38.28125 72.90625 
L 38.28125 8.296875 
L 54.390625 8.296875 
L 54.390625 0 
L 12.40625 0 
z
" id="DejaVuSans-49"/>
      </defs>
      <g transform="translate(2099.608919 1043.67726)scale(0.2 -0.2)">
       <use xlink:href="#DejaVuSans-49"/>
       <use x="63.623047" xlink:href="#DejaVuSans-48"/>
       <use x="127.246094" xlink:href="#DejaVuSans-48"/>
      </g>
     </g>
    </g>
    <g id="xtick_6">
     <g id="line2d_6">
      <g>
       <use style="stroke:#000000;stroke-width:0.8;" x="2540.497115" xlink:href="#mfc5b7d4354" y="1021.480385"/>
      </g>
     </g>
     <g id="text_6">
      <!-- 120 -->
      <g transform="translate(2521.409615 1043.67726)scale(0.2 -0.2)">
       <use xlink:href="#DejaVuSans-49"/>
       <use x="63.623047" xlink:href="#DejaVuSans-50"/>
       <use x="127.246094" xlink:href="#DejaVuSans-48"/>
      </g>
     </g>
    </g>
    <g id="text_7">
     <!-- Time [s] -->
     <defs>
      <path d="M -0.296875 72.90625 
L 61.375 72.90625 
L 61.375 64.59375 
L 35.5 64.59375 
L 35.5 0 
L 25.59375 0 
L 25.59375 64.59375 
L -0.296875 64.59375 
z
" id="DejaVuSans-84"/>
      <path d="M 9.421875 54.6875 
L 18.40625 54.6875 
L 18.40625 0 
L 9.421875 0 
z
M 9.421875 75.984375 
L 18.40625 75.984375 
L 18.40625 64.59375 
L 9.421875 64.59375 
z
" id="DejaVuSans-105"/>
      <path d="M 52 44.1875 
Q 55.375 50.25 60.0625 53.125 
Q 64.75 56 71.09375 56 
Q 79.640625 56 84.28125 50.015625 
Q 88.921875 44.046875 88.921875 33.015625 
L 88.921875 0 
L 79.890625 0 
L 79.890625 32.71875 
Q 79.890625 40.578125 77.09375 44.375 
Q 74.3125 48.1875 68.609375 48.1875 
Q 61.625 48.1875 57.5625 43.546875 
Q 53.515625 38.921875 53.515625 30.90625 
L 53.515625 0 
L 44.484375 0 
L 44.484375 32.71875 
Q 44.484375 40.625 41.703125 44.40625 
Q 38.921875 48.1875 33.109375 48.1875 
Q 26.21875 48.1875 22.15625 43.53125 
Q 18.109375 38.875 18.109375 30.90625 
L 18.109375 0 
L 9.078125 0 
L 9.078125 54.6875 
L 18.109375 54.6875 
L 18.109375 46.1875 
Q 21.1875 51.21875 25.484375 53.609375 
Q 29.78125 56 35.6875 56 
Q 41.65625 56 45.828125 52.96875 
Q 50 49.953125 52 44.1875 
z
" id="DejaVuSans-109"/>
      <path d="M 56.203125 29.59375 
L 56.203125 25.203125 
L 14.890625 25.203125 
Q 15.484375 15.921875 20.484375 11.0625 
Q 25.484375 6.203125 34.421875 6.203125 
Q 39.59375 6.203125 44.453125 7.46875 
Q 49.3125 8.734375 54.109375 11.28125 
L 54.109375 2.78125 
Q 49.265625 0.734375 44.1875 -0.34375 
Q 39.109375 -1.421875 33.890625 -1.421875 
Q 20.796875 -1.421875 13.15625 6.1875 
Q 5.515625 13.8125 5.515625 26.8125 
Q 5.515625 40.234375 12.765625 48.109375 
Q 20.015625 56 32.328125 56 
Q 43.359375 56 49.78125 48.890625 
Q 56.203125 41.796875 56.203125 29.59375 
z
M 47.21875 32.234375 
Q 47.125 39.59375 43.09375 43.984375 
Q 39.0625 48.390625 32.421875 48.390625 
Q 24.90625 48.390625 20.390625 44.140625 
Q 15.875 39.890625 15.1875 32.171875 
z
" id="DejaVuSans-101"/>
      <path id="DejaVuSans-32"/>
      <path d="M 8.59375 75.984375 
L 29.296875 75.984375 
L 29.296875 69 
L 17.578125 69 
L 17.578125 -6.203125 
L 29.296875 -6.203125 
L 29.296875 -13.1875 
L 8.59375 -13.1875 
z
" id="DejaVuSans-91"/>
      <path d="M 44.28125 53.078125 
L 44.28125 44.578125 
Q 40.484375 46.53125 36.375 47.5 
Q 32.28125 48.484375 27.875 48.484375 
Q 21.1875 48.484375 17.84375 46.4375 
Q 14.5 44.390625 14.5 40.28125 
Q 14.5 37.15625 16.890625 35.375 
Q 19.28125 33.59375 26.515625 31.984375 
L 29.59375 31.296875 
Q 39.15625 29.25 43.1875 25.515625 
Q 47.21875 21.78125 47.21875 15.09375 
Q 47.21875 7.46875 41.1875 3.015625 
Q 35.15625 -1.421875 24.609375 -1.421875 
Q 20.21875 -1.421875 15.453125 -0.5625 
Q 10.6875 0.296875 5.421875 2 
L 5.421875 11.28125 
Q 10.40625 8.6875 15.234375 7.390625 
Q 20.0625 6.109375 24.8125 6.109375 
Q 31.15625 6.109375 34.5625 8.28125 
Q 37.984375 10.453125 37.984375 14.40625 
Q 37.984375 18.0625 35.515625 20.015625 
Q 33.0625 21.96875 24.703125 23.78125 
L 21.578125 24.515625 
Q 13.234375 26.265625 9.515625 29.90625 
Q 5.8125 33.546875 5.8125 39.890625 
Q 5.8125 47.609375 11.28125 51.796875 
Q 16.75 56 26.8125 56 
Q 31.78125 56 36.171875 55.265625 
Q 40.578125 54.546875 44.28125 53.078125 
z
" id="DejaVuSans-115"/>
      <path d="M 30.421875 75.984375 
L 30.421875 -13.1875 
L 9.71875 -13.1875 
L 9.71875 -6.203125 
L 21.390625 -6.203125 
L 21.390625 69 
L 9.71875 69 
L 9.71875 75.984375 
z
" id="DejaVuSans-93"/>
     </defs>
     <g transform="translate(1432.293437 1071.592572)scale(0.26 -0.26)">
      <use xlink:href="#DejaVuSans-84"/>
      <use x="61.037109" xlink:href="#DejaVuSans-105"/>
      <use x="88.820312" xlink:href="#DejaVuSans-109"/>
      <use x="186.232422" xlink:href="#DejaVuSans-101"/>
      <use x="247.755859" xlink:href="#DejaVuSans-32"/>
      <use x="279.542969" xlink:href="#DejaVuSans-91"/>
      <use x="318.556641" xlink:href="#DejaVuSans-115"/>
      <use x="370.65625" xlink:href="#DejaVuSans-93"/>
     </g>
    </g>
   </g>
   <g id="matplotlib.axis_2">
    <g id="ytick_1">
     <g id="line2d_7">
      <defs>
       <path d="M 0 0 
L -3.5 0 
" id="me032a04d73" style="stroke:#000000;stroke-width:0.8;"/>
      </defs>
      <g>
       <use style="stroke:#000000;stroke-width:0.8;" x="94.09774" xlink:href="#me032a04d73" y="920.247653"/>
      </g>
     </g>
     <g id="text_8">
      <!-- −140 -->
      <defs>
       <path d="M 10.59375 35.5 
L 73.1875 35.5 
L 73.1875 27.203125 
L 10.59375 27.203125 
z
" id="DejaVuSans-8722"/>
      </defs>
      <g transform="translate(32.163365 927.84609)scale(0.2 -0.2)">
       <use xlink:href="#DejaVuSans-8722"/>
       <use x="83.789062" xlink:href="#DejaVuSans-49"/>
       <use x="147.412109" xlink:href="#DejaVuSans-52"/>
       <use x="211.035156" xlink:href="#DejaVuSans-48"/>
      </g>
     </g>
    </g>
    <g id="ytick_2">
     <g id="line2d_8">
      <g>
       <use style="stroke:#000000;stroke-width:0.8;" x="94.09774" xlink:href="#me032a04d73" y="816.948946"/>
      </g>
     </g>
     <g id="text_9">
      <!-- −120 -->
      <g transform="translate(32.163365 824.547384)scale(0.2 -0.2)">
       <use xlink:href="#DejaVuSans-8722"/>
       <use x="83.789062" xlink:href="#DejaVuSans-49"/>
       <use x="147.412109" xlink:href="#DejaVuSans-50"/>
       <use x="211.035156" xlink:href="#DejaVuSans-48"/>
      </g>
     </g>
    </g>
    <g id="ytick_3">
     <g id="line2d_9">
      <g>
       <use style="stroke:#000000;stroke-width:0.8;" x="94.09774" xlink:href="#me032a04d73" y="713.65024"/>
      </g>
     </g>
     <g id="text_10">
      <!-- −100 -->
      <g transform="translate(32.163365 721.248678)scale(0.2 -0.2)">
       <use xlink:href="#DejaVuSans-8722"/>
       <use x="83.789062" xlink:href="#DejaVuSans-49"/>
       <use x="147.412109" xlink:href="#DejaVuSans-48"/>
       <use x="211.035156" xlink:href="#DejaVuSans-48"/>
      </g>
     </g>
    </g>
    <g id="ytick_4">
     <g id="line2d_10">
      <g>
       <use style="stroke:#000000;stroke-width:0.8;" x="94.09774" xlink:href="#me032a04d73" y="610.351534"/>
      </g>
     </g>
     <g id="text_11">
      <!-- −80 -->
      <g transform="translate(44.888365 617.949971)scale(0.2 -0.2)">
       <use xlink:href="#DejaVuSans-8722"/>
       <use x="83.789062" xlink:href="#DejaVuSans-56"/>
       <use x="147.412109" xlink:href="#DejaVuSans-48"/>
      </g>
     </g>
    </g>
    <g id="ytick_5">
     <g id="line2d_11">
      <g>
       <use style="stroke:#000000;stroke-width:0.8;" x="94.09774" xlink:href="#me032a04d73" y="507.052827"/>
      </g>
     </g>
     <g id="text_12">
      <!-- −60 -->
      <g transform="translate(44.888365 514.651265)scale(0.2 -0.2)">
       <use xlink:href="#DejaVuSans-8722"/>
       <use x="83.789062" xlink:href="#DejaVuSans-54"/>
       <use x="147.412109" xlink:href="#DejaVuSans-48"/>
      </g>
     </g>
    </g>
    <g id="ytick_6">
     <g id="line2d_12">
      <g>
       <use style="stroke:#000000;stroke-width:0.8;" x="94.09774" xlink:href="#me032a04d73" y="403.754121"/>
      </g>
     </g>
     <g id="text_13">
      <!-- −40 -->
      <g transform="translate(44.888365 411.352559)scale(0.2 -0.2)">
       <use xlink:href="#DejaVuSans-8722"/>
       <use x="83.789062" xlink:href="#DejaVuSans-52"/>
       <use x="147.412109" xlink:href="#DejaVuSans-48"/>
      </g>
     </g>
    </g>
    <g id="ytick_7">
     <g id="line2d_13">
      <g>
       <use style="stroke:#000000;stroke-width:0.8;" x="94.09774" xlink:href="#me032a04d73" y="300.455415"/>
      </g>
     </g>
     <g id="text_14">
      <!-- −20 -->
      <g transform="translate(44.888365 308.053852)scale(0.2 -0.2)">
       <use xlink:href="#DejaVuSans-8722"/>
       <use x="83.789062" xlink:href="#DejaVuSans-50"/>
       <use x="147.412109" xlink:href="#DejaVuSans-48"/>
      </g>
     </g>
    </g>
    <g id="ytick_8">
     <g id="line2d_14">
      <g>
       <use style="stroke:#000000;stroke-width:0.8;" x="94.09774" xlink:href="#me032a04d73" y="197.156708"/>
      </g>
     </g>
     <g id="text_15">
      <!-- 0 -->
      <g transform="translate(74.37274 204.755146)scale(0.2 -0.2)">
       <use xlink:href="#DejaVuSans-48"/>
      </g>
     </g>
    </g>
    <g id="text_16">
     <!-- Length [m] -->
     <defs>
      <path d="M 9.8125 72.90625 
L 19.671875 72.90625 
L 19.671875 8.296875 
L 55.171875 8.296875 
L 55.171875 0 
L 9.8125 0 
z
" id="DejaVuSans-76"/>
      <path d="M 54.890625 33.015625 
L 54.890625 0 
L 45.90625 0 
L 45.90625 32.71875 
Q 45.90625 40.484375 42.875 44.328125 
Q 39.84375 48.1875 33.796875 48.1875 
Q 26.515625 48.1875 22.3125 43.546875 
Q 18.109375 38.921875 18.109375 30.90625 
L 18.109375 0 
L 9.078125 0 
L 9.078125 54.6875 
L 18.109375 54.6875 
L 18.109375 46.1875 
Q 21.34375 51.125 25.703125 53.5625 
Q 30.078125 56 35.796875 56 
Q 45.21875 56 50.046875 50.171875 
Q 54.890625 44.34375 54.890625 33.015625 
z
" id="DejaVuSans-110"/>
      <path d="M 45.40625 27.984375 
Q 45.40625 37.75 41.375 43.109375 
Q 37.359375 48.484375 30.078125 48.484375 
Q 22.859375 48.484375 18.828125 43.109375 
Q 14.796875 37.75 14.796875 27.984375 
Q 14.796875 18.265625 18.828125 12.890625 
Q 22.859375 7.515625 30.078125 7.515625 
Q 37.359375 7.515625 41.375 12.890625 
Q 45.40625 18.265625 45.40625 27.984375 
z
M 54.390625 6.78125 
Q 54.390625 -7.171875 48.1875 -13.984375 
Q 42 -20.796875 29.203125 -20.796875 
Q 24.46875 -20.796875 20.265625 -20.09375 
Q 16.0625 -19.390625 12.109375 -17.921875 
L 12.109375 -9.1875 
Q 16.0625 -11.328125 19.921875 -12.34375 
Q 23.78125 -13.375 27.78125 -13.375 
Q 36.625 -13.375 41.015625 -8.765625 
Q 45.40625 -4.15625 45.40625 5.171875 
L 45.40625 9.625 
Q 42.625 4.78125 38.28125 2.390625 
Q 33.9375 0 27.875 0 
Q 17.828125 0 11.671875 7.65625 
Q 5.515625 15.328125 5.515625 27.984375 
Q 5.515625 40.671875 11.671875 48.328125 
Q 17.828125 56 27.875 56 
Q 33.9375 56 38.28125 53.609375 
Q 42.625 51.21875 45.40625 46.390625 
L 45.40625 54.6875 
L 54.390625 54.6875 
z
" id="DejaVuSans-103"/>
      <path d="M 18.3125 70.21875 
L 18.3125 54.6875 
L 36.8125 54.6875 
L 36.8125 47.703125 
L 18.3125 47.703125 
L 18.3125 18.015625 
Q 18.3125 11.328125 20.140625 9.421875 
Q 21.96875 7.515625 27.59375 7.515625 
L 36.8125 7.515625 
L 36.8125 0 
L 27.59375 0 
Q 17.1875 0 13.234375 3.875 
Q 9.28125 7.765625 9.28125 18.015625 
L 9.28125 47.703125 
L 2.6875 47.703125 
L 2.6875 54.6875 
L 9.28125 54.6875 
L 9.28125 70.21875 
z
" id="DejaVuSans-116"/>
      <path d="M 54.890625 33.015625 
L 54.890625 0 
L 45.90625 0 
L 45.90625 32.71875 
Q 45.90625 40.484375 42.875 44.328125 
Q 39.84375 48.1875 33.796875 48.1875 
Q 26.515625 48.1875 22.3125 43.546875 
Q 18.109375 38.921875 18.109375 30.90625 
L 18.109375 0 
L 9.078125 0 
L 9.078125 75.984375 
L 18.109375 75.984375 
L 18.109375 46.1875 
Q 21.34375 51.125 25.703125 53.5625 
Q 30.078125 56 35.796875 56 
Q 45.21875 56 50.046875 50.171875 
Q 54.890625 44.34375 54.890625 33.015625 
z
" id="DejaVuSans-104"/>
     </defs>
     <g transform="translate(22.756178 661.697574)rotate(-90)scale(0.26 -0.26)">
      <use xlink:href="#DejaVuSans-76"/>
      <use x="55.697266" xlink:href="#DejaVuSans-101"/>
      <use x="117.220703" xlink:href="#DejaVuSans-110"/>
      <use x="180.599609" xlink:href="#DejaVuSans-103"/>
      <use x="244.076172" xlink:href="#DejaVuSans-116"/>
      <use x="283.285156" xlink:href="#DejaVuSans-104"/>
      <use x="346.664062" xlink:href="#DejaVuSans-32"/>
      <use x="378.451172" xlink:href="#DejaVuSans-91"/>
      <use x="417.464844" xlink:href="#DejaVuSans-109"/>
      <use x="514.876953" xlink:href="#DejaVuSans-93"/>
     </g>
    </g>
   </g>
   <g id="line2d_15">
    <path clip-path="url(#p75ac047ef1)" d="M 220.593286 197.156708 
L 287.761481 197.156708 
L 288.450156 211.964952 
L 289.135246 587.713664 
L 289.817148 820.754737 
L 290.503188 824.570594 
L 291.188243 595.234242 
L 291.877963 215.339078 
L 292.56165 197.156708 
L 295.303885 197.156708 
L 295.986365 445.908199 
L 296.672843 740.814904 
L 297.380801 834.819591 
L 298.043923 692.394012 
L 298.780266 364.199217 
L 299.454032 197.156708 
L 302.15496 197.156708 
L 302.845007 296.954538 
L 303.525984 636.214085 
L 304.214795 809.137406 
L 304.897994 756.141114 
L 306.266695 197.156708 
L 309.695081 197.156708 
L 310.380458 512.617747 
L 311.067192 750.727859 
L 311.808683 784.708473 
L 312.440408 600.326327 
L 313.145355 263.772423 
L 313.806963 197.156708 
L 316.552476 197.156708 
L 317.238391 377.549631 
L 317.920222 665.349028 
L 318.605463 778.603699 
L 319.29633 676.306274 
L 319.975642 394.485325 
L 320.661386 197.156708 
L 323.403973 197.156708 
L 324.097173 239.781885 
L 324.802884 560.324585 
L 325.47208 740.441602 
L 326.1466 720.128153 
L 326.85923 504.935745 
L 327.516141 197.156708 
L 330.946422 197.156708 
L 332.316436 674.355489 
L 333.003402 731.000175 
L 333.687798 589.319114 
L 334.36985 299.850123 
L 335.055257 197.156708 
L 337.815619 197.156708 
L 338.484276 315.413723 
L 339.169974 586.833196 
L 339.893656 710.601329 
L 340.538394 644.270995 
L 341.912954 197.156708 
L 345.340223 197.156708 
L 346.024699 484.528001 
L 346.709196 662.65482 
L 347.396513 668.574619 
L 348.078184 498.82666 
L 348.764536 214.41831 
L 349.450345 197.156708 
L 352.192112 197.156708 
L 352.915004 372.996683 
L 353.562644 591.956278 
L 354.251645 663.241254 
L 354.964833 561.233525 
L 355.620221 322.094266 
L 356.303883 197.156708 
L 359.046399 197.156708 
L 359.732631 260.693677 
L 360.415981 505.878268 
L 361.103519 630.987434 
L 361.790842 595.388367 
L 363.161333 197.156708 
L 366.588386 197.156708 
L 367.294786 409.504874 
L 368.021228 576.00705 
L 368.643359 601.375 
L 369.328892 475.974724 
L 370.015983 244.676225 
L 370.698141 197.156708 
L 373.440336 197.156708 
L 374.126637 309.725689 
L 374.813668 504.287188 
L 375.495394 581.485562 
L 376.181283 515.724919 
L 376.86936 329.884536 
L 377.55096 197.156708 
L 380.299189 197.156708 
L 380.980729 214.018084 
L 381.705326 422.44354 
L 382.356847 539.663895 
L 383.040961 529.310496 
L 383.720027 394.506159 
L 384.409461 197.156708 
L 387.834699 197.156708 
L 389.205 480.736041 
L 389.891603 518.119578 
L 390.57533 435.419267 
L 391.263593 262.094451 
L 391.949372 197.156708 
L 394.688564 197.156708 
L 395.434325 252.101377 
L 396.058327 411.616967 
L 396.746398 485.663382 
L 397.430714 451.78728 
L 398.80301 197.156708 
L 402.230582 197.156708 
L 402.913087 338.295492 
L 403.600424 436.826643 
L 404.287707 444.716209 
L 404.974496 359.452208 
L 405.683173 211.486228 
L 406.345143 197.156708 
L 409.082224 197.156708 
L 409.777904 266.998506 
L 410.451021 378.06586 
L 411.139887 417.578315 
L 411.822729 374.035413 
L 412.509619 262.786687 
L 413.199707 197.156708 
L 415.935476 197.156708 
L 416.624146 205.150752 
L 417.307033 316.686964 
L 417.992264 375.362879 
L 418.678902 366.38208 
L 419.366391 292.989638 
L 420.055639 197.156708 
L 423.479419 197.156708 
L 424.848739 325.35873 
L 425.539626 339.841555 
L 426.218043 300.621864 
L 426.905813 220.744491 
L 427.590043 197.156708 
L 430.329719 197.156708 
L 431.020566 208.70898 
L 431.704489 274.68543 
L 432.386799 304.606053 
L 433.074206 291.393173 
L 434.442636 197.156708 
L 437.868523 197.156708 
L 439.243188 264.821381 
L 439.925648 268.285123 
L 440.617445 243.306385 
L 441.296295 199.130439 
L 441.984779 197.156708 
L 445.411521 197.156708 
L 446.095841 222.195717 
L 446.785119 233.713103 
L 447.467016 227.68051 
L 448.15462 208.349171 
L 448.83959 197.156708 
L 1561.282498 197.156708 
L 1561.96965 594.803104 
L 1562.655574 718.263429 
L 1563.338537 982.226877 
L 1564.028711 834.46098 
L 1564.711779 200.930234 
L 1565.398579 197.156708 
L 1567.453743 197.156708 
L 1568.140622 208.149043 
L 1568.824425 730.305806 
L 1569.511868 982.226877 
L 1571.564081 982.226877 
L 1572.252187 359.978761 
L 1572.976719 197.156708 
L 1577.052865 197.156708 
L 1577.737985 858.120591 
L 1578.421978 982.226877 
L 1579.789237 982.226877 
L 1580.475025 692.748844 
L 1581.16185 197.156708 
L 1585.274737 197.156708 
L 1586.685797 982.226877 
L 1588.079156 982.226877 
L 1588.709333 906.548649 
L 1589.384049 269.835675 
L 1590.083646 197.156708 
L 1593.498148 197.156708 
L 1594.185571 357.207429 
L 1594.87139 964.898282 
L 1595.553664 982.226877 
L 1596.925046 982.226877 
L 1597.610789 462.702356 
L 1598.296156 197.156708 
L 1602.411074 197.156708 
L 1603.094641 839.610968 
L 1603.781551 982.226877 
L 1605.153118 982.226877 
L 1606.52288 197.156708 
L 1610.637135 197.156708 
L 1611.319812 759.778358 
L 1612.006541 982.226877 
L 1613.37491 982.226877 
L 1614.801281 197.156708 
L 1618.859591 197.156708 
L 1619.547105 731.929171 
L 1620.230852 982.226877 
L 1621.602892 982.226877 
L 1622.28851 620.461679 
L 1622.973117 197.156708 
L 1627.121227 197.156708 
L 1627.781206 753.567309 
L 1628.454414 982.226877 
L 1629.824775 982.226877 
L 1631.201768 197.156708 
L 1634.622646 197.156708 
L 1635.309124 209.716822 
L 1635.995481 817.718996 
L 1636.679077 982.226877 
L 1637.368119 982.226877 
L 1638.050931 982.052197 
L 1638.73674 452.210998 
L 1639.421161 197.156708 
L 1642.848587 197.156708 
L 1643.536145 350.561987 
L 1644.218077 911.822172 
L 1644.906979 982.226877 
L 1645.592707 982.226877 
L 1646.275911 865.767588 
L 1646.963118 290.687925 
L 1647.646207 197.156708 
L 1651.073692 197.156708 
L 1651.762292 530.03687 
L 1652.447744 982.226877 
L 1653.815158 982.226877 
L 1654.502983 695.714503 
L 1655.233026 197.156708 
L 1659.304249 197.156708 
L 1659.986136 730.682327 
L 1660.670833 982.226877 
L 1661.356164 982.226877 
L 1662.040188 967.763677 
L 1662.725675 463.991625 
L 1663.414753 197.156708 
L 1666.83818 197.156708 
L 1667.523476 401.109114 
L 1668.213001 924.673179 
L 1668.895426 982.226877 
L 1669.581954 982.226877 
L 1670.334533 757.149404 
L 1670.952169 197.156708 
L 1675.064961 197.156708 
L 1675.750689 685.222012 
L 1676.435779 982.226877 
L 1677.121457 982.226877 
L 1677.809257 953.338926 
L 1678.494749 462.460236 
L 1679.179412 197.156708 
L 1682.601954 197.156708 
L 1683.290564 436.772913 
L 1683.993454 934.366409 
L 1684.664671 982.226877 
L 1685.34611 982.226877 
L 1686.037269 684.832804 
L 1686.721766 197.156708 
L 1690.144127 197.156708 
L 1690.83242 206.781443 
L 1691.519265 769.757809 
L 1692.200272 982.226877 
L 1692.889329 982.226877 
L 1693.569853 841.78651 
L 1694.258528 311.423982 
L 1694.941044 197.156708 
L 1698.366875 197.156708 
L 1699.743229 982.226877 
L 1700.424322 982.226877 
L 1701.111272 944.765992 
L 1701.799042 479.590513 
L 1702.480335 197.156708 
L 1705.909304 197.156708 
L 1706.594123 462.283394 
L 1707.280832 931.372053 
L 1707.967063 982.226877 
L 1708.650116 982.226877 
L 1709.381994 603.175196 
L 1710.021588 197.156708 
L 1713.446716 197.156708 
L 1714.137005 343.587558 
L 1714.818605 850.055569 
L 1715.5046 982.226877 
L 1716.193758 982.226877 
L 1716.875418 688.756559 
L 1717.561006 197.156708 
L 1720.98645 197.156708 
L 1721.679565 254.339645 
L 1722.360039 782.393612 
L 1723.04891 982.226877 
L 1723.728625 982.226877 
L 1724.420528 743.039744 
L 1725.168204 205.845297 
L 1725.787751 197.156708 
L 1729.216076 197.156708 
L 1729.900759 733.590476 
L 1730.584808 982.226877 
L 1731.269631 982.226877 
L 1731.957713 771.80165 
L 1732.64056 251.875743 
L 1733.324941 197.156708 
L 1736.752633 197.156708 
L 1737.43721 705.573996 
L 1738.169359 982.226877 
L 1738.823661 982.226877 
L 1739.501017 779.282781 
L 1740.181586 269.479106 
L 1740.867933 197.156708 
L 1744.294117 197.156708 
L 1744.976964 699.416993 
L 1745.663261 982.226877 
L 1746.348969 982.226877 
L 1747.035064 767.130384 
L 1747.722558 259.695313 
L 1748.405958 197.156708 
L 1751.832624 197.156708 
L 1752.553128 713.776797 
L 1753.21094 982.226877 
L 1753.888884 982.226877 
L 1754.577117 736.287938 
L 1755.260225 224.279264 
L 1755.944807 197.156708 
L 1758.687032 197.156708 
L 1759.370518 239.204574 
L 1760.058203 745.83271 
L 1760.743674 982.226877 
L 1761.427728 982.226877 
L 1762.113301 686.563531 
L 1762.798356 197.156708 
L 1766.225379 197.156708 
L 1766.915381 311.22557 
L 1767.602095 791.657579 
L 1768.288135 982.226877 
L 1768.966548 965.488869 
L 1769.654086 616.46451 
L 1770.338377 197.156708 
L 1773.768668 197.156708 
L 1774.452249 402.277968 
L 1775.138224 846.165926 
L 1775.825974 982.226877 
L 1776.50945 914.098329 
L 1777.190442 524.066362 
L 1777.897691 197.156708 
L 1781.308156 197.156708 
L 1781.991219 508.010933 
L 1782.675822 902.532164 
L 1783.360353 982.226877 
L 1784.049265 842.215252 
L 1784.734701 408.346251 
L 1785.416995 197.156708 
L 1788.846251 197.156708 
L 1789.530039 621.616851 
L 1790.218789 952.301334 
L 1790.902712 982.226877 
L 1791.590779 744.792518 
L 1792.271866 268.809131 
L 1792.959249 197.156708 
L 1795.699055 197.156708 
L 1796.383516 257.470961 
L 1797.070331 735.584114 
L 1797.757573 982.226877 
L 1798.441084 944.372579 
L 1799.126561 618.715395 
L 1799.811188 197.156708 
L 1803.237145 197.156708 
L 1803.92663 422.583584 
L 1804.609723 839.146475 
L 1805.321041 982.226877 
L 1805.982518 859.699903 
L 1806.672299 462.290089 
L 1807.369849 197.156708 
L 1810.780671 197.156708 
L 1812.148452 920.887779 
L 1812.837328 974.52981 
L 1813.519356 736.806659 
L 1814.207463 277.057897 
L 1814.891074 197.156708 
L 1817.6353 197.156708 
L 1818.341961 280.790358 
L 1819.02687 738.211316 
L 1819.687935 968.251653 
L 1820.398508 907.921072 
L 1821.122637 574.348332 
L 1821.754211 197.156708 
L 1825.174793 197.156708 
L 1825.858319 484.755921 
L 1826.543495 859.776926 
L 1827.23053 971.425341 
L 1827.914806 792.984678 
L 1828.604129 375.539284 
L 1829.285845 197.156708 
L 1832.027014 197.156708 
L 1832.720541 199.073432 
L 1833.401684 670.493117 
L 1834.120398 936.328863 
L 1834.772165 920.067362 
L 1835.455535 627.857806 
L 1836.142933 197.156708 
L 1839.570887 197.156708 
L 1840.253829 431.397785 
L 1840.936888 820.048704 
L 1841.625035 956.940634 
L 1842.307012 808.443241 
L 1842.996592 416.586916 
L 1843.684433 197.156708 
L 1847.170336 197.156708 
L 1847.792628 642.107541 
L 1848.477547 914.671967 
L 1849.166966 911.05686 
L 1849.849547 634.872122 
L 1850.532922 197.156708 
L 1853.961781 197.156708 
L 1854.64679 428.342527 
L 1855.333811 808.263415 
L 1856.021817 940.108706 
L 1856.703603 791.96091 
L 1857.387748 405.789982 
L 1858.076835 197.156708 
L 1860.817149 197.156708 
L 1861.504477 201.944226 
L 1862.228249 654.212023 
L 1862.876401 906.378758 
L 1863.554829 885.674171 
L 1864.242714 600.095461 
L 1864.929916 197.156708 
L 1868.355501 197.156708 
L 1869.044548 472.319019 
L 1869.725766 822.242804 
L 1870.411057 920.518104 
L 1871.097147 745.190745 
L 1871.784691 346.375102 
L 1872.467458 197.156708 
L 1875.25727 197.156708 
L 1875.90671 279.477629 
L 1876.585916 699.847452 
L 1877.271786 905.332958 
L 1877.955915 840.032636 
L 1879.322821 197.156708 
L 1882.751579 197.156708 
L 1883.436025 554.240312 
L 1884.12023 850.7375 
L 1884.804541 888.550376 
L 1885.493895 662.33862 
L 1886.175304 238.49426 
L 1886.861465 197.156708 
L 1889.640818 197.156708 
L 1890.288528 398.543131 
L 1890.974975 765.476272 
L 1891.660628 897.684125 
L 1892.346493 763.098395 
L 1893.028621 400.173852 
L 1893.717648 197.156708 
L 1896.458631 197.156708 
L 1897.140895 242.901979 
L 1897.826769 659.912895 
L 1898.513186 875.089866 
L 1899.197547 828.17631 
L 1900.571397 197.156708 
L 1903.998556 197.156708 
L 1904.687563 543.542947 
L 1905.367217 828.599134 
L 1906.057476 862.040595 
L 1906.737663 640.029381 
L 1907.423693 227.76493 
L 1908.109573 197.156708 
L 1910.851325 197.156708 
L 1911.538024 424.374195 
L 1912.222234 764.394574 
L 1912.907867 870.29105 
L 1913.597597 718.468513 
L 1914.27687 352.40066 
L 1914.963186 197.156708 
L 1917.708333 197.156708 
L 1918.393684 309.071674 
L 1919.077135 689.717601 
L 1919.760706 859.00294 
L 1920.449054 772.809677 
L 1921.131419 456.593781 
L 1921.820888 197.156708 
L 1924.55821 197.156708 
L 1925.245085 201.367524 
L 1925.932669 610.280768 
L 1926.620132 833.81708 
L 1927.302663 806.746235 
L 1927.985455 540.687586 
L 1928.693886 197.156708 
L 1932.098593 197.156708 
L 1932.784005 531.366501 
L 1933.483174 798.986593 
L 1934.155301 824.11151 
L 1934.839244 605.978454 
L 1935.527281 208.80668 
L 1936.210726 197.156708 
L 1938.956451 197.156708 
L 1939.640007 456.336631 
L 1940.325097 758.455769 
L 1941.029043 829.266011 
L 1941.696187 655.437614 
L 1942.381473 287.392567 
L 1943.066442 197.156708 
L 1945.807404 197.156708 
L 1946.496758 387.918507 
L 1947.179827 716.006797 
L 1947.862669 825.126394 
L 1948.549971 690.755973 
L 1949.238078 351.67094 
L 1949.921182 197.156708 
L 1952.661682 197.156708 
L 1953.351272 327.420026 
L 1954.038087 674.348542 
L 1954.727898 815.168331 
L 1955.417654 714.649486 
L 1956.090254 402.664473 
L 1956.775293 197.156708 
L 1959.52062 197.156708 
L 1960.205147 275.990389 
L 1960.8854 635.726402 
L 1961.576931 801.785709 
L 1962.258466 729.309417 
L 1963.627504 197.156708 
L 1966.369397 197.156708 
L 1967.057378 234.025856 
L 1967.740753 601.564555 
L 1968.433099 786.754256 
L 1969.125314 736.73046 
L 1970.483184 197.156708 
L 1973.222719 197.156708 
L 1973.910388 201.710899 
L 1974.59486 572.992188 
L 1975.280256 771.450407 
L 1975.967508 738.453278 
L 1976.656329 488.744076 
L 1977.336773 197.156708 
L 1980.765329 197.156708 
L 1981.452898 550.058227 
L 1982.136178 756.858875 
L 1982.822922 736.200742 
L 1983.506212 499.967049 
L 1984.193212 197.156708 
L 1987.618848 197.156708 
L 1988.30886 532.712089 
L 1988.99394 743.406303 
L 1989.673549 730.197485 
L 1990.362304 503.676345 
L 1991.046715 197.156708 
L 1994.475332 197.156708 
L 1995.156676 520.817999 
L 1995.84251 731.4523 
L 1996.528284 721.678065 
L 1997.216099 501.506055 
L 1997.900329 197.156708 
L 2001.32605 197.156708 
L 2002.015323 513.502967 
L 2002.700317 720.810456 
L 2003.386011 710.986841 
L 2004.067666 494.224283 
L 2004.755049 197.156708 
L 2008.180895 197.156708 
L 2008.866805 509.722174 
L 2009.552327 711.070568 
L 2010.2389 698.461834 
L 2010.922748 482.829863 
L 2011.614033 197.156708 
L 2015.03373 197.156708 
L 2015.722314 507.319891 
L 2016.405187 701.352921 
L 2017.095868 684.397564 
L 2017.776528 469.12707 
L 2018.461949 197.156708 
L 2021.892643 197.156708 
L 2022.578095 505.175153 
L 2023.261646 691.186084 
L 2023.946837 669.72692 
L 2024.629875 454.570085 
L 2025.319128 197.156708 
L 2028.743486 197.156708 
L 2029.429003 503.507828 
L 2030.115994 680.657161 
L 2030.804272 653.781184 
L 2032.169836 197.156708 
L 2035.598126 197.156708 
L 2036.289119 501.871514 
L 2036.968904 669.562813 
L 2037.65693 636.969015 
L 2039.026164 197.156708 
L 2042.455289 197.156708 
L 2043.140153 500.587736 
L 2043.832006 657.881911 
L 2044.508346 618.882392 
L 2045.87918 197.156708 
L 2048.621395 197.156708 
L 2049.308697 205.044398 
L 2049.993128 499.289197 
L 2050.67682 645.50962 
L 2051.364922 599.502153 
L 2052.734443 197.156708 
L 2055.481273 197.156708 
L 2056.16128 216.129755 
L 2056.847923 497.952382 
L 2057.535286 632.224418 
L 2058.217942 578.825134 
L 2058.905244 360.774988 
L 2059.586392 197.156708 
L 2062.331734 197.156708 
L 2063.021033 227.882947 
L 2063.699576 496.415879 
L 2064.397553 617.959246 
L 2065.072556 556.793194 
L 2065.784613 337.898485 
L 2066.442686 197.156708 
L 2069.18924 197.156708 
L 2069.874073 239.909056 
L 2070.557826 494.390884 
L 2071.239501 602.611204 
L 2071.926447 533.196842 
L 2072.611008 313.666071 
L 2073.296737 197.156708 
L 2076.040847 197.156708 
L 2076.723473 252.807069 
L 2077.407744 492.007981 
L 2078.094729 585.825522 
L 2078.782534 507.727622 
L 2079.48737 287.598833 
L 2080.154197 197.156708 
L 2082.892887 197.156708 
L 2083.579737 265.961857 
L 2084.265018 488.831675 
L 2084.951601 567.52256 
L 2085.635519 480.476324 
L 2086.320383 260.150255 
L 2087.003884 197.156708 
L 2089.748497 197.156708 
L 2090.432516 279.093164 
L 2091.117626 484.500792 
L 2091.803767 547.353285 
L 2092.51165 451.288777 
L 2093.174982 231.215674 
L 2093.860947 197.156708 
L 2096.603725 197.156708 
L 2097.286793 292.020166 
L 2097.972934 478.735987 
L 2098.660332 525.100467 
L 2099.345849 420.116795 
L 2100.0303 200.908935 
L 2100.71619 197.156708 
L 2103.456368 197.156708 
L 2104.142831 304.239534 
L 2104.82602 471.087857 
L 2105.530705 500.535579 
L 2106.198211 387.121505 
L 2106.883004 197.156708 
L 2110.310268 197.156708 
L 2110.998194 315.441509 
L 2111.685637 461.192673 
L 2112.364618 473.285141 
L 2113.056129 351.84071 
L 2113.742581 197.156708 
L 2117.164702 197.156708 
L 2118.535148 448.838668 
L 2119.220308 443.299363 
L 2120.59267 197.156708 
L 2124.020201 197.156708 
L 2124.704531 334.940542 
L 2125.388404 435.283537 
L 2126.076788 412.205517 
L 2126.762214 276.300874 
L 2127.446274 197.156708 
L 2130.872024 197.156708 
L 2131.559171 342.685729 
L 2132.244291 419.379906 
L 2132.960601 378.941442 
L 2133.614134 236.712609 
L 2134.346142 197.156708 
L 2137.043465 197.156708 
L 2137.729832 198.161838 
L 2138.413825 347.476897 
L 2139.100162 399.873406 
L 2139.785564 342.550304 
L 2140.471539 197.156708 
L 2143.8964 197.156708 
L 2144.58161 223.412622 
L 2145.265654 347.706081 
L 2145.951729 375.556104 
L 2146.637433 302.382128 
L 2147.326751 197.156708 
L 2150.749998 197.156708 
L 2151.438291 244.173737 
L 2152.122974 341.869394 
L 2152.809134 345.933003 
L 2153.493017 259.123505 
L 2154.178721 197.156708 
L 2157.605372 197.156708 
L 2158.978478 329.120361 
L 2159.659067 310.867554 
L 2160.350523 213.346344 
L 2161.032837 197.156708 
L 2164.461932 197.156708 
L 2165.144181 267.16789 
L 2165.829904 308.891852 
L 2166.515452 270.722018 
L 2167.201336 197.156708 
L 2171.311905 197.156708 
L 2171.997634 266.268237 
L 2172.683111 280.912962 
L 2173.366013 225.935415 
L 2174.071568 197.156708 
L 2177.500869 197.156708 
L 2178.165836 200.828935 
L 2178.854651 254.999846 
L 2179.543115 245.209787 
L 2180.227853 197.156708 
L 2184.335174 197.156708 
L 2185.020581 208.006522 
L 2185.706224 232.626628 
L 2186.391887 202.886705 
L 2187.077514 197.156708 
L 2191.192654 197.156708 
L 2191.88313 201.123553 
L 2192.564091 200.243694 
L 2193.247854 197.156708 
L 2750.504214 197.156708 
L 2750.504214 197.156708 
" style="fill:none;stroke:#008000;stroke-linecap:square;stroke-width:3;"/>
   </g>
   <g id="line2d_16">
    <path clip-path="url(#p75ac047ef1)" d="M 220.593286 198.6566 
L 221.962742 198.309271 
L 223.331931 198.175677 
L 235.668069 198.691215 
L 285.068025 198.28742 
L 285.707594 314.693495 
L 286.392387 378.62449 
L 287.076904 654.90482 
L 287.761481 548.97039 
L 288.450156 197.156708 
L 291.877963 197.156708 
L 292.56165 565.272288 
L 293.249028 820.152171 
L 293.932172 864.851552 
L 294.61598 687.18951 
L 295.303885 342.815269 
L 295.986365 197.156708 
L 298.780266 197.156708 
L 299.454032 421.533623 
L 300.09969 732.070678 
L 300.785283 856.823666 
L 301.470554 763.388281 
L 302.845007 197.156708 
L 305.582305 197.156708 
L 306.266695 273.96658 
L 306.955954 620.312913 
L 307.639998 816.482129 
L 308.325123 806.327099 
L 309.009126 592.421047 
L 309.695081 244.056985 
L 310.380458 197.156708 
L 313.145355 197.156708 
L 313.806963 492.31127 
L 314.494713 748.616114 
L 315.179284 816.095514 
L 315.866366 678.919929 
L 316.552476 378.737112 
L 317.238391 197.156708 
L 319.975642 197.156708 
L 320.661386 356.648692 
L 321.348241 656.193467 
L 322.036242 794.314389 
L 322.72284 735.234621 
L 323.403973 495.515412 
L 324.097173 197.156708 
L 326.85923 197.156708 
L 327.516141 221.527794 
L 328.206314 545.021246 
L 328.890509 744.903023 
L 329.573346 760.342279 
L 330.25901 588.852629 
L 330.946422 285.078537 
L 331.631221 197.156708 
L 334.36985 197.156708 
L 335.742574 671.405344 
L 336.425939 754.746866 
L 337.115012 654.853003 
L 338.484276 197.156708 
L 341.229694 197.156708 
L 341.912954 298.854688 
L 342.596198 577.82757 
L 343.286019 721.874994 
L 343.965282 691.757327 
L 344.655048 497.146472 
L 345.340223 202.014592 
L 346.024699 197.156708 
L 348.764536 197.156708 
L 349.450345 471.397647 
L 350.13736 665.853926 
L 350.829827 699.717908 
L 351.50661 569.096091 
L 352.192112 313.882718 
L 352.915004 197.156708 
L 355.620221 197.156708 
L 356.303883 359.36683 
L 356.993895 589.228766 
L 357.675043 681.050023 
L 358.36141 614.395222 
L 359.732631 197.156708 
L 362.474056 197.156708 
L 363.161333 249.909132 
L 363.843798 498.150427 
L 364.530155 639.866363 
L 365.217206 632.323085 
L 365.899349 482.745489 
L 366.588386 238.54369 
L 367.294786 197.156708 
L 370.015983 197.156708 
L 371.386876 578.903378 
L 372.071222 624.864283 
L 372.753235 532.512672 
L 373.440336 329.406613 
L 374.126637 197.156708 
L 376.86936 197.156708 
L 377.55096 301.537412 
L 378.238876 502.521435 
L 378.941298 595.415493 
L 379.60985 557.040675 
L 380.299189 401.728924 
L 380.980729 197.156708 
L 383.720027 197.156708 
L 384.409461 210.423704 
L 385.095547 417.542539 
L 385.780566 547.57878 
L 386.464424 557.033851 
L 387.150359 451.769312 
L 387.834699 263.887492 
L 388.518784 197.156708 
L 391.263593 197.156708 
L 392.635256 484.247503 
L 393.317012 536.020601 
L 394.062934 478.01345 
L 394.688564 330.493178 
L 395.434325 197.156708 
L 398.118564 197.156708 
L 398.80301 251.078025 
L 399.485053 411.908992 
L 400.171496 497.663849 
L 400.856575 481.459499 
L 401.541791 376.624789 
L 402.230582 215.98054 
L 402.913087 197.156708 
L 405.683173 197.156708 
L 406.345143 337.796089 
L 407.031762 444.683809 
L 407.710808 465.51256 
L 408.396048 400.590199 
L 409.082224 273.855533 
L 409.777904 197.156708 
L 412.509619 197.156708 
L 413.199707 269.173587 
L 413.883429 383.10247 
L 414.564818 432.502983 
L 415.252865 403.677055 
L 415.935476 312.360764 
L 416.624146 197.156708 
L 419.366391 197.156708 
L 420.055639 212.665322 
L 420.758313 320.336677 
L 421.422988 386.396084 
L 422.108198 388.609036 
L 422.793424 330.81662 
L 423.479419 235.388625 
L 424.160582 197.156708 
L 426.905813 197.156708 
L 428.275183 333.250997 
L 428.958121 356.315659 
L 429.644589 330.059669 
L 431.020566 197.156708 
L 433.757184 197.156708 
L 434.442636 221.710121 
L 435.134967 283.605486 
L 435.863003 317.018543 
L 436.498494 312.995007 
L 437.188502 276.757125 
L 437.868523 220.936077 
L 438.557148 197.156708 
L 441.296295 197.156708 
L 441.984779 242.015953 
L 442.667224 275.084385 
L 443.355778 283.411037 
L 444.040124 269.224463 
L 444.725395 238.353389 
L 445.411521 201.697335 
L 446.095841 197.156708 
L 448.15462 197.156708 
L 448.83959 211.444506 
L 449.522115 233.875999 
L 450.229601 245.320536 
L 450.8923 244.844833 
L 451.582845 236.504495 
L 452.954317 209.785308 
L 453.641981 200.952058 
L 454.318221 199.033912 
L 455.00841 199.561403 
L 455.693746 201.241883 
L 457.06117 205.479679 
L 457.750343 206.51486 
L 459.116832 206.787326 
L 469.398273 207.890607 
L 479.000815 208.738889 
L 491.351434 209.620663 
L 500.932243 210.174146 
L 516.021562 210.859544 
L 533.143764 211.429634 
L 555.077671 211.933149 
L 582.493911 212.318672 
L 619.508659 212.604517 
L 675.029974 212.781907 
L 783.325075 212.862839 
L 808.000538 212.866498 
L 1557.172648 212.872988 
L 1557.855581 447.443161 
L 1558.562866 560.075953 
L 1559.227536 897.389863 
L 1559.912947 982.226877 
L 1560.670861 873.621426 
L 1561.282498 262.708792 
L 1561.96965 197.156708 
L 1564.711779 197.156708 
L 1565.398579 746.737076 
L 1566.081356 966.553141 
L 1566.76735 982.226877 
L 1567.453743 904.829877 
L 1568.140622 197.156708 
L 1572.252187 197.156708 
L 1572.976719 843.736116 
L 1573.622684 982.226877 
L 1576.367825 982.226877 
L 1577.052865 210.108707 
L 1577.737985 197.156708 
L 1580.475025 197.156708 
L 1581.16185 434.50632 
L 1581.852094 982.226877 
L 1584.589205 982.226877 
L 1585.987865 197.156708 
L 1589.384049 197.156708 
L 1590.083646 915.425584 
L 1590.759378 982.226877 
L 1592.814084 982.226877 
L 1593.498148 818.153028 
L 1594.185571 197.156708 
L 1597.610789 197.156708 
L 1598.296156 696.842995 
L 1598.982427 982.226877 
L 1601.040573 982.226877 
L 1601.775347 970.657515 
L 1602.411074 197.331586 
L 1603.094641 197.156708 
L 1605.839636 197.156708 
L 1606.52288 548.0412 
L 1607.21419 982.226877 
L 1609.950019 982.226877 
L 1610.637135 301.652825 
L 1611.319812 197.156708 
L 1614.060317 197.156708 
L 1614.801281 474.305272 
L 1615.433624 982.226877 
L 1618.173551 982.226877 
L 1618.859591 329.439016 
L 1619.547105 197.156708 
L 1622.28851 197.156708 
L 1622.973117 473.371488 
L 1623.657156 982.226877 
L 1626.399346 982.226877 
L 1627.121227 288.108219 
L 1627.781206 197.156708 
L 1630.51893 197.156708 
L 1631.201768 537.875444 
L 1631.882397 982.226877 
L 1633.941669 982.226877 
L 1634.622646 922.846562 
L 1635.309124 197.156708 
L 1638.73674 197.156708 
L 1639.421161 661.30467 
L 1640.106442 982.226877 
L 1642.176475 982.226877 
L 1642.848587 770.462099 
L 1643.536145 197.156708 
L 1646.963118 197.156708 
L 1647.646207 830.318641 
L 1648.333635 982.226877 
L 1650.389226 982.226877 
L 1651.073692 555.583687 
L 1651.762292 197.156708 
L 1654.502983 197.156708 
L 1655.233026 333.660627 
L 1655.873434 982.226877 
L 1657.92799 982.226877 
L 1658.62201 980.197031 
L 1659.304249 280.701078 
L 1659.986136 197.156708 
L 1662.725675 197.156708 
L 1664.099626 982.226877 
L 1666.151808 982.226877 
L 1666.83818 691.217182 
L 1667.523476 197.156708 
L 1670.334533 197.156708 
L 1670.952169 226.609035 
L 1671.64022 925.754771 
L 1672.326492 982.226877 
L 1674.381067 982.226877 
L 1675.064961 326.958487 
L 1675.750689 197.156708 
L 1678.494749 197.156708 
L 1679.863119 982.226877 
L 1681.918961 982.226877 
L 1682.601954 635.720275 
L 1683.290564 197.156708 
L 1686.037269 197.156708 
L 1686.721766 313.624026 
L 1687.403854 981.665201 
L 1688.090025 982.226877 
L 1689.458374 982.226877 
L 1690.144127 874.296515 
L 1690.83242 197.156708 
L 1694.258528 197.156708 
L 1694.941044 764.431008 
L 1695.664409 982.226877 
L 1697.684702 982.226877 
L 1698.366875 409.151563 
L 1699.054745 197.156708 
L 1701.799042 197.156708 
L 1703.170946 982.226877 
L 1705.225014 982.226877 
L 1706.594123 197.156708 
L 1709.381994 197.156708 
L 1710.021588 402.058573 
L 1710.707543 982.226877 
L 1712.7677 982.226877 
L 1713.446716 713.574374 
L 1714.137005 197.156708 
L 1716.875418 197.156708 
L 1717.561006 275.639899 
L 1718.249118 925.875073 
L 1718.93102 982.226877 
L 1720.304784 982.226877 
L 1720.98645 801.649887 
L 1721.679565 197.156708 
L 1725.168204 197.156708 
L 1725.787751 846.792256 
L 1726.470829 982.226877 
L 1727.84291 982.226877 
L 1728.527718 854.526178 
L 1729.216076 199.226268 
L 1729.900759 197.156708 
L 1732.64056 197.156708 
L 1733.324941 794.89297 
L 1734.013224 982.226877 
L 1735.381467 982.226877 
L 1736.067316 877.572179 
L 1736.752633 233.61225 
L 1737.43721 197.156708 
L 1740.181586 197.156708 
L 1740.867933 770.897008 
L 1741.551585 982.226877 
L 1742.924983 982.226877 
L 1743.606794 873.142767 
L 1744.294117 235.178588 
L 1744.976964 197.156708 
L 1747.722558 197.156708 
L 1748.405958 775.120348 
L 1749.091485 982.226877 
L 1750.494248 982.226877 
L 1751.195509 843.139661 
L 1751.832624 206.077161 
L 1752.553128 197.156708 
L 1755.260225 197.156708 
L 1755.944807 805.242252 
L 1756.632552 982.226877 
L 1758.000695 982.226877 
L 1758.687032 788.268559 
L 1759.370518 197.156708 
L 1762.113301 197.156708 
L 1762.798356 234.227849 
L 1763.485331 857.526767 
L 1764.16854 982.226877 
L 1765.550552 982.226877 
L 1766.225379 707.489455 
L 1766.915381 197.156708 
L 1769.654086 197.156708 
L 1770.338377 328.380806 
L 1771.028771 927.187941 
L 1771.710598 982.226877 
L 1773.082387 982.226877 
L 1774.452249 197.156708 
L 1777.190442 197.156708 
L 1777.897691 446.387941 
L 1778.565252 982.226877 
L 1780.622966 982.226877 
L 1781.308156 465.628867 
L 1781.991219 197.156708 
L 1784.734701 197.156708 
L 1786.104031 982.226877 
L 1787.474719 982.226877 
L 1788.158476 899.126643 
L 1788.846251 306.884519 
L 1789.530039 197.156708 
L 1792.271866 197.156708 
L 1792.959249 732.79997 
L 1793.662647 982.226877 
L 1795.013181 982.226877 
L 1795.699055 743.257011 
L 1796.383516 197.156708 
L 1799.126561 197.156708 
L 1799.811188 299.453732 
L 1800.49744 883.875414 
L 1801.186778 982.226877 
L 1802.554383 982.226877 
L 1803.237145 554.160297 
L 1803.92663 197.156708 
L 1806.672299 197.156708 
L 1807.369849 501.395435 
L 1808.04442 982.226877 
L 1809.409546 982.226877 
L 1810.096029 906.778131 
L 1810.780671 336.165201 
L 1811.467063 197.156708 
L 1814.207463 197.156708 
L 1814.891074 708.440546 
L 1815.576023 982.226877 
L 1816.948189 982.226877 
L 1817.6353 703.410569 
L 1818.341961 197.156708 
L 1821.122637 197.156708 
L 1821.754211 342.695537 
L 1822.431734 901.805035 
L 1823.115707 982.226877 
L 1824.488698 982.226877 
L 1825.174793 460.760942 
L 1825.858319 197.156708 
L 1828.604129 197.156708 
L 1829.976184 982.226877 
L 1831.340924 982.226877 
L 1832.027014 776.887533 
L 1832.720541 197.156708 
L 1835.455535 197.156708 
L 1836.142933 253.447727 
L 1836.828873 821.271916 
L 1837.51347 982.226877 
L 1838.882755 982.226877 
L 1839.570887 515.979458 
L 1840.253829 197.156708 
L 1842.996592 197.156708 
L 1843.684433 529.087972 
L 1844.364977 982.226877 
L 1845.735971 982.226877 
L 1846.447158 791.836252 
L 1847.170336 224.445794 
L 1847.792628 197.156708 
L 1849.849547 197.156708 
L 1850.532922 229.368948 
L 1851.217459 790.925107 
L 1851.903876 982.226877 
L 1853.274026 982.226877 
L 1853.961781 508.322815 
L 1854.64679 197.156708 
L 1857.387748 197.156708 
L 1858.076835 530.574117 
L 1858.757726 982.226877 
L 1860.129847 982.226877 
L 1860.817149 753.380638 
L 1861.504477 197.156708 
L 1864.242714 197.156708 
L 1864.929916 267.048942 
L 1865.612366 811.250647 
L 1866.299573 982.226877 
L 1866.988504 982.226877 
L 1867.667952 942.751352 
L 1868.355501 441.443423 
L 1869.044548 197.156708 
L 1871.784691 197.156708 
L 1873.155504 982.226877 
L 1874.525086 982.226877 
L 1875.25727 662.644074 
L 1875.90671 197.156708 
L 1878.636776 197.156708 
L 1879.322821 361.860863 
L 1880.010953 874.114131 
L 1880.691834 982.226877 
L 1881.380283 982.226877 
L 1882.064745 842.186678 
L 1882.751579 318.711499 
L 1883.436025 197.156708 
L 1886.175304 197.156708 
L 1886.861465 694.857433 
L 1887.547998 982.226877 
L 1888.231463 982.226877 
L 1888.918278 975.686174 
L 1889.640818 515.611234 
L 1890.288528 197.156708 
L 1893.028621 197.156708 
L 1893.717648 508.014593 
L 1894.405247 964.586405 
L 1895.086324 982.226877 
L 1895.776714 982.226877 
L 1896.458631 684.946282 
L 1897.140895 197.156708 
L 1899.888666 197.156708 
L 1900.571397 327.047786 
L 1901.255315 831.445253 
L 1901.939973 982.226877 
L 1902.625369 982.226877 
L 1903.382112 822.283567 
L 1903.998556 313.692185 
L 1904.687563 197.156708 
L 1907.423693 197.156708 
L 1908.109573 689.206624 
L 1908.796498 982.226877 
L 1909.479094 982.226877 
L 1910.169544 927.119042 
L 1910.851325 465.92122 
L 1911.538024 197.156708 
L 1914.27687 197.156708 
L 1914.963186 546.921454 
L 1915.648216 971.547139 
L 1916.350849 982.226877 
L 1917.034868 982.226877 
L 1918.393684 197.156708 
L 1921.131419 197.156708 
L 1921.820888 412.041143 
L 1922.504037 877.283875 
L 1923.190701 982.226877 
L 1923.874342 982.226877 
L 1924.55821 705.160317 
L 1925.245085 197.156708 
L 1927.985455 197.156708 
L 1928.693886 289.910943 
L 1929.392346 779.835155 
L 1930.044204 982.226877 
L 1930.728941 982.226877 
L 1931.415711 791.680296 
L 1932.098593 302.927139 
L 1932.784005 197.156708 
L 1935.527281 197.156708 
L 1936.210726 685.278573 
L 1936.902212 982.226877 
L 1937.586834 982.226877 
L 1938.268258 858.251762 
L 1938.956451 398.933284 
L 1939.640007 197.156708 
L 1942.381473 197.156708 
L 1943.775029 975.79533 
L 1944.439261 982.226877 
L 1945.121777 907.202418 
L 1945.807404 479.437102 
L 1946.496758 197.156708 
L 1949.238078 197.156708 
L 1949.921182 516.54567 
L 1950.608132 922.752458 
L 1951.298114 982.226877 
L 1951.975174 941.760821 
L 1953.351272 197.156708 
L 1956.090254 197.156708 
L 1956.775293 447.618399 
L 1957.51865 871.948992 
L 1958.147419 982.226877 
L 1958.831458 964.354271 
L 1960.205147 197.156708 
L 1962.943364 197.156708 
L 1963.627504 390.153781 
L 1964.319583 825.708487 
L 1965.005045 982.226877 
L 1965.689159 977.472874 
L 1966.369397 635.728161 
L 1967.057378 197.156708 
L 1969.830517 197.156708 
L 1970.483184 344.518764 
L 1971.168541 785.839854 
L 1971.914804 982.226877 
L 1972.544427 982.226877 
L 1973.222719 662.736942 
L 1973.910388 197.156708 
L 1976.656329 197.156708 
L 1977.336773 310.557995 
L 1978.023869 753.3946 
L 1978.706998 982.226877 
L 1979.392983 982.226877 
L 1980.079913 679.983767 
L 1980.765329 218.970743 
L 1981.452898 197.156708 
L 1983.506212 197.156708 
L 1984.193212 286.3051 
L 1984.946204 727.719226 
L 1985.574228 982.226877 
L 1986.251137 979.368538 
L 1986.934044 688.564297 
L 1987.618848 236.635541 
L 1988.30886 197.156708 
L 1990.362304 197.156708 
L 1991.046715 272.162508 
L 1991.731076 709.570045 
L 1992.421023 979.267724 
L 1993.107234 971.861553 
L 1993.787789 689.420946 
L 1994.475332 245.60492 
L 1995.156676 197.156708 
L 1997.216099 197.156708 
L 1997.900329 266.413219 
L 1998.651264 697.994908 
L 1999.284281 966.72445 
L 1999.956649 961.670784 
L 2000.644183 683.987889 
L 2001.32605 247.347564 
L 2002.015323 197.156708 
L 2004.067666 197.156708 
L 2004.755049 267.987464 
L 2005.442869 692.189951 
L 2006.122961 956.020667 
L 2006.813451 949.188191 
L 2007.496168 673.496982 
L 2008.180895 243.38856 
L 2008.866805 197.156708 
L 2010.922748 197.156708 
L 2011.614033 275.355332 
L 2012.376342 690.861366 
L 2012.991991 946.622621 
L 2013.667025 935.24844 
L 2014.349248 660.43722 
L 2015.03373 236.829101 
L 2015.722314 197.156708 
L 2017.776528 197.156708 
L 2018.461949 285.385425 
L 2019.147205 691.123474 
L 2019.835282 937.386366 
L 2020.523736 920.283147 
L 2021.203636 646.075842 
L 2021.892643 229.265074 
L 2022.578095 197.156708 
L 2024.629875 197.156708 
L 2025.319128 296.333628 
L 2026.003484 691.952083 
L 2026.746826 927.982544 
L 2027.372623 904.154372 
L 2028.061951 630.10695 
L 2028.743486 220.371856 
L 2029.429003 197.156708 
L 2031.490377 197.156708 
L 2032.169836 308.952589 
L 2032.857696 693.379139 
L 2033.541142 917.967219 
L 2034.229696 886.975709 
L 2034.914444 613.042582 
L 2035.598126 210.772199 
L 2036.289119 197.156708 
L 2038.343046 197.156708 
L 2039.026164 322.54945 
L 2039.749514 695.310093 
L 2040.469018 907.596945 
L 2041.08702 868.449471 
L 2041.770748 594.247877 
L 2042.455289 199.829998 
L 2043.140153 197.156708 
L 2045.193195 197.156708 
L 2045.87918 337.585282 
L 2046.570283 697.595029 
L 2047.251416 896.383116 
L 2047.936878 848.598324 
L 2048.621395 574.131547 
L 2049.308697 197.156708 
L 2052.074922 197.156708 
L 2052.734443 353.439312 
L 2053.432133 699.862827 
L 2054.143456 884.367418 
L 2054.79105 827.196315 
L 2055.481273 552.390123 
L 2056.16128 197.156708 
L 2058.905244 197.156708 
L 2059.586392 370.437919 
L 2060.273941 702.45806 
L 2060.957577 871.470668 
L 2061.644774 804.240028 
L 2062.331734 529.153091 
L 2063.021033 197.156708 
L 2065.784613 197.156708 
L 2066.442686 388.470982 
L 2067.128047 704.731576 
L 2067.814676 857.261239 
L 2068.498026 779.814976 
L 2069.874073 197.156708 
L 2072.611008 197.156708 
L 2073.296737 407.100501 
L 2073.982269 706.713548 
L 2074.672568 841.703823 
L 2075.353394 753.149579 
L 2076.723473 197.156708 
L 2079.48737 197.156708 
L 2080.154197 426.918051 
L 2080.837673 708.270138 
L 2081.568756 824.436497 
L 2082.208562 724.509009 
L 2083.579737 197.156708 
L 2086.320383 197.156708 
L 2087.693298 708.890978 
L 2088.376366 805.220554 
L 2089.060672 693.74191 
L 2089.748497 421.263942 
L 2090.432516 197.156708 
L 2093.174982 197.156708 
L 2093.860947 467.416615 
L 2094.617036 708.217617 
L 2095.252602 783.632355 
L 2095.917287 660.592152 
L 2096.603725 390.685372 
L 2097.286793 197.156708 
L 2100.0303 197.156708 
L 2100.71619 487.69786 
L 2101.399515 705.784127 
L 2102.087903 759.425156 
L 2102.769644 625.181093 
L 2103.456368 359.197541 
L 2104.142831 197.156708 
L 2106.198211 197.156708 
L 2106.883004 228.747406 
L 2107.568119 507.328317 
L 2108.285963 700.756015 
L 2108.946515 732.160675 
L 2109.659778 587.373298 
L 2110.310268 326.963908 
L 2110.998194 197.156708 
L 2113.056129 197.156708 
L 2113.742581 265.804656 
L 2114.421189 526.243063 
L 2115.110302 693.399746 
L 2115.795105 701.695812 
L 2116.477098 546.959717 
L 2117.164702 293.930018 
L 2117.851179 197.156708 
L 2119.906901 197.156708 
L 2120.59267 302.512808 
L 2121.318675 541.913548 
L 2121.966048 684.578598 
L 2122.673805 669.69047 
L 2123.335805 505.360228 
L 2124.020201 260.68949 
L 2124.704531 197.156708 
L 2126.762214 197.156708 
L 2127.446274 339.159177 
L 2128.130227 558.504953 
L 2128.820144 673.035944 
L 2129.501362 634.823042 
L 2130.188287 462.12914 
L 2130.872024 227.754512 
L 2131.559171 197.156708 
L 2133.614134 197.156708 
L 2134.346142 375.985367 
L 2134.98634 572.83413 
L 2135.688083 656.889714 
L 2136.437982 595.989042 
L 2137.729832 197.156708 
L 2139.785564 197.156708 
L 2140.471539 199.370663 
L 2141.158947 412.744425 
L 2141.83943 582.138244 
L 2142.530615 634.80715 
L 2143.208725 552.743068 
L 2144.58161 197.156708 
L 2146.637433 197.156708 
L 2147.326751 248.589227 
L 2148.008698 445.764936 
L 2148.694216 584.541948 
L 2149.382644 606.21207 
L 2150.143218 505.993202 
L 2150.749998 326.139411 
L 2151.438291 197.156708 
L 2153.493017 197.156708 
L 2154.178721 297.030952 
L 2154.861115 473.139896 
L 2155.547327 578.852258 
L 2156.23571 570.924206 
L 2156.927583 456.43109 
L 2157.605372 283.50683 
L 2158.291472 197.156708 
L 2160.350523 197.156708 
L 2161.716489 493.100457 
L 2162.432372 563.963137 
L 2163.089655 529.250084 
L 2163.792892 405.677503 
L 2164.461932 245.478912 
L 2165.144181 197.156708 
L 2166.515452 197.156708 
L 2167.201336 232.359773 
L 2167.888709 383.859675 
L 2168.572209 503.219805 
L 2169.261045 539.412709 
L 2169.942178 481.849252 
L 2171.311905 214.306611 
L 2171.997634 197.156708 
L 2173.366013 197.156708 
L 2174.071568 285.419931 
L 2174.764975 416.658018 
L 2175.425245 501.404868 
L 2176.111904 505.007162 
L 2176.802972 430.415064 
L 2178.165836 197.156708 
L 2179.543115 197.156708 
L 2180.227853 219.105114 
L 2181.596062 437.436837 
L 2182.281433 485.537608 
L 2182.966674 461.62661 
L 2183.64927 378.132688 
L 2184.335174 270.398558 
L 2185.020581 197.156708 
L 2186.391887 197.156708 
L 2187.077514 273.606729 
L 2187.766149 371.423073 
L 2188.447548 441.929074 
L 2189.13383 455.800808 
L 2189.817748 412.316428 
L 2191.192654 244.736158 
L 2191.88313 197.156708 
L 2192.564091 197.156708 
L 2193.247854 242.838712 
L 2194.616464 391.577597 
L 2195.304541 427.076816 
L 2195.991205 415.140841 
L 2196.674293 363.823207 
L 2197.359614 294.82694 
L 2198.047299 237.787735 
L 2198.728985 217.109971 
L 2199.415337 236.476585 
L 2200.105168 286.054195 
L 2200.787015 344.71552 
L 2201.472145 387.193222 
L 2202.160262 396.253711 
L 2202.842882 373.521678 
L 2203.563678 329.25147 
L 2204.216401 282.330419 
L 2204.901129 253.027739 
L 2205.591453 251.716613 
L 2206.269815 273.981119 
L 2207.641936 345.006722 
L 2208.32785 363.193855 
L 2209.009516 360.672035 
L 2209.696144 342.391605 
L 2211.071714 293.015794 
L 2211.753118 283.111249 
L 2212.44209 285.836902 
L 2213.126139 297.227271 
L 2213.808649 312.453373 
L 2214.493463 324.972996 
L 2215.181408 329.558473 
L 2215.865875 329.176184 
L 2216.577127 326.674361 
L 2217.921526 320.016108 
L 2218.666548 318.702166 
L 2219.98107 318.486602 
L 2230.98926 317.704911 
L 2244.654426 316.972252 
L 2264.532314 316.252793 
L 2284.41237 315.80176 
L 2309.768141 315.461582 
L 2345.418985 315.224705 
L 2402.988897 315.090655 
L 2545.55637 315.045547 
L 2750.504214 315.043919 
L 2750.504214 315.043919 
" style="fill:none;stroke:#ff0000;stroke-linecap:square;stroke-width:3;"/>
   </g>
   <g id="patch_3">
    <path d="M 94.09774 1021.480385 
L 94.09774 157.9032 
" style="fill:none;stroke:#000000;stroke-linecap:square;stroke-linejoin:miter;stroke-width:0.8;"/>
   </g>
   <g id="patch_4">
    <path d="M 2876.99976 1021.480385 
L 2876.99976 157.9032 
" style="fill:none;stroke:#000000;stroke-linecap:square;stroke-linejoin:miter;stroke-width:0.8;"/>
   </g>
   <g id="patch_5">
    <path d="M 94.09774 1021.480385 
L 2876.99976 1021.480385 
" style="fill:none;stroke:#000000;stroke-linecap:square;stroke-linejoin:miter;stroke-width:0.8;"/>
   </g>
   <g id="patch_6">
    <path d="M 94.09774 157.9032 
L 2876.99976 157.9032 
" style="fill:none;stroke:#000000;stroke-linecap:square;stroke-linejoin:miter;stroke-width:0.8;"/>
   </g>
   <g id="text_17">
    <!-- Biceps (red) and Triceps (green) -->
    <defs>
     <path d="M 19.671875 34.8125 
L 19.671875 8.109375 
L 35.5 8.109375 
Q 43.453125 8.109375 47.28125 11.40625 
Q 51.125 14.703125 51.125 21.484375 
Q 51.125 28.328125 47.28125 31.5625 
Q 43.453125 34.8125 35.5 34.8125 
z
M 19.671875 64.796875 
L 19.671875 42.828125 
L 34.28125 42.828125 
Q 41.5 42.828125 45.03125 45.53125 
Q 48.578125 48.25 48.578125 53.8125 
Q 48.578125 59.328125 45.03125 62.0625 
Q 41.5 64.796875 34.28125 64.796875 
z
M 9.8125 72.90625 
L 35.015625 72.90625 
Q 46.296875 72.90625 52.390625 68.21875 
Q 58.5 63.53125 58.5 54.890625 
Q 58.5 48.1875 55.375 44.234375 
Q 52.25 40.28125 46.1875 39.3125 
Q 53.46875 37.75 57.5 32.78125 
Q 61.53125 27.828125 61.53125 20.40625 
Q 61.53125 10.640625 54.890625 5.3125 
Q 48.25 0 35.984375 0 
L 9.8125 0 
z
" id="DejaVuSans-66"/>
     <path d="M 48.78125 52.59375 
L 48.78125 44.1875 
Q 44.96875 46.296875 41.140625 47.34375 
Q 37.3125 48.390625 33.40625 48.390625 
Q 24.65625 48.390625 19.8125 42.84375 
Q 14.984375 37.3125 14.984375 27.296875 
Q 14.984375 17.28125 19.8125 11.734375 
Q 24.65625 6.203125 33.40625 6.203125 
Q 37.3125 6.203125 41.140625 7.25 
Q 44.96875 8.296875 48.78125 10.40625 
L 48.78125 2.09375 
Q 45.015625 0.34375 40.984375 -0.53125 
Q 36.96875 -1.421875 32.421875 -1.421875 
Q 20.0625 -1.421875 12.78125 6.34375 
Q 5.515625 14.109375 5.515625 27.296875 
Q 5.515625 40.671875 12.859375 48.328125 
Q 20.21875 56 33.015625 56 
Q 37.15625 56 41.109375 55.140625 
Q 45.0625 54.296875 48.78125 52.59375 
z
" id="DejaVuSans-99"/>
     <path d="M 18.109375 8.203125 
L 18.109375 -20.796875 
L 9.078125 -20.796875 
L 9.078125 54.6875 
L 18.109375 54.6875 
L 18.109375 46.390625 
Q 20.953125 51.265625 25.265625 53.625 
Q 29.59375 56 35.59375 56 
Q 45.5625 56 51.78125 48.09375 
Q 58.015625 40.1875 58.015625 27.296875 
Q 58.015625 14.40625 51.78125 6.484375 
Q 45.5625 -1.421875 35.59375 -1.421875 
Q 29.59375 -1.421875 25.265625 0.953125 
Q 20.953125 3.328125 18.109375 8.203125 
z
M 48.6875 27.296875 
Q 48.6875 37.203125 44.609375 42.84375 
Q 40.53125 48.484375 33.40625 48.484375 
Q 26.265625 48.484375 22.1875 42.84375 
Q 18.109375 37.203125 18.109375 27.296875 
Q 18.109375 17.390625 22.1875 11.75 
Q 26.265625 6.109375 33.40625 6.109375 
Q 40.53125 6.109375 44.609375 11.75 
Q 48.6875 17.390625 48.6875 27.296875 
z
" id="DejaVuSans-112"/>
     <path d="M 31 75.875 
Q 24.46875 64.65625 21.28125 53.65625 
Q 18.109375 42.671875 18.109375 31.390625 
Q 18.109375 20.125 21.3125 9.0625 
Q 24.515625 -2 31 -13.1875 
L 23.1875 -13.1875 
Q 15.875 -1.703125 12.234375 9.375 
Q 8.59375 20.453125 8.59375 31.390625 
Q 8.59375 42.28125 12.203125 53.3125 
Q 15.828125 64.359375 23.1875 75.875 
z
" id="DejaVuSans-40"/>
     <path d="M 41.109375 46.296875 
Q 39.59375 47.171875 37.8125 47.578125 
Q 36.03125 48 33.890625 48 
Q 26.265625 48 22.1875 43.046875 
Q 18.109375 38.09375 18.109375 28.8125 
L 18.109375 0 
L 9.078125 0 
L 9.078125 54.6875 
L 18.109375 54.6875 
L 18.109375 46.1875 
Q 20.953125 51.171875 25.484375 53.578125 
Q 30.03125 56 36.53125 56 
Q 37.453125 56 38.578125 55.875 
Q 39.703125 55.765625 41.0625 55.515625 
z
" id="DejaVuSans-114"/>
     <path d="M 45.40625 46.390625 
L 45.40625 75.984375 
L 54.390625 75.984375 
L 54.390625 0 
L 45.40625 0 
L 45.40625 8.203125 
Q 42.578125 3.328125 38.25 0.953125 
Q 33.9375 -1.421875 27.875 -1.421875 
Q 17.96875 -1.421875 11.734375 6.484375 
Q 5.515625 14.40625 5.515625 27.296875 
Q 5.515625 40.1875 11.734375 48.09375 
Q 17.96875 56 27.875 56 
Q 33.9375 56 38.25 53.625 
Q 42.578125 51.265625 45.40625 46.390625 
z
M 14.796875 27.296875 
Q 14.796875 17.390625 18.875 11.75 
Q 22.953125 6.109375 30.078125 6.109375 
Q 37.203125 6.109375 41.296875 11.75 
Q 45.40625 17.390625 45.40625 27.296875 
Q 45.40625 37.203125 41.296875 42.84375 
Q 37.203125 48.484375 30.078125 48.484375 
Q 22.953125 48.484375 18.875 42.84375 
Q 14.796875 37.203125 14.796875 27.296875 
z
" id="DejaVuSans-100"/>
     <path d="M 8.015625 75.875 
L 15.828125 75.875 
Q 23.140625 64.359375 26.78125 53.3125 
Q 30.421875 42.28125 30.421875 31.390625 
Q 30.421875 20.453125 26.78125 9.375 
Q 23.140625 -1.703125 15.828125 -13.1875 
L 8.015625 -13.1875 
Q 14.5 -2 17.703125 9.0625 
Q 20.90625 20.125 20.90625 31.390625 
Q 20.90625 42.671875 17.703125 53.65625 
Q 14.5 64.65625 8.015625 75.875 
z
" id="DejaVuSans-41"/>
     <path d="M 34.28125 27.484375 
Q 23.390625 27.484375 19.1875 25 
Q 14.984375 22.515625 14.984375 16.5 
Q 14.984375 11.71875 18.140625 8.90625 
Q 21.296875 6.109375 26.703125 6.109375 
Q 34.1875 6.109375 38.703125 11.40625 
Q 43.21875 16.703125 43.21875 25.484375 
L 43.21875 27.484375 
z
M 52.203125 31.203125 
L 52.203125 0 
L 43.21875 0 
L 43.21875 8.296875 
Q 40.140625 3.328125 35.546875 0.953125 
Q 30.953125 -1.421875 24.3125 -1.421875 
Q 15.921875 -1.421875 10.953125 3.296875 
Q 6 8.015625 6 15.921875 
Q 6 25.140625 12.171875 29.828125 
Q 18.359375 34.515625 30.609375 34.515625 
L 43.21875 34.515625 
L 43.21875 35.40625 
Q 43.21875 41.609375 39.140625 45 
Q 35.0625 48.390625 27.6875 48.390625 
Q 23 48.390625 18.546875 47.265625 
Q 14.109375 46.140625 10.015625 43.890625 
L 10.015625 52.203125 
Q 14.9375 54.109375 19.578125 55.046875 
Q 24.21875 56 28.609375 56 
Q 40.484375 56 46.34375 49.84375 
Q 52.203125 43.703125 52.203125 31.203125 
z
" id="DejaVuSans-97"/>
    </defs>
    <g transform="translate(1210.36125 150.832262)scale(0.34 -0.34)">
     <use xlink:href="#DejaVuSans-66"/>
     <use x="68.603516" xlink:href="#DejaVuSans-105"/>
     <use x="96.386719" xlink:href="#DejaVuSans-99"/>
     <use x="151.367188" xlink:href="#DejaVuSans-101"/>
     <use x="212.890625" xlink:href="#DejaVuSans-112"/>
     <use x="276.367188" xlink:href="#DejaVuSans-115"/>
     <use x="328.466797" xlink:href="#DejaVuSans-32"/>
     <use x="360.253906" xlink:href="#DejaVuSans-40"/>
     <use x="399.267578" xlink:href="#DejaVuSans-114"/>
     <use x="440.349609" xlink:href="#DejaVuSans-101"/>
     <use x="501.873047" xlink:href="#DejaVuSans-100"/>
     <use x="565.349609" xlink:href="#DejaVuSans-41"/>
     <use x="604.363281" xlink:href="#DejaVuSans-32"/>
     <use x="636.150391" xlink:href="#DejaVuSans-97"/>
     <use x="697.429688" xlink:href="#DejaVuSans-110"/>
     <use x="760.808594" xlink:href="#DejaVuSans-100"/>
     <use x="824.285156" xlink:href="#DejaVuSans-32"/>
     <use x="856.072266" xlink:href="#DejaVuSans-84"/>
     <use x="916.9375" xlink:href="#DejaVuSans-114"/>
     <use x="958.050781" xlink:href="#DejaVuSans-105"/>
     <use x="985.833984" xlink:href="#DejaVuSans-99"/>
     <use x="1040.814453" xlink:href="#DejaVuSans-101"/>
     <use x="1102.337891" xlink:href="#DejaVuSans-112"/>
     <use x="1165.814453" xlink:href="#DejaVuSans-115"/>
     <use x="1217.914062" xlink:href="#DejaVuSans-32"/>
     <use x="1249.701172" xlink:href="#DejaVuSans-40"/>
     <use x="1288.714844" xlink:href="#DejaVuSans-103"/>
     <use x="1352.191406" xlink:href="#DejaVuSans-114"/>
     <use x="1393.273438" xlink:href="#DejaVuSans-101"/>
     <use x="1454.796875" xlink:href="#DejaVuSans-101"/>
     <use x="1516.320312" xlink:href="#DejaVuSans-110"/>
     <use x="1579.699219" xlink:href="#DejaVuSans-41"/>
    </g>
   </g>
  </g>
  <g id="text_18">
   <!-- Forces - P40000 I0 D0 -->
   <defs>
    <path d="M 9.8125 72.90625 
L 51.703125 72.90625 
L 51.703125 64.59375 
L 19.671875 64.59375 
L 19.671875 43.109375 
L 48.578125 43.109375 
L 48.578125 34.8125 
L 19.671875 34.8125 
L 19.671875 0 
L 9.8125 0 
z
" id="DejaVuSans-70"/>
    <path d="M 30.609375 48.390625 
Q 23.390625 48.390625 19.1875 42.75 
Q 14.984375 37.109375 14.984375 27.296875 
Q 14.984375 17.484375 19.15625 11.84375 
Q 23.34375 6.203125 30.609375 6.203125 
Q 37.796875 6.203125 41.984375 11.859375 
Q 46.1875 17.53125 46.1875 27.296875 
Q 46.1875 37.015625 41.984375 42.703125 
Q 37.796875 48.390625 30.609375 48.390625 
z
M 30.609375 56 
Q 42.328125 56 49.015625 48.375 
Q 55.71875 40.765625 55.71875 27.296875 
Q 55.71875 13.875 49.015625 6.21875 
Q 42.328125 -1.421875 30.609375 -1.421875 
Q 18.84375 -1.421875 12.171875 6.21875 
Q 5.515625 13.875 5.515625 27.296875 
Q 5.515625 40.765625 12.171875 48.375 
Q 18.84375 56 30.609375 56 
z
" id="DejaVuSans-111"/>
    <path d="M 4.890625 31.390625 
L 31.203125 31.390625 
L 31.203125 23.390625 
L 4.890625 23.390625 
z
" id="DejaVuSans-45"/>
    <path d="M 19.671875 64.796875 
L 19.671875 37.40625 
L 32.078125 37.40625 
Q 38.96875 37.40625 42.71875 40.96875 
Q 46.484375 44.53125 46.484375 51.125 
Q 46.484375 57.671875 42.71875 61.234375 
Q 38.96875 64.796875 32.078125 64.796875 
z
M 9.8125 72.90625 
L 32.078125 72.90625 
Q 44.34375 72.90625 50.609375 67.359375 
Q 56.890625 61.8125 56.890625 51.125 
Q 56.890625 40.328125 50.609375 34.8125 
Q 44.34375 29.296875 32.078125 29.296875 
L 19.671875 29.296875 
L 19.671875 0 
L 9.8125 0 
z
" id="DejaVuSans-80"/>
    <path d="M 9.8125 72.90625 
L 19.671875 72.90625 
L 19.671875 0 
L 9.8125 0 
z
" id="DejaVuSans-73"/>
    <path d="M 19.671875 64.796875 
L 19.671875 8.109375 
L 31.59375 8.109375 
Q 46.6875 8.109375 53.6875 14.9375 
Q 60.6875 21.78125 60.6875 36.53125 
Q 60.6875 51.171875 53.6875 57.984375 
Q 46.6875 64.796875 31.59375 64.796875 
z
M 9.8125 72.90625 
L 30.078125 72.90625 
Q 51.265625 72.90625 61.171875 64.09375 
Q 71.09375 55.28125 71.09375 36.53125 
Q 71.09375 17.671875 61.125 8.828125 
Q 51.171875 0 30.078125 0 
L 9.8125 0 
z
" id="DejaVuSans-68"/>
   </defs>
   <g transform="translate(1252.367813 28.834927)scale(0.34 -0.34)">
    <use xlink:href="#DejaVuSans-70"/>
    <use x="57.472656" xlink:href="#DejaVuSans-111"/>
    <use x="118.654297" xlink:href="#DejaVuSans-114"/>
    <use x="159.736328" xlink:href="#DejaVuSans-99"/>
    <use x="214.716797" xlink:href="#DejaVuSans-101"/>
    <use x="276.240234" xlink:href="#DejaVuSans-115"/>
    <use x="328.339844" xlink:href="#DejaVuSans-32"/>
    <use x="360.126953" xlink:href="#DejaVuSans-45"/>
    <use x="396.210938" xlink:href="#DejaVuSans-32"/>
    <use x="427.998047" xlink:href="#DejaVuSans-80"/>
    <use x="488.300781" xlink:href="#DejaVuSans-52"/>
    <use x="551.923828" xlink:href="#DejaVuSans-48"/>
    <use x="615.546875" xlink:href="#DejaVuSans-48"/>
    <use x="679.169922" xlink:href="#DejaVuSans-48"/>
    <use x="742.792969" xlink:href="#DejaVuSans-48"/>
    <use x="806.416016" xlink:href="#DejaVuSans-32"/>
    <use x="838.203125" xlink:href="#DejaVuSans-73"/>
    <use x="867.695312" xlink:href="#DejaVuSans-48"/>
    <use x="931.318359" xlink:href="#DejaVuSans-32"/>
    <use x="963.105469" xlink:href="#DejaVuSans-68"/>
    <use x="1040.107422" xlink:href="#DejaVuSans-48"/>
   </g>
   <!-- Bagfile elbow_left_D from 10s for 120s - Logging Rate 30 - Simulation Rate 400 - 99.99% real time speed -->
   <defs>
    <path d="M 37.109375 75.984375 
L 37.109375 68.5 
L 28.515625 68.5 
Q 23.6875 68.5 21.796875 66.546875 
Q 19.921875 64.59375 19.921875 59.515625 
L 19.921875 54.6875 
L 34.71875 54.6875 
L 34.71875 47.703125 
L 19.921875 47.703125 
L 19.921875 0 
L 10.890625 0 
L 10.890625 47.703125 
L 2.296875 47.703125 
L 2.296875 54.6875 
L 10.890625 54.6875 
L 10.890625 58.5 
Q 10.890625 67.625 15.140625 71.796875 
Q 19.390625 75.984375 28.609375 75.984375 
z
" id="DejaVuSans-102"/>
    <path d="M 9.421875 75.984375 
L 18.40625 75.984375 
L 18.40625 0 
L 9.421875 0 
z
" id="DejaVuSans-108"/>
    <path d="M 48.6875 27.296875 
Q 48.6875 37.203125 44.609375 42.84375 
Q 40.53125 48.484375 33.40625 48.484375 
Q 26.265625 48.484375 22.1875 42.84375 
Q 18.109375 37.203125 18.109375 27.296875 
Q 18.109375 17.390625 22.1875 11.75 
Q 26.265625 6.109375 33.40625 6.109375 
Q 40.53125 6.109375 44.609375 11.75 
Q 48.6875 17.390625 48.6875 27.296875 
z
M 18.109375 46.390625 
Q 20.953125 51.265625 25.265625 53.625 
Q 29.59375 56 35.59375 56 
Q 45.5625 56 51.78125 48.09375 
Q 58.015625 40.1875 58.015625 27.296875 
Q 58.015625 14.40625 51.78125 6.484375 
Q 45.5625 -1.421875 35.59375 -1.421875 
Q 29.59375 -1.421875 25.265625 0.953125 
Q 20.953125 3.328125 18.109375 8.203125 
L 18.109375 0 
L 9.078125 0 
L 9.078125 75.984375 
L 18.109375 75.984375 
z
" id="DejaVuSans-98"/>
    <path d="M 4.203125 54.6875 
L 13.1875 54.6875 
L 24.421875 12.015625 
L 35.59375 54.6875 
L 46.1875 54.6875 
L 57.421875 12.015625 
L 68.609375 54.6875 
L 77.59375 54.6875 
L 63.28125 0 
L 52.6875 0 
L 40.921875 44.828125 
L 29.109375 0 
L 18.5 0 
z
" id="DejaVuSans-119"/>
    <path d="M 50.984375 -16.609375 
L 50.984375 -23.578125 
L -0.984375 -23.578125 
L -0.984375 -16.609375 
z
" id="DejaVuSans-95"/>
    <path d="M 44.390625 34.1875 
Q 47.5625 33.109375 50.5625 29.59375 
Q 53.5625 26.078125 56.59375 19.921875 
L 66.609375 0 
L 56 0 
L 46.6875 18.703125 
Q 43.0625 26.03125 39.671875 28.421875 
Q 36.28125 30.8125 30.421875 30.8125 
L 19.671875 30.8125 
L 19.671875 0 
L 9.8125 0 
L 9.8125 72.90625 
L 32.078125 72.90625 
Q 44.578125 72.90625 50.734375 67.671875 
Q 56.890625 62.453125 56.890625 51.90625 
Q 56.890625 45.015625 53.6875 40.46875 
Q 50.484375 35.9375 44.390625 34.1875 
z
M 19.671875 64.796875 
L 19.671875 38.921875 
L 32.078125 38.921875 
Q 39.203125 38.921875 42.84375 42.21875 
Q 46.484375 45.515625 46.484375 51.90625 
Q 46.484375 58.296875 42.84375 61.546875 
Q 39.203125 64.796875 32.078125 64.796875 
z
" id="DejaVuSans-82"/>
    <path d="M 40.578125 39.3125 
Q 47.65625 37.796875 51.625 33 
Q 55.609375 28.21875 55.609375 21.1875 
Q 55.609375 10.40625 48.1875 4.484375 
Q 40.765625 -1.421875 27.09375 -1.421875 
Q 22.515625 -1.421875 17.65625 -0.515625 
Q 12.796875 0.390625 7.625 2.203125 
L 7.625 11.71875 
Q 11.71875 9.328125 16.59375 8.109375 
Q 21.484375 6.890625 26.8125 6.890625 
Q 36.078125 6.890625 40.9375 10.546875 
Q 45.796875 14.203125 45.796875 21.1875 
Q 45.796875 27.640625 41.28125 31.265625 
Q 36.765625 34.90625 28.71875 34.90625 
L 20.21875 34.90625 
L 20.21875 43.015625 
L 29.109375 43.015625 
Q 36.375 43.015625 40.234375 45.921875 
Q 44.09375 48.828125 44.09375 54.296875 
Q 44.09375 59.90625 40.109375 62.90625 
Q 36.140625 65.921875 28.71875 65.921875 
Q 24.65625 65.921875 20.015625 65.03125 
Q 15.375 64.15625 9.8125 62.3125 
L 9.8125 71.09375 
Q 15.4375 72.65625 20.34375 73.4375 
Q 25.25 74.21875 29.59375 74.21875 
Q 40.828125 74.21875 47.359375 69.109375 
Q 53.90625 64.015625 53.90625 55.328125 
Q 53.90625 49.265625 50.4375 45.09375 
Q 46.96875 40.921875 40.578125 39.3125 
z
" id="DejaVuSans-51"/>
    <path d="M 53.515625 70.515625 
L 53.515625 60.890625 
Q 47.90625 63.578125 42.921875 64.890625 
Q 37.9375 66.21875 33.296875 66.21875 
Q 25.25 66.21875 20.875 63.09375 
Q 16.5 59.96875 16.5 54.203125 
Q 16.5 49.359375 19.40625 46.890625 
Q 22.3125 44.4375 30.421875 42.921875 
L 36.375 41.703125 
Q 47.40625 39.59375 52.65625 34.296875 
Q 57.90625 29 57.90625 20.125 
Q 57.90625 9.515625 50.796875 4.046875 
Q 43.703125 -1.421875 29.984375 -1.421875 
Q 24.8125 -1.421875 18.96875 -0.25 
Q 13.140625 0.921875 6.890625 3.21875 
L 6.890625 13.375 
Q 12.890625 10.015625 18.65625 8.296875 
Q 24.421875 6.59375 29.984375 6.59375 
Q 38.421875 6.59375 43.015625 9.90625 
Q 47.609375 13.234375 47.609375 19.390625 
Q 47.609375 24.75 44.3125 27.78125 
Q 41.015625 30.8125 33.5 32.328125 
L 27.484375 33.5 
Q 16.453125 35.6875 11.515625 40.375 
Q 6.59375 45.0625 6.59375 53.421875 
Q 6.59375 63.09375 13.40625 68.65625 
Q 20.21875 74.21875 32.171875 74.21875 
Q 37.3125 74.21875 42.625 73.28125 
Q 47.953125 72.359375 53.515625 70.515625 
z
" id="DejaVuSans-83"/>
    <path d="M 8.5 21.578125 
L 8.5 54.6875 
L 17.484375 54.6875 
L 17.484375 21.921875 
Q 17.484375 14.15625 20.5 10.265625 
Q 23.53125 6.390625 29.59375 6.390625 
Q 36.859375 6.390625 41.078125 11.03125 
Q 45.3125 15.671875 45.3125 23.6875 
L 45.3125 54.6875 
L 54.296875 54.6875 
L 54.296875 0 
L 45.3125 0 
L 45.3125 8.40625 
Q 42.046875 3.421875 37.71875 1 
Q 33.40625 -1.421875 27.6875 -1.421875 
Q 18.265625 -1.421875 13.375 4.4375 
Q 8.5 10.296875 8.5 21.578125 
z
M 31.109375 56 
z
" id="DejaVuSans-117"/>
    <path d="M 10.984375 1.515625 
L 10.984375 10.5 
Q 14.703125 8.734375 18.5 7.8125 
Q 22.3125 6.890625 25.984375 6.890625 
Q 35.75 6.890625 40.890625 13.453125 
Q 46.046875 20.015625 46.78125 33.40625 
Q 43.953125 29.203125 39.59375 26.953125 
Q 35.25 24.703125 29.984375 24.703125 
Q 19.046875 24.703125 12.671875 31.3125 
Q 6.296875 37.9375 6.296875 49.421875 
Q 6.296875 60.640625 12.9375 67.421875 
Q 19.578125 74.21875 30.609375 74.21875 
Q 43.265625 74.21875 49.921875 64.515625 
Q 56.59375 54.828125 56.59375 36.375 
Q 56.59375 19.140625 48.40625 8.859375 
Q 40.234375 -1.421875 26.421875 -1.421875 
Q 22.703125 -1.421875 18.890625 -0.6875 
Q 15.09375 0.046875 10.984375 1.515625 
z
M 30.609375 32.421875 
Q 37.25 32.421875 41.125 36.953125 
Q 45.015625 41.5 45.015625 49.421875 
Q 45.015625 57.28125 41.125 61.84375 
Q 37.25 66.40625 30.609375 66.40625 
Q 23.96875 66.40625 20.09375 61.84375 
Q 16.21875 57.28125 16.21875 49.421875 
Q 16.21875 41.5 20.09375 36.953125 
Q 23.96875 32.421875 30.609375 32.421875 
z
" id="DejaVuSans-57"/>
    <path d="M 10.6875 12.40625 
L 21 12.40625 
L 21 0 
L 10.6875 0 
z
" id="DejaVuSans-46"/>
    <path d="M 72.703125 32.078125 
Q 68.453125 32.078125 66.03125 28.46875 
Q 63.625 24.859375 63.625 18.40625 
Q 63.625 12.0625 66.03125 8.421875 
Q 68.453125 4.78125 72.703125 4.78125 
Q 76.859375 4.78125 79.265625 8.421875 
Q 81.6875 12.0625 81.6875 18.40625 
Q 81.6875 24.8125 79.265625 28.4375 
Q 76.859375 32.078125 72.703125 32.078125 
z
M 72.703125 38.28125 
Q 80.421875 38.28125 84.953125 32.90625 
Q 89.5 27.546875 89.5 18.40625 
Q 89.5 9.28125 84.9375 3.921875 
Q 80.375 -1.421875 72.703125 -1.421875 
Q 64.890625 -1.421875 60.34375 3.921875 
Q 55.8125 9.28125 55.8125 18.40625 
Q 55.8125 27.59375 60.375 32.9375 
Q 64.9375 38.28125 72.703125 38.28125 
z
M 22.3125 68.015625 
Q 18.109375 68.015625 15.6875 64.375 
Q 13.28125 60.75 13.28125 54.390625 
Q 13.28125 47.953125 15.671875 44.328125 
Q 18.0625 40.71875 22.3125 40.71875 
Q 26.5625 40.71875 28.96875 44.328125 
Q 31.390625 47.953125 31.390625 54.390625 
Q 31.390625 60.6875 28.953125 64.34375 
Q 26.515625 68.015625 22.3125 68.015625 
z
M 66.40625 74.21875 
L 74.21875 74.21875 
L 28.609375 -1.421875 
L 20.796875 -1.421875 
z
M 22.3125 74.21875 
Q 30.03125 74.21875 34.609375 68.875 
Q 39.203125 63.53125 39.203125 54.390625 
Q 39.203125 45.171875 34.640625 39.84375 
Q 30.078125 34.515625 22.3125 34.515625 
Q 14.546875 34.515625 10.03125 39.859375 
Q 5.515625 45.21875 5.515625 54.390625 
Q 5.515625 63.484375 10.046875 68.84375 
Q 14.59375 74.21875 22.3125 74.21875 
z
" id="DejaVuSans-37"/>
   </defs>
   <g transform="translate(544.038906 66.90749)scale(0.34 -0.34)">
    <use xlink:href="#DejaVuSans-66"/>
    <use x="68.603516" xlink:href="#DejaVuSans-97"/>
    <use x="129.882812" xlink:href="#DejaVuSans-103"/>
    <use x="193.359375" xlink:href="#DejaVuSans-102"/>
    <use x="228.564453" xlink:href="#DejaVuSans-105"/>
    <use x="256.347656" xlink:href="#DejaVuSans-108"/>
    <use x="284.130859" xlink:href="#DejaVuSans-101"/>
    <use x="345.654297" xlink:href="#DejaVuSans-32"/>
    <use x="377.441406" xlink:href="#DejaVuSans-101"/>
    <use x="438.964844" xlink:href="#DejaVuSans-108"/>
    <use x="466.748047" xlink:href="#DejaVuSans-98"/>
    <use x="530.224609" xlink:href="#DejaVuSans-111"/>
    <use x="591.40625" xlink:href="#DejaVuSans-119"/>
    <use x="673.193359" xlink:href="#DejaVuSans-95"/>
    <use x="723.193359" xlink:href="#DejaVuSans-108"/>
    <use x="750.976562" xlink:href="#DejaVuSans-101"/>
    <use x="812.5" xlink:href="#DejaVuSans-102"/>
    <use x="847.689453" xlink:href="#DejaVuSans-116"/>
    <use x="886.898438" xlink:href="#DejaVuSans-95"/>
    <use x="936.898438" xlink:href="#DejaVuSans-68"/>
    <use x="1013.900391" xlink:href="#DejaVuSans-32"/>
    <use x="1045.6875" xlink:href="#DejaVuSans-102"/>
    <use x="1080.892578" xlink:href="#DejaVuSans-114"/>
    <use x="1121.974609" xlink:href="#DejaVuSans-111"/>
    <use x="1183.15625" xlink:href="#DejaVuSans-109"/>
    <use x="1280.568359" xlink:href="#DejaVuSans-32"/>
    <use x="1312.355469" xlink:href="#DejaVuSans-49"/>
    <use x="1375.978516" xlink:href="#DejaVuSans-48"/>
    <use x="1439.601562" xlink:href="#DejaVuSans-115"/>
    <use x="1491.701172" xlink:href="#DejaVuSans-32"/>
    <use x="1523.488281" xlink:href="#DejaVuSans-102"/>
    <use x="1558.693359" xlink:href="#DejaVuSans-111"/>
    <use x="1619.875" xlink:href="#DejaVuSans-114"/>
    <use x="1660.988281" xlink:href="#DejaVuSans-32"/>
    <use x="1692.775391" xlink:href="#DejaVuSans-49"/>
    <use x="1756.398438" xlink:href="#DejaVuSans-50"/>
    <use x="1820.021484" xlink:href="#DejaVuSans-48"/>
    <use x="1883.644531" xlink:href="#DejaVuSans-115"/>
    <use x="1935.744141" xlink:href="#DejaVuSans-32"/>
    <use x="1967.53125" xlink:href="#DejaVuSans-45"/>
    <use x="2003.615234" xlink:href="#DejaVuSans-32"/>
    <use x="2035.402344" xlink:href="#DejaVuSans-76"/>
    <use x="2091.099609" xlink:href="#DejaVuSans-111"/>
    <use x="2152.28125" xlink:href="#DejaVuSans-103"/>
    <use x="2215.757812" xlink:href="#DejaVuSans-103"/>
    <use x="2279.234375" xlink:href="#DejaVuSans-105"/>
    <use x="2307.017578" xlink:href="#DejaVuSans-110"/>
    <use x="2370.396484" xlink:href="#DejaVuSans-103"/>
    <use x="2433.873047" xlink:href="#DejaVuSans-32"/>
    <use x="2465.660156" xlink:href="#DejaVuSans-82"/>
    <use x="2535.111328" xlink:href="#DejaVuSans-97"/>
    <use x="2596.390625" xlink:href="#DejaVuSans-116"/>
    <use x="2635.599609" xlink:href="#DejaVuSans-101"/>
    <use x="2697.123047" xlink:href="#DejaVuSans-32"/>
    <use x="2728.910156" xlink:href="#DejaVuSans-51"/>
    <use x="2792.533203" xlink:href="#DejaVuSans-48"/>
    <use x="2856.15625" xlink:href="#DejaVuSans-32"/>
    <use x="2887.943359" xlink:href="#DejaVuSans-45"/>
    <use x="2924.027344" xlink:href="#DejaVuSans-32"/>
    <use x="2955.814453" xlink:href="#DejaVuSans-83"/>
    <use x="3019.291016" xlink:href="#DejaVuSans-105"/>
    <use x="3047.074219" xlink:href="#DejaVuSans-109"/>
    <use x="3144.486328" xlink:href="#DejaVuSans-117"/>
    <use x="3207.865234" xlink:href="#DejaVuSans-108"/>
    <use x="3235.648438" xlink:href="#DejaVuSans-97"/>
    <use x="3296.927734" xlink:href="#DejaVuSans-116"/>
    <use x="3336.136719" xlink:href="#DejaVuSans-105"/>
    <use x="3363.919922" xlink:href="#DejaVuSans-111"/>
    <use x="3425.101562" xlink:href="#DejaVuSans-110"/>
    <use x="3488.480469" xlink:href="#DejaVuSans-32"/>
    <use x="3520.267578" xlink:href="#DejaVuSans-82"/>
    <use x="3589.71875" xlink:href="#DejaVuSans-97"/>
    <use x="3650.998047" xlink:href="#DejaVuSans-116"/>
    <use x="3690.207031" xlink:href="#DejaVuSans-101"/>
    <use x="3751.730469" xlink:href="#DejaVuSans-32"/>
    <use x="3783.517578" xlink:href="#DejaVuSans-52"/>
    <use x="3847.140625" xlink:href="#DejaVuSans-48"/>
    <use x="3910.763672" xlink:href="#DejaVuSans-48"/>
    <use x="3974.386719" xlink:href="#DejaVuSans-32"/>
    <use x="4006.173828" xlink:href="#DejaVuSans-45"/>
    <use x="4042.257812" xlink:href="#DejaVuSans-32"/>
    <use x="4074.044922" xlink:href="#DejaVuSans-57"/>
    <use x="4137.667969" xlink:href="#DejaVuSans-57"/>
    <use x="4201.291016" xlink:href="#DejaVuSans-46"/>
    <use x="4233.078125" xlink:href="#DejaVuSans-57"/>
    <use x="4296.701172" xlink:href="#DejaVuSans-57"/>
    <use x="4360.324219" xlink:href="#DejaVuSans-37"/>
    <use x="4455.34375" xlink:href="#DejaVuSans-32"/>
    <use x="4487.130859" xlink:href="#DejaVuSans-114"/>
    <use x="4528.212891" xlink:href="#DejaVuSans-101"/>
    <use x="4589.736328" xlink:href="#DejaVuSans-97"/>
    <use x="4651.015625" xlink:href="#DejaVuSans-108"/>
    <use x="4678.798828" xlink:href="#DejaVuSans-32"/>
    <use x="4710.585938" xlink:href="#DejaVuSans-116"/>
    <use x="4749.794922" xlink:href="#DejaVuSans-105"/>
    <use x="4777.578125" xlink:href="#DejaVuSans-109"/>
    <use x="4874.990234" xlink:href="#DejaVuSans-101"/>
    <use x="4936.513672" xlink:href="#DejaVuSans-32"/>
    <use x="4968.300781" xlink:href="#DejaVuSans-115"/>
    <use x="5020.400391" xlink:href="#DejaVuSans-112"/>
    <use x="5083.876953" xlink:href="#DejaVuSans-101"/>
    <use x="5145.400391" xlink:href="#DejaVuSans-101"/>
    <use x="5206.923828" xlink:href="#DejaVuSans-100"/>
   </g>
   <!--  -->
   <g transform="translate(1440 105.925677)scale(0.34 -0.34)"/>
  </g>
 </g>
 <defs>
  <clipPath id="p75ac047ef1">
   <rect height="863.577185" width="2782.90202" x="94.09774" y="157.9032"/>
  </clipPath>
 </defs>
</svg>
