<?xml version="1.0" encoding="utf-8" standalone="no"?>
<!DOCTYPE svg PUBLIC "-//W3C//DTD SVG 1.1//EN"
  "http://www.w3.org/Graphics/SVG/1.1/DTD/svg11.dtd">
<!-- Created with matplotlib (https://matplotlib.org/) -->
<svg height="1080pt" version="1.1" viewBox="0 0 2880 1080" width="2880pt" xmlns="http://www.w3.org/2000/svg" xmlns:xlink="http://www.w3.org/1999/xlink">
 <defs>
  <style type="text/css">
*{stroke-linecap:butt;stroke-linejoin:round;}
  </style>
 </defs>
 <g id="figure_1">
  <g id="patch_1">
   <path d="M 0 1080 
L 2880 1080 
L 2880 0 
L 0 0 
z
" style="fill:#ffffff;"/>
  </g>
  <g id="axes_1">
   <g id="patch_2">
    <path d="M 94.09774 1021.480385 
L 2876.99976 1021.480385 
L 2876.99976 157.9032 
L 94.09774 157.9032 
z
" style="fill:#ffffff;"/>
   </g>
   <g id="matplotlib.axis_1">
    <g id="xtick_1">
     <g id="line2d_1">
      <defs>
       <path d="M 0 0 
L 0 3.5 
" id="mf76de8ba36" style="stroke:#000000;stroke-width:0.8;"/>
      </defs>
      <g>
       <use style="stroke:#000000;stroke-width:0.8;" x="151.752226" xlink:href="#mf76de8ba36" y="1021.480385"/>
      </g>
     </g>
     <g id="text_1">
      <!-- 0 -->
      <defs>
       <path d="M 31.78125 66.40625 
Q 24.171875 66.40625 20.328125 58.90625 
Q 16.5 51.421875 16.5 36.375 
Q 16.5 21.390625 20.328125 13.890625 
Q 24.171875 6.390625 31.78125 6.390625 
Q 39.453125 6.390625 43.28125 13.890625 
Q 47.125 21.390625 47.125 36.375 
Q 47.125 51.421875 43.28125 58.90625 
Q 39.453125 66.40625 31.78125 66.40625 
z
M 31.78125 74.21875 
Q 44.046875 74.21875 50.515625 64.515625 
Q 56.984375 54.828125 56.984375 36.375 
Q 56.984375 17.96875 50.515625 8.265625 
Q 44.046875 -1.421875 31.78125 -1.421875 
Q 19.53125 -1.421875 13.0625 8.265625 
Q 6.59375 17.96875 6.59375 36.375 
Q 6.59375 54.828125 13.0625 64.515625 
Q 19.53125 74.21875 31.78125 74.21875 
z
" id="DejaVuSans-48"/>
      </defs>
      <g transform="translate(145.389726 1043.67726)scale(0.2 -0.2)">
       <use xlink:href="#DejaVuSans-48"/>
      </g>
     </g>
    </g>
    <g id="xtick_2">
     <g id="line2d_2">
      <g>
       <use style="stroke:#000000;stroke-width:0.8;" x="495.957528" xlink:href="#mf76de8ba36" y="1021.480385"/>
      </g>
     </g>
     <g id="text_2">
      <!-- 50 -->
      <defs>
       <path d="M 10.796875 72.90625 
L 49.515625 72.90625 
L 49.515625 64.59375 
L 19.828125 64.59375 
L 19.828125 46.734375 
Q 21.96875 47.46875 24.109375 47.828125 
Q 26.265625 48.1875 28.421875 48.1875 
Q 40.625 48.1875 47.75 41.5 
Q 54.890625 34.8125 54.890625 23.390625 
Q 54.890625 11.625 47.5625 5.09375 
Q 40.234375 -1.421875 26.90625 -1.421875 
Q 22.3125 -1.421875 17.546875 -0.640625 
Q 12.796875 0.140625 7.71875 1.703125 
L 7.71875 11.625 
Q 12.109375 9.234375 16.796875 8.0625 
Q 21.484375 6.890625 26.703125 6.890625 
Q 35.15625 6.890625 40.078125 11.328125 
Q 45.015625 15.765625 45.015625 23.390625 
Q 45.015625 31 40.078125 35.4375 
Q 35.15625 39.890625 26.703125 39.890625 
Q 22.75 39.890625 18.8125 39.015625 
Q 14.890625 38.140625 10.796875 36.28125 
z
" id="DejaVuSans-53"/>
      </defs>
      <g transform="translate(483.232528 1043.67726)scale(0.2 -0.2)">
       <use xlink:href="#DejaVuSans-53"/>
       <use x="63.623047" xlink:href="#DejaVuSans-48"/>
      </g>
     </g>
    </g>
    <g id="xtick_3">
     <g id="line2d_3">
      <g>
       <use style="stroke:#000000;stroke-width:0.8;" x="840.162831" xlink:href="#mf76de8ba36" y="1021.480385"/>
      </g>
     </g>
     <g id="text_3">
      <!-- 100 -->
      <defs>
       <path d="M 12.40625 8.296875 
L 28.515625 8.296875 
L 28.515625 63.921875 
L 10.984375 60.40625 
L 10.984375 69.390625 
L 28.421875 72.90625 
L 38.28125 72.90625 
L 38.28125 8.296875 
L 54.390625 8.296875 
L 54.390625 0 
L 12.40625 0 
z
" id="DejaVuSans-49"/>
      </defs>
      <g transform="translate(821.075331 1043.67726)scale(0.2 -0.2)">
       <use xlink:href="#DejaVuSans-49"/>
       <use x="63.623047" xlink:href="#DejaVuSans-48"/>
       <use x="127.246094" xlink:href="#DejaVuSans-48"/>
      </g>
     </g>
    </g>
    <g id="xtick_4">
     <g id="line2d_4">
      <g>
       <use style="stroke:#000000;stroke-width:0.8;" x="1184.368133" xlink:href="#mf76de8ba36" y="1021.480385"/>
      </g>
     </g>
     <g id="text_4">
      <!-- 150 -->
      <g transform="translate(1165.280633 1043.67726)scale(0.2 -0.2)">
       <use xlink:href="#DejaVuSans-49"/>
       <use x="63.623047" xlink:href="#DejaVuSans-53"/>
       <use x="127.246094" xlink:href="#DejaVuSans-48"/>
      </g>
     </g>
    </g>
    <g id="xtick_5">
     <g id="line2d_5">
      <g>
       <use style="stroke:#000000;stroke-width:0.8;" x="1528.573435" xlink:href="#mf76de8ba36" y="1021.480385"/>
      </g>
     </g>
     <g id="text_5">
      <!-- 200 -->
      <defs>
       <path d="M 19.1875 8.296875 
L 53.609375 8.296875 
L 53.609375 0 
L 7.328125 0 
L 7.328125 8.296875 
Q 12.9375 14.109375 22.625 23.890625 
Q 32.328125 33.6875 34.8125 36.53125 
Q 39.546875 41.84375 41.421875 45.53125 
Q 43.3125 49.21875 43.3125 52.78125 
Q 43.3125 58.59375 39.234375 62.25 
Q 35.15625 65.921875 28.609375 65.921875 
Q 23.96875 65.921875 18.8125 64.3125 
Q 13.671875 62.703125 7.8125 59.421875 
L 7.8125 69.390625 
Q 13.765625 71.78125 18.9375 73 
Q 24.125 74.21875 28.421875 74.21875 
Q 39.75 74.21875 46.484375 68.546875 
Q 53.21875 62.890625 53.21875 53.421875 
Q 53.21875 48.921875 51.53125 44.890625 
Q 49.859375 40.875 45.40625 35.40625 
Q 44.1875 33.984375 37.640625 27.21875 
Q 31.109375 20.453125 19.1875 8.296875 
z
" id="DejaVuSans-50"/>
      </defs>
      <g transform="translate(1509.485935 1043.67726)scale(0.2 -0.2)">
       <use xlink:href="#DejaVuSans-50"/>
       <use x="63.623047" xlink:href="#DejaVuSans-48"/>
       <use x="127.246094" xlink:href="#DejaVuSans-48"/>
      </g>
     </g>
    </g>
    <g id="xtick_6">
     <g id="line2d_6">
      <g>
       <use style="stroke:#000000;stroke-width:0.8;" x="1872.778738" xlink:href="#mf76de8ba36" y="1021.480385"/>
      </g>
     </g>
     <g id="text_6">
      <!-- 250 -->
      <g transform="translate(1853.691238 1043.67726)scale(0.2 -0.2)">
       <use xlink:href="#DejaVuSans-50"/>
       <use x="63.623047" xlink:href="#DejaVuSans-53"/>
       <use x="127.246094" xlink:href="#DejaVuSans-48"/>
      </g>
     </g>
    </g>
    <g id="xtick_7">
     <g id="line2d_7">
      <g>
       <use style="stroke:#000000;stroke-width:0.8;" x="2216.98404" xlink:href="#mf76de8ba36" y="1021.480385"/>
      </g>
     </g>
     <g id="text_7">
      <!-- 300 -->
      <defs>
       <path d="M 40.578125 39.3125 
Q 47.65625 37.796875 51.625 33 
Q 55.609375 28.21875 55.609375 21.1875 
Q 55.609375 10.40625 48.1875 4.484375 
Q 40.765625 -1.421875 27.09375 -1.421875 
Q 22.515625 -1.421875 17.65625 -0.515625 
Q 12.796875 0.390625 7.625 2.203125 
L 7.625 11.71875 
Q 11.71875 9.328125 16.59375 8.109375 
Q 21.484375 6.890625 26.8125 6.890625 
Q 36.078125 6.890625 40.9375 10.546875 
Q 45.796875 14.203125 45.796875 21.1875 
Q 45.796875 27.640625 41.28125 31.265625 
Q 36.765625 34.90625 28.71875 34.90625 
L 20.21875 34.90625 
L 20.21875 43.015625 
L 29.109375 43.015625 
Q 36.375 43.015625 40.234375 45.921875 
Q 44.09375 48.828125 44.09375 54.296875 
Q 44.09375 59.90625 40.109375 62.90625 
Q 36.140625 65.921875 28.71875 65.921875 
Q 24.65625 65.921875 20.015625 65.03125 
Q 15.375 64.15625 9.8125 62.3125 
L 9.8125 71.09375 
Q 15.4375 72.65625 20.34375 73.4375 
Q 25.25 74.21875 29.59375 74.21875 
Q 40.828125 74.21875 47.359375 69.109375 
Q 53.90625 64.015625 53.90625 55.328125 
Q 53.90625 49.265625 50.4375 45.09375 
Q 46.96875 40.921875 40.578125 39.3125 
z
" id="DejaVuSans-51"/>
      </defs>
      <g transform="translate(2197.89654 1043.67726)scale(0.2 -0.2)">
       <use xlink:href="#DejaVuSans-51"/>
       <use x="63.623047" xlink:href="#DejaVuSans-48"/>
       <use x="127.246094" xlink:href="#DejaVuSans-48"/>
      </g>
     </g>
    </g>
    <g id="xtick_8">
     <g id="line2d_8">
      <g>
       <use style="stroke:#000000;stroke-width:0.8;" x="2561.189343" xlink:href="#mf76de8ba36" y="1021.480385"/>
      </g>
     </g>
     <g id="text_8">
      <!-- 350 -->
      <g transform="translate(2542.101843 1043.67726)scale(0.2 -0.2)">
       <use xlink:href="#DejaVuSans-51"/>
       <use x="63.623047" xlink:href="#DejaVuSans-53"/>
       <use x="127.246094" xlink:href="#DejaVuSans-48"/>
      </g>
     </g>
    </g>
    <g id="text_9">
     <!-- Time [s] -->
     <defs>
      <path d="M -0.296875 72.90625 
L 61.375 72.90625 
L 61.375 64.59375 
L 35.5 64.59375 
L 35.5 0 
L 25.59375 0 
L 25.59375 64.59375 
L -0.296875 64.59375 
z
" id="DejaVuSans-84"/>
      <path d="M 9.421875 54.6875 
L 18.40625 54.6875 
L 18.40625 0 
L 9.421875 0 
z
M 9.421875 75.984375 
L 18.40625 75.984375 
L 18.40625 64.59375 
L 9.421875 64.59375 
z
" id="DejaVuSans-105"/>
      <path d="M 52 44.1875 
Q 55.375 50.25 60.0625 53.125 
Q 64.75 56 71.09375 56 
Q 79.640625 56 84.28125 50.015625 
Q 88.921875 44.046875 88.921875 33.015625 
L 88.921875 0 
L 79.890625 0 
L 79.890625 32.71875 
Q 79.890625 40.578125 77.09375 44.375 
Q 74.3125 48.1875 68.609375 48.1875 
Q 61.625 48.1875 57.5625 43.546875 
Q 53.515625 38.921875 53.515625 30.90625 
L 53.515625 0 
L 44.484375 0 
L 44.484375 32.71875 
Q 44.484375 40.625 41.703125 44.40625 
Q 38.921875 48.1875 33.109375 48.1875 
Q 26.21875 48.1875 22.15625 43.53125 
Q 18.109375 38.875 18.109375 30.90625 
L 18.109375 0 
L 9.078125 0 
L 9.078125 54.6875 
L 18.109375 54.6875 
L 18.109375 46.1875 
Q 21.1875 51.21875 25.484375 53.609375 
Q 29.78125 56 35.6875 56 
Q 41.65625 56 45.828125 52.96875 
Q 50 49.953125 52 44.1875 
z
" id="DejaVuSans-109"/>
      <path d="M 56.203125 29.59375 
L 56.203125 25.203125 
L 14.890625 25.203125 
Q 15.484375 15.921875 20.484375 11.0625 
Q 25.484375 6.203125 34.421875 6.203125 
Q 39.59375 6.203125 44.453125 7.46875 
Q 49.3125 8.734375 54.109375 11.28125 
L 54.109375 2.78125 
Q 49.265625 0.734375 44.1875 -0.34375 
Q 39.109375 -1.421875 33.890625 -1.421875 
Q 20.796875 -1.421875 13.15625 6.1875 
Q 5.515625 13.8125 5.515625 26.8125 
Q 5.515625 40.234375 12.765625 48.109375 
Q 20.015625 56 32.328125 56 
Q 43.359375 56 49.78125 48.890625 
Q 56.203125 41.796875 56.203125 29.59375 
z
M 47.21875 32.234375 
Q 47.125 39.59375 43.09375 43.984375 
Q 39.0625 48.390625 32.421875 48.390625 
Q 24.90625 48.390625 20.390625 44.140625 
Q 15.875 39.890625 15.1875 32.171875 
z
" id="DejaVuSans-101"/>
      <path id="DejaVuSans-32"/>
      <path d="M 8.59375 75.984375 
L 29.296875 75.984375 
L 29.296875 69 
L 17.578125 69 
L 17.578125 -6.203125 
L 29.296875 -6.203125 
L 29.296875 -13.1875 
L 8.59375 -13.1875 
z
" id="DejaVuSans-91"/>
      <path d="M 44.28125 53.078125 
L 44.28125 44.578125 
Q 40.484375 46.53125 36.375 47.5 
Q 32.28125 48.484375 27.875 48.484375 
Q 21.1875 48.484375 17.84375 46.4375 
Q 14.5 44.390625 14.5 40.28125 
Q 14.5 37.15625 16.890625 35.375 
Q 19.28125 33.59375 26.515625 31.984375 
L 29.59375 31.296875 
Q 39.15625 29.25 43.1875 25.515625 
Q 47.21875 21.78125 47.21875 15.09375 
Q 47.21875 7.46875 41.1875 3.015625 
Q 35.15625 -1.421875 24.609375 -1.421875 
Q 20.21875 -1.421875 15.453125 -0.5625 
Q 10.6875 0.296875 5.421875 2 
L 5.421875 11.28125 
Q 10.40625 8.6875 15.234375 7.390625 
Q 20.0625 6.109375 24.8125 6.109375 
Q 31.15625 6.109375 34.5625 8.28125 
Q 37.984375 10.453125 37.984375 14.40625 
Q 37.984375 18.0625 35.515625 20.015625 
Q 33.0625 21.96875 24.703125 23.78125 
L 21.578125 24.515625 
Q 13.234375 26.265625 9.515625 29.90625 
Q 5.8125 33.546875 5.8125 39.890625 
Q 5.8125 47.609375 11.28125 51.796875 
Q 16.75 56 26.8125 56 
Q 31.78125 56 36.171875 55.265625 
Q 40.578125 54.546875 44.28125 53.078125 
z
" id="DejaVuSans-115"/>
      <path d="M 30.421875 75.984375 
L 30.421875 -13.1875 
L 9.71875 -13.1875 
L 9.71875 -6.203125 
L 21.390625 -6.203125 
L 21.390625 69 
L 9.71875 69 
L 9.71875 75.984375 
z
" id="DejaVuSans-93"/>
     </defs>
     <g transform="translate(1432.293437 1071.592572)scale(0.26 -0.26)">
      <use xlink:href="#DejaVuSans-84"/>
      <use x="61.037109" xlink:href="#DejaVuSans-105"/>
      <use x="88.820312" xlink:href="#DejaVuSans-109"/>
      <use x="186.232422" xlink:href="#DejaVuSans-101"/>
      <use x="247.755859" xlink:href="#DejaVuSans-32"/>
      <use x="279.542969" xlink:href="#DejaVuSans-91"/>
      <use x="318.556641" xlink:href="#DejaVuSans-115"/>
      <use x="370.65625" xlink:href="#DejaVuSans-93"/>
     </g>
    </g>
   </g>
   <g id="matplotlib.axis_2">
    <g id="ytick_1">
     <g id="line2d_9">
      <defs>
       <path d="M 0 0 
L -3.5 0 
" id="m84c6aaf1ec" style="stroke:#000000;stroke-width:0.8;"/>
      </defs>
      <g>
       <use style="stroke:#000000;stroke-width:0.8;" x="94.09774" xlink:href="#m84c6aaf1ec" y="920.247653"/>
      </g>
     </g>
     <g id="text_10">
      <!-- −140 -->
      <defs>
       <path d="M 10.59375 35.5 
L 73.1875 35.5 
L 73.1875 27.203125 
L 10.59375 27.203125 
z
" id="DejaVuSans-8722"/>
       <path d="M 37.796875 64.3125 
L 12.890625 25.390625 
L 37.796875 25.390625 
z
M 35.203125 72.90625 
L 47.609375 72.90625 
L 47.609375 25.390625 
L 58.015625 25.390625 
L 58.015625 17.1875 
L 47.609375 17.1875 
L 47.609375 0 
L 37.796875 0 
L 37.796875 17.1875 
L 4.890625 17.1875 
L 4.890625 26.703125 
z
" id="DejaVuSans-52"/>
      </defs>
      <g transform="translate(32.163365 927.84609)scale(0.2 -0.2)">
       <use xlink:href="#DejaVuSans-8722"/>
       <use x="83.789062" xlink:href="#DejaVuSans-49"/>
       <use x="147.412109" xlink:href="#DejaVuSans-52"/>
       <use x="211.035156" xlink:href="#DejaVuSans-48"/>
      </g>
     </g>
    </g>
    <g id="ytick_2">
     <g id="line2d_10">
      <g>
       <use style="stroke:#000000;stroke-width:0.8;" x="94.09774" xlink:href="#m84c6aaf1ec" y="816.948946"/>
      </g>
     </g>
     <g id="text_11">
      <!-- −120 -->
      <g transform="translate(32.163365 824.547384)scale(0.2 -0.2)">
       <use xlink:href="#DejaVuSans-8722"/>
       <use x="83.789062" xlink:href="#DejaVuSans-49"/>
       <use x="147.412109" xlink:href="#DejaVuSans-50"/>
       <use x="211.035156" xlink:href="#DejaVuSans-48"/>
      </g>
     </g>
    </g>
    <g id="ytick_3">
     <g id="line2d_11">
      <g>
       <use style="stroke:#000000;stroke-width:0.8;" x="94.09774" xlink:href="#m84c6aaf1ec" y="713.65024"/>
      </g>
     </g>
     <g id="text_12">
      <!-- −100 -->
      <g transform="translate(32.163365 721.248678)scale(0.2 -0.2)">
       <use xlink:href="#DejaVuSans-8722"/>
       <use x="83.789062" xlink:href="#DejaVuSans-49"/>
       <use x="147.412109" xlink:href="#DejaVuSans-48"/>
       <use x="211.035156" xlink:href="#DejaVuSans-48"/>
      </g>
     </g>
    </g>
    <g id="ytick_4">
     <g id="line2d_12">
      <g>
       <use style="stroke:#000000;stroke-width:0.8;" x="94.09774" xlink:href="#m84c6aaf1ec" y="610.351534"/>
      </g>
     </g>
     <g id="text_13">
      <!-- −80 -->
      <defs>
       <path d="M 31.78125 34.625 
Q 24.75 34.625 20.71875 30.859375 
Q 16.703125 27.09375 16.703125 20.515625 
Q 16.703125 13.921875 20.71875 10.15625 
Q 24.75 6.390625 31.78125 6.390625 
Q 38.8125 6.390625 42.859375 10.171875 
Q 46.921875 13.96875 46.921875 20.515625 
Q 46.921875 27.09375 42.890625 30.859375 
Q 38.875 34.625 31.78125 34.625 
z
M 21.921875 38.8125 
Q 15.578125 40.375 12.03125 44.71875 
Q 8.5 49.078125 8.5 55.328125 
Q 8.5 64.0625 14.71875 69.140625 
Q 20.953125 74.21875 31.78125 74.21875 
Q 42.671875 74.21875 48.875 69.140625 
Q 55.078125 64.0625 55.078125 55.328125 
Q 55.078125 49.078125 51.53125 44.71875 
Q 48 40.375 41.703125 38.8125 
Q 48.828125 37.15625 52.796875 32.3125 
Q 56.78125 27.484375 56.78125 20.515625 
Q 56.78125 9.90625 50.3125 4.234375 
Q 43.84375 -1.421875 31.78125 -1.421875 
Q 19.734375 -1.421875 13.25 4.234375 
Q 6.78125 9.90625 6.78125 20.515625 
Q 6.78125 27.484375 10.78125 32.3125 
Q 14.796875 37.15625 21.921875 38.8125 
z
M 18.3125 54.390625 
Q 18.3125 48.734375 21.84375 45.5625 
Q 25.390625 42.390625 31.78125 42.390625 
Q 38.140625 42.390625 41.71875 45.5625 
Q 45.3125 48.734375 45.3125 54.390625 
Q 45.3125 60.0625 41.71875 63.234375 
Q 38.140625 66.40625 31.78125 66.40625 
Q 25.390625 66.40625 21.84375 63.234375 
Q 18.3125 60.0625 18.3125 54.390625 
z
" id="DejaVuSans-56"/>
      </defs>
      <g transform="translate(44.888365 617.949971)scale(0.2 -0.2)">
       <use xlink:href="#DejaVuSans-8722"/>
       <use x="83.789062" xlink:href="#DejaVuSans-56"/>
       <use x="147.412109" xlink:href="#DejaVuSans-48"/>
      </g>
     </g>
    </g>
    <g id="ytick_5">
     <g id="line2d_13">
      <g>
       <use style="stroke:#000000;stroke-width:0.8;" x="94.09774" xlink:href="#m84c6aaf1ec" y="507.052827"/>
      </g>
     </g>
     <g id="text_14">
      <!-- −60 -->
      <defs>
       <path d="M 33.015625 40.375 
Q 26.375 40.375 22.484375 35.828125 
Q 18.609375 31.296875 18.609375 23.390625 
Q 18.609375 15.53125 22.484375 10.953125 
Q 26.375 6.390625 33.015625 6.390625 
Q 39.65625 6.390625 43.53125 10.953125 
Q 47.40625 15.53125 47.40625 23.390625 
Q 47.40625 31.296875 43.53125 35.828125 
Q 39.65625 40.375 33.015625 40.375 
z
M 52.59375 71.296875 
L 52.59375 62.3125 
Q 48.875 64.0625 45.09375 64.984375 
Q 41.3125 65.921875 37.59375 65.921875 
Q 27.828125 65.921875 22.671875 59.328125 
Q 17.53125 52.734375 16.796875 39.40625 
Q 19.671875 43.65625 24.015625 45.921875 
Q 28.375 48.1875 33.59375 48.1875 
Q 44.578125 48.1875 50.953125 41.515625 
Q 57.328125 34.859375 57.328125 23.390625 
Q 57.328125 12.15625 50.6875 5.359375 
Q 44.046875 -1.421875 33.015625 -1.421875 
Q 20.359375 -1.421875 13.671875 8.265625 
Q 6.984375 17.96875 6.984375 36.375 
Q 6.984375 53.65625 15.1875 63.9375 
Q 23.390625 74.21875 37.203125 74.21875 
Q 40.921875 74.21875 44.703125 73.484375 
Q 48.484375 72.75 52.59375 71.296875 
z
" id="DejaVuSans-54"/>
      </defs>
      <g transform="translate(44.888365 514.651265)scale(0.2 -0.2)">
       <use xlink:href="#DejaVuSans-8722"/>
       <use x="83.789062" xlink:href="#DejaVuSans-54"/>
       <use x="147.412109" xlink:href="#DejaVuSans-48"/>
      </g>
     </g>
    </g>
    <g id="ytick_6">
     <g id="line2d_14">
      <g>
       <use style="stroke:#000000;stroke-width:0.8;" x="94.09774" xlink:href="#m84c6aaf1ec" y="403.754121"/>
      </g>
     </g>
     <g id="text_15">
      <!-- −40 -->
      <g transform="translate(44.888365 411.352559)scale(0.2 -0.2)">
       <use xlink:href="#DejaVuSans-8722"/>
       <use x="83.789062" xlink:href="#DejaVuSans-52"/>
       <use x="147.412109" xlink:href="#DejaVuSans-48"/>
      </g>
     </g>
    </g>
    <g id="ytick_7">
     <g id="line2d_15">
      <g>
       <use style="stroke:#000000;stroke-width:0.8;" x="94.09774" xlink:href="#m84c6aaf1ec" y="300.455415"/>
      </g>
     </g>
     <g id="text_16">
      <!-- −20 -->
      <g transform="translate(44.888365 308.053852)scale(0.2 -0.2)">
       <use xlink:href="#DejaVuSans-8722"/>
       <use x="83.789062" xlink:href="#DejaVuSans-50"/>
       <use x="147.412109" xlink:href="#DejaVuSans-48"/>
      </g>
     </g>
    </g>
    <g id="ytick_8">
     <g id="line2d_16">
      <g>
       <use style="stroke:#000000;stroke-width:0.8;" x="94.09774" xlink:href="#m84c6aaf1ec" y="197.156708"/>
      </g>
     </g>
     <g id="text_17">
      <!-- 0 -->
      <g transform="translate(74.37274 204.755146)scale(0.2 -0.2)">
       <use xlink:href="#DejaVuSans-48"/>
      </g>
     </g>
    </g>
    <g id="text_18">
     <!-- Length [m] -->
     <defs>
      <path d="M 9.8125 72.90625 
L 19.671875 72.90625 
L 19.671875 8.296875 
L 55.171875 8.296875 
L 55.171875 0 
L 9.8125 0 
z
" id="DejaVuSans-76"/>
      <path d="M 54.890625 33.015625 
L 54.890625 0 
L 45.90625 0 
L 45.90625 32.71875 
Q 45.90625 40.484375 42.875 44.328125 
Q 39.84375 48.1875 33.796875 48.1875 
Q 26.515625 48.1875 22.3125 43.546875 
Q 18.109375 38.921875 18.109375 30.90625 
L 18.109375 0 
L 9.078125 0 
L 9.078125 54.6875 
L 18.109375 54.6875 
L 18.109375 46.1875 
Q 21.34375 51.125 25.703125 53.5625 
Q 30.078125 56 35.796875 56 
Q 45.21875 56 50.046875 50.171875 
Q 54.890625 44.34375 54.890625 33.015625 
z
" id="DejaVuSans-110"/>
      <path d="M 45.40625 27.984375 
Q 45.40625 37.75 41.375 43.109375 
Q 37.359375 48.484375 30.078125 48.484375 
Q 22.859375 48.484375 18.828125 43.109375 
Q 14.796875 37.75 14.796875 27.984375 
Q 14.796875 18.265625 18.828125 12.890625 
Q 22.859375 7.515625 30.078125 7.515625 
Q 37.359375 7.515625 41.375 12.890625 
Q 45.40625 18.265625 45.40625 27.984375 
z
M 54.390625 6.78125 
Q 54.390625 -7.171875 48.1875 -13.984375 
Q 42 -20.796875 29.203125 -20.796875 
Q 24.46875 -20.796875 20.265625 -20.09375 
Q 16.0625 -19.390625 12.109375 -17.921875 
L 12.109375 -9.1875 
Q 16.0625 -11.328125 19.921875 -12.34375 
Q 23.78125 -13.375 27.78125 -13.375 
Q 36.625 -13.375 41.015625 -8.765625 
Q 45.40625 -4.15625 45.40625 5.171875 
L 45.40625 9.625 
Q 42.625 4.78125 38.28125 2.390625 
Q 33.9375 0 27.875 0 
Q 17.828125 0 11.671875 7.65625 
Q 5.515625 15.328125 5.515625 27.984375 
Q 5.515625 40.671875 11.671875 48.328125 
Q 17.828125 56 27.875 56 
Q 33.9375 56 38.28125 53.609375 
Q 42.625 51.21875 45.40625 46.390625 
L 45.40625 54.6875 
L 54.390625 54.6875 
z
" id="DejaVuSans-103"/>
      <path d="M 18.3125 70.21875 
L 18.3125 54.6875 
L 36.8125 54.6875 
L 36.8125 47.703125 
L 18.3125 47.703125 
L 18.3125 18.015625 
Q 18.3125 11.328125 20.140625 9.421875 
Q 21.96875 7.515625 27.59375 7.515625 
L 36.8125 7.515625 
L 36.8125 0 
L 27.59375 0 
Q 17.1875 0 13.234375 3.875 
Q 9.28125 7.765625 9.28125 18.015625 
L 9.28125 47.703125 
L 2.6875 47.703125 
L 2.6875 54.6875 
L 9.28125 54.6875 
L 9.28125 70.21875 
z
" id="DejaVuSans-116"/>
      <path d="M 54.890625 33.015625 
L 54.890625 0 
L 45.90625 0 
L 45.90625 32.71875 
Q 45.90625 40.484375 42.875 44.328125 
Q 39.84375 48.1875 33.796875 48.1875 
Q 26.515625 48.1875 22.3125 43.546875 
Q 18.109375 38.921875 18.109375 30.90625 
L 18.109375 0 
L 9.078125 0 
L 9.078125 75.984375 
L 18.109375 75.984375 
L 18.109375 46.1875 
Q 21.34375 51.125 25.703125 53.5625 
Q 30.078125 56 35.796875 56 
Q 45.21875 56 50.046875 50.171875 
Q 54.890625 44.34375 54.890625 33.015625 
z
" id="DejaVuSans-104"/>
     </defs>
     <g transform="translate(22.756178 661.697574)rotate(-90)scale(0.26 -0.26)">
      <use xlink:href="#DejaVuSans-76"/>
      <use x="55.697266" xlink:href="#DejaVuSans-101"/>
      <use x="117.220703" xlink:href="#DejaVuSans-110"/>
      <use x="180.599609" xlink:href="#DejaVuSans-103"/>
      <use x="244.076172" xlink:href="#DejaVuSans-116"/>
      <use x="283.285156" xlink:href="#DejaVuSans-104"/>
      <use x="346.664062" xlink:href="#DejaVuSans-32"/>
      <use x="378.451172" xlink:href="#DejaVuSans-91"/>
      <use x="417.464844" xlink:href="#DejaVuSans-109"/>
      <use x="514.876953" xlink:href="#DejaVuSans-93"/>
     </g>
    </g>
   </g>
   <g id="line2d_17">
    <path clip-path="url(#p51fe5e07df)" d="M 220.593286 205.8903 
L 224.723597 203.83831 
L 227.477903 202.854818 
L 230.920363 201.88115 
L 235.051067 200.937226 
L 239.869328 200.056086 
L 240.557062 199.946328 
L 241.245987 197.156708 
L 241.935838 197.156708 
L 242.623193 624.670421 
L 243.998873 197.156708 
L 244.689616 197.156708 
L 245.377574 640.27242 
L 246.065892 324.343406 
L 246.752684 197.156708 
L 247.442811 197.156708 
L 248.131532 634.273619 
L 248.819898 231.281123 
L 249.507712 197.156708 
L 250.196152 197.156708 
L 250.884261 608.942691 
L 251.572093 197.156708 
L 252.262023 197.156708 
L 252.950261 239.605027 
L 253.636682 567.785714 
L 254.326001 197.156708 
L 255.01434 197.156708 
L 255.702893 302.63455 
L 256.39135 514.610677 
L 257.078981 197.156708 
L 257.767929 197.156708 
L 258.457662 347.935771 
L 259.145236 454.001805 
L 259.833241 197.156708 
L 260.522175 197.156708 
L 261.209605 374.801862 
L 261.897466 390.710097 
L 262.586845 197.156708 
L 263.274358 197.156708 
L 263.963714 383.115886 
L 264.651093 329.470067 
L 265.33969 197.156708 
L 266.02822 197.156708 
L 266.71653 375.3897 
L 267.406372 274.627894 
L 268.095268 197.156708 
L 268.782669 197.156708 
L 269.47086 353.762183 
L 270.160733 229.821746 
L 270.846925 197.156708 
L 271.53754 197.156708 
L 272.223988 321.105456 
L 272.913199 197.273405 
L 273.600632 197.156708 
L 274.28955 197.156708 
L 274.978649 286.122116 
L 275.666404 197.156708 
L 277.043289 197.156708 
L 277.731205 247.868667 
L 278.419335 197.156708 
L 279.796924 197.156708 
L 280.486184 210.097009 
L 281.175249 197.156708 
L 657.734577 197.156708 
L 658.42255 809.42291 
L 659.1114 197.156708 
L 659.800194 197.156708 
L 660.488376 742.319993 
L 661.177183 727.06368 
L 661.864254 197.156708 
L 662.554881 197.156708 
L 663.241825 747.009732 
L 663.930728 684.007241 
L 664.618771 197.156708 
L 665.30859 197.156708 
L 665.996852 777.886822 
L 666.68354 617.352064 
L 667.372162 197.156708 
L 668.06038 197.156708 
L 668.749054 817.099412 
L 670.125664 197.156708 
L 670.814857 197.156708 
L 671.502978 854.893934 
L 672.191132 404.562243 
L 672.878974 197.156708 
L 673.569066 197.156708 
L 674.255764 879.280467 
L 674.944958 255.906151 
L 675.633209 197.156708 
L 676.321427 197.156708 
L 677.009159 877.44829 
L 677.699005 197.156708 
L 678.388155 197.156708 
L 679.075231 274.180365 
L 679.763764 835.979483 
L 680.451995 197.156708 
L 681.141879 197.156708 
L 682.516751 743.373675 
L 683.207076 197.156708 
L 683.894045 197.156708 
L 684.581381 627.094971 
L 685.272582 593.108615 
L 685.959825 197.156708 
L 686.647537 197.156708 
L 687.335438 742.342573 
L 688.024498 387.592425 
L 688.713006 197.156708 
L 689.400819 197.156708 
L 690.09046 784.358982 
L 690.777555 197.156708 
L 691.467679 197.156708 
L 692.155286 275.642142 
L 692.844177 739.477771 
L 693.531779 197.156708 
L 694.220084 197.156708 
L 694.908666 502.924387 
L 695.597495 603.208167 
L 696.285435 197.156708 
L 696.973123 197.156708 
L 697.66239 656.955088 
L 698.351689 388.937338 
L 699.038821 197.156708 
L 699.728816 197.156708 
L 700.417241 708.573551 
L 701.104876 197.156708 
L 701.792928 197.156708 
L 702.481662 277.693598 
L 703.170121 655.954452 
L 703.857845 197.156708 
L 704.547658 197.156708 
L 705.23453 483.997308 
L 705.92458 511.479598 
L 706.612226 197.156708 
L 707.299858 197.156708 
L 707.988986 605.840759 
L 708.675902 301.126949 
L 709.366137 197.156708 
L 710.053726 197.156708 
L 710.743343 625.582487 
L 711.431772 197.156708 
L 712.120051 197.156708 
L 712.808134 309.61259 
L 713.497191 547.467028 
L 714.183996 197.156708 
L 714.872071 197.156708 
L 715.560832 472.08081 
L 716.249434 390.610078 
L 716.93712 197.156708 
L 717.62595 197.156708 
L 718.315245 545.028564 
L 719.00361 197.156708 
L 720.380504 197.156708 
L 721.068988 520.013596 
L 721.756681 197.156708 
L 722.445507 197.156708 
L 723.133801 345.839139 
L 723.823345 409.267357 
L 724.511755 197.156708 
L 725.199374 197.156708 
L 725.886722 445.980809 
L 726.575532 240.482325 
L 727.263844 197.156708 
L 727.953952 197.156708 
L 728.640729 453.298085 
L 729.328383 197.156708 
L 730.019043 197.156708 
L 730.705485 255.654456 
L 731.394028 376.393353 
L 732.082247 197.156708 
L 732.771023 197.156708 
L 733.459361 360.108081 
L 734.148557 237.758178 
L 734.835885 197.156708 
L 735.525365 197.156708 
L 736.21383 377.297791 
L 736.901604 197.156708 
L 737.589878 197.156708 
L 738.277736 210.751898 
L 738.966823 312.079738 
L 739.655132 197.156708 
L 740.344476 197.156708 
L 741.032171 295.01313 
L 741.720505 197.156708 
L 743.097156 197.156708 
L 743.785553 295.162853 
L 744.473653 197.156708 
L 745.850165 197.156708 
L 746.539496 223.522689 
L 747.228064 197.156708 
L 747.915464 197.156708 
L 748.605448 234.990213 
L 749.292238 197.156708 
L 750.671151 197.156708 
L 751.35866 199.598983 
L 752.046822 197.156708 
L 1070.092198 197.156708 
L 1071.470031 283.716394 
L 1072.159187 197.156708 
L 1072.845861 197.156708 
L 1073.535293 659.511999 
L 1074.223039 197.156708 
L 1074.911388 197.156708 
L 1075.599634 342.668612 
L 1076.287504 572.427514 
L 1076.975666 197.156708 
L 1077.666385 197.156708 
L 1078.353108 508.50684 
L 1079.041224 405.243173 
L 1079.730471 197.156708 
L 1080.418846 197.156708 
L 1081.10679 581.489108 
L 1081.795351 197.156708 
L 1083.17192 197.156708 
L 1083.861388 554.309198 
L 1084.548561 197.156708 
L 1085.23811 197.156708 
L 1085.92562 365.852374 
L 1086.614168 442.129113 
L 1087.302691 197.156708 
L 1087.99095 197.156708 
L 1088.68121 474.431435 
L 1089.368442 270.525311 
L 1090.056177 197.156708 
L 1090.744621 197.156708 
L 1091.433538 490.084591 
L 1092.120763 197.156708 
L 1092.809155 197.156708 
L 1093.49809 251.259973 
L 1094.186069 419.061811 
L 1094.875222 197.156708 
L 1095.563916 197.156708 
L 1096.253436 368.749607 
L 1097.628539 197.156708 
L 1098.316648 197.156708 
L 1099.006095 403.239283 
L 1099.695643 197.156708 
L 1101.070158 197.156708 
L 1101.759128 357.456654 
L 1102.447517 197.156708 
L 1103.137482 197.156708 
L 1103.825146 289.320413 
L 1104.513697 251.462415 
L 1105.202519 197.156708 
L 1105.890907 197.156708 
L 1106.577994 320.403875 
L 1107.265697 197.156708 
L 1108.643195 197.156708 
L 1109.331138 276.644816 
L 1110.020036 197.156708 
L 1110.709263 197.156708 
L 1111.39711 234.398345 
L 1112.08543 197.156708 
L 1113.462155 197.156708 
L 1114.150061 236.053573 
L 1114.840427 197.156708 
L 1485.892334 197.156708 
L 1486.580811 518.775365 
L 1487.268359 197.156708 
L 1487.958452 197.156708 
L 1488.645264 253.578412 
L 1489.333957 629.711551 
L 1490.023071 197.156708 
L 1490.710785 197.156708 
L 1491.399085 286.87818 
L 1492.088227 587.462301 
L 1492.777001 197.156708 
L 1493.46636 197.156708 
L 1494.841568 528.120098 
L 1495.529968 197.156708 
L 1496.2189 197.156708 
L 1496.906785 432.688058 
L 1497.595383 451.833255 
L 1498.283032 197.156708 
L 1498.971972 197.156708 
L 1499.66091 480.421192 
L 1500.348401 358.49433 
L 1501.03676 197.156708 
L 1501.726119 197.156708 
L 1502.415666 506.195009 
L 1503.10283 250.686367 
L 1503.790597 197.156708 
L 1504.479361 197.156708 
L 1505.168254 506.000368 
L 1505.856373 197.156708 
L 1507.233282 197.156708 
L 1507.921659 478.532366 
L 1508.610798 197.156708 
L 1509.29883 197.156708 
L 1509.98603 256.272263 
L 1510.675794 422.251499 
L 1511.363899 197.156708 
L 1512.053445 197.156708 
L 1512.741274 334.804872 
L 1513.429114 337.621289 
L 1514.118627 197.156708 
L 1514.805517 197.156708 
L 1515.493308 381.196563 
L 1516.183867 227.981028 
L 1516.870916 197.156708 
L 1517.559021 197.156708 
L 1518.247498 388.246131 
L 1518.936021 197.156708 
L 1520.312734 197.156708 
L 1521.001924 353.208366 
L 1521.690106 197.156708 
L 1522.37814 197.156708 
L 1523.068015 241.58169 
L 1523.75625 275.988646 
L 1524.44386 197.156708 
L 1525.131194 197.156708 
L 1525.820129 294.134099 
L 1526.509174 197.156708 
L 1527.886053 197.156708 
L 1528.573778 289.892533 
L 1529.263469 197.156708 
L 1530.638383 197.156708 
L 1531.327147 227.476106 
L 1532.015886 197.156708 
L 1532.705513 197.156708 
L 1533.394014 226.704706 
L 1534.081362 197.156708 
L 1535.457766 197.156708 
L 1536.148162 210.624311 
L 1536.834642 197.156708 
L 1898.938685 197.156708 
L 1899.627187 982.226877 
L 1900.315057 353.501012 
L 1901.003473 197.156708 
L 1901.692935 197.156708 
L 1902.379676 982.226877 
L 1903.070707 197.156708 
L 1904.445965 197.156708 
L 1905.133994 982.226877 
L 1905.822885 982.226877 
L 1906.51103 197.156708 
L 1907.887625 197.156708 
L 1908.577815 982.226877 
L 1909.265579 792.529374 
L 1909.954071 197.156708 
L 1910.642071 197.156708 
L 1911.330888 712.002298 
L 1912.017975 982.226877 
L 1912.70695 197.156708 
L 1914.08439 197.156708 
L 1914.77257 982.226877 
L 1915.460816 896.646639 
L 1916.149758 197.156708 
L 1916.838027 197.156708 
L 1917.526474 664.858614 
L 1918.213668 982.226877 
L 1918.902904 197.156708 
L 1920.279101 197.156708 
L 1920.967895 982.226877 
L 1922.344697 197.156708 
L 1923.033755 197.156708 
L 1923.721519 969.072698 
L 1924.409169 982.226877 
L 1925.097418 197.156708 
L 1925.786199 197.156708 
L 1926.476124 520.08899 
L 1927.162999 982.226877 
L 1927.852284 197.156708 
L 1929.229169 197.156708 
L 1929.917967 982.226877 
L 1930.606442 313.530309 
L 1931.294036 197.156708 
L 1931.983014 197.156708 
L 1932.670257 982.226877 
L 1934.048919 197.156708 
L 1934.736217 197.156708 
L 1935.424386 982.226877 
L 1936.112717 783.291325 
L 1936.80204 197.156708 
L 1937.491134 197.156708 
L 1938.179776 853.428395 
L 1938.867083 883.763971 
L 1939.555145 197.156708 
L 1940.243727 197.156708 
L 1940.932068 750.567371 
L 1941.621203 928.292259 
L 1942.308553 197.156708 
L 1942.996968 197.156708 
L 1943.686536 689.169337 
L 1944.374152 934.31666 
L 1945.061428 197.156708 
L 1945.75087 197.156708 
L 1946.440588 671.529225 
L 1947.128429 911.540652 
L 1947.81554 197.156708 
L 1948.504221 197.156708 
L 1949.193352 692.67878 
L 1949.880445 862.854256 
L 1950.570227 197.156708 
L 1951.258061 197.156708 
L 1951.946862 743.227594 
L 1952.635904 785.656282 
L 1953.324748 197.156708 
L 1954.011929 197.156708 
L 1954.700464 811.257674 
L 1955.388626 676.031349 
L 1956.076033 197.156708 
L 1956.766385 197.156708 
L 1957.453408 881.608134 
L 1958.831388 197.156708 
L 1959.518746 197.156708 
L 1960.207454 935.780574 
L 1960.895187 359.19679 
L 1961.584118 197.156708 
L 1962.272074 197.156708 
L 1962.960717 954.566647 
L 1963.649924 197.156708 
L 1964.339135 197.156708 
L 1965.026529 243.864929 
L 1965.713784 925.113925 
L 1966.402965 197.156708 
L 1967.092389 197.156708 
L 1967.780589 447.484368 
L 1968.467463 840.455721 
L 1969.155897 197.156708 
L 1969.844884 197.156708 
L 1970.533469 625.544521 
L 1971.223023 701.224964 
L 1971.90957 197.156708 
L 1972.599098 197.156708 
L 1973.287202 756.100489 
L 1973.975497 518.644177 
L 1974.664377 197.156708 
L 1975.352349 197.156708 
L 1976.042252 827.662038 
L 1976.730342 313.536683 
L 1977.417611 197.156708 
L 1978.106049 197.156708 
L 1978.793527 835.162632 
L 1979.482557 197.156708 
L 1980.172626 197.156708 
L 1980.861196 313.910811 
L 1981.547772 781.500859 
L 1982.235921 197.156708 
L 1982.924694 197.156708 
L 1983.613977 486.963159 
L 1984.301643 674.636098 
L 1984.989991 197.156708 
L 1985.678371 197.156708 
L 1986.366435 615.741722 
L 1987.054965 527.532078 
L 1987.745193 197.156708 
L 1988.432796 197.156708 
L 1989.120362 691.732477 
L 1989.80893 357.006323 
L 1990.497448 197.156708 
L 1991.18541 197.156708 
L 1991.874041 712.20956 
L 1992.563768 197.156708 
L 1993.250663 197.156708 
L 1993.939082 222.817825 
L 1994.627806 678.817358 
L 1995.315723 197.156708 
L 1996.004053 197.156708 
L 1996.693211 371.41985 
L 1997.382532 598.834949 
L 1998.071032 197.156708 
L 1998.758126 197.156708 
L 1999.446682 482.770802 
L 2000.135128 484.517292 
L 2000.822834 197.156708 
L 2001.51246 197.156708 
L 2002.200424 547.907262 
L 2002.888229 350.724359 
L 2003.576825 197.156708 
L 2004.264953 197.156708 
L 2004.953011 566.417596 
L 2005.642459 214.100461 
L 2006.330967 197.156708 
L 2007.02061 197.156708 
L 2007.707468 541.288974 
L 2008.396574 197.156708 
L 2009.084229 197.156708 
L 2009.7726 278.225354 
L 2010.460274 480.493191 
L 2011.149574 197.156708 
L 2011.837685 197.156708 
L 2012.526156 356.929259 
L 2013.215132 395.76491 
L 2013.902794 197.156708 
L 2014.591706 197.156708 
L 2015.280004 397.440343 
L 2016.656857 197.156708 
L 2017.345437 197.156708 
L 2018.033642 399.849684 
L 2018.722689 210.594473 
L 2019.411742 197.156708 
L 2020.09887 197.156708 
L 2020.787952 371.387519 
L 2021.475681 197.156708 
L 2022.163856 197.156708 
L 2022.852267 201.726644 
L 2023.541006 323.123889 
L 2024.228789 197.156708 
L 2024.917432 197.156708 
L 2026.294862 267.129162 
L 2026.982199 197.156708 
L 2027.670748 197.156708 
L 2028.361364 233.372999 
L 2029.736303 197.156708 
L 2030.426855 197.156708 
L 2031.113443 210.822719 
L 2031.801979 197.156708 
L 2314.051103 197.156708 
L 2314.738556 805.71893 
L 2315.426978 545.094555 
L 2316.116013 197.156708 
L 2316.803369 197.156708 
L 2317.493805 596.071577 
L 2318.181944 505.333902 
L 2318.868983 197.156708 
L 2319.556801 197.156708 
L 2320.245984 651.378856 
L 2320.9342 479.37752 
L 2321.624136 197.156708 
L 2322.310808 197.156708 
L 2323.000987 633.085281 
L 2323.687475 463.544246 
L 2324.377748 197.156708 
L 2325.064697 197.156708 
L 2325.753004 626.895531 
L 2326.441112 429.118406 
L 2327.129194 197.156708 
L 2327.820057 197.156708 
L 2328.506448 628.807327 
L 2329.196099 375.99684 
L 2329.88362 197.156708 
L 2330.573707 197.156708 
L 2331.260655 632.363551 
L 2331.949782 304.456614 
L 2332.637166 197.156708 
L 2333.325815 197.156708 
L 2334.013507 630.323665 
L 2334.702494 215.72218 
L 2335.390971 197.156708 
L 2336.078818 197.156708 
L 2336.767736 616.599103 
L 2337.455883 197.156708 
L 2338.14483 197.156708 
L 2338.832921 210.570852 
L 2339.521536 585.70192 
L 2340.210095 197.156708 
L 2340.897476 197.156708 
L 2341.586072 301.296873 
L 2342.27424 536.321023 
L 2342.963184 197.156708 
L 2343.651676 197.156708 
L 2344.340238 378.651237 
L 2345.028312 466.487733 
L 2345.716879 197.156708 
L 2346.405393 197.156708 
L 2347.093988 437.225547 
L 2347.783847 378.322322 
L 2348.470982 197.156708 
L 2349.159602 197.156708 
L 2349.847874 472.953564 
L 2350.536089 272.809087 
L 2351.225188 197.156708 
L 2351.912786 197.156708 
L 2352.601278 481.528691 
L 2353.290531 197.156708 
L 2354.666243 197.156708 
L 2355.355605 459.441588 
L 2356.044809 197.156708 
L 2356.732276 197.156708 
L 2357.42005 232.108602 
L 2358.108042 406.099434 
L 2358.797021 197.156708 
L 2359.48551 197.156708 
L 2360.173526 313.997046 
L 2360.86289 322.080856 
L 2361.550421 197.156708 
L 2362.239394 197.156708 
L 2362.927258 361.641871 
L 2363.615937 211.522409 
L 2364.304135 197.156708 
L 2364.992686 197.156708 
L 2365.680699 366.600415 
L 2366.371162 197.156708 
L 2367.746293 197.156708 
L 2368.434542 324.880161 
L 2369.122704 197.156708 
L 2369.812902 197.156708 
L 2370.499588 243.552328 
L 2371.188988 239.345424 
L 2371.878146 197.156708 
L 2372.566692 197.156708 
L 2373.254667 282.788365 
L 2373.941613 197.156708 
L 2375.320009 197.156708 
L 2376.0087 259.592975 
L 2376.695478 197.156708 
L 2380.138936 197.156708 
L 2380.825951 216.09369 
L 2381.5146 197.156708 
L 2750.504214 197.156708 
L 2750.504214 197.156708 
" style="fill:none;stroke:#008000;stroke-linecap:square;stroke-width:3;"/>
   </g>
   <g id="line2d_18">
    <path clip-path="url(#p51fe5e07df)" d="M 220.593286 197.156708 
L 240.557062 197.156708 
L 241.245987 325.549078 
L 241.935838 488.001449 
L 242.623193 197.156708 
L 243.311342 197.156708 
L 243.998873 670.273466 
L 245.377574 197.156708 
L 246.065892 197.156708 
L 246.752684 671.679643 
L 247.442811 321.139367 
L 248.131532 197.156708 
L 248.819898 197.156708 
L 249.507712 654.118024 
L 250.196152 232.547406 
L 250.884261 197.156708 
L 251.572093 245.76335 
L 252.262023 620.06194 
L 252.950261 197.156708 
L 253.636682 197.156708 
L 254.326001 314.43349 
L 255.01434 572.82213 
L 255.702893 197.156708 
L 256.39135 197.156708 
L 257.767929 516.319885 
L 258.457662 197.156708 
L 259.145236 197.156708 
L 259.833241 401.302966 
L 260.522175 454.614293 
L 261.209605 197.156708 
L 261.897466 197.156708 
L 262.586845 417.773092 
L 263.274358 392.272463 
L 263.963714 197.156708 
L 264.651093 197.156708 
L 265.33969 416.996969 
L 266.02822 333.948034 
L 266.71653 197.156708 
L 267.406372 197.156708 
L 268.095268 401.006554 
L 268.782669 283.327517 
L 269.47086 197.156708 
L 270.160733 197.156708 
L 270.846925 372.681837 
L 271.53754 243.74459 
L 272.223988 197.156708 
L 272.913199 197.156708 
L 273.600632 335.707501 
L 274.28955 219.786745 
L 274.978649 197.156708 
L 275.666404 215.048928 
L 276.354372 298.231903 
L 277.043289 208.193965 
L 277.731205 197.156708 
L 278.419335 218.62583 
L 279.108019 259.952785 
L 279.796924 210.868353 
L 280.486184 197.156708 
L 281.862085 222.312987 
L 288.057675 220.018582 
L 292.187829 218.796393 
L 296.31926 217.779067 
L 301.139125 216.805357 
L 306.646242 215.926419 
L 312.152622 215.238169 
L 319.037025 214.585692 
L 327.298804 214.027463 
L 337.62285 213.563703 
L 350.704708 213.218437 
L 368.602144 212.97834 
L 398.202963 212.83322 
L 469.110111 212.783678 
L 502.842013 212.784548 
L 656.358141 212.783657 
L 657.046516 729.703309 
L 657.734577 291.382859 
L 658.42255 197.156708 
L 659.1114 313.255569 
L 659.800194 761.536473 
L 660.488376 197.156708 
L 661.177183 197.156708 
L 661.864254 982.226877 
L 662.554881 982.226877 
L 663.241825 197.156708 
L 663.930728 197.156708 
L 664.618771 982.226877 
L 665.30859 927.796045 
L 665.996852 197.156708 
L 666.68354 197.156708 
L 667.372162 982.226877 
L 668.06038 827.739733 
L 668.749054 197.156708 
L 669.436599 197.156708 
L 670.125664 982.226877 
L 670.814857 694.243647 
L 671.502978 197.156708 
L 672.191132 197.156708 
L 672.878974 982.226877 
L 673.569066 525.699225 
L 674.255764 197.156708 
L 674.944958 197.156708 
L 675.633209 982.226877 
L 676.321427 326.718513 
L 677.009159 197.156708 
L 677.699005 328.88665 
L 678.388155 982.226877 
L 679.075231 197.156708 
L 679.763764 197.156708 
L 680.451995 542.979737 
L 681.141879 982.226877 
L 681.829097 197.156708 
L 682.516751 197.156708 
L 683.207076 749.107169 
L 683.894045 906.406196 
L 684.581381 197.156708 
L 685.272582 197.156708 
L 685.959825 920.376555 
L 686.647537 684.102026 
L 687.335438 197.156708 
L 688.024498 197.156708 
L 688.713006 982.226877 
L 689.400819 404.128869 
L 690.09046 197.156708 
L 690.777555 260.557226 
L 691.467679 982.226877 
L 692.155286 197.156708 
L 692.844177 197.156708 
L 694.220084 914.869571 
L 694.908666 197.156708 
L 695.597495 197.156708 
L 696.285435 792.469583 
L 696.973123 690.24569 
L 697.66239 197.156708 
L 698.351689 197.156708 
L 699.038821 936.313831 
L 699.728816 398.840691 
L 700.417241 197.156708 
L 701.104876 271.635637 
L 701.792928 945.000728 
L 702.481662 197.156708 
L 703.170121 197.156708 
L 703.857845 555.806374 
L 704.547658 821.747144 
L 705.23453 197.156708 
L 705.92458 197.156708 
L 706.612226 770.488547 
L 707.299858 597.347407 
L 707.988986 197.156708 
L 708.675902 197.156708 
L 709.366137 873.440299 
L 710.053726 324.938276 
L 710.743343 197.156708 
L 711.431772 349.678342 
L 712.120051 844.449644 
L 712.808134 197.156708 
L 713.497191 197.156708 
L 714.183996 591.182571 
L 714.872071 697.517454 
L 715.560832 197.156708 
L 716.249434 197.156708 
L 716.93712 750.680851 
L 718.315245 197.156708 
L 719.00361 209.862006 
L 719.691603 791.809629 
L 720.380504 228.083397 
L 721.068988 197.156708 
L 722.445507 711.671842 
L 723.133801 197.156708 
L 723.823345 197.156708 
L 724.511755 625.213526 
L 725.199374 538.13286 
L 725.886722 197.156708 
L 726.575532 197.156708 
L 727.263844 704.151721 
L 727.953952 323.429896 
L 728.640729 197.156708 
L 729.328383 360.089919 
L 730.019043 667.303114 
L 730.705485 197.156708 
L 731.394028 197.156708 
L 732.082247 535.808619 
L 732.771023 533.448127 
L 733.459361 197.156708 
L 734.148557 197.156708 
L 734.835885 622.192912 
L 735.525365 349.922322 
L 736.21383 197.156708 
L 736.901604 336.824917 
L 737.589878 596.670112 
L 738.277736 197.156708 
L 738.966823 197.156708 
L 739.655132 486.612827 
L 740.344476 481.094436 
L 741.032171 197.156708 
L 741.720505 205.112321 
L 742.409757 547.260955 
L 743.097156 327.075616 
L 743.785553 197.156708 
L 745.162044 505.625261 
L 745.850165 200.552105 
L 746.539496 197.156708 
L 747.228064 457.882927 
L 747.915464 395.820792 
L 748.605448 197.156708 
L 749.292238 290.30746 
L 749.982158 463.424367 
L 750.671151 281.232959 
L 751.35866 197.156708 
L 752.046822 385.615692 
L 752.734971 394.073488 
L 753.423927 226.086603 
L 754.113486 277.626258 
L 754.801074 399.449556 
L 756.176927 247.674588 
L 756.864754 332.523346 
L 757.555068 358.645993 
L 758.24356 291.996798 
L 758.931135 290.714258 
L 759.618768 328.93421 
L 760.307488 326.755517 
L 760.995995 316.338446 
L 761.683594 316.017064 
L 769.946043 315.518346 
L 780.271459 315.139209 
L 794.039275 314.873026 
L 815.380353 314.708165 
L 860.127241 314.638975 
L 1070.092198 314.632219 
L 1070.78094 197.156708 
L 1071.470031 197.156708 
L 1072.159187 889.827719 
L 1072.845861 293.391861 
L 1073.535293 197.156708 
L 1074.223039 369.025375 
L 1074.911388 849.854224 
L 1075.599634 197.156708 
L 1076.287504 197.156708 
L 1076.975666 610.757138 
L 1077.666385 694.023867 
L 1078.353108 197.156708 
L 1079.041224 197.156708 
L 1079.730471 766.543747 
L 1081.10679 197.156708 
L 1081.795351 203.621463 
L 1082.482773 804.670814 
L 1083.17192 214.070261 
L 1083.861388 197.156708 
L 1085.23811 723.842066 
L 1085.92562 197.156708 
L 1086.614168 197.156708 
L 1087.302691 626.494915 
L 1087.99095 550.934362 
L 1088.68121 197.156708 
L 1089.368442 197.156708 
L 1090.056177 712.813569 
L 1090.744621 335.543441 
L 1091.433538 197.156708 
L 1092.120763 329.74085 
L 1092.809155 685.920276 
L 1093.49809 197.156708 
L 1094.186069 197.156708 
L 1094.875222 509.571342 
L 1095.563916 563.661333 
L 1096.253436 197.156708 
L 1096.940321 197.156708 
L 1097.628539 610.549637 
L 1099.006095 197.156708 
L 1099.695643 279.128077 
L 1100.382751 611.1856 
L 1101.070158 213.707084 
L 1101.759128 197.156708 
L 1102.447517 438.743545 
L 1103.137482 521.221919 
L 1103.825146 197.156708 
L 1104.513697 197.156708 
L 1105.202519 530.445452 
L 1105.890907 378.249705 
L 1106.577994 197.156708 
L 1107.265697 285.731449 
L 1107.955367 526.813526 
L 1108.643195 238.542648 
L 1109.331138 197.156708 
L 1110.020036 409.738104 
L 1110.709263 445.280287 
L 1111.39711 197.156708 
L 1112.08543 212.400451 
L 1112.774526 460.514868 
L 1114.150061 197.156708 
L 1114.840427 323.990324 
L 1115.528169 428.51118 
L 1116.215972 243.315646 
L 1116.905215 215.544788 
L 1117.59226 384.617794 
L 1118.280542 352.775851 
L 1118.969685 222.207775 
L 1119.658121 289.275254 
L 1120.346814 371.693338 
L 1121.03428 296.371204 
L 1121.723212 256.827133 
L 1122.411338 319.575408 
L 1123.100856 331.029305 
L 1123.789279 293.415754 
L 1124.476175 290.906555 
L 1125.165242 300.442517 
L 1125.854059 301.257383 
L 1131.362256 301.942097 
L 1138.246909 302.557873 
L 1146.505765 303.05177 
L 1156.8322 303.428888 
L 1170.600666 303.695342 
L 1191.941306 303.861853 
L 1235.999281 303.9325 
L 1484.514946 303.939879 
L 1485.20403 736.078525 
L 1485.892334 544.682624 
L 1486.580811 197.156708 
L 1487.268359 216.364317 
L 1487.958452 796.455927 
L 1488.645264 197.156708 
L 1489.333957 197.156708 
L 1490.023071 409.740518 
L 1490.710785 976.340015 
L 1491.399085 197.156708 
L 1492.088227 197.156708 
L 1493.46636 905.676994 
L 1494.154103 197.156708 
L 1494.841568 197.156708 
L 1495.529968 658.257012 
L 1496.2189 808.964199 
L 1496.906785 197.156708 
L 1497.595383 197.156708 
L 1498.283032 761.094561 
L 1498.971972 687.403359 
L 1499.66091 197.156708 
L 1500.348401 197.156708 
L 1501.03676 835.028768 
L 1501.726119 547.882379 
L 1502.415666 197.156708 
L 1503.10283 197.156708 
L 1503.790597 872.135936 
L 1504.479361 398.503715 
L 1505.168254 197.156708 
L 1505.856373 279.800249 
L 1506.544952 865.624303 
L 1507.233282 251.790491 
L 1507.921659 197.156708 
L 1508.610798 435.317609 
L 1509.29883 812.323825 
L 1509.98603 197.156708 
L 1510.675794 197.156708 
L 1511.363899 577.819201 
L 1512.053445 713.509152 
L 1512.741274 197.156708 
L 1513.429114 197.156708 
L 1514.118627 687.565567 
L 1514.805517 578.001635 
L 1515.493308 197.156708 
L 1516.183867 197.156708 
L 1516.870916 745.753899 
L 1517.559021 419.961424 
L 1518.247498 197.156708 
L 1518.936021 320.206877 
L 1519.624393 739.034542 
L 1520.312734 264.464663 
L 1521.001924 197.156708 
L 1521.690106 480.157277 
L 1522.37814 664.976369 
L 1523.068015 197.156708 
L 1523.75625 197.156708 
L 1524.44386 602.799734 
L 1525.131194 533.759948 
L 1525.820129 197.156708 
L 1526.509174 241.157612 
L 1527.197497 653.640507 
L 1527.886053 375.219478 
L 1528.573778 197.156708 
L 1529.950889 614.812902 
L 1530.638383 234.077591 
L 1531.327147 197.156708 
L 1532.015886 534.42991 
L 1532.705513 498.588216 
L 1533.394014 197.156708 
L 1534.081362 298.707788 
L 1534.770115 573.138529 
L 1535.457766 352.213394 
L 1536.148162 197.156708 
L 1536.834642 441.238116 
L 1537.523769 509.480766 
L 1538.211068 246.33717 
L 1538.899358 278.864265 
L 1539.588367 504.614635 
L 1540.276841 395.787099 
L 1540.964531 235.291912 
L 1541.654355 385.430771 
L 1542.343514 473.09726 
L 1543.029629 313.717675 
L 1543.719265 293.264724 
L 1544.407256 433.18531 
L 1545.095153 405.5947 
L 1545.783989 302.907621 
L 1546.473826 353.361208 
L 1547.162259 414.572586 
L 1547.848628 365.065904 
L 1548.537481 337.308168 
L 1549.22599 368.645607 
L 1549.913893 378.374488 
L 1550.602503 373.728383 
L 1551.292733 372.29097 
L 1551.981173 371.688309 
L 1552.668626 371.919801 
L 1553.357502 371.607058 
L 1554.044827 371.542291 
L 1554.733429 371.148196 
L 1555.42302 371.148958 
L 1556.798082 370.79872 
L 1557.487087 370.453926 
L 1558.17537 370.448851 
L 1558.864793 370.225983 
L 1559.552681 370.253507 
L 1561.617028 369.748436 
L 1562.306009 369.444411 
L 1562.995553 369.551719 
L 1564.371506 369.362194 
L 1565.748068 368.829069 
L 1566.437772 369.062377 
L 1567.813521 368.882252 
L 1568.501352 368.667402 
L 1569.189443 368.309797 
L 1569.879967 368.622589 
L 1570.566281 368.562887 
L 1571.25478 367.958341 
L 1571.943822 368.262457 
L 1572.633934 368.11825 
L 1573.321192 368.279343 
L 1574.00897 368.111077 
L 1574.69873 368.117295 
L 1576.073663 367.882941 
L 1576.76267 367.956984 
L 1577.451018 367.807743 
L 1578.140593 367.830628 
L 1578.827634 367.727269 
L 1579.517738 367.743418 
L 1580.205197 367.604312 
L 1580.893012 367.669354 
L 1582.269815 367.477481 
L 1582.957592 367.064419 
L 1584.335219 367.454945 
L 1585.023345 367.313134 
L 1585.711256 367.364239 
L 1586.400446 367.109871 
L 1587.088145 367.302826 
L 1587.776478 367.083614 
L 1588.467125 367.264505 
L 1589.154525 367.022485 
L 1589.843665 366.978468 
L 1590.53233 367.132641 
L 1591.218819 367.091387 
L 1591.908091 366.711219 
L 1593.285095 367.066983 
L 1594.661055 366.707237 
L 1595.35119 367.041037 
L 1596.038236 366.881708 
L 1597.414384 366.92853 
L 1598.103866 366.92024 
L 1598.7921 366.730369 
L 1599.480948 366.928594 
L 1600.856455 366.83456 
L 1601.545212 366.510516 
L 1602.234964 366.797561 
L 1603.610049 366.805367 
L 1604.298348 366.333991 
L 1604.98833 366.712671 
L 1605.675098 366.502805 
L 1606.363592 366.783702 
L 1607.740982 366.493045 
L 1608.429032 366.746992 
L 1610.494267 366.53069 
L 1611.184568 366.417696 
L 1611.872577 366.656358 
L 1613.248245 366.664354 
L 1613.938314 366.547409 
L 1614.625588 366.640125 
L 1615.312785 366.545405 
L 1616.001927 366.643522 
L 1618.066917 366.590494 
L 1618.757064 366.210362 
L 1619.445405 366.59556 
L 1622.887156 366.472959 
L 1623.575328 366.348622 
L 1624.262095 366.549384 
L 1626.32796 366.530684 
L 1627.016498 366.502409 
L 1627.704337 366.276834 
L 1628.393891 366.490331 
L 1629.769306 366.516873 
L 1630.457822 366.022939 
L 1631.146363 366.486824 
L 1631.835253 366.262952 
L 1632.524944 366.464825 
L 1633.90072 366.51501 
L 1634.588991 366.374853 
L 1635.276997 366.462436 
L 1635.965151 366.181604 
L 1636.653824 366.521549 
L 1637.342169 366.48649 
L 1638.032281 366.292533 
L 1638.720324 366.329389 
L 1639.408962 366.027948 
L 1640.096689 366.407811 
L 1640.78506 366.211388 
L 1642.162521 366.5147 
L 1644.228035 366.412954 
L 1644.915616 366.145272 
L 1645.603649 366.458969 
L 1646.981681 366.443526 
L 1649.733926 366.433652 
L 1650.422346 365.99469 
L 1651.110762 366.348341 
L 1651.799259 366.392206 
L 1652.487786 366.02981 
L 1653.177341 366.35109 
L 1653.864481 366.484445 
L 1654.552251 366.382651 
L 1655.242578 366.478493 
L 1655.929082 366.411146 
L 1656.618081 366.13598 
L 1657.306641 366.463989 
L 1657.995343 366.338472 
L 1658.682761 366.482923 
L 1659.371792 366.42229 
L 1660.0614 365.9497 
L 1660.750113 366.439349 
L 1661.437041 366.294751 
L 1662.125075 366.478907 
L 1662.815324 366.361349 
L 1663.502122 365.916355 
L 1664.191103 366.468635 
L 1666.255752 366.436844 
L 1666.943917 366.250603 
L 1667.634134 366.432107 
L 1669.698545 366.388426 
L 1670.385706 366.175813 
L 1671.074777 366.425983 
L 1673.828757 366.407653 
L 1675.205948 366.404457 
L 1675.894226 366.285193 
L 1676.582708 366.451072 
L 1678.648147 366.398967 
L 1679.335657 366.161678 
L 1680.023663 366.444639 
L 1681.401824 366.421647 
L 1683.466767 366.414398 
L 1684.155121 366.364885 
L 1684.842563 366.148879 
L 1685.531206 366.403843 
L 1686.219799 366.421036 
L 1686.908782 366.028169 
L 1687.595894 366.370491 
L 1688.974854 366.435539 
L 1689.66317 366.326335 
L 1691.038229 366.410202 
L 1695.857741 366.387927 
L 1696.545417 366.010847 
L 1699.300315 366.426869 
L 1700.676577 366.16308 
L 1702.053048 366.464354 
L 1703.429692 366.424977 
L 1705.49516 366.455496 
L 1706.183931 366.397746 
L 1706.873818 366.116354 
L 1707.560628 366.443339 
L 1708.250057 366.391839 
L 1708.937211 366.16506 
L 1709.62623 366.383526 
L 1710.31584 366.21947 
L 1711.003596 366.442659 
L 1711.690738 366.379304 
L 1712.379146 366.167169 
L 1713.067901 366.44461 
L 1714.445251 366.436592 
L 1715.132993 366.343811 
L 1715.822364 366.097674 
L 1716.51081 366.453258 
L 1718.574256 366.364177 
L 1719.263551 366.090784 
L 1719.952643 366.426682 
L 1721.329079 366.401424 
L 1722.017289 366.325033 
L 1723.394143 366.432993 
L 1724.08268 366.321068 
L 1724.769918 366.439292 
L 1726.835361 366.409777 
L 1727.524303 366.0842 
L 1728.212915 366.452936 
L 1728.902104 366.412968 
L 1729.589851 366.203743 
L 1730.279059 366.41378 
L 1730.967254 366.182397 
L 1731.654285 366.1648 
L 1732.342992 366.397642 
L 1733.719897 366.400045 
L 1734.408223 366.24766 
L 1735.097001 366.447714 
L 1737.850235 366.286982 
L 1738.538189 366.439983 
L 1739.227431 366.4072 
L 1739.917085 365.964374 
L 1740.6044 366.41032 
L 1741.293362 366.302409 
L 1741.98045 366.437212 
L 1743.35818 366.403055 
L 1744.046714 365.914548 
L 1744.734315 366.397284 
L 1745.42294 366.035927 
L 1746.11191 366.42756 
L 1748.176283 366.272194 
L 1748.865169 366.424638 
L 1749.553531 366.100464 
L 1750.242263 366.424031 
L 1751.619491 366.420376 
L 1752.996861 366.402418 
L 1753.684884 365.970429 
L 1754.373586 366.459705 
L 1755.060834 366.304166 
L 1755.748799 366.432552 
L 1756.438597 366.347694 
L 1757.12552 366.392662 
L 1757.814038 366.029547 
L 1758.504019 366.389014 
L 1759.192933 366.444326 
L 1759.881376 366.293308 
L 1761.256579 366.456493 
L 1765.388611 366.273981 
L 1766.075171 366.451294 
L 1768.140486 366.416298 
L 1768.829461 366.044515 
L 1769.518854 366.40819 
L 1770.205879 366.180386 
L 1771.583175 366.457176 
L 1772.271164 366.430304 
L 1772.959156 366.174339 
L 1774.335879 366.195282 
L 1775.024469 366.44648 
L 1776.402957 366.426926 
L 1777.09007 366.192055 
L 1777.778844 366.44092 
L 1778.466765 366.213045 
L 1779.155311 366.44127 
L 1779.843039 366.300189 
L 1780.533334 366.467943 
L 1781.220315 366.401565 
L 1781.909429 366.465456 
L 1782.596744 366.410508 
L 1783.286331 366.127046 
L 1783.973955 366.442814 
L 1784.662745 366.424362 
L 1785.350308 366.244217 
L 1786.038882 366.188048 
L 1786.72775 366.455959 
L 1789.480778 366.1792 
L 1790.170268 366.407848 
L 1790.858259 366.469758 
L 1792.235678 366.260149 
L 1792.924732 366.432029 
L 1793.612426 366.109936 
L 1794.300114 366.393777 
L 1794.990035 366.459018 
L 1797.053973 366.39456 
L 1797.743403 365.93072 
L 1798.430664 366.437797 
L 1799.120474 366.231407 
L 1799.808322 366.460681 
L 1800.496783 366.364218 
L 1801.184147 366.108166 
L 1801.872702 366.202407 
L 1802.561857 366.47256 
L 1803.249123 366.434746 
L 1803.937374 366.217426 
L 1804.625921 366.269146 
L 1805.316165 366.456652 
L 1806.691475 366.249658 
L 1807.379617 366.471083 
L 1808.068416 366.42233 
L 1808.756348 365.937211 
L 1809.445137 366.132553 
L 1810.134601 366.160912 
L 1811.510828 366.468342 
L 1812.887067 366.438766 
L 1813.575433 366.2016 
L 1814.953753 366.378018 
L 1815.641544 366.473263 
L 1816.329381 366.443638 
L 1817.018619 366.216503 
L 1817.70649 366.165646 
L 1819.083129 366.479258 
L 1820.45972 366.382934 
L 1821.148092 366.485461 
L 1824.589974 366.341162 
L 1825.278263 366.442463 
L 1825.968586 366.139714 
L 1826.656473 366.43356 
L 1828.721364 366.409279 
L 1829.408734 366.130926 
L 1830.097518 366.468909 
L 1830.785567 366.440858 
L 1831.47514 366.204835 
L 1832.162426 366.414117 
L 1832.85079 366.246975 
L 1833.539706 366.478449 
L 1834.228147 366.409507 
L 1834.916205 366.130677 
L 1835.60466 366.363133 
L 1836.292753 366.45022 
L 1836.983229 366.192711 
L 1837.669522 366.316055 
L 1839.0473 366.424069 
L 1840.425328 366.407661 
L 1841.112341 366.125235 
L 1841.802156 366.390951 
L 1843.17724 366.422722 
L 1843.865646 366.384246 
L 1844.553974 366.16659 
L 1845.243006 366.412682 
L 1846.619518 366.414198 
L 1847.309474 366.23097 
L 1847.996157 366.412203 
L 1852.815461 366.302927 
L 1854.192204 366.571666 
L 1854.880765 366.267809 
L 1855.568696 366.409593 
L 1856.257119 366.262805 
L 1856.945248 366.420944 
L 1858.322231 366.425301 
L 1859.699274 366.385703 
L 1860.388378 366.113448 
L 1861.077591 366.381465 
L 1861.764116 366.301665 
L 1862.453657 366.424456 
L 1863.14297 366.270923 
L 1863.828993 366.421961 
L 1864.517549 366.185285 
L 1865.206414 366.45543 
L 1865.895221 366.416639 
L 1866.584824 366.184879 
L 1867.272028 366.370864 
L 1867.960618 366.336045 
L 1868.648521 366.429714 
L 1869.338361 366.39553 
L 1870.025256 366.181796 
L 1870.713357 366.452786 
L 1871.403165 366.41287 
L 1872.091457 366.238754 
L 1872.779189 366.212685 
L 1873.467176 366.417998 
L 1874.845194 366.186016 
L 1875.532588 366.444986 
L 1876.221387 366.372536 
L 1876.910527 365.972628 
L 1879.664461 366.466479 
L 1880.353026 366.415534 
L 1881.03939 365.986124 
L 1881.729195 366.476202 
L 1883.794274 366.353203 
L 1884.482478 366.451208 
L 1885.169777 366.412499 
L 1885.858826 366.051572 
L 1886.546797 366.424122 
L 1888.612667 366.410132 
L 1889.300279 366.12114 
L 1889.989815 366.451113 
L 1890.678009 366.378675 
L 1891.3662 366.448764 
L 1893.43174 366.316858 
L 1894.119994 366.309901 
L 1894.807818 366.43721 
L 1896.184912 365.978734 
L 1896.873504 366.435402 
L 1898.249482 366.437838 
L 1898.938685 252.955419 
L 1899.627187 197.156708 
L 1900.315057 197.156708 
L 1901.003473 982.226877 
L 1901.692935 860.241701 
L 1902.379676 197.156708 
L 1903.070707 417.495928 
L 1903.758009 982.226877 
L 1904.445965 982.226877 
L 1905.133994 197.156708 
L 1905.822885 197.156708 
L 1906.51103 872.309538 
L 1907.198871 982.226877 
L 1907.887625 443.835521 
L 1908.577815 197.156708 
L 1909.265579 197.156708 
L 1909.954071 982.226877 
L 1910.642071 982.226877 
L 1911.330888 197.156708 
L 1912.017975 197.156708 
L 1912.70695 417.390445 
L 1913.395302 982.226877 
L 1914.08439 712.470962 
L 1914.77257 197.156708 
L 1915.460816 197.156708 
L 1916.149758 982.226877 
L 1916.838027 982.226877 
L 1917.526474 197.156708 
L 1918.213668 197.156708 
L 1918.902904 492.716431 
L 1919.591793 982.226877 
L 1920.279101 487.366673 
L 1920.967895 197.156708 
L 1921.65719 197.156708 
L 1922.344697 982.226877 
L 1923.033755 982.226877 
L 1923.721519 197.156708 
L 1924.409169 197.156708 
L 1925.097418 933.576915 
L 1925.786199 982.226877 
L 1926.476124 197.156708 
L 1927.162999 197.156708 
L 1927.852284 481.518048 
L 1928.541411 982.226877 
L 1929.229169 308.914869 
L 1929.917967 197.156708 
L 1930.606442 197.156708 
L 1931.294036 982.226877 
L 1931.983014 644.72643 
L 1932.670257 197.156708 
L 1933.359678 197.156708 
L 1934.048919 982.226877 
L 1934.736217 863.326819 
L 1935.424386 197.156708 
L 1936.112717 197.156708 
L 1936.80204 982.226877 
L 1937.491134 982.226877 
L 1938.179776 197.156708 
L 1938.867083 197.156708 
L 1939.555145 943.303841 
L 1940.243727 982.226877 
L 1940.932068 197.156708 
L 1941.621203 197.156708 
L 1942.308553 859.180974 
L 1942.996968 982.226877 
L 1943.686536 197.156708 
L 1944.374152 197.156708 
L 1945.061428 815.887667 
L 1945.75087 982.226877 
L 1946.440588 197.156708 
L 1947.128429 197.156708 
L 1947.81554 812.951827 
L 1948.504221 982.226877 
L 1949.193352 197.156708 
L 1949.880445 197.156708 
L 1950.570227 843.383717 
L 1951.258061 948.458621 
L 1951.946862 197.156708 
L 1952.635904 197.156708 
L 1953.324748 896.925405 
L 1954.011929 854.483559 
L 1954.700464 197.156708 
L 1955.388626 197.156708 
L 1956.076033 959.985987 
L 1956.766385 724.662452 
L 1957.453408 197.156708 
L 1958.142952 197.156708 
L 1958.831388 982.226877 
L 1960.207454 197.156708 
L 1960.895187 197.156708 
L 1961.584118 982.226877 
L 1962.272074 361.386509 
L 1962.960717 197.156708 
L 1963.649924 229.252387 
L 1964.339135 982.226877 
L 1965.026529 197.156708 
L 1965.713784 197.156708 
L 1966.402965 434.669854 
L 1967.092389 982.022179 
L 1967.780589 197.156708 
L 1968.467463 197.156708 
L 1969.155897 627.290377 
L 1969.844884 866.544728 
L 1970.533469 197.156708 
L 1971.223023 197.156708 
L 1971.90957 784.924655 
L 1972.599098 699.233708 
L 1973.287202 197.156708 
L 1973.975497 197.156708 
L 1974.664377 889.158525 
L 1975.352349 498.07439 
L 1976.042252 197.156708 
L 1976.730342 197.156708 
L 1977.417611 930.030774 
L 1978.106049 283.539291 
L 1978.793527 197.156708 
L 1979.482557 291.164069 
L 1980.172626 906.30432 
L 1980.861196 197.156708 
L 1981.547772 197.156708 
L 1982.235921 485.833465 
L 1982.924694 823.388603 
L 1983.613977 197.156708 
L 1984.301643 197.156708 
L 1984.989991 642.891864 
L 1985.678371 691.815737 
L 1986.366435 197.156708 
L 1987.054965 197.156708 
L 1987.745193 748.809544 
L 1988.432796 526.747282 
L 1989.120362 197.156708 
L 1989.80893 197.156708 
L 1990.497448 799.177788 
L 1991.18541 346.609487 
L 1991.874041 197.156708 
L 1992.563768 213.748527 
L 1993.250663 792.589442 
L 1993.939082 197.156708 
L 1994.627806 197.156708 
L 1995.315723 380.558772 
L 1996.004053 733.840665 
L 1996.693211 197.156708 
L 1997.382532 197.156708 
L 1998.071032 516.599583 
L 1998.758126 632.866633 
L 1999.446682 197.156708 
L 2000.135128 197.156708 
L 2000.822834 609.005068 
L 2001.51246 503.799721 
L 2002.200424 197.156708 
L 2002.888229 197.156708 
L 2003.576825 652.551695 
L 2004.264953 363.009938 
L 2004.953011 197.156708 
L 2005.642459 197.156708 
L 2006.330967 649.336869 
L 2007.02061 227.940254 
L 2007.707468 197.156708 
L 2008.396574 306.62597 
L 2009.084229 604.836036 
L 2009.7726 197.156708 
L 2010.460274 197.156708 
L 2011.149574 406.438441 
L 2011.837685 529.050045 
L 2012.526156 197.156708 
L 2013.215132 197.156708 
L 2013.902794 469.54933 
L 2014.591706 435.487646 
L 2015.280004 197.156708 
L 2015.968348 197.156708 
L 2016.656857 492.547342 
L 2018.033642 197.156708 
L 2018.722689 197.156708 
L 2019.411742 478.997596 
L 2020.09887 254.157862 
L 2020.787952 197.156708 
L 2021.475681 258.744584 
L 2022.163856 439.129627 
L 2022.852267 197.156708 
L 2023.541006 197.156708 
L 2024.228789 306.819187 
L 2024.917432 384.909887 
L 2025.606913 197.156708 
L 2026.294862 197.156708 
L 2026.982199 324.283716 
L 2027.670748 328.850628 
L 2028.361364 197.156708 
L 2029.049467 197.156708 
L 2029.736303 313.812439 
L 2030.426855 282.709871 
L 2031.113443 197.156708 
L 2031.801979 217.481119 
L 2032.489913 282.501653 
L 2033.178893 255.631387 
L 2033.866393 220.623517 
L 2034.555735 231.031129 
L 2035.245559 243.678192 
L 2035.933954 243.732996 
L 2043.504313 243.114803 
L 2052.454319 242.622291 
L 2063.468824 242.251991 
L 2078.614261 241.976386 
L 2102.02025 241.809043 
L 2148.831385 241.74752 
L 2183.940837 241.750449 
L 2312.675001 241.762132 
L 2313.363343 595.939032 
L 2314.051103 681.663164 
L 2314.738556 197.156708 
L 2315.426978 197.156708 
L 2316.116013 982.226877 
L 2316.803369 660.322462 
L 2317.493805 197.156708 
L 2318.181944 197.156708 
L 2318.868983 769.708827 
L 2319.556801 678.700013 
L 2320.245984 197.156708 
L 2320.9342 197.156708 
L 2321.624136 982.226877 
L 2322.310808 739.33149 
L 2323.000987 197.156708 
L 2323.687475 197.156708 
L 2324.377748 972.263529 
L 2325.064697 700.626478 
L 2325.753004 197.156708 
L 2326.441112 197.156708 
L 2327.129194 974.077152 
L 2327.820057 635.837915 
L 2328.506448 197.156708 
L 2329.196099 197.156708 
L 2329.88362 982.226877 
L 2330.573707 546.071335 
L 2331.260655 197.156708 
L 2331.949782 197.156708 
L 2332.637166 982.226877 
L 2333.325815 434.597178 
L 2334.013507 197.156708 
L 2334.702494 197.156708 
L 2335.390971 982.226877 
L 2336.078818 308.46801 
L 2336.767736 197.156708 
L 2337.455883 305.865635 
L 2338.14483 975.761067 
L 2338.832921 197.156708 
L 2339.521536 197.156708 
L 2340.210095 446.364277 
L 2340.897476 923.318035 
L 2341.586072 197.156708 
L 2342.27424 197.156708 
L 2342.963184 579.262618 
L 2343.651676 839.820317 
L 2344.340238 197.156708 
L 2345.028312 197.156708 
L 2345.716879 696.332954 
L 2346.405393 726.771105 
L 2347.093988 197.156708 
L 2347.783847 197.156708 
L 2348.470982 785.886181 
L 2349.159602 590.352548 
L 2349.847874 197.156708 
L 2350.536089 197.156708 
L 2351.225188 837.893458 
L 2351.912786 440.27906 
L 2352.601278 197.156708 
L 2353.290531 251.703907 
L 2353.978636 843.026769 
L 2354.666243 288.822859 
L 2355.355605 197.156708 
L 2356.044809 410.733043 
L 2356.732276 796.582012 
L 2357.42005 197.156708 
L 2358.108042 197.156708 
L 2358.797021 556.955835 
L 2359.48551 701.588161 
L 2360.173526 197.156708 
L 2360.86289 197.156708 
L 2361.550421 669.324746 
L 2362.239394 566.050966 
L 2362.927258 197.156708 
L 2363.615937 197.156708 
L 2364.304135 726.012113 
L 2364.992686 407.762314 
L 2365.680699 197.156708 
L 2366.371162 343.380015 
L 2367.058898 711.594601 
L 2367.746293 253.565133 
L 2368.434542 197.156708 
L 2369.122704 499.963799 
L 2369.812902 626.45374 
L 2370.499588 197.156708 
L 2371.188988 197.156708 
L 2371.878146 608.339634 
L 2372.566692 486.168161 
L 2373.254667 197.156708 
L 2373.941613 297.892118 
L 2374.630009 633.025751 
L 2375.320009 329.029121 
L 2376.0087 197.156708 
L 2376.695478 454.506763 
L 2377.385631 564.824172 
L 2378.072185 208.68118 
L 2378.761478 221.87434 
L 2379.448865 550.219585 
L 2380.138936 432.32738 
L 2380.825951 197.156708 
L 2382.202809 540.207626 
L 2382.891452 300.559145 
L 2383.580152 232.26656 
L 2384.268678 473.107232 
L 2384.956123 448.864101 
L 2385.644455 242.712486 
L 2386.333262 335.825509 
L 2387.021251 483.202304 
L 2387.711976 353.40312 
L 2388.39862 271.956799 
L 2389.086882 407.782816 
L 2389.775352 430.539373 
L 2390.464846 314.154634 
L 2391.151921 330.951985 
L 2391.840684 413.571803 
L 2392.529439 380.450358 
L 2393.218247 334.676244 
L 2393.905571 361.209652 
L 2394.594431 380.232975 
L 2395.28414 373.98341 
L 2395.970751 370.865024 
L 2396.661051 370.646448 
L 2397.347563 370.269558 
L 2398.036421 370.317596 
L 2398.726121 369.933047 
L 2399.412621 370.134428 
L 2400.101569 369.968283 
L 2400.789994 369.60899 
L 2401.479141 369.704066 
L 2402.16641 369.280089 
L 2402.854815 369.471602 
L 2403.543121 369.298771 
L 2404.232216 369.283319 
L 2404.920532 369.105203 
L 2406.297498 368.970069 
L 2407.675301 368.59125 
L 2408.362257 368.717805 
L 2409.050893 368.539065 
L 2409.739502 368.545098 
L 2410.427877 368.096169 
L 2411.116371 368.31674 
L 2411.80464 368.076312 
L 2412.492912 368.296686 
L 2413.180982 368.090524 
L 2413.869558 368.128031 
L 2415.248067 367.825503 
L 2415.935354 367.975446 
L 2418.688281 367.673837 
L 2419.376496 367.722997 
L 2420.066472 367.615106 
L 2421.442986 367.581437 
L 2422.819554 367.424626 
L 2423.507266 367.480561 
L 2424.195632 367.418167 
L 2425.572926 367.092456 
L 2426.261767 367.32017 
L 2430.391689 367.131456 
L 2431.769909 366.811196 
L 2432.456988 367.068515 
L 2433.144728 366.947314 
L 2433.834172 367.026897 
L 2435.210376 366.94373 
L 2435.899782 366.76998 
L 2436.587769 366.951923 
L 2437.275007 366.71886 
L 2437.964313 366.908568 
L 2439.341135 366.857405 
L 2440.717871 366.782433 
L 2441.405954 366.641061 
L 2442.782904 366.803663 
L 2444.161452 366.730361 
L 2445.538539 366.475682 
L 2446.225247 366.67306 
L 2446.913989 366.73787 
L 2447.601865 366.689569 
L 2448.290965 366.426975 
L 2448.978619 366.663591 
L 2449.667587 366.341308 
L 2450.356838 366.69222 
L 2451.04448 366.631955 
L 2451.733774 366.107566 
L 2452.420732 366.625163 
L 2453.109949 366.437036 
L 2453.797996 366.657107 
L 2454.487488 366.568594 
L 2455.17519 366.289515 
L 2455.862291 366.629929 
L 2457.928088 366.547062 
L 2458.616572 366.430485 
L 2459.304242 366.596407 
L 2459.99387 366.557981 
L 2460.681554 366.226494 
L 2462.058514 366.562869 
L 2462.748522 366.441457 
L 2463.435757 366.110911 
L 2464.123789 366.553923 
L 2465.501074 366.52473 
L 2466.189208 366.340246 
L 2466.877899 366.497071 
L 2467.566757 366.533911 
L 2468.255089 366.451923 
L 2470.319814 366.469273 
L 2471.007459 366.228979 
L 2471.696287 366.280908 
L 2472.386061 366.465371 
L 2473.073193 366.476775 
L 2473.761594 366.199937 
L 2474.451064 366.45948 
L 2475.827408 366.441084 
L 2476.515644 366.383314 
L 2477.203413 366.508084 
L 2477.893608 366.455041 
L 2478.581987 366.272196 
L 2479.270069 366.412051 
L 2479.957402 366.352839 
L 2481.334025 366.468864 
L 2482.022807 366.375752 
L 2482.710349 366.484066 
L 2484.087062 366.442324 
L 2486.152773 366.427998 
L 2487.529836 366.218751 
L 2488.907258 366.467268 
L 2491.66046 366.311374 
L 2492.348891 366.446947 
L 2494.413248 366.248625 
L 2495.102421 366.433479 
L 2495.791223 366.283836 
L 2496.480631 366.450606 
L 2497.168005 366.418896 
L 2498.543752 366.142626 
L 2499.232831 366.388639 
L 2499.921286 366.456293 
L 2500.609897 366.363222 
L 2502.675628 366.439424 
L 2503.364438 366.165697 
L 2504.052277 366.351619 
L 2506.11674 366.418149 
L 2506.804773 366.009838 
L 2507.493178 366.383625 
L 2508.18189 366.166761 
L 2508.870011 366.413585 
L 2510.248948 366.401126 
L 2510.936444 366.009946 
L 2511.624997 366.431137 
L 2512.313689 366.279913 
L 2513.000638 366.450382 
L 2513.689754 366.381581 
L 2514.377116 365.981305 
L 2515.755783 366.443835 
L 2516.443997 366.17799 
L 2517.131267 366.43561 
L 2518.508718 366.292611 
L 2519.196812 366.368907 
L 2519.886389 366.18759 
L 2520.573894 366.431613 
L 2521.26136 366.388884 
L 2521.949793 365.989917 
L 2522.638558 366.432625 
L 2524.015461 366.466922 
L 2524.704598 366.340378 
L 2525.392229 366.427461 
L 2526.080312 366.367506 
L 2526.770628 366.474434 
L 2529.522662 366.350933 
L 2530.211176 366.220733 
L 2530.900779 366.431462 
L 2531.588718 366.351073 
L 2532.275877 366.436346 
L 2532.966386 366.284219 
L 2533.652654 366.417801 
L 2535.71988 366.328103 
L 2536.408306 366.412837 
L 2537.09528 366.313692 
L 2537.785315 366.425836 
L 2538.47255 366.285202 
L 2539.160682 366.450731 
L 2539.849227 366.406969 
L 2540.538044 366.11569 
L 2541.225319 366.160409 
L 2541.914903 366.409062 
L 2542.602223 366.329161 
L 2543.291468 366.136705 
L 2543.980166 366.196653 
L 2544.669045 366.45911 
L 2546.732899 366.403706 
L 2547.421536 366.12962 
L 2548.109808 366.469106 
L 2549.486979 366.454864 
L 2550.174916 366.140747 
L 2552.240186 366.468516 
L 2552.928597 366.419403 
L 2553.618688 366.185272 
L 2554.305767 366.471333 
L 2555.683478 366.315612 
L 2556.371623 366.192791 
L 2557.058911 366.428641 
L 2558.436198 366.424039 
L 2559.125216 366.254046 
L 2559.813315 366.4239 
L 2560.502026 366.338902 
L 2561.189832 366.465349 
L 2562.566561 366.245073 
L 2563.254787 366.042361 
L 2563.943997 366.329932 
L 2564.631837 366.470063 
L 2566.008117 366.343173 
L 2566.696965 366.039386 
L 2567.384722 366.447313 
L 2568.763565 366.42572 
L 2569.451775 366.41216 
L 2570.139898 366.264817 
L 2570.826847 366.427959 
L 2573.581368 366.442492 
L 2574.958633 366.423393 
L 2575.647617 366.17832 
L 2576.334939 366.397223 
L 2577.023607 366.212747 
L 2577.71097 366.410272 
L 2578.4002 366.114917 
L 2579.088032 366.444756 
L 2579.777906 366.384437 
L 2580.464885 366.044878 
L 2581.15383 366.177868 
L 2581.841643 366.047963 
L 2582.530888 366.431093 
L 2583.218627 366.337773 
L 2583.908765 366.424716 
L 2584.595061 366.383992 
L 2585.284661 366.140301 
L 2585.972905 366.379886 
L 2586.66247 366.05363 
L 2587.34994 366.387787 
L 2588.037749 366.440445 
L 2588.726098 366.13727 
L 2589.414361 366.43099 
L 2590.102774 366.389916 
L 2590.792226 366.469759 
L 2591.48006 366.233407 
L 2592.169655 366.402842 
L 2594.234377 366.406048 
L 2594.922347 366.249877 
L 2595.609673 366.443216 
L 2596.298842 366.380732 
L 2597.676931 366.466263 
L 2599.052392 366.415106 
L 2600.42911 366.429397 
L 2601.806069 366.364632 
L 2602.495014 366.443113 
L 2603.182944 366.317963 
L 2604.559649 366.412457 
L 2605.936107 366.303632 
L 2606.624649 366.447626 
L 2608.000825 366.099389 
L 2608.69052 366.344841 
L 2609.378615 366.462754 
L 2610.066285 366.439253 
L 2610.755417 366.172864 
L 2611.442945 366.418583 
L 2612.132398 366.243179 
L 2612.821152 366.433939 
L 2614.198681 366.444392 
L 2615.574262 366.416882 
L 2616.262549 365.945559 
L 2617.64012 366.380311 
L 2618.327033 366.456845 
L 2619.704873 366.43728 
L 2623.148147 366.41938 
L 2623.835738 366.124184 
L 2624.523366 366.407136 
L 2625.212472 366.336063 
L 2625.90187 366.43493 
L 2627.966691 366.374639 
L 2630.030474 366.411716 
L 2630.71869 366.215749 
L 2631.408881 366.416532 
L 2633.472177 366.404082 
L 2634.162392 366.188296 
L 2634.850315 366.458717 
L 2635.538127 366.424823 
L 2636.226012 366.206992 
L 2636.915451 366.153941 
L 2637.604426 366.398507 
L 2638.979637 366.435517 
L 2639.669667 366.220504 
L 2640.357086 366.433265 
L 2643.111602 366.416348 
L 2647.242255 366.357217 
L 2647.930772 366.169809 
L 2648.617956 366.349915 
L 2649.306167 366.215428 
L 2649.994198 366.392596 
L 2650.683195 366.072456 
L 2651.372943 366.46325 
L 2652.749791 366.371021 
L 2653.436308 366.407082 
L 2654.126601 366.325486 
L 2654.813516 366.454211 
L 2655.501466 366.432255 
L 2656.19025 366.199342 
L 2656.881409 366.415991 
L 2657.567095 366.261179 
L 2658.2568 366.464204 
L 2658.944688 366.424957 
L 2659.633029 366.23231 
L 2660.321478 366.401472 
L 2661.008583 366.195598 
L 2661.697636 366.466078 
L 2662.38552 366.42501 
L 2663.07393 366.235867 
L 2663.763272 366.428577 
L 2664.451138 366.334322 
L 2665.139466 366.458601 
L 2667.204762 366.378228 
L 2667.893264 365.883802 
L 2668.581442 366.446005 
L 2669.958902 366.441087 
L 2670.647112 366.34875 
L 2671.336342 366.416155 
L 2672.023548 366.304077 
L 2672.71213 366.457647 
L 2673.40108 366.36049 
L 2674.089922 366.443074 
L 2674.778737 366.411303 
L 2675.466699 366.266669 
L 2676.155146 366.440307 
L 2676.842519 366.276461 
L 2677.530374 366.429281 
L 2678.90779 366.429399 
L 2679.597894 366.038439 
L 2680.285477 366.412626 
L 2680.97245 366.448911 
L 2681.661648 366.164499 
L 2682.349397 366.036922 
L 2683.037816 366.352256 
L 2683.726026 366.463614 
L 2684.415265 366.421788 
L 2685.103488 365.971802 
L 2685.793595 366.467622 
L 2688.546987 366.23432 
L 2689.235484 366.417267 
L 2693.364187 366.433789 
L 2694.052566 365.896081 
L 2694.740846 366.404287 
L 2697.495021 366.430207 
L 2698.184084 366.112079 
L 2700.937015 366.422837 
L 2701.624878 366.111079 
L 2702.315233 366.456474 
L 2704.37893 366.394866 
L 2705.067178 365.937268 
L 2705.756331 366.39456 
L 2706.444116 366.017013 
L 2707.134096 366.33742 
L 2707.821133 366.481957 
L 2708.508753 366.428493 
L 2709.19836 366.210714 
L 2709.886175 366.481475 
L 2710.575342 365.930933 
L 2712.639436 366.440377 
L 2713.328967 366.278 
L 2714.017298 366.422016 
L 2714.704423 366.280435 
L 2715.392992 366.468444 
L 2716.769712 366.366742 
L 2719.523759 366.415356 
L 2720.211996 366.113041 
L 2720.902244 366.400796 
L 2722.277197 366.466984 
L 2725.030884 366.344034 
L 2725.720907 366.464781 
L 2726.407558 366.353639 
L 2727.786575 366.379511 
L 2728.473295 366.228066 
L 2729.163275 366.409319 
L 2731.914841 366.45405 
L 2733.980394 366.352975 
L 2734.670841 366.456047 
L 2736.04675 366.430281 
L 2736.734674 366.39109 
L 2737.424318 366.09239 
L 2738.799559 366.422682 
L 2739.488668 366.288097 
L 2740.176251 366.456936 
L 2740.864881 366.342136 
L 2741.553663 366.426681 
L 2742.241609 366.151849 
L 2743.618468 366.453829 
L 2744.307602 366.437163 
L 2744.995447 366.306551 
L 2745.683241 366.413818 
L 2746.371971 366.239042 
L 2747.0606 366.454915 
L 2749.127353 366.396275 
L 2750.504214 366.392926 
L 2750.504214 366.392926 
" style="fill:none;stroke:#ff0000;stroke-linecap:square;stroke-width:3;"/>
   </g>
   <g id="patch_3">
    <path d="M 94.09774 1021.480385 
L 94.09774 157.9032 
" style="fill:none;stroke:#000000;stroke-linecap:square;stroke-linejoin:miter;stroke-width:0.8;"/>
   </g>
   <g id="patch_4">
    <path d="M 2876.99976 1021.480385 
L 2876.99976 157.9032 
" style="fill:none;stroke:#000000;stroke-linecap:square;stroke-linejoin:miter;stroke-width:0.8;"/>
   </g>
   <g id="patch_5">
    <path d="M 94.09774 1021.480385 
L 2876.99976 1021.480385 
" style="fill:none;stroke:#000000;stroke-linecap:square;stroke-linejoin:miter;stroke-width:0.8;"/>
   </g>
   <g id="patch_6">
    <path d="M 94.09774 157.9032 
L 2876.99976 157.9032 
" style="fill:none;stroke:#000000;stroke-linecap:square;stroke-linejoin:miter;stroke-width:0.8;"/>
   </g>
   <g id="text_19">
    <!-- Biceps (red) and Triceps (green) -->
    <defs>
     <path d="M 19.671875 34.8125 
L 19.671875 8.109375 
L 35.5 8.109375 
Q 43.453125 8.109375 47.28125 11.40625 
Q 51.125 14.703125 51.125 21.484375 
Q 51.125 28.328125 47.28125 31.5625 
Q 43.453125 34.8125 35.5 34.8125 
z
M 19.671875 64.796875 
L 19.671875 42.828125 
L 34.28125 42.828125 
Q 41.5 42.828125 45.03125 45.53125 
Q 48.578125 48.25 48.578125 53.8125 
Q 48.578125 59.328125 45.03125 62.0625 
Q 41.5 64.796875 34.28125 64.796875 
z
M 9.8125 72.90625 
L 35.015625 72.90625 
Q 46.296875 72.90625 52.390625 68.21875 
Q 58.5 63.53125 58.5 54.890625 
Q 58.5 48.1875 55.375 44.234375 
Q 52.25 40.28125 46.1875 39.3125 
Q 53.46875 37.75 57.5 32.78125 
Q 61.53125 27.828125 61.53125 20.40625 
Q 61.53125 10.640625 54.890625 5.3125 
Q 48.25 0 35.984375 0 
L 9.8125 0 
z
" id="DejaVuSans-66"/>
     <path d="M 48.78125 52.59375 
L 48.78125 44.1875 
Q 44.96875 46.296875 41.140625 47.34375 
Q 37.3125 48.390625 33.40625 48.390625 
Q 24.65625 48.390625 19.8125 42.84375 
Q 14.984375 37.3125 14.984375 27.296875 
Q 14.984375 17.28125 19.8125 11.734375 
Q 24.65625 6.203125 33.40625 6.203125 
Q 37.3125 6.203125 41.140625 7.25 
Q 44.96875 8.296875 48.78125 10.40625 
L 48.78125 2.09375 
Q 45.015625 0.34375 40.984375 -0.53125 
Q 36.96875 -1.421875 32.421875 -1.421875 
Q 20.0625 -1.421875 12.78125 6.34375 
Q 5.515625 14.109375 5.515625 27.296875 
Q 5.515625 40.671875 12.859375 48.328125 
Q 20.21875 56 33.015625 56 
Q 37.15625 56 41.109375 55.140625 
Q 45.0625 54.296875 48.78125 52.59375 
z
" id="DejaVuSans-99"/>
     <path d="M 18.109375 8.203125 
L 18.109375 -20.796875 
L 9.078125 -20.796875 
L 9.078125 54.6875 
L 18.109375 54.6875 
L 18.109375 46.390625 
Q 20.953125 51.265625 25.265625 53.625 
Q 29.59375 56 35.59375 56 
Q 45.5625 56 51.78125 48.09375 
Q 58.015625 40.1875 58.015625 27.296875 
Q 58.015625 14.40625 51.78125 6.484375 
Q 45.5625 -1.421875 35.59375 -1.421875 
Q 29.59375 -1.421875 25.265625 0.953125 
Q 20.953125 3.328125 18.109375 8.203125 
z
M 48.6875 27.296875 
Q 48.6875 37.203125 44.609375 42.84375 
Q 40.53125 48.484375 33.40625 48.484375 
Q 26.265625 48.484375 22.1875 42.84375 
Q 18.109375 37.203125 18.109375 27.296875 
Q 18.109375 17.390625 22.1875 11.75 
Q 26.265625 6.109375 33.40625 6.109375 
Q 40.53125 6.109375 44.609375 11.75 
Q 48.6875 17.390625 48.6875 27.296875 
z
" id="DejaVuSans-112"/>
     <path d="M 31 75.875 
Q 24.46875 64.65625 21.28125 53.65625 
Q 18.109375 42.671875 18.109375 31.390625 
Q 18.109375 20.125 21.3125 9.0625 
Q 24.515625 -2 31 -13.1875 
L 23.1875 -13.1875 
Q 15.875 -1.703125 12.234375 9.375 
Q 8.59375 20.453125 8.59375 31.390625 
Q 8.59375 42.28125 12.203125 53.3125 
Q 15.828125 64.359375 23.1875 75.875 
z
" id="DejaVuSans-40"/>
     <path d="M 41.109375 46.296875 
Q 39.59375 47.171875 37.8125 47.578125 
Q 36.03125 48 33.890625 48 
Q 26.265625 48 22.1875 43.046875 
Q 18.109375 38.09375 18.109375 28.8125 
L 18.109375 0 
L 9.078125 0 
L 9.078125 54.6875 
L 18.109375 54.6875 
L 18.109375 46.1875 
Q 20.953125 51.171875 25.484375 53.578125 
Q 30.03125 56 36.53125 56 
Q 37.453125 56 38.578125 55.875 
Q 39.703125 55.765625 41.0625 55.515625 
z
" id="DejaVuSans-114"/>
     <path d="M 45.40625 46.390625 
L 45.40625 75.984375 
L 54.390625 75.984375 
L 54.390625 0 
L 45.40625 0 
L 45.40625 8.203125 
Q 42.578125 3.328125 38.25 0.953125 
Q 33.9375 -1.421875 27.875 -1.421875 
Q 17.96875 -1.421875 11.734375 6.484375 
Q 5.515625 14.40625 5.515625 27.296875 
Q 5.515625 40.1875 11.734375 48.09375 
Q 17.96875 56 27.875 56 
Q 33.9375 56 38.25 53.625 
Q 42.578125 51.265625 45.40625 46.390625 
z
M 14.796875 27.296875 
Q 14.796875 17.390625 18.875 11.75 
Q 22.953125 6.109375 30.078125 6.109375 
Q 37.203125 6.109375 41.296875 11.75 
Q 45.40625 17.390625 45.40625 27.296875 
Q 45.40625 37.203125 41.296875 42.84375 
Q 37.203125 48.484375 30.078125 48.484375 
Q 22.953125 48.484375 18.875 42.84375 
Q 14.796875 37.203125 14.796875 27.296875 
z
" id="DejaVuSans-100"/>
     <path d="M 8.015625 75.875 
L 15.828125 75.875 
Q 23.140625 64.359375 26.78125 53.3125 
Q 30.421875 42.28125 30.421875 31.390625 
Q 30.421875 20.453125 26.78125 9.375 
Q 23.140625 -1.703125 15.828125 -13.1875 
L 8.015625 -13.1875 
Q 14.5 -2 17.703125 9.0625 
Q 20.90625 20.125 20.90625 31.390625 
Q 20.90625 42.671875 17.703125 53.65625 
Q 14.5 64.65625 8.015625 75.875 
z
" id="DejaVuSans-41"/>
     <path d="M 34.28125 27.484375 
Q 23.390625 27.484375 19.1875 25 
Q 14.984375 22.515625 14.984375 16.5 
Q 14.984375 11.71875 18.140625 8.90625 
Q 21.296875 6.109375 26.703125 6.109375 
Q 34.1875 6.109375 38.703125 11.40625 
Q 43.21875 16.703125 43.21875 25.484375 
L 43.21875 27.484375 
z
M 52.203125 31.203125 
L 52.203125 0 
L 43.21875 0 
L 43.21875 8.296875 
Q 40.140625 3.328125 35.546875 0.953125 
Q 30.953125 -1.421875 24.3125 -1.421875 
Q 15.921875 -1.421875 10.953125 3.296875 
Q 6 8.015625 6 15.921875 
Q 6 25.140625 12.171875 29.828125 
Q 18.359375 34.515625 30.609375 34.515625 
L 43.21875 34.515625 
L 43.21875 35.40625 
Q 43.21875 41.609375 39.140625 45 
Q 35.0625 48.390625 27.6875 48.390625 
Q 23 48.390625 18.546875 47.265625 
Q 14.109375 46.140625 10.015625 43.890625 
L 10.015625 52.203125 
Q 14.9375 54.109375 19.578125 55.046875 
Q 24.21875 56 28.609375 56 
Q 40.484375 56 46.34375 49.84375 
Q 52.203125 43.703125 52.203125 31.203125 
z
" id="DejaVuSans-97"/>
    </defs>
    <g transform="translate(1210.36125 150.832262)scale(0.34 -0.34)">
     <use xlink:href="#DejaVuSans-66"/>
     <use x="68.603516" xlink:href="#DejaVuSans-105"/>
     <use x="96.386719" xlink:href="#DejaVuSans-99"/>
     <use x="151.367188" xlink:href="#DejaVuSans-101"/>
     <use x="212.890625" xlink:href="#DejaVuSans-112"/>
     <use x="276.367188" xlink:href="#DejaVuSans-115"/>
     <use x="328.466797" xlink:href="#DejaVuSans-32"/>
     <use x="360.253906" xlink:href="#DejaVuSans-40"/>
     <use x="399.267578" xlink:href="#DejaVuSans-114"/>
     <use x="440.349609" xlink:href="#DejaVuSans-101"/>
     <use x="501.873047" xlink:href="#DejaVuSans-100"/>
     <use x="565.349609" xlink:href="#DejaVuSans-41"/>
     <use x="604.363281" xlink:href="#DejaVuSans-32"/>
     <use x="636.150391" xlink:href="#DejaVuSans-97"/>
     <use x="697.429688" xlink:href="#DejaVuSans-110"/>
     <use x="760.808594" xlink:href="#DejaVuSans-100"/>
     <use x="824.285156" xlink:href="#DejaVuSans-32"/>
     <use x="856.072266" xlink:href="#DejaVuSans-84"/>
     <use x="916.9375" xlink:href="#DejaVuSans-114"/>
     <use x="958.050781" xlink:href="#DejaVuSans-105"/>
     <use x="985.833984" xlink:href="#DejaVuSans-99"/>
     <use x="1040.814453" xlink:href="#DejaVuSans-101"/>
     <use x="1102.337891" xlink:href="#DejaVuSans-112"/>
     <use x="1165.814453" xlink:href="#DejaVuSans-115"/>
     <use x="1217.914062" xlink:href="#DejaVuSans-32"/>
     <use x="1249.701172" xlink:href="#DejaVuSans-40"/>
     <use x="1288.714844" xlink:href="#DejaVuSans-103"/>
     <use x="1352.191406" xlink:href="#DejaVuSans-114"/>
     <use x="1393.273438" xlink:href="#DejaVuSans-101"/>
     <use x="1454.796875" xlink:href="#DejaVuSans-101"/>
     <use x="1516.320312" xlink:href="#DejaVuSans-110"/>
     <use x="1579.699219" xlink:href="#DejaVuSans-41"/>
    </g>
   </g>
  </g>
  <g id="text_20">
   <!-- Forces - P30000 I0 D0 -->
   <defs>
    <path d="M 9.8125 72.90625 
L 51.703125 72.90625 
L 51.703125 64.59375 
L 19.671875 64.59375 
L 19.671875 43.109375 
L 48.578125 43.109375 
L 48.578125 34.8125 
L 19.671875 34.8125 
L 19.671875 0 
L 9.8125 0 
z
" id="DejaVuSans-70"/>
    <path d="M 30.609375 48.390625 
Q 23.390625 48.390625 19.1875 42.75 
Q 14.984375 37.109375 14.984375 27.296875 
Q 14.984375 17.484375 19.15625 11.84375 
Q 23.34375 6.203125 30.609375 6.203125 
Q 37.796875 6.203125 41.984375 11.859375 
Q 46.1875 17.53125 46.1875 27.296875 
Q 46.1875 37.015625 41.984375 42.703125 
Q 37.796875 48.390625 30.609375 48.390625 
z
M 30.609375 56 
Q 42.328125 56 49.015625 48.375 
Q 55.71875 40.765625 55.71875 27.296875 
Q 55.71875 13.875 49.015625 6.21875 
Q 42.328125 -1.421875 30.609375 -1.421875 
Q 18.84375 -1.421875 12.171875 6.21875 
Q 5.515625 13.875 5.515625 27.296875 
Q 5.515625 40.765625 12.171875 48.375 
Q 18.84375 56 30.609375 56 
z
" id="DejaVuSans-111"/>
    <path d="M 4.890625 31.390625 
L 31.203125 31.390625 
L 31.203125 23.390625 
L 4.890625 23.390625 
z
" id="DejaVuSans-45"/>
    <path d="M 19.671875 64.796875 
L 19.671875 37.40625 
L 32.078125 37.40625 
Q 38.96875 37.40625 42.71875 40.96875 
Q 46.484375 44.53125 46.484375 51.125 
Q 46.484375 57.671875 42.71875 61.234375 
Q 38.96875 64.796875 32.078125 64.796875 
z
M 9.8125 72.90625 
L 32.078125 72.90625 
Q 44.34375 72.90625 50.609375 67.359375 
Q 56.890625 61.8125 56.890625 51.125 
Q 56.890625 40.328125 50.609375 34.8125 
Q 44.34375 29.296875 32.078125 29.296875 
L 19.671875 29.296875 
L 19.671875 0 
L 9.8125 0 
z
" id="DejaVuSans-80"/>
    <path d="M 9.8125 72.90625 
L 19.671875 72.90625 
L 19.671875 0 
L 9.8125 0 
z
" id="DejaVuSans-73"/>
    <path d="M 19.671875 64.796875 
L 19.671875 8.109375 
L 31.59375 8.109375 
Q 46.6875 8.109375 53.6875 14.9375 
Q 60.6875 21.78125 60.6875 36.53125 
Q 60.6875 51.171875 53.6875 57.984375 
Q 46.6875 64.796875 31.59375 64.796875 
z
M 9.8125 72.90625 
L 30.078125 72.90625 
Q 51.265625 72.90625 61.171875 64.09375 
Q 71.09375 55.28125 71.09375 36.53125 
Q 71.09375 17.671875 61.125 8.828125 
Q 51.171875 0 30.078125 0 
L 9.8125 0 
z
" id="DejaVuSans-68"/>
   </defs>
   <g transform="translate(1252.367813 28.834927)scale(0.34 -0.34)">
    <use xlink:href="#DejaVuSans-70"/>
    <use x="57.472656" xlink:href="#DejaVuSans-111"/>
    <use x="118.654297" xlink:href="#DejaVuSans-114"/>
    <use x="159.736328" xlink:href="#DejaVuSans-99"/>
    <use x="214.716797" xlink:href="#DejaVuSans-101"/>
    <use x="276.240234" xlink:href="#DejaVuSans-115"/>
    <use x="328.339844" xlink:href="#DejaVuSans-32"/>
    <use x="360.126953" xlink:href="#DejaVuSans-45"/>
    <use x="396.210938" xlink:href="#DejaVuSans-32"/>
    <use x="427.998047" xlink:href="#DejaVuSans-80"/>
    <use x="488.300781" xlink:href="#DejaVuSans-51"/>
    <use x="551.923828" xlink:href="#DejaVuSans-48"/>
    <use x="615.546875" xlink:href="#DejaVuSans-48"/>
    <use x="679.169922" xlink:href="#DejaVuSans-48"/>
    <use x="742.792969" xlink:href="#DejaVuSans-48"/>
    <use x="806.416016" xlink:href="#DejaVuSans-32"/>
    <use x="838.203125" xlink:href="#DejaVuSans-73"/>
    <use x="867.695312" xlink:href="#DejaVuSans-48"/>
    <use x="931.318359" xlink:href="#DejaVuSans-32"/>
    <use x="963.105469" xlink:href="#DejaVuSans-68"/>
    <use x="1040.107422" xlink:href="#DejaVuSans-48"/>
   </g>
   <!-- Bagfile elbow_left_D from 10s for 367s - Logging Rate 10 - Simulation Rate 400 - 100.00% real time speed -->
   <defs>
    <path d="M 37.109375 75.984375 
L 37.109375 68.5 
L 28.515625 68.5 
Q 23.6875 68.5 21.796875 66.546875 
Q 19.921875 64.59375 19.921875 59.515625 
L 19.921875 54.6875 
L 34.71875 54.6875 
L 34.71875 47.703125 
L 19.921875 47.703125 
L 19.921875 0 
L 10.890625 0 
L 10.890625 47.703125 
L 2.296875 47.703125 
L 2.296875 54.6875 
L 10.890625 54.6875 
L 10.890625 58.5 
Q 10.890625 67.625 15.140625 71.796875 
Q 19.390625 75.984375 28.609375 75.984375 
z
" id="DejaVuSans-102"/>
    <path d="M 9.421875 75.984375 
L 18.40625 75.984375 
L 18.40625 0 
L 9.421875 0 
z
" id="DejaVuSans-108"/>
    <path d="M 48.6875 27.296875 
Q 48.6875 37.203125 44.609375 42.84375 
Q 40.53125 48.484375 33.40625 48.484375 
Q 26.265625 48.484375 22.1875 42.84375 
Q 18.109375 37.203125 18.109375 27.296875 
Q 18.109375 17.390625 22.1875 11.75 
Q 26.265625 6.109375 33.40625 6.109375 
Q 40.53125 6.109375 44.609375 11.75 
Q 48.6875 17.390625 48.6875 27.296875 
z
M 18.109375 46.390625 
Q 20.953125 51.265625 25.265625 53.625 
Q 29.59375 56 35.59375 56 
Q 45.5625 56 51.78125 48.09375 
Q 58.015625 40.1875 58.015625 27.296875 
Q 58.015625 14.40625 51.78125 6.484375 
Q 45.5625 -1.421875 35.59375 -1.421875 
Q 29.59375 -1.421875 25.265625 0.953125 
Q 20.953125 3.328125 18.109375 8.203125 
L 18.109375 0 
L 9.078125 0 
L 9.078125 75.984375 
L 18.109375 75.984375 
z
" id="DejaVuSans-98"/>
    <path d="M 4.203125 54.6875 
L 13.1875 54.6875 
L 24.421875 12.015625 
L 35.59375 54.6875 
L 46.1875 54.6875 
L 57.421875 12.015625 
L 68.609375 54.6875 
L 77.59375 54.6875 
L 63.28125 0 
L 52.6875 0 
L 40.921875 44.828125 
L 29.109375 0 
L 18.5 0 
z
" id="DejaVuSans-119"/>
    <path d="M 50.984375 -16.609375 
L 50.984375 -23.578125 
L -0.984375 -23.578125 
L -0.984375 -16.609375 
z
" id="DejaVuSans-95"/>
    <path d="M 8.203125 72.90625 
L 55.078125 72.90625 
L 55.078125 68.703125 
L 28.609375 0 
L 18.3125 0 
L 43.21875 64.59375 
L 8.203125 64.59375 
z
" id="DejaVuSans-55"/>
    <path d="M 44.390625 34.1875 
Q 47.5625 33.109375 50.5625 29.59375 
Q 53.5625 26.078125 56.59375 19.921875 
L 66.609375 0 
L 56 0 
L 46.6875 18.703125 
Q 43.0625 26.03125 39.671875 28.421875 
Q 36.28125 30.8125 30.421875 30.8125 
L 19.671875 30.8125 
L 19.671875 0 
L 9.8125 0 
L 9.8125 72.90625 
L 32.078125 72.90625 
Q 44.578125 72.90625 50.734375 67.671875 
Q 56.890625 62.453125 56.890625 51.90625 
Q 56.890625 45.015625 53.6875 40.46875 
Q 50.484375 35.9375 44.390625 34.1875 
z
M 19.671875 64.796875 
L 19.671875 38.921875 
L 32.078125 38.921875 
Q 39.203125 38.921875 42.84375 42.21875 
Q 46.484375 45.515625 46.484375 51.90625 
Q 46.484375 58.296875 42.84375 61.546875 
Q 39.203125 64.796875 32.078125 64.796875 
z
" id="DejaVuSans-82"/>
    <path d="M 53.515625 70.515625 
L 53.515625 60.890625 
Q 47.90625 63.578125 42.921875 64.890625 
Q 37.9375 66.21875 33.296875 66.21875 
Q 25.25 66.21875 20.875 63.09375 
Q 16.5 59.96875 16.5 54.203125 
Q 16.5 49.359375 19.40625 46.890625 
Q 22.3125 44.4375 30.421875 42.921875 
L 36.375 41.703125 
Q 47.40625 39.59375 52.65625 34.296875 
Q 57.90625 29 57.90625 20.125 
Q 57.90625 9.515625 50.796875 4.046875 
Q 43.703125 -1.421875 29.984375 -1.421875 
Q 24.8125 -1.421875 18.96875 -0.25 
Q 13.140625 0.921875 6.890625 3.21875 
L 6.890625 13.375 
Q 12.890625 10.015625 18.65625 8.296875 
Q 24.421875 6.59375 29.984375 6.59375 
Q 38.421875 6.59375 43.015625 9.90625 
Q 47.609375 13.234375 47.609375 19.390625 
Q 47.609375 24.75 44.3125 27.78125 
Q 41.015625 30.8125 33.5 32.328125 
L 27.484375 33.5 
Q 16.453125 35.6875 11.515625 40.375 
Q 6.59375 45.0625 6.59375 53.421875 
Q 6.59375 63.09375 13.40625 68.65625 
Q 20.21875 74.21875 32.171875 74.21875 
Q 37.3125 74.21875 42.625 73.28125 
Q 47.953125 72.359375 53.515625 70.515625 
z
" id="DejaVuSans-83"/>
    <path d="M 8.5 21.578125 
L 8.5 54.6875 
L 17.484375 54.6875 
L 17.484375 21.921875 
Q 17.484375 14.15625 20.5 10.265625 
Q 23.53125 6.390625 29.59375 6.390625 
Q 36.859375 6.390625 41.078125 11.03125 
Q 45.3125 15.671875 45.3125 23.6875 
L 45.3125 54.6875 
L 54.296875 54.6875 
L 54.296875 0 
L 45.3125 0 
L 45.3125 8.40625 
Q 42.046875 3.421875 37.71875 1 
Q 33.40625 -1.421875 27.6875 -1.421875 
Q 18.265625 -1.421875 13.375 4.4375 
Q 8.5 10.296875 8.5 21.578125 
z
M 31.109375 56 
z
" id="DejaVuSans-117"/>
    <path d="M 10.6875 12.40625 
L 21 12.40625 
L 21 0 
L 10.6875 0 
z
" id="DejaVuSans-46"/>
    <path d="M 72.703125 32.078125 
Q 68.453125 32.078125 66.03125 28.46875 
Q 63.625 24.859375 63.625 18.40625 
Q 63.625 12.0625 66.03125 8.421875 
Q 68.453125 4.78125 72.703125 4.78125 
Q 76.859375 4.78125 79.265625 8.421875 
Q 81.6875 12.0625 81.6875 18.40625 
Q 81.6875 24.8125 79.265625 28.4375 
Q 76.859375 32.078125 72.703125 32.078125 
z
M 72.703125 38.28125 
Q 80.421875 38.28125 84.953125 32.90625 
Q 89.5 27.546875 89.5 18.40625 
Q 89.5 9.28125 84.9375 3.921875 
Q 80.375 -1.421875 72.703125 -1.421875 
Q 64.890625 -1.421875 60.34375 3.921875 
Q 55.8125 9.28125 55.8125 18.40625 
Q 55.8125 27.59375 60.375 32.9375 
Q 64.9375 38.28125 72.703125 38.28125 
z
M 22.3125 68.015625 
Q 18.109375 68.015625 15.6875 64.375 
Q 13.28125 60.75 13.28125 54.390625 
Q 13.28125 47.953125 15.671875 44.328125 
Q 18.0625 40.71875 22.3125 40.71875 
Q 26.5625 40.71875 28.96875 44.328125 
Q 31.390625 47.953125 31.390625 54.390625 
Q 31.390625 60.6875 28.953125 64.34375 
Q 26.515625 68.015625 22.3125 68.015625 
z
M 66.40625 74.21875 
L 74.21875 74.21875 
L 28.609375 -1.421875 
L 20.796875 -1.421875 
z
M 22.3125 74.21875 
Q 30.03125 74.21875 34.609375 68.875 
Q 39.203125 63.53125 39.203125 54.390625 
Q 39.203125 45.171875 34.640625 39.84375 
Q 30.078125 34.515625 22.3125 34.515625 
Q 14.546875 34.515625 10.03125 39.859375 
Q 5.515625 45.21875 5.515625 54.390625 
Q 5.515625 63.484375 10.046875 68.84375 
Q 14.59375 74.21875 22.3125 74.21875 
z
" id="DejaVuSans-37"/>
   </defs>
   <g transform="translate(533.222656 66.90749)scale(0.34 -0.34)">
    <use xlink:href="#DejaVuSans-66"/>
    <use x="68.603516" xlink:href="#DejaVuSans-97"/>
    <use x="129.882812" xlink:href="#DejaVuSans-103"/>
    <use x="193.359375" xlink:href="#DejaVuSans-102"/>
    <use x="228.564453" xlink:href="#DejaVuSans-105"/>
    <use x="256.347656" xlink:href="#DejaVuSans-108"/>
    <use x="284.130859" xlink:href="#DejaVuSans-101"/>
    <use x="345.654297" xlink:href="#DejaVuSans-32"/>
    <use x="377.441406" xlink:href="#DejaVuSans-101"/>
    <use x="438.964844" xlink:href="#DejaVuSans-108"/>
    <use x="466.748047" xlink:href="#DejaVuSans-98"/>
    <use x="530.224609" xlink:href="#DejaVuSans-111"/>
    <use x="591.40625" xlink:href="#DejaVuSans-119"/>
    <use x="673.193359" xlink:href="#DejaVuSans-95"/>
    <use x="723.193359" xlink:href="#DejaVuSans-108"/>
    <use x="750.976562" xlink:href="#DejaVuSans-101"/>
    <use x="812.5" xlink:href="#DejaVuSans-102"/>
    <use x="847.689453" xlink:href="#DejaVuSans-116"/>
    <use x="886.898438" xlink:href="#DejaVuSans-95"/>
    <use x="936.898438" xlink:href="#DejaVuSans-68"/>
    <use x="1013.900391" xlink:href="#DejaVuSans-32"/>
    <use x="1045.6875" xlink:href="#DejaVuSans-102"/>
    <use x="1080.892578" xlink:href="#DejaVuSans-114"/>
    <use x="1121.974609" xlink:href="#DejaVuSans-111"/>
    <use x="1183.15625" xlink:href="#DejaVuSans-109"/>
    <use x="1280.568359" xlink:href="#DejaVuSans-32"/>
    <use x="1312.355469" xlink:href="#DejaVuSans-49"/>
    <use x="1375.978516" xlink:href="#DejaVuSans-48"/>
    <use x="1439.601562" xlink:href="#DejaVuSans-115"/>
    <use x="1491.701172" xlink:href="#DejaVuSans-32"/>
    <use x="1523.488281" xlink:href="#DejaVuSans-102"/>
    <use x="1558.693359" xlink:href="#DejaVuSans-111"/>
    <use x="1619.875" xlink:href="#DejaVuSans-114"/>
    <use x="1660.988281" xlink:href="#DejaVuSans-32"/>
    <use x="1692.775391" xlink:href="#DejaVuSans-51"/>
    <use x="1756.398438" xlink:href="#DejaVuSans-54"/>
    <use x="1820.021484" xlink:href="#DejaVuSans-55"/>
    <use x="1883.644531" xlink:href="#DejaVuSans-115"/>
    <use x="1935.744141" xlink:href="#DejaVuSans-32"/>
    <use x="1967.53125" xlink:href="#DejaVuSans-45"/>
    <use x="2003.615234" xlink:href="#DejaVuSans-32"/>
    <use x="2035.402344" xlink:href="#DejaVuSans-76"/>
    <use x="2091.099609" xlink:href="#DejaVuSans-111"/>
    <use x="2152.28125" xlink:href="#DejaVuSans-103"/>
    <use x="2215.757812" xlink:href="#DejaVuSans-103"/>
    <use x="2279.234375" xlink:href="#DejaVuSans-105"/>
    <use x="2307.017578" xlink:href="#DejaVuSans-110"/>
    <use x="2370.396484" xlink:href="#DejaVuSans-103"/>
    <use x="2433.873047" xlink:href="#DejaVuSans-32"/>
    <use x="2465.660156" xlink:href="#DejaVuSans-82"/>
    <use x="2535.111328" xlink:href="#DejaVuSans-97"/>
    <use x="2596.390625" xlink:href="#DejaVuSans-116"/>
    <use x="2635.599609" xlink:href="#DejaVuSans-101"/>
    <use x="2697.123047" xlink:href="#DejaVuSans-32"/>
    <use x="2728.910156" xlink:href="#DejaVuSans-49"/>
    <use x="2792.533203" xlink:href="#DejaVuSans-48"/>
    <use x="2856.15625" xlink:href="#DejaVuSans-32"/>
    <use x="2887.943359" xlink:href="#DejaVuSans-45"/>
    <use x="2924.027344" xlink:href="#DejaVuSans-32"/>
    <use x="2955.814453" xlink:href="#DejaVuSans-83"/>
    <use x="3019.291016" xlink:href="#DejaVuSans-105"/>
    <use x="3047.074219" xlink:href="#DejaVuSans-109"/>
    <use x="3144.486328" xlink:href="#DejaVuSans-117"/>
    <use x="3207.865234" xlink:href="#DejaVuSans-108"/>
    <use x="3235.648438" xlink:href="#DejaVuSans-97"/>
    <use x="3296.927734" xlink:href="#DejaVuSans-116"/>
    <use x="3336.136719" xlink:href="#DejaVuSans-105"/>
    <use x="3363.919922" xlink:href="#DejaVuSans-111"/>
    <use x="3425.101562" xlink:href="#DejaVuSans-110"/>
    <use x="3488.480469" xlink:href="#DejaVuSans-32"/>
    <use x="3520.267578" xlink:href="#DejaVuSans-82"/>
    <use x="3589.71875" xlink:href="#DejaVuSans-97"/>
    <use x="3650.998047" xlink:href="#DejaVuSans-116"/>
    <use x="3690.207031" xlink:href="#DejaVuSans-101"/>
    <use x="3751.730469" xlink:href="#DejaVuSans-32"/>
    <use x="3783.517578" xlink:href="#DejaVuSans-52"/>
    <use x="3847.140625" xlink:href="#DejaVuSans-48"/>
    <use x="3910.763672" xlink:href="#DejaVuSans-48"/>
    <use x="3974.386719" xlink:href="#DejaVuSans-32"/>
    <use x="4006.173828" xlink:href="#DejaVuSans-45"/>
    <use x="4042.257812" xlink:href="#DejaVuSans-32"/>
    <use x="4074.044922" xlink:href="#DejaVuSans-49"/>
    <use x="4137.667969" xlink:href="#DejaVuSans-48"/>
    <use x="4201.291016" xlink:href="#DejaVuSans-48"/>
    <use x="4264.914062" xlink:href="#DejaVuSans-46"/>
    <use x="4296.701172" xlink:href="#DejaVuSans-48"/>
    <use x="4360.324219" xlink:href="#DejaVuSans-48"/>
    <use x="4423.947266" xlink:href="#DejaVuSans-37"/>
    <use x="4518.966797" xlink:href="#DejaVuSans-32"/>
    <use x="4550.753906" xlink:href="#DejaVuSans-114"/>
    <use x="4591.835938" xlink:href="#DejaVuSans-101"/>
    <use x="4653.359375" xlink:href="#DejaVuSans-97"/>
    <use x="4714.638672" xlink:href="#DejaVuSans-108"/>
    <use x="4742.421875" xlink:href="#DejaVuSans-32"/>
    <use x="4774.208984" xlink:href="#DejaVuSans-116"/>
    <use x="4813.417969" xlink:href="#DejaVuSans-105"/>
    <use x="4841.201172" xlink:href="#DejaVuSans-109"/>
    <use x="4938.613281" xlink:href="#DejaVuSans-101"/>
    <use x="5000.136719" xlink:href="#DejaVuSans-32"/>
    <use x="5031.923828" xlink:href="#DejaVuSans-115"/>
    <use x="5084.023438" xlink:href="#DejaVuSans-112"/>
    <use x="5147.5" xlink:href="#DejaVuSans-101"/>
    <use x="5209.023438" xlink:href="#DejaVuSans-101"/>
    <use x="5270.546875" xlink:href="#DejaVuSans-100"/>
   </g>
   <!--  -->
   <g transform="translate(1440 105.925677)scale(0.34 -0.34)"/>
  </g>
 </g>
 <defs>
  <clipPath id="p51fe5e07df">
   <rect height="863.577185" width="2782.90202" x="94.09774" y="157.9032"/>
  </clipPath>
 </defs>
</svg>
