<?xml version="1.0" encoding="utf-8" standalone="no"?>
<!DOCTYPE svg PUBLIC "-//W3C//DTD SVG 1.1//EN"
  "http://www.w3.org/Graphics/SVG/1.1/DTD/svg11.dtd">
<!-- Created with matplotlib (https://matplotlib.org/) -->
<svg height="1080pt" version="1.1" viewBox="0 0 2880 1080" width="2880pt" xmlns="http://www.w3.org/2000/svg" xmlns:xlink="http://www.w3.org/1999/xlink">
 <defs>
  <style type="text/css">
*{stroke-linecap:butt;stroke-linejoin:round;}
  </style>
 </defs>
 <g id="figure_1">
  <g id="patch_1">
   <path d="M 0 1080 
L 2880 1080 
L 2880 0 
L 0 0 
z
" style="fill:#ffffff;"/>
  </g>
  <g id="axes_1">
   <g id="patch_2">
    <path d="M 83.694615 1021.480385 
L 2876.99976 1021.480385 
L 2876.99976 157.9032 
L 83.694615 157.9032 
z
" style="fill:#ffffff;"/>
   </g>
   <g id="matplotlib.axis_1">
    <g id="xtick_1">
     <g id="line2d_1">
      <defs>
       <path d="M 0 0 
L 0 3.5 
" id="me5a8a84bef" style="stroke:#000000;stroke-width:0.8;"/>
      </defs>
      <g>
       <use style="stroke:#000000;stroke-width:0.8;" x="141.564627" xlink:href="#me5a8a84bef" y="1021.480385"/>
      </g>
     </g>
     <g id="text_1">
      <!-- 0 -->
      <defs>
       <path d="M 31.78125 66.40625 
Q 24.171875 66.40625 20.328125 58.90625 
Q 16.5 51.421875 16.5 36.375 
Q 16.5 21.390625 20.328125 13.890625 
Q 24.171875 6.390625 31.78125 6.390625 
Q 39.453125 6.390625 43.28125 13.890625 
Q 47.125 21.390625 47.125 36.375 
Q 47.125 51.421875 43.28125 58.90625 
Q 39.453125 66.40625 31.78125 66.40625 
z
M 31.78125 74.21875 
Q 44.046875 74.21875 50.515625 64.515625 
Q 56.984375 54.828125 56.984375 36.375 
Q 56.984375 17.96875 50.515625 8.265625 
Q 44.046875 -1.421875 31.78125 -1.421875 
Q 19.53125 -1.421875 13.0625 8.265625 
Q 6.59375 17.96875 6.59375 36.375 
Q 6.59375 54.828125 13.0625 64.515625 
Q 19.53125 74.21875 31.78125 74.21875 
z
" id="DejaVuSans-48"/>
      </defs>
      <g transform="translate(135.202127 1043.67726)scale(0.2 -0.2)">
       <use xlink:href="#DejaVuSans-48"/>
      </g>
     </g>
    </g>
    <g id="xtick_2">
     <g id="line2d_2">
      <g>
       <use style="stroke:#000000;stroke-width:0.8;" x="487.056647" xlink:href="#me5a8a84bef" y="1021.480385"/>
      </g>
     </g>
     <g id="text_2">
      <!-- 50 -->
      <defs>
       <path d="M 10.796875 72.90625 
L 49.515625 72.90625 
L 49.515625 64.59375 
L 19.828125 64.59375 
L 19.828125 46.734375 
Q 21.96875 47.46875 24.109375 47.828125 
Q 26.265625 48.1875 28.421875 48.1875 
Q 40.625 48.1875 47.75 41.5 
Q 54.890625 34.8125 54.890625 23.390625 
Q 54.890625 11.625 47.5625 5.09375 
Q 40.234375 -1.421875 26.90625 -1.421875 
Q 22.3125 -1.421875 17.546875 -0.640625 
Q 12.796875 0.140625 7.71875 1.703125 
L 7.71875 11.625 
Q 12.109375 9.234375 16.796875 8.0625 
Q 21.484375 6.890625 26.703125 6.890625 
Q 35.15625 6.890625 40.078125 11.328125 
Q 45.015625 15.765625 45.015625 23.390625 
Q 45.015625 31 40.078125 35.4375 
Q 35.15625 39.890625 26.703125 39.890625 
Q 22.75 39.890625 18.8125 39.015625 
Q 14.890625 38.140625 10.796875 36.28125 
z
" id="DejaVuSans-53"/>
      </defs>
      <g transform="translate(474.331647 1043.67726)scale(0.2 -0.2)">
       <use xlink:href="#DejaVuSans-53"/>
       <use x="63.623047" xlink:href="#DejaVuSans-48"/>
      </g>
     </g>
    </g>
    <g id="xtick_3">
     <g id="line2d_3">
      <g>
       <use style="stroke:#000000;stroke-width:0.8;" x="832.548668" xlink:href="#me5a8a84bef" y="1021.480385"/>
      </g>
     </g>
     <g id="text_3">
      <!-- 100 -->
      <defs>
       <path d="M 12.40625 8.296875 
L 28.515625 8.296875 
L 28.515625 63.921875 
L 10.984375 60.40625 
L 10.984375 69.390625 
L 28.421875 72.90625 
L 38.28125 72.90625 
L 38.28125 8.296875 
L 54.390625 8.296875 
L 54.390625 0 
L 12.40625 0 
z
" id="DejaVuSans-49"/>
      </defs>
      <g transform="translate(813.461168 1043.67726)scale(0.2 -0.2)">
       <use xlink:href="#DejaVuSans-49"/>
       <use x="63.623047" xlink:href="#DejaVuSans-48"/>
       <use x="127.246094" xlink:href="#DejaVuSans-48"/>
      </g>
     </g>
    </g>
    <g id="xtick_4">
     <g id="line2d_4">
      <g>
       <use style="stroke:#000000;stroke-width:0.8;" x="1178.040688" xlink:href="#me5a8a84bef" y="1021.480385"/>
      </g>
     </g>
     <g id="text_4">
      <!-- 150 -->
      <g transform="translate(1158.953188 1043.67726)scale(0.2 -0.2)">
       <use xlink:href="#DejaVuSans-49"/>
       <use x="63.623047" xlink:href="#DejaVuSans-53"/>
       <use x="127.246094" xlink:href="#DejaVuSans-48"/>
      </g>
     </g>
    </g>
    <g id="xtick_5">
     <g id="line2d_5">
      <g>
       <use style="stroke:#000000;stroke-width:0.8;" x="1523.532709" xlink:href="#me5a8a84bef" y="1021.480385"/>
      </g>
     </g>
     <g id="text_5">
      <!-- 200 -->
      <defs>
       <path d="M 19.1875 8.296875 
L 53.609375 8.296875 
L 53.609375 0 
L 7.328125 0 
L 7.328125 8.296875 
Q 12.9375 14.109375 22.625 23.890625 
Q 32.328125 33.6875 34.8125 36.53125 
Q 39.546875 41.84375 41.421875 45.53125 
Q 43.3125 49.21875 43.3125 52.78125 
Q 43.3125 58.59375 39.234375 62.25 
Q 35.15625 65.921875 28.609375 65.921875 
Q 23.96875 65.921875 18.8125 64.3125 
Q 13.671875 62.703125 7.8125 59.421875 
L 7.8125 69.390625 
Q 13.765625 71.78125 18.9375 73 
Q 24.125 74.21875 28.421875 74.21875 
Q 39.75 74.21875 46.484375 68.546875 
Q 53.21875 62.890625 53.21875 53.421875 
Q 53.21875 48.921875 51.53125 44.890625 
Q 49.859375 40.875 45.40625 35.40625 
Q 44.1875 33.984375 37.640625 27.21875 
Q 31.109375 20.453125 19.1875 8.296875 
z
" id="DejaVuSans-50"/>
      </defs>
      <g transform="translate(1504.445209 1043.67726)scale(0.2 -0.2)">
       <use xlink:href="#DejaVuSans-50"/>
       <use x="63.623047" xlink:href="#DejaVuSans-48"/>
       <use x="127.246094" xlink:href="#DejaVuSans-48"/>
      </g>
     </g>
    </g>
    <g id="xtick_6">
     <g id="line2d_6">
      <g>
       <use style="stroke:#000000;stroke-width:0.8;" x="1869.02473" xlink:href="#me5a8a84bef" y="1021.480385"/>
      </g>
     </g>
     <g id="text_6">
      <!-- 250 -->
      <g transform="translate(1849.93723 1043.67726)scale(0.2 -0.2)">
       <use xlink:href="#DejaVuSans-50"/>
       <use x="63.623047" xlink:href="#DejaVuSans-53"/>
       <use x="127.246094" xlink:href="#DejaVuSans-48"/>
      </g>
     </g>
    </g>
    <g id="xtick_7">
     <g id="line2d_7">
      <g>
       <use style="stroke:#000000;stroke-width:0.8;" x="2214.51675" xlink:href="#me5a8a84bef" y="1021.480385"/>
      </g>
     </g>
     <g id="text_7">
      <!-- 300 -->
      <defs>
       <path d="M 40.578125 39.3125 
Q 47.65625 37.796875 51.625 33 
Q 55.609375 28.21875 55.609375 21.1875 
Q 55.609375 10.40625 48.1875 4.484375 
Q 40.765625 -1.421875 27.09375 -1.421875 
Q 22.515625 -1.421875 17.65625 -0.515625 
Q 12.796875 0.390625 7.625 2.203125 
L 7.625 11.71875 
Q 11.71875 9.328125 16.59375 8.109375 
Q 21.484375 6.890625 26.8125 6.890625 
Q 36.078125 6.890625 40.9375 10.546875 
Q 45.796875 14.203125 45.796875 21.1875 
Q 45.796875 27.640625 41.28125 31.265625 
Q 36.765625 34.90625 28.71875 34.90625 
L 20.21875 34.90625 
L 20.21875 43.015625 
L 29.109375 43.015625 
Q 36.375 43.015625 40.234375 45.921875 
Q 44.09375 48.828125 44.09375 54.296875 
Q 44.09375 59.90625 40.109375 62.90625 
Q 36.140625 65.921875 28.71875 65.921875 
Q 24.65625 65.921875 20.015625 65.03125 
Q 15.375 64.15625 9.8125 62.3125 
L 9.8125 71.09375 
Q 15.4375 72.65625 20.34375 73.4375 
Q 25.25 74.21875 29.59375 74.21875 
Q 40.828125 74.21875 47.359375 69.109375 
Q 53.90625 64.015625 53.90625 55.328125 
Q 53.90625 49.265625 50.4375 45.09375 
Q 46.96875 40.921875 40.578125 39.3125 
z
" id="DejaVuSans-51"/>
      </defs>
      <g transform="translate(2195.42925 1043.67726)scale(0.2 -0.2)">
       <use xlink:href="#DejaVuSans-51"/>
       <use x="63.623047" xlink:href="#DejaVuSans-48"/>
       <use x="127.246094" xlink:href="#DejaVuSans-48"/>
      </g>
     </g>
    </g>
    <g id="xtick_8">
     <g id="line2d_8">
      <g>
       <use style="stroke:#000000;stroke-width:0.8;" x="2560.008771" xlink:href="#me5a8a84bef" y="1021.480385"/>
      </g>
     </g>
     <g id="text_8">
      <!-- 350 -->
      <g transform="translate(2540.921271 1043.67726)scale(0.2 -0.2)">
       <use xlink:href="#DejaVuSans-51"/>
       <use x="63.623047" xlink:href="#DejaVuSans-53"/>
       <use x="127.246094" xlink:href="#DejaVuSans-48"/>
      </g>
     </g>
    </g>
    <g id="text_9">
     <!-- Time [s] -->
     <defs>
      <path d="M -0.296875 72.90625 
L 61.375 72.90625 
L 61.375 64.59375 
L 35.5 64.59375 
L 35.5 0 
L 25.59375 0 
L 25.59375 64.59375 
L -0.296875 64.59375 
z
" id="DejaVuSans-84"/>
      <path d="M 9.421875 54.6875 
L 18.40625 54.6875 
L 18.40625 0 
L 9.421875 0 
z
M 9.421875 75.984375 
L 18.40625 75.984375 
L 18.40625 64.59375 
L 9.421875 64.59375 
z
" id="DejaVuSans-105"/>
      <path d="M 52 44.1875 
Q 55.375 50.25 60.0625 53.125 
Q 64.75 56 71.09375 56 
Q 79.640625 56 84.28125 50.015625 
Q 88.921875 44.046875 88.921875 33.015625 
L 88.921875 0 
L 79.890625 0 
L 79.890625 32.71875 
Q 79.890625 40.578125 77.09375 44.375 
Q 74.3125 48.1875 68.609375 48.1875 
Q 61.625 48.1875 57.5625 43.546875 
Q 53.515625 38.921875 53.515625 30.90625 
L 53.515625 0 
L 44.484375 0 
L 44.484375 32.71875 
Q 44.484375 40.625 41.703125 44.40625 
Q 38.921875 48.1875 33.109375 48.1875 
Q 26.21875 48.1875 22.15625 43.53125 
Q 18.109375 38.875 18.109375 30.90625 
L 18.109375 0 
L 9.078125 0 
L 9.078125 54.6875 
L 18.109375 54.6875 
L 18.109375 46.1875 
Q 21.1875 51.21875 25.484375 53.609375 
Q 29.78125 56 35.6875 56 
Q 41.65625 56 45.828125 52.96875 
Q 50 49.953125 52 44.1875 
z
" id="DejaVuSans-109"/>
      <path d="M 56.203125 29.59375 
L 56.203125 25.203125 
L 14.890625 25.203125 
Q 15.484375 15.921875 20.484375 11.0625 
Q 25.484375 6.203125 34.421875 6.203125 
Q 39.59375 6.203125 44.453125 7.46875 
Q 49.3125 8.734375 54.109375 11.28125 
L 54.109375 2.78125 
Q 49.265625 0.734375 44.1875 -0.34375 
Q 39.109375 -1.421875 33.890625 -1.421875 
Q 20.796875 -1.421875 13.15625 6.1875 
Q 5.515625 13.8125 5.515625 26.8125 
Q 5.515625 40.234375 12.765625 48.109375 
Q 20.015625 56 32.328125 56 
Q 43.359375 56 49.78125 48.890625 
Q 56.203125 41.796875 56.203125 29.59375 
z
M 47.21875 32.234375 
Q 47.125 39.59375 43.09375 43.984375 
Q 39.0625 48.390625 32.421875 48.390625 
Q 24.90625 48.390625 20.390625 44.140625 
Q 15.875 39.890625 15.1875 32.171875 
z
" id="DejaVuSans-101"/>
      <path id="DejaVuSans-32"/>
      <path d="M 8.59375 75.984375 
L 29.296875 75.984375 
L 29.296875 69 
L 17.578125 69 
L 17.578125 -6.203125 
L 29.296875 -6.203125 
L 29.296875 -13.1875 
L 8.59375 -13.1875 
z
" id="DejaVuSans-91"/>
      <path d="M 44.28125 53.078125 
L 44.28125 44.578125 
Q 40.484375 46.53125 36.375 47.5 
Q 32.28125 48.484375 27.875 48.484375 
Q 21.1875 48.484375 17.84375 46.4375 
Q 14.5 44.390625 14.5 40.28125 
Q 14.5 37.15625 16.890625 35.375 
Q 19.28125 33.59375 26.515625 31.984375 
L 29.59375 31.296875 
Q 39.15625 29.25 43.1875 25.515625 
Q 47.21875 21.78125 47.21875 15.09375 
Q 47.21875 7.46875 41.1875 3.015625 
Q 35.15625 -1.421875 24.609375 -1.421875 
Q 20.21875 -1.421875 15.453125 -0.5625 
Q 10.6875 0.296875 5.421875 2 
L 5.421875 11.28125 
Q 10.40625 8.6875 15.234375 7.390625 
Q 20.0625 6.109375 24.8125 6.109375 
Q 31.15625 6.109375 34.5625 8.28125 
Q 37.984375 10.453125 37.984375 14.40625 
Q 37.984375 18.0625 35.515625 20.015625 
Q 33.0625 21.96875 24.703125 23.78125 
L 21.578125 24.515625 
Q 13.234375 26.265625 9.515625 29.90625 
Q 5.8125 33.546875 5.8125 39.890625 
Q 5.8125 47.609375 11.28125 51.796875 
Q 16.75 56 26.8125 56 
Q 31.78125 56 36.171875 55.265625 
Q 40.578125 54.546875 44.28125 53.078125 
z
" id="DejaVuSans-115"/>
      <path d="M 30.421875 75.984375 
L 30.421875 -13.1875 
L 9.71875 -13.1875 
L 9.71875 -6.203125 
L 21.390625 -6.203125 
L 21.390625 69 
L 9.71875 69 
L 9.71875 75.984375 
z
" id="DejaVuSans-93"/>
     </defs>
     <g transform="translate(1427.091875 1071.592572)scale(0.26 -0.26)">
      <use xlink:href="#DejaVuSans-84"/>
      <use x="61.037109" xlink:href="#DejaVuSans-105"/>
      <use x="88.820312" xlink:href="#DejaVuSans-109"/>
      <use x="186.232422" xlink:href="#DejaVuSans-101"/>
      <use x="247.755859" xlink:href="#DejaVuSans-32"/>
      <use x="279.542969" xlink:href="#DejaVuSans-91"/>
      <use x="318.556641" xlink:href="#DejaVuSans-115"/>
      <use x="370.65625" xlink:href="#DejaVuSans-93"/>
     </g>
    </g>
   </g>
   <g id="matplotlib.axis_2">
    <g id="ytick_1">
     <g id="line2d_9">
      <defs>
       <path d="M 0 0 
L -3.5 0 
" id="m95be6df312" style="stroke:#000000;stroke-width:0.8;"/>
      </defs>
      <g>
       <use style="stroke:#000000;stroke-width:0.8;" x="83.694615" xlink:href="#m95be6df312" y="963.96553"/>
      </g>
     </g>
     <g id="text_10">
      <!-- 0.07 -->
      <defs>
       <path d="M 10.6875 12.40625 
L 21 12.40625 
L 21 0 
L 10.6875 0 
z
" id="DejaVuSans-46"/>
       <path d="M 8.203125 72.90625 
L 55.078125 72.90625 
L 55.078125 68.703125 
L 28.609375 0 
L 18.3125 0 
L 43.21875 64.59375 
L 8.203125 64.59375 
z
" id="DejaVuSans-55"/>
      </defs>
      <g transform="translate(32.163365 971.563967)scale(0.2 -0.2)">
       <use xlink:href="#DejaVuSans-48"/>
       <use x="63.623047" xlink:href="#DejaVuSans-46"/>
       <use x="95.410156" xlink:href="#DejaVuSans-48"/>
       <use x="159.033203" xlink:href="#DejaVuSans-55"/>
      </g>
     </g>
    </g>
    <g id="ytick_2">
     <g id="line2d_10">
      <g>
       <use style="stroke:#000000;stroke-width:0.8;" x="83.694615" xlink:href="#m95be6df312" y="866.364634"/>
      </g>
     </g>
     <g id="text_11">
      <!-- 0.08 -->
      <defs>
       <path d="M 31.78125 34.625 
Q 24.75 34.625 20.71875 30.859375 
Q 16.703125 27.09375 16.703125 20.515625 
Q 16.703125 13.921875 20.71875 10.15625 
Q 24.75 6.390625 31.78125 6.390625 
Q 38.8125 6.390625 42.859375 10.171875 
Q 46.921875 13.96875 46.921875 20.515625 
Q 46.921875 27.09375 42.890625 30.859375 
Q 38.875 34.625 31.78125 34.625 
z
M 21.921875 38.8125 
Q 15.578125 40.375 12.03125 44.71875 
Q 8.5 49.078125 8.5 55.328125 
Q 8.5 64.0625 14.71875 69.140625 
Q 20.953125 74.21875 31.78125 74.21875 
Q 42.671875 74.21875 48.875 69.140625 
Q 55.078125 64.0625 55.078125 55.328125 
Q 55.078125 49.078125 51.53125 44.71875 
Q 48 40.375 41.703125 38.8125 
Q 48.828125 37.15625 52.796875 32.3125 
Q 56.78125 27.484375 56.78125 20.515625 
Q 56.78125 9.90625 50.3125 4.234375 
Q 43.84375 -1.421875 31.78125 -1.421875 
Q 19.734375 -1.421875 13.25 4.234375 
Q 6.78125 9.90625 6.78125 20.515625 
Q 6.78125 27.484375 10.78125 32.3125 
Q 14.796875 37.15625 21.921875 38.8125 
z
M 18.3125 54.390625 
Q 18.3125 48.734375 21.84375 45.5625 
Q 25.390625 42.390625 31.78125 42.390625 
Q 38.140625 42.390625 41.71875 45.5625 
Q 45.3125 48.734375 45.3125 54.390625 
Q 45.3125 60.0625 41.71875 63.234375 
Q 38.140625 66.40625 31.78125 66.40625 
Q 25.390625 66.40625 21.84375 63.234375 
Q 18.3125 60.0625 18.3125 54.390625 
z
" id="DejaVuSans-56"/>
      </defs>
      <g transform="translate(32.163365 873.963072)scale(0.2 -0.2)">
       <use xlink:href="#DejaVuSans-48"/>
       <use x="63.623047" xlink:href="#DejaVuSans-46"/>
       <use x="95.410156" xlink:href="#DejaVuSans-48"/>
       <use x="159.033203" xlink:href="#DejaVuSans-56"/>
      </g>
     </g>
    </g>
    <g id="ytick_3">
     <g id="line2d_11">
      <g>
       <use style="stroke:#000000;stroke-width:0.8;" x="83.694615" xlink:href="#m95be6df312" y="768.763739"/>
      </g>
     </g>
     <g id="text_12">
      <!-- 0.09 -->
      <defs>
       <path d="M 10.984375 1.515625 
L 10.984375 10.5 
Q 14.703125 8.734375 18.5 7.8125 
Q 22.3125 6.890625 25.984375 6.890625 
Q 35.75 6.890625 40.890625 13.453125 
Q 46.046875 20.015625 46.78125 33.40625 
Q 43.953125 29.203125 39.59375 26.953125 
Q 35.25 24.703125 29.984375 24.703125 
Q 19.046875 24.703125 12.671875 31.3125 
Q 6.296875 37.9375 6.296875 49.421875 
Q 6.296875 60.640625 12.9375 67.421875 
Q 19.578125 74.21875 30.609375 74.21875 
Q 43.265625 74.21875 49.921875 64.515625 
Q 56.59375 54.828125 56.59375 36.375 
Q 56.59375 19.140625 48.40625 8.859375 
Q 40.234375 -1.421875 26.421875 -1.421875 
Q 22.703125 -1.421875 18.890625 -0.6875 
Q 15.09375 0.046875 10.984375 1.515625 
z
M 30.609375 32.421875 
Q 37.25 32.421875 41.125 36.953125 
Q 45.015625 41.5 45.015625 49.421875 
Q 45.015625 57.28125 41.125 61.84375 
Q 37.25 66.40625 30.609375 66.40625 
Q 23.96875 66.40625 20.09375 61.84375 
Q 16.21875 57.28125 16.21875 49.421875 
Q 16.21875 41.5 20.09375 36.953125 
Q 23.96875 32.421875 30.609375 32.421875 
z
" id="DejaVuSans-57"/>
      </defs>
      <g transform="translate(32.163365 776.362177)scale(0.2 -0.2)">
       <use xlink:href="#DejaVuSans-48"/>
       <use x="63.623047" xlink:href="#DejaVuSans-46"/>
       <use x="95.410156" xlink:href="#DejaVuSans-48"/>
       <use x="159.033203" xlink:href="#DejaVuSans-57"/>
      </g>
     </g>
    </g>
    <g id="ytick_4">
     <g id="line2d_12">
      <g>
       <use style="stroke:#000000;stroke-width:0.8;" x="83.694615" xlink:href="#m95be6df312" y="671.162844"/>
      </g>
     </g>
     <g id="text_13">
      <!-- 0.10 -->
      <g transform="translate(32.163365 678.761281)scale(0.2 -0.2)">
       <use xlink:href="#DejaVuSans-48"/>
       <use x="63.623047" xlink:href="#DejaVuSans-46"/>
       <use x="95.410156" xlink:href="#DejaVuSans-49"/>
       <use x="159.033203" xlink:href="#DejaVuSans-48"/>
      </g>
     </g>
    </g>
    <g id="ytick_5">
     <g id="line2d_13">
      <g>
       <use style="stroke:#000000;stroke-width:0.8;" x="83.694615" xlink:href="#m95be6df312" y="573.561949"/>
      </g>
     </g>
     <g id="text_14">
      <!-- 0.11 -->
      <g transform="translate(32.163365 581.160386)scale(0.2 -0.2)">
       <use xlink:href="#DejaVuSans-48"/>
       <use x="63.623047" xlink:href="#DejaVuSans-46"/>
       <use x="95.410156" xlink:href="#DejaVuSans-49"/>
       <use x="159.033203" xlink:href="#DejaVuSans-49"/>
      </g>
     </g>
    </g>
    <g id="ytick_6">
     <g id="line2d_14">
      <g>
       <use style="stroke:#000000;stroke-width:0.8;" x="83.694615" xlink:href="#m95be6df312" y="475.961053"/>
      </g>
     </g>
     <g id="text_15">
      <!-- 0.12 -->
      <g transform="translate(32.163365 483.559491)scale(0.2 -0.2)">
       <use xlink:href="#DejaVuSans-48"/>
       <use x="63.623047" xlink:href="#DejaVuSans-46"/>
       <use x="95.410156" xlink:href="#DejaVuSans-49"/>
       <use x="159.033203" xlink:href="#DejaVuSans-50"/>
      </g>
     </g>
    </g>
    <g id="ytick_7">
     <g id="line2d_15">
      <g>
       <use style="stroke:#000000;stroke-width:0.8;" x="83.694615" xlink:href="#m95be6df312" y="378.360158"/>
      </g>
     </g>
     <g id="text_16">
      <!-- 0.13 -->
      <g transform="translate(32.163365 385.958595)scale(0.2 -0.2)">
       <use xlink:href="#DejaVuSans-48"/>
       <use x="63.623047" xlink:href="#DejaVuSans-46"/>
       <use x="95.410156" xlink:href="#DejaVuSans-49"/>
       <use x="159.033203" xlink:href="#DejaVuSans-51"/>
      </g>
     </g>
    </g>
    <g id="ytick_8">
     <g id="line2d_16">
      <g>
       <use style="stroke:#000000;stroke-width:0.8;" x="83.694615" xlink:href="#m95be6df312" y="280.759263"/>
      </g>
     </g>
     <g id="text_17">
      <!-- 0.14 -->
      <defs>
       <path d="M 37.796875 64.3125 
L 12.890625 25.390625 
L 37.796875 25.390625 
z
M 35.203125 72.90625 
L 47.609375 72.90625 
L 47.609375 25.390625 
L 58.015625 25.390625 
L 58.015625 17.1875 
L 47.609375 17.1875 
L 47.609375 0 
L 37.796875 0 
L 37.796875 17.1875 
L 4.890625 17.1875 
L 4.890625 26.703125 
z
" id="DejaVuSans-52"/>
      </defs>
      <g transform="translate(32.163365 288.3577)scale(0.2 -0.2)">
       <use xlink:href="#DejaVuSans-48"/>
       <use x="63.623047" xlink:href="#DejaVuSans-46"/>
       <use x="95.410156" xlink:href="#DejaVuSans-49"/>
       <use x="159.033203" xlink:href="#DejaVuSans-52"/>
      </g>
     </g>
    </g>
    <g id="ytick_9">
     <g id="line2d_17">
      <g>
       <use style="stroke:#000000;stroke-width:0.8;" x="83.694615" xlink:href="#m95be6df312" y="183.158367"/>
      </g>
     </g>
     <g id="text_18">
      <!-- 0.15 -->
      <g transform="translate(32.163365 190.756805)scale(0.2 -0.2)">
       <use xlink:href="#DejaVuSans-48"/>
       <use x="63.623047" xlink:href="#DejaVuSans-46"/>
       <use x="95.410156" xlink:href="#DejaVuSans-49"/>
       <use x="159.033203" xlink:href="#DejaVuSans-53"/>
      </g>
     </g>
    </g>
    <g id="text_19">
     <!-- Length [m] -->
     <defs>
      <path d="M 9.8125 72.90625 
L 19.671875 72.90625 
L 19.671875 8.296875 
L 55.171875 8.296875 
L 55.171875 0 
L 9.8125 0 
z
" id="DejaVuSans-76"/>
      <path d="M 54.890625 33.015625 
L 54.890625 0 
L 45.90625 0 
L 45.90625 32.71875 
Q 45.90625 40.484375 42.875 44.328125 
Q 39.84375 48.1875 33.796875 48.1875 
Q 26.515625 48.1875 22.3125 43.546875 
Q 18.109375 38.921875 18.109375 30.90625 
L 18.109375 0 
L 9.078125 0 
L 9.078125 54.6875 
L 18.109375 54.6875 
L 18.109375 46.1875 
Q 21.34375 51.125 25.703125 53.5625 
Q 30.078125 56 35.796875 56 
Q 45.21875 56 50.046875 50.171875 
Q 54.890625 44.34375 54.890625 33.015625 
z
" id="DejaVuSans-110"/>
      <path d="M 45.40625 27.984375 
Q 45.40625 37.75 41.375 43.109375 
Q 37.359375 48.484375 30.078125 48.484375 
Q 22.859375 48.484375 18.828125 43.109375 
Q 14.796875 37.75 14.796875 27.984375 
Q 14.796875 18.265625 18.828125 12.890625 
Q 22.859375 7.515625 30.078125 7.515625 
Q 37.359375 7.515625 41.375 12.890625 
Q 45.40625 18.265625 45.40625 27.984375 
z
M 54.390625 6.78125 
Q 54.390625 -7.171875 48.1875 -13.984375 
Q 42 -20.796875 29.203125 -20.796875 
Q 24.46875 -20.796875 20.265625 -20.09375 
Q 16.0625 -19.390625 12.109375 -17.921875 
L 12.109375 -9.1875 
Q 16.0625 -11.328125 19.921875 -12.34375 
Q 23.78125 -13.375 27.78125 -13.375 
Q 36.625 -13.375 41.015625 -8.765625 
Q 45.40625 -4.15625 45.40625 5.171875 
L 45.40625 9.625 
Q 42.625 4.78125 38.28125 2.390625 
Q 33.9375 0 27.875 0 
Q 17.828125 0 11.671875 7.65625 
Q 5.515625 15.328125 5.515625 27.984375 
Q 5.515625 40.671875 11.671875 48.328125 
Q 17.828125 56 27.875 56 
Q 33.9375 56 38.28125 53.609375 
Q 42.625 51.21875 45.40625 46.390625 
L 45.40625 54.6875 
L 54.390625 54.6875 
z
" id="DejaVuSans-103"/>
      <path d="M 18.3125 70.21875 
L 18.3125 54.6875 
L 36.8125 54.6875 
L 36.8125 47.703125 
L 18.3125 47.703125 
L 18.3125 18.015625 
Q 18.3125 11.328125 20.140625 9.421875 
Q 21.96875 7.515625 27.59375 7.515625 
L 36.8125 7.515625 
L 36.8125 0 
L 27.59375 0 
Q 17.1875 0 13.234375 3.875 
Q 9.28125 7.765625 9.28125 18.015625 
L 9.28125 47.703125 
L 2.6875 47.703125 
L 2.6875 54.6875 
L 9.28125 54.6875 
L 9.28125 70.21875 
z
" id="DejaVuSans-116"/>
      <path d="M 54.890625 33.015625 
L 54.890625 0 
L 45.90625 0 
L 45.90625 32.71875 
Q 45.90625 40.484375 42.875 44.328125 
Q 39.84375 48.1875 33.796875 48.1875 
Q 26.515625 48.1875 22.3125 43.546875 
Q 18.109375 38.921875 18.109375 30.90625 
L 18.109375 0 
L 9.078125 0 
L 9.078125 75.984375 
L 18.109375 75.984375 
L 18.109375 46.1875 
Q 21.34375 51.125 25.703125 53.5625 
Q 30.078125 56 35.796875 56 
Q 45.21875 56 50.046875 50.171875 
Q 54.890625 44.34375 54.890625 33.015625 
z
" id="DejaVuSans-104"/>
     </defs>
     <g transform="translate(22.756178 661.697574)rotate(-90)scale(0.26 -0.26)">
      <use xlink:href="#DejaVuSans-76"/>
      <use x="55.697266" xlink:href="#DejaVuSans-101"/>
      <use x="117.220703" xlink:href="#DejaVuSans-110"/>
      <use x="180.599609" xlink:href="#DejaVuSans-103"/>
      <use x="244.076172" xlink:href="#DejaVuSans-116"/>
      <use x="283.285156" xlink:href="#DejaVuSans-104"/>
      <use x="346.664062" xlink:href="#DejaVuSans-32"/>
      <use x="378.451172" xlink:href="#DejaVuSans-91"/>
      <use x="417.464844" xlink:href="#DejaVuSans-109"/>
      <use x="514.876953" xlink:href="#DejaVuSans-93"/>
     </g>
    </g>
   </g>
   <g id="line2d_18">
    <path clip-path="url(#pca63278e77)" d="M 210.663031 837.768967 
L 230.701435 837.733917 
L 231.392936 829.115558 
L 232.085366 798.813538 
L 232.77529 797.040519 
L 248.668952 797.035502 
L 648.056874 797.035502 
L 650.129001 593.076719 
L 650.820425 529.577107 
L 651.511794 479.654807 
L 652.202549 460.286497 
L 652.893931 459.862622 
L 660.494107 459.85215 
L 1063.337564 459.85215 
L 1064.02888 473.791455 
L 1064.720547 500.412328 
L 1065.41228 500.996475 
L 1135.890244 500.997565 
L 1479.309519 500.997565 
L 1480.001179 467.208046 
L 1481.383107 343.267646 
L 1482.073225 292.409316 
L 1482.765897 253.713418 
L 1483.455277 230.377086 
L 1484.146544 226.499599 
L 1486.219392 226.448406 
L 1495.893095 226.43997 
L 1548.409424 226.446515 
L 1560.15682 226.448842 
L 1566.373606 226.466004 
L 1570.52053 226.443315 
L 1589.867379 226.457423 
L 1594.705291 226.43997 
L 1772.978356 226.453496 
L 1779.19778 226.45655 
L 1848.986826 226.447097 
L 1882.153714 226.46164 
L 1886.300146 226.451751 
L 1894.59069 226.441425 
L 1895.282469 235.065528 
L 1897.354976 485.3336 
L 1898.736323 678.908059 
L 1899.429937 706.358285 
L 1900.119809 711.690865 
L 1902.192403 711.745404 
L 2310.565426 711.745404 
L 2311.256341 688.455249 
L 2314.019301 421.427201 
L 2316.092955 275.517865 
L 2316.782563 248.72654 
L 2317.472951 228.876616 
L 2318.164711 226.509635 
L 2319.548015 226.442152 
L 2327.838374 226.440407 
L 2352.023463 226.441134 
L 2750.031344 226.442588 
L 2750.031344 226.442588 
" style="fill:none;stroke:#008000;stroke-dasharray:9.6,2.4,1.5,2.4;stroke-dashoffset:0;stroke-width:1.5;"/>
   </g>
   <g id="line2d_19">
    <path clip-path="url(#pca63278e77)" d="M 210.663031 837.219314 
L 224.482349 837.484919 
L 230.701435 837.558378 
L 231.392936 837.380145 
L 232.085366 816.26795 
L 232.77529 769.437745 
L 233.466011 783.99527 
L 234.156113 827.886176 
L 234.849438 809.863164 
L 235.539968 768.707614 
L 236.230859 790.228902 
L 236.920218 827.739128 
L 237.612925 803.765118 
L 238.304221 769.333321 
L 239.685545 826.385005 
L 241.06724 771.146959 
L 241.757644 801.215691 
L 242.450153 823.993872 
L 243.140963 793.337549 
L 243.82995 773.925171 
L 244.521846 805.477871 
L 245.212758 820.789672 
L 245.903885 789.505358 
L 246.594916 777.41939 
L 247.285117 808.674818 
L 247.976641 817.034861 
L 248.668952 786.813194 
L 249.359097 781.336241 
L 250.049673 810.722055 
L 250.741182 812.996009 
L 251.431182 785.293493 
L 252.121615 785.374819 
L 252.813571 811.609474 
L 253.503654 808.969307 
L 254.195587 784.928009 
L 254.885536 789.238548 
L 255.576707 811.400747 
L 256.26781 805.249249 
L 256.958693 785.556308 
L 257.651115 792.658179 
L 258.342586 810.23703 
L 259.032556 802.064704 
L 259.72332 787.042814 
L 260.415772 795.412067 
L 261.104529 808.313232 
L 261.797725 799.615195 
L 262.48674 789.194795 
L 263.86853 805.879826 
L 265.251698 791.45045 
L 265.942024 798.419784 
L 266.632564 803.452751 
L 267.324057 797.544724 
L 268.014544 793.8748 
L 268.705246 798.546995 
L 269.396504 801.011976 
L 270.087985 797.8144 
L 270.779822 796.234149 
L 271.471463 797.831877 
L 272.160866 798.638616 
L 289.435522 798.312338 
L 312.929093 798.12951 
L 357.844572 798.044369 
L 569.975801 798.031195 
L 648.056874 798.031178 
L 648.747823 775.512521 
L 650.129001 552.93373 
L 650.820425 538.348758 
L 651.511794 509.319602 
L 652.202549 424.6449 
L 652.893931 428.074026 
L 653.58357 507.620604 
L 654.276779 502.798871 
L 654.966291 423.800186 
L 655.657769 430.814559 
L 656.348385 508.308524 
L 657.040782 498.744847 
L 657.731617 422.025282 
L 658.420872 435.093799 
L 659.112068 509.826194 
L 659.802858 493.011661 
L 660.494107 419.790705 
L 661.184222 441.01754 
L 661.875863 511.599167 
L 662.567632 485.432535 
L 663.258326 417.713732 
L 663.949052 448.705162 
L 664.639465 512.984287 
L 665.332137 475.976442 
L 666.021402 416.531489 
L 666.713173 458.141896 
L 667.403997 513.206944 
L 668.785091 417.052709 
L 669.477515 469.095069 
L 670.169242 511.401502 
L 670.858886 453.106205 
L 671.549993 420.109364 
L 672.240797 480.796499 
L 672.933259 506.636793 
L 673.623047 441.508523 
L 674.313271 426.390581 
L 675.006177 491.949035 
L 675.695713 497.950568 
L 676.385619 431.54405 
L 677.079403 436.257759 
L 677.769216 501.055541 
L 678.459499 485.159398 
L 679.149971 424.816951 
L 679.841607 449.497383 
L 680.532689 506.14394 
L 681.223073 469.473781 
L 681.915292 422.769072 
L 683.297659 505.706213 
L 683.987837 453.249592 
L 684.679303 426.197536 
L 685.369476 480.956761 
L 686.060354 498.771858 
L 686.75151 439.311349 
L 687.442914 435.323161 
L 688.133426 493.989498 
L 688.823684 485.727977 
L 689.515528 430.172408 
L 690.207404 449.202295 
L 690.897104 501.363423 
L 691.589679 469.370604 
L 692.280677 427.563925 
L 693.661507 501.112195 
L 694.352815 453.325204 
L 695.043848 431.467321 
L 695.734143 481.035091 
L 696.426535 493.577894 
L 697.115974 440.723931 
L 697.808603 441.059196 
L 698.498821 492.52484 
L 699.189023 480.669318 
L 699.880727 433.59796 
L 700.570211 454.61107 
L 701.263026 497.625301 
L 702.64538 432.946575 
L 703.336383 469.603375 
L 704.027235 495.347905 
L 704.71789 451.585348 
L 705.409523 438.380632 
L 706.098895 482.708779 
L 706.789542 486.631425 
L 707.480878 441.770148 
L 708.172054 448.646352 
L 708.862311 491.094586 
L 709.553716 473.874546 
L 710.245588 437.704145 
L 710.936527 461.708553 
L 711.627092 492.782887 
L 712.318568 460.419934 
L 713.009625 439.792313 
L 713.699888 474.646044 
L 714.39129 487.775879 
L 715.082157 449.651188 
L 715.774278 447.179488 
L 716.465262 484.220217 
L 717.155451 477.784594 
L 717.845369 443.784622 
L 718.536754 458.044422 
L 719.227639 488.094002 
L 720.609671 443.794236 
L 721.299895 469.740561 
L 721.993137 485.540698 
L 722.682145 455.402694 
L 723.373262 449.030954 
L 724.064054 479.209392 
L 724.755405 477.752597 
L 725.446316 449.191396 
L 726.138089 458.007439 
L 726.827986 483.563025 
L 727.520044 467.495565 
L 728.211082 448.523427 
L 728.901427 468.280231 
L 729.592274 481.708476 
L 730.282704 458.384352 
L 730.974366 452.972093 
L 731.665249 476.327836 
L 732.35717 475.006766 
L 733.047435 453.403329 
L 733.738342 460.840898 
L 734.430171 479.306238 
L 735.81111 453.741112 
L 736.501782 469.234298 
L 737.192747 476.661269 
L 737.88344 459.647644 
L 738.575348 458.504042 
L 739.266489 474.501256 
L 739.95646 470.416718 
L 740.649023 457.375671 
L 742.030879 474.504582 
L 742.722448 464.14994 
L 743.412526 459.843045 
L 744.103261 470.476356 
L 744.793983 470.497989 
L 745.485515 461.320776 
L 746.177651 464.501404 
L 746.867809 471.024571 
L 747.558736 466.278632 
L 748.248806 462.670611 
L 748.939204 467.439623 
L 749.632098 468.687912 
L 750.323164 465.003085 
L 751.013309 465.05388 
L 751.703513 467.134249 
L 752.394808 466.972858 
L 753.085889 466.412298 
L 759.995874 466.375963 
L 815.966123 466.324044 
L 1063.337564 466.321367 
L 1064.02888 466.520491 
L 1064.720547 496.380314 
L 1065.41228 540.34211 
L 1066.79353 472.001454 
L 1067.483846 512.060752 
L 1068.174769 537.393501 
L 1068.865587 490.597902 
L 1069.556029 478.027636 
L 1070.246763 525.388218 
L 1070.940065 528.014617 
L 1071.629355 480.596769 
L 1072.320043 488.953736 
L 1073.011867 533.713004 
L 1073.702815 514.683002 
L 1074.393331 476.557192 
L 1075.084466 502.596604 
L 1075.774458 535.25785 
L 1076.466181 500.738508 
L 1077.158227 478.794818 
L 1077.847968 515.992509 
L 1078.540095 530.111248 
L 1079.230175 489.465449 
L 1079.921297 486.285697 
L 1080.612394 525.938091 
L 1081.303226 519.954877 
L 1081.996066 483.079234 
L 1082.685866 497.348731 
L 1083.376173 530.30889 
L 1084.758683 482.584499 
L 1085.448477 509.421842 
L 1086.139442 528.266129 
L 1086.830953 496.728432 
L 1087.521503 487.474985 
L 1088.213233 519.302698 
L 1088.904501 520.963435 
L 1089.596598 489.681907 
L 1090.286051 496.20229 
L 1090.976842 524.606648 
L 1091.667523 510.877007 
L 1092.359548 487.933083 
L 1093.74135 524.193952 
L 1094.431327 501.214696 
L 1095.122872 491.180139 
L 1095.813834 515.188881 
L 1096.506379 518.766154 
L 1097.196613 494.766754 
L 1097.887738 498.098496 
L 1098.579135 520.01907 
L 1099.270097 510.567166 
L 1099.959752 493.16311 
L 1101.342274 519.447801 
L 1102.032673 502.809603 
L 1102.723188 496.208137 
L 1103.414661 513.347571 
L 1104.106465 514.601634 
L 1104.796883 498.396534 
L 1105.487776 502.229057 
L 1106.179448 515.915779 
L 1106.869647 508.138432 
L 1107.560125 498.565614 
L 1108.253072 508.455195 
L 1108.943385 513.870311 
L 1109.633759 503.326726 
L 1110.325579 502.215974 
L 1111.015192 511.674655 
L 1111.706046 509.519735 
L 1112.397766 502.349551 
L 1113.780043 510.778993 
L 1114.470079 506.420011 
L 1115.161586 504.386449 
L 1115.852284 507.947566 
L 1116.54438 508.466298 
L 1117.235376 506.360114 
L 1117.924841 506.266793 
L 1118.616483 506.796031 
L 1121.379837 506.85114 
L 1152.474717 506.960229 
L 1254.050244 506.985784 
L 1479.309519 506.985898 
L 1480.001179 497.949056 
L 1480.692056 420.555279 
L 1481.383107 321.359109 
L 1482.073225 293.418364 
L 1482.765897 282.772574 
L 1483.455277 225.417464 
L 1484.146544 199.468531 
L 1484.838234 238.280742 
L 1485.528519 264.581705 
L 1486.219392 219.59224 
L 1486.91111 202.267972 
L 1487.602459 244.422973 
L 1488.294395 260.814277 
L 1488.98471 214.749886 
L 1489.674744 206.20021 
L 1490.365718 250.27224 
L 1491.057225 255.755674 
L 1491.747681 210.800975 
L 1492.438854 211.194586 
L 1493.129073 255.142728 
L 1493.820588 249.564385 
L 1494.512102 208.030018 
L 1495.202163 217.207482 
L 1495.893095 258.529984 
L 1496.585031 242.559219 
L 1497.277156 206.676543 
L 1497.966889 224.103234 
L 1498.657227 260.051171 
L 1500.040033 206.923115 
L 1501.421878 259.388197 
L 1502.112781 228.082023 
L 1502.803731 208.903073 
L 1503.495446 239.170696 
L 1504.186051 256.418604 
L 1504.87582 221.860011 
L 1505.568163 212.684923 
L 1506.258839 246.038614 
L 1506.950963 251.256863 
L 1507.641363 217.168874 
L 1508.331775 218.220179 
L 1509.023865 251.206407 
L 1509.713323 244.363779 
L 1510.403685 214.514845 
L 1511.096825 225.269971 
L 1511.786443 253.760323 
L 1512.47712 236.533148 
L 1513.168171 214.350341 
L 1514.550213 253.064714 
L 1515.241128 228.980051 
L 1515.932893 216.826416 
L 1516.623648 241.085798 
L 1517.314254 249.077688 
L 1518.006709 223.110623 
L 1518.697516 221.923947 
L 1519.387697 246.871725 
L 1520.077599 242.390849 
L 1520.76911 220.087012 
L 1521.460731 229.209149 
L 1522.151627 249.036401 
L 1523.533053 220.656515 
L 1524.225322 237.271919 
L 1524.915312 246.784639 
L 1525.605376 227.786858 
L 1526.296715 224.841613 
L 1526.988028 243.39795 
L 1527.680234 240.847646 
L 1528.371308 224.422119 
L 1529.061225 231.867121 
L 1529.752553 244.970918 
L 1530.442775 233.611721 
L 1531.135752 225.708975 
L 1531.824798 238.783287 
L 1532.516501 241.571028 
L 1533.206369 228.612586 
L 1533.897232 230.740149 
L 1534.588817 241.652841 
L 1535.279865 235.891046 
L 1535.970125 228.31955 
L 1536.662528 235.945881 
L 1537.354263 239.899763 
L 1538.042943 231.969 
L 1538.735157 231.289513 
L 1539.425721 238.137029 
L 1540.116188 236.526604 
L 1540.8076 231.592319 
L 1542.191021 237.103686 
L 1542.879957 234.594212 
L 1543.571385 233.329067 
L 1544.262467 234.892808 
L 1544.952942 235.334167 
L 1545.644126 235.094841 
L 1547.717973 235.012017 
L 1569.138092 234.829785 
L 1609.216701 234.75405 
L 1777.12404 234.743704 
L 1894.59069 234.743502 
L 1895.282469 234.995125 
L 1895.973544 261.489482 
L 1896.663986 391.478886 
L 1897.354976 557.222234 
L 1898.047015 615.704377 
L 1898.736323 618.079244 
L 1899.429937 723.264364 
L 1900.119809 805.256641 
L 1900.810336 762.043638 
L 1901.500937 647.196326 
L 1902.192403 644.277816 
L 1902.883121 756.308803 
L 1903.573533 801.94298 
L 1904.957632 633.556207 
L 1905.647968 676.966562 
L 1906.339033 784.752092 
L 1907.029605 783.622515 
L 1907.720997 676.602928 
L 1908.410652 637.306579 
L 1909.102202 728.343469 
L 1909.793128 796.785879 
L 1910.484792 740.760262 
L 1911.175545 642.974578 
L 1911.866363 670.035786 
L 1912.55788 775.63655 
L 1913.248722 780.852811 
L 1913.939743 679.670247 
L 1914.629506 642.750707 
L 1915.321318 732.809157 
L 1916.012782 791.445867 
L 1916.70266 726.768912 
L 1917.394029 642.971583 
L 1918.085901 688.72427 
L 1918.775978 781.764461 
L 1919.467612 761.910388 
L 1920.157946 661.297159 
L 1920.848167 660.038794 
L 1921.538989 759.484734 
L 1922.230345 779.402765 
L 1922.922849 688.826573 
L 1923.612292 648.03407 
L 1924.304153 731.92425 
L 1924.995856 784.218786 
L 1926.377558 647.1528 
L 1927.068607 707.079623 
L 1927.758772 781.389176 
L 1928.450325 736.900612 
L 1929.140137 652.532664 
L 1929.832135 688.712992 
L 1930.523952 774.633391 
L 1931.213821 750.90042 
L 1931.904562 660.601401 
L 1932.595466 676.848735 
L 1933.287365 766.72731 
L 1933.979036 759.014207 
L 1934.670251 668.697849 
L 1935.360128 670.201412 
L 1936.050762 759.669008 
L 1936.741918 762.962973 
L 1937.432832 675.000623 
L 1938.124544 667.17176 
L 1938.814463 754.548649 
L 1939.505451 764.153776 
L 1940.197598 678.805503 
L 1940.887784 666.679826 
L 1941.577629 751.876654 
L 1942.269649 763.374858 
L 1942.961945 679.945278 
L 1943.652357 668.110454 
L 1944.342037 751.633843 
L 1945.033292 760.962647 
L 1945.724999 678.718246 
L 1946.414661 671.263322 
L 1947.107022 753.393089 
L 1947.797427 756.879174 
L 1948.488802 675.716087 
L 1949.18042 676.277743 
L 1949.87184 756.523997 
L 1950.561589 750.805764 
L 1951.252698 671.680618 
L 1951.943432 683.365163 
L 1952.633409 760.181439 
L 1953.326341 742.504814 
L 1954.015933 667.587362 
L 1954.708055 692.599545 
L 1955.399064 763.325759 
L 1956.088992 731.970798 
L 1956.780275 664.607667 
L 1957.470578 703.60096 
L 1958.162085 764.827694 
L 1958.852612 719.762781 
L 1959.543829 663.920173 
L 1960.927401 763.86747 
L 1961.617364 706.777565 
L 1962.307188 666.292029 
L 1962.998946 728.309499 
L 1963.690947 759.764303 
L 1964.38172 694.16086 
L 1965.071161 672.123069 
L 1965.762169 739.953283 
L 1966.453731 752.050792 
L 1967.144891 683.306382 
L 1967.837022 681.320669 
L 1968.526136 749.333832 
L 1969.218241 741.245198 
L 1969.908918 675.538034 
L 1970.599786 693.123979 
L 1971.291241 755.356596 
L 1971.981784 728.54785 
L 1972.674267 671.548346 
L 1973.364929 706.186369 
L 1974.054767 757.370461 
L 1975.435826 671.609524 
L 1976.127432 719.26703 
L 1976.820081 755.361089 
L 1977.511224 702.730442 
L 1978.200368 675.485575 
L 1978.891089 731.078893 
L 1979.582437 749.712747 
L 1980.274296 692.103948 
L 1980.964533 682.633318 
L 1981.655454 740.476165 
L 1982.346408 741.151391 
L 1983.037044 684.380476 
L 1983.728147 692.200101 
L 1984.420956 746.646948 
L 1985.111129 730.678388 
L 1985.801266 680.014683 
L 1986.492407 703.103607 
L 1987.183499 749.338182 
L 1987.874033 719.472729 
L 1988.565239 679.177327 
L 1989.947006 748.478532 
L 1990.637999 708.737286 
L 1991.329297 681.701752 
L 1992.019787 724.339984 
L 1992.710689 744.418885 
L 1993.402424 699.579306 
L 1994.094321 687.096007 
L 1994.785395 732.489515 
L 1995.475058 737.827724 
L 1996.166188 692.867844 
L 1996.857207 694.554512 
L 1997.547484 737.8761 
L 1998.239688 729.628849 
L 1998.930223 689.11459 
L 1999.6206 703.122843 
L 2000.31177 740.227206 
L 2001.00247 720.860867 
L 2001.693101 688.296183 
L 2002.385125 711.747755 
L 2003.076208 739.683006 
L 2003.768428 712.599814 
L 2004.457855 690.197423 
L 2005.149537 719.446466 
L 2005.839762 736.622248 
L 2006.530706 705.757263 
L 2007.220951 694.287114 
L 2007.912828 725.406355 
L 2008.603511 731.702257 
L 2009.294556 701.025654 
L 2009.986107 699.800231 
L 2010.676339 729.054707 
L 2011.367827 725.788682 
L 2012.058698 698.733524 
L 2012.749616 705.839051 
L 2013.440698 730.211734 
L 2014.131853 719.806469 
L 2014.82263 698.827738 
L 2015.514253 711.531413 
L 2016.205882 729.154216 
L 2017.587236 700.805912 
L 2018.277536 716.069715 
L 2018.968283 726.531115 
L 2019.659268 710.984436 
L 2020.350581 703.971039 
L 2021.040935 718.885444 
L 2021.732153 723.094412 
L 2022.424212 709.232301 
L 2023.114732 707.551526 
L 2023.804638 719.804846 
L 2024.495762 719.623173 
L 2025.188959 709.292837 
L 2025.879635 710.809557 
L 2026.569038 719.023609 
L 2027.262171 716.831951 
L 2027.951326 710.827168 
L 2028.642436 713.119963 
L 2029.332942 717.007391 
L 2030.024497 715.254062 
L 2030.714568 713.181035 
L 2032.098889 714.602738 
L 2049.371979 714.536499 
L 2110.870396 714.484588 
L 2310.565426 714.483709 
L 2311.256341 712.445971 
L 2311.946672 646.67245 
L 2312.636695 516.474034 
L 2313.32769 463.206015 
L 2314.019301 466.826423 
L 2314.709227 391.966195 
L 2315.402243 287.224966 
L 2316.092955 256.290706 
L 2316.782563 277.703152 
L 2317.472951 252.750835 
L 2318.164711 197.156708 
L 2318.8555 209.900418 
L 2319.548015 266.374647 
L 2320.237254 251.763601 
L 2320.930013 198.282173 
L 2321.619067 210.868001 
L 2322.311921 265.622896 
L 2323.001438 249.866918 
L 2323.692317 198.727598 
L 2324.382998 213.048142 
L 2325.073652 265.609637 
L 2325.767098 246.618127 
L 2326.456055 198.728246 
L 2327.148284 216.434695 
L 2327.838374 266.055478 
L 2328.531041 242.169268 
L 2329.220557 198.673469 
L 2329.91226 220.970277 
L 2330.602214 266.430035 
L 2331.293438 236.677876 
L 2331.9837 198.980373 
L 2332.675263 226.599145 
L 2333.366314 266.185229 
L 2334.748225 200.056229 
L 2336.130466 264.784031 
L 2336.82113 224.355514 
L 2337.512319 202.221465 
L 2338.203453 239.964526 
L 2338.893403 261.878398 
L 2339.584573 218.800576 
L 2340.275314 205.553793 
L 2340.966833 246.396111 
L 2341.657899 257.449838 
L 2342.349035 214.146296 
L 2343.039681 210.138241 
L 2343.730822 251.995798 
L 2344.421909 251.62998 
L 2345.113079 210.667841 
L 2345.805517 215.856673 
L 2346.49522 256.172762 
L 2347.186415 244.754713 
L 2347.87726 208.677301 
L 2348.568047 222.625929 
L 2349.259722 258.42671 
L 2349.94989 237.302626 
L 2350.640956 208.406029 
L 2351.332786 230.148656 
L 2352.023463 258.335696 
L 2352.713641 229.927495 
L 2353.40558 210.054324 
L 2354.097361 237.912705 
L 2354.787397 255.719073 
L 2355.477742 223.409333 
L 2356.168306 213.657289 
L 2356.859861 244.970442 
L 2357.550923 250.709345 
L 2358.241511 218.490793 
L 2358.933452 219.158736 
L 2359.623554 250.270901 
L 2360.315102 243.820434 
L 2361.005537 215.768166 
L 2361.696791 226.268271 
L 2362.387561 252.736417 
L 2363.078687 235.974865 
L 2363.769271 215.768653 
L 2365.152622 251.670682 
L 2365.842587 228.508872 
L 2366.533409 218.642677 
L 2367.224144 241.965118 
L 2367.916921 247.14989 
L 2368.606175 223.068004 
L 2369.298151 224.275483 
L 2369.989886 247.040828 
L 2370.681006 240.066202 
L 2371.371553 220.898778 
L 2372.061067 231.9572 
L 2372.752035 247.905076 
L 2373.444615 232.377701 
L 2374.13588 222.651333 
L 2374.825226 239.576328 
L 2375.517959 244.232371 
L 2376.207079 226.663854 
L 2376.898949 228.042795 
L 2377.588906 244.023508 
L 2378.281556 237.563395 
L 2378.97114 225.209134 
L 2379.662363 235.266643 
L 2380.353144 243.229032 
L 2381.044362 231.175204 
L 2381.735637 228.364087 
L 2382.426737 240.24828 
L 2383.116752 238.550998 
L 2383.807656 228.574107 
L 2384.499038 233.506245 
L 2385.1896 240.490864 
L 2385.882906 233.872792 
L 2386.572117 230.188466 
L 2387.262952 236.944794 
L 2387.953996 237.790151 
L 2388.646067 232.080813 
L 2389.335711 233.113977 
L 2390.027048 237.095978 
L 2390.718378 235.356953 
L 2391.409761 233.183806 
L 2392.099654 234.539902 
L 2392.791089 235.424399 
L 2393.483377 235.111067 
L 2394.172555 234.959606 
L 2417.665795 234.805952 
L 2467.417164 234.74693 
L 2750.031344 234.7426 
L 2750.031344 234.7426 
" style="fill:none;stroke:#008000;stroke-linecap:square;stroke-width:3;"/>
   </g>
   <g id="line2d_20">
    <path clip-path="url(#pca63278e77)" d="M 210.663031 262.220299 
L 230.701435 262.254331 
L 231.392936 270.636138 
L 232.085366 300.369646 
L 232.77529 302.122013 
L 248.668952 302.126957 
L 648.056874 302.127103 
L 650.820425 582.649419 
L 651.511794 638.708419 
L 652.202549 660.793849 
L 652.893931 661.279317 
L 659.802858 661.291315 
L 1063.337564 661.291315 
L 1064.02888 645.374145 
L 1064.720547 615.249484 
L 1065.41228 614.592401 
L 1127.599313 614.591165 
L 1479.309519 614.591165 
L 1480.001179 652.879259 
L 1482.073225 860.824024 
L 1482.765897 909.365911 
L 1483.455277 939.142469 
L 1484.146544 944.128474 
L 1485.528519 944.20272 
L 1494.512102 944.187885 
L 1500.040033 944.203011 
L 1502.803731 944.20512 
L 1513.859268 944.189194 
L 1520.077599 944.20352 
L 1600.922596 944.18694 
L 1605.069389 944.205047 
L 1616.126321 944.204974 
L 1663.803296 944.202938 
L 1707.334546 944.200247 
L 1712.863238 944.20512 
L 1831.711686 944.200538 
L 1853.132051 944.203592 
L 1860.732659 944.188467 
L 1865.571491 944.201847 
L 1871.09891 944.188103 
L 1875.936193 944.204756 
L 1894.59069 944.203374 
L 1895.282469 933.12859 
L 1898.736323 422.030473 
L 1899.429937 393.61302 
L 1900.119809 388.131803 
L 1902.192403 388.075665 
L 2310.565426 388.075665 
L 2311.256341 412.108638 
L 2315.402243 833.890826 
L 2316.092955 881.889362 
L 2316.782563 915.69626 
L 2317.472951 941.070523 
L 2318.164711 944.115458 
L 2319.548015 944.202284 
L 2327.148284 944.183813 
L 2331.293438 944.205047 
L 2365.152622 944.195884 
L 2372.752035 944.203302 
L 2374.825226 944.191303 
L 2379.662363 944.203156 
L 2383.116752 944.185849 
L 2390.027048 944.200538 
L 2395.554513 944.18694 
L 2402.464902 944.203738 
L 2418.35835 944.200466 
L 2439.086949 944.200975 
L 2448.070122 944.179014 
L 2450.833558 944.202065 
L 2457.05256 944.194357 
L 2463.962797 944.202865 
L 2470.18117 944.189994 
L 2476.401658 944.202211 
L 2482.618265 944.202647 
L 2512.331618 944.199811 
L 2515.096157 944.186867 
L 2519.931529 944.199666 
L 2522.695925 944.204829 
L 2532.369144 944.202429 
L 2565.536982 944.178941 
L 2568.30209 944.202284 
L 2577.283967 944.183886 
L 2581.430096 944.202938 
L 2616.670575 944.199375 
L 2631.87144 944.20512 
L 2656.746805 944.192539 
L 2662.966145 944.202647 
L 2676.784712 944.203447 
L 2750.031344 944.201702 
L 2750.031344 944.201702 
" style="fill:none;stroke:#ff0000;stroke-dasharray:9.6,2.4,1.5,2.4;stroke-dashoffset:0;stroke-width:1.5;"/>
   </g>
   <g id="line2d_21">
    <path clip-path="url(#pca63278e77)" d="M 210.663031 262.75383 
L 224.482349 262.495974 
L 230.701435 262.424664 
L 231.392936 262.597665 
L 232.085366 283.192501 
L 232.77529 329.58431 
L 233.466011 315.058954 
L 234.156113 271.834287 
L 234.849438 289.479672 
L 235.539968 330.315338 
L 236.230859 308.867782 
L 236.920218 271.977628 
L 237.612925 295.482808 
L 238.304221 329.688891 
L 239.685545 273.298424 
L 241.06724 327.874041 
L 241.757644 297.997828 
L 242.450153 275.632734 
L 243.140963 305.786419 
L 243.82995 325.096794 
L 244.521846 293.795403 
L 245.212758 278.764801 
L 245.903885 309.585207 
L 246.594916 321.608641 
L 247.285117 290.648569 
L 247.976641 282.440919 
L 248.668952 312.257816 
L 249.359097 317.705026 
L 250.049673 288.635798 
L 250.741182 286.402148 
L 251.431182 313.767912 
L 252.121615 313.687222 
L 252.813571 287.76388 
L 253.503654 290.358697 
L 254.195587 314.131253 
L 254.885536 309.85014 
L 255.576707 287.968894 
L 256.26781 294.020364 
L 256.958693 313.506722 
L 257.651115 306.459618 
L 258.342586 289.112397 
L 259.032556 297.159821 
L 259.72332 312.029813 
L 260.415772 303.732941 
L 261.104529 291.004125 
L 261.797725 299.57772 
L 262.48674 309.893459 
L 263.86853 293.399337 
L 265.251698 307.656392 
L 265.942024 300.758773 
L 266.632564 295.790944 
L 267.324057 301.623572 
L 268.014544 305.254529 
L 268.705246 300.633054 
L 269.396504 298.1987 
L 270.087985 301.357013 
L 270.779822 302.919566 
L 271.471463 301.339768 
L 272.160866 300.5425 
L 289.435522 300.864905 
L 312.929093 301.045587 
L 358.53398 301.130131 
L 579.650384 301.142751 
L 648.056874 301.14277 
L 648.747823 323.511134 
L 650.129001 556.838836 
L 650.820425 572.925167 
L 651.511794 605.249438 
L 652.202549 701.942806 
L 652.893931 697.953487 
L 653.58357 607.153421 
L 654.276779 612.56709 
L 654.966291 702.926254 
L 655.657769 694.770713 
L 656.348385 606.382155 
L 657.040782 617.127021 
L 657.731617 704.993676 
L 658.420872 689.808896 
L 659.112068 604.681412 
L 659.802858 623.589593 
L 660.494107 707.598925 
L 661.184222 682.956249 
L 661.875863 602.696017 
L 662.567632 632.15812 
L 663.258326 710.022796 
L 663.949052 674.090621 
L 664.639465 601.146057 
L 665.332137 642.889097 
L 666.021402 711.403477 
L 666.713173 663.249971 
L 667.403997 600.897098 
L 668.785091 710.794469 
L 669.477515 650.724927 
L 670.169242 602.917675 
L 670.858886 669.030766 
L 671.549993 707.226604 
L 672.240797 637.411981 
L 672.933259 608.257636 
L 673.623047 682.390592 
L 674.313271 699.910827 
L 675.006177 624.787966 
L 675.695713 618.021331 
L 676.385619 693.925375 
L 677.079403 688.461094 
L 677.769216 614.526092 
L 678.459499 632.467401 
L 679.149971 701.742265 
L 679.841607 673.178856 
L 680.532689 608.810189 
L 681.223073 650.294634 
L 681.915292 704.126517 
L 683.297659 609.301689 
L 683.987837 668.86592 
L 684.679303 700.135516 
L 685.369476 637.230216 
L 686.060354 617.096496 
L 686.75151 684.929381 
L 687.442914 689.543475 
L 688.133426 622.485115 
L 688.823684 631.823463 
L 689.515528 695.517062 
L 690.207404 673.518542 
L 690.897104 614.180078 
L 691.589679 650.412231 
L 692.280677 698.546958 
L 693.661507 614.462916 
L 694.352815 668.778946 
L 695.043848 694.013625 
L 695.734143 637.14142 
L 696.426535 622.950379 
L 697.115974 683.296644 
L 697.808603 682.908424 
L 698.498821 624.138063 
L 699.189023 637.557666 
L 699.880727 691.543084 
L 700.570211 667.300898 
L 701.263026 618.38705 
L 702.64538 692.297978 
L 703.336383 650.14538 
L 704.027235 620.953745 
L 704.71789 670.778355 
L 705.409523 686.004786 
L 706.098895 635.243206 
L 706.789542 630.800484 
L 707.480878 682.087979 
L 708.172054 674.158659 
L 708.862311 625.753259 
L 709.553716 645.280168 
L 710.245588 686.78769 
L 710.936527 659.164981 
L 711.627092 623.847165 
L 712.318568 660.64127 
L 713.009625 684.372617 
L 713.699888 644.40111 
L 714.39129 629.505323 
L 715.082157 673.002877 
L 715.774278 675.848021 
L 716.465262 633.530246 
L 717.155451 640.833234 
L 717.845369 679.762447 
L 718.536754 663.36206 
L 719.227639 629.145101 
L 720.609671 679.751142 
L 721.299895 649.989085 
L 721.993137 632.035009 
L 722.682145 666.393037 
L 723.373262 673.716086 
L 724.064054 639.214006 
L 724.755405 640.86948 
L 725.446316 673.531797 
L 726.138089 663.404525 
L 726.827986 634.275189 
L 727.520044 652.5513 
L 728.211082 674.300532 
L 728.901427 651.654988 
L 729.592274 636.37815 
L 730.282704 662.973094 
L 730.974366 669.183713 
L 731.665249 642.488353 
L 732.35717 643.991395 
L 733.047435 668.688562 
L 733.738342 660.158384 
L 734.430171 639.104285 
L 735.81111 668.300388 
L 736.501782 650.566605 
L 737.192747 642.109625 
L 737.88344 661.525407 
L 738.575348 662.835429 
L 739.266489 644.566162 
L 739.95646 649.218736 
L 740.649023 664.129222 
L 742.030879 644.562535 
L 742.722448 656.373016 
L 743.412526 661.301275 
L 744.103261 649.150403 
L 744.793983 649.125993 
L 745.485515 659.609338 
L 746.177651 655.970926 
L 746.867809 648.525631 
L 747.558736 653.940521 
L 748.248806 658.064579 
L 748.939204 652.614662 
L 749.632098 651.190204 
L 750.323164 655.397725 
L 751.013309 655.339591 
L 751.703513 652.96334 
L 752.394808 653.147652 
L 753.085889 653.787764 
L 758.613879 653.824428 
L 806.983251 653.88664 
L 1063.337564 653.8916 
L 1064.02888 653.664144 
L 1064.720547 619.788642 
L 1065.41228 570.721451 
L 1066.79353 647.411701 
L 1067.483846 602.178413 
L 1068.174769 573.98334 
L 1068.865587 626.314321 
L 1069.556029 640.555616 
L 1070.246763 587.305988 
L 1070.940065 584.386032 
L 1071.629355 637.63885 
L 1072.320043 628.171784 
L 1073.011867 578.060083 
L 1073.702815 599.246272 
L 1074.393331 642.22711 
L 1075.084466 612.792747 
L 1075.774458 576.348178 
L 1076.466181 614.882763 
L 1077.158227 639.684214 
L 1077.847968 597.781902 
L 1078.540095 582.05673 
L 1079.230175 627.593981 
L 1079.921297 631.190319 
L 1080.612394 586.694311 
L 1081.303226 593.359478 
L 1081.996066 634.823011 
L 1082.685866 618.69755 
L 1083.376173 581.836963 
L 1084.758683 635.383715 
L 1085.448477 605.133706 
L 1086.139442 584.106245 
L 1086.830953 619.397065 
L 1087.521503 629.844458 
L 1088.213233 594.086357 
L 1088.904501 592.234738 
L 1089.596598 627.349137 
L 1090.286051 619.989364 
L 1090.976842 588.175986 
L 1091.667523 603.504405 
L 1092.359548 629.326422 
L 1093.74135 588.635563 
L 1094.431327 614.346999 
L 1095.122872 625.655956 
L 1095.813834 598.680061 
L 1096.506379 594.685451 
L 1097.196613 621.6082 
L 1097.887738 617.853224 
L 1098.579135 593.287398 
L 1099.270097 603.851294 
L 1099.959752 623.417214 
L 1101.342274 593.924758 
L 1102.032673 612.553996 
L 1102.723188 619.982938 
L 1103.414661 600.73892 
L 1104.106465 599.33687 
L 1104.796883 617.517919 
L 1105.487776 613.206095 
L 1106.179448 597.867955 
L 1106.869647 606.572667 
L 1107.560125 617.327434 
L 1108.253072 606.217241 
L 1108.943385 600.154491 
L 1109.633759 611.972837 
L 1110.325579 613.220862 
L 1111.015192 602.610963 
L 1111.706046 605.024452 
L 1112.397766 613.070839 
L 1113.780043 603.613822 
L 1114.470079 608.499853 
L 1115.161586 610.782377 
L 1115.852284 606.786444 
L 1116.54438 606.204967 
L 1117.235376 608.567012 
L 1117.924841 608.671682 
L 1118.616483 608.077921 
L 1120.690496 608.021787 
L 1149.018935 607.899571 
L 1229.174505 607.865436 
L 1479.309519 607.864955 
L 1480.001179 618.022372 
L 1480.692056 706.708998 
L 1481.383107 825.147953 
L 1482.073225 859.569821 
L 1482.765897 872.819765 
L 1483.455277 945.52154 
L 1484.146544 979.200068 
L 1484.838234 929.011876 
L 1485.528519 895.631401 
L 1486.219392 953.038057 
L 1486.91111 975.541428 
L 1487.602459 921.172069 
L 1488.294395 900.383844 
L 1488.98471 959.304983 
L 1489.674744 970.41271 
L 1490.365718 913.73138 
L 1491.057225 906.780312 
L 1491.747681 964.428827 
L 1492.438854 963.916079 
L 1493.129073 907.554341 
L 1493.820588 914.633219 
L 1494.512102 968.031338 
L 1495.202163 956.120072 
L 1495.893095 903.26837 
L 1496.585031 923.550994 
L 1497.277156 969.793026 
L 1497.966889 947.213198 
L 1498.657227 901.346414 
L 1500.040033 969.471691 
L 1501.421878 902.184451 
L 1502.112781 942.092624 
L 1502.803731 966.894821 
L 1503.495446 927.874496 
L 1504.186051 905.940442 
L 1504.87582 950.108615 
L 1505.568163 961.981466 
L 1506.258839 919.114737 
L 1506.950963 912.483376 
L 1507.641363 956.171432 
L 1508.331775 954.809973 
L 1509.023865 912.545801 
L 1509.713323 921.250005 
L 1510.403685 959.608762 
L 1511.096825 945.709881 
L 1511.786443 909.306671 
L 1512.47712 931.250019 
L 1513.168171 959.821721 
L 1514.550213 910.189034 
L 1515.241128 940.937616 
L 1515.932893 956.613789 
L 1516.623648 925.42867 
L 1517.314254 915.250821 
L 1518.006709 948.49458 
L 1518.697516 950.02454 
L 1519.387697 918.05485 
L 1520.077599 923.76505 
L 1520.76911 952.397365 
L 1521.460731 940.641388 
L 1522.151627 915.302572 
L 1523.533053 951.661316 
L 1524.225322 930.302714 
L 1524.915312 918.16658 
L 1525.605376 942.47144 
L 1526.296715 946.262052 
L 1526.988028 922.479386 
L 1527.680234 925.734225 
L 1528.371308 946.803197 
L 1529.061225 937.22796 
L 1529.752553 920.475336 
L 1530.442775 934.991548 
L 1531.135752 945.144925 
L 1531.824798 928.370275 
L 1532.516501 924.810566 
L 1533.206369 941.409255 
L 1533.897232 938.674804 
L 1534.588817 924.705663 
L 1535.279865 932.071196 
L 1535.970125 941.785662 
L 1536.662528 932.000157 
L 1537.354263 926.944273 
L 1538.042943 937.098135 
L 1538.735157 937.969703 
L 1539.425721 929.19683 
L 1540.116188 931.257411 
L 1540.8076 937.581318 
L 1542.191021 930.518715 
L 1542.879957 933.73187 
L 1543.571385 935.353272 
L 1544.262467 933.349098 
L 1544.952942 932.783861 
L 1545.644126 933.090416 
L 1547.02795 933.183714 
L 1564.300549 933.398225 
L 1596.77727 933.514434 
L 1710.099356 933.541336 
L 1894.59069 933.540456 
L 1895.282469 933.217971 
L 1895.973544 899.527031 
L 1896.663986 740.843939 
L 1897.354976 552.129337 
L 1898.047015 488.753938 
L 1898.736323 486.213152 
L 1899.429937 376.27895 
L 1900.119809 294.012747 
L 1900.810336 336.997809 
L 1901.500937 455.281151 
L 1902.192403 458.363944 
L 1902.883121 342.765054 
L 1903.573533 297.279515 
L 1904.264862 375.773029 
L 1904.957632 469.723182 
L 1905.647968 424.053009 
L 1906.339033 314.305875 
L 1907.029605 315.429033 
L 1907.720997 424.43225 
L 1908.410652 465.74377 
L 1909.102202 371.096126 
L 1909.793128 302.37345 
L 1910.484792 358.473792 
L 1911.175545 459.742024 
L 1911.866363 431.287438 
L 1912.55788 323.387381 
L 1913.248722 318.185877 
L 1913.939743 421.236921 
L 1914.629506 459.978681 
L 1915.321318 366.548714 
L 1916.012782 307.660468 
L 1916.70266 372.70144 
L 1917.394029 459.745153 
L 1918.085901 411.829544 
L 1918.775978 317.278238 
L 1919.467612 337.131642 
L 1920.157946 440.439972 
L 1920.848167 441.760552 
L 1921.538989 339.569499 
L 1922.230345 319.630555 
L 1922.922849 411.723597 
L 1923.612292 454.396725 
L 1924.304153 367.449104 
L 1924.995856 314.836022 
L 1926.377558 455.326969 
L 1927.068607 392.870877 
L 1927.758772 317.651832 
L 1928.450325 362.389935 
L 1929.140137 449.653975 
L 1929.832135 411.841241 
L 1930.523952 324.388983 
L 1931.213821 348.216775 
L 1931.904562 441.170122 
L 1932.595466 424.175822 
L 1933.287365 332.298967 
L 1933.979036 340.04238 
L 1934.670251 432.686669 
L 1935.360128 431.114309 
L 1936.050762 339.38419 
L 1936.741918 336.074698 
L 1937.432832 426.103065 
L 1938.124544 434.283268 
L 1938.814463 344.537917 
L 1939.505451 334.879551 
L 1940.197598 422.137298 
L 1940.887784 434.798213 
L 1941.577629 347.231942 
L 1942.269649 335.661243 
L 1942.961945 420.950592 
L 1943.652357 433.300973 
L 1944.342037 347.476907 
L 1945.033292 338.083747 
L 1945.724999 422.228166 
L 1946.414661 430.004556 
L 1947.107022 345.702601 
L 1947.797427 342.190533 
L 1948.488802 425.356838 
L 1949.18042 424.771051 
L 1949.87184 342.548291 
L 1950.561589 348.312317 
L 1951.252698 429.568747 
L 1951.943432 417.393255 
L 1952.633409 338.86902 
L 1953.326341 356.705891 
L 1954.015933 433.848453 
L 1954.708055 407.814349 
L 1955.399064 335.710671 
L 1956.088992 367.401544 
L 1956.780275 436.96861 
L 1957.470578 396.452314 
L 1958.162085 334.20356 
L 1958.852612 379.858635 
L 1959.543829 437.689052 
L 1960.927401 335.166912 
L 1961.617364 393.181645 
L 1962.307188 435.204275 
L 1962.998946 371.130722 
L 1963.690947 339.288197 
L 1964.38172 406.198638 
L 1965.071161 429.106469 
L 1965.762169 359.292236 
L 1966.453731 347.056053 
L 1967.144891 417.454472 
L 1967.837022 419.519213 
L 1968.526136 349.798625 
L 1969.218241 357.98225 
L 1969.908918 425.54249 
L 1970.599786 407.271502 
L 1971.291241 343.723854 
L 1971.981784 370.887646 
L 1972.674267 429.706882 
L 1973.364929 393.790006 
L 1974.054767 341.696163 
L 1975.435826 429.642941 
L 1976.127432 380.365983 
L 1976.820081 343.719248 
L 1977.511224 397.349421 
L 1978.200368 425.597126 
L 1978.891089 368.309544 
L 1979.582437 349.415828 
L 1980.274296 408.327545 
L 1980.964533 418.154069 
L 1981.655454 358.761998 
L 1982.346408 358.077353 
L 1983.037044 416.33829 
L 1983.728147 408.227921 
L 1984.420956 352.513863 
L 1985.111129 368.717205 
L 1985.801266 420.87829 
L 1986.492407 396.964806 
L 1987.183499 349.794178 
L 1987.874033 380.155425 
L 1988.565239 421.750022 
L 1989.947006 350.662529 
L 1990.637999 391.166128 
L 1991.329297 419.122849 
L 1992.019787 375.180372 
L 1992.710689 354.76782 
L 1993.402424 400.599559 
L 1994.094321 413.518653 
L 1994.785395 366.873842 
L 1995.475058 361.448711 
L 1996.166188 407.536676 
L 1996.857207 405.791364 
L 1997.547484 361.399683 
L 1998.239688 369.786169 
L 1998.930223 411.424901 
L 1999.6206 396.944985 
L 2000.31177 359.014386 
L 2001.00247 378.735452 
L 2001.693101 412.273572 
L 2002.385125 388.073307 
L 2003.076208 359.566262 
L 2004.457855 410.302463 
L 2005.149537 380.182351 
L 2005.839762 362.672719 
L 2006.530706 394.231673 
L 2007.220951 406.06798 
L 2007.912828 374.091762 
L 2008.603511 367.674911 
L 2009.294556 399.107212 
L 2009.986107 400.371527 
L 2010.676339 370.371196 
L 2011.367827 373.701545 
L 2012.058698 401.472658 
L 2012.749616 394.147483 
L 2013.440698 369.192494 
L 2014.131853 379.813968 
L 2014.82263 401.37538 
L 2015.514253 388.29543 
L 2016.205882 370.269782 
L 2017.587236 399.333875 
L 2018.277536 383.640165 
L 2018.968283 372.944082 
L 2019.659268 388.857116 
L 2020.350581 396.071053 
L 2021.040935 380.75648 
L 2021.732153 376.452501 
L 2022.424212 390.657295 
L 2023.114732 392.385445 
L 2023.804638 379.81565 
L 2024.495762 380.001516 
L 2025.188959 390.595078 
L 2025.879635 389.036733 
L 2026.569038 380.615064 
L 2027.262171 382.859172 
L 2027.951326 389.018643 
L 2028.642436 386.664889 
L 2029.332942 382.679457 
L 2030.024497 384.476153 
L 2030.714568 386.602225 
L 2032.098889 385.143938 
L 2048.681075 385.209934 
L 2108.10481 385.264715 
L 2310.565426 385.265994 
L 2311.256341 387.35655 
L 2311.946672 455.834716 
L 2312.636695 597.244006 
L 2313.32769 657.451314 
L 2314.019301 653.315244 
L 2314.709227 740.270991 
L 2315.402243 867.268093 
L 2316.092955 906.098713 
L 2316.782563 879.152959 
L 2317.472951 910.588157 
L 2318.164711 982.226877 
L 2318.8555 965.597363 
L 2319.548015 893.371781 
L 2320.237254 911.841059 
L 2320.930013 980.753258 
L 2321.619067 964.340046 
L 2322.311921 894.318347 
L 2323.001438 914.249215 
L 2323.692317 980.170233 
L 2324.382998 961.509679 
L 2325.073652 894.335153 
L 2325.767098 918.379997 
L 2326.456055 980.169268 
L 2327.148284 957.120287 
L 2327.838374 893.77392 
L 2328.531041 924.048794 
L 2329.220557 980.240798 
L 2329.91226 951.255261 
L 2330.602214 893.302621 
L 2331.293438 931.065546 
L 2331.9837 979.839046 
L 2332.675263 943.998009 
L 2333.366314 893.611109 
L 2334.748225 978.431696 
L 2336.130466 895.376207 
L 2336.82113 946.890578 
L 2337.512319 975.602272 
L 2338.203453 926.86007 
L 2338.893403 899.040364 
L 2339.584573 954.061269 
L 2340.275314 971.255057 
L 2340.966833 918.65943 
L 2341.657899 904.635997 
L 2342.349035 960.087231 
L 2343.039681 965.288606 
L 2343.730822 911.543637 
L 2344.421909 912.010176 
L 2345.113079 964.601585 
L 2345.805517 957.869099 
L 2346.49522 906.250301 
L 2347.186415 920.752229 
L 2347.87726 967.189004 
L 2348.568047 949.118379 
L 2349.259722 903.399225 
L 2349.94989 930.26571 
L 2350.640956 967.541637 
L 2351.332786 939.433962 
L 2352.023463 903.514728 
L 2352.713641 939.720457 
L 2353.40558 965.398048 
L 2354.097361 929.482759 
L 2354.787397 906.825934 
L 2355.477742 948.109781 
L 2356.168306 960.720025 
L 2356.859861 920.47498 
L 2357.550923 913.178394 
L 2358.241511 954.461171 
L 2358.933452 953.596332 
L 2359.623554 913.733638 
L 2360.315102 921.942388 
L 2361.005537 957.984674 
L 2361.696791 944.424286 
L 2362.387561 910.604953 
L 2363.078687 931.964585 
L 2363.769271 957.983741 
L 2365.152622 911.95748 
L 2365.842587 941.543252 
L 2366.533409 954.263815 
L 2367.224144 924.306519 
L 2367.916921 917.702139 
L 2368.606175 948.549425 
L 2369.298151 946.991518 
L 2369.989886 917.839822 
L 2370.681006 926.73236 
L 2371.371553 951.348653 
L 2372.061067 937.112266 
L 2372.752035 916.740969 
L 2373.444615 936.574272 
L 2374.13588 949.086161 
L 2374.825226 927.356665 
L 2375.517959 921.416745 
L 2376.207079 943.916216 
L 2376.898949 942.141104 
L 2377.588906 921.682201 
L 2378.281556 929.931237 
L 2378.97114 945.788941 
L 2379.662363 932.869747 
L 2380.353144 922.695385 
L 2381.044362 938.11716 
L 2381.735637 941.728087 
L 2382.426737 926.498643 
L 2383.116752 928.668115 
L 2383.807656 941.458529 
L 2384.499038 935.125733 
L 2385.1896 926.18917 
L 2385.882906 934.6566 
L 2386.572117 939.383649 
L 2387.262952 930.721763 
L 2387.953996 929.640772 
L 2388.646067 936.954528 
L 2389.335711 935.628921 
L 2390.027048 930.52851 
L 2390.718378 932.754815 
L 2391.409761 935.539578 
L 2392.099654 933.801219 
L 2392.791089 932.668283 
L 2393.483377 933.069638 
L 2394.172555 933.263633 
L 2414.21179 933.444128 
L 2458.435006 933.532313 
L 2748.649336 933.541401 
L 2750.031344 933.541612 
L 2750.031344 933.541612 
" style="fill:none;stroke:#ff0000;stroke-linecap:square;stroke-width:3;"/>
   </g>
   <g id="patch_3">
    <path d="M 83.694615 1021.480385 
L 83.694615 157.9032 
" style="fill:none;stroke:#000000;stroke-linecap:square;stroke-linejoin:miter;stroke-width:0.8;"/>
   </g>
   <g id="patch_4">
    <path d="M 2876.99976 1021.480385 
L 2876.99976 157.9032 
" style="fill:none;stroke:#000000;stroke-linecap:square;stroke-linejoin:miter;stroke-width:0.8;"/>
   </g>
   <g id="patch_5">
    <path d="M 83.694615 1021.480385 
L 2876.99976 1021.480385 
" style="fill:none;stroke:#000000;stroke-linecap:square;stroke-linejoin:miter;stroke-width:0.8;"/>
   </g>
   <g id="patch_6">
    <path d="M 83.694615 157.9032 
L 2876.99976 157.9032 
" style="fill:none;stroke:#000000;stroke-linecap:square;stroke-linejoin:miter;stroke-width:0.8;"/>
   </g>
   <g id="text_20">
    <!-- Biceps (red) and Triceps (green) -->
    <defs>
     <path d="M 19.671875 34.8125 
L 19.671875 8.109375 
L 35.5 8.109375 
Q 43.453125 8.109375 47.28125 11.40625 
Q 51.125 14.703125 51.125 21.484375 
Q 51.125 28.328125 47.28125 31.5625 
Q 43.453125 34.8125 35.5 34.8125 
z
M 19.671875 64.796875 
L 19.671875 42.828125 
L 34.28125 42.828125 
Q 41.5 42.828125 45.03125 45.53125 
Q 48.578125 48.25 48.578125 53.8125 
Q 48.578125 59.328125 45.03125 62.0625 
Q 41.5 64.796875 34.28125 64.796875 
z
M 9.8125 72.90625 
L 35.015625 72.90625 
Q 46.296875 72.90625 52.390625 68.21875 
Q 58.5 63.53125 58.5 54.890625 
Q 58.5 48.1875 55.375 44.234375 
Q 52.25 40.28125 46.1875 39.3125 
Q 53.46875 37.75 57.5 32.78125 
Q 61.53125 27.828125 61.53125 20.40625 
Q 61.53125 10.640625 54.890625 5.3125 
Q 48.25 0 35.984375 0 
L 9.8125 0 
z
" id="DejaVuSans-66"/>
     <path d="M 48.78125 52.59375 
L 48.78125 44.1875 
Q 44.96875 46.296875 41.140625 47.34375 
Q 37.3125 48.390625 33.40625 48.390625 
Q 24.65625 48.390625 19.8125 42.84375 
Q 14.984375 37.3125 14.984375 27.296875 
Q 14.984375 17.28125 19.8125 11.734375 
Q 24.65625 6.203125 33.40625 6.203125 
Q 37.3125 6.203125 41.140625 7.25 
Q 44.96875 8.296875 48.78125 10.40625 
L 48.78125 2.09375 
Q 45.015625 0.34375 40.984375 -0.53125 
Q 36.96875 -1.421875 32.421875 -1.421875 
Q 20.0625 -1.421875 12.78125 6.34375 
Q 5.515625 14.109375 5.515625 27.296875 
Q 5.515625 40.671875 12.859375 48.328125 
Q 20.21875 56 33.015625 56 
Q 37.15625 56 41.109375 55.140625 
Q 45.0625 54.296875 48.78125 52.59375 
z
" id="DejaVuSans-99"/>
     <path d="M 18.109375 8.203125 
L 18.109375 -20.796875 
L 9.078125 -20.796875 
L 9.078125 54.6875 
L 18.109375 54.6875 
L 18.109375 46.390625 
Q 20.953125 51.265625 25.265625 53.625 
Q 29.59375 56 35.59375 56 
Q 45.5625 56 51.78125 48.09375 
Q 58.015625 40.1875 58.015625 27.296875 
Q 58.015625 14.40625 51.78125 6.484375 
Q 45.5625 -1.421875 35.59375 -1.421875 
Q 29.59375 -1.421875 25.265625 0.953125 
Q 20.953125 3.328125 18.109375 8.203125 
z
M 48.6875 27.296875 
Q 48.6875 37.203125 44.609375 42.84375 
Q 40.53125 48.484375 33.40625 48.484375 
Q 26.265625 48.484375 22.1875 42.84375 
Q 18.109375 37.203125 18.109375 27.296875 
Q 18.109375 17.390625 22.1875 11.75 
Q 26.265625 6.109375 33.40625 6.109375 
Q 40.53125 6.109375 44.609375 11.75 
Q 48.6875 17.390625 48.6875 27.296875 
z
" id="DejaVuSans-112"/>
     <path d="M 31 75.875 
Q 24.46875 64.65625 21.28125 53.65625 
Q 18.109375 42.671875 18.109375 31.390625 
Q 18.109375 20.125 21.3125 9.0625 
Q 24.515625 -2 31 -13.1875 
L 23.1875 -13.1875 
Q 15.875 -1.703125 12.234375 9.375 
Q 8.59375 20.453125 8.59375 31.390625 
Q 8.59375 42.28125 12.203125 53.3125 
Q 15.828125 64.359375 23.1875 75.875 
z
" id="DejaVuSans-40"/>
     <path d="M 41.109375 46.296875 
Q 39.59375 47.171875 37.8125 47.578125 
Q 36.03125 48 33.890625 48 
Q 26.265625 48 22.1875 43.046875 
Q 18.109375 38.09375 18.109375 28.8125 
L 18.109375 0 
L 9.078125 0 
L 9.078125 54.6875 
L 18.109375 54.6875 
L 18.109375 46.1875 
Q 20.953125 51.171875 25.484375 53.578125 
Q 30.03125 56 36.53125 56 
Q 37.453125 56 38.578125 55.875 
Q 39.703125 55.765625 41.0625 55.515625 
z
" id="DejaVuSans-114"/>
     <path d="M 45.40625 46.390625 
L 45.40625 75.984375 
L 54.390625 75.984375 
L 54.390625 0 
L 45.40625 0 
L 45.40625 8.203125 
Q 42.578125 3.328125 38.25 0.953125 
Q 33.9375 -1.421875 27.875 -1.421875 
Q 17.96875 -1.421875 11.734375 6.484375 
Q 5.515625 14.40625 5.515625 27.296875 
Q 5.515625 40.1875 11.734375 48.09375 
Q 17.96875 56 27.875 56 
Q 33.9375 56 38.25 53.625 
Q 42.578125 51.265625 45.40625 46.390625 
z
M 14.796875 27.296875 
Q 14.796875 17.390625 18.875 11.75 
Q 22.953125 6.109375 30.078125 6.109375 
Q 37.203125 6.109375 41.296875 11.75 
Q 45.40625 17.390625 45.40625 27.296875 
Q 45.40625 37.203125 41.296875 42.84375 
Q 37.203125 48.484375 30.078125 48.484375 
Q 22.953125 48.484375 18.875 42.84375 
Q 14.796875 37.203125 14.796875 27.296875 
z
" id="DejaVuSans-100"/>
     <path d="M 8.015625 75.875 
L 15.828125 75.875 
Q 23.140625 64.359375 26.78125 53.3125 
Q 30.421875 42.28125 30.421875 31.390625 
Q 30.421875 20.453125 26.78125 9.375 
Q 23.140625 -1.703125 15.828125 -13.1875 
L 8.015625 -13.1875 
Q 14.5 -2 17.703125 9.0625 
Q 20.90625 20.125 20.90625 31.390625 
Q 20.90625 42.671875 17.703125 53.65625 
Q 14.5 64.65625 8.015625 75.875 
z
" id="DejaVuSans-41"/>
     <path d="M 34.28125 27.484375 
Q 23.390625 27.484375 19.1875 25 
Q 14.984375 22.515625 14.984375 16.5 
Q 14.984375 11.71875 18.140625 8.90625 
Q 21.296875 6.109375 26.703125 6.109375 
Q 34.1875 6.109375 38.703125 11.40625 
Q 43.21875 16.703125 43.21875 25.484375 
L 43.21875 27.484375 
z
M 52.203125 31.203125 
L 52.203125 0 
L 43.21875 0 
L 43.21875 8.296875 
Q 40.140625 3.328125 35.546875 0.953125 
Q 30.953125 -1.421875 24.3125 -1.421875 
Q 15.921875 -1.421875 10.953125 3.296875 
Q 6 8.015625 6 15.921875 
Q 6 25.140625 12.171875 29.828125 
Q 18.359375 34.515625 30.609375 34.515625 
L 43.21875 34.515625 
L 43.21875 35.40625 
Q 43.21875 41.609375 39.140625 45 
Q 35.0625 48.390625 27.6875 48.390625 
Q 23 48.390625 18.546875 47.265625 
Q 14.109375 46.140625 10.015625 43.890625 
L 10.015625 52.203125 
Q 14.9375 54.109375 19.578125 55.046875 
Q 24.21875 56 28.609375 56 
Q 40.484375 56 46.34375 49.84375 
Q 52.203125 43.703125 52.203125 31.203125 
z
" id="DejaVuSans-97"/>
    </defs>
    <g transform="translate(1205.159688 150.832262)scale(0.34 -0.34)">
     <use xlink:href="#DejaVuSans-66"/>
     <use x="68.603516" xlink:href="#DejaVuSans-105"/>
     <use x="96.386719" xlink:href="#DejaVuSans-99"/>
     <use x="151.367188" xlink:href="#DejaVuSans-101"/>
     <use x="212.890625" xlink:href="#DejaVuSans-112"/>
     <use x="276.367188" xlink:href="#DejaVuSans-115"/>
     <use x="328.466797" xlink:href="#DejaVuSans-32"/>
     <use x="360.253906" xlink:href="#DejaVuSans-40"/>
     <use x="399.267578" xlink:href="#DejaVuSans-114"/>
     <use x="440.349609" xlink:href="#DejaVuSans-101"/>
     <use x="501.873047" xlink:href="#DejaVuSans-100"/>
     <use x="565.349609" xlink:href="#DejaVuSans-41"/>
     <use x="604.363281" xlink:href="#DejaVuSans-32"/>
     <use x="636.150391" xlink:href="#DejaVuSans-97"/>
     <use x="697.429688" xlink:href="#DejaVuSans-110"/>
     <use x="760.808594" xlink:href="#DejaVuSans-100"/>
     <use x="824.285156" xlink:href="#DejaVuSans-32"/>
     <use x="856.072266" xlink:href="#DejaVuSans-84"/>
     <use x="916.9375" xlink:href="#DejaVuSans-114"/>
     <use x="958.050781" xlink:href="#DejaVuSans-105"/>
     <use x="985.833984" xlink:href="#DejaVuSans-99"/>
     <use x="1040.814453" xlink:href="#DejaVuSans-101"/>
     <use x="1102.337891" xlink:href="#DejaVuSans-112"/>
     <use x="1165.814453" xlink:href="#DejaVuSans-115"/>
     <use x="1217.914062" xlink:href="#DejaVuSans-32"/>
     <use x="1249.701172" xlink:href="#DejaVuSans-40"/>
     <use x="1288.714844" xlink:href="#DejaVuSans-103"/>
     <use x="1352.191406" xlink:href="#DejaVuSans-114"/>
     <use x="1393.273438" xlink:href="#DejaVuSans-101"/>
     <use x="1454.796875" xlink:href="#DejaVuSans-101"/>
     <use x="1516.320312" xlink:href="#DejaVuSans-110"/>
     <use x="1579.699219" xlink:href="#DejaVuSans-41"/>
    </g>
   </g>
  </g>
  <g id="text_21">
   <!-- Setpoints (- -) and Lenghts () - P30000 I0 D0 -->
   <defs>
    <path d="M 53.515625 70.515625 
L 53.515625 60.890625 
Q 47.90625 63.578125 42.921875 64.890625 
Q 37.9375 66.21875 33.296875 66.21875 
Q 25.25 66.21875 20.875 63.09375 
Q 16.5 59.96875 16.5 54.203125 
Q 16.5 49.359375 19.40625 46.890625 
Q 22.3125 44.4375 30.421875 42.921875 
L 36.375 41.703125 
Q 47.40625 39.59375 52.65625 34.296875 
Q 57.90625 29 57.90625 20.125 
Q 57.90625 9.515625 50.796875 4.046875 
Q 43.703125 -1.421875 29.984375 -1.421875 
Q 24.8125 -1.421875 18.96875 -0.25 
Q 13.140625 0.921875 6.890625 3.21875 
L 6.890625 13.375 
Q 12.890625 10.015625 18.65625 8.296875 
Q 24.421875 6.59375 29.984375 6.59375 
Q 38.421875 6.59375 43.015625 9.90625 
Q 47.609375 13.234375 47.609375 19.390625 
Q 47.609375 24.75 44.3125 27.78125 
Q 41.015625 30.8125 33.5 32.328125 
L 27.484375 33.5 
Q 16.453125 35.6875 11.515625 40.375 
Q 6.59375 45.0625 6.59375 53.421875 
Q 6.59375 63.09375 13.40625 68.65625 
Q 20.21875 74.21875 32.171875 74.21875 
Q 37.3125 74.21875 42.625 73.28125 
Q 47.953125 72.359375 53.515625 70.515625 
z
" id="DejaVuSans-83"/>
    <path d="M 30.609375 48.390625 
Q 23.390625 48.390625 19.1875 42.75 
Q 14.984375 37.109375 14.984375 27.296875 
Q 14.984375 17.484375 19.15625 11.84375 
Q 23.34375 6.203125 30.609375 6.203125 
Q 37.796875 6.203125 41.984375 11.859375 
Q 46.1875 17.53125 46.1875 27.296875 
Q 46.1875 37.015625 41.984375 42.703125 
Q 37.796875 48.390625 30.609375 48.390625 
z
M 30.609375 56 
Q 42.328125 56 49.015625 48.375 
Q 55.71875 40.765625 55.71875 27.296875 
Q 55.71875 13.875 49.015625 6.21875 
Q 42.328125 -1.421875 30.609375 -1.421875 
Q 18.84375 -1.421875 12.171875 6.21875 
Q 5.515625 13.875 5.515625 27.296875 
Q 5.515625 40.765625 12.171875 48.375 
Q 18.84375 56 30.609375 56 
z
" id="DejaVuSans-111"/>
    <path d="M 4.890625 31.390625 
L 31.203125 31.390625 
L 31.203125 23.390625 
L 4.890625 23.390625 
z
" id="DejaVuSans-45"/>
    <path d="M 0 30.90625 
L 100 30.90625 
L 100 23.875 
L 0 23.875 
z
" id="DejaVuSans-8213"/>
    <path d="M 19.671875 64.796875 
L 19.671875 37.40625 
L 32.078125 37.40625 
Q 38.96875 37.40625 42.71875 40.96875 
Q 46.484375 44.53125 46.484375 51.125 
Q 46.484375 57.671875 42.71875 61.234375 
Q 38.96875 64.796875 32.078125 64.796875 
z
M 9.8125 72.90625 
L 32.078125 72.90625 
Q 44.34375 72.90625 50.609375 67.359375 
Q 56.890625 61.8125 56.890625 51.125 
Q 56.890625 40.328125 50.609375 34.8125 
Q 44.34375 29.296875 32.078125 29.296875 
L 19.671875 29.296875 
L 19.671875 0 
L 9.8125 0 
z
" id="DejaVuSans-80"/>
    <path d="M 9.8125 72.90625 
L 19.671875 72.90625 
L 19.671875 0 
L 9.8125 0 
z
" id="DejaVuSans-73"/>
    <path d="M 19.671875 64.796875 
L 19.671875 8.109375 
L 31.59375 8.109375 
Q 46.6875 8.109375 53.6875 14.9375 
Q 60.6875 21.78125 60.6875 36.53125 
Q 60.6875 51.171875 53.6875 57.984375 
Q 46.6875 64.796875 31.59375 64.796875 
z
M 9.8125 72.90625 
L 30.078125 72.90625 
Q 51.265625 72.90625 61.171875 64.09375 
Q 71.09375 55.28125 71.09375 36.53125 
Q 71.09375 17.671875 61.125 8.828125 
Q 51.171875 0 30.078125 0 
L 9.8125 0 
z
" id="DejaVuSans-68"/>
   </defs>
   <g transform="translate(1050.875312 28.834927)scale(0.34 -0.34)">
    <use xlink:href="#DejaVuSans-83"/>
    <use x="63.476562" xlink:href="#DejaVuSans-101"/>
    <use x="125" xlink:href="#DejaVuSans-116"/>
    <use x="164.208984" xlink:href="#DejaVuSans-112"/>
    <use x="227.685547" xlink:href="#DejaVuSans-111"/>
    <use x="288.867188" xlink:href="#DejaVuSans-105"/>
    <use x="316.650391" xlink:href="#DejaVuSans-110"/>
    <use x="380.029297" xlink:href="#DejaVuSans-116"/>
    <use x="419.238281" xlink:href="#DejaVuSans-115"/>
    <use x="471.337891" xlink:href="#DejaVuSans-32"/>
    <use x="503.125" xlink:href="#DejaVuSans-40"/>
    <use x="542.138672" xlink:href="#DejaVuSans-45"/>
    <use x="578.222656" xlink:href="#DejaVuSans-45"/>
    <use x="614.306641" xlink:href="#DejaVuSans-41"/>
    <use x="653.320312" xlink:href="#DejaVuSans-32"/>
    <use x="685.107422" xlink:href="#DejaVuSans-97"/>
    <use x="746.386719" xlink:href="#DejaVuSans-110"/>
    <use x="809.765625" xlink:href="#DejaVuSans-100"/>
    <use x="873.242188" xlink:href="#DejaVuSans-32"/>
    <use x="905.029297" xlink:href="#DejaVuSans-76"/>
    <use x="960.726562" xlink:href="#DejaVuSans-101"/>
    <use x="1022.25" xlink:href="#DejaVuSans-110"/>
    <use x="1085.628906" xlink:href="#DejaVuSans-103"/>
    <use x="1149.105469" xlink:href="#DejaVuSans-104"/>
    <use x="1212.484375" xlink:href="#DejaVuSans-116"/>
    <use x="1251.693359" xlink:href="#DejaVuSans-115"/>
    <use x="1303.792969" xlink:href="#DejaVuSans-32"/>
    <use x="1335.580078" xlink:href="#DejaVuSans-40"/>
    <use x="1374.59375" xlink:href="#DejaVuSans-8213"/>
    <use x="1474.59375" xlink:href="#DejaVuSans-41"/>
    <use x="1513.607422" xlink:href="#DejaVuSans-32"/>
    <use x="1545.394531" xlink:href="#DejaVuSans-45"/>
    <use x="1581.478516" xlink:href="#DejaVuSans-32"/>
    <use x="1613.265625" xlink:href="#DejaVuSans-80"/>
    <use x="1673.568359" xlink:href="#DejaVuSans-51"/>
    <use x="1737.191406" xlink:href="#DejaVuSans-48"/>
    <use x="1800.814453" xlink:href="#DejaVuSans-48"/>
    <use x="1864.4375" xlink:href="#DejaVuSans-48"/>
    <use x="1928.060547" xlink:href="#DejaVuSans-48"/>
    <use x="1991.683594" xlink:href="#DejaVuSans-32"/>
    <use x="2023.470703" xlink:href="#DejaVuSans-73"/>
    <use x="2052.962891" xlink:href="#DejaVuSans-48"/>
    <use x="2116.585938" xlink:href="#DejaVuSans-32"/>
    <use x="2148.373047" xlink:href="#DejaVuSans-68"/>
    <use x="2225.375" xlink:href="#DejaVuSans-48"/>
   </g>
   <!-- Bagfile elbow_left_D from 10s for 367s - Logging Rate 10 - Simulation Rate 400 - 100.00% real time speed -->
   <defs>
    <path d="M 37.109375 75.984375 
L 37.109375 68.5 
L 28.515625 68.5 
Q 23.6875 68.5 21.796875 66.546875 
Q 19.921875 64.59375 19.921875 59.515625 
L 19.921875 54.6875 
L 34.71875 54.6875 
L 34.71875 47.703125 
L 19.921875 47.703125 
L 19.921875 0 
L 10.890625 0 
L 10.890625 47.703125 
L 2.296875 47.703125 
L 2.296875 54.6875 
L 10.890625 54.6875 
L 10.890625 58.5 
Q 10.890625 67.625 15.140625 71.796875 
Q 19.390625 75.984375 28.609375 75.984375 
z
" id="DejaVuSans-102"/>
    <path d="M 9.421875 75.984375 
L 18.40625 75.984375 
L 18.40625 0 
L 9.421875 0 
z
" id="DejaVuSans-108"/>
    <path d="M 48.6875 27.296875 
Q 48.6875 37.203125 44.609375 42.84375 
Q 40.53125 48.484375 33.40625 48.484375 
Q 26.265625 48.484375 22.1875 42.84375 
Q 18.109375 37.203125 18.109375 27.296875 
Q 18.109375 17.390625 22.1875 11.75 
Q 26.265625 6.109375 33.40625 6.109375 
Q 40.53125 6.109375 44.609375 11.75 
Q 48.6875 17.390625 48.6875 27.296875 
z
M 18.109375 46.390625 
Q 20.953125 51.265625 25.265625 53.625 
Q 29.59375 56 35.59375 56 
Q 45.5625 56 51.78125 48.09375 
Q 58.015625 40.1875 58.015625 27.296875 
Q 58.015625 14.40625 51.78125 6.484375 
Q 45.5625 -1.421875 35.59375 -1.421875 
Q 29.59375 -1.421875 25.265625 0.953125 
Q 20.953125 3.328125 18.109375 8.203125 
L 18.109375 0 
L 9.078125 0 
L 9.078125 75.984375 
L 18.109375 75.984375 
z
" id="DejaVuSans-98"/>
    <path d="M 4.203125 54.6875 
L 13.1875 54.6875 
L 24.421875 12.015625 
L 35.59375 54.6875 
L 46.1875 54.6875 
L 57.421875 12.015625 
L 68.609375 54.6875 
L 77.59375 54.6875 
L 63.28125 0 
L 52.6875 0 
L 40.921875 44.828125 
L 29.109375 0 
L 18.5 0 
z
" id="DejaVuSans-119"/>
    <path d="M 50.984375 -16.609375 
L 50.984375 -23.578125 
L -0.984375 -23.578125 
L -0.984375 -16.609375 
z
" id="DejaVuSans-95"/>
    <path d="M 33.015625 40.375 
Q 26.375 40.375 22.484375 35.828125 
Q 18.609375 31.296875 18.609375 23.390625 
Q 18.609375 15.53125 22.484375 10.953125 
Q 26.375 6.390625 33.015625 6.390625 
Q 39.65625 6.390625 43.53125 10.953125 
Q 47.40625 15.53125 47.40625 23.390625 
Q 47.40625 31.296875 43.53125 35.828125 
Q 39.65625 40.375 33.015625 40.375 
z
M 52.59375 71.296875 
L 52.59375 62.3125 
Q 48.875 64.0625 45.09375 64.984375 
Q 41.3125 65.921875 37.59375 65.921875 
Q 27.828125 65.921875 22.671875 59.328125 
Q 17.53125 52.734375 16.796875 39.40625 
Q 19.671875 43.65625 24.015625 45.921875 
Q 28.375 48.1875 33.59375 48.1875 
Q 44.578125 48.1875 50.953125 41.515625 
Q 57.328125 34.859375 57.328125 23.390625 
Q 57.328125 12.15625 50.6875 5.359375 
Q 44.046875 -1.421875 33.015625 -1.421875 
Q 20.359375 -1.421875 13.671875 8.265625 
Q 6.984375 17.96875 6.984375 36.375 
Q 6.984375 53.65625 15.1875 63.9375 
Q 23.390625 74.21875 37.203125 74.21875 
Q 40.921875 74.21875 44.703125 73.484375 
Q 48.484375 72.75 52.59375 71.296875 
z
" id="DejaVuSans-54"/>
    <path d="M 44.390625 34.1875 
Q 47.5625 33.109375 50.5625 29.59375 
Q 53.5625 26.078125 56.59375 19.921875 
L 66.609375 0 
L 56 0 
L 46.6875 18.703125 
Q 43.0625 26.03125 39.671875 28.421875 
Q 36.28125 30.8125 30.421875 30.8125 
L 19.671875 30.8125 
L 19.671875 0 
L 9.8125 0 
L 9.8125 72.90625 
L 32.078125 72.90625 
Q 44.578125 72.90625 50.734375 67.671875 
Q 56.890625 62.453125 56.890625 51.90625 
Q 56.890625 45.015625 53.6875 40.46875 
Q 50.484375 35.9375 44.390625 34.1875 
z
M 19.671875 64.796875 
L 19.671875 38.921875 
L 32.078125 38.921875 
Q 39.203125 38.921875 42.84375 42.21875 
Q 46.484375 45.515625 46.484375 51.90625 
Q 46.484375 58.296875 42.84375 61.546875 
Q 39.203125 64.796875 32.078125 64.796875 
z
" id="DejaVuSans-82"/>
    <path d="M 8.5 21.578125 
L 8.5 54.6875 
L 17.484375 54.6875 
L 17.484375 21.921875 
Q 17.484375 14.15625 20.5 10.265625 
Q 23.53125 6.390625 29.59375 6.390625 
Q 36.859375 6.390625 41.078125 11.03125 
Q 45.3125 15.671875 45.3125 23.6875 
L 45.3125 54.6875 
L 54.296875 54.6875 
L 54.296875 0 
L 45.3125 0 
L 45.3125 8.40625 
Q 42.046875 3.421875 37.71875 1 
Q 33.40625 -1.421875 27.6875 -1.421875 
Q 18.265625 -1.421875 13.375 4.4375 
Q 8.5 10.296875 8.5 21.578125 
z
M 31.109375 56 
z
" id="DejaVuSans-117"/>
    <path d="M 72.703125 32.078125 
Q 68.453125 32.078125 66.03125 28.46875 
Q 63.625 24.859375 63.625 18.40625 
Q 63.625 12.0625 66.03125 8.421875 
Q 68.453125 4.78125 72.703125 4.78125 
Q 76.859375 4.78125 79.265625 8.421875 
Q 81.6875 12.0625 81.6875 18.40625 
Q 81.6875 24.8125 79.265625 28.4375 
Q 76.859375 32.078125 72.703125 32.078125 
z
M 72.703125 38.28125 
Q 80.421875 38.28125 84.953125 32.90625 
Q 89.5 27.546875 89.5 18.40625 
Q 89.5 9.28125 84.9375 3.921875 
Q 80.375 -1.421875 72.703125 -1.421875 
Q 64.890625 -1.421875 60.34375 3.921875 
Q 55.8125 9.28125 55.8125 18.40625 
Q 55.8125 27.59375 60.375 32.9375 
Q 64.9375 38.28125 72.703125 38.28125 
z
M 22.3125 68.015625 
Q 18.109375 68.015625 15.6875 64.375 
Q 13.28125 60.75 13.28125 54.390625 
Q 13.28125 47.953125 15.671875 44.328125 
Q 18.0625 40.71875 22.3125 40.71875 
Q 26.5625 40.71875 28.96875 44.328125 
Q 31.390625 47.953125 31.390625 54.390625 
Q 31.390625 60.6875 28.953125 64.34375 
Q 26.515625 68.015625 22.3125 68.015625 
z
M 66.40625 74.21875 
L 74.21875 74.21875 
L 28.609375 -1.421875 
L 20.796875 -1.421875 
z
M 22.3125 74.21875 
Q 30.03125 74.21875 34.609375 68.875 
Q 39.203125 63.53125 39.203125 54.390625 
Q 39.203125 45.171875 34.640625 39.84375 
Q 30.078125 34.515625 22.3125 34.515625 
Q 14.546875 34.515625 10.03125 39.859375 
Q 5.515625 45.21875 5.515625 54.390625 
Q 5.515625 63.484375 10.046875 68.84375 
Q 14.59375 74.21875 22.3125 74.21875 
z
" id="DejaVuSans-37"/>
   </defs>
   <g transform="translate(533.222656 66.90749)scale(0.34 -0.34)">
    <use xlink:href="#DejaVuSans-66"/>
    <use x="68.603516" xlink:href="#DejaVuSans-97"/>
    <use x="129.882812" xlink:href="#DejaVuSans-103"/>
    <use x="193.359375" xlink:href="#DejaVuSans-102"/>
    <use x="228.564453" xlink:href="#DejaVuSans-105"/>
    <use x="256.347656" xlink:href="#DejaVuSans-108"/>
    <use x="284.130859" xlink:href="#DejaVuSans-101"/>
    <use x="345.654297" xlink:href="#DejaVuSans-32"/>
    <use x="377.441406" xlink:href="#DejaVuSans-101"/>
    <use x="438.964844" xlink:href="#DejaVuSans-108"/>
    <use x="466.748047" xlink:href="#DejaVuSans-98"/>
    <use x="530.224609" xlink:href="#DejaVuSans-111"/>
    <use x="591.40625" xlink:href="#DejaVuSans-119"/>
    <use x="673.193359" xlink:href="#DejaVuSans-95"/>
    <use x="723.193359" xlink:href="#DejaVuSans-108"/>
    <use x="750.976562" xlink:href="#DejaVuSans-101"/>
    <use x="812.5" xlink:href="#DejaVuSans-102"/>
    <use x="847.689453" xlink:href="#DejaVuSans-116"/>
    <use x="886.898438" xlink:href="#DejaVuSans-95"/>
    <use x="936.898438" xlink:href="#DejaVuSans-68"/>
    <use x="1013.900391" xlink:href="#DejaVuSans-32"/>
    <use x="1045.6875" xlink:href="#DejaVuSans-102"/>
    <use x="1080.892578" xlink:href="#DejaVuSans-114"/>
    <use x="1121.974609" xlink:href="#DejaVuSans-111"/>
    <use x="1183.15625" xlink:href="#DejaVuSans-109"/>
    <use x="1280.568359" xlink:href="#DejaVuSans-32"/>
    <use x="1312.355469" xlink:href="#DejaVuSans-49"/>
    <use x="1375.978516" xlink:href="#DejaVuSans-48"/>
    <use x="1439.601562" xlink:href="#DejaVuSans-115"/>
    <use x="1491.701172" xlink:href="#DejaVuSans-32"/>
    <use x="1523.488281" xlink:href="#DejaVuSans-102"/>
    <use x="1558.693359" xlink:href="#DejaVuSans-111"/>
    <use x="1619.875" xlink:href="#DejaVuSans-114"/>
    <use x="1660.988281" xlink:href="#DejaVuSans-32"/>
    <use x="1692.775391" xlink:href="#DejaVuSans-51"/>
    <use x="1756.398438" xlink:href="#DejaVuSans-54"/>
    <use x="1820.021484" xlink:href="#DejaVuSans-55"/>
    <use x="1883.644531" xlink:href="#DejaVuSans-115"/>
    <use x="1935.744141" xlink:href="#DejaVuSans-32"/>
    <use x="1967.53125" xlink:href="#DejaVuSans-45"/>
    <use x="2003.615234" xlink:href="#DejaVuSans-32"/>
    <use x="2035.402344" xlink:href="#DejaVuSans-76"/>
    <use x="2091.099609" xlink:href="#DejaVuSans-111"/>
    <use x="2152.28125" xlink:href="#DejaVuSans-103"/>
    <use x="2215.757812" xlink:href="#DejaVuSans-103"/>
    <use x="2279.234375" xlink:href="#DejaVuSans-105"/>
    <use x="2307.017578" xlink:href="#DejaVuSans-110"/>
    <use x="2370.396484" xlink:href="#DejaVuSans-103"/>
    <use x="2433.873047" xlink:href="#DejaVuSans-32"/>
    <use x="2465.660156" xlink:href="#DejaVuSans-82"/>
    <use x="2535.111328" xlink:href="#DejaVuSans-97"/>
    <use x="2596.390625" xlink:href="#DejaVuSans-116"/>
    <use x="2635.599609" xlink:href="#DejaVuSans-101"/>
    <use x="2697.123047" xlink:href="#DejaVuSans-32"/>
    <use x="2728.910156" xlink:href="#DejaVuSans-49"/>
    <use x="2792.533203" xlink:href="#DejaVuSans-48"/>
    <use x="2856.15625" xlink:href="#DejaVuSans-32"/>
    <use x="2887.943359" xlink:href="#DejaVuSans-45"/>
    <use x="2924.027344" xlink:href="#DejaVuSans-32"/>
    <use x="2955.814453" xlink:href="#DejaVuSans-83"/>
    <use x="3019.291016" xlink:href="#DejaVuSans-105"/>
    <use x="3047.074219" xlink:href="#DejaVuSans-109"/>
    <use x="3144.486328" xlink:href="#DejaVuSans-117"/>
    <use x="3207.865234" xlink:href="#DejaVuSans-108"/>
    <use x="3235.648438" xlink:href="#DejaVuSans-97"/>
    <use x="3296.927734" xlink:href="#DejaVuSans-116"/>
    <use x="3336.136719" xlink:href="#DejaVuSans-105"/>
    <use x="3363.919922" xlink:href="#DejaVuSans-111"/>
    <use x="3425.101562" xlink:href="#DejaVuSans-110"/>
    <use x="3488.480469" xlink:href="#DejaVuSans-32"/>
    <use x="3520.267578" xlink:href="#DejaVuSans-82"/>
    <use x="3589.71875" xlink:href="#DejaVuSans-97"/>
    <use x="3650.998047" xlink:href="#DejaVuSans-116"/>
    <use x="3690.207031" xlink:href="#DejaVuSans-101"/>
    <use x="3751.730469" xlink:href="#DejaVuSans-32"/>
    <use x="3783.517578" xlink:href="#DejaVuSans-52"/>
    <use x="3847.140625" xlink:href="#DejaVuSans-48"/>
    <use x="3910.763672" xlink:href="#DejaVuSans-48"/>
    <use x="3974.386719" xlink:href="#DejaVuSans-32"/>
    <use x="4006.173828" xlink:href="#DejaVuSans-45"/>
    <use x="4042.257812" xlink:href="#DejaVuSans-32"/>
    <use x="4074.044922" xlink:href="#DejaVuSans-49"/>
    <use x="4137.667969" xlink:href="#DejaVuSans-48"/>
    <use x="4201.291016" xlink:href="#DejaVuSans-48"/>
    <use x="4264.914062" xlink:href="#DejaVuSans-46"/>
    <use x="4296.701172" xlink:href="#DejaVuSans-48"/>
    <use x="4360.324219" xlink:href="#DejaVuSans-48"/>
    <use x="4423.947266" xlink:href="#DejaVuSans-37"/>
    <use x="4518.966797" xlink:href="#DejaVuSans-32"/>
    <use x="4550.753906" xlink:href="#DejaVuSans-114"/>
    <use x="4591.835938" xlink:href="#DejaVuSans-101"/>
    <use x="4653.359375" xlink:href="#DejaVuSans-97"/>
    <use x="4714.638672" xlink:href="#DejaVuSans-108"/>
    <use x="4742.421875" xlink:href="#DejaVuSans-32"/>
    <use x="4774.208984" xlink:href="#DejaVuSans-116"/>
    <use x="4813.417969" xlink:href="#DejaVuSans-105"/>
    <use x="4841.201172" xlink:href="#DejaVuSans-109"/>
    <use x="4938.613281" xlink:href="#DejaVuSans-101"/>
    <use x="5000.136719" xlink:href="#DejaVuSans-32"/>
    <use x="5031.923828" xlink:href="#DejaVuSans-115"/>
    <use x="5084.023438" xlink:href="#DejaVuSans-112"/>
    <use x="5147.5" xlink:href="#DejaVuSans-101"/>
    <use x="5209.023438" xlink:href="#DejaVuSans-101"/>
    <use x="5270.546875" xlink:href="#DejaVuSans-100"/>
   </g>
   <!--  -->
   <g transform="translate(1440 105.925677)scale(0.34 -0.34)"/>
  </g>
 </g>
 <defs>
  <clipPath id="pca63278e77">
   <rect height="863.577185" width="2793.305145" x="83.694615" y="157.9032"/>
  </clipPath>
 </defs>
</svg>
