<?xml version="1.0" encoding="utf-8" standalone="no"?>
<!DOCTYPE svg PUBLIC "-//W3C//DTD SVG 1.1//EN"
  "http://www.w3.org/Graphics/SVG/1.1/DTD/svg11.dtd">
<!-- Created with matplotlib (https://matplotlib.org/) -->
<svg height="1080pt" version="1.1" viewBox="0 0 2880 1080" width="2880pt" xmlns="http://www.w3.org/2000/svg" xmlns:xlink="http://www.w3.org/1999/xlink">
 <defs>
  <style type="text/css">
*{stroke-linecap:butt;stroke-linejoin:round;}
  </style>
 </defs>
 <g id="figure_1">
  <g id="patch_1">
   <path d="M 0 1080 
L 2880 1080 
L 2880 0 
L 0 0 
z
" style="fill:#ffffff;"/>
  </g>
  <g id="axes_1">
   <g id="patch_2">
    <path d="M 94.09774 1021.480385 
L 2876.99976 1021.480385 
L 2876.99976 157.9032 
L 94.09774 157.9032 
z
" style="fill:#ffffff;"/>
   </g>
   <g id="matplotlib.axis_1">
    <g id="xtick_1">
     <g id="line2d_1">
      <defs>
       <path d="M 0 0 
L 0 3.5 
" id="md553ad93e6" style="stroke:#000000;stroke-width:0.8;"/>
      </defs>
      <g>
       <use style="stroke:#000000;stroke-width:0.8;" x="353.841158" xlink:href="#md553ad93e6" y="1021.480385"/>
      </g>
     </g>
     <g id="text_1">
      <!-- 40 -->
      <defs>
       <path d="M 37.796875 64.3125 
L 12.890625 25.390625 
L 37.796875 25.390625 
z
M 35.203125 72.90625 
L 47.609375 72.90625 
L 47.609375 25.390625 
L 58.015625 25.390625 
L 58.015625 17.1875 
L 47.609375 17.1875 
L 47.609375 0 
L 37.796875 0 
L 37.796875 17.1875 
L 4.890625 17.1875 
L 4.890625 26.703125 
z
" id="DejaVuSans-52"/>
       <path d="M 31.78125 66.40625 
Q 24.171875 66.40625 20.328125 58.90625 
Q 16.5 51.421875 16.5 36.375 
Q 16.5 21.390625 20.328125 13.890625 
Q 24.171875 6.390625 31.78125 6.390625 
Q 39.453125 6.390625 43.28125 13.890625 
Q 47.125 21.390625 47.125 36.375 
Q 47.125 51.421875 43.28125 58.90625 
Q 39.453125 66.40625 31.78125 66.40625 
z
M 31.78125 74.21875 
Q 44.046875 74.21875 50.515625 64.515625 
Q 56.984375 54.828125 56.984375 36.375 
Q 56.984375 17.96875 50.515625 8.265625 
Q 44.046875 -1.421875 31.78125 -1.421875 
Q 19.53125 -1.421875 13.0625 8.265625 
Q 6.59375 17.96875 6.59375 36.375 
Q 6.59375 54.828125 13.0625 64.515625 
Q 19.53125 74.21875 31.78125 74.21875 
z
" id="DejaVuSans-48"/>
      </defs>
      <g transform="translate(341.116158 1043.67726)scale(0.2 -0.2)">
       <use xlink:href="#DejaVuSans-52"/>
       <use x="63.623047" xlink:href="#DejaVuSans-48"/>
      </g>
     </g>
    </g>
    <g id="xtick_2">
     <g id="line2d_2">
      <g>
       <use style="stroke:#000000;stroke-width:0.8;" x="886.832643" xlink:href="#md553ad93e6" y="1021.480385"/>
      </g>
     </g>
     <g id="text_2">
      <!-- 60 -->
      <defs>
       <path d="M 33.015625 40.375 
Q 26.375 40.375 22.484375 35.828125 
Q 18.609375 31.296875 18.609375 23.390625 
Q 18.609375 15.53125 22.484375 10.953125 
Q 26.375 6.390625 33.015625 6.390625 
Q 39.65625 6.390625 43.53125 10.953125 
Q 47.40625 15.53125 47.40625 23.390625 
Q 47.40625 31.296875 43.53125 35.828125 
Q 39.65625 40.375 33.015625 40.375 
z
M 52.59375 71.296875 
L 52.59375 62.3125 
Q 48.875 64.0625 45.09375 64.984375 
Q 41.3125 65.921875 37.59375 65.921875 
Q 27.828125 65.921875 22.671875 59.328125 
Q 17.53125 52.734375 16.796875 39.40625 
Q 19.671875 43.65625 24.015625 45.921875 
Q 28.375 48.1875 33.59375 48.1875 
Q 44.578125 48.1875 50.953125 41.515625 
Q 57.328125 34.859375 57.328125 23.390625 
Q 57.328125 12.15625 50.6875 5.359375 
Q 44.046875 -1.421875 33.015625 -1.421875 
Q 20.359375 -1.421875 13.671875 8.265625 
Q 6.984375 17.96875 6.984375 36.375 
Q 6.984375 53.65625 15.1875 63.9375 
Q 23.390625 74.21875 37.203125 74.21875 
Q 40.921875 74.21875 44.703125 73.484375 
Q 48.484375 72.75 52.59375 71.296875 
z
" id="DejaVuSans-54"/>
      </defs>
      <g transform="translate(874.107643 1043.67726)scale(0.2 -0.2)">
       <use xlink:href="#DejaVuSans-54"/>
       <use x="63.623047" xlink:href="#DejaVuSans-48"/>
      </g>
     </g>
    </g>
    <g id="xtick_3">
     <g id="line2d_3">
      <g>
       <use style="stroke:#000000;stroke-width:0.8;" x="1419.824128" xlink:href="#md553ad93e6" y="1021.480385"/>
      </g>
     </g>
     <g id="text_3">
      <!-- 80 -->
      <defs>
       <path d="M 31.78125 34.625 
Q 24.75 34.625 20.71875 30.859375 
Q 16.703125 27.09375 16.703125 20.515625 
Q 16.703125 13.921875 20.71875 10.15625 
Q 24.75 6.390625 31.78125 6.390625 
Q 38.8125 6.390625 42.859375 10.171875 
Q 46.921875 13.96875 46.921875 20.515625 
Q 46.921875 27.09375 42.890625 30.859375 
Q 38.875 34.625 31.78125 34.625 
z
M 21.921875 38.8125 
Q 15.578125 40.375 12.03125 44.71875 
Q 8.5 49.078125 8.5 55.328125 
Q 8.5 64.0625 14.71875 69.140625 
Q 20.953125 74.21875 31.78125 74.21875 
Q 42.671875 74.21875 48.875 69.140625 
Q 55.078125 64.0625 55.078125 55.328125 
Q 55.078125 49.078125 51.53125 44.71875 
Q 48 40.375 41.703125 38.8125 
Q 48.828125 37.15625 52.796875 32.3125 
Q 56.78125 27.484375 56.78125 20.515625 
Q 56.78125 9.90625 50.3125 4.234375 
Q 43.84375 -1.421875 31.78125 -1.421875 
Q 19.734375 -1.421875 13.25 4.234375 
Q 6.78125 9.90625 6.78125 20.515625 
Q 6.78125 27.484375 10.78125 32.3125 
Q 14.796875 37.15625 21.921875 38.8125 
z
M 18.3125 54.390625 
Q 18.3125 48.734375 21.84375 45.5625 
Q 25.390625 42.390625 31.78125 42.390625 
Q 38.140625 42.390625 41.71875 45.5625 
Q 45.3125 48.734375 45.3125 54.390625 
Q 45.3125 60.0625 41.71875 63.234375 
Q 38.140625 66.40625 31.78125 66.40625 
Q 25.390625 66.40625 21.84375 63.234375 
Q 18.3125 60.0625 18.3125 54.390625 
z
" id="DejaVuSans-56"/>
      </defs>
      <g transform="translate(1407.099128 1043.67726)scale(0.2 -0.2)">
       <use xlink:href="#DejaVuSans-56"/>
       <use x="63.623047" xlink:href="#DejaVuSans-48"/>
      </g>
     </g>
    </g>
    <g id="xtick_4">
     <g id="line2d_4">
      <g>
       <use style="stroke:#000000;stroke-width:0.8;" x="1952.815613" xlink:href="#md553ad93e6" y="1021.480385"/>
      </g>
     </g>
     <g id="text_4">
      <!-- 100 -->
      <defs>
       <path d="M 12.40625 8.296875 
L 28.515625 8.296875 
L 28.515625 63.921875 
L 10.984375 60.40625 
L 10.984375 69.390625 
L 28.421875 72.90625 
L 38.28125 72.90625 
L 38.28125 8.296875 
L 54.390625 8.296875 
L 54.390625 0 
L 12.40625 0 
z
" id="DejaVuSans-49"/>
      </defs>
      <g transform="translate(1933.728113 1043.67726)scale(0.2 -0.2)">
       <use xlink:href="#DejaVuSans-49"/>
       <use x="63.623047" xlink:href="#DejaVuSans-48"/>
       <use x="127.246094" xlink:href="#DejaVuSans-48"/>
      </g>
     </g>
    </g>
    <g id="xtick_5">
     <g id="line2d_5">
      <g>
       <use style="stroke:#000000;stroke-width:0.8;" x="2485.807098" xlink:href="#md553ad93e6" y="1021.480385"/>
      </g>
     </g>
     <g id="text_5">
      <!-- 120 -->
      <defs>
       <path d="M 19.1875 8.296875 
L 53.609375 8.296875 
L 53.609375 0 
L 7.328125 0 
L 7.328125 8.296875 
Q 12.9375 14.109375 22.625 23.890625 
Q 32.328125 33.6875 34.8125 36.53125 
Q 39.546875 41.84375 41.421875 45.53125 
Q 43.3125 49.21875 43.3125 52.78125 
Q 43.3125 58.59375 39.234375 62.25 
Q 35.15625 65.921875 28.609375 65.921875 
Q 23.96875 65.921875 18.8125 64.3125 
Q 13.671875 62.703125 7.8125 59.421875 
L 7.8125 69.390625 
Q 13.765625 71.78125 18.9375 73 
Q 24.125 74.21875 28.421875 74.21875 
Q 39.75 74.21875 46.484375 68.546875 
Q 53.21875 62.890625 53.21875 53.421875 
Q 53.21875 48.921875 51.53125 44.890625 
Q 49.859375 40.875 45.40625 35.40625 
Q 44.1875 33.984375 37.640625 27.21875 
Q 31.109375 20.453125 19.1875 8.296875 
z
" id="DejaVuSans-50"/>
      </defs>
      <g transform="translate(2466.719598 1043.67726)scale(0.2 -0.2)">
       <use xlink:href="#DejaVuSans-49"/>
       <use x="63.623047" xlink:href="#DejaVuSans-50"/>
       <use x="127.246094" xlink:href="#DejaVuSans-48"/>
      </g>
     </g>
    </g>
    <g id="text_6">
     <!-- Time [s] -->
     <defs>
      <path d="M -0.296875 72.90625 
L 61.375 72.90625 
L 61.375 64.59375 
L 35.5 64.59375 
L 35.5 0 
L 25.59375 0 
L 25.59375 64.59375 
L -0.296875 64.59375 
z
" id="DejaVuSans-84"/>
      <path d="M 9.421875 54.6875 
L 18.40625 54.6875 
L 18.40625 0 
L 9.421875 0 
z
M 9.421875 75.984375 
L 18.40625 75.984375 
L 18.40625 64.59375 
L 9.421875 64.59375 
z
" id="DejaVuSans-105"/>
      <path d="M 52 44.1875 
Q 55.375 50.25 60.0625 53.125 
Q 64.75 56 71.09375 56 
Q 79.640625 56 84.28125 50.015625 
Q 88.921875 44.046875 88.921875 33.015625 
L 88.921875 0 
L 79.890625 0 
L 79.890625 32.71875 
Q 79.890625 40.578125 77.09375 44.375 
Q 74.3125 48.1875 68.609375 48.1875 
Q 61.625 48.1875 57.5625 43.546875 
Q 53.515625 38.921875 53.515625 30.90625 
L 53.515625 0 
L 44.484375 0 
L 44.484375 32.71875 
Q 44.484375 40.625 41.703125 44.40625 
Q 38.921875 48.1875 33.109375 48.1875 
Q 26.21875 48.1875 22.15625 43.53125 
Q 18.109375 38.875 18.109375 30.90625 
L 18.109375 0 
L 9.078125 0 
L 9.078125 54.6875 
L 18.109375 54.6875 
L 18.109375 46.1875 
Q 21.1875 51.21875 25.484375 53.609375 
Q 29.78125 56 35.6875 56 
Q 41.65625 56 45.828125 52.96875 
Q 50 49.953125 52 44.1875 
z
" id="DejaVuSans-109"/>
      <path d="M 56.203125 29.59375 
L 56.203125 25.203125 
L 14.890625 25.203125 
Q 15.484375 15.921875 20.484375 11.0625 
Q 25.484375 6.203125 34.421875 6.203125 
Q 39.59375 6.203125 44.453125 7.46875 
Q 49.3125 8.734375 54.109375 11.28125 
L 54.109375 2.78125 
Q 49.265625 0.734375 44.1875 -0.34375 
Q 39.109375 -1.421875 33.890625 -1.421875 
Q 20.796875 -1.421875 13.15625 6.1875 
Q 5.515625 13.8125 5.515625 26.8125 
Q 5.515625 40.234375 12.765625 48.109375 
Q 20.015625 56 32.328125 56 
Q 43.359375 56 49.78125 48.890625 
Q 56.203125 41.796875 56.203125 29.59375 
z
M 47.21875 32.234375 
Q 47.125 39.59375 43.09375 43.984375 
Q 39.0625 48.390625 32.421875 48.390625 
Q 24.90625 48.390625 20.390625 44.140625 
Q 15.875 39.890625 15.1875 32.171875 
z
" id="DejaVuSans-101"/>
      <path id="DejaVuSans-32"/>
      <path d="M 8.59375 75.984375 
L 29.296875 75.984375 
L 29.296875 69 
L 17.578125 69 
L 17.578125 -6.203125 
L 29.296875 -6.203125 
L 29.296875 -13.1875 
L 8.59375 -13.1875 
z
" id="DejaVuSans-91"/>
      <path d="M 44.28125 53.078125 
L 44.28125 44.578125 
Q 40.484375 46.53125 36.375 47.5 
Q 32.28125 48.484375 27.875 48.484375 
Q 21.1875 48.484375 17.84375 46.4375 
Q 14.5 44.390625 14.5 40.28125 
Q 14.5 37.15625 16.890625 35.375 
Q 19.28125 33.59375 26.515625 31.984375 
L 29.59375 31.296875 
Q 39.15625 29.25 43.1875 25.515625 
Q 47.21875 21.78125 47.21875 15.09375 
Q 47.21875 7.46875 41.1875 3.015625 
Q 35.15625 -1.421875 24.609375 -1.421875 
Q 20.21875 -1.421875 15.453125 -0.5625 
Q 10.6875 0.296875 5.421875 2 
L 5.421875 11.28125 
Q 10.40625 8.6875 15.234375 7.390625 
Q 20.0625 6.109375 24.8125 6.109375 
Q 31.15625 6.109375 34.5625 8.28125 
Q 37.984375 10.453125 37.984375 14.40625 
Q 37.984375 18.0625 35.515625 20.015625 
Q 33.0625 21.96875 24.703125 23.78125 
L 21.578125 24.515625 
Q 13.234375 26.265625 9.515625 29.90625 
Q 5.8125 33.546875 5.8125 39.890625 
Q 5.8125 47.609375 11.28125 51.796875 
Q 16.75 56 26.8125 56 
Q 31.78125 56 36.171875 55.265625 
Q 40.578125 54.546875 44.28125 53.078125 
z
" id="DejaVuSans-115"/>
      <path d="M 30.421875 75.984375 
L 30.421875 -13.1875 
L 9.71875 -13.1875 
L 9.71875 -6.203125 
L 21.390625 -6.203125 
L 21.390625 69 
L 9.71875 69 
L 9.71875 75.984375 
z
" id="DejaVuSans-93"/>
     </defs>
     <g transform="translate(1432.293437 1071.592572)scale(0.26 -0.26)">
      <use xlink:href="#DejaVuSans-84"/>
      <use x="61.037109" xlink:href="#DejaVuSans-105"/>
      <use x="88.820312" xlink:href="#DejaVuSans-109"/>
      <use x="186.232422" xlink:href="#DejaVuSans-101"/>
      <use x="247.755859" xlink:href="#DejaVuSans-32"/>
      <use x="279.542969" xlink:href="#DejaVuSans-91"/>
      <use x="318.556641" xlink:href="#DejaVuSans-115"/>
      <use x="370.65625" xlink:href="#DejaVuSans-93"/>
     </g>
    </g>
   </g>
   <g id="matplotlib.axis_2">
    <g id="ytick_1">
     <g id="line2d_6">
      <defs>
       <path d="M 0 0 
L -3.5 0 
" id="mc2ce690833" style="stroke:#000000;stroke-width:0.8;"/>
      </defs>
      <g>
       <use style="stroke:#000000;stroke-width:0.8;" x="94.09774" xlink:href="#mc2ce690833" y="920.247653"/>
      </g>
     </g>
     <g id="text_7">
      <!-- −140 -->
      <defs>
       <path d="M 10.59375 35.5 
L 73.1875 35.5 
L 73.1875 27.203125 
L 10.59375 27.203125 
z
" id="DejaVuSans-8722"/>
      </defs>
      <g transform="translate(32.163365 927.84609)scale(0.2 -0.2)">
       <use xlink:href="#DejaVuSans-8722"/>
       <use x="83.789062" xlink:href="#DejaVuSans-49"/>
       <use x="147.412109" xlink:href="#DejaVuSans-52"/>
       <use x="211.035156" xlink:href="#DejaVuSans-48"/>
      </g>
     </g>
    </g>
    <g id="ytick_2">
     <g id="line2d_7">
      <g>
       <use style="stroke:#000000;stroke-width:0.8;" x="94.09774" xlink:href="#mc2ce690833" y="816.948946"/>
      </g>
     </g>
     <g id="text_8">
      <!-- −120 -->
      <g transform="translate(32.163365 824.547384)scale(0.2 -0.2)">
       <use xlink:href="#DejaVuSans-8722"/>
       <use x="83.789062" xlink:href="#DejaVuSans-49"/>
       <use x="147.412109" xlink:href="#DejaVuSans-50"/>
       <use x="211.035156" xlink:href="#DejaVuSans-48"/>
      </g>
     </g>
    </g>
    <g id="ytick_3">
     <g id="line2d_8">
      <g>
       <use style="stroke:#000000;stroke-width:0.8;" x="94.09774" xlink:href="#mc2ce690833" y="713.65024"/>
      </g>
     </g>
     <g id="text_9">
      <!-- −100 -->
      <g transform="translate(32.163365 721.248678)scale(0.2 -0.2)">
       <use xlink:href="#DejaVuSans-8722"/>
       <use x="83.789062" xlink:href="#DejaVuSans-49"/>
       <use x="147.412109" xlink:href="#DejaVuSans-48"/>
       <use x="211.035156" xlink:href="#DejaVuSans-48"/>
      </g>
     </g>
    </g>
    <g id="ytick_4">
     <g id="line2d_9">
      <g>
       <use style="stroke:#000000;stroke-width:0.8;" x="94.09774" xlink:href="#mc2ce690833" y="610.351534"/>
      </g>
     </g>
     <g id="text_10">
      <!-- −80 -->
      <g transform="translate(44.888365 617.949971)scale(0.2 -0.2)">
       <use xlink:href="#DejaVuSans-8722"/>
       <use x="83.789062" xlink:href="#DejaVuSans-56"/>
       <use x="147.412109" xlink:href="#DejaVuSans-48"/>
      </g>
     </g>
    </g>
    <g id="ytick_5">
     <g id="line2d_10">
      <g>
       <use style="stroke:#000000;stroke-width:0.8;" x="94.09774" xlink:href="#mc2ce690833" y="507.052827"/>
      </g>
     </g>
     <g id="text_11">
      <!-- −60 -->
      <g transform="translate(44.888365 514.651265)scale(0.2 -0.2)">
       <use xlink:href="#DejaVuSans-8722"/>
       <use x="83.789062" xlink:href="#DejaVuSans-54"/>
       <use x="147.412109" xlink:href="#DejaVuSans-48"/>
      </g>
     </g>
    </g>
    <g id="ytick_6">
     <g id="line2d_11">
      <g>
       <use style="stroke:#000000;stroke-width:0.8;" x="94.09774" xlink:href="#mc2ce690833" y="403.754121"/>
      </g>
     </g>
     <g id="text_12">
      <!-- −40 -->
      <g transform="translate(44.888365 411.352559)scale(0.2 -0.2)">
       <use xlink:href="#DejaVuSans-8722"/>
       <use x="83.789062" xlink:href="#DejaVuSans-52"/>
       <use x="147.412109" xlink:href="#DejaVuSans-48"/>
      </g>
     </g>
    </g>
    <g id="ytick_7">
     <g id="line2d_12">
      <g>
       <use style="stroke:#000000;stroke-width:0.8;" x="94.09774" xlink:href="#mc2ce690833" y="300.455415"/>
      </g>
     </g>
     <g id="text_13">
      <!-- −20 -->
      <g transform="translate(44.888365 308.053852)scale(0.2 -0.2)">
       <use xlink:href="#DejaVuSans-8722"/>
       <use x="83.789062" xlink:href="#DejaVuSans-50"/>
       <use x="147.412109" xlink:href="#DejaVuSans-48"/>
      </g>
     </g>
    </g>
    <g id="ytick_8">
     <g id="line2d_13">
      <g>
       <use style="stroke:#000000;stroke-width:0.8;" x="94.09774" xlink:href="#mc2ce690833" y="197.156708"/>
      </g>
     </g>
     <g id="text_14">
      <!-- 0 -->
      <g transform="translate(74.37274 204.755146)scale(0.2 -0.2)">
       <use xlink:href="#DejaVuSans-48"/>
      </g>
     </g>
    </g>
    <g id="text_15">
     <!-- Length [m] -->
     <defs>
      <path d="M 9.8125 72.90625 
L 19.671875 72.90625 
L 19.671875 8.296875 
L 55.171875 8.296875 
L 55.171875 0 
L 9.8125 0 
z
" id="DejaVuSans-76"/>
      <path d="M 54.890625 33.015625 
L 54.890625 0 
L 45.90625 0 
L 45.90625 32.71875 
Q 45.90625 40.484375 42.875 44.328125 
Q 39.84375 48.1875 33.796875 48.1875 
Q 26.515625 48.1875 22.3125 43.546875 
Q 18.109375 38.921875 18.109375 30.90625 
L 18.109375 0 
L 9.078125 0 
L 9.078125 54.6875 
L 18.109375 54.6875 
L 18.109375 46.1875 
Q 21.34375 51.125 25.703125 53.5625 
Q 30.078125 56 35.796875 56 
Q 45.21875 56 50.046875 50.171875 
Q 54.890625 44.34375 54.890625 33.015625 
z
" id="DejaVuSans-110"/>
      <path d="M 45.40625 27.984375 
Q 45.40625 37.75 41.375 43.109375 
Q 37.359375 48.484375 30.078125 48.484375 
Q 22.859375 48.484375 18.828125 43.109375 
Q 14.796875 37.75 14.796875 27.984375 
Q 14.796875 18.265625 18.828125 12.890625 
Q 22.859375 7.515625 30.078125 7.515625 
Q 37.359375 7.515625 41.375 12.890625 
Q 45.40625 18.265625 45.40625 27.984375 
z
M 54.390625 6.78125 
Q 54.390625 -7.171875 48.1875 -13.984375 
Q 42 -20.796875 29.203125 -20.796875 
Q 24.46875 -20.796875 20.265625 -20.09375 
Q 16.0625 -19.390625 12.109375 -17.921875 
L 12.109375 -9.1875 
Q 16.0625 -11.328125 19.921875 -12.34375 
Q 23.78125 -13.375 27.78125 -13.375 
Q 36.625 -13.375 41.015625 -8.765625 
Q 45.40625 -4.15625 45.40625 5.171875 
L 45.40625 9.625 
Q 42.625 4.78125 38.28125 2.390625 
Q 33.9375 0 27.875 0 
Q 17.828125 0 11.671875 7.65625 
Q 5.515625 15.328125 5.515625 27.984375 
Q 5.515625 40.671875 11.671875 48.328125 
Q 17.828125 56 27.875 56 
Q 33.9375 56 38.28125 53.609375 
Q 42.625 51.21875 45.40625 46.390625 
L 45.40625 54.6875 
L 54.390625 54.6875 
z
" id="DejaVuSans-103"/>
      <path d="M 18.3125 70.21875 
L 18.3125 54.6875 
L 36.8125 54.6875 
L 36.8125 47.703125 
L 18.3125 47.703125 
L 18.3125 18.015625 
Q 18.3125 11.328125 20.140625 9.421875 
Q 21.96875 7.515625 27.59375 7.515625 
L 36.8125 7.515625 
L 36.8125 0 
L 27.59375 0 
Q 17.1875 0 13.234375 3.875 
Q 9.28125 7.765625 9.28125 18.015625 
L 9.28125 47.703125 
L 2.6875 47.703125 
L 2.6875 54.6875 
L 9.28125 54.6875 
L 9.28125 70.21875 
z
" id="DejaVuSans-116"/>
      <path d="M 54.890625 33.015625 
L 54.890625 0 
L 45.90625 0 
L 45.90625 32.71875 
Q 45.90625 40.484375 42.875 44.328125 
Q 39.84375 48.1875 33.796875 48.1875 
Q 26.515625 48.1875 22.3125 43.546875 
Q 18.109375 38.921875 18.109375 30.90625 
L 18.109375 0 
L 9.078125 0 
L 9.078125 75.984375 
L 18.109375 75.984375 
L 18.109375 46.1875 
Q 21.34375 51.125 25.703125 53.5625 
Q 30.078125 56 35.796875 56 
Q 45.21875 56 50.046875 50.171875 
Q 54.890625 44.34375 54.890625 33.015625 
z
" id="DejaVuSans-104"/>
     </defs>
     <g transform="translate(22.756178 661.697574)rotate(-90)scale(0.26 -0.26)">
      <use xlink:href="#DejaVuSans-76"/>
      <use x="55.697266" xlink:href="#DejaVuSans-101"/>
      <use x="117.220703" xlink:href="#DejaVuSans-110"/>
      <use x="180.599609" xlink:href="#DejaVuSans-103"/>
      <use x="244.076172" xlink:href="#DejaVuSans-116"/>
      <use x="283.285156" xlink:href="#DejaVuSans-104"/>
      <use x="346.664062" xlink:href="#DejaVuSans-32"/>
      <use x="378.451172" xlink:href="#DejaVuSans-91"/>
      <use x="417.464844" xlink:href="#DejaVuSans-109"/>
      <use x="514.876953" xlink:href="#DejaVuSans-93"/>
     </g>
    </g>
   </g>
   <g id="line2d_14">
    <path clip-path="url(#p43f239f010)" d="M 220.593286 197.156708 
L 233.585175 197.156708 
L 234.450626 231.788761 
L 235.323683 642.363787 
L 236.184337 750.659276 
L 237.049229 678.698214 
L 237.918003 617.074302 
L 238.781866 375.294992 
L 239.648193 264.973805 
L 240.515246 197.156708 
L 244.845087 197.156708 
L 245.709827 270.110153 
L 246.575977 406.792112 
L 247.444351 483.476825 
L 248.310043 488.298931 
L 249.174198 423.134525 
L 250.041219 299.585332 
L 250.906931 197.156708 
L 256.969733 197.156708 
L 257.835769 264.634204 
L 258.701411 383.213581 
L 259.567688 445.499434 
L 260.435344 442.671308 
L 261.307136 377.666761 
L 262.168095 261.509633 
L 263.032231 197.156708 
L 269.096399 197.156708 
L 269.960853 263.036239 
L 270.828382 362.150282 
L 271.692657 408.659297 
L 272.559525 396.906375 
L 273.425415 330.695243 
L 274.292194 220.989657 
L 275.16222 197.156708 
L 281.220467 197.156708 
L 282.087011 262.323052 
L 282.95304 341.116098 
L 283.818853 371.031427 
L 284.686789 349.673564 
L 285.551369 281.712896 
L 286.418434 197.156708 
L 293.345996 197.156708 
L 295.079617 317.756934 
L 295.946352 331.20043 
L 296.811269 300.670584 
L 297.678188 231.750515 
L 298.542947 197.156708 
L 305.471461 197.156708 
L 306.338126 253.420709 
L 307.203964 290.346565 
L 308.071595 288.305139 
L 308.936499 249.915887 
L 309.80305 197.156708 
L 317.599887 197.156708 
L 318.465186 240.72059 
L 319.330592 257.31913 
L 320.196221 241.932965 
L 321.063293 198.076644 
L 321.92807 197.156708 
L 329.723046 197.156708 
L 330.588967 219.291492 
L 331.459031 218.366615 
L 332.321954 197.156708 
L 1033.8733 197.156708 
L 1035.603662 383.926399 
L 1036.470492 595.745198 
L 1037.33654 888.605557 
L 1038.202214 923.908032 
L 1039.068179 759.312477 
L 1039.938974 565.017276 
L 1040.799101 231.601148 
L 1041.665607 197.156708 
L 1047.73008 197.156708 
L 1048.595214 505.825447 
L 1049.461942 954.855134 
L 1050.328867 982.226877 
L 1052.926205 982.226877 
L 1053.792444 896.445954 
L 1054.658054 439.055128 
L 1055.52484 197.156708 
L 1062.453322 197.156708 
L 1063.319288 526.719234 
L 1064.184326 939.753579 
L 1065.051086 982.226877 
L 1067.649593 982.226877 
L 1068.514701 716.544204 
L 1069.383304 258.411061 
L 1070.248126 197.156708 
L 1076.310891 197.156708 
L 1077.177962 351.833749 
L 1078.043235 774.613031 
L 1078.917016 982.226877 
L 1081.50814 982.226877 
L 1082.373718 728.817833 
L 1083.238947 304.497016 
L 1084.110244 197.156708 
L 1090.169514 197.156708 
L 1091.034336 412.641771 
L 1091.901636 796.049498 
L 1092.766998 982.226877 
L 1094.500683 982.226877 
L 1095.370754 901.712908 
L 1097.096871 197.156708 
L 1103.161949 197.156708 
L 1104.026351 240.81735 
L 1104.893683 630.800327 
L 1105.762661 926.730533 
L 1106.624287 982.226877 
L 1107.491276 982.226877 
L 1108.357457 913.685397 
L 1109.222241 614.599737 
L 1110.089662 230.381676 
L 1110.954999 197.156708 
L 1116.152808 197.156708 
L 1117.01857 235.697024 
L 1117.88413 602.505433 
L 1118.750006 880.566551 
L 1119.617192 982.226877 
L 1120.48488 982.226877 
L 1121.347948 839.565856 
L 1122.214797 545.028144 
L 1123.081951 197.156708 
L 1129.143839 197.156708 
L 1130.010732 344.528325 
L 1130.876596 668.611224 
L 1131.74077 893.518019 
L 1132.607975 979.294442 
L 1133.473769 911.548904 
L 1134.340904 703.957969 
L 1135.207804 394.775739 
L 1136.073236 197.156708 
L 1142.135435 197.156708 
L 1143.001642 503.09138 
L 1143.870067 762.327692 
L 1144.73332 907.201206 
L 1145.600588 910.398378 
L 1146.46649 773.804451 
L 1147.332043 522.753052 
L 1148.198352 203.89325 
L 1149.063587 197.156708 
L 1154.262552 197.156708 
L 1155.126091 372.194577 
L 1155.992667 644.15723 
L 1156.859992 822.396499 
L 1157.725532 874.533857 
L 1158.592197 792.863352 
L 1159.458258 593.227038 
L 1160.324859 312.669728 
L 1161.191651 197.156708 
L 1166.386035 197.156708 
L 1167.255375 255.514281 
L 1168.118729 529.902342 
L 1168.985 729.706416 
L 1169.851239 821.248033 
L 1170.717961 787.848128 
L 1171.583482 637.355153 
L 1172.448056 397.748542 
L 1173.315337 197.156708 
L 1179.380268 197.156708 
L 1181.109792 634.028811 
L 1181.976609 755.661579 
L 1182.842772 763.749477 
L 1183.709214 658.994928 
L 1184.574144 461.102816 
L 1185.440504 207.037183 
L 1186.3068 197.156708 
L 1191.50412 197.156708 
L 1192.369272 322.774903 
L 1193.236166 539.904822 
L 1194.10339 682.022193 
L 1194.968218 724.575369 
L 1195.838708 660.976337 
L 1196.699298 503.833387 
L 1197.570277 282.524162 
L 1198.432628 197.156708 
L 1203.629013 197.156708 
L 1204.499655 235.768181 
L 1205.361764 450.002684 
L 1206.228111 604.550996 
L 1207.094636 674.185391 
L 1207.959566 646.292747 
L 1208.826434 527.526213 
L 1209.69268 340.148222 
L 1210.560336 197.156708 
L 1216.620165 197.156708 
L 1218.352185 527.042762 
L 1219.218831 616.158859 
L 1220.085559 618.120146 
L 1220.951938 534.302134 
L 1221.818361 380.571652 
L 1222.68589 197.156708 
L 1228.747257 197.156708 
L 1229.614468 292.397159 
L 1230.478705 452.521991 
L 1231.345332 553.637405 
L 1232.211857 579.509056 
L 1233.082137 526.409849 
L 1233.941978 404.816374 
L 1234.809322 237.610871 
L 1235.677003 197.156708 
L 1240.876039 197.156708 
L 1241.736915 228.422407 
L 1242.605105 382.537653 
L 1243.47041 489.753225 
L 1244.341363 533.433717 
L 1245.202951 506.320312 
L 1246.069165 414.41254 
L 1246.935239 275.057242 
L 1247.80102 197.156708 
L 1253.863117 197.156708 
L 1255.59503 427.391067 
L 1256.461574 482.611481 
L 1257.33052 476.396217 
L 1258.195018 410.952184 
L 1259.927019 197.156708 
L 1265.99 197.156708 
L 1266.855737 263.48866 
L 1267.722096 368.171377 
L 1268.589549 429.425719 
L 1269.45371 439.033307 
L 1270.318513 396.296724 
L 1271.186036 309.401587 
L 1272.051684 197.156708 
L 1278.115389 197.156708 
L 1278.980713 217.01729 
L 1279.846469 313.498317 
L 1280.713013 376.343835 
L 1281.57976 396.501454 
L 1282.447105 372.316214 
L 1283.310319 308.444393 
L 1284.180059 216.981867 
L 1285.043528 197.156708 
L 1291.108014 197.156708 
L 1292.839101 325.328418 
L 1293.705708 350.955594 
L 1294.570206 340.888835 
L 1295.437703 297.129575 
L 1296.302621 227.844128 
L 1297.168301 197.156708 
L 1303.23428 197.156708 
L 1304.096967 223.264987 
L 1304.963581 277.233796 
L 1305.832158 304.773016 
L 1306.696968 303.914135 
L 1307.564484 276.882686 
L 1308.429255 228.109464 
L 1309.295265 197.156708 
L 1316.223773 197.156708 
L 1317.089942 233.333815 
L 1317.954714 259.467659 
L 1318.821861 263.672974 
L 1319.691106 249.68669 
L 1320.554168 219.353185 
L 1321.421239 197.156708 
L 1329.215884 197.156708 
L 1330.082047 215.685801 
L 1330.947333 222.489197 
L 1331.814036 216.716842 
L 1332.679315 201.271951 
L 1333.545643 197.156708 
L 1843.691661 197.156708 
L 1846.285968 571.701007 
L 1847.150498 658.227215 
L 1848.015536 645.325718 
L 1848.882347 577.521887 
L 1849.748847 461.030774 
L 1851.479126 197.156708 
L 1857.543822 197.156708 
L 1858.409235 265.251461 
L 1859.276122 394.912256 
L 1860.142272 466.206358 
L 1861.007946 468.605911 
L 1861.873791 404.37052 
L 1862.739509 284.456017 
L 1863.605551 197.156708 
L 1869.668785 197.156708 
L 1870.534148 261.912985 
L 1871.402903 372.48077 
L 1872.268208 428.625608 
L 1873.132534 422.707352 
L 1874.00073 358.036127 
L 1874.866207 245.446631 
L 1875.731118 197.156708 
L 1881.793584 197.156708 
L 1882.661233 261.405952 
L 1883.526627 352.091859 
L 1884.392332 391.917656 
L 1885.262968 376.538852 
L 1886.12359 310.078025 
L 1886.990262 203.57723 
L 1887.858654 197.156708 
L 1893.921857 197.156708 
L 1895.652429 330.474409 
L 1896.518751 353.590327 
L 1897.385962 328.615701 
L 1899.11743 197.156708 
L 1906.045766 197.156708 
L 1906.910385 256.716892 
L 1907.778415 305.769419 
L 1908.64374 312.643352 
L 1909.510417 278.874275 
L 1910.378511 210.385636 
L 1911.241745 197.156708 
L 1918.171435 197.156708 
L 1919.035844 248.091547 
L 1919.90369 276.214668 
L 1920.768017 268.34671 
L 1921.636225 227.537003 
L 1922.502286 197.156708 
L 1930.301754 197.156708 
L 1931.162332 232.045417 
L 1932.033762 240.714168 
L 1932.894244 220.67742 
L 1933.763266 197.156708 
L 1942.421666 197.156708 
L 1943.288782 206.461644 
L 1944.15593 199.620778 
L 1945.020803 197.156708 
L 2640.509664 197.156708 
L 2641.373876 300.508265 
L 2642.239505 592.331419 
L 2643.106208 782.224105 
L 2643.97671 714.641045 
L 2644.838806 742.089136 
L 2645.704448 571.346082 
L 2646.570852 201.209798 
L 2647.438184 197.156708 
L 2655.230351 197.156708 
L 2656.097131 639.443699 
L 2656.963611 982.226877 
L 2660.427068 982.226877 
L 2661.300925 611.845671 
L 2662.160626 197.156708 
L 2669.088746 197.156708 
L 2669.956281 460.602981 
L 2670.822247 860.814398 
L 2671.69071 982.226877 
L 2674.286771 982.226877 
L 2675.152451 635.657541 
L 2676.018416 197.156708 
L 2682.947223 197.156708 
L 2683.815203 510.249736 
L 2684.679892 870.485436 
L 2685.548583 982.226877 
L 2687.278869 982.226877 
L 2688.143933 833.303329 
L 2689.011512 465.780644 
L 2689.876252 197.156708 
L 2695.939124 197.156708 
L 2696.805408 334.508319 
L 2697.670414 708.847826 
L 2698.537848 976.114012 
L 2699.403667 982.226877 
L 2700.271285 982.226877 
L 2701.135936 857.371359 
L 2702.86748 197.156708 
L 2708.929977 197.156708 
L 2709.797366 322.114185 
L 2710.663059 674.524254 
L 2711.528186 926.150388 
L 2712.395143 982.226877 
L 2713.262297 982.226877 
L 2714.126541 784.101332 
L 2714.994984 467.926844 
L 2715.85886 197.156708 
L 2721.922711 197.156708 
L 2722.787685 421.731303 
L 2723.656123 728.272598 
L 2724.51921 925.975897 
L 2725.391987 978.176105 
L 2726.253785 877.650457 
L 2727.11834 643.514271 
L 2727.986968 319.001343 
L 2728.851193 197.156708 
L 2734.046988 197.156708 
L 2734.915775 248.013865 
L 2735.780521 567.719058 
L 2736.64662 805.518128 
L 2737.514149 920.923761 
L 2738.377274 892.735516 
L 2739.245025 728.134583 
L 2740.978812 197.156708 
L 2747.038997 197.156708 
L 2748.771869 692.367196 
L 2749.638508 845.74908 
L 2750.504214 868.637272 
L 2750.504214 868.637272 
" style="fill:none;stroke:#008000;stroke-linecap:square;stroke-width:3;"/>
   </g>
   <g id="line2d_15">
    <path clip-path="url(#p43f239f010)" d="M 220.593286 199.062259 
L 225.790199 199.164717 
L 227.522512 199.193215 
L 228.388611 373.710801 
L 229.25398 671.525187 
L 230.120759 637.192843 
L 230.985149 820.113411 
L 231.853167 865.402334 
L 232.722666 528.486869 
L 233.585175 406.579928 
L 234.450626 197.156708 
L 239.648193 197.156708 
L 240.515246 325.219239 
L 242.245443 625.639832 
L 243.111625 638.537246 
L 243.978003 499.584257 
L 244.845087 311.616825 
L 245.709827 197.156708 
L 250.041219 197.156708 
L 250.906931 264.584815 
L 251.773767 455.89097 
L 252.639186 614.780741 
L 253.50594 705.878628 
L 254.371169 709.833115 
L 255.239771 628.752042 
L 256.104498 480.455564 
L 256.969733 297.369663 
L 257.835769 197.156708 
L 262.168095 197.156708 
L 263.032231 292.183062 
L 263.900611 462.842528 
L 264.764779 599.093888 
L 265.631685 670.260348 
L 266.49652 662.63124 
L 267.364741 580.413515 
L 268.229239 441.573917 
L 269.096399 276.535119 
L 269.960853 197.156708 
L 274.292194 197.156708 
L 275.16222 323.354911 
L 276.024526 472.265233 
L 276.890905 583.839922 
L 277.760899 633.820597 
L 278.622652 613.798007 
L 279.490003 529.888645 
L 280.355194 400.434675 
L 281.220467 253.877889 
L 282.087011 197.156708 
L 285.551369 197.156708 
L 286.418434 218.532319 
L 288.148733 479.99871 
L 289.016738 566.051706 
L 289.881916 594.694742 
L 290.750214 562.698437 
L 291.616027 477.987199 
L 293.345996 232.31118 
L 294.21388 197.156708 
L 297.678188 197.156708 
L 298.542947 266.882852 
L 299.410806 384.272765 
L 300.274071 483.796646 
L 301.142668 543.643447 
L 302.008081 551.679576 
L 302.873176 509.14791 
L 303.741016 425.63928 
L 305.471461 214.192375 
L 306.338126 197.156708 
L 308.936499 197.156708 
L 309.80305 214.857848 
L 311.535718 407.942799 
L 312.400973 480.515921 
L 313.268177 514.214673 
L 314.133756 503.91719 
L 314.999448 453.78031 
L 315.864855 374.834202 
L 317.599887 202.692518 
L 318.465186 197.156708 
L 321.063293 197.156708 
L 323.66018 421.819806 
L 324.527111 466.652504 
L 325.3914 476.307015 
L 326.258255 451.728401 
L 327.124913 398.78351 
L 328.856756 258.192002 
L 329.723046 201.632182 
L 330.588967 197.156708 
L 331.459031 197.156708 
L 332.321954 202.020037 
L 333.188326 253.656325 
L 334.921446 376.557464 
L 335.788002 420.651089 
L 336.653809 439.130384 
L 337.518784 430.491918 
L 338.383771 398.148139 
L 340.982673 246.237124 
L 341.848778 214.931876 
L 342.716542 207.105966 
L 343.580176 221.446624 
L 344.447362 254.18944 
L 346.179331 343.279323 
L 347.046168 379.90203 
L 347.910138 399.854231 
L 348.778881 400.110478 
L 349.644421 383.269015 
L 350.509427 353.133955 
L 352.241657 281.097121 
L 353.107382 255.128247 
L 353.974701 244.167813 
L 354.842643 248.16799 
L 355.70695 264.665729 
L 357.439295 318.51092 
L 358.304555 343.928725 
L 359.170998 360.630647 
L 360.036188 365.311481 
L 360.902484 359.945284 
L 361.768005 346.419064 
L 364.367275 291.617386 
L 365.235319 282.180147 
L 366.099575 280.847336 
L 366.965535 285.011617 
L 367.831964 293.516984 
L 369.564449 315.459335 
L 370.429773 324.041213 
L 371.298776 328.328432 
L 372.161177 328.722851 
L 373.029849 327.730897 
L 373.894678 325.686794 
L 375.626266 320.386156 
L 376.494926 318.301914 
L 377.361457 317.250741 
L 378.227417 317.096179 
L 391.216942 316.715193 
L 422.397835 315.981236 
L 458.773145 315.356177 
L 502.080952 314.842578 
L 555.77728 314.436556 
L 626.799233 314.13458 
L 730.732861 313.935564 
L 917.812751 313.835565 
L 1033.004462 313.821699 
L 1033.8733 286.253246 
L 1034.737899 197.156708 
L 1040.799101 197.156708 
L 1041.665607 632.435074 
L 1042.534838 982.226877 
L 1045.997049 982.226877 
L 1046.862971 912.264961 
L 1047.73008 415.47525 
L 1048.595214 197.156708 
L 1054.658054 197.156708 
L 1055.52484 470.796545 
L 1056.391028 935.858418 
L 1057.257108 982.226877 
L 1060.721632 982.226877 
L 1061.587833 836.854809 
L 1062.453322 361.131436 
L 1063.319288 197.156708 
L 1069.383304 197.156708 
L 1070.248126 619.217381 
L 1071.117193 982.226877 
L 1074.578095 982.226877 
L 1075.444906 934.159046 
L 1076.310891 514.723135 
L 1077.177962 197.156708 
L 1083.238947 197.156708 
L 1084.97133 937.437521 
L 1085.837728 982.226877 
L 1088.436534 982.226877 
L 1089.303275 835.112541 
L 1090.169514 424.792317 
L 1091.034336 197.156708 
L 1096.230416 197.156708 
L 1097.096871 255.909964 
L 1097.96487 675.112778 
L 1098.82994 982.226877 
L 1101.430716 982.226877 
L 1102.294617 923.868668 
L 1104.026351 197.156708 
L 1110.089662 197.156708 
L 1111.823602 898.991244 
L 1112.687712 982.226877 
L 1114.418519 982.226877 
L 1115.285578 883.953683 
L 1117.01857 197.156708 
L 1122.214797 197.156708 
L 1123.081951 216.39757 
L 1123.945725 591.827835 
L 1124.81265 890.940297 
L 1125.679937 982.226877 
L 1127.412835 982.226877 
L 1128.278121 757.339734 
L 1129.143839 419.696044 
L 1130.010732 197.156708 
L 1135.207804 197.156708 
L 1136.073236 356.157206 
L 1136.938871 688.498367 
L 1137.803566 928.85765 
L 1138.672569 982.226877 
L 1139.53694 982.226877 
L 1140.403205 844.629505 
L 1141.270238 564.971617 
L 1142.135435 221.754511 
L 1143.001642 197.156708 
L 1148.198352 197.156708 
L 1149.063587 522.812705 
L 1149.930391 793.096355 
L 1150.798651 956.542214 
L 1151.661859 982.226877 
L 1152.528232 876.698663 
L 1153.394502 649.448869 
L 1154.262552 343.614471 
L 1155.126091 197.156708 
L 1160.324859 197.156708 
L 1161.191651 394.744376 
L 1162.055488 674.405517 
L 1162.924586 866.407769 
L 1163.788538 939.76561 
L 1164.65735 882.753397 
L 1165.520552 706.301895 
L 1167.255375 197.156708 
L 1172.448056 197.156708 
L 1173.315337 282.541822 
L 1174.18204 560.669579 
L 1175.047561 770.847613 
L 1175.91434 879.642329 
L 1176.780573 867.808353 
L 1177.645249 739.383626 
L 1178.510668 517.020051 
L 1179.380268 241.352643 
L 1180.243585 197.156708 
L 1185.440504 197.156708 
L 1186.3068 454.599411 
L 1187.172766 674.558029 
L 1188.039246 809.154384 
L 1188.905307 835.75479 
L 1189.770867 751.274905 
L 1190.636362 571.060195 
L 1191.50412 327.834402 
L 1192.369272 197.156708 
L 1197.570277 197.156708 
L 1198.432628 359.260091 
L 1199.299241 580.840142 
L 1200.163752 732.612985 
L 1201.031891 790.484237 
L 1201.896237 744.865304 
L 1202.763028 604.921954 
L 1204.499655 197.156708 
L 1209.69268 197.156708 
L 1210.560336 276.909628 
L 1211.424275 492.38021 
L 1212.292051 653.919921 
L 1213.159504 735.692204 
L 1214.02134 723.329487 
L 1214.889186 620.688774 
L 1215.755127 446.467657 
L 1216.620165 233.209951 
L 1217.487973 197.156708 
L 1221.818361 197.156708 
L 1222.68589 208.810503 
L 1223.548628 411.815751 
L 1224.419048 576.800032 
L 1225.282135 674.679511 
L 1226.148679 689.716872 
L 1227.01394 620.491789 
L 1227.87941 479.930479 
L 1228.747257 294.234493 
L 1229.614468 197.156708 
L 1234.809322 197.156708 
L 1237.409386 610.588569 
L 1238.273185 647.013863 
L 1239.141756 606.708222 
L 1240.012843 497.751419 
L 1241.736915 197.156708 
L 1246.935239 197.156708 
L 1247.80102 281.830449 
L 1248.665791 435.182513 
L 1249.533631 546.526437 
L 1250.401389 598.091152 
L 1251.265951 581.771175 
L 1252.131281 501.545025 
L 1252.999032 372.458661 
L 1253.863117 219.142644 
L 1254.729286 197.156708 
L 1259.059732 197.156708 
L 1259.927019 234.55419 
L 1260.79308 374.653555 
L 1261.658938 484.974838 
L 1262.524859 545.507581 
L 1263.393729 548.033082 
L 1264.256333 493.010774 
L 1265.123481 390.842188 
L 1265.99 261.044398 
L 1266.855737 197.156708 
L 1271.186036 197.156708 
L 1272.051684 199.59159 
L 1272.918304 322.96108 
L 1273.783673 427.150035 
L 1274.650782 491.685824 
L 1275.515985 507.840723 
L 1276.382739 474.014277 
L 1277.247612 396.717871 
L 1278.980713 197.156708 
L 1284.180059 197.156708 
L 1286.776438 439.133413 
L 1287.641724 463.406435 
L 1288.508077 446.447885 
L 1289.374475 391.359843 
L 1290.24093 308.69943 
L 1291.108014 214.547358 
L 1291.972087 197.156708 
L 1296.302621 197.156708 
L 1297.168301 249.420896 
L 1298.034648 329.24206 
L 1298.902399 388.976434 
L 1299.768193 417.017829 
L 1300.633053 412.190079 
L 1301.499013 376.121592 
L 1302.366084 315.452973 
L 1303.23428 242.020251 
L 1304.096967 197.156708 
L 1308.429255 197.156708 
L 1309.295265 228.253663 
L 1310.161854 291.579322 
L 1311.026314 342.572338 
L 1311.893862 370.945827 
L 1312.758843 373.275059 
L 1313.62592 352.690064 
L 1314.49153 312.142056 
L 1316.223773 205.126329 
L 1317.089942 197.156708 
L 1320.554168 197.156708 
L 1321.421239 216.688448 
L 1322.286067 261.896467 
L 1323.152389 300.917244 
L 1324.02354 325.825952 
L 1324.883603 332.079257 
L 1325.750318 322.497577 
L 1326.617701 299.622783 
L 1329.215884 199.567135 
L 1330.082047 197.156708 
L 1332.679315 197.156708 
L 1333.545643 215.959431 
L 1335.278528 266.191603 
L 1336.146711 283.305155 
L 1337.011012 290.036952 
L 1337.876609 287.573563 
L 1338.743179 277.844903 
L 1339.609539 263.30021 
L 1341.34743 230.863541 
L 1342.206324 219.019872 
L 1343.07269 213.56286 
L 1343.941153 213.751599 
L 1344.805473 217.416454 
L 1345.670263 223.812307 
L 1347.403256 239.607507 
L 1348.269432 245.902324 
L 1349.136687 249.372124 
L 1350.001478 249.941443 
L 1353.467196 249.727462 
L 1370.78885 248.591287 
L 1388.976559 247.561236 
L 1412.362928 246.448982 
L 1438.346209 245.443125 
L 1466.929478 244.561961 
L 1499.8394 243.776786 
L 1551.807729 242.904961 
L 1599.442328 242.376542 
L 1658.338479 241.958234 
L 1734.556062 241.650844 
L 1837.622797 241.450375 
L 1838.489525 383.597129 
L 1839.355383 618.62616 
L 1840.223096 792.806079 
L 1841.088388 758.267786 
L 1841.952867 837.830002 
L 1842.82201 602.547251 
L 1843.691661 232.244941 
L 1844.555752 197.156708 
L 1850.61485 197.156708 
L 1851.479126 247.214192 
L 1852.346026 451.570136 
L 1853.214768 623.61728 
L 1854.078275 725.960317 
L 1854.944413 736.573628 
L 1855.811846 656.265413 
L 1856.679457 502.737077 
L 1857.543822 309.504621 
L 1858.409235 197.156708 
L 1862.739509 197.156708 
L 1863.605551 274.803023 
L 1864.472965 456.734648 
L 1865.338347 605.735215 
L 1866.203937 689.202701 
L 1867.069662 689.303041 
L 1867.937025 608.860985 
L 1868.802864 465.546123 
L 1869.668785 290.7337 
L 1870.534148 197.156708 
L 1874.866207 197.156708 
L 1875.731118 303.454254 
L 1876.599326 465.273366 
L 1877.464403 591.262777 
L 1878.330782 653.939679 
L 1879.194898 641.710609 
L 1880.061925 559.491303 
L 1880.928634 425.236234 
L 1881.793584 268.397983 
L 1882.661233 197.156708 
L 1886.990262 197.156708 
L 1888.723851 474.489243 
L 1889.590878 575.402754 
L 1890.456221 616.651639 
L 1891.321774 591.981446 
L 1892.187588 508.19072 
L 1893.921857 245.663893 
L 1894.786883 197.156708 
L 1898.250498 197.156708 
L 1899.11743 238.715319 
L 1900.848237 481.129413 
L 1901.714323 556.146711 
L 1902.587723 576.143444 
L 1903.447106 539.85656 
L 1904.314737 455.857763 
L 1906.045766 225.009269 
L 1906.910385 197.156708 
L 1910.378511 197.156708 
L 1911.241745 286.34176 
L 1912.108715 394.463374 
L 1912.973778 482.50881 
L 1913.840881 531.195174 
L 1914.706142 531.268265 
L 1915.572381 485.419807 
L 1916.437463 403.805143 
L 1918.171435 209.126932 
L 1919.035844 197.156708 
L 1921.636225 197.156708 
L 1922.502286 238.815137 
L 1924.233335 414.671211 
L 1925.099434 475.290941 
L 1925.966105 498.325109 
L 1926.831423 481.532555 
L 1927.698526 429.818136 
L 1930.301754 201.455086 
L 1931.162332 197.156708 
L 1932.894244 197.156708 
L 1933.763266 221.607102 
L 1936.361195 422.868706 
L 1937.226018 455.938919 
L 1938.09211 456.860167 
L 1938.959671 428.169738 
L 1939.825688 376.299987 
L 1941.556221 251.415314 
L 1942.421666 206.026119 
L 1943.288782 197.156708 
L 1944.15593 197.156708 
L 1945.020803 226.39049 
L 1946.757754 331.342428 
L 1947.618331 380.96877 
L 1948.483509 413.661369 
L 1949.352252 422.652478 
L 1950.219476 409.001248 
L 1951.084882 376.381472 
L 1953.681172 247.627621 
L 1954.550709 226.306129 
L 1955.413688 225.208399 
L 1956.281128 241.816452 
L 1957.146001 272.307996 
L 1958.878631 346.275523 
L 1959.744515 373.391588 
L 1960.610824 385.306289 
L 1961.475271 381.744421 
L 1962.343181 365.211544 
L 1963.209553 339.36855 
L 1964.941644 283.407087 
L 1965.806911 265.664618 
L 1966.672845 260.322443 
L 1967.53862 265.587671 
L 1968.407991 279.490923 
L 1971.003735 336.970733 
L 1971.869129 347.151327 
L 1972.735978 348.77287 
L 1973.601708 344.420385 
L 1974.467725 335.333788 
L 1976.199377 311.608849 
L 1977.067579 302.217401 
L 1977.933246 297.425155 
L 1978.801779 296.980461 
L 1979.667135 298.348436 
L 1980.531277 301.1117 
L 1982.263876 308.199971 
L 1983.129905 310.956607 
L 1983.995369 312.318944 
L 1984.861602 312.494256 
L 1996.985898 312.642882 
L 2048.088173 313.088195 
L 2113.047253 313.419018 
L 2204.852874 313.647011 
L 2357.288936 313.774305 
L 2640.509664 313.811702 
L 2641.373876 197.156708 
L 2646.570852 197.156708 
L 2647.438184 410.581392 
L 2648.30368 758.795716 
L 2649.170167 982.226877 
L 2653.499545 982.226877 
L 2654.36687 727.777227 
L 2655.230351 235.457664 
L 2656.097131 197.156708 
L 2661.300925 197.156708 
L 2662.160626 255.316413 
L 2663.025651 728.092359 
L 2663.892443 982.226877 
L 2667.356852 982.226877 
L 2668.228079 843.920187 
L 2669.088746 402.597998 
L 2669.956281 197.156708 
L 2675.152451 197.156708 
L 2676.018416 197.431809 
L 2676.885443 649.621331 
L 2677.749999 982.226877 
L 2681.216924 982.226877 
L 2682.080514 747.704614 
L 2682.947223 320.311638 
L 2683.815203 197.156708 
L 2689.011512 197.156708 
L 2689.876252 357.052504 
L 2690.742789 761.429605 
L 2691.60873 982.226877 
L 2694.207167 982.226877 
L 2695.073425 853.607925 
L 2695.939124 479.291339 
L 2696.805408 197.156708 
L 2702.00288 197.156708 
L 2702.86748 256.731496 
L 2703.735129 651.448392 
L 2704.599919 958.509217 
L 2705.466095 982.226877 
L 2707.201629 982.226877 
L 2708.064386 819.119127 
L 2708.929977 466.955301 
L 2709.797366 197.156708 
L 2714.994984 197.156708 
L 2715.85886 302.721097 
L 2716.726134 667.296997 
L 2717.591039 942.403929 
L 2718.459235 982.226877 
L 2719.327755 982.226877 
L 2720.190353 955.207573 
L 2721.055106 690.287934 
L 2721.922711 338.372282 
L 2722.787685 197.156708 
L 2727.986968 197.156708 
L 2728.851193 434.266795 
L 2729.716708 751.009887 
L 2730.587121 965.920152 
L 2731.448093 982.226877 
L 2732.317261 982.226877 
L 2733.182115 792.520491 
L 2734.915775 197.156708 
L 2740.112198 197.156708 
L 2740.978812 264.664551 
L 2741.846195 589.234424 
L 2742.708444 839.461622 
L 2743.575007 975.36569 
L 2744.441627 973.700615 
L 2745.307695 837.041056 
L 2746.173819 588.450646 
L 2747.038997 272.433916 
L 2747.90408 197.156708 
L 2750.504214 197.156708 
L 2750.504214 197.156708 
" style="fill:none;stroke:#ff0000;stroke-linecap:square;stroke-width:3;"/>
   </g>
   <g id="patch_3">
    <path d="M 94.09774 1021.480385 
L 94.09774 157.9032 
" style="fill:none;stroke:#000000;stroke-linecap:square;stroke-linejoin:miter;stroke-width:0.8;"/>
   </g>
   <g id="patch_4">
    <path d="M 2876.99976 1021.480385 
L 2876.99976 157.9032 
" style="fill:none;stroke:#000000;stroke-linecap:square;stroke-linejoin:miter;stroke-width:0.8;"/>
   </g>
   <g id="patch_5">
    <path d="M 94.09774 1021.480385 
L 2876.99976 1021.480385 
" style="fill:none;stroke:#000000;stroke-linecap:square;stroke-linejoin:miter;stroke-width:0.8;"/>
   </g>
   <g id="patch_6">
    <path d="M 94.09774 157.9032 
L 2876.99976 157.9032 
" style="fill:none;stroke:#000000;stroke-linecap:square;stroke-linejoin:miter;stroke-width:0.8;"/>
   </g>
   <g id="text_16">
    <!-- Biceps (red) and Triceps (green) -->
    <defs>
     <path d="M 19.671875 34.8125 
L 19.671875 8.109375 
L 35.5 8.109375 
Q 43.453125 8.109375 47.28125 11.40625 
Q 51.125 14.703125 51.125 21.484375 
Q 51.125 28.328125 47.28125 31.5625 
Q 43.453125 34.8125 35.5 34.8125 
z
M 19.671875 64.796875 
L 19.671875 42.828125 
L 34.28125 42.828125 
Q 41.5 42.828125 45.03125 45.53125 
Q 48.578125 48.25 48.578125 53.8125 
Q 48.578125 59.328125 45.03125 62.0625 
Q 41.5 64.796875 34.28125 64.796875 
z
M 9.8125 72.90625 
L 35.015625 72.90625 
Q 46.296875 72.90625 52.390625 68.21875 
Q 58.5 63.53125 58.5 54.890625 
Q 58.5 48.1875 55.375 44.234375 
Q 52.25 40.28125 46.1875 39.3125 
Q 53.46875 37.75 57.5 32.78125 
Q 61.53125 27.828125 61.53125 20.40625 
Q 61.53125 10.640625 54.890625 5.3125 
Q 48.25 0 35.984375 0 
L 9.8125 0 
z
" id="DejaVuSans-66"/>
     <path d="M 48.78125 52.59375 
L 48.78125 44.1875 
Q 44.96875 46.296875 41.140625 47.34375 
Q 37.3125 48.390625 33.40625 48.390625 
Q 24.65625 48.390625 19.8125 42.84375 
Q 14.984375 37.3125 14.984375 27.296875 
Q 14.984375 17.28125 19.8125 11.734375 
Q 24.65625 6.203125 33.40625 6.203125 
Q 37.3125 6.203125 41.140625 7.25 
Q 44.96875 8.296875 48.78125 10.40625 
L 48.78125 2.09375 
Q 45.015625 0.34375 40.984375 -0.53125 
Q 36.96875 -1.421875 32.421875 -1.421875 
Q 20.0625 -1.421875 12.78125 6.34375 
Q 5.515625 14.109375 5.515625 27.296875 
Q 5.515625 40.671875 12.859375 48.328125 
Q 20.21875 56 33.015625 56 
Q 37.15625 56 41.109375 55.140625 
Q 45.0625 54.296875 48.78125 52.59375 
z
" id="DejaVuSans-99"/>
     <path d="M 18.109375 8.203125 
L 18.109375 -20.796875 
L 9.078125 -20.796875 
L 9.078125 54.6875 
L 18.109375 54.6875 
L 18.109375 46.390625 
Q 20.953125 51.265625 25.265625 53.625 
Q 29.59375 56 35.59375 56 
Q 45.5625 56 51.78125 48.09375 
Q 58.015625 40.1875 58.015625 27.296875 
Q 58.015625 14.40625 51.78125 6.484375 
Q 45.5625 -1.421875 35.59375 -1.421875 
Q 29.59375 -1.421875 25.265625 0.953125 
Q 20.953125 3.328125 18.109375 8.203125 
z
M 48.6875 27.296875 
Q 48.6875 37.203125 44.609375 42.84375 
Q 40.53125 48.484375 33.40625 48.484375 
Q 26.265625 48.484375 22.1875 42.84375 
Q 18.109375 37.203125 18.109375 27.296875 
Q 18.109375 17.390625 22.1875 11.75 
Q 26.265625 6.109375 33.40625 6.109375 
Q 40.53125 6.109375 44.609375 11.75 
Q 48.6875 17.390625 48.6875 27.296875 
z
" id="DejaVuSans-112"/>
     <path d="M 31 75.875 
Q 24.46875 64.65625 21.28125 53.65625 
Q 18.109375 42.671875 18.109375 31.390625 
Q 18.109375 20.125 21.3125 9.0625 
Q 24.515625 -2 31 -13.1875 
L 23.1875 -13.1875 
Q 15.875 -1.703125 12.234375 9.375 
Q 8.59375 20.453125 8.59375 31.390625 
Q 8.59375 42.28125 12.203125 53.3125 
Q 15.828125 64.359375 23.1875 75.875 
z
" id="DejaVuSans-40"/>
     <path d="M 41.109375 46.296875 
Q 39.59375 47.171875 37.8125 47.578125 
Q 36.03125 48 33.890625 48 
Q 26.265625 48 22.1875 43.046875 
Q 18.109375 38.09375 18.109375 28.8125 
L 18.109375 0 
L 9.078125 0 
L 9.078125 54.6875 
L 18.109375 54.6875 
L 18.109375 46.1875 
Q 20.953125 51.171875 25.484375 53.578125 
Q 30.03125 56 36.53125 56 
Q 37.453125 56 38.578125 55.875 
Q 39.703125 55.765625 41.0625 55.515625 
z
" id="DejaVuSans-114"/>
     <path d="M 45.40625 46.390625 
L 45.40625 75.984375 
L 54.390625 75.984375 
L 54.390625 0 
L 45.40625 0 
L 45.40625 8.203125 
Q 42.578125 3.328125 38.25 0.953125 
Q 33.9375 -1.421875 27.875 -1.421875 
Q 17.96875 -1.421875 11.734375 6.484375 
Q 5.515625 14.40625 5.515625 27.296875 
Q 5.515625 40.1875 11.734375 48.09375 
Q 17.96875 56 27.875 56 
Q 33.9375 56 38.25 53.625 
Q 42.578125 51.265625 45.40625 46.390625 
z
M 14.796875 27.296875 
Q 14.796875 17.390625 18.875 11.75 
Q 22.953125 6.109375 30.078125 6.109375 
Q 37.203125 6.109375 41.296875 11.75 
Q 45.40625 17.390625 45.40625 27.296875 
Q 45.40625 37.203125 41.296875 42.84375 
Q 37.203125 48.484375 30.078125 48.484375 
Q 22.953125 48.484375 18.875 42.84375 
Q 14.796875 37.203125 14.796875 27.296875 
z
" id="DejaVuSans-100"/>
     <path d="M 8.015625 75.875 
L 15.828125 75.875 
Q 23.140625 64.359375 26.78125 53.3125 
Q 30.421875 42.28125 30.421875 31.390625 
Q 30.421875 20.453125 26.78125 9.375 
Q 23.140625 -1.703125 15.828125 -13.1875 
L 8.015625 -13.1875 
Q 14.5 -2 17.703125 9.0625 
Q 20.90625 20.125 20.90625 31.390625 
Q 20.90625 42.671875 17.703125 53.65625 
Q 14.5 64.65625 8.015625 75.875 
z
" id="DejaVuSans-41"/>
     <path d="M 34.28125 27.484375 
Q 23.390625 27.484375 19.1875 25 
Q 14.984375 22.515625 14.984375 16.5 
Q 14.984375 11.71875 18.140625 8.90625 
Q 21.296875 6.109375 26.703125 6.109375 
Q 34.1875 6.109375 38.703125 11.40625 
Q 43.21875 16.703125 43.21875 25.484375 
L 43.21875 27.484375 
z
M 52.203125 31.203125 
L 52.203125 0 
L 43.21875 0 
L 43.21875 8.296875 
Q 40.140625 3.328125 35.546875 0.953125 
Q 30.953125 -1.421875 24.3125 -1.421875 
Q 15.921875 -1.421875 10.953125 3.296875 
Q 6 8.015625 6 15.921875 
Q 6 25.140625 12.171875 29.828125 
Q 18.359375 34.515625 30.609375 34.515625 
L 43.21875 34.515625 
L 43.21875 35.40625 
Q 43.21875 41.609375 39.140625 45 
Q 35.0625 48.390625 27.6875 48.390625 
Q 23 48.390625 18.546875 47.265625 
Q 14.109375 46.140625 10.015625 43.890625 
L 10.015625 52.203125 
Q 14.9375 54.109375 19.578125 55.046875 
Q 24.21875 56 28.609375 56 
Q 40.484375 56 46.34375 49.84375 
Q 52.203125 43.703125 52.203125 31.203125 
z
" id="DejaVuSans-97"/>
    </defs>
    <g transform="translate(1210.36125 150.832262)scale(0.34 -0.34)">
     <use xlink:href="#DejaVuSans-66"/>
     <use x="68.603516" xlink:href="#DejaVuSans-105"/>
     <use x="96.386719" xlink:href="#DejaVuSans-99"/>
     <use x="151.367188" xlink:href="#DejaVuSans-101"/>
     <use x="212.890625" xlink:href="#DejaVuSans-112"/>
     <use x="276.367188" xlink:href="#DejaVuSans-115"/>
     <use x="328.466797" xlink:href="#DejaVuSans-32"/>
     <use x="360.253906" xlink:href="#DejaVuSans-40"/>
     <use x="399.267578" xlink:href="#DejaVuSans-114"/>
     <use x="440.349609" xlink:href="#DejaVuSans-101"/>
     <use x="501.873047" xlink:href="#DejaVuSans-100"/>
     <use x="565.349609" xlink:href="#DejaVuSans-41"/>
     <use x="604.363281" xlink:href="#DejaVuSans-32"/>
     <use x="636.150391" xlink:href="#DejaVuSans-97"/>
     <use x="697.429688" xlink:href="#DejaVuSans-110"/>
     <use x="760.808594" xlink:href="#DejaVuSans-100"/>
     <use x="824.285156" xlink:href="#DejaVuSans-32"/>
     <use x="856.072266" xlink:href="#DejaVuSans-84"/>
     <use x="916.9375" xlink:href="#DejaVuSans-114"/>
     <use x="958.050781" xlink:href="#DejaVuSans-105"/>
     <use x="985.833984" xlink:href="#DejaVuSans-99"/>
     <use x="1040.814453" xlink:href="#DejaVuSans-101"/>
     <use x="1102.337891" xlink:href="#DejaVuSans-112"/>
     <use x="1165.814453" xlink:href="#DejaVuSans-115"/>
     <use x="1217.914062" xlink:href="#DejaVuSans-32"/>
     <use x="1249.701172" xlink:href="#DejaVuSans-40"/>
     <use x="1288.714844" xlink:href="#DejaVuSans-103"/>
     <use x="1352.191406" xlink:href="#DejaVuSans-114"/>
     <use x="1393.273438" xlink:href="#DejaVuSans-101"/>
     <use x="1454.796875" xlink:href="#DejaVuSans-101"/>
     <use x="1516.320312" xlink:href="#DejaVuSans-110"/>
     <use x="1579.699219" xlink:href="#DejaVuSans-41"/>
    </g>
   </g>
  </g>
  <g id="text_17">
   <!-- Forces - P20000 I0 D0 -->
   <defs>
    <path d="M 9.8125 72.90625 
L 51.703125 72.90625 
L 51.703125 64.59375 
L 19.671875 64.59375 
L 19.671875 43.109375 
L 48.578125 43.109375 
L 48.578125 34.8125 
L 19.671875 34.8125 
L 19.671875 0 
L 9.8125 0 
z
" id="DejaVuSans-70"/>
    <path d="M 30.609375 48.390625 
Q 23.390625 48.390625 19.1875 42.75 
Q 14.984375 37.109375 14.984375 27.296875 
Q 14.984375 17.484375 19.15625 11.84375 
Q 23.34375 6.203125 30.609375 6.203125 
Q 37.796875 6.203125 41.984375 11.859375 
Q 46.1875 17.53125 46.1875 27.296875 
Q 46.1875 37.015625 41.984375 42.703125 
Q 37.796875 48.390625 30.609375 48.390625 
z
M 30.609375 56 
Q 42.328125 56 49.015625 48.375 
Q 55.71875 40.765625 55.71875 27.296875 
Q 55.71875 13.875 49.015625 6.21875 
Q 42.328125 -1.421875 30.609375 -1.421875 
Q 18.84375 -1.421875 12.171875 6.21875 
Q 5.515625 13.875 5.515625 27.296875 
Q 5.515625 40.765625 12.171875 48.375 
Q 18.84375 56 30.609375 56 
z
" id="DejaVuSans-111"/>
    <path d="M 4.890625 31.390625 
L 31.203125 31.390625 
L 31.203125 23.390625 
L 4.890625 23.390625 
z
" id="DejaVuSans-45"/>
    <path d="M 19.671875 64.796875 
L 19.671875 37.40625 
L 32.078125 37.40625 
Q 38.96875 37.40625 42.71875 40.96875 
Q 46.484375 44.53125 46.484375 51.125 
Q 46.484375 57.671875 42.71875 61.234375 
Q 38.96875 64.796875 32.078125 64.796875 
z
M 9.8125 72.90625 
L 32.078125 72.90625 
Q 44.34375 72.90625 50.609375 67.359375 
Q 56.890625 61.8125 56.890625 51.125 
Q 56.890625 40.328125 50.609375 34.8125 
Q 44.34375 29.296875 32.078125 29.296875 
L 19.671875 29.296875 
L 19.671875 0 
L 9.8125 0 
z
" id="DejaVuSans-80"/>
    <path d="M 9.8125 72.90625 
L 19.671875 72.90625 
L 19.671875 0 
L 9.8125 0 
z
" id="DejaVuSans-73"/>
    <path d="M 19.671875 64.796875 
L 19.671875 8.109375 
L 31.59375 8.109375 
Q 46.6875 8.109375 53.6875 14.9375 
Q 60.6875 21.78125 60.6875 36.53125 
Q 60.6875 51.171875 53.6875 57.984375 
Q 46.6875 64.796875 31.59375 64.796875 
z
M 9.8125 72.90625 
L 30.078125 72.90625 
Q 51.265625 72.90625 61.171875 64.09375 
Q 71.09375 55.28125 71.09375 36.53125 
Q 71.09375 17.671875 61.125 8.828125 
Q 51.171875 0 30.078125 0 
L 9.8125 0 
z
" id="DejaVuSans-68"/>
   </defs>
   <g transform="translate(1252.367813 28.834927)scale(0.34 -0.34)">
    <use xlink:href="#DejaVuSans-70"/>
    <use x="57.472656" xlink:href="#DejaVuSans-111"/>
    <use x="118.654297" xlink:href="#DejaVuSans-114"/>
    <use x="159.736328" xlink:href="#DejaVuSans-99"/>
    <use x="214.716797" xlink:href="#DejaVuSans-101"/>
    <use x="276.240234" xlink:href="#DejaVuSans-115"/>
    <use x="328.339844" xlink:href="#DejaVuSans-32"/>
    <use x="360.126953" xlink:href="#DejaVuSans-45"/>
    <use x="396.210938" xlink:href="#DejaVuSans-32"/>
    <use x="427.998047" xlink:href="#DejaVuSans-80"/>
    <use x="488.300781" xlink:href="#DejaVuSans-50"/>
    <use x="551.923828" xlink:href="#DejaVuSans-48"/>
    <use x="615.546875" xlink:href="#DejaVuSans-48"/>
    <use x="679.169922" xlink:href="#DejaVuSans-48"/>
    <use x="742.792969" xlink:href="#DejaVuSans-48"/>
    <use x="806.416016" xlink:href="#DejaVuSans-32"/>
    <use x="838.203125" xlink:href="#DejaVuSans-73"/>
    <use x="867.695312" xlink:href="#DejaVuSans-48"/>
    <use x="931.318359" xlink:href="#DejaVuSans-32"/>
    <use x="963.105469" xlink:href="#DejaVuSans-68"/>
    <use x="1040.107422" xlink:href="#DejaVuSans-48"/>
   </g>
   <!-- Bagfile elbow_left_c from 35s for 95s - Logging Rate 30 - Simulation Rate 800 - 100.00% real time speed -->
   <defs>
    <path d="M 37.109375 75.984375 
L 37.109375 68.5 
L 28.515625 68.5 
Q 23.6875 68.5 21.796875 66.546875 
Q 19.921875 64.59375 19.921875 59.515625 
L 19.921875 54.6875 
L 34.71875 54.6875 
L 34.71875 47.703125 
L 19.921875 47.703125 
L 19.921875 0 
L 10.890625 0 
L 10.890625 47.703125 
L 2.296875 47.703125 
L 2.296875 54.6875 
L 10.890625 54.6875 
L 10.890625 58.5 
Q 10.890625 67.625 15.140625 71.796875 
Q 19.390625 75.984375 28.609375 75.984375 
z
" id="DejaVuSans-102"/>
    <path d="M 9.421875 75.984375 
L 18.40625 75.984375 
L 18.40625 0 
L 9.421875 0 
z
" id="DejaVuSans-108"/>
    <path d="M 48.6875 27.296875 
Q 48.6875 37.203125 44.609375 42.84375 
Q 40.53125 48.484375 33.40625 48.484375 
Q 26.265625 48.484375 22.1875 42.84375 
Q 18.109375 37.203125 18.109375 27.296875 
Q 18.109375 17.390625 22.1875 11.75 
Q 26.265625 6.109375 33.40625 6.109375 
Q 40.53125 6.109375 44.609375 11.75 
Q 48.6875 17.390625 48.6875 27.296875 
z
M 18.109375 46.390625 
Q 20.953125 51.265625 25.265625 53.625 
Q 29.59375 56 35.59375 56 
Q 45.5625 56 51.78125 48.09375 
Q 58.015625 40.1875 58.015625 27.296875 
Q 58.015625 14.40625 51.78125 6.484375 
Q 45.5625 -1.421875 35.59375 -1.421875 
Q 29.59375 -1.421875 25.265625 0.953125 
Q 20.953125 3.328125 18.109375 8.203125 
L 18.109375 0 
L 9.078125 0 
L 9.078125 75.984375 
L 18.109375 75.984375 
z
" id="DejaVuSans-98"/>
    <path d="M 4.203125 54.6875 
L 13.1875 54.6875 
L 24.421875 12.015625 
L 35.59375 54.6875 
L 46.1875 54.6875 
L 57.421875 12.015625 
L 68.609375 54.6875 
L 77.59375 54.6875 
L 63.28125 0 
L 52.6875 0 
L 40.921875 44.828125 
L 29.109375 0 
L 18.5 0 
z
" id="DejaVuSans-119"/>
    <path d="M 50.984375 -16.609375 
L 50.984375 -23.578125 
L -0.984375 -23.578125 
L -0.984375 -16.609375 
z
" id="DejaVuSans-95"/>
    <path d="M 40.578125 39.3125 
Q 47.65625 37.796875 51.625 33 
Q 55.609375 28.21875 55.609375 21.1875 
Q 55.609375 10.40625 48.1875 4.484375 
Q 40.765625 -1.421875 27.09375 -1.421875 
Q 22.515625 -1.421875 17.65625 -0.515625 
Q 12.796875 0.390625 7.625 2.203125 
L 7.625 11.71875 
Q 11.71875 9.328125 16.59375 8.109375 
Q 21.484375 6.890625 26.8125 6.890625 
Q 36.078125 6.890625 40.9375 10.546875 
Q 45.796875 14.203125 45.796875 21.1875 
Q 45.796875 27.640625 41.28125 31.265625 
Q 36.765625 34.90625 28.71875 34.90625 
L 20.21875 34.90625 
L 20.21875 43.015625 
L 29.109375 43.015625 
Q 36.375 43.015625 40.234375 45.921875 
Q 44.09375 48.828125 44.09375 54.296875 
Q 44.09375 59.90625 40.109375 62.90625 
Q 36.140625 65.921875 28.71875 65.921875 
Q 24.65625 65.921875 20.015625 65.03125 
Q 15.375 64.15625 9.8125 62.3125 
L 9.8125 71.09375 
Q 15.4375 72.65625 20.34375 73.4375 
Q 25.25 74.21875 29.59375 74.21875 
Q 40.828125 74.21875 47.359375 69.109375 
Q 53.90625 64.015625 53.90625 55.328125 
Q 53.90625 49.265625 50.4375 45.09375 
Q 46.96875 40.921875 40.578125 39.3125 
z
" id="DejaVuSans-51"/>
    <path d="M 10.796875 72.90625 
L 49.515625 72.90625 
L 49.515625 64.59375 
L 19.828125 64.59375 
L 19.828125 46.734375 
Q 21.96875 47.46875 24.109375 47.828125 
Q 26.265625 48.1875 28.421875 48.1875 
Q 40.625 48.1875 47.75 41.5 
Q 54.890625 34.8125 54.890625 23.390625 
Q 54.890625 11.625 47.5625 5.09375 
Q 40.234375 -1.421875 26.90625 -1.421875 
Q 22.3125 -1.421875 17.546875 -0.640625 
Q 12.796875 0.140625 7.71875 1.703125 
L 7.71875 11.625 
Q 12.109375 9.234375 16.796875 8.0625 
Q 21.484375 6.890625 26.703125 6.890625 
Q 35.15625 6.890625 40.078125 11.328125 
Q 45.015625 15.765625 45.015625 23.390625 
Q 45.015625 31 40.078125 35.4375 
Q 35.15625 39.890625 26.703125 39.890625 
Q 22.75 39.890625 18.8125 39.015625 
Q 14.890625 38.140625 10.796875 36.28125 
z
" id="DejaVuSans-53"/>
    <path d="M 10.984375 1.515625 
L 10.984375 10.5 
Q 14.703125 8.734375 18.5 7.8125 
Q 22.3125 6.890625 25.984375 6.890625 
Q 35.75 6.890625 40.890625 13.453125 
Q 46.046875 20.015625 46.78125 33.40625 
Q 43.953125 29.203125 39.59375 26.953125 
Q 35.25 24.703125 29.984375 24.703125 
Q 19.046875 24.703125 12.671875 31.3125 
Q 6.296875 37.9375 6.296875 49.421875 
Q 6.296875 60.640625 12.9375 67.421875 
Q 19.578125 74.21875 30.609375 74.21875 
Q 43.265625 74.21875 49.921875 64.515625 
Q 56.59375 54.828125 56.59375 36.375 
Q 56.59375 19.140625 48.40625 8.859375 
Q 40.234375 -1.421875 26.421875 -1.421875 
Q 22.703125 -1.421875 18.890625 -0.6875 
Q 15.09375 0.046875 10.984375 1.515625 
z
M 30.609375 32.421875 
Q 37.25 32.421875 41.125 36.953125 
Q 45.015625 41.5 45.015625 49.421875 
Q 45.015625 57.28125 41.125 61.84375 
Q 37.25 66.40625 30.609375 66.40625 
Q 23.96875 66.40625 20.09375 61.84375 
Q 16.21875 57.28125 16.21875 49.421875 
Q 16.21875 41.5 20.09375 36.953125 
Q 23.96875 32.421875 30.609375 32.421875 
z
" id="DejaVuSans-57"/>
    <path d="M 44.390625 34.1875 
Q 47.5625 33.109375 50.5625 29.59375 
Q 53.5625 26.078125 56.59375 19.921875 
L 66.609375 0 
L 56 0 
L 46.6875 18.703125 
Q 43.0625 26.03125 39.671875 28.421875 
Q 36.28125 30.8125 30.421875 30.8125 
L 19.671875 30.8125 
L 19.671875 0 
L 9.8125 0 
L 9.8125 72.90625 
L 32.078125 72.90625 
Q 44.578125 72.90625 50.734375 67.671875 
Q 56.890625 62.453125 56.890625 51.90625 
Q 56.890625 45.015625 53.6875 40.46875 
Q 50.484375 35.9375 44.390625 34.1875 
z
M 19.671875 64.796875 
L 19.671875 38.921875 
L 32.078125 38.921875 
Q 39.203125 38.921875 42.84375 42.21875 
Q 46.484375 45.515625 46.484375 51.90625 
Q 46.484375 58.296875 42.84375 61.546875 
Q 39.203125 64.796875 32.078125 64.796875 
z
" id="DejaVuSans-82"/>
    <path d="M 53.515625 70.515625 
L 53.515625 60.890625 
Q 47.90625 63.578125 42.921875 64.890625 
Q 37.9375 66.21875 33.296875 66.21875 
Q 25.25 66.21875 20.875 63.09375 
Q 16.5 59.96875 16.5 54.203125 
Q 16.5 49.359375 19.40625 46.890625 
Q 22.3125 44.4375 30.421875 42.921875 
L 36.375 41.703125 
Q 47.40625 39.59375 52.65625 34.296875 
Q 57.90625 29 57.90625 20.125 
Q 57.90625 9.515625 50.796875 4.046875 
Q 43.703125 -1.421875 29.984375 -1.421875 
Q 24.8125 -1.421875 18.96875 -0.25 
Q 13.140625 0.921875 6.890625 3.21875 
L 6.890625 13.375 
Q 12.890625 10.015625 18.65625 8.296875 
Q 24.421875 6.59375 29.984375 6.59375 
Q 38.421875 6.59375 43.015625 9.90625 
Q 47.609375 13.234375 47.609375 19.390625 
Q 47.609375 24.75 44.3125 27.78125 
Q 41.015625 30.8125 33.5 32.328125 
L 27.484375 33.5 
Q 16.453125 35.6875 11.515625 40.375 
Q 6.59375 45.0625 6.59375 53.421875 
Q 6.59375 63.09375 13.40625 68.65625 
Q 20.21875 74.21875 32.171875 74.21875 
Q 37.3125 74.21875 42.625 73.28125 
Q 47.953125 72.359375 53.515625 70.515625 
z
" id="DejaVuSans-83"/>
    <path d="M 8.5 21.578125 
L 8.5 54.6875 
L 17.484375 54.6875 
L 17.484375 21.921875 
Q 17.484375 14.15625 20.5 10.265625 
Q 23.53125 6.390625 29.59375 6.390625 
Q 36.859375 6.390625 41.078125 11.03125 
Q 45.3125 15.671875 45.3125 23.6875 
L 45.3125 54.6875 
L 54.296875 54.6875 
L 54.296875 0 
L 45.3125 0 
L 45.3125 8.40625 
Q 42.046875 3.421875 37.71875 1 
Q 33.40625 -1.421875 27.6875 -1.421875 
Q 18.265625 -1.421875 13.375 4.4375 
Q 8.5 10.296875 8.5 21.578125 
z
M 31.109375 56 
z
" id="DejaVuSans-117"/>
    <path d="M 10.6875 12.40625 
L 21 12.40625 
L 21 0 
L 10.6875 0 
z
" id="DejaVuSans-46"/>
    <path d="M 72.703125 32.078125 
Q 68.453125 32.078125 66.03125 28.46875 
Q 63.625 24.859375 63.625 18.40625 
Q 63.625 12.0625 66.03125 8.421875 
Q 68.453125 4.78125 72.703125 4.78125 
Q 76.859375 4.78125 79.265625 8.421875 
Q 81.6875 12.0625 81.6875 18.40625 
Q 81.6875 24.8125 79.265625 28.4375 
Q 76.859375 32.078125 72.703125 32.078125 
z
M 72.703125 38.28125 
Q 80.421875 38.28125 84.953125 32.90625 
Q 89.5 27.546875 89.5 18.40625 
Q 89.5 9.28125 84.9375 3.921875 
Q 80.375 -1.421875 72.703125 -1.421875 
Q 64.890625 -1.421875 60.34375 3.921875 
Q 55.8125 9.28125 55.8125 18.40625 
Q 55.8125 27.59375 60.375 32.9375 
Q 64.9375 38.28125 72.703125 38.28125 
z
M 22.3125 68.015625 
Q 18.109375 68.015625 15.6875 64.375 
Q 13.28125 60.75 13.28125 54.390625 
Q 13.28125 47.953125 15.671875 44.328125 
Q 18.0625 40.71875 22.3125 40.71875 
Q 26.5625 40.71875 28.96875 44.328125 
Q 31.390625 47.953125 31.390625 54.390625 
Q 31.390625 60.6875 28.953125 64.34375 
Q 26.515625 68.015625 22.3125 68.015625 
z
M 66.40625 74.21875 
L 74.21875 74.21875 
L 28.609375 -1.421875 
L 20.796875 -1.421875 
z
M 22.3125 74.21875 
Q 30.03125 74.21875 34.609375 68.875 
Q 39.203125 63.53125 39.203125 54.390625 
Q 39.203125 45.171875 34.640625 39.84375 
Q 30.078125 34.515625 22.3125 34.515625 
Q 14.546875 34.515625 10.03125 39.859375 
Q 5.515625 45.21875 5.515625 54.390625 
Q 5.515625 63.484375 10.046875 68.84375 
Q 14.59375 74.21875 22.3125 74.21875 
z
" id="DejaVuSans-37"/>
   </defs>
   <g transform="translate(547.781562 66.90749)scale(0.34 -0.34)">
    <use xlink:href="#DejaVuSans-66"/>
    <use x="68.603516" xlink:href="#DejaVuSans-97"/>
    <use x="129.882812" xlink:href="#DejaVuSans-103"/>
    <use x="193.359375" xlink:href="#DejaVuSans-102"/>
    <use x="228.564453" xlink:href="#DejaVuSans-105"/>
    <use x="256.347656" xlink:href="#DejaVuSans-108"/>
    <use x="284.130859" xlink:href="#DejaVuSans-101"/>
    <use x="345.654297" xlink:href="#DejaVuSans-32"/>
    <use x="377.441406" xlink:href="#DejaVuSans-101"/>
    <use x="438.964844" xlink:href="#DejaVuSans-108"/>
    <use x="466.748047" xlink:href="#DejaVuSans-98"/>
    <use x="530.224609" xlink:href="#DejaVuSans-111"/>
    <use x="591.40625" xlink:href="#DejaVuSans-119"/>
    <use x="673.193359" xlink:href="#DejaVuSans-95"/>
    <use x="723.193359" xlink:href="#DejaVuSans-108"/>
    <use x="750.976562" xlink:href="#DejaVuSans-101"/>
    <use x="812.5" xlink:href="#DejaVuSans-102"/>
    <use x="847.689453" xlink:href="#DejaVuSans-116"/>
    <use x="886.898438" xlink:href="#DejaVuSans-95"/>
    <use x="936.898438" xlink:href="#DejaVuSans-99"/>
    <use x="991.878906" xlink:href="#DejaVuSans-32"/>
    <use x="1023.666016" xlink:href="#DejaVuSans-102"/>
    <use x="1058.871094" xlink:href="#DejaVuSans-114"/>
    <use x="1099.953125" xlink:href="#DejaVuSans-111"/>
    <use x="1161.134766" xlink:href="#DejaVuSans-109"/>
    <use x="1258.546875" xlink:href="#DejaVuSans-32"/>
    <use x="1290.333984" xlink:href="#DejaVuSans-51"/>
    <use x="1353.957031" xlink:href="#DejaVuSans-53"/>
    <use x="1417.580078" xlink:href="#DejaVuSans-115"/>
    <use x="1469.679688" xlink:href="#DejaVuSans-32"/>
    <use x="1501.466797" xlink:href="#DejaVuSans-102"/>
    <use x="1536.671875" xlink:href="#DejaVuSans-111"/>
    <use x="1597.853516" xlink:href="#DejaVuSans-114"/>
    <use x="1638.966797" xlink:href="#DejaVuSans-32"/>
    <use x="1670.753906" xlink:href="#DejaVuSans-57"/>
    <use x="1734.376953" xlink:href="#DejaVuSans-53"/>
    <use x="1798" xlink:href="#DejaVuSans-115"/>
    <use x="1850.099609" xlink:href="#DejaVuSans-32"/>
    <use x="1881.886719" xlink:href="#DejaVuSans-45"/>
    <use x="1917.970703" xlink:href="#DejaVuSans-32"/>
    <use x="1949.757812" xlink:href="#DejaVuSans-76"/>
    <use x="2005.455078" xlink:href="#DejaVuSans-111"/>
    <use x="2066.636719" xlink:href="#DejaVuSans-103"/>
    <use x="2130.113281" xlink:href="#DejaVuSans-103"/>
    <use x="2193.589844" xlink:href="#DejaVuSans-105"/>
    <use x="2221.373047" xlink:href="#DejaVuSans-110"/>
    <use x="2284.751953" xlink:href="#DejaVuSans-103"/>
    <use x="2348.228516" xlink:href="#DejaVuSans-32"/>
    <use x="2380.015625" xlink:href="#DejaVuSans-82"/>
    <use x="2449.466797" xlink:href="#DejaVuSans-97"/>
    <use x="2510.746094" xlink:href="#DejaVuSans-116"/>
    <use x="2549.955078" xlink:href="#DejaVuSans-101"/>
    <use x="2611.478516" xlink:href="#DejaVuSans-32"/>
    <use x="2643.265625" xlink:href="#DejaVuSans-51"/>
    <use x="2706.888672" xlink:href="#DejaVuSans-48"/>
    <use x="2770.511719" xlink:href="#DejaVuSans-32"/>
    <use x="2802.298828" xlink:href="#DejaVuSans-45"/>
    <use x="2838.382812" xlink:href="#DejaVuSans-32"/>
    <use x="2870.169922" xlink:href="#DejaVuSans-83"/>
    <use x="2933.646484" xlink:href="#DejaVuSans-105"/>
    <use x="2961.429688" xlink:href="#DejaVuSans-109"/>
    <use x="3058.841797" xlink:href="#DejaVuSans-117"/>
    <use x="3122.220703" xlink:href="#DejaVuSans-108"/>
    <use x="3150.003906" xlink:href="#DejaVuSans-97"/>
    <use x="3211.283203" xlink:href="#DejaVuSans-116"/>
    <use x="3250.492188" xlink:href="#DejaVuSans-105"/>
    <use x="3278.275391" xlink:href="#DejaVuSans-111"/>
    <use x="3339.457031" xlink:href="#DejaVuSans-110"/>
    <use x="3402.835938" xlink:href="#DejaVuSans-32"/>
    <use x="3434.623047" xlink:href="#DejaVuSans-82"/>
    <use x="3504.074219" xlink:href="#DejaVuSans-97"/>
    <use x="3565.353516" xlink:href="#DejaVuSans-116"/>
    <use x="3604.5625" xlink:href="#DejaVuSans-101"/>
    <use x="3666.085938" xlink:href="#DejaVuSans-32"/>
    <use x="3697.873047" xlink:href="#DejaVuSans-56"/>
    <use x="3761.496094" xlink:href="#DejaVuSans-48"/>
    <use x="3825.119141" xlink:href="#DejaVuSans-48"/>
    <use x="3888.742188" xlink:href="#DejaVuSans-32"/>
    <use x="3920.529297" xlink:href="#DejaVuSans-45"/>
    <use x="3956.613281" xlink:href="#DejaVuSans-32"/>
    <use x="3988.400391" xlink:href="#DejaVuSans-49"/>
    <use x="4052.023438" xlink:href="#DejaVuSans-48"/>
    <use x="4115.646484" xlink:href="#DejaVuSans-48"/>
    <use x="4179.269531" xlink:href="#DejaVuSans-46"/>
    <use x="4211.056641" xlink:href="#DejaVuSans-48"/>
    <use x="4274.679688" xlink:href="#DejaVuSans-48"/>
    <use x="4338.302734" xlink:href="#DejaVuSans-37"/>
    <use x="4433.322266" xlink:href="#DejaVuSans-32"/>
    <use x="4465.109375" xlink:href="#DejaVuSans-114"/>
    <use x="4506.191406" xlink:href="#DejaVuSans-101"/>
    <use x="4567.714844" xlink:href="#DejaVuSans-97"/>
    <use x="4628.994141" xlink:href="#DejaVuSans-108"/>
    <use x="4656.777344" xlink:href="#DejaVuSans-32"/>
    <use x="4688.564453" xlink:href="#DejaVuSans-116"/>
    <use x="4727.773438" xlink:href="#DejaVuSans-105"/>
    <use x="4755.556641" xlink:href="#DejaVuSans-109"/>
    <use x="4852.96875" xlink:href="#DejaVuSans-101"/>
    <use x="4914.492188" xlink:href="#DejaVuSans-32"/>
    <use x="4946.279297" xlink:href="#DejaVuSans-115"/>
    <use x="4998.378906" xlink:href="#DejaVuSans-112"/>
    <use x="5061.855469" xlink:href="#DejaVuSans-101"/>
    <use x="5123.378906" xlink:href="#DejaVuSans-101"/>
    <use x="5184.902344" xlink:href="#DejaVuSans-100"/>
   </g>
   <!--  -->
   <g transform="translate(1440 105.925677)scale(0.34 -0.34)"/>
  </g>
 </g>
 <defs>
  <clipPath id="p43f239f010">
   <rect height="863.577185" width="2782.90202" x="94.09774" y="157.9032"/>
  </clipPath>
 </defs>
</svg>
