<?xml version="1.0" encoding="utf-8" standalone="no"?>
<!DOCTYPE svg PUBLIC "-//W3C//DTD SVG 1.1//EN"
  "http://www.w3.org/Graphics/SVG/1.1/DTD/svg11.dtd">
<!-- Created with matplotlib (https://matplotlib.org/) -->
<svg height="1080pt" version="1.1" viewBox="0 0 2880 1080" width="2880pt" xmlns="http://www.w3.org/2000/svg" xmlns:xlink="http://www.w3.org/1999/xlink">
 <defs>
  <style type="text/css">
*{stroke-linecap:butt;stroke-linejoin:round;}
  </style>
 </defs>
 <g id="figure_1">
  <g id="patch_1">
   <path d="M 0 1080 
L 2880 1080 
L 2880 0 
L 0 0 
z
" style="fill:#ffffff;"/>
  </g>
  <g id="axes_1">
   <g id="patch_2">
    <path d="M 83.694615 1021.480385 
L 2876.99976 1021.480385 
L 2876.99976 157.9032 
L 83.694615 157.9032 
z
" style="fill:#ffffff;"/>
   </g>
   <g id="matplotlib.axis_1">
    <g id="xtick_1">
     <g id="line2d_1">
      <defs>
       <path d="M 0 0 
L 0 3.5 
" id="m489ba33e47" style="stroke:#000000;stroke-width:0.8;"/>
      </defs>
      <g>
       <use style="stroke:#000000;stroke-width:0.8;" x="344.409013" xlink:href="#m489ba33e47" y="1021.480385"/>
      </g>
     </g>
     <g id="text_1">
      <!-- 40 -->
      <defs>
       <path d="M 37.796875 64.3125 
L 12.890625 25.390625 
L 37.796875 25.390625 
z
M 35.203125 72.90625 
L 47.609375 72.90625 
L 47.609375 25.390625 
L 58.015625 25.390625 
L 58.015625 17.1875 
L 47.609375 17.1875 
L 47.609375 0 
L 37.796875 0 
L 37.796875 17.1875 
L 4.890625 17.1875 
L 4.890625 26.703125 
z
" id="DejaVuSans-52"/>
       <path d="M 31.78125 66.40625 
Q 24.171875 66.40625 20.328125 58.90625 
Q 16.5 51.421875 16.5 36.375 
Q 16.5 21.390625 20.328125 13.890625 
Q 24.171875 6.390625 31.78125 6.390625 
Q 39.453125 6.390625 43.28125 13.890625 
Q 47.125 21.390625 47.125 36.375 
Q 47.125 51.421875 43.28125 58.90625 
Q 39.453125 66.40625 31.78125 66.40625 
z
M 31.78125 74.21875 
Q 44.046875 74.21875 50.515625 64.515625 
Q 56.984375 54.828125 56.984375 36.375 
Q 56.984375 17.96875 50.515625 8.265625 
Q 44.046875 -1.421875 31.78125 -1.421875 
Q 19.53125 -1.421875 13.0625 8.265625 
Q 6.59375 17.96875 6.59375 36.375 
Q 6.59375 54.828125 13.0625 64.515625 
Q 19.53125 74.21875 31.78125 74.21875 
z
" id="DejaVuSans-48"/>
      </defs>
      <g transform="translate(331.684013 1043.67726)scale(0.2 -0.2)">
       <use xlink:href="#DejaVuSans-52"/>
       <use x="63.623047" xlink:href="#DejaVuSans-48"/>
      </g>
     </g>
    </g>
    <g id="xtick_2">
     <g id="line2d_2">
      <g>
       <use style="stroke:#000000;stroke-width:0.8;" x="879.392942" xlink:href="#m489ba33e47" y="1021.480385"/>
      </g>
     </g>
     <g id="text_2">
      <!-- 60 -->
      <defs>
       <path d="M 33.015625 40.375 
Q 26.375 40.375 22.484375 35.828125 
Q 18.609375 31.296875 18.609375 23.390625 
Q 18.609375 15.53125 22.484375 10.953125 
Q 26.375 6.390625 33.015625 6.390625 
Q 39.65625 6.390625 43.53125 10.953125 
Q 47.40625 15.53125 47.40625 23.390625 
Q 47.40625 31.296875 43.53125 35.828125 
Q 39.65625 40.375 33.015625 40.375 
z
M 52.59375 71.296875 
L 52.59375 62.3125 
Q 48.875 64.0625 45.09375 64.984375 
Q 41.3125 65.921875 37.59375 65.921875 
Q 27.828125 65.921875 22.671875 59.328125 
Q 17.53125 52.734375 16.796875 39.40625 
Q 19.671875 43.65625 24.015625 45.921875 
Q 28.375 48.1875 33.59375 48.1875 
Q 44.578125 48.1875 50.953125 41.515625 
Q 57.328125 34.859375 57.328125 23.390625 
Q 57.328125 12.15625 50.6875 5.359375 
Q 44.046875 -1.421875 33.015625 -1.421875 
Q 20.359375 -1.421875 13.671875 8.265625 
Q 6.984375 17.96875 6.984375 36.375 
Q 6.984375 53.65625 15.1875 63.9375 
Q 23.390625 74.21875 37.203125 74.21875 
Q 40.921875 74.21875 44.703125 73.484375 
Q 48.484375 72.75 52.59375 71.296875 
z
" id="DejaVuSans-54"/>
      </defs>
      <g transform="translate(866.667942 1043.67726)scale(0.2 -0.2)">
       <use xlink:href="#DejaVuSans-54"/>
       <use x="63.623047" xlink:href="#DejaVuSans-48"/>
      </g>
     </g>
    </g>
    <g id="xtick_3">
     <g id="line2d_3">
      <g>
       <use style="stroke:#000000;stroke-width:0.8;" x="1414.376872" xlink:href="#m489ba33e47" y="1021.480385"/>
      </g>
     </g>
     <g id="text_3">
      <!-- 80 -->
      <defs>
       <path d="M 31.78125 34.625 
Q 24.75 34.625 20.71875 30.859375 
Q 16.703125 27.09375 16.703125 20.515625 
Q 16.703125 13.921875 20.71875 10.15625 
Q 24.75 6.390625 31.78125 6.390625 
Q 38.8125 6.390625 42.859375 10.171875 
Q 46.921875 13.96875 46.921875 20.515625 
Q 46.921875 27.09375 42.890625 30.859375 
Q 38.875 34.625 31.78125 34.625 
z
M 21.921875 38.8125 
Q 15.578125 40.375 12.03125 44.71875 
Q 8.5 49.078125 8.5 55.328125 
Q 8.5 64.0625 14.71875 69.140625 
Q 20.953125 74.21875 31.78125 74.21875 
Q 42.671875 74.21875 48.875 69.140625 
Q 55.078125 64.0625 55.078125 55.328125 
Q 55.078125 49.078125 51.53125 44.71875 
Q 48 40.375 41.703125 38.8125 
Q 48.828125 37.15625 52.796875 32.3125 
Q 56.78125 27.484375 56.78125 20.515625 
Q 56.78125 9.90625 50.3125 4.234375 
Q 43.84375 -1.421875 31.78125 -1.421875 
Q 19.734375 -1.421875 13.25 4.234375 
Q 6.78125 9.90625 6.78125 20.515625 
Q 6.78125 27.484375 10.78125 32.3125 
Q 14.796875 37.15625 21.921875 38.8125 
z
M 18.3125 54.390625 
Q 18.3125 48.734375 21.84375 45.5625 
Q 25.390625 42.390625 31.78125 42.390625 
Q 38.140625 42.390625 41.71875 45.5625 
Q 45.3125 48.734375 45.3125 54.390625 
Q 45.3125 60.0625 41.71875 63.234375 
Q 38.140625 66.40625 31.78125 66.40625 
Q 25.390625 66.40625 21.84375 63.234375 
Q 18.3125 60.0625 18.3125 54.390625 
z
" id="DejaVuSans-56"/>
      </defs>
      <g transform="translate(1401.651872 1043.67726)scale(0.2 -0.2)">
       <use xlink:href="#DejaVuSans-56"/>
       <use x="63.623047" xlink:href="#DejaVuSans-48"/>
      </g>
     </g>
    </g>
    <g id="xtick_4">
     <g id="line2d_4">
      <g>
       <use style="stroke:#000000;stroke-width:0.8;" x="1949.360801" xlink:href="#m489ba33e47" y="1021.480385"/>
      </g>
     </g>
     <g id="text_4">
      <!-- 100 -->
      <defs>
       <path d="M 12.40625 8.296875 
L 28.515625 8.296875 
L 28.515625 63.921875 
L 10.984375 60.40625 
L 10.984375 69.390625 
L 28.421875 72.90625 
L 38.28125 72.90625 
L 38.28125 8.296875 
L 54.390625 8.296875 
L 54.390625 0 
L 12.40625 0 
z
" id="DejaVuSans-49"/>
      </defs>
      <g transform="translate(1930.273301 1043.67726)scale(0.2 -0.2)">
       <use xlink:href="#DejaVuSans-49"/>
       <use x="63.623047" xlink:href="#DejaVuSans-48"/>
       <use x="127.246094" xlink:href="#DejaVuSans-48"/>
      </g>
     </g>
    </g>
    <g id="xtick_5">
     <g id="line2d_5">
      <g>
       <use style="stroke:#000000;stroke-width:0.8;" x="2484.34473" xlink:href="#m489ba33e47" y="1021.480385"/>
      </g>
     </g>
     <g id="text_5">
      <!-- 120 -->
      <defs>
       <path d="M 19.1875 8.296875 
L 53.609375 8.296875 
L 53.609375 0 
L 7.328125 0 
L 7.328125 8.296875 
Q 12.9375 14.109375 22.625 23.890625 
Q 32.328125 33.6875 34.8125 36.53125 
Q 39.546875 41.84375 41.421875 45.53125 
Q 43.3125 49.21875 43.3125 52.78125 
Q 43.3125 58.59375 39.234375 62.25 
Q 35.15625 65.921875 28.609375 65.921875 
Q 23.96875 65.921875 18.8125 64.3125 
Q 13.671875 62.703125 7.8125 59.421875 
L 7.8125 69.390625 
Q 13.765625 71.78125 18.9375 73 
Q 24.125 74.21875 28.421875 74.21875 
Q 39.75 74.21875 46.484375 68.546875 
Q 53.21875 62.890625 53.21875 53.421875 
Q 53.21875 48.921875 51.53125 44.890625 
Q 49.859375 40.875 45.40625 35.40625 
Q 44.1875 33.984375 37.640625 27.21875 
Q 31.109375 20.453125 19.1875 8.296875 
z
" id="DejaVuSans-50"/>
      </defs>
      <g transform="translate(2465.25723 1043.67726)scale(0.2 -0.2)">
       <use xlink:href="#DejaVuSans-49"/>
       <use x="63.623047" xlink:href="#DejaVuSans-50"/>
       <use x="127.246094" xlink:href="#DejaVuSans-48"/>
      </g>
     </g>
    </g>
    <g id="text_6">
     <!-- Time [s] -->
     <defs>
      <path d="M -0.296875 72.90625 
L 61.375 72.90625 
L 61.375 64.59375 
L 35.5 64.59375 
L 35.5 0 
L 25.59375 0 
L 25.59375 64.59375 
L -0.296875 64.59375 
z
" id="DejaVuSans-84"/>
      <path d="M 9.421875 54.6875 
L 18.40625 54.6875 
L 18.40625 0 
L 9.421875 0 
z
M 9.421875 75.984375 
L 18.40625 75.984375 
L 18.40625 64.59375 
L 9.421875 64.59375 
z
" id="DejaVuSans-105"/>
      <path d="M 52 44.1875 
Q 55.375 50.25 60.0625 53.125 
Q 64.75 56 71.09375 56 
Q 79.640625 56 84.28125 50.015625 
Q 88.921875 44.046875 88.921875 33.015625 
L 88.921875 0 
L 79.890625 0 
L 79.890625 32.71875 
Q 79.890625 40.578125 77.09375 44.375 
Q 74.3125 48.1875 68.609375 48.1875 
Q 61.625 48.1875 57.5625 43.546875 
Q 53.515625 38.921875 53.515625 30.90625 
L 53.515625 0 
L 44.484375 0 
L 44.484375 32.71875 
Q 44.484375 40.625 41.703125 44.40625 
Q 38.921875 48.1875 33.109375 48.1875 
Q 26.21875 48.1875 22.15625 43.53125 
Q 18.109375 38.875 18.109375 30.90625 
L 18.109375 0 
L 9.078125 0 
L 9.078125 54.6875 
L 18.109375 54.6875 
L 18.109375 46.1875 
Q 21.1875 51.21875 25.484375 53.609375 
Q 29.78125 56 35.6875 56 
Q 41.65625 56 45.828125 52.96875 
Q 50 49.953125 52 44.1875 
z
" id="DejaVuSans-109"/>
      <path d="M 56.203125 29.59375 
L 56.203125 25.203125 
L 14.890625 25.203125 
Q 15.484375 15.921875 20.484375 11.0625 
Q 25.484375 6.203125 34.421875 6.203125 
Q 39.59375 6.203125 44.453125 7.46875 
Q 49.3125 8.734375 54.109375 11.28125 
L 54.109375 2.78125 
Q 49.265625 0.734375 44.1875 -0.34375 
Q 39.109375 -1.421875 33.890625 -1.421875 
Q 20.796875 -1.421875 13.15625 6.1875 
Q 5.515625 13.8125 5.515625 26.8125 
Q 5.515625 40.234375 12.765625 48.109375 
Q 20.015625 56 32.328125 56 
Q 43.359375 56 49.78125 48.890625 
Q 56.203125 41.796875 56.203125 29.59375 
z
M 47.21875 32.234375 
Q 47.125 39.59375 43.09375 43.984375 
Q 39.0625 48.390625 32.421875 48.390625 
Q 24.90625 48.390625 20.390625 44.140625 
Q 15.875 39.890625 15.1875 32.171875 
z
" id="DejaVuSans-101"/>
      <path id="DejaVuSans-32"/>
      <path d="M 8.59375 75.984375 
L 29.296875 75.984375 
L 29.296875 69 
L 17.578125 69 
L 17.578125 -6.203125 
L 29.296875 -6.203125 
L 29.296875 -13.1875 
L 8.59375 -13.1875 
z
" id="DejaVuSans-91"/>
      <path d="M 44.28125 53.078125 
L 44.28125 44.578125 
Q 40.484375 46.53125 36.375 47.5 
Q 32.28125 48.484375 27.875 48.484375 
Q 21.1875 48.484375 17.84375 46.4375 
Q 14.5 44.390625 14.5 40.28125 
Q 14.5 37.15625 16.890625 35.375 
Q 19.28125 33.59375 26.515625 31.984375 
L 29.59375 31.296875 
Q 39.15625 29.25 43.1875 25.515625 
Q 47.21875 21.78125 47.21875 15.09375 
Q 47.21875 7.46875 41.1875 3.015625 
Q 35.15625 -1.421875 24.609375 -1.421875 
Q 20.21875 -1.421875 15.453125 -0.5625 
Q 10.6875 0.296875 5.421875 2 
L 5.421875 11.28125 
Q 10.40625 8.6875 15.234375 7.390625 
Q 20.0625 6.109375 24.8125 6.109375 
Q 31.15625 6.109375 34.5625 8.28125 
Q 37.984375 10.453125 37.984375 14.40625 
Q 37.984375 18.0625 35.515625 20.015625 
Q 33.0625 21.96875 24.703125 23.78125 
L 21.578125 24.515625 
Q 13.234375 26.265625 9.515625 29.90625 
Q 5.8125 33.546875 5.8125 39.890625 
Q 5.8125 47.609375 11.28125 51.796875 
Q 16.75 56 26.8125 56 
Q 31.78125 56 36.171875 55.265625 
Q 40.578125 54.546875 44.28125 53.078125 
z
" id="DejaVuSans-115"/>
      <path d="M 30.421875 75.984375 
L 30.421875 -13.1875 
L 9.71875 -13.1875 
L 9.71875 -6.203125 
L 21.390625 -6.203125 
L 21.390625 69 
L 9.71875 69 
L 9.71875 75.984375 
z
" id="DejaVuSans-93"/>
     </defs>
     <g transform="translate(1427.091875 1071.592572)scale(0.26 -0.26)">
      <use xlink:href="#DejaVuSans-84"/>
      <use x="61.037109" xlink:href="#DejaVuSans-105"/>
      <use x="88.820312" xlink:href="#DejaVuSans-109"/>
      <use x="186.232422" xlink:href="#DejaVuSans-101"/>
      <use x="247.755859" xlink:href="#DejaVuSans-32"/>
      <use x="279.542969" xlink:href="#DejaVuSans-91"/>
      <use x="318.556641" xlink:href="#DejaVuSans-115"/>
      <use x="370.65625" xlink:href="#DejaVuSans-93"/>
     </g>
    </g>
   </g>
   <g id="matplotlib.axis_2">
    <g id="ytick_1">
     <g id="line2d_6">
      <defs>
       <path d="M 0 0 
L -3.5 0 
" id="m1733d8e720" style="stroke:#000000;stroke-width:0.8;"/>
      </defs>
      <g>
       <use style="stroke:#000000;stroke-width:0.8;" x="83.694615" xlink:href="#m1733d8e720" y="1008.939687"/>
      </g>
     </g>
     <g id="text_7">
      <!-- 0.08 -->
      <defs>
       <path d="M 10.6875 12.40625 
L 21 12.40625 
L 21 0 
L 10.6875 0 
z
" id="DejaVuSans-46"/>
      </defs>
      <g transform="translate(32.163365 1016.538125)scale(0.2 -0.2)">
       <use xlink:href="#DejaVuSans-48"/>
       <use x="63.623047" xlink:href="#DejaVuSans-46"/>
       <use x="95.410156" xlink:href="#DejaVuSans-48"/>
       <use x="159.033203" xlink:href="#DejaVuSans-56"/>
      </g>
     </g>
    </g>
    <g id="ytick_2">
     <g id="line2d_7">
      <g>
       <use style="stroke:#000000;stroke-width:0.8;" x="83.694615" xlink:href="#m1733d8e720" y="879.546805"/>
      </g>
     </g>
     <g id="text_8">
      <!-- 0.09 -->
      <defs>
       <path d="M 10.984375 1.515625 
L 10.984375 10.5 
Q 14.703125 8.734375 18.5 7.8125 
Q 22.3125 6.890625 25.984375 6.890625 
Q 35.75 6.890625 40.890625 13.453125 
Q 46.046875 20.015625 46.78125 33.40625 
Q 43.953125 29.203125 39.59375 26.953125 
Q 35.25 24.703125 29.984375 24.703125 
Q 19.046875 24.703125 12.671875 31.3125 
Q 6.296875 37.9375 6.296875 49.421875 
Q 6.296875 60.640625 12.9375 67.421875 
Q 19.578125 74.21875 30.609375 74.21875 
Q 43.265625 74.21875 49.921875 64.515625 
Q 56.59375 54.828125 56.59375 36.375 
Q 56.59375 19.140625 48.40625 8.859375 
Q 40.234375 -1.421875 26.421875 -1.421875 
Q 22.703125 -1.421875 18.890625 -0.6875 
Q 15.09375 0.046875 10.984375 1.515625 
z
M 30.609375 32.421875 
Q 37.25 32.421875 41.125 36.953125 
Q 45.015625 41.5 45.015625 49.421875 
Q 45.015625 57.28125 41.125 61.84375 
Q 37.25 66.40625 30.609375 66.40625 
Q 23.96875 66.40625 20.09375 61.84375 
Q 16.21875 57.28125 16.21875 49.421875 
Q 16.21875 41.5 20.09375 36.953125 
Q 23.96875 32.421875 30.609375 32.421875 
z
" id="DejaVuSans-57"/>
      </defs>
      <g transform="translate(32.163365 887.145243)scale(0.2 -0.2)">
       <use xlink:href="#DejaVuSans-48"/>
       <use x="63.623047" xlink:href="#DejaVuSans-46"/>
       <use x="95.410156" xlink:href="#DejaVuSans-48"/>
       <use x="159.033203" xlink:href="#DejaVuSans-57"/>
      </g>
     </g>
    </g>
    <g id="ytick_3">
     <g id="line2d_8">
      <g>
       <use style="stroke:#000000;stroke-width:0.8;" x="83.694615" xlink:href="#m1733d8e720" y="750.153923"/>
      </g>
     </g>
     <g id="text_9">
      <!-- 0.10 -->
      <g transform="translate(32.163365 757.75236)scale(0.2 -0.2)">
       <use xlink:href="#DejaVuSans-48"/>
       <use x="63.623047" xlink:href="#DejaVuSans-46"/>
       <use x="95.410156" xlink:href="#DejaVuSans-49"/>
       <use x="159.033203" xlink:href="#DejaVuSans-48"/>
      </g>
     </g>
    </g>
    <g id="ytick_4">
     <g id="line2d_9">
      <g>
       <use style="stroke:#000000;stroke-width:0.8;" x="83.694615" xlink:href="#m1733d8e720" y="620.761041"/>
      </g>
     </g>
     <g id="text_10">
      <!-- 0.11 -->
      <g transform="translate(32.163365 628.359478)scale(0.2 -0.2)">
       <use xlink:href="#DejaVuSans-48"/>
       <use x="63.623047" xlink:href="#DejaVuSans-46"/>
       <use x="95.410156" xlink:href="#DejaVuSans-49"/>
       <use x="159.033203" xlink:href="#DejaVuSans-49"/>
      </g>
     </g>
    </g>
    <g id="ytick_5">
     <g id="line2d_10">
      <g>
       <use style="stroke:#000000;stroke-width:0.8;" x="83.694615" xlink:href="#m1733d8e720" y="491.368159"/>
      </g>
     </g>
     <g id="text_11">
      <!-- 0.12 -->
      <g transform="translate(32.163365 498.966596)scale(0.2 -0.2)">
       <use xlink:href="#DejaVuSans-48"/>
       <use x="63.623047" xlink:href="#DejaVuSans-46"/>
       <use x="95.410156" xlink:href="#DejaVuSans-49"/>
       <use x="159.033203" xlink:href="#DejaVuSans-50"/>
      </g>
     </g>
    </g>
    <g id="ytick_6">
     <g id="line2d_11">
      <g>
       <use style="stroke:#000000;stroke-width:0.8;" x="83.694615" xlink:href="#m1733d8e720" y="361.975276"/>
      </g>
     </g>
     <g id="text_12">
      <!-- 0.13 -->
      <defs>
       <path d="M 40.578125 39.3125 
Q 47.65625 37.796875 51.625 33 
Q 55.609375 28.21875 55.609375 21.1875 
Q 55.609375 10.40625 48.1875 4.484375 
Q 40.765625 -1.421875 27.09375 -1.421875 
Q 22.515625 -1.421875 17.65625 -0.515625 
Q 12.796875 0.390625 7.625 2.203125 
L 7.625 11.71875 
Q 11.71875 9.328125 16.59375 8.109375 
Q 21.484375 6.890625 26.8125 6.890625 
Q 36.078125 6.890625 40.9375 10.546875 
Q 45.796875 14.203125 45.796875 21.1875 
Q 45.796875 27.640625 41.28125 31.265625 
Q 36.765625 34.90625 28.71875 34.90625 
L 20.21875 34.90625 
L 20.21875 43.015625 
L 29.109375 43.015625 
Q 36.375 43.015625 40.234375 45.921875 
Q 44.09375 48.828125 44.09375 54.296875 
Q 44.09375 59.90625 40.109375 62.90625 
Q 36.140625 65.921875 28.71875 65.921875 
Q 24.65625 65.921875 20.015625 65.03125 
Q 15.375 64.15625 9.8125 62.3125 
L 9.8125 71.09375 
Q 15.4375 72.65625 20.34375 73.4375 
Q 25.25 74.21875 29.59375 74.21875 
Q 40.828125 74.21875 47.359375 69.109375 
Q 53.90625 64.015625 53.90625 55.328125 
Q 53.90625 49.265625 50.4375 45.09375 
Q 46.96875 40.921875 40.578125 39.3125 
z
" id="DejaVuSans-51"/>
      </defs>
      <g transform="translate(32.163365 369.573714)scale(0.2 -0.2)">
       <use xlink:href="#DejaVuSans-48"/>
       <use x="63.623047" xlink:href="#DejaVuSans-46"/>
       <use x="95.410156" xlink:href="#DejaVuSans-49"/>
       <use x="159.033203" xlink:href="#DejaVuSans-51"/>
      </g>
     </g>
    </g>
    <g id="ytick_7">
     <g id="line2d_12">
      <g>
       <use style="stroke:#000000;stroke-width:0.8;" x="83.694615" xlink:href="#m1733d8e720" y="232.582394"/>
      </g>
     </g>
     <g id="text_13">
      <!-- 0.14 -->
      <g transform="translate(32.163365 240.180832)scale(0.2 -0.2)">
       <use xlink:href="#DejaVuSans-48"/>
       <use x="63.623047" xlink:href="#DejaVuSans-46"/>
       <use x="95.410156" xlink:href="#DejaVuSans-49"/>
       <use x="159.033203" xlink:href="#DejaVuSans-52"/>
      </g>
     </g>
    </g>
    <g id="text_14">
     <!-- Length [m] -->
     <defs>
      <path d="M 9.8125 72.90625 
L 19.671875 72.90625 
L 19.671875 8.296875 
L 55.171875 8.296875 
L 55.171875 0 
L 9.8125 0 
z
" id="DejaVuSans-76"/>
      <path d="M 54.890625 33.015625 
L 54.890625 0 
L 45.90625 0 
L 45.90625 32.71875 
Q 45.90625 40.484375 42.875 44.328125 
Q 39.84375 48.1875 33.796875 48.1875 
Q 26.515625 48.1875 22.3125 43.546875 
Q 18.109375 38.921875 18.109375 30.90625 
L 18.109375 0 
L 9.078125 0 
L 9.078125 54.6875 
L 18.109375 54.6875 
L 18.109375 46.1875 
Q 21.34375 51.125 25.703125 53.5625 
Q 30.078125 56 35.796875 56 
Q 45.21875 56 50.046875 50.171875 
Q 54.890625 44.34375 54.890625 33.015625 
z
" id="DejaVuSans-110"/>
      <path d="M 45.40625 27.984375 
Q 45.40625 37.75 41.375 43.109375 
Q 37.359375 48.484375 30.078125 48.484375 
Q 22.859375 48.484375 18.828125 43.109375 
Q 14.796875 37.75 14.796875 27.984375 
Q 14.796875 18.265625 18.828125 12.890625 
Q 22.859375 7.515625 30.078125 7.515625 
Q 37.359375 7.515625 41.375 12.890625 
Q 45.40625 18.265625 45.40625 27.984375 
z
M 54.390625 6.78125 
Q 54.390625 -7.171875 48.1875 -13.984375 
Q 42 -20.796875 29.203125 -20.796875 
Q 24.46875 -20.796875 20.265625 -20.09375 
Q 16.0625 -19.390625 12.109375 -17.921875 
L 12.109375 -9.1875 
Q 16.0625 -11.328125 19.921875 -12.34375 
Q 23.78125 -13.375 27.78125 -13.375 
Q 36.625 -13.375 41.015625 -8.765625 
Q 45.40625 -4.15625 45.40625 5.171875 
L 45.40625 9.625 
Q 42.625 4.78125 38.28125 2.390625 
Q 33.9375 0 27.875 0 
Q 17.828125 0 11.671875 7.65625 
Q 5.515625 15.328125 5.515625 27.984375 
Q 5.515625 40.671875 11.671875 48.328125 
Q 17.828125 56 27.875 56 
Q 33.9375 56 38.28125 53.609375 
Q 42.625 51.21875 45.40625 46.390625 
L 45.40625 54.6875 
L 54.390625 54.6875 
z
" id="DejaVuSans-103"/>
      <path d="M 18.3125 70.21875 
L 18.3125 54.6875 
L 36.8125 54.6875 
L 36.8125 47.703125 
L 18.3125 47.703125 
L 18.3125 18.015625 
Q 18.3125 11.328125 20.140625 9.421875 
Q 21.96875 7.515625 27.59375 7.515625 
L 36.8125 7.515625 
L 36.8125 0 
L 27.59375 0 
Q 17.1875 0 13.234375 3.875 
Q 9.28125 7.765625 9.28125 18.015625 
L 9.28125 47.703125 
L 2.6875 47.703125 
L 2.6875 54.6875 
L 9.28125 54.6875 
L 9.28125 70.21875 
z
" id="DejaVuSans-116"/>
      <path d="M 54.890625 33.015625 
L 54.890625 0 
L 45.90625 0 
L 45.90625 32.71875 
Q 45.90625 40.484375 42.875 44.328125 
Q 39.84375 48.1875 33.796875 48.1875 
Q 26.515625 48.1875 22.3125 43.546875 
Q 18.109375 38.921875 18.109375 30.90625 
L 18.109375 0 
L 9.078125 0 
L 9.078125 75.984375 
L 18.109375 75.984375 
L 18.109375 46.1875 
Q 21.34375 51.125 25.703125 53.5625 
Q 30.078125 56 35.796875 56 
Q 45.21875 56 50.046875 50.171875 
Q 54.890625 44.34375 54.890625 33.015625 
z
" id="DejaVuSans-104"/>
     </defs>
     <g transform="translate(22.756178 661.697574)rotate(-90)scale(0.26 -0.26)">
      <use xlink:href="#DejaVuSans-76"/>
      <use x="55.697266" xlink:href="#DejaVuSans-101"/>
      <use x="117.220703" xlink:href="#DejaVuSans-110"/>
      <use x="180.599609" xlink:href="#DejaVuSans-103"/>
      <use x="244.076172" xlink:href="#DejaVuSans-116"/>
      <use x="283.285156" xlink:href="#DejaVuSans-104"/>
      <use x="346.664062" xlink:href="#DejaVuSans-32"/>
      <use x="378.451172" xlink:href="#DejaVuSans-91"/>
      <use x="417.464844" xlink:href="#DejaVuSans-109"/>
      <use x="514.876953" xlink:href="#DejaVuSans-93"/>
     </g>
    </g>
   </g>
   <g id="line2d_13">
    <path clip-path="url(#p689ffb4249)" d="M 210.663031 971.089386 
L 217.61816 971.064514 
L 218.487496 947.8914 
L 219.3561 905.17994 
L 220.226119 895.463162 
L 221.965003 803.477842 
L 222.837752 793.391544 
L 223.703486 747.999633 
L 224.572172 713.729412 
L 225.448493 705.786298 
L 226.312364 670.956445 
L 227.180489 627.016108 
L 228.052511 598.131372 
L 228.919603 558.526665 
L 229.789169 543.317779 
L 230.659463 513.907249 
L 231.527384 507.216342 
L 232.396128 486.871854 
L 233.265548 474.628489 
L 234.135165 471.935313 
L 235.005491 470.315127 
L 235.873463 470.09166 
L 237.614471 470.013957 
L 305.422104 470.012029 
L 1026.111185 470.012029 
L 1026.983271 474.609304 
L 1027.851103 495.044895 
L 1028.720101 510.443507 
L 1029.590172 547.557295 
L 1030.459458 605.789127 
L 1031.328367 647.044772 
L 1032.19757 680.999265 
L 1033.07162 726.350204 
L 1033.934962 764.047822 
L 1034.804707 787.303555 
L 1035.677188 801.447934 
L 1036.54729 803.412383 
L 1037.414382 803.936635 
L 1040.891851 803.955723 
L 1833.737368 803.955627 
L 1834.607336 785.821325 
L 1836.347387 719.523462 
L 1837.215914 700.712492 
L 1838.083625 655.464321 
L 1838.956017 634.398337 
L 1839.828918 621.335238 
L 1841.562241 551.156005 
L 1842.432924 525.620675 
L 1844.168958 490.426025 
L 1845.039009 478.683389 
L 1845.908747 471.612549 
L 1846.777989 470.447106 
L 1847.645495 470.075657 
L 1850.25436 470.012415 
L 2184.954665 470.012029 
L 2639.62561 470.012029 
L 2640.493052 497.065838 
L 2642.23186 581.408249 
L 2643.105617 604.173761 
L 2643.970936 653.779351 
L 2644.839813 691.782381 
L 2645.709456 713.730473 
L 2646.580031 766.251453 
L 2647.448762 792.319807 
L 2648.318487 800.385067 
L 2649.186581 803.173298 
L 2650.057085 803.776217 
L 2650.924821 803.940973 
L 2657.880084 803.955627 
L 2750.031344 803.955627 
L 2750.031344 803.955627 
" style="fill:none;stroke:#008000;stroke-dasharray:9.6,2.4,1.5,2.4;stroke-dashoffset:0;stroke-width:1.5;"/>
   </g>
   <g id="line2d_14">
    <path clip-path="url(#p689ffb4249)" d="M 210.663031 971.335238 
L 217.61816 971.327302 
L 218.487496 970.493194 
L 219.3561 965.296446 
L 220.226119 950.578793 
L 221.093741 924.184149 
L 221.965003 884.326637 
L 222.837752 831.747057 
L 225.448493 647.936702 
L 226.312364 600.023493 
L 227.180489 565.622397 
L 228.052511 544.977396 
L 228.919603 536.050155 
L 229.789169 534.862836 
L 230.659463 537.236143 
L 231.527384 538.063963 
L 232.396128 534.086064 
L 233.265548 522.794868 
L 234.135165 504.405755 
L 235.873463 460.183122 
L 236.742851 443.24086 
L 237.614471 433.956589 
L 238.483399 433.700253 
L 239.350785 442.180471 
L 240.221046 457.891216 
L 242.828725 516.586235 
L 243.698719 526.37208 
L 244.567182 526.43274 
L 245.439032 517.074529 
L 246.306991 500.421696 
L 248.044734 460.884404 
L 248.913612 446.263773 
L 249.783127 438.766717 
L 250.654027 439.432795 
L 251.529078 447.855033 
L 252.393255 462.608434 
L 254.132248 499.884408 
L 254.999646 514.748605 
L 255.869793 522.334979 
L 256.737861 521.14978 
L 257.609328 511.728201 
L 258.477057 496.190244 
L 260.215144 461.182155 
L 261.085916 448.989174 
L 261.953423 443.442792 
L 262.823531 445.189467 
L 263.692658 453.724793 
L 264.562677 467.635315 
L 266.301485 500.821293 
L 267.171102 512.95435 
L 268.044349 518.208665 
L 268.909323 515.691732 
L 269.779917 506.148009 
L 272.386633 461.372923 
L 273.255899 451.715216 
L 274.124949 448.218572 
L 274.996129 451.133332 
L 275.863942 459.848006 
L 276.734248 472.90709 
L 278.471015 501.566756 
L 279.342265 510.877682 
L 280.210677 513.792071 
L 281.082221 509.995235 
L 281.951271 500.430797 
L 284.558835 461.792902 
L 285.427809 454.734114 
L 286.297783 453.269177 
L 287.165934 457.295869 
L 288.036093 466.089424 
L 290.641681 501.872532 
L 291.513524 508.289893 
L 292.382172 508.955528 
L 293.250501 504.046069 
L 294.121586 494.684403 
L 295.858499 471.469779 
L 296.728404 462.699818 
L 297.597479 458.259674 
L 298.468353 458.698439 
L 299.336491 463.670433 
L 300.206281 472.332583 
L 301.945426 493.520432 
L 302.813915 501.392888 
L 303.684362 504.932221 
L 304.553176 503.612368 
L 305.422104 497.922022 
L 307.161709 479.200048 
L 308.032264 470.320392 
L 308.900798 464.397576 
L 309.769439 462.478162 
L 310.638304 464.552874 
L 311.508617 470.168371 
L 314.115212 494.934653 
L 314.985384 499.745957 
L 315.852903 500.660068 
L 316.722999 497.809114 
L 317.592897 491.872355 
L 319.331214 476.41594 
L 320.200742 470.315089 
L 321.069901 467.183052 
L 321.943217 467.423085 
L 322.809365 470.72129 
L 323.678976 476.44789 
L 325.418575 489.922978 
L 326.288371 494.688923 
L 327.157414 496.608075 
L 328.025623 495.546627 
L 328.893843 491.893239 
L 331.50246 475.210944 
L 332.371803 471.873587 
L 333.242811 471.116991 
L 334.109673 472.773389 
L 334.980101 476.42348 
L 336.718545 486.213174 
L 337.588622 490.186573 
L 338.455822 492.300925 
L 339.327812 492.251395 
L 340.196588 490.330078 
L 341.064828 486.970604 
L 342.803533 479.071939 
L 343.672494 476.278457 
L 344.543055 475.146291 
L 345.414242 475.641078 
L 346.28178 477.495541 
L 348.889096 486.197368 
L 349.758777 487.987772 
L 350.627202 488.453894 
L 351.496737 487.825114 
L 352.365493 486.308397 
L 354.97448 480.303517 
L 355.845768 479.303253 
L 356.713255 479.184969 
L 357.582452 479.662766 
L 358.45212 480.610788 
L 360.191081 483.019732 
L 361.05964 483.947656 
L 361.931892 484.397764 
L 362.797517 484.432563 
L 363.669437 484.318489 
L 365.40848 483.798587 
L 367.147466 483.282517 
L 368.886434 483.156667 
L 439.300841 482.982962 
L 582.745325 482.84539 
L 929.613859 482.798333 
L 1026.983271 482.853562 
L 1027.851103 483.463299 
L 1028.720101 487.305443 
L 1029.590172 498.241274 
L 1030.459458 520.291208 
L 1031.328367 557.775906 
L 1032.19757 613.019579 
L 1033.07162 683.201027 
L 1035.677188 914.031495 
L 1036.54729 967.192973 
L 1037.414382 982.226877 
L 1038.284319 968.899798 
L 1039.152342 938.248406 
L 1040.0215 890.326419 
L 1042.630187 707.205119 
L 1043.500353 669.695862 
L 1044.36784 652.351454 
L 1045.238504 654.876034 
L 1046.107401 676.887651 
L 1046.976878 718.30581 
L 1049.585176 897.392178 
L 1050.454493 938.939437 
L 1051.322657 962.560461 
L 1052.19281 968.225607 
L 1053.063518 956.41617 
L 1053.931968 927.275588 
L 1054.801407 880.942496 
L 1057.407607 709.266017 
L 1058.277607 676.117713 
L 1059.146797 663.080651 
L 1060.017563 669.77273 
L 1060.885828 695.918649 
L 1061.75417 740.924822 
L 1064.36639 907.561688 
L 1065.232927 940.204427 
L 1066.102181 954.839125 
L 1066.970721 951.736256 
L 1067.84023 931.253095 
L 1068.710281 893.46457 
L 1071.318324 729.840687 
L 1072.195371 692.475185 
L 1073.059 674.846524 
L 1073.9268 677.058496 
L 1074.796181 698.72788 
L 1075.664995 739.21409 
L 1078.272317 897.232062 
L 1079.141954 929.395858 
L 1080.012503 943.602552 
L 1080.883313 940.074376 
L 1081.750475 919.154682 
L 1082.620456 881.043663 
L 1085.22853 727.35309 
L 1086.097127 695.291779 
L 1086.967842 682.974404 
L 1087.837294 690.336858 
L 1088.710616 717.079344 
L 1089.573493 760.641697 
L 1091.314431 864.664763 
L 1092.182734 904.98032 
L 1093.05357 928.406145 
L 1093.921478 933.892439 
L 1094.793232 921.866191 
L 1095.660363 892.496004 
L 1096.530937 848.049663 
L 1098.269145 747.946517 
L 1099.141371 711.46831 
L 1100.006218 693.09274 
L 1100.876448 694.523461 
L 1101.745868 715.353499 
L 1102.613884 753.373332 
L 1104.353119 851.262017 
L 1105.224969 892.134505 
L 1106.09231 917.523782 
L 1106.968617 925.015128 
L 1107.829587 914.945554 
L 1108.699887 887.568652 
L 1109.570359 845.753125 
L 1111.308152 751.591385 
L 1112.177266 717.317425 
L 1113.047694 700.282823 
L 1113.918625 702.912804 
L 1114.78492 724.6481 
L 1115.655009 762.031828 
L 1117.392407 854.145486 
L 1118.262573 890.970046 
L 1119.133103 912.421829 
L 1120.001796 916.042269 
L 1120.872478 902.169555 
L 1121.740999 871.646792 
L 1124.349188 743.55611 
L 1125.216593 715.967175 
L 1126.087039 705.956813 
L 1126.95607 715.16767 
L 1127.826446 741.767472 
L 1128.696587 780.852919 
L 1130.434125 865.900756 
L 1131.302053 895.431568 
L 1132.174304 908.750249 
L 1133.041906 904.37737 
L 1133.911409 882.88102 
L 1134.781684 847.628432 
L 1136.51956 764.176873 
L 1137.391231 732.166571 
L 1138.257711 714.662601 
L 1139.128221 714.959421 
L 1139.997361 732.698548 
L 1140.866149 764.594745 
L 1142.604166 845.424233 
L 1143.474211 878.608321 
L 1144.345716 898.515877 
L 1145.212151 901.443684 
L 1146.081762 887.172447 
L 1146.951271 858.323291 
L 1149.559148 746.862622 
L 1150.429716 725.07554 
L 1151.298491 719.194448 
L 1152.168396 730.047172 
L 1153.037695 755.544996 
L 1155.644634 863.896142 
L 1156.516981 887.377937 
L 1157.384162 895.965667 
L 1158.256222 888.185774 
L 1159.122651 865.619595 
L 1160.863959 795.223175 
L 1161.730541 761.107617 
L 1162.60005 736.530879 
L 1163.469527 725.652331 
L 1164.339489 730.43336 
L 1165.208245 749.794275 
L 1166.076052 780.135553 
L 1167.816518 849.825513 
L 1168.685274 875.548671 
L 1169.555293 888.613343 
L 1170.424764 886.542942 
L 1171.292672 869.964986 
L 1172.161327 842.006064 
L 1173.900721 774.64603 
L 1174.770167 748.412482 
L 1175.640224 733.686462 
L 1176.509625 733.235127 
L 1177.379306 746.866528 
L 1178.24747 772.022782 
L 1179.986603 836.718943 
L 1180.855806 863.622464 
L 1181.725525 879.946893 
L 1182.594824 882.730615 
L 1183.463619 871.660863 
L 1184.33235 848.872342 
L 1186.941872 760.144007 
L 1187.812338 742.769047 
L 1188.680399 737.954663 
L 1189.554143 746.414895 
L 1190.41795 766.488217 
L 1193.027613 852.038776 
L 1193.895355 870.508734 
L 1194.766739 877.239882 
L 1195.634316 871.057194 
L 1196.504348 853.251569 
L 1198.247467 798.006382 
L 1199.112799 771.374257 
L 1199.982384 752.373734 
L 1200.852149 744.111156 
L 1201.720312 748.06969 
L 1202.590421 763.341142 
L 1203.459904 787.062802 
L 1205.197972 841.108726 
L 1206.068993 860.79063 
L 1206.939688 870.540485 
L 1207.804746 868.546663 
L 1208.675836 855.384122 
L 1209.545014 833.573692 
L 1211.284338 781.806613 
L 1212.151781 762.025647 
L 1213.021666 751.253956 
L 1213.891634 751.4373 
L 1214.761252 762.321868 
L 1215.630914 781.851557 
L 1217.367649 831.155809 
L 1218.241323 851.263306 
L 1219.107637 863.053304 
L 1219.97742 864.510419 
L 1220.845915 855.524992 
L 1221.714621 837.848693 
L 1224.323633 771.328773 
L 1225.193499 758.992023 
L 1226.063263 756.138059 
L 1226.936796 763.154067 
L 1227.799851 778.66659 
L 1230.412345 842.180539 
L 1231.280222 855.168021 
L 1232.14725 859.323544 
L 1233.019068 853.963928 
L 1233.893411 840.194902 
L 1236.495363 780.089582 
L 1237.363903 766.935428 
L 1238.238112 761.800857 
L 1239.102921 765.531709 
L 1239.972373 777.321569 
L 1240.841684 794.945713 
L 1242.578706 833.779821 
L 1243.44979 847.271687 
L 1244.320792 853.346969 
L 1245.188585 851.002594 
L 1246.057151 840.80278 
L 1246.928146 824.726805 
L 1248.664868 788.068421 
L 1249.533848 774.721168 
L 1250.403631 768.084773 
L 1251.275825 769.161656 
L 1252.143555 777.621873 
L 1253.011501 791.866448 
L 1254.751329 826.297847 
L 1255.620424 839.685131 
L 1256.489582 846.905209 
L 1257.3617 846.933908 
L 1258.227529 839.877119 
L 1259.097918 827.109015 
L 1260.836649 795.067948 
L 1261.706248 782.127566 
L 1262.576943 774.689857 
L 1263.444335 773.745512 
L 1264.312371 779.337837 
L 1265.183136 790.399612 
L 1267.790484 832.554748 
L 1268.660835 840.295421 
L 1269.529272 842.050294 
L 1270.399266 837.645997 
L 1271.267372 827.950177 
L 1273.875944 788.989082 
L 1274.745727 781.312583 
L 1275.615715 779.000169 
L 1276.486302 782.237769 
L 1277.352743 790.404666 
L 1279.963968 826.088594 
L 1280.831819 833.830224 
L 1281.70034 836.627425 
L 1282.569932 834.343281 
L 1283.439568 827.402604 
L 1285.179588 805.638546 
L 1286.04689 795.121358 
L 1286.917145 787.692075 
L 1287.786992 784.656935 
L 1288.654722 786.088367 
L 1289.525462 791.716601 
L 1290.393613 800.488406 
L 1292.132114 820.452312 
L 1293.00311 827.659623 
L 1293.87214 830.94828 
L 1294.740234 830.202 
L 1295.60943 825.630079 
L 1296.479743 818.094439 
L 1298.217096 800.378345 
L 1299.08695 793.724654 
L 1299.958774 790.419573 
L 1300.826816 790.653603 
L 1301.697575 794.159676 
L 1302.565579 800.353418 
L 1304.304655 815.774927 
L 1305.172346 821.940628 
L 1306.043137 825.299881 
L 1306.911352 825.473834 
L 1307.781671 822.839739 
L 1308.650517 817.78835 
L 1310.389235 804.68723 
L 1311.258642 799.251228 
L 1312.126646 796.079504 
L 1312.997035 795.650237 
L 1313.869529 797.486835 
L 1314.735818 801.354353 
L 1317.343752 816.795733 
L 1318.218159 819.767436 
L 1319.081437 820.447675 
L 1319.951393 819.207451 
L 1320.822018 816.347041 
L 1323.429914 804.121125 
L 1324.299314 801.567528 
L 1325.167835 800.783246 
L 1326.037778 801.56145 
L 1326.906292 803.534159 
L 1328.647714 809.567644 
L 1329.515221 812.489623 
L 1330.38665 814.541353 
L 1331.254182 815.314691 
L 1332.123015 814.976357 
L 1332.992824 813.75523 
L 1334.731848 809.924095 
L 1335.60681 808.003949 
L 1336.468915 806.582585 
L 1337.338519 805.94979 
L 1338.210229 805.990555 
L 1339.07778 806.453134 
L 1339.945803 807.24441 
L 1341.685274 809.173588 
L 1342.554688 809.931968 
L 1343.425185 810.34072 
L 1345.163629 810.398326 
L 1408.626294 809.966284 
L 1488.606334 809.664528 
L 1605.097906 809.466731 
L 1814.611733 809.367564 
L 1833.737368 809.364508 
L 1834.607336 808.432738 
L 1835.47643 803.543552 
L 1836.347387 790.381636 
L 1837.215914 766.477079 
L 1838.083625 729.162676 
L 1838.956017 679.490109 
L 1841.562241 517.182554 
L 1842.432924 477.386502 
L 1843.300686 449.240721 
L 1844.168958 433.935754 
L 1845.039009 431.145229 
L 1845.908747 439.031004 
L 1846.777989 455.118812 
L 1849.387626 517.624734 
L 1850.25436 528.651168 
L 1851.123736 529.4303 
L 1851.994412 520.12245 
L 1852.865267 502.850135 
L 1854.60151 460.75162 
L 1855.471638 444.748772 
L 1856.341026 436.137477 
L 1857.209936 436.169886 
L 1858.079018 444.517985 
L 1858.947972 459.762343 
L 1860.687908 499.254242 
L 1861.556525 515.543427 
L 1862.425351 524.488746 
L 1863.294312 524.138926 
L 1864.164918 514.878238 
L 1865.033993 498.804369 
L 1866.771749 461.266267 
L 1867.643751 447.643087 
L 1868.512291 440.903318 
L 1869.379849 441.93996 
L 1870.25129 450.303793 
L 1871.120002 464.595824 
L 1872.859601 500.109315 
L 1873.727911 513.837894 
L 1874.597528 520.489871 
L 1875.464875 518.813494 
L 1876.335143 509.41928 
L 1877.205092 494.416727 
L 1878.944168 461.428979 
L 1879.812797 450.28638 
L 1880.681739 445.564417 
L 1881.555629 447.750032 
L 1882.419468 456.29976 
L 1883.289379 469.792816 
L 1885.02945 501.020973 
L 1885.899718 511.975566 
L 1886.768296 516.272496 
L 1887.637084 513.260381 
L 1888.506134 503.758535 
L 1891.115146 461.657012 
L 1891.983928 453.086726 
L 1892.853488 450.428126 
L 1893.723941 453.779942 
L 1894.591709 462.488812 
L 1897.199159 501.643495 
L 1898.068483 509.735964 
L 1898.945147 511.706366 
L 1899.807743 507.457071 
L 1900.678617 498.001119 
L 1902.416118 472.594486 
L 1903.283968 462.225331 
L 1904.155244 456.274493 
L 1905.023803 455.617137 
L 1905.89372 460.032731 
L 1906.76506 468.754151 
L 1908.501731 492.096867 
L 1909.370028 501.680286 
L 1910.240373 506.868267 
L 1911.108868 506.670667 
L 1911.978345 501.419771 
L 1912.846662 492.297018 
L 1914.587115 470.962108 
L 1915.454755 463.413256 
L 1916.325846 460.066446 
L 1917.193403 461.218488 
L 1918.064858 466.475896 
L 1918.934156 474.937402 
L 1920.671676 494.212639 
L 1921.541013 500.765476 
L 1922.410924 503.138515 
L 1923.279476 501.120235 
L 1924.149821 495.283097 
L 1926.76278 470.233065 
L 1927.626575 465.528709 
L 1928.501263 464.587894 
L 1929.364962 467.229146 
L 1930.237232 472.952252 
L 1931.97317 488.559365 
L 1932.844873 494.998984 
L 1933.712928 498.516403 
L 1934.582259 498.484936 
L 1935.453062 495.203442 
L 1936.322316 489.412483 
L 1938.059319 475.719058 
L 1938.927999 470.842236 
L 1939.798357 468.826796 
L 1940.668746 469.792114 
L 1941.536852 473.389425 
L 1944.144091 490.360571 
L 1945.012503 493.87167 
L 1945.884493 494.76068 
L 1946.754959 493.165862 
L 1947.6236 489.505966 
L 1949.360852 479.522271 
L 1950.229596 475.407606 
L 1951.102383 473.156362 
L 1951.968588 473.116367 
L 1952.839271 475.003531 
L 1953.707377 478.390861 
L 1955.446484 486.502272 
L 1956.315605 489.431385 
L 1957.185152 490.672192 
L 1958.052831 490.221298 
L 1958.923985 488.352885 
L 1961.532162 479.362455 
L 1962.400663 477.464028 
L 1963.269834 476.929576 
L 1964.138846 477.547041 
L 1965.011467 479.102513 
L 1967.616914 485.40051 
L 1968.485543 486.483295 
L 1969.355632 486.631289 
L 1970.224599 486.129867 
L 1971.093853 485.11475 
L 1972.831979 482.50768 
L 1973.703427 481.492282 
L 1974.57233 480.988776 
L 1975.444109 480.950508 
L 1976.3127 481.107407 
L 1978.049103 481.806347 
L 1979.788415 482.491429 
L 1980.657114 482.634274 
L 1986.741363 482.659147 
L 2160.611605 482.769261 
L 2639.62561 482.79609 
L 2640.493052 484.250164 
L 2641.361917 491.259852 
L 2642.23186 509.049311 
L 2643.105617 540.848966 
L 2643.970936 587.588364 
L 2644.839813 647.396701 
L 2647.448762 854.857848 
L 2648.318487 909.527714 
L 2649.186581 946.734448 
L 2650.057085 965.833057 
L 2650.924821 967.094292 
L 2651.794432 950.962555 
L 2652.66405 917.515641 
L 2653.534617 867.192924 
L 2655.271346 746.423911 
L 2656.141065 699.138067 
L 2657.012832 670.913537 
L 2657.880084 662.769868 
L 2658.75002 674.24167 
L 2659.617469 705.14939 
L 2660.494593 754.152513 
L 2662.225767 871.501044 
L 2663.095799 917.240526 
L 2663.965455 945.550659 
L 2664.834364 955.846216 
L 2665.704065 948.541009 
L 2666.573159 923.874063 
L 2667.447643 881.998275 
L 2670.051508 719.183963 
L 2670.923217 686.3276 
L 2671.797101 673.470985 
L 2672.659053 680.326486 
L 2673.528983 706.617193 
L 2674.397899 750.996942 
L 2676.13737 861.666806 
L 2677.005157 906.530052 
L 2677.875814 934.503385 
L 2678.743812 944.485506 
L 2679.61438 936.861606 
L 2680.485043 911.867355 
L 2681.351861 870.001845 
L 2683.093035 762.770577 
L 2683.960956 718.171152 
L 2684.832895 690.531617 
L 2685.698909 682.82875 
L 2686.569649 694.702127 
L 2687.437946 725.79756 
L 2688.308769 772.283817 
L 2690.046518 875.312098 
L 2690.915696 912.060106 
L 2691.785186 931.367137 
L 2692.653394 932.801889 
L 2693.523847 916.790583 
L 2694.393343 883.544313 
L 2697.00004 738.287091 
L 2697.870716 705.450257 
L 2698.739772 691.598751 
L 2699.610633 697.448686 
L 2700.478516 722.556991 
L 2701.348701 763.657547 
L 2703.087426 861.613636 
L 2703.955449 899.477389 
L 2704.824863 920.88079 
L 2705.693511 924.386384 
L 2706.566885 910.408619 
L 2707.432867 879.320803 
L 2710.041254 742.677946 
L 2710.909615 711.762158 
L 2711.779813 699.087063 
L 2712.650209 706.044344 
L 2713.517683 731.72763 
L 2714.389373 771.760182 
L 2716.126995 863.429819 
L 2716.995133 897.300818 
L 2717.866574 914.850875 
L 2718.738341 914.584418 
L 2719.604164 896.882368 
L 2720.472149 863.193429 
L 2723.082889 736.188817 
L 2723.949203 712.055365 
L 2724.825243 706.260459 
L 2725.690262 719.560656 
L 2726.558049 749.441912 
L 2729.16613 873.58754 
L 2730.039797 899.95181 
L 2730.903987 909.379337 
L 2731.776405 901.19599 
L 2732.644492 876.246086 
L 2733.512598 838.776276 
L 2735.252611 756.164851 
L 2736.121948 726.882149 
L 2736.992719 713.097015 
L 2737.859072 717.318899 
L 2738.730067 738.536725 
L 2739.600481 772.832038 
L 2741.34096 853.577772 
L 2742.206432 884.298107 
L 2743.076235 900.739154 
L 2743.946094 899.854401 
L 2744.815399 882.080578 
L 2745.684762 850.679056 
L 2747.421491 772.465608 
L 2748.292524 740.92127 
L 2749.162403 722.287305 
L 2750.031344 720.073778 
L 2750.031344 720.073778 
" style="fill:none;stroke:#008000;stroke-linecap:square;stroke-width:3;"/>
   </g>
   <g id="line2d_15">
    <path clip-path="url(#p689ffb4249)" d="M 210.663031 207.946421 
L 217.61816 207.970522 
L 218.487496 230.553057 
L 219.3561 272.648585 
L 220.226119 282.310893 
L 221.965003 375.346162 
L 222.837752 385.720327 
L 223.703486 432.833264 
L 224.572172 468.866446 
L 225.448493 477.275391 
L 226.312364 514.405086 
L 227.180489 561.849078 
L 228.052511 593.408384 
L 228.919603 637.167673 
L 229.789169 654.123999 
L 230.659463 687.156955 
L 231.527384 694.717245 
L 232.396128 717.80957 
L 233.265548 731.783023 
L 234.135165 734.864616 
L 235.005491 736.719741 
L 235.873463 736.975697 
L 237.614471 737.064679 
L 297.597479 737.066896 
L 1026.111185 737.066896 
L 1026.983271 731.805004 
L 1027.851103 708.513698 
L 1028.720101 691.068693 
L 1029.590172 649.388768 
L 1030.459458 585.012551 
L 1031.328367 540.139396 
L 1032.19757 503.656098 
L 1033.07162 455.549802 
L 1033.934962 416.096837 
L 1034.804707 391.998813 
L 1035.677188 377.431214 
L 1036.54729 375.41326 
L 1037.414382 374.875126 
L 1040.891851 374.85546 
L 1833.737368 374.85546 
L 1834.607336 393.529149 
L 1836.347387 462.746065 
L 1837.215914 482.658272 
L 1838.083625 531.055326 
L 1838.956017 553.830864 
L 1839.828918 568.032508 
L 1841.562241 645.374552 
L 1842.432924 673.962071 
L 1844.168958 713.763926 
L 1845.039009 727.148825 
L 1845.908747 735.234041 
L 1846.777989 736.568578 
L 1847.645495 736.994014 
L 1849.387626 737.063619 
L 1884.161018 737.066896 
L 2639.62561 737.066896 
L 2640.493052 706.218965 
L 2642.23186 611.816477 
L 2643.105617 586.781875 
L 2643.970936 532.871311 
L 2644.839813 492.153703 
L 2645.709456 468.865289 
L 2646.580031 413.805671 
L 2647.448762 386.824745 
L 2648.318487 378.523485 
L 2649.186581 375.658901 
L 2650.057085 375.039787 
L 2650.924821 374.870692 
L 2657.880084 374.855653 
L 2750.031344 374.855653 
L 2750.031344 374.855653 
" style="fill:none;stroke:#ff0000;stroke-dasharray:9.6,2.4,1.5,2.4;stroke-dashoffset:0;stroke-width:1.5;"/>
   </g>
   <g id="line2d_16">
    <path clip-path="url(#p689ffb4249)" d="M 210.663031 207.707765 
L 217.61816 207.715467 
L 218.487496 208.52504 
L 219.3561 213.574423 
L 220.226119 227.924393 
L 221.093741 253.842386 
L 221.965003 293.423205 
L 222.837752 346.452023 
L 226.312364 591.331421 
L 227.180489 629.284786 
L 228.052511 652.268417 
L 228.919603 662.255679 
L 229.789169 663.586418 
L 230.659463 660.927662 
L 231.527384 660.001075 
L 232.396128 664.458163 
L 233.265548 677.140988 
L 234.135165 697.898559 
L 235.873463 748.344229 
L 236.742851 767.871961 
L 237.614471 778.621185 
L 238.483399 778.918235 
L 239.350785 769.097317 
L 240.221046 750.978375 
L 241.960071 703.790007 
L 242.828725 684.134555 
L 243.698719 673.117758 
L 244.567182 673.049836 
L 245.439032 683.584704 
L 246.306991 702.412669 
L 248.044734 747.538315 
L 248.913612 764.379345 
L 249.783127 773.047637 
L 250.654027 772.276375 
L 251.529078 762.541741 
L 252.393255 745.557089 
L 254.132248 703.020893 
L 254.999646 686.20746 
L 255.869793 677.658486 
L 256.737861 678.992911 
L 257.609328 689.617874 
L 258.477057 707.213482 
L 260.215144 747.196135 
L 261.085916 761.233552 
L 261.953423 767.638248 
L 262.823531 765.619724 
L 263.692658 755.774052 
L 264.562677 739.789496 
L 266.301485 701.958733 
L 267.171102 688.232669 
L 268.044349 682.305858 
L 268.909323 685.143934 
L 269.779917 695.926449 
L 272.386633 746.976889 
L 273.255899 758.089954 
L 274.124949 762.122476 
L 274.996129 758.760391 
L 275.863942 748.728585 
L 276.734248 733.751501 
L 278.471015 701.113845 
L 279.342265 690.578136 
L 280.210677 687.287246 
L 281.082221 691.57563 
L 281.951271 702.402153 
L 284.558835 746.494362 
L 285.427809 754.61207 
L 286.297783 756.299109 
L 287.165934 751.663424 
L 288.036093 741.562229 
L 290.641681 700.767394 
L 291.513524 693.503147 
L 292.382172 692.750709 
L 293.250501 698.30568 
L 294.121586 708.92342 
L 295.858499 735.397323 
L 296.728404 745.452709 
L 297.597479 750.555041 
L 298.468353 750.050358 
L 299.336491 744.337972 
L 300.206281 734.409072 
L 301.945426 710.245294 
L 302.813915 701.311051 
L 303.684362 697.302119 
L 304.553176 698.796723 
L 305.422104 705.24757 
L 306.290746 715.23543 
L 308.032264 736.7134 
L 308.900798 743.503661 
L 309.769439 745.707051 
L 310.638304 743.325219 
L 311.508617 736.887085 
L 314.115212 708.638653 
L 314.985384 703.178258 
L 315.852903 702.141917 
L 316.722999 705.375606 
L 317.592897 712.11915 
L 319.331214 729.739216 
L 320.200742 736.719386 
L 321.069901 740.308393 
L 321.943217 740.033095 
L 322.809365 736.253888 
L 323.678976 729.702266 
L 325.418575 714.33596 
L 326.288371 708.91786 
L 327.157414 706.738606 
L 328.025623 707.94388 
L 328.893843 712.095337 
L 331.50246 731.116678 
L 332.371803 734.934788 
L 333.242811 735.800902 
L 334.109673 733.904753 
L 334.980101 729.730222 
L 336.718545 718.559505 
L 337.588622 714.036141 
L 338.455822 711.631641 
L 339.327812 711.688019 
L 340.196588 713.873075 
L 341.064828 717.697035 
L 342.803533 726.704765 
L 343.672494 729.896204 
L 344.543055 731.190477 
L 345.414242 730.624699 
L 346.28178 728.505187 
L 348.889096 718.577577 
L 349.758777 716.538614 
L 350.627202 716.008017 
L 351.496737 716.723891 
L 352.365493 718.451245 
L 354.97448 725.298618 
L 355.845768 726.440544 
L 356.713255 726.575578 
L 357.582452 726.030001 
L 358.45212 724.947795 
L 360.191081 722.199487 
L 361.05964 721.141448 
L 361.931892 720.628354 
L 362.797517 720.588704 
L 363.669437 720.718752 
L 365.40848 721.311458 
L 367.147466 721.899885 
L 368.886434 722.043387 
L 434.08533 722.230869 
L 562.750373 722.386914 
L 840.070921 722.449157 
L 1026.983271 722.389025 
L 1027.851103 721.693634 
L 1028.720101 717.315171 
L 1029.590172 704.884197 
L 1030.459458 679.958074 
L 1031.328367 638.00147 
L 1032.19757 577.103501 
L 1033.934962 417.32351 
L 1034.804707 334.437965 
L 1035.677188 263.874197 
L 1036.54729 211.730105 
L 1037.414382 197.156708 
L 1038.284319 210.071677 
L 1039.152342 240.002688 
L 1040.0215 287.430903 
L 1042.630187 475.771636 
L 1043.500353 515.756212 
L 1044.36784 534.410178 
L 1045.238504 531.688363 
L 1046.107401 508.051838 
L 1046.976878 464.030863 
L 1049.585176 280.390015 
L 1050.454493 239.32465 
L 1051.322657 216.236013 
L 1052.19281 210.726439 
L 1053.063518 222.22359 
L 1053.931968 250.794403 
L 1054.801407 296.808254 
L 1057.407607 473.588757 
L 1058.277607 508.875987 
L 1059.146797 522.858411 
L 1060.017563 515.67355 
L 1060.885828 487.751491 
L 1061.75417 440.238856 
L 1063.494075 319.795462 
L 1064.36639 270.284937 
L 1065.232927 238.083356 
L 1066.102181 223.76257 
L 1066.970721 226.792774 
L 1067.84023 246.877857 
L 1068.710281 284.301521 
L 1070.449816 397.095064 
L 1071.318324 451.876334 
L 1072.195371 491.415636 
L 1073.059 510.236665 
L 1073.9268 507.869069 
L 1074.796181 484.765481 
L 1075.664995 442.032206 
L 1078.272317 280.549333 
L 1079.141954 248.706212 
L 1080.012503 234.751605 
L 1080.883313 238.210742 
L 1081.750475 258.807349 
L 1082.620456 296.707004 
L 1085.22853 454.493777 
L 1086.097127 488.418428 
L 1086.967842 501.545576 
L 1087.837294 493.692633 
L 1088.710616 465.325933 
L 1089.573493 419.641594 
L 1091.314431 313.144965 
L 1092.182734 272.846601 
L 1093.05357 249.680815 
L 1093.921478 244.281952 
L 1094.793232 256.129439 
L 1095.660363 285.26703 
L 1096.530937 329.910995 
L 1098.269145 432.888776 
L 1099.141371 471.257679 
L 1100.006218 490.758125 
L 1100.876448 489.235529 
L 1101.745868 467.149188 
L 1102.613884 427.219147 
L 1104.353119 326.662507 
L 1105.224969 285.627835 
L 1106.09231 260.419449 
L 1106.968617 253.022674 
L 1107.829587 262.969237 
L 1108.699887 290.18368 
L 1109.570359 332.235732 
L 1111.308152 429.079883 
L 1112.177266 465.07478 
L 1113.047694 483.11401 
L 1113.918625 480.322286 
L 1114.78492 457.342056 
L 1115.655009 418.194377 
L 1117.392407 323.749245 
L 1118.262573 286.78915 
L 1119.133103 265.46766 
L 1120.001796 261.884315 
L 1120.872478 275.638172 
L 1121.740999 306.126554 
L 1124.349188 437.482705 
L 1125.216593 466.501006 
L 1126.087039 477.09425 
L 1126.95607 467.345596 
L 1127.826446 439.355901 
L 1129.565254 353.209761 
L 1130.434125 311.901363 
L 1131.302053 282.342013 
L 1132.174304 269.105925 
L 1133.041906 273.444978 
L 1133.911409 294.86869 
L 1134.781684 330.337282 
L 1136.51956 415.962699 
L 1137.391231 449.430848 
L 1138.257711 467.879553 
L 1139.128221 467.565731 
L 1139.997361 448.871574 
L 1140.866149 415.527926 
L 1142.604166 332.56908 
L 1143.474211 299.145708 
L 1144.345716 279.271509 
L 1145.212151 276.359681 
L 1146.081762 290.579407 
L 1146.951271 319.53291 
L 1149.559148 434.02226 
L 1150.429716 456.891971 
L 1151.298491 463.092978 
L 1152.168396 451.658878 
L 1153.037695 424.953256 
L 1155.644634 313.918461 
L 1156.516981 290.37442 
L 1157.384162 281.809945 
L 1158.256222 289.56752 
L 1159.122651 312.183893 
L 1159.991369 345.67581 
L 1161.730541 419.156649 
L 1162.60005 444.847233 
L 1163.469527 456.284377 
L 1164.339489 451.252774 
L 1165.208245 430.957082 
L 1166.076052 399.406841 
L 1167.816518 328.114829 
L 1168.685274 302.21195 
L 1169.555293 289.140791 
L 1170.424764 291.208295 
L 1171.292672 307.815593 
L 1172.161327 336.032623 
L 1173.900721 405.092116 
L 1174.770167 432.401513 
L 1175.640224 447.833786 
L 1176.509625 448.307866 
L 1177.379306 434.018012 
L 1178.24747 407.812359 
L 1179.986603 341.398187 
L 1180.855806 314.193915 
L 1181.725525 297.805143 
L 1182.594824 295.019274 
L 1183.463619 306.11251 
L 1184.33235 329.078703 
L 1186.941872 420.16005 
L 1187.812338 438.306875 
L 1188.680399 443.353237 
L 1189.554143 434.490464 
L 1190.41795 413.559408 
L 1193.027613 325.877364 
L 1193.895355 307.269609 
L 1194.766739 300.516592 
L 1195.634316 306.718671 
L 1196.504348 324.65184 
L 1198.247467 380.969503 
L 1199.112799 408.485339 
L 1199.982384 428.262834 
L 1200.852149 436.901455 
L 1201.720312 432.759807 
L 1202.590421 416.831935 
L 1203.459904 392.247223 
L 1205.197972 336.942758 
L 1206.068993 317.045957 
L 1206.939688 307.237679 
L 1207.804746 309.240786 
L 1208.675836 322.498427 
L 1209.545014 344.594286 
L 1211.284338 397.678305 
L 1212.151781 418.200943 
L 1213.021666 429.4322 
L 1213.891634 429.240666 
L 1214.761252 417.892567 
L 1215.630914 397.631776 
L 1217.367649 347.053752 
L 1218.241323 326.661088 
L 1219.107637 314.76687 
L 1219.97742 313.300059 
L 1220.845915 322.356249 
L 1221.714621 340.25078 
L 1224.323633 408.532524 
L 1225.193499 421.360007 
L 1226.063263 424.334815 
L 1226.936796 417.026593 
L 1227.799851 400.927179 
L 1230.412345 335.85588 
L 1231.280222 322.716685 
L 1232.14725 318.524526 
L 1233.019068 323.93239 
L 1233.893411 337.869585 
L 1236.495363 399.454468 
L 1237.363903 413.094714 
L 1238.238112 418.434894 
L 1239.102921 414.553724 
L 1239.972373 402.31987 
L 1240.841684 384.119562 
L 1242.578706 344.384822 
L 1243.44979 330.698509 
L 1244.320792 324.555578 
L 1245.188585 326.92455 
L 1246.057151 337.252952 
L 1246.928146 353.602446 
L 1248.664868 391.209243 
L 1249.533848 405.014196 
L 1250.403631 411.900554 
L 1251.275825 410.78208 
L 1252.143555 402.008876 
L 1253.011501 387.291943 
L 1254.751329 352.000922 
L 1255.620424 338.386886 
L 1256.489582 331.069448 
L 1257.3617 331.040372 
L 1258.227529 338.192022 
L 1259.097918 351.174237 
L 1260.836649 383.993702 
L 1261.706248 397.346393 
L 1262.576943 405.046644 
L 1263.444335 406.025652 
L 1264.312371 400.232387 
L 1265.183136 388.804261 
L 1267.790484 345.630555 
L 1268.660835 337.767675 
L 1269.529272 335.98788 
L 1270.399266 340.456628 
L 1271.267372 350.317293 
L 1273.875944 390.259223 
L 1274.745727 398.189228 
L 1275.615715 400.5819 
L 1276.486302 397.232424 
L 1277.352743 388.79905 
L 1279.963968 352.214184 
L 1280.831819 344.333548 
L 1281.70034 341.491061 
L 1282.569932 343.811967 
L 1283.439568 350.875124 
L 1284.309262 361.325144 
L 1286.04689 383.938706 
L 1286.917145 391.597664 
L 1287.786992 394.731985 
L 1288.654722 393.253386 
L 1289.525462 387.446406 
L 1290.393613 378.417306 
L 1292.132114 357.96431 
L 1293.00311 350.613312 
L 1293.87214 347.264877 
L 1294.740234 348.024396 
L 1295.60943 352.681529 
L 1296.479743 360.372945 
L 1298.217096 378.53043 
L 1299.08695 385.377169 
L 1299.958774 388.783683 
L 1300.826816 388.542348 
L 1301.697575 384.929068 
L 1302.565579 378.556057 
L 1304.304655 362.744268 
L 1305.172346 356.444888 
L 1306.043137 353.018169 
L 1306.911352 352.840822 
L 1307.781671 355.527334 
L 1308.650517 360.685769 
L 1310.389235 374.104479 
L 1311.258642 379.689202 
L 1312.126646 382.952292 
L 1312.997035 383.394184 
L 1313.869529 381.504002 
L 1314.735818 377.527363 
L 1317.343752 361.700444 
L 1318.218159 358.663734 
L 1319.081437 357.969027 
L 1319.951393 359.235736 
L 1320.822018 362.159197 
L 1323.429914 374.685609 
L 1324.299314 377.308317 
L 1325.167835 378.114265 
L 1326.037778 377.314563 
L 1326.906292 375.28827 
L 1328.647714 369.099024 
L 1329.515221 366.106008 
L 1330.38665 364.006112 
L 1331.254182 363.214984 
L 1332.123015 363.561074 
L 1332.992824 364.810517 
L 1334.731848 368.733747 
L 1335.60681 370.701907 
L 1336.468915 372.159612 
L 1337.338519 372.808804 
L 1338.210229 372.76698 
L 1339.07778 372.292408 
L 1339.945803 371.480783 
L 1341.685274 369.502877 
L 1342.554688 368.725684 
L 1343.425185 368.306871 
L 1345.163629 368.247852 
L 1407.755752 368.685899 
L 1486.86775 368.994972 
L 1600.753052 369.197882 
L 1802.441188 369.301795 
L 1833.737368 369.307201 
L 1834.607336 370.262286 
L 1835.47643 375.278614 
L 1836.347387 388.822828 
L 1837.215914 413.571203 
L 1838.083625 452.589867 
L 1838.956017 505.269581 
L 1841.562241 683.461775 
L 1842.432924 728.629276 
L 1843.300686 760.94272 
L 1844.168958 778.644813 
L 1845.039009 781.882434 
L 1845.908747 772.74111 
L 1846.777989 754.168545 
L 1849.387626 682.963666 
L 1850.25436 670.557051 
L 1851.123736 669.682367 
L 1851.994412 680.150027 
L 1852.865267 699.660546 
L 1854.60151 747.690933 
L 1855.471638 766.129307 
L 1856.341026 776.093026 
L 1857.209936 776.055253 
L 1858.079018 766.395345 
L 1858.947972 748.826922 
L 1860.687908 703.73558 
L 1861.556525 685.310705 
L 1862.425351 675.235266 
L 1863.294312 675.628979 
L 1864.164918 686.061848 
L 1865.033993 704.246807 
L 1866.771749 747.099547 
L 1867.643751 762.786912 
L 1868.512291 770.574893 
L 1869.379849 769.375633 
L 1870.25129 759.716733 
L 1871.120002 743.275682 
L 1872.859601 702.76589 
L 1873.727911 687.235242 
L 1874.597528 679.735799 
L 1875.464875 681.624449 
L 1876.335143 692.22675 
L 1877.205092 709.22766 
L 1878.944168 746.912539 
L 1879.812797 759.737288 
L 1880.681739 765.18677 
L 1881.555629 762.663072 
L 1882.419468 752.80946 
L 1883.289379 737.317111 
L 1885.02945 701.732411 
L 1885.899718 689.337938 
L 1886.768296 684.488718 
L 1887.637084 687.887581 
L 1888.506134 698.631421 
L 1891.115146 746.650503 
L 1891.983928 756.50948 
L 1892.853488 759.573615 
L 1893.723941 755.710644 
L 1894.591709 745.694571 
L 1897.199159 701.026906 
L 1898.068483 691.868321 
L 1898.945147 689.64222 
L 1899.807743 694.445313 
L 1900.678617 705.157926 
L 1902.416118 734.109963 
L 1903.283968 745.997653 
L 1904.155244 752.838883 
L 1905.023803 753.595328 
L 1905.89372 748.516357 
L 1906.76506 738.507239 
L 1908.501731 711.863361 
L 1909.370028 700.985289 
L 1910.240373 695.111097 
L 1911.108868 695.334804 
L 1911.978345 701.280964 
L 1912.846662 711.63643 
L 1914.587115 735.978556 
L 1915.454755 744.633536 
L 1916.325846 748.477801 
L 1917.193403 747.15387 
L 1918.064858 741.119058 
L 1918.934156 731.429058 
L 1920.671676 709.458804 
L 1921.541013 702.022261 
L 1922.410924 699.333314 
L 1923.279476 701.620373 
L 1924.149821 708.243306 
L 1926.76278 736.813381 
L 1927.626575 742.205751 
L 1928.501263 743.285112 
L 1929.364962 740.255382 
L 1930.237232 733.699967 
L 1931.97317 715.887739 
L 1932.844873 708.56562 
L 1933.712928 704.57291 
L 1934.582259 704.608715 
L 1935.453062 708.333696 
L 1936.322316 714.917214 
L 1938.059319 730.535783 
L 1938.927999 736.115647 
L 1939.798357 738.424262 
L 1940.668746 737.318183 
L 1941.536852 733.199793 
L 1944.144091 713.838154 
L 1945.012503 709.846371 
L 1945.884493 708.836462 
L 1946.754959 710.648603 
L 1947.6236 714.810773 
L 1950.229596 730.891783 
L 1951.102383 733.466658 
L 1951.968588 733.512347 
L 1952.839271 731.353606 
L 1953.707377 727.482354 
L 1955.446484 718.230216 
L 1956.315605 714.895426 
L 1957.185152 713.483797 
L 1958.052831 713.996776 
L 1958.923985 716.123086 
L 1960.663112 723.080492 
L 1961.532162 726.373004 
L 1962.400663 728.541328 
L 1963.269834 729.151979 
L 1964.138846 728.44639 
L 1965.011467 726.669665 
L 1967.616914 719.485496 
L 1968.485543 718.251918 
L 1969.355632 718.083377 
L 1970.224599 718.654587 
L 1971.093853 719.811241 
L 1972.831979 722.783585 
L 1973.703427 723.941945 
L 1974.57233 724.516476 
L 1975.444109 724.56013 
L 1976.3127 724.381062 
L 1978.049103 723.58355 
L 1979.788415 722.802049 
L 1980.657114 722.639127 
L 1986.741363 722.610773 
L 2146.703433 722.489471 
L 2591.812463 722.454788 
L 2639.62561 722.454588 
L 2640.493052 720.79642 
L 2641.361917 712.814758 
L 2642.23186 692.643297 
L 2643.105617 656.883289 
L 2643.970936 605.000897 
L 2645.709456 466.517502 
L 2647.448762 323.029868 
L 2648.318487 268.335276 
L 2649.186581 231.684505 
L 2650.057085 213.051954 
L 2650.924821 211.825785 
L 2651.794432 227.548855 
L 2652.66405 260.427274 
L 2653.534617 310.601479 
L 2655.271346 434.481272 
L 2656.141065 484.330054 
L 2657.012832 514.450462 
L 2657.880084 523.192434 
L 2658.75002 510.884241 
L 2659.617469 477.950071 
L 2660.494593 426.405955 
L 2662.225767 306.273324 
L 2663.095799 260.699637 
L 2663.965455 232.84346 
L 2664.834364 222.77972 
L 2665.704065 229.916634 
L 2666.573159 254.148015 
L 2667.447643 295.751743 
L 2670.051508 463.104268 
L 2670.923217 497.966838 
L 2671.797101 511.709756 
L 2672.659053 504.37438 
L 2673.528983 476.394225 
L 2674.397899 429.700506 
L 2676.13737 316.163395 
L 2677.005157 271.308424 
L 2677.875814 243.681519 
L 2678.743812 233.886544 
L 2679.61438 241.364338 
L 2680.485043 266.016619 
L 2681.351861 307.778499 
L 2683.960956 464.173365 
L 2684.832895 493.485341 
L 2685.698909 501.701097 
L 2686.569649 489.045425 
L 2687.437946 456.131255 
L 2688.308769 407.541529 
L 2690.046518 302.449293 
L 2690.915696 265.826017 
L 2691.785186 246.765784 
L 2692.653394 245.354279 
L 2693.523847 261.14418 
L 2694.393343 294.205308 
L 2696.1318 394.593089 
L 2697.00004 443.004695 
L 2697.870716 477.631368 
L 2698.739772 492.348661 
L 2699.610633 486.124864 
L 2700.478516 459.545893 
L 2701.348701 416.502715 
L 2703.087426 316.216924 
L 2703.955449 278.315084 
L 2704.824863 257.102516 
L 2705.693511 253.642726 
L 2706.566885 267.461883 
L 2707.432867 298.431812 
L 2709.172325 392.870246 
L 2710.041254 438.402385 
L 2710.909615 470.946753 
L 2711.779813 484.384013 
L 2712.650209 477.001379 
L 2713.517683 449.891952 
L 2714.389373 408.084783 
L 2716.126995 314.38794 
L 2716.995133 280.480813 
L 2717.866574 263.063068 
L 2718.738341 263.32663 
L 2719.604164 280.89705 
L 2720.472149 314.625581 
L 2723.082889 445.206295 
L 2723.949203 470.636526 
L 2724.825243 476.772386 
L 2725.690262 462.706395 
L 2726.558049 431.325286 
L 2729.16613 304.179044 
L 2730.039797 277.843162 
L 2730.903987 268.482186 
L 2731.776405 276.605838 
L 2732.644492 301.512477 
L 2733.512598 339.309084 
L 2735.252611 424.306978 
L 2736.121948 454.989466 
L 2736.992719 469.534727 
L 2737.859072 465.073008 
L 2738.730067 442.742594 
L 2739.600481 406.972888 
L 2741.34096 324.322578 
L 2742.206432 293.451924 
L 2743.076235 277.060176 
L 2743.946094 277.939836 
L 2744.815399 295.669431 
L 2745.684762 327.251518 
L 2747.421491 407.353094 
L 2748.292524 440.242821 
L 2749.162403 459.830431 
L 2750.031344 462.16503 
L 2750.031344 462.16503 
" style="fill:none;stroke:#ff0000;stroke-linecap:square;stroke-width:3;"/>
   </g>
   <g id="patch_3">
    <path d="M 83.694615 1021.480385 
L 83.694615 157.9032 
" style="fill:none;stroke:#000000;stroke-linecap:square;stroke-linejoin:miter;stroke-width:0.8;"/>
   </g>
   <g id="patch_4">
    <path d="M 2876.99976 1021.480385 
L 2876.99976 157.9032 
" style="fill:none;stroke:#000000;stroke-linecap:square;stroke-linejoin:miter;stroke-width:0.8;"/>
   </g>
   <g id="patch_5">
    <path d="M 83.694615 1021.480385 
L 2876.99976 1021.480385 
" style="fill:none;stroke:#000000;stroke-linecap:square;stroke-linejoin:miter;stroke-width:0.8;"/>
   </g>
   <g id="patch_6">
    <path d="M 83.694615 157.9032 
L 2876.99976 157.9032 
" style="fill:none;stroke:#000000;stroke-linecap:square;stroke-linejoin:miter;stroke-width:0.8;"/>
   </g>
   <g id="text_15">
    <!-- Biceps (red) and Triceps (green) -->
    <defs>
     <path d="M 19.671875 34.8125 
L 19.671875 8.109375 
L 35.5 8.109375 
Q 43.453125 8.109375 47.28125 11.40625 
Q 51.125 14.703125 51.125 21.484375 
Q 51.125 28.328125 47.28125 31.5625 
Q 43.453125 34.8125 35.5 34.8125 
z
M 19.671875 64.796875 
L 19.671875 42.828125 
L 34.28125 42.828125 
Q 41.5 42.828125 45.03125 45.53125 
Q 48.578125 48.25 48.578125 53.8125 
Q 48.578125 59.328125 45.03125 62.0625 
Q 41.5 64.796875 34.28125 64.796875 
z
M 9.8125 72.90625 
L 35.015625 72.90625 
Q 46.296875 72.90625 52.390625 68.21875 
Q 58.5 63.53125 58.5 54.890625 
Q 58.5 48.1875 55.375 44.234375 
Q 52.25 40.28125 46.1875 39.3125 
Q 53.46875 37.75 57.5 32.78125 
Q 61.53125 27.828125 61.53125 20.40625 
Q 61.53125 10.640625 54.890625 5.3125 
Q 48.25 0 35.984375 0 
L 9.8125 0 
z
" id="DejaVuSans-66"/>
     <path d="M 48.78125 52.59375 
L 48.78125 44.1875 
Q 44.96875 46.296875 41.140625 47.34375 
Q 37.3125 48.390625 33.40625 48.390625 
Q 24.65625 48.390625 19.8125 42.84375 
Q 14.984375 37.3125 14.984375 27.296875 
Q 14.984375 17.28125 19.8125 11.734375 
Q 24.65625 6.203125 33.40625 6.203125 
Q 37.3125 6.203125 41.140625 7.25 
Q 44.96875 8.296875 48.78125 10.40625 
L 48.78125 2.09375 
Q 45.015625 0.34375 40.984375 -0.53125 
Q 36.96875 -1.421875 32.421875 -1.421875 
Q 20.0625 -1.421875 12.78125 6.34375 
Q 5.515625 14.109375 5.515625 27.296875 
Q 5.515625 40.671875 12.859375 48.328125 
Q 20.21875 56 33.015625 56 
Q 37.15625 56 41.109375 55.140625 
Q 45.0625 54.296875 48.78125 52.59375 
z
" id="DejaVuSans-99"/>
     <path d="M 18.109375 8.203125 
L 18.109375 -20.796875 
L 9.078125 -20.796875 
L 9.078125 54.6875 
L 18.109375 54.6875 
L 18.109375 46.390625 
Q 20.953125 51.265625 25.265625 53.625 
Q 29.59375 56 35.59375 56 
Q 45.5625 56 51.78125 48.09375 
Q 58.015625 40.1875 58.015625 27.296875 
Q 58.015625 14.40625 51.78125 6.484375 
Q 45.5625 -1.421875 35.59375 -1.421875 
Q 29.59375 -1.421875 25.265625 0.953125 
Q 20.953125 3.328125 18.109375 8.203125 
z
M 48.6875 27.296875 
Q 48.6875 37.203125 44.609375 42.84375 
Q 40.53125 48.484375 33.40625 48.484375 
Q 26.265625 48.484375 22.1875 42.84375 
Q 18.109375 37.203125 18.109375 27.296875 
Q 18.109375 17.390625 22.1875 11.75 
Q 26.265625 6.109375 33.40625 6.109375 
Q 40.53125 6.109375 44.609375 11.75 
Q 48.6875 17.390625 48.6875 27.296875 
z
" id="DejaVuSans-112"/>
     <path d="M 31 75.875 
Q 24.46875 64.65625 21.28125 53.65625 
Q 18.109375 42.671875 18.109375 31.390625 
Q 18.109375 20.125 21.3125 9.0625 
Q 24.515625 -2 31 -13.1875 
L 23.1875 -13.1875 
Q 15.875 -1.703125 12.234375 9.375 
Q 8.59375 20.453125 8.59375 31.390625 
Q 8.59375 42.28125 12.203125 53.3125 
Q 15.828125 64.359375 23.1875 75.875 
z
" id="DejaVuSans-40"/>
     <path d="M 41.109375 46.296875 
Q 39.59375 47.171875 37.8125 47.578125 
Q 36.03125 48 33.890625 48 
Q 26.265625 48 22.1875 43.046875 
Q 18.109375 38.09375 18.109375 28.8125 
L 18.109375 0 
L 9.078125 0 
L 9.078125 54.6875 
L 18.109375 54.6875 
L 18.109375 46.1875 
Q 20.953125 51.171875 25.484375 53.578125 
Q 30.03125 56 36.53125 56 
Q 37.453125 56 38.578125 55.875 
Q 39.703125 55.765625 41.0625 55.515625 
z
" id="DejaVuSans-114"/>
     <path d="M 45.40625 46.390625 
L 45.40625 75.984375 
L 54.390625 75.984375 
L 54.390625 0 
L 45.40625 0 
L 45.40625 8.203125 
Q 42.578125 3.328125 38.25 0.953125 
Q 33.9375 -1.421875 27.875 -1.421875 
Q 17.96875 -1.421875 11.734375 6.484375 
Q 5.515625 14.40625 5.515625 27.296875 
Q 5.515625 40.1875 11.734375 48.09375 
Q 17.96875 56 27.875 56 
Q 33.9375 56 38.25 53.625 
Q 42.578125 51.265625 45.40625 46.390625 
z
M 14.796875 27.296875 
Q 14.796875 17.390625 18.875 11.75 
Q 22.953125 6.109375 30.078125 6.109375 
Q 37.203125 6.109375 41.296875 11.75 
Q 45.40625 17.390625 45.40625 27.296875 
Q 45.40625 37.203125 41.296875 42.84375 
Q 37.203125 48.484375 30.078125 48.484375 
Q 22.953125 48.484375 18.875 42.84375 
Q 14.796875 37.203125 14.796875 27.296875 
z
" id="DejaVuSans-100"/>
     <path d="M 8.015625 75.875 
L 15.828125 75.875 
Q 23.140625 64.359375 26.78125 53.3125 
Q 30.421875 42.28125 30.421875 31.390625 
Q 30.421875 20.453125 26.78125 9.375 
Q 23.140625 -1.703125 15.828125 -13.1875 
L 8.015625 -13.1875 
Q 14.5 -2 17.703125 9.0625 
Q 20.90625 20.125 20.90625 31.390625 
Q 20.90625 42.671875 17.703125 53.65625 
Q 14.5 64.65625 8.015625 75.875 
z
" id="DejaVuSans-41"/>
     <path d="M 34.28125 27.484375 
Q 23.390625 27.484375 19.1875 25 
Q 14.984375 22.515625 14.984375 16.5 
Q 14.984375 11.71875 18.140625 8.90625 
Q 21.296875 6.109375 26.703125 6.109375 
Q 34.1875 6.109375 38.703125 11.40625 
Q 43.21875 16.703125 43.21875 25.484375 
L 43.21875 27.484375 
z
M 52.203125 31.203125 
L 52.203125 0 
L 43.21875 0 
L 43.21875 8.296875 
Q 40.140625 3.328125 35.546875 0.953125 
Q 30.953125 -1.421875 24.3125 -1.421875 
Q 15.921875 -1.421875 10.953125 3.296875 
Q 6 8.015625 6 15.921875 
Q 6 25.140625 12.171875 29.828125 
Q 18.359375 34.515625 30.609375 34.515625 
L 43.21875 34.515625 
L 43.21875 35.40625 
Q 43.21875 41.609375 39.140625 45 
Q 35.0625 48.390625 27.6875 48.390625 
Q 23 48.390625 18.546875 47.265625 
Q 14.109375 46.140625 10.015625 43.890625 
L 10.015625 52.203125 
Q 14.9375 54.109375 19.578125 55.046875 
Q 24.21875 56 28.609375 56 
Q 40.484375 56 46.34375 49.84375 
Q 52.203125 43.703125 52.203125 31.203125 
z
" id="DejaVuSans-97"/>
    </defs>
    <g transform="translate(1205.159688 150.832262)scale(0.34 -0.34)">
     <use xlink:href="#DejaVuSans-66"/>
     <use x="68.603516" xlink:href="#DejaVuSans-105"/>
     <use x="96.386719" xlink:href="#DejaVuSans-99"/>
     <use x="151.367188" xlink:href="#DejaVuSans-101"/>
     <use x="212.890625" xlink:href="#DejaVuSans-112"/>
     <use x="276.367188" xlink:href="#DejaVuSans-115"/>
     <use x="328.466797" xlink:href="#DejaVuSans-32"/>
     <use x="360.253906" xlink:href="#DejaVuSans-40"/>
     <use x="399.267578" xlink:href="#DejaVuSans-114"/>
     <use x="440.349609" xlink:href="#DejaVuSans-101"/>
     <use x="501.873047" xlink:href="#DejaVuSans-100"/>
     <use x="565.349609" xlink:href="#DejaVuSans-41"/>
     <use x="604.363281" xlink:href="#DejaVuSans-32"/>
     <use x="636.150391" xlink:href="#DejaVuSans-97"/>
     <use x="697.429688" xlink:href="#DejaVuSans-110"/>
     <use x="760.808594" xlink:href="#DejaVuSans-100"/>
     <use x="824.285156" xlink:href="#DejaVuSans-32"/>
     <use x="856.072266" xlink:href="#DejaVuSans-84"/>
     <use x="916.9375" xlink:href="#DejaVuSans-114"/>
     <use x="958.050781" xlink:href="#DejaVuSans-105"/>
     <use x="985.833984" xlink:href="#DejaVuSans-99"/>
     <use x="1040.814453" xlink:href="#DejaVuSans-101"/>
     <use x="1102.337891" xlink:href="#DejaVuSans-112"/>
     <use x="1165.814453" xlink:href="#DejaVuSans-115"/>
     <use x="1217.914062" xlink:href="#DejaVuSans-32"/>
     <use x="1249.701172" xlink:href="#DejaVuSans-40"/>
     <use x="1288.714844" xlink:href="#DejaVuSans-103"/>
     <use x="1352.191406" xlink:href="#DejaVuSans-114"/>
     <use x="1393.273438" xlink:href="#DejaVuSans-101"/>
     <use x="1454.796875" xlink:href="#DejaVuSans-101"/>
     <use x="1516.320312" xlink:href="#DejaVuSans-110"/>
     <use x="1579.699219" xlink:href="#DejaVuSans-41"/>
    </g>
   </g>
  </g>
  <g id="text_16">
   <!-- Setpoints (- -) and Lenghts () - P20000 I0 D0 -->
   <defs>
    <path d="M 53.515625 70.515625 
L 53.515625 60.890625 
Q 47.90625 63.578125 42.921875 64.890625 
Q 37.9375 66.21875 33.296875 66.21875 
Q 25.25 66.21875 20.875 63.09375 
Q 16.5 59.96875 16.5 54.203125 
Q 16.5 49.359375 19.40625 46.890625 
Q 22.3125 44.4375 30.421875 42.921875 
L 36.375 41.703125 
Q 47.40625 39.59375 52.65625 34.296875 
Q 57.90625 29 57.90625 20.125 
Q 57.90625 9.515625 50.796875 4.046875 
Q 43.703125 -1.421875 29.984375 -1.421875 
Q 24.8125 -1.421875 18.96875 -0.25 
Q 13.140625 0.921875 6.890625 3.21875 
L 6.890625 13.375 
Q 12.890625 10.015625 18.65625 8.296875 
Q 24.421875 6.59375 29.984375 6.59375 
Q 38.421875 6.59375 43.015625 9.90625 
Q 47.609375 13.234375 47.609375 19.390625 
Q 47.609375 24.75 44.3125 27.78125 
Q 41.015625 30.8125 33.5 32.328125 
L 27.484375 33.5 
Q 16.453125 35.6875 11.515625 40.375 
Q 6.59375 45.0625 6.59375 53.421875 
Q 6.59375 63.09375 13.40625 68.65625 
Q 20.21875 74.21875 32.171875 74.21875 
Q 37.3125 74.21875 42.625 73.28125 
Q 47.953125 72.359375 53.515625 70.515625 
z
" id="DejaVuSans-83"/>
    <path d="M 30.609375 48.390625 
Q 23.390625 48.390625 19.1875 42.75 
Q 14.984375 37.109375 14.984375 27.296875 
Q 14.984375 17.484375 19.15625 11.84375 
Q 23.34375 6.203125 30.609375 6.203125 
Q 37.796875 6.203125 41.984375 11.859375 
Q 46.1875 17.53125 46.1875 27.296875 
Q 46.1875 37.015625 41.984375 42.703125 
Q 37.796875 48.390625 30.609375 48.390625 
z
M 30.609375 56 
Q 42.328125 56 49.015625 48.375 
Q 55.71875 40.765625 55.71875 27.296875 
Q 55.71875 13.875 49.015625 6.21875 
Q 42.328125 -1.421875 30.609375 -1.421875 
Q 18.84375 -1.421875 12.171875 6.21875 
Q 5.515625 13.875 5.515625 27.296875 
Q 5.515625 40.765625 12.171875 48.375 
Q 18.84375 56 30.609375 56 
z
" id="DejaVuSans-111"/>
    <path d="M 4.890625 31.390625 
L 31.203125 31.390625 
L 31.203125 23.390625 
L 4.890625 23.390625 
z
" id="DejaVuSans-45"/>
    <path d="M 0 30.90625 
L 100 30.90625 
L 100 23.875 
L 0 23.875 
z
" id="DejaVuSans-8213"/>
    <path d="M 19.671875 64.796875 
L 19.671875 37.40625 
L 32.078125 37.40625 
Q 38.96875 37.40625 42.71875 40.96875 
Q 46.484375 44.53125 46.484375 51.125 
Q 46.484375 57.671875 42.71875 61.234375 
Q 38.96875 64.796875 32.078125 64.796875 
z
M 9.8125 72.90625 
L 32.078125 72.90625 
Q 44.34375 72.90625 50.609375 67.359375 
Q 56.890625 61.8125 56.890625 51.125 
Q 56.890625 40.328125 50.609375 34.8125 
Q 44.34375 29.296875 32.078125 29.296875 
L 19.671875 29.296875 
L 19.671875 0 
L 9.8125 0 
z
" id="DejaVuSans-80"/>
    <path d="M 9.8125 72.90625 
L 19.671875 72.90625 
L 19.671875 0 
L 9.8125 0 
z
" id="DejaVuSans-73"/>
    <path d="M 19.671875 64.796875 
L 19.671875 8.109375 
L 31.59375 8.109375 
Q 46.6875 8.109375 53.6875 14.9375 
Q 60.6875 21.78125 60.6875 36.53125 
Q 60.6875 51.171875 53.6875 57.984375 
Q 46.6875 64.796875 31.59375 64.796875 
z
M 9.8125 72.90625 
L 30.078125 72.90625 
Q 51.265625 72.90625 61.171875 64.09375 
Q 71.09375 55.28125 71.09375 36.53125 
Q 71.09375 17.671875 61.125 8.828125 
Q 51.171875 0 30.078125 0 
L 9.8125 0 
z
" id="DejaVuSans-68"/>
   </defs>
   <g transform="translate(1050.875312 28.834927)scale(0.34 -0.34)">
    <use xlink:href="#DejaVuSans-83"/>
    <use x="63.476562" xlink:href="#DejaVuSans-101"/>
    <use x="125" xlink:href="#DejaVuSans-116"/>
    <use x="164.208984" xlink:href="#DejaVuSans-112"/>
    <use x="227.685547" xlink:href="#DejaVuSans-111"/>
    <use x="288.867188" xlink:href="#DejaVuSans-105"/>
    <use x="316.650391" xlink:href="#DejaVuSans-110"/>
    <use x="380.029297" xlink:href="#DejaVuSans-116"/>
    <use x="419.238281" xlink:href="#DejaVuSans-115"/>
    <use x="471.337891" xlink:href="#DejaVuSans-32"/>
    <use x="503.125" xlink:href="#DejaVuSans-40"/>
    <use x="542.138672" xlink:href="#DejaVuSans-45"/>
    <use x="578.222656" xlink:href="#DejaVuSans-45"/>
    <use x="614.306641" xlink:href="#DejaVuSans-41"/>
    <use x="653.320312" xlink:href="#DejaVuSans-32"/>
    <use x="685.107422" xlink:href="#DejaVuSans-97"/>
    <use x="746.386719" xlink:href="#DejaVuSans-110"/>
    <use x="809.765625" xlink:href="#DejaVuSans-100"/>
    <use x="873.242188" xlink:href="#DejaVuSans-32"/>
    <use x="905.029297" xlink:href="#DejaVuSans-76"/>
    <use x="960.726562" xlink:href="#DejaVuSans-101"/>
    <use x="1022.25" xlink:href="#DejaVuSans-110"/>
    <use x="1085.628906" xlink:href="#DejaVuSans-103"/>
    <use x="1149.105469" xlink:href="#DejaVuSans-104"/>
    <use x="1212.484375" xlink:href="#DejaVuSans-116"/>
    <use x="1251.693359" xlink:href="#DejaVuSans-115"/>
    <use x="1303.792969" xlink:href="#DejaVuSans-32"/>
    <use x="1335.580078" xlink:href="#DejaVuSans-40"/>
    <use x="1374.59375" xlink:href="#DejaVuSans-8213"/>
    <use x="1474.59375" xlink:href="#DejaVuSans-41"/>
    <use x="1513.607422" xlink:href="#DejaVuSans-32"/>
    <use x="1545.394531" xlink:href="#DejaVuSans-45"/>
    <use x="1581.478516" xlink:href="#DejaVuSans-32"/>
    <use x="1613.265625" xlink:href="#DejaVuSans-80"/>
    <use x="1673.568359" xlink:href="#DejaVuSans-50"/>
    <use x="1737.191406" xlink:href="#DejaVuSans-48"/>
    <use x="1800.814453" xlink:href="#DejaVuSans-48"/>
    <use x="1864.4375" xlink:href="#DejaVuSans-48"/>
    <use x="1928.060547" xlink:href="#DejaVuSans-48"/>
    <use x="1991.683594" xlink:href="#DejaVuSans-32"/>
    <use x="2023.470703" xlink:href="#DejaVuSans-73"/>
    <use x="2052.962891" xlink:href="#DejaVuSans-48"/>
    <use x="2116.585938" xlink:href="#DejaVuSans-32"/>
    <use x="2148.373047" xlink:href="#DejaVuSans-68"/>
    <use x="2225.375" xlink:href="#DejaVuSans-48"/>
   </g>
   <!-- Bagfile elbow_left_c from 35s for 95s - Logging Rate 30 - Simulation Rate 800 - 100.00% real time speed -->
   <defs>
    <path d="M 37.109375 75.984375 
L 37.109375 68.5 
L 28.515625 68.5 
Q 23.6875 68.5 21.796875 66.546875 
Q 19.921875 64.59375 19.921875 59.515625 
L 19.921875 54.6875 
L 34.71875 54.6875 
L 34.71875 47.703125 
L 19.921875 47.703125 
L 19.921875 0 
L 10.890625 0 
L 10.890625 47.703125 
L 2.296875 47.703125 
L 2.296875 54.6875 
L 10.890625 54.6875 
L 10.890625 58.5 
Q 10.890625 67.625 15.140625 71.796875 
Q 19.390625 75.984375 28.609375 75.984375 
z
" id="DejaVuSans-102"/>
    <path d="M 9.421875 75.984375 
L 18.40625 75.984375 
L 18.40625 0 
L 9.421875 0 
z
" id="DejaVuSans-108"/>
    <path d="M 48.6875 27.296875 
Q 48.6875 37.203125 44.609375 42.84375 
Q 40.53125 48.484375 33.40625 48.484375 
Q 26.265625 48.484375 22.1875 42.84375 
Q 18.109375 37.203125 18.109375 27.296875 
Q 18.109375 17.390625 22.1875 11.75 
Q 26.265625 6.109375 33.40625 6.109375 
Q 40.53125 6.109375 44.609375 11.75 
Q 48.6875 17.390625 48.6875 27.296875 
z
M 18.109375 46.390625 
Q 20.953125 51.265625 25.265625 53.625 
Q 29.59375 56 35.59375 56 
Q 45.5625 56 51.78125 48.09375 
Q 58.015625 40.1875 58.015625 27.296875 
Q 58.015625 14.40625 51.78125 6.484375 
Q 45.5625 -1.421875 35.59375 -1.421875 
Q 29.59375 -1.421875 25.265625 0.953125 
Q 20.953125 3.328125 18.109375 8.203125 
L 18.109375 0 
L 9.078125 0 
L 9.078125 75.984375 
L 18.109375 75.984375 
z
" id="DejaVuSans-98"/>
    <path d="M 4.203125 54.6875 
L 13.1875 54.6875 
L 24.421875 12.015625 
L 35.59375 54.6875 
L 46.1875 54.6875 
L 57.421875 12.015625 
L 68.609375 54.6875 
L 77.59375 54.6875 
L 63.28125 0 
L 52.6875 0 
L 40.921875 44.828125 
L 29.109375 0 
L 18.5 0 
z
" id="DejaVuSans-119"/>
    <path d="M 50.984375 -16.609375 
L 50.984375 -23.578125 
L -0.984375 -23.578125 
L -0.984375 -16.609375 
z
" id="DejaVuSans-95"/>
    <path d="M 10.796875 72.90625 
L 49.515625 72.90625 
L 49.515625 64.59375 
L 19.828125 64.59375 
L 19.828125 46.734375 
Q 21.96875 47.46875 24.109375 47.828125 
Q 26.265625 48.1875 28.421875 48.1875 
Q 40.625 48.1875 47.75 41.5 
Q 54.890625 34.8125 54.890625 23.390625 
Q 54.890625 11.625 47.5625 5.09375 
Q 40.234375 -1.421875 26.90625 -1.421875 
Q 22.3125 -1.421875 17.546875 -0.640625 
Q 12.796875 0.140625 7.71875 1.703125 
L 7.71875 11.625 
Q 12.109375 9.234375 16.796875 8.0625 
Q 21.484375 6.890625 26.703125 6.890625 
Q 35.15625 6.890625 40.078125 11.328125 
Q 45.015625 15.765625 45.015625 23.390625 
Q 45.015625 31 40.078125 35.4375 
Q 35.15625 39.890625 26.703125 39.890625 
Q 22.75 39.890625 18.8125 39.015625 
Q 14.890625 38.140625 10.796875 36.28125 
z
" id="DejaVuSans-53"/>
    <path d="M 44.390625 34.1875 
Q 47.5625 33.109375 50.5625 29.59375 
Q 53.5625 26.078125 56.59375 19.921875 
L 66.609375 0 
L 56 0 
L 46.6875 18.703125 
Q 43.0625 26.03125 39.671875 28.421875 
Q 36.28125 30.8125 30.421875 30.8125 
L 19.671875 30.8125 
L 19.671875 0 
L 9.8125 0 
L 9.8125 72.90625 
L 32.078125 72.90625 
Q 44.578125 72.90625 50.734375 67.671875 
Q 56.890625 62.453125 56.890625 51.90625 
Q 56.890625 45.015625 53.6875 40.46875 
Q 50.484375 35.9375 44.390625 34.1875 
z
M 19.671875 64.796875 
L 19.671875 38.921875 
L 32.078125 38.921875 
Q 39.203125 38.921875 42.84375 42.21875 
Q 46.484375 45.515625 46.484375 51.90625 
Q 46.484375 58.296875 42.84375 61.546875 
Q 39.203125 64.796875 32.078125 64.796875 
z
" id="DejaVuSans-82"/>
    <path d="M 8.5 21.578125 
L 8.5 54.6875 
L 17.484375 54.6875 
L 17.484375 21.921875 
Q 17.484375 14.15625 20.5 10.265625 
Q 23.53125 6.390625 29.59375 6.390625 
Q 36.859375 6.390625 41.078125 11.03125 
Q 45.3125 15.671875 45.3125 23.6875 
L 45.3125 54.6875 
L 54.296875 54.6875 
L 54.296875 0 
L 45.3125 0 
L 45.3125 8.40625 
Q 42.046875 3.421875 37.71875 1 
Q 33.40625 -1.421875 27.6875 -1.421875 
Q 18.265625 -1.421875 13.375 4.4375 
Q 8.5 10.296875 8.5 21.578125 
z
M 31.109375 56 
z
" id="DejaVuSans-117"/>
    <path d="M 72.703125 32.078125 
Q 68.453125 32.078125 66.03125 28.46875 
Q 63.625 24.859375 63.625 18.40625 
Q 63.625 12.0625 66.03125 8.421875 
Q 68.453125 4.78125 72.703125 4.78125 
Q 76.859375 4.78125 79.265625 8.421875 
Q 81.6875 12.0625 81.6875 18.40625 
Q 81.6875 24.8125 79.265625 28.4375 
Q 76.859375 32.078125 72.703125 32.078125 
z
M 72.703125 38.28125 
Q 80.421875 38.28125 84.953125 32.90625 
Q 89.5 27.546875 89.5 18.40625 
Q 89.5 9.28125 84.9375 3.921875 
Q 80.375 -1.421875 72.703125 -1.421875 
Q 64.890625 -1.421875 60.34375 3.921875 
Q 55.8125 9.28125 55.8125 18.40625 
Q 55.8125 27.59375 60.375 32.9375 
Q 64.9375 38.28125 72.703125 38.28125 
z
M 22.3125 68.015625 
Q 18.109375 68.015625 15.6875 64.375 
Q 13.28125 60.75 13.28125 54.390625 
Q 13.28125 47.953125 15.671875 44.328125 
Q 18.0625 40.71875 22.3125 40.71875 
Q 26.5625 40.71875 28.96875 44.328125 
Q 31.390625 47.953125 31.390625 54.390625 
Q 31.390625 60.6875 28.953125 64.34375 
Q 26.515625 68.015625 22.3125 68.015625 
z
M 66.40625 74.21875 
L 74.21875 74.21875 
L 28.609375 -1.421875 
L 20.796875 -1.421875 
z
M 22.3125 74.21875 
Q 30.03125 74.21875 34.609375 68.875 
Q 39.203125 63.53125 39.203125 54.390625 
Q 39.203125 45.171875 34.640625 39.84375 
Q 30.078125 34.515625 22.3125 34.515625 
Q 14.546875 34.515625 10.03125 39.859375 
Q 5.515625 45.21875 5.515625 54.390625 
Q 5.515625 63.484375 10.046875 68.84375 
Q 14.59375 74.21875 22.3125 74.21875 
z
" id="DejaVuSans-37"/>
   </defs>
   <g transform="translate(547.781562 66.90749)scale(0.34 -0.34)">
    <use xlink:href="#DejaVuSans-66"/>
    <use x="68.603516" xlink:href="#DejaVuSans-97"/>
    <use x="129.882812" xlink:href="#DejaVuSans-103"/>
    <use x="193.359375" xlink:href="#DejaVuSans-102"/>
    <use x="228.564453" xlink:href="#DejaVuSans-105"/>
    <use x="256.347656" xlink:href="#DejaVuSans-108"/>
    <use x="284.130859" xlink:href="#DejaVuSans-101"/>
    <use x="345.654297" xlink:href="#DejaVuSans-32"/>
    <use x="377.441406" xlink:href="#DejaVuSans-101"/>
    <use x="438.964844" xlink:href="#DejaVuSans-108"/>
    <use x="466.748047" xlink:href="#DejaVuSans-98"/>
    <use x="530.224609" xlink:href="#DejaVuSans-111"/>
    <use x="591.40625" xlink:href="#DejaVuSans-119"/>
    <use x="673.193359" xlink:href="#DejaVuSans-95"/>
    <use x="723.193359" xlink:href="#DejaVuSans-108"/>
    <use x="750.976562" xlink:href="#DejaVuSans-101"/>
    <use x="812.5" xlink:href="#DejaVuSans-102"/>
    <use x="847.689453" xlink:href="#DejaVuSans-116"/>
    <use x="886.898438" xlink:href="#DejaVuSans-95"/>
    <use x="936.898438" xlink:href="#DejaVuSans-99"/>
    <use x="991.878906" xlink:href="#DejaVuSans-32"/>
    <use x="1023.666016" xlink:href="#DejaVuSans-102"/>
    <use x="1058.871094" xlink:href="#DejaVuSans-114"/>
    <use x="1099.953125" xlink:href="#DejaVuSans-111"/>
    <use x="1161.134766" xlink:href="#DejaVuSans-109"/>
    <use x="1258.546875" xlink:href="#DejaVuSans-32"/>
    <use x="1290.333984" xlink:href="#DejaVuSans-51"/>
    <use x="1353.957031" xlink:href="#DejaVuSans-53"/>
    <use x="1417.580078" xlink:href="#DejaVuSans-115"/>
    <use x="1469.679688" xlink:href="#DejaVuSans-32"/>
    <use x="1501.466797" xlink:href="#DejaVuSans-102"/>
    <use x="1536.671875" xlink:href="#DejaVuSans-111"/>
    <use x="1597.853516" xlink:href="#DejaVuSans-114"/>
    <use x="1638.966797" xlink:href="#DejaVuSans-32"/>
    <use x="1670.753906" xlink:href="#DejaVuSans-57"/>
    <use x="1734.376953" xlink:href="#DejaVuSans-53"/>
    <use x="1798" xlink:href="#DejaVuSans-115"/>
    <use x="1850.099609" xlink:href="#DejaVuSans-32"/>
    <use x="1881.886719" xlink:href="#DejaVuSans-45"/>
    <use x="1917.970703" xlink:href="#DejaVuSans-32"/>
    <use x="1949.757812" xlink:href="#DejaVuSans-76"/>
    <use x="2005.455078" xlink:href="#DejaVuSans-111"/>
    <use x="2066.636719" xlink:href="#DejaVuSans-103"/>
    <use x="2130.113281" xlink:href="#DejaVuSans-103"/>
    <use x="2193.589844" xlink:href="#DejaVuSans-105"/>
    <use x="2221.373047" xlink:href="#DejaVuSans-110"/>
    <use x="2284.751953" xlink:href="#DejaVuSans-103"/>
    <use x="2348.228516" xlink:href="#DejaVuSans-32"/>
    <use x="2380.015625" xlink:href="#DejaVuSans-82"/>
    <use x="2449.466797" xlink:href="#DejaVuSans-97"/>
    <use x="2510.746094" xlink:href="#DejaVuSans-116"/>
    <use x="2549.955078" xlink:href="#DejaVuSans-101"/>
    <use x="2611.478516" xlink:href="#DejaVuSans-32"/>
    <use x="2643.265625" xlink:href="#DejaVuSans-51"/>
    <use x="2706.888672" xlink:href="#DejaVuSans-48"/>
    <use x="2770.511719" xlink:href="#DejaVuSans-32"/>
    <use x="2802.298828" xlink:href="#DejaVuSans-45"/>
    <use x="2838.382812" xlink:href="#DejaVuSans-32"/>
    <use x="2870.169922" xlink:href="#DejaVuSans-83"/>
    <use x="2933.646484" xlink:href="#DejaVuSans-105"/>
    <use x="2961.429688" xlink:href="#DejaVuSans-109"/>
    <use x="3058.841797" xlink:href="#DejaVuSans-117"/>
    <use x="3122.220703" xlink:href="#DejaVuSans-108"/>
    <use x="3150.003906" xlink:href="#DejaVuSans-97"/>
    <use x="3211.283203" xlink:href="#DejaVuSans-116"/>
    <use x="3250.492188" xlink:href="#DejaVuSans-105"/>
    <use x="3278.275391" xlink:href="#DejaVuSans-111"/>
    <use x="3339.457031" xlink:href="#DejaVuSans-110"/>
    <use x="3402.835938" xlink:href="#DejaVuSans-32"/>
    <use x="3434.623047" xlink:href="#DejaVuSans-82"/>
    <use x="3504.074219" xlink:href="#DejaVuSans-97"/>
    <use x="3565.353516" xlink:href="#DejaVuSans-116"/>
    <use x="3604.5625" xlink:href="#DejaVuSans-101"/>
    <use x="3666.085938" xlink:href="#DejaVuSans-32"/>
    <use x="3697.873047" xlink:href="#DejaVuSans-56"/>
    <use x="3761.496094" xlink:href="#DejaVuSans-48"/>
    <use x="3825.119141" xlink:href="#DejaVuSans-48"/>
    <use x="3888.742188" xlink:href="#DejaVuSans-32"/>
    <use x="3920.529297" xlink:href="#DejaVuSans-45"/>
    <use x="3956.613281" xlink:href="#DejaVuSans-32"/>
    <use x="3988.400391" xlink:href="#DejaVuSans-49"/>
    <use x="4052.023438" xlink:href="#DejaVuSans-48"/>
    <use x="4115.646484" xlink:href="#DejaVuSans-48"/>
    <use x="4179.269531" xlink:href="#DejaVuSans-46"/>
    <use x="4211.056641" xlink:href="#DejaVuSans-48"/>
    <use x="4274.679688" xlink:href="#DejaVuSans-48"/>
    <use x="4338.302734" xlink:href="#DejaVuSans-37"/>
    <use x="4433.322266" xlink:href="#DejaVuSans-32"/>
    <use x="4465.109375" xlink:href="#DejaVuSans-114"/>
    <use x="4506.191406" xlink:href="#DejaVuSans-101"/>
    <use x="4567.714844" xlink:href="#DejaVuSans-97"/>
    <use x="4628.994141" xlink:href="#DejaVuSans-108"/>
    <use x="4656.777344" xlink:href="#DejaVuSans-32"/>
    <use x="4688.564453" xlink:href="#DejaVuSans-116"/>
    <use x="4727.773438" xlink:href="#DejaVuSans-105"/>
    <use x="4755.556641" xlink:href="#DejaVuSans-109"/>
    <use x="4852.96875" xlink:href="#DejaVuSans-101"/>
    <use x="4914.492188" xlink:href="#DejaVuSans-32"/>
    <use x="4946.279297" xlink:href="#DejaVuSans-115"/>
    <use x="4998.378906" xlink:href="#DejaVuSans-112"/>
    <use x="5061.855469" xlink:href="#DejaVuSans-101"/>
    <use x="5123.378906" xlink:href="#DejaVuSans-101"/>
    <use x="5184.902344" xlink:href="#DejaVuSans-100"/>
   </g>
   <!--  -->
   <g transform="translate(1440 105.925677)scale(0.34 -0.34)"/>
  </g>
 </g>
 <defs>
  <clipPath id="p689ffb4249">
   <rect height="863.577185" width="2793.305145" x="83.694615" y="157.9032"/>
  </clipPath>
 </defs>
</svg>
