<?xml version="1.0" encoding="utf-8" standalone="no"?>
<!DOCTYPE svg PUBLIC "-//W3C//DTD SVG 1.1//EN"
  "http://www.w3.org/Graphics/SVG/1.1/DTD/svg11.dtd">
<!-- Created with matplotlib (https://matplotlib.org/) -->
<svg height="1080pt" version="1.1" viewBox="0 0 2880 1080" width="2880pt" xmlns="http://www.w3.org/2000/svg" xmlns:xlink="http://www.w3.org/1999/xlink">
 <defs>
  <style type="text/css">
*{stroke-linecap:butt;stroke-linejoin:round;}
  </style>
 </defs>
 <g id="figure_1">
  <g id="patch_1">
   <path d="M 0 1080 
L 2880 1080 
L 2880 0 
L 0 0 
z
" style="fill:#ffffff;"/>
  </g>
  <g id="axes_1">
   <g id="patch_2">
    <path d="M 83.694615 1021.480385 
L 2876.99976 1021.480385 
L 2876.99976 157.9032 
L 83.694615 157.9032 
z
" style="fill:#ffffff;"/>
   </g>
   <g id="matplotlib.axis_1">
    <g id="xtick_1">
     <g id="line2d_1">
      <defs>
       <path d="M 0 0 
L 0 3.5 
" id="mf07f71cd33" style="stroke:#000000;stroke-width:0.8;"/>
      </defs>
      <g>
       <use style="stroke:#000000;stroke-width:0.8;" x="141.564578" xlink:href="#mf07f71cd33" y="1021.480385"/>
      </g>
     </g>
     <g id="text_1">
      <!-- 0 -->
      <defs>
       <path d="M 31.78125 66.40625 
Q 24.171875 66.40625 20.328125 58.90625 
Q 16.5 51.421875 16.5 36.375 
Q 16.5 21.390625 20.328125 13.890625 
Q 24.171875 6.390625 31.78125 6.390625 
Q 39.453125 6.390625 43.28125 13.890625 
Q 47.125 21.390625 47.125 36.375 
Q 47.125 51.421875 43.28125 58.90625 
Q 39.453125 66.40625 31.78125 66.40625 
z
M 31.78125 74.21875 
Q 44.046875 74.21875 50.515625 64.515625 
Q 56.984375 54.828125 56.984375 36.375 
Q 56.984375 17.96875 50.515625 8.265625 
Q 44.046875 -1.421875 31.78125 -1.421875 
Q 19.53125 -1.421875 13.0625 8.265625 
Q 6.59375 17.96875 6.59375 36.375 
Q 6.59375 54.828125 13.0625 64.515625 
Q 19.53125 74.21875 31.78125 74.21875 
z
" id="DejaVuSans-48"/>
      </defs>
      <g transform="translate(135.202078 1043.67726)scale(0.2 -0.2)">
       <use xlink:href="#DejaVuSans-48"/>
      </g>
     </g>
    </g>
    <g id="xtick_2">
     <g id="line2d_2">
      <g>
       <use style="stroke:#000000;stroke-width:0.8;" x="487.056842" xlink:href="#mf07f71cd33" y="1021.480385"/>
      </g>
     </g>
     <g id="text_2">
      <!-- 50 -->
      <defs>
       <path d="M 10.796875 72.90625 
L 49.515625 72.90625 
L 49.515625 64.59375 
L 19.828125 64.59375 
L 19.828125 46.734375 
Q 21.96875 47.46875 24.109375 47.828125 
Q 26.265625 48.1875 28.421875 48.1875 
Q 40.625 48.1875 47.75 41.5 
Q 54.890625 34.8125 54.890625 23.390625 
Q 54.890625 11.625 47.5625 5.09375 
Q 40.234375 -1.421875 26.90625 -1.421875 
Q 22.3125 -1.421875 17.546875 -0.640625 
Q 12.796875 0.140625 7.71875 1.703125 
L 7.71875 11.625 
Q 12.109375 9.234375 16.796875 8.0625 
Q 21.484375 6.890625 26.703125 6.890625 
Q 35.15625 6.890625 40.078125 11.328125 
Q 45.015625 15.765625 45.015625 23.390625 
Q 45.015625 31 40.078125 35.4375 
Q 35.15625 39.890625 26.703125 39.890625 
Q 22.75 39.890625 18.8125 39.015625 
Q 14.890625 38.140625 10.796875 36.28125 
z
" id="DejaVuSans-53"/>
      </defs>
      <g transform="translate(474.331842 1043.67726)scale(0.2 -0.2)">
       <use xlink:href="#DejaVuSans-53"/>
       <use x="63.623047" xlink:href="#DejaVuSans-48"/>
      </g>
     </g>
    </g>
    <g id="xtick_3">
     <g id="line2d_3">
      <g>
       <use style="stroke:#000000;stroke-width:0.8;" x="832.549107" xlink:href="#mf07f71cd33" y="1021.480385"/>
      </g>
     </g>
     <g id="text_3">
      <!-- 100 -->
      <defs>
       <path d="M 12.40625 8.296875 
L 28.515625 8.296875 
L 28.515625 63.921875 
L 10.984375 60.40625 
L 10.984375 69.390625 
L 28.421875 72.90625 
L 38.28125 72.90625 
L 38.28125 8.296875 
L 54.390625 8.296875 
L 54.390625 0 
L 12.40625 0 
z
" id="DejaVuSans-49"/>
      </defs>
      <g transform="translate(813.461607 1043.67726)scale(0.2 -0.2)">
       <use xlink:href="#DejaVuSans-49"/>
       <use x="63.623047" xlink:href="#DejaVuSans-48"/>
       <use x="127.246094" xlink:href="#DejaVuSans-48"/>
      </g>
     </g>
    </g>
    <g id="xtick_4">
     <g id="line2d_4">
      <g>
       <use style="stroke:#000000;stroke-width:0.8;" x="1178.041371" xlink:href="#mf07f71cd33" y="1021.480385"/>
      </g>
     </g>
     <g id="text_4">
      <!-- 150 -->
      <g transform="translate(1158.953871 1043.67726)scale(0.2 -0.2)">
       <use xlink:href="#DejaVuSans-49"/>
       <use x="63.623047" xlink:href="#DejaVuSans-53"/>
       <use x="127.246094" xlink:href="#DejaVuSans-48"/>
      </g>
     </g>
    </g>
    <g id="xtick_5">
     <g id="line2d_5">
      <g>
       <use style="stroke:#000000;stroke-width:0.8;" x="1523.533636" xlink:href="#mf07f71cd33" y="1021.480385"/>
      </g>
     </g>
     <g id="text_5">
      <!-- 200 -->
      <defs>
       <path d="M 19.1875 8.296875 
L 53.609375 8.296875 
L 53.609375 0 
L 7.328125 0 
L 7.328125 8.296875 
Q 12.9375 14.109375 22.625 23.890625 
Q 32.328125 33.6875 34.8125 36.53125 
Q 39.546875 41.84375 41.421875 45.53125 
Q 43.3125 49.21875 43.3125 52.78125 
Q 43.3125 58.59375 39.234375 62.25 
Q 35.15625 65.921875 28.609375 65.921875 
Q 23.96875 65.921875 18.8125 64.3125 
Q 13.671875 62.703125 7.8125 59.421875 
L 7.8125 69.390625 
Q 13.765625 71.78125 18.9375 73 
Q 24.125 74.21875 28.421875 74.21875 
Q 39.75 74.21875 46.484375 68.546875 
Q 53.21875 62.890625 53.21875 53.421875 
Q 53.21875 48.921875 51.53125 44.890625 
Q 49.859375 40.875 45.40625 35.40625 
Q 44.1875 33.984375 37.640625 27.21875 
Q 31.109375 20.453125 19.1875 8.296875 
z
" id="DejaVuSans-50"/>
      </defs>
      <g transform="translate(1504.446136 1043.67726)scale(0.2 -0.2)">
       <use xlink:href="#DejaVuSans-50"/>
       <use x="63.623047" xlink:href="#DejaVuSans-48"/>
       <use x="127.246094" xlink:href="#DejaVuSans-48"/>
      </g>
     </g>
    </g>
    <g id="xtick_6">
     <g id="line2d_6">
      <g>
       <use style="stroke:#000000;stroke-width:0.8;" x="1869.0259" xlink:href="#mf07f71cd33" y="1021.480385"/>
      </g>
     </g>
     <g id="text_6">
      <!-- 250 -->
      <g transform="translate(1849.9384 1043.67726)scale(0.2 -0.2)">
       <use xlink:href="#DejaVuSans-50"/>
       <use x="63.623047" xlink:href="#DejaVuSans-53"/>
       <use x="127.246094" xlink:href="#DejaVuSans-48"/>
      </g>
     </g>
    </g>
    <g id="xtick_7">
     <g id="line2d_7">
      <g>
       <use style="stroke:#000000;stroke-width:0.8;" x="2214.518165" xlink:href="#mf07f71cd33" y="1021.480385"/>
      </g>
     </g>
     <g id="text_7">
      <!-- 300 -->
      <defs>
       <path d="M 40.578125 39.3125 
Q 47.65625 37.796875 51.625 33 
Q 55.609375 28.21875 55.609375 21.1875 
Q 55.609375 10.40625 48.1875 4.484375 
Q 40.765625 -1.421875 27.09375 -1.421875 
Q 22.515625 -1.421875 17.65625 -0.515625 
Q 12.796875 0.390625 7.625 2.203125 
L 7.625 11.71875 
Q 11.71875 9.328125 16.59375 8.109375 
Q 21.484375 6.890625 26.8125 6.890625 
Q 36.078125 6.890625 40.9375 10.546875 
Q 45.796875 14.203125 45.796875 21.1875 
Q 45.796875 27.640625 41.28125 31.265625 
Q 36.765625 34.90625 28.71875 34.90625 
L 20.21875 34.90625 
L 20.21875 43.015625 
L 29.109375 43.015625 
Q 36.375 43.015625 40.234375 45.921875 
Q 44.09375 48.828125 44.09375 54.296875 
Q 44.09375 59.90625 40.109375 62.90625 
Q 36.140625 65.921875 28.71875 65.921875 
Q 24.65625 65.921875 20.015625 65.03125 
Q 15.375 64.15625 9.8125 62.3125 
L 9.8125 71.09375 
Q 15.4375 72.65625 20.34375 73.4375 
Q 25.25 74.21875 29.59375 74.21875 
Q 40.828125 74.21875 47.359375 69.109375 
Q 53.90625 64.015625 53.90625 55.328125 
Q 53.90625 49.265625 50.4375 45.09375 
Q 46.96875 40.921875 40.578125 39.3125 
z
" id="DejaVuSans-51"/>
      </defs>
      <g transform="translate(2195.430665 1043.67726)scale(0.2 -0.2)">
       <use xlink:href="#DejaVuSans-51"/>
       <use x="63.623047" xlink:href="#DejaVuSans-48"/>
       <use x="127.246094" xlink:href="#DejaVuSans-48"/>
      </g>
     </g>
    </g>
    <g id="xtick_8">
     <g id="line2d_8">
      <g>
       <use style="stroke:#000000;stroke-width:0.8;" x="2560.010429" xlink:href="#mf07f71cd33" y="1021.480385"/>
      </g>
     </g>
     <g id="text_8">
      <!-- 350 -->
      <g transform="translate(2540.922929 1043.67726)scale(0.2 -0.2)">
       <use xlink:href="#DejaVuSans-51"/>
       <use x="63.623047" xlink:href="#DejaVuSans-53"/>
       <use x="127.246094" xlink:href="#DejaVuSans-48"/>
      </g>
     </g>
    </g>
    <g id="text_9">
     <!-- Time [s] -->
     <defs>
      <path d="M -0.296875 72.90625 
L 61.375 72.90625 
L 61.375 64.59375 
L 35.5 64.59375 
L 35.5 0 
L 25.59375 0 
L 25.59375 64.59375 
L -0.296875 64.59375 
z
" id="DejaVuSans-84"/>
      <path d="M 9.421875 54.6875 
L 18.40625 54.6875 
L 18.40625 0 
L 9.421875 0 
z
M 9.421875 75.984375 
L 18.40625 75.984375 
L 18.40625 64.59375 
L 9.421875 64.59375 
z
" id="DejaVuSans-105"/>
      <path d="M 52 44.1875 
Q 55.375 50.25 60.0625 53.125 
Q 64.75 56 71.09375 56 
Q 79.640625 56 84.28125 50.015625 
Q 88.921875 44.046875 88.921875 33.015625 
L 88.921875 0 
L 79.890625 0 
L 79.890625 32.71875 
Q 79.890625 40.578125 77.09375 44.375 
Q 74.3125 48.1875 68.609375 48.1875 
Q 61.625 48.1875 57.5625 43.546875 
Q 53.515625 38.921875 53.515625 30.90625 
L 53.515625 0 
L 44.484375 0 
L 44.484375 32.71875 
Q 44.484375 40.625 41.703125 44.40625 
Q 38.921875 48.1875 33.109375 48.1875 
Q 26.21875 48.1875 22.15625 43.53125 
Q 18.109375 38.875 18.109375 30.90625 
L 18.109375 0 
L 9.078125 0 
L 9.078125 54.6875 
L 18.109375 54.6875 
L 18.109375 46.1875 
Q 21.1875 51.21875 25.484375 53.609375 
Q 29.78125 56 35.6875 56 
Q 41.65625 56 45.828125 52.96875 
Q 50 49.953125 52 44.1875 
z
" id="DejaVuSans-109"/>
      <path d="M 56.203125 29.59375 
L 56.203125 25.203125 
L 14.890625 25.203125 
Q 15.484375 15.921875 20.484375 11.0625 
Q 25.484375 6.203125 34.421875 6.203125 
Q 39.59375 6.203125 44.453125 7.46875 
Q 49.3125 8.734375 54.109375 11.28125 
L 54.109375 2.78125 
Q 49.265625 0.734375 44.1875 -0.34375 
Q 39.109375 -1.421875 33.890625 -1.421875 
Q 20.796875 -1.421875 13.15625 6.1875 
Q 5.515625 13.8125 5.515625 26.8125 
Q 5.515625 40.234375 12.765625 48.109375 
Q 20.015625 56 32.328125 56 
Q 43.359375 56 49.78125 48.890625 
Q 56.203125 41.796875 56.203125 29.59375 
z
M 47.21875 32.234375 
Q 47.125 39.59375 43.09375 43.984375 
Q 39.0625 48.390625 32.421875 48.390625 
Q 24.90625 48.390625 20.390625 44.140625 
Q 15.875 39.890625 15.1875 32.171875 
z
" id="DejaVuSans-101"/>
      <path id="DejaVuSans-32"/>
      <path d="M 8.59375 75.984375 
L 29.296875 75.984375 
L 29.296875 69 
L 17.578125 69 
L 17.578125 -6.203125 
L 29.296875 -6.203125 
L 29.296875 -13.1875 
L 8.59375 -13.1875 
z
" id="DejaVuSans-91"/>
      <path d="M 44.28125 53.078125 
L 44.28125 44.578125 
Q 40.484375 46.53125 36.375 47.5 
Q 32.28125 48.484375 27.875 48.484375 
Q 21.1875 48.484375 17.84375 46.4375 
Q 14.5 44.390625 14.5 40.28125 
Q 14.5 37.15625 16.890625 35.375 
Q 19.28125 33.59375 26.515625 31.984375 
L 29.59375 31.296875 
Q 39.15625 29.25 43.1875 25.515625 
Q 47.21875 21.78125 47.21875 15.09375 
Q 47.21875 7.46875 41.1875 3.015625 
Q 35.15625 -1.421875 24.609375 -1.421875 
Q 20.21875 -1.421875 15.453125 -0.5625 
Q 10.6875 0.296875 5.421875 2 
L 5.421875 11.28125 
Q 10.40625 8.6875 15.234375 7.390625 
Q 20.0625 6.109375 24.8125 6.109375 
Q 31.15625 6.109375 34.5625 8.28125 
Q 37.984375 10.453125 37.984375 14.40625 
Q 37.984375 18.0625 35.515625 20.015625 
Q 33.0625 21.96875 24.703125 23.78125 
L 21.578125 24.515625 
Q 13.234375 26.265625 9.515625 29.90625 
Q 5.8125 33.546875 5.8125 39.890625 
Q 5.8125 47.609375 11.28125 51.796875 
Q 16.75 56 26.8125 56 
Q 31.78125 56 36.171875 55.265625 
Q 40.578125 54.546875 44.28125 53.078125 
z
" id="DejaVuSans-115"/>
      <path d="M 30.421875 75.984375 
L 30.421875 -13.1875 
L 9.71875 -13.1875 
L 9.71875 -6.203125 
L 21.390625 -6.203125 
L 21.390625 69 
L 9.71875 69 
L 9.71875 75.984375 
z
" id="DejaVuSans-93"/>
     </defs>
     <g transform="translate(1427.091875 1071.592572)scale(0.26 -0.26)">
      <use xlink:href="#DejaVuSans-84"/>
      <use x="61.037109" xlink:href="#DejaVuSans-105"/>
      <use x="88.820312" xlink:href="#DejaVuSans-109"/>
      <use x="186.232422" xlink:href="#DejaVuSans-101"/>
      <use x="247.755859" xlink:href="#DejaVuSans-32"/>
      <use x="279.542969" xlink:href="#DejaVuSans-91"/>
      <use x="318.556641" xlink:href="#DejaVuSans-115"/>
      <use x="370.65625" xlink:href="#DejaVuSans-93"/>
     </g>
    </g>
   </g>
   <g id="matplotlib.axis_2">
    <g id="ytick_1">
     <g id="line2d_9">
      <defs>
       <path d="M 0 0 
L -3.5 0 
" id="m2b17a16b2f" style="stroke:#000000;stroke-width:0.8;"/>
      </defs>
      <g>
       <use style="stroke:#000000;stroke-width:0.8;" x="83.694615" xlink:href="#m2b17a16b2f" y="962.010678"/>
      </g>
     </g>
     <g id="text_10">
      <!-- 0.07 -->
      <defs>
       <path d="M 10.6875 12.40625 
L 21 12.40625 
L 21 0 
L 10.6875 0 
z
" id="DejaVuSans-46"/>
       <path d="M 8.203125 72.90625 
L 55.078125 72.90625 
L 55.078125 68.703125 
L 28.609375 0 
L 18.3125 0 
L 43.21875 64.59375 
L 8.203125 64.59375 
z
" id="DejaVuSans-55"/>
      </defs>
      <g transform="translate(32.163365 969.609116)scale(0.2 -0.2)">
       <use xlink:href="#DejaVuSans-48"/>
       <use x="63.623047" xlink:href="#DejaVuSans-46"/>
       <use x="95.410156" xlink:href="#DejaVuSans-48"/>
       <use x="159.033203" xlink:href="#DejaVuSans-55"/>
      </g>
     </g>
    </g>
    <g id="ytick_2">
     <g id="line2d_10">
      <g>
       <use style="stroke:#000000;stroke-width:0.8;" x="83.694615" xlink:href="#m2b17a16b2f" y="864.85662"/>
      </g>
     </g>
     <g id="text_11">
      <!-- 0.08 -->
      <defs>
       <path d="M 31.78125 34.625 
Q 24.75 34.625 20.71875 30.859375 
Q 16.703125 27.09375 16.703125 20.515625 
Q 16.703125 13.921875 20.71875 10.15625 
Q 24.75 6.390625 31.78125 6.390625 
Q 38.8125 6.390625 42.859375 10.171875 
Q 46.921875 13.96875 46.921875 20.515625 
Q 46.921875 27.09375 42.890625 30.859375 
Q 38.875 34.625 31.78125 34.625 
z
M 21.921875 38.8125 
Q 15.578125 40.375 12.03125 44.71875 
Q 8.5 49.078125 8.5 55.328125 
Q 8.5 64.0625 14.71875 69.140625 
Q 20.953125 74.21875 31.78125 74.21875 
Q 42.671875 74.21875 48.875 69.140625 
Q 55.078125 64.0625 55.078125 55.328125 
Q 55.078125 49.078125 51.53125 44.71875 
Q 48 40.375 41.703125 38.8125 
Q 48.828125 37.15625 52.796875 32.3125 
Q 56.78125 27.484375 56.78125 20.515625 
Q 56.78125 9.90625 50.3125 4.234375 
Q 43.84375 -1.421875 31.78125 -1.421875 
Q 19.734375 -1.421875 13.25 4.234375 
Q 6.78125 9.90625 6.78125 20.515625 
Q 6.78125 27.484375 10.78125 32.3125 
Q 14.796875 37.15625 21.921875 38.8125 
z
M 18.3125 54.390625 
Q 18.3125 48.734375 21.84375 45.5625 
Q 25.390625 42.390625 31.78125 42.390625 
Q 38.140625 42.390625 41.71875 45.5625 
Q 45.3125 48.734375 45.3125 54.390625 
Q 45.3125 60.0625 41.71875 63.234375 
Q 38.140625 66.40625 31.78125 66.40625 
Q 25.390625 66.40625 21.84375 63.234375 
Q 18.3125 60.0625 18.3125 54.390625 
z
" id="DejaVuSans-56"/>
      </defs>
      <g transform="translate(32.163365 872.455057)scale(0.2 -0.2)">
       <use xlink:href="#DejaVuSans-48"/>
       <use x="63.623047" xlink:href="#DejaVuSans-46"/>
       <use x="95.410156" xlink:href="#DejaVuSans-48"/>
       <use x="159.033203" xlink:href="#DejaVuSans-56"/>
      </g>
     </g>
    </g>
    <g id="ytick_3">
     <g id="line2d_11">
      <g>
       <use style="stroke:#000000;stroke-width:0.8;" x="83.694615" xlink:href="#m2b17a16b2f" y="767.702562"/>
      </g>
     </g>
     <g id="text_12">
      <!-- 0.09 -->
      <defs>
       <path d="M 10.984375 1.515625 
L 10.984375 10.5 
Q 14.703125 8.734375 18.5 7.8125 
Q 22.3125 6.890625 25.984375 6.890625 
Q 35.75 6.890625 40.890625 13.453125 
Q 46.046875 20.015625 46.78125 33.40625 
Q 43.953125 29.203125 39.59375 26.953125 
Q 35.25 24.703125 29.984375 24.703125 
Q 19.046875 24.703125 12.671875 31.3125 
Q 6.296875 37.9375 6.296875 49.421875 
Q 6.296875 60.640625 12.9375 67.421875 
Q 19.578125 74.21875 30.609375 74.21875 
Q 43.265625 74.21875 49.921875 64.515625 
Q 56.59375 54.828125 56.59375 36.375 
Q 56.59375 19.140625 48.40625 8.859375 
Q 40.234375 -1.421875 26.421875 -1.421875 
Q 22.703125 -1.421875 18.890625 -0.6875 
Q 15.09375 0.046875 10.984375 1.515625 
z
M 30.609375 32.421875 
Q 37.25 32.421875 41.125 36.953125 
Q 45.015625 41.5 45.015625 49.421875 
Q 45.015625 57.28125 41.125 61.84375 
Q 37.25 66.40625 30.609375 66.40625 
Q 23.96875 66.40625 20.09375 61.84375 
Q 16.21875 57.28125 16.21875 49.421875 
Q 16.21875 41.5 20.09375 36.953125 
Q 23.96875 32.421875 30.609375 32.421875 
z
" id="DejaVuSans-57"/>
      </defs>
      <g transform="translate(32.163365 775.300999)scale(0.2 -0.2)">
       <use xlink:href="#DejaVuSans-48"/>
       <use x="63.623047" xlink:href="#DejaVuSans-46"/>
       <use x="95.410156" xlink:href="#DejaVuSans-48"/>
       <use x="159.033203" xlink:href="#DejaVuSans-57"/>
      </g>
     </g>
    </g>
    <g id="ytick_4">
     <g id="line2d_12">
      <g>
       <use style="stroke:#000000;stroke-width:0.8;" x="83.694615" xlink:href="#m2b17a16b2f" y="670.548504"/>
      </g>
     </g>
     <g id="text_13">
      <!-- 0.10 -->
      <g transform="translate(32.163365 678.146941)scale(0.2 -0.2)">
       <use xlink:href="#DejaVuSans-48"/>
       <use x="63.623047" xlink:href="#DejaVuSans-46"/>
       <use x="95.410156" xlink:href="#DejaVuSans-49"/>
       <use x="159.033203" xlink:href="#DejaVuSans-48"/>
      </g>
     </g>
    </g>
    <g id="ytick_5">
     <g id="line2d_13">
      <g>
       <use style="stroke:#000000;stroke-width:0.8;" x="83.694615" xlink:href="#m2b17a16b2f" y="573.394446"/>
      </g>
     </g>
     <g id="text_14">
      <!-- 0.11 -->
      <g transform="translate(32.163365 580.992883)scale(0.2 -0.2)">
       <use xlink:href="#DejaVuSans-48"/>
       <use x="63.623047" xlink:href="#DejaVuSans-46"/>
       <use x="95.410156" xlink:href="#DejaVuSans-49"/>
       <use x="159.033203" xlink:href="#DejaVuSans-49"/>
      </g>
     </g>
    </g>
    <g id="ytick_6">
     <g id="line2d_14">
      <g>
       <use style="stroke:#000000;stroke-width:0.8;" x="83.694615" xlink:href="#m2b17a16b2f" y="476.240388"/>
      </g>
     </g>
     <g id="text_15">
      <!-- 0.12 -->
      <g transform="translate(32.163365 483.838825)scale(0.2 -0.2)">
       <use xlink:href="#DejaVuSans-48"/>
       <use x="63.623047" xlink:href="#DejaVuSans-46"/>
       <use x="95.410156" xlink:href="#DejaVuSans-49"/>
       <use x="159.033203" xlink:href="#DejaVuSans-50"/>
      </g>
     </g>
    </g>
    <g id="ytick_7">
     <g id="line2d_15">
      <g>
       <use style="stroke:#000000;stroke-width:0.8;" x="83.694615" xlink:href="#m2b17a16b2f" y="379.08633"/>
      </g>
     </g>
     <g id="text_16">
      <!-- 0.13 -->
      <g transform="translate(32.163365 386.684767)scale(0.2 -0.2)">
       <use xlink:href="#DejaVuSans-48"/>
       <use x="63.623047" xlink:href="#DejaVuSans-46"/>
       <use x="95.410156" xlink:href="#DejaVuSans-49"/>
       <use x="159.033203" xlink:href="#DejaVuSans-51"/>
      </g>
     </g>
    </g>
    <g id="ytick_8">
     <g id="line2d_16">
      <g>
       <use style="stroke:#000000;stroke-width:0.8;" x="83.694615" xlink:href="#m2b17a16b2f" y="281.932272"/>
      </g>
     </g>
     <g id="text_17">
      <!-- 0.14 -->
      <defs>
       <path d="M 37.796875 64.3125 
L 12.890625 25.390625 
L 37.796875 25.390625 
z
M 35.203125 72.90625 
L 47.609375 72.90625 
L 47.609375 25.390625 
L 58.015625 25.390625 
L 58.015625 17.1875 
L 47.609375 17.1875 
L 47.609375 0 
L 37.796875 0 
L 37.796875 17.1875 
L 4.890625 17.1875 
L 4.890625 26.703125 
z
" id="DejaVuSans-52"/>
      </defs>
      <g transform="translate(32.163365 289.530709)scale(0.2 -0.2)">
       <use xlink:href="#DejaVuSans-48"/>
       <use x="63.623047" xlink:href="#DejaVuSans-46"/>
       <use x="95.410156" xlink:href="#DejaVuSans-49"/>
       <use x="159.033203" xlink:href="#DejaVuSans-52"/>
      </g>
     </g>
    </g>
    <g id="ytick_9">
     <g id="line2d_17">
      <g>
       <use style="stroke:#000000;stroke-width:0.8;" x="83.694615" xlink:href="#m2b17a16b2f" y="184.778214"/>
      </g>
     </g>
     <g id="text_18">
      <!-- 0.15 -->
      <g transform="translate(32.163365 192.376651)scale(0.2 -0.2)">
       <use xlink:href="#DejaVuSans-48"/>
       <use x="63.623047" xlink:href="#DejaVuSans-46"/>
       <use x="95.410156" xlink:href="#DejaVuSans-49"/>
       <use x="159.033203" xlink:href="#DejaVuSans-53"/>
      </g>
     </g>
    </g>
    <g id="text_19">
     <!-- Length [m] -->
     <defs>
      <path d="M 9.8125 72.90625 
L 19.671875 72.90625 
L 19.671875 8.296875 
L 55.171875 8.296875 
L 55.171875 0 
L 9.8125 0 
z
" id="DejaVuSans-76"/>
      <path d="M 54.890625 33.015625 
L 54.890625 0 
L 45.90625 0 
L 45.90625 32.71875 
Q 45.90625 40.484375 42.875 44.328125 
Q 39.84375 48.1875 33.796875 48.1875 
Q 26.515625 48.1875 22.3125 43.546875 
Q 18.109375 38.921875 18.109375 30.90625 
L 18.109375 0 
L 9.078125 0 
L 9.078125 54.6875 
L 18.109375 54.6875 
L 18.109375 46.1875 
Q 21.34375 51.125 25.703125 53.5625 
Q 30.078125 56 35.796875 56 
Q 45.21875 56 50.046875 50.171875 
Q 54.890625 44.34375 54.890625 33.015625 
z
" id="DejaVuSans-110"/>
      <path d="M 45.40625 27.984375 
Q 45.40625 37.75 41.375 43.109375 
Q 37.359375 48.484375 30.078125 48.484375 
Q 22.859375 48.484375 18.828125 43.109375 
Q 14.796875 37.75 14.796875 27.984375 
Q 14.796875 18.265625 18.828125 12.890625 
Q 22.859375 7.515625 30.078125 7.515625 
Q 37.359375 7.515625 41.375 12.890625 
Q 45.40625 18.265625 45.40625 27.984375 
z
M 54.390625 6.78125 
Q 54.390625 -7.171875 48.1875 -13.984375 
Q 42 -20.796875 29.203125 -20.796875 
Q 24.46875 -20.796875 20.265625 -20.09375 
Q 16.0625 -19.390625 12.109375 -17.921875 
L 12.109375 -9.1875 
Q 16.0625 -11.328125 19.921875 -12.34375 
Q 23.78125 -13.375 27.78125 -13.375 
Q 36.625 -13.375 41.015625 -8.765625 
Q 45.40625 -4.15625 45.40625 5.171875 
L 45.40625 9.625 
Q 42.625 4.78125 38.28125 2.390625 
Q 33.9375 0 27.875 0 
Q 17.828125 0 11.671875 7.65625 
Q 5.515625 15.328125 5.515625 27.984375 
Q 5.515625 40.671875 11.671875 48.328125 
Q 17.828125 56 27.875 56 
Q 33.9375 56 38.28125 53.609375 
Q 42.625 51.21875 45.40625 46.390625 
L 45.40625 54.6875 
L 54.390625 54.6875 
z
" id="DejaVuSans-103"/>
      <path d="M 18.3125 70.21875 
L 18.3125 54.6875 
L 36.8125 54.6875 
L 36.8125 47.703125 
L 18.3125 47.703125 
L 18.3125 18.015625 
Q 18.3125 11.328125 20.140625 9.421875 
Q 21.96875 7.515625 27.59375 7.515625 
L 36.8125 7.515625 
L 36.8125 0 
L 27.59375 0 
Q 17.1875 0 13.234375 3.875 
Q 9.28125 7.765625 9.28125 18.015625 
L 9.28125 47.703125 
L 2.6875 47.703125 
L 2.6875 54.6875 
L 9.28125 54.6875 
L 9.28125 70.21875 
z
" id="DejaVuSans-116"/>
      <path d="M 54.890625 33.015625 
L 54.890625 0 
L 45.90625 0 
L 45.90625 32.71875 
Q 45.90625 40.484375 42.875 44.328125 
Q 39.84375 48.1875 33.796875 48.1875 
Q 26.515625 48.1875 22.3125 43.546875 
Q 18.109375 38.921875 18.109375 30.90625 
L 18.109375 0 
L 9.078125 0 
L 9.078125 75.984375 
L 18.109375 75.984375 
L 18.109375 46.1875 
Q 21.34375 51.125 25.703125 53.5625 
Q 30.078125 56 35.796875 56 
Q 45.21875 56 50.046875 50.171875 
Q 54.890625 44.34375 54.890625 33.015625 
z
" id="DejaVuSans-104"/>
     </defs>
     <g transform="translate(22.756178 661.697574)rotate(-90)scale(0.26 -0.26)">
      <use xlink:href="#DejaVuSans-76"/>
      <use x="55.697266" xlink:href="#DejaVuSans-101"/>
      <use x="117.220703" xlink:href="#DejaVuSans-110"/>
      <use x="180.599609" xlink:href="#DejaVuSans-103"/>
      <use x="244.076172" xlink:href="#DejaVuSans-116"/>
      <use x="283.285156" xlink:href="#DejaVuSans-104"/>
      <use x="346.664062" xlink:href="#DejaVuSans-32"/>
      <use x="378.451172" xlink:href="#DejaVuSans-91"/>
      <use x="417.464844" xlink:href="#DejaVuSans-109"/>
      <use x="514.876953" xlink:href="#DejaVuSans-93"/>
     </g>
    </g>
   </g>
   <g id="line2d_18">
    <path clip-path="url(#pcef7ebd6db)" d="M 210.663031 836.39187 
L 230.702219 836.35698 
L 231.392283 827.778078 
L 232.08372 797.614786 
L 232.774775 795.849885 
L 248.667097 795.84489 
L 648.056364 795.84489 
L 650.129311 592.819874 
L 650.820347 529.610976 
L 651.511397 479.917231 
L 652.202445 460.637593 
L 652.89332 460.215659 
L 660.49399 460.205235 
L 1063.337981 460.205235 
L 1064.028911 474.080723 
L 1064.719916 500.57972 
L 1065.411023 501.161192 
L 1136.582318 501.162278 
L 1479.310477 501.162278 
L 1480.001828 467.527454 
L 1481.383234 344.154478 
L 1482.074327 293.528988 
L 1482.765726 251.633903 
L 1483.456673 231.780756 
L 1484.147601 227.921021 
L 1486.220344 227.870062 
L 1495.894067 227.861665 
L 1549.792179 227.872523 
L 1558.773683 227.861375 
L 1600.924108 227.875708 
L 1605.761184 227.867166 
L 1614.052648 227.881788 
L 1618.198375 227.867456 
L 1631.32705 227.878169 
L 1635.473201 227.864995 
L 1641.692143 227.862244 
L 1683.842109 227.868469 
L 1695.590122 227.869917 
L 1701.116663 227.861665 
L 1730.13791 227.871364 
L 1738.430071 227.861665 
L 1774.361423 227.868179 
L 1788.871836 227.863402 
L 1793.708754 227.887724 
L 1796.472711 227.866877 
L 1802.692108 227.872667 
L 1809.601727 227.869048 
L 1827.566973 227.874839 
L 1835.858786 227.86181 
L 1866.262167 227.874549 
L 1872.48076 227.863692 
L 1875.935633 227.861954 
L 1894.592186 227.863113 
L 1895.283538 236.447733 
L 1897.356442 485.570025 
L 1898.737969 678.25826 
L 1899.429367 705.582813 
L 1900.12054 710.89098 
L 1902.19336 710.945269 
L 2310.565288 710.945269 
L 2311.256132 687.761741 
L 2314.020023 421.956203 
L 2316.093034 276.71487 
L 2316.78374 250.046202 
L 2317.475088 230.287155 
L 2318.165941 227.93101 
L 2319.548036 227.863836 
L 2327.84006 227.862099 
L 2352.02395 227.862823 
L 2750.031344 227.864271 
L 2750.031344 227.864271 
" style="fill:none;stroke:#008000;stroke-dasharray:9.6,2.4,1.5,2.4;stroke-dashoffset:0;stroke-width:1.5;"/>
   </g>
   <g id="line2d_19">
    <path clip-path="url(#pcef7ebd6db)" d="M 210.663031 836.38151 
L 230.702219 836.377592 
L 231.392283 835.728478 
L 232.08372 793.230062 
L 232.774775 777.64207 
L 233.467316 824.405878 
L 234.156201 776.90139 
L 235.538681 816.899075 
L 236.229559 770.448791 
L 236.920599 815.73397 
L 237.61155 796.11527 
L 238.30226 780.077045 
L 238.993499 820.915524 
L 239.68451 775.699716 
L 240.375507 804.884149 
L 241.066501 805.372539 
L 241.757432 776.57681 
L 242.448455 819.151808 
L 243.139673 779.668235 
L 243.830836 801.590536 
L 244.521338 805.426258 
L 245.212531 778.36182 
L 245.90414 817.404948 
L 246.59437 779.192269 
L 247.28522 805.123223 
L 247.976206 799.290752 
L 248.667097 784.161109 
L 249.357913 814.440065 
L 250.049006 777.723804 
L 250.740225 810.982885 
L 251.431545 789.812566 
L 252.121778 793.719493 
L 252.813533 807.351977 
L 253.503932 780.354931 
L 254.195425 813.050459 
L 254.886333 783.246337 
L 255.577129 802.726039 
L 256.268027 798.354134 
L 256.959027 787.077194 
L 257.650463 810.108512 
L 258.34112 781.83322 
L 259.03186 807.968409 
L 259.722617 790.687353 
L 260.415116 794.969152 
L 261.105499 803.98521 
L 261.795877 784.794286 
L 262.486946 808.485658 
L 263.178091 786.675623 
L 263.868888 801.144584 
L 264.559685 797.339281 
L 265.250705 790.188433 
L 265.941945 805.400241 
L 266.633245 786.782457 
L 267.324206 803.872464 
L 268.015188 792.638305 
L 268.705949 795.451759 
L 269.397019 800.801962 
L 270.087854 789.631908 
L 270.778832 803.106342 
L 271.469806 791.160275 
L 272.16031 798.551522 
L 272.851703 796.90478 
L 273.54339 793.234529 
L 274.233715 800.368602 
L 274.925145 792.422993 
L 275.615701 798.845295 
L 276.306712 795.27602 
L 276.997657 795.615816 
L 277.68871 797.818706 
L 278.379707 794.438326 
L 279.070361 797.596644 
L 279.7612 795.626987 
L 281.143568 796.613597 
L 281.835664 796.185805 
L 351.623689 796.221836 
L 648.056364 796.221838 
L 648.74756 753.481608 
L 649.438548 631.322985 
L 650.129311 606.322873 
L 650.820347 552.600502 
L 651.511397 434.146329 
L 652.202445 435.968587 
L 652.89332 508.175879 
L 653.584181 475.484101 
L 654.275179 419.912987 
L 654.966239 485.088837 
L 655.658159 500.808791 
L 656.348218 428.232474 
L 657.040008 452.833918 
L 657.730507 506.439961 
L 658.421096 449.836357 
L 659.112019 432.557902 
L 659.803045 500.751433 
L 660.49399 472.417229 
L 661.18483 425.857339 
L 661.876242 490.128291 
L 662.567113 485.947885 
L 663.259711 426.273946 
L 663.94912 479.344613 
L 664.639914 492.06709 
L 665.331004 429.246617 
L 666.02175 471.145321 
L 666.714265 493.950649 
L 667.403702 432.023683 
L 668.094649 467.251607 
L 668.785895 493.447841 
L 669.476892 433.314768 
L 670.168004 467.76538 
L 670.859201 491.249381 
L 671.549625 433.141426 
L 672.241017 472.103514 
L 672.931879 487.002078 
L 673.622939 432.574537 
L 674.313537 478.995891 
L 675.004751 479.526746 
L 675.695524 433.629417 
L 676.386541 486.032102 
L 677.077723 467.132837 
L 677.768435 439.143731 
L 678.459697 490.503268 
L 679.150508 451.245792 
L 679.842125 452.349228 
L 680.532746 488.922885 
L 681.223577 438.873842 
L 681.914476 471.64598 
L 682.6056 477.592467 
L 683.296632 437.75505 
L 683.987545 485.52967 
L 684.678498 455.556197 
L 685.369391 452.475045 
L 686.060241 485.435719 
L 686.751528 439.463432 
L 687.44252 476.397081 
L 688.135058 466.890206 
L 688.824231 445.559859 
L 689.515363 485.167197 
L 690.206538 443.25859 
L 690.897662 471.346299 
L 691.588399 469.116499 
L 692.279368 445.648832 
L 692.970166 483.449363 
L 693.661405 443.840234 
L 694.352353 472.558357 
L 695.04329 464.621975 
L 695.7342 449.96086 
L 696.425347 480.737638 
L 697.116005 442.891097 
L 697.807188 476.896818 
L 698.498117 455.877761 
L 699.189337 458.514218 
L 699.880214 474.015093 
L 700.571601 445.287173 
L 701.261974 479.480783 
L 701.954317 447.374036 
L 702.644156 470.202827 
L 703.335171 460.98523 
L 704.026186 454.95561 
L 704.718984 474.256078 
L 705.408088 446.648193 
L 706.098798 477.228992 
L 706.789962 449.0786 
L 707.481033 469.537616 
L 708.172214 459.444013 
L 708.86292 457.637367 
L 709.554508 470.710731 
L 710.244977 449.769141 
L 710.937306 475.410499 
L 711.626865 449.596646 
L 712.317986 471.262576 
L 713.008935 456.673559 
L 714.391807 466.388102 
L 715.081829 453.866174 
L 715.772857 472.476187 
L 716.46385 451.400582 
L 717.15484 471.651981 
L 717.845804 455.106026 
L 718.536798 465.596859 
L 719.91882 458.527109 
L 720.610123 468.376579 
L 721.300623 454.674123 
L 721.992421 470.328941 
L 722.682726 455.155431 
L 723.373436 467.836868 
L 724.065086 459.00612 
L 724.75603 462.950709 
L 725.446571 464.014593 
L 726.137657 458.649185 
L 726.829011 467.515411 
L 727.51968 456.850983 
L 728.21129 468.070656 
L 728.901731 457.719603 
L 729.592438 466.065034 
L 730.283275 460.396528 
L 730.974417 463.009137 
L 731.666019 463.395203 
L 732.356355 460.578821 
L 733.047339 465.290587 
L 733.739029 459.604777 
L 734.42945 465.622579 
L 735.12058 459.953873 
L 735.811431 464.831385 
L 736.502497 461.063099 
L 737.193156 463.559433 
L 737.88429 462.329548 
L 738.575524 462.467416 
L 739.266792 463.097943 
L 739.957413 462.129959 
L 740.64839 462.945805 
L 741.338995 462.706985 
L 752.394894 462.652083 
L 821.493492 462.638999 
L 1063.337981 462.638998 
L 1064.028911 463.23194 
L 1064.719916 518.725996 
L 1065.411023 528.052956 
L 1066.102541 470.968564 
L 1066.793042 520.334488 
L 1067.484015 524.251168 
L 1068.17503 471.853761 
L 1068.866033 524.510484 
L 1069.556854 517.073791 
L 1070.247799 474.088744 
L 1070.938883 529.457679 
L 1072.320893 480.090798 
L 1073.012152 532.664639 
L 1073.703201 490.958989 
L 1074.393425 492.792594 
L 1075.08476 530.921656 
L 1075.77552 479.286982 
L 1076.466681 511.301202 
L 1077.158041 520.642561 
L 1077.849109 477.16047 
L 1078.539753 525.963585 
L 1079.230619 499.677679 
L 1079.921625 489.379688 
L 1080.612601 528.265493 
L 1081.303346 481.170142 
L 1081.994673 513.437997 
L 1082.685627 513.278563 
L 1083.376627 482.380218 
L 1084.067581 526.717465 
L 1084.758501 487.455346 
L 1085.449108 506.096149 
L 1086.140319 516.45194 
L 1086.831278 482.347688 
L 1087.522331 524.671706 
L 1088.213223 488.645208 
L 1088.904389 506.708721 
L 1089.596902 513.120796 
L 1090.286519 485.328347 
L 1090.977636 523.488129 
L 1091.668177 485.69134 
L 1092.359716 512.739806 
L 1093.051197 504.230812 
L 1093.741426 492.425255 
L 1094.43219 519.869976 
L 1095.122949 484.176677 
L 1095.814093 519.018736 
L 1096.505306 492.775387 
L 1097.196631 504.470368 
L 1097.887242 509.150796 
L 1098.578313 489.976508 
L 1099.269175 518.965758 
L 1099.960174 486.403987 
L 1100.650914 516.168623 
L 1101.343527 494.163084 
L 1102.032953 504.244526 
L 1102.724838 506.988437 
L 1103.415528 492.740207 
L 1104.105923 516.051382 
L 1104.797223 488.476418 
L 1105.487994 515.80812 
L 1106.180523 492.877262 
L 1106.870108 507.507846 
L 1107.560901 502.961873 
L 1108.251803 497.225697 
L 1108.942876 512.128539 
L 1109.633551 491.532932 
L 1110.32496 514.560838 
L 1111.015814 492.832262 
L 1111.707867 509.794234 
L 1112.398202 499.799607 
L 1113.089108 501.619366 
L 1113.780809 507.792745 
L 1114.470857 495.545443 
L 1115.161836 511.823678 
L 1115.85289 494.448754 
L 1116.543897 510.36436 
L 1117.23497 498.081096 
L 1117.925887 505.297184 
L 1118.617113 503.689582 
L 1119.307994 500.074728 
L 1119.998792 508.009718 
L 1120.690059 497.515723 
L 1121.380789 509.144848 
L 1122.071668 498.067995 
L 1122.762683 507.26049 
L 1123.453708 500.839833 
L 1124.14472 503.924679 
L 1124.835686 504.178221 
L 1125.526645 501.147841 
L 1126.217551 506.342432 
L 1126.910529 500.05477 
L 1127.601298 506.659715 
L 1128.290508 500.555131 
L 1128.981334 505.624233 
L 1129.672688 501.949649 
L 1130.363455 504.132353 
L 1131.05459 503.368888 
L 1131.745648 502.970258 
L 1132.436442 504.126627 
L 1133.127795 502.70013 
L 1133.819315 503.901582 
L 1134.509226 503.312036 
L 1143.491983 503.383484 
L 1175.277553 503.416234 
L 1479.310477 503.416597 
L 1480.001828 483.688325 
L 1480.692809 391.827916 
L 1481.383234 358.856886 
L 1482.074327 303.324513 
L 1482.765726 232.554531 
L 1483.456673 251.42276 
L 1484.147601 222.180912 
L 1484.838226 222.63781 
L 1485.529314 249.824432 
L 1486.220344 211.4102 
L 1486.911489 239.032692 
L 1487.602558 238.281044 
L 1488.293445 212.415882 
L 1488.984549 248.950127 
L 1489.675507 220.541167 
L 1490.366253 226.125284 
L 1491.057303 245.77818 
L 1491.748516 211.669766 
L 1492.439698 243.371497 
L 1493.130482 228.946774 
L 1493.821184 219.210885 
L 1494.512429 247.404528 
L 1495.203707 214.150467 
L 1495.894067 237.83727 
L 1496.585406 233.732871 
L 1497.276371 216.81036 
L 1497.967827 246.837962 
L 1498.658309 216.321919 
L 1499.349526 234.958979 
L 1500.041925 234.976267 
L 1500.731618 216.855734 
L 1501.422562 245.875925 
L 1502.113335 217.053298 
L 1502.805013 235.000936 
L 1503.495105 233.428106 
L 1504.186005 218.488683 
L 1504.877056 244.764193 
L 1505.568193 216.694065 
L 1506.259375 237.362539 
L 1507.641092 221.902269 
L 1508.332136 242.602209 
L 1509.023002 216.455987 
L 1509.714128 240.785038 
L 1510.404817 224.337434 
L 1511.096957 227.451422 
L 1511.78694 237.730813 
L 1512.477792 218.237506 
L 1513.168958 242.679019 
L 1513.859725 219.885841 
L 1514.550687 234.674325 
L 1515.241833 230.214706 
L 1515.932835 223.326993 
L 1516.624187 240.312566 
L 1517.315204 218.836953 
L 1518.005934 240.208191 
L 1518.697002 223.502066 
L 1519.387925 230.871226 
L 1520.079382 233.69194 
L 1520.76985 222.178009 
L 1521.460923 240.427951 
L 1522.152908 220.569119 
L 1522.842934 237.686614 
L 1523.534048 226.329709 
L 1524.22459 229.025243 
L 1524.915798 235.084714 
L 1525.606431 222.672865 
L 1526.297392 239.391463 
L 1526.988548 222.435739 
L 1527.681254 236.17057 
L 1528.370628 227.684184 
L 1529.06167 229.091876 
L 1529.752634 234.648219 
L 1530.44381 224.203112 
L 1531.134644 237.98173 
L 1531.825569 223.890789 
L 1532.516566 235.847231 
L 1533.207435 227.61066 
L 1533.898394 230.689393 
L 1534.589396 232.848105 
L 1535.281254 226.549379 
L 1535.971279 236.061762 
L 1536.662618 225.395721 
L 1537.353509 235.840961 
L 1538.045396 226.935048 
L 1538.735487 233.221903 
L 1539.426367 230.013041 
L 1540.116919 230.18136 
L 1540.80861 232.779278 
L 1541.499269 228.245504 
L 1542.190413 234.099503 
L 1542.881344 227.785852 
L 1543.572791 233.957935 
L 1544.263394 228.431951 
L 1544.954101 232.909065 
L 1545.645003 229.74144 
L 1546.336243 231.525233 
L 1547.718186 230.463865 
L 1548.409207 231.741343 
L 1549.100627 230.197676 
L 1549.792179 231.576327 
L 1550.482176 230.702935 
L 1551.172878 230.88684 
L 1553.936835 230.937651 
L 1582.958445 230.977164 
L 1894.592186 230.977694 
L 1895.283538 231.63027 
L 1895.974454 275.751475 
L 1896.665103 425.234056 
L 1897.356442 519.578336 
L 1898.047355 543.906623 
L 1899.429367 807.117599 
L 1900.12054 807.168884 
L 1900.811829 687.458931 
L 1901.502304 614.599264 
L 1902.19336 681.652155 
L 1902.884031 800.344974 
L 1903.575011 797.82216 
L 1904.266059 679.062888 
L 1904.957262 621.89908 
L 1905.64796 703.921706 
L 1906.339448 802.57529 
L 1907.030156 775.636824 
L 1907.721224 654.966067 
L 1908.412085 636.910115 
L 1909.103024 746.895038 
L 1909.794034 800.783671 
L 1910.485161 729.734913 
L 1911.175972 635.21235 
L 1911.867282 677.581865 
L 1912.557996 784.338497 
L 1913.249054 774.302429 
L 1913.940049 664.008367 
L 1914.630811 647.801727 
L 1915.321778 752.536796 
L 1916.012902 786.807844 
L 1916.703652 698.678304 
L 1917.395222 642.63233 
L 1918.085803 723.143766 
L 1918.777408 785.341163 
L 1919.467831 722.457166 
L 1920.158603 646.183448 
L 1920.849857 706.712551 
L 1921.54061 780.534647 
L 1922.231615 729.772606 
L 1922.922843 650.282397 
L 1923.613616 705.333908 
L 1924.304847 776.761528 
L 1924.997475 723.978832 
L 1925.686805 653.028257 
L 1927.068698 773.323943 
L 1927.759595 706.267033 
L 1928.450877 657.593423 
L 1929.141556 737.283572 
L 1929.832563 765.408869 
L 1930.523654 681.921619 
L 1931.214364 671.230806 
L 1931.906673 756.974124 
L 1932.597627 744.971977 
L 1933.288084 664.505518 
L 1933.978432 704.158384 
L 1934.670384 764.359048 
L 1935.360518 703.294123 
L 1936.05149 668.013056 
L 1936.743016 746.402109 
L 1937.433626 745.925952 
L 1938.124454 669.393042 
L 1938.815782 707.598766 
L 1939.506947 758.960342 
L 1940.197707 693.208931 
L 1940.888475 679.02652 
L 1941.57923 752.760452 
L 1942.270464 723.730063 
L 1942.961397 670.61573 
L 1943.652577 736.898496 
L 1944.343086 741.969798 
L 1945.03405 673.504177 
L 1945.726901 718.438644 
L 1946.416049 749.171153 
L 1947.107219 680.902237 
L 1947.798168 704.316683 
L 1948.489362 750.566497 
L 1949.18027 688.141547 
L 1949.871342 696.857111 
L 1950.563134 749.58622 
L 1951.253239 692.698456 
L 1951.943757 694.730924 
L 1952.635143 748.048213 
L 1953.32614 693.483453 
L 1954.01689 696.72713 
L 1954.708063 746.40555 
L 1955.399087 690.866455 
L 1956.08984 702.669218 
L 1956.780802 743.915051 
L 1957.471809 686.491331 
L 1958.853629 738.826918 
L 1959.544721 682.849749 
L 1960.235984 725.517803 
L 1960.927078 728.557672 
L 1961.617988 683.385591 
L 1962.308686 736.300346 
L 1962.999927 711.166227 
L 1963.690995 692.263026 
L 1964.381654 740.161613 
L 1965.072432 692.870411 
L 1966.454776 732.471834 
L 1967.145854 685.918695 
L 1967.836788 732.379568 
L 1968.527652 710.086839 
L 1969.218818 697.385397 
L 1969.909506 736.30484 
L 1970.600845 689.839718 
L 1971.291806 723.767599 
L 1971.982467 717.749178 
L 1972.673779 694.235935 
L 1973.364685 734.986891 
L 1974.055513 692.424536 
L 1974.74637 722.006156 
L 1975.437653 716.296609 
L 1976.12838 697.150579 
L 1976.819677 732.650026 
L 1977.510579 691.946464 
L 1978.20133 726.120827 
L 1978.892624 708.2561 
L 1979.583599 705.554863 
L 1980.274537 726.781303 
L 1980.965424 693.08331 
L 1981.656536 730.151657 
L 1982.347443 698.213262 
L 1983.038221 717.864686 
L 1983.729153 714.43865 
L 1984.420465 701.447319 
L 1985.111286 727.13791 
L 1985.802179 694.92113 
L 1986.493025 726.739388 
L 1987.184244 701.910868 
L 1987.875091 714.537184 
L 1988.566658 716.282712 
L 1989.257367 701.267979 
L 1989.948308 725.770198 
L 1990.639363 697.594801 
L 1991.33031 723.479352 
L 1992.021182 705.168263 
L 1992.712262 712.164699 
L 1993.402957 717.31876 
L 1994.094276 701.98258 
L 1994.785279 723.649366 
L 1995.476202 700.708979 
L 1996.167179 720.108224 
L 1996.858203 708.127064 
L 1997.549173 710.467075 
L 1998.240536 717.497813 
L 1998.931476 703.555286 
L 1999.621852 720.885728 
L 2000.313116 704.129944 
L 2001.004017 716.807711 
L 2001.695087 710.588236 
L 2002.386202 709.646872 
L 2003.077155 716.662985 
L 2003.76814 706.036949 
L 2004.459475 717.592703 
L 2005.150034 707.726593 
L 2005.840858 713.92251 
L 2006.531732 712.161428 
L 2007.222714 710.031999 
L 2007.914348 714.664205 
L 2008.605268 709.282474 
L 2009.296099 713.969841 
L 2009.986783 710.950448 
L 2010.677915 712.170667 
L 2011.368752 712.307908 
L 2012.05955 711.559022 
L 2012.750567 712.056133 
L 2041.771958 711.982301 
L 2310.565288 711.980819 
L 2311.256132 706.128106 
L 2312.638047 528.213074 
L 2313.3297 511.974841 
L 2314.020023 409.450512 
L 2314.710956 372.037495 
L 2315.402017 349.40845 
L 2316.093034 250.182801 
L 2316.78374 235.249792 
L 2317.475088 272.832011 
L 2318.165941 223.945344 
L 2318.856978 198.030104 
L 2319.548036 260.232494 
L 2320.238662 256.577298 
L 2320.929905 197.156708 
L 2322.311645 267.755719 
L 2323.002832 214.348342 
L 2323.693876 208.316687 
L 2324.384579 264.593057 
L 2325.07579 237.028978 
L 2325.767947 199.564245 
L 2326.458133 254.058206 
L 2327.148666 251.771986 
L 2327.84006 199.942182 
L 2328.530757 241.481877 
L 2329.221739 258.260667 
L 2329.912875 204.33712 
L 2331.294422 260.15265 
L 2331.985642 209.261824 
L 2332.676616 224.498886 
L 2333.36814 259.83899 
L 2334.058587 212.503602 
L 2334.749454 222.341126 
L 2335.440335 258.721764 
L 2336.131962 213.221145 
L 2336.822547 223.547818 
L 2337.513976 257.151747 
L 2338.204244 211.677057 
L 2338.895695 227.794452 
L 2339.586301 254.667012 
L 2340.277208 208.920106 
L 2340.968147 234.792157 
L 2341.659477 250.201868 
L 2342.350344 206.951937 
L 2343.04102 243.203552 
L 2343.732277 242.101483 
L 2344.423345 208.172647 
L 2345.114378 250.065338 
L 2345.805411 229.33349 
L 2346.496235 215.319067 
L 2347.187117 252.504424 
L 2347.878328 216.267006 
L 2348.569006 228.99092 
L 2349.260245 247.674616 
L 2349.952059 209.691845 
L 2350.642122 243.803885 
L 2351.33351 233.475707 
L 2352.02395 214.637069 
L 2352.71498 250.016402 
L 2353.406143 217.078992 
L 2354.78822 243.841445 
L 2355.479444 211.413089 
L 2356.16997 245.596405 
L 2356.861633 225.957511 
L 2357.551986 221.404383 
L 2358.24292 246.954438 
L 2358.934182 213.112873 
L 2359.625011 240.038394 
L 2360.316036 231.78537 
L 2361.006944 217.787811 
L 2361.698243 246.986655 
L 2362.388883 215.386035 
L 2363.079809 236.379447 
L 2363.770956 234.038006 
L 2364.461938 217.173764 
L 2365.152978 246.095987 
L 2365.844163 216.541389 
L 2366.534626 235.602204 
L 2367.22587 233.216053 
L 2367.916889 218.3941 
L 2368.607807 245.055668 
L 2369.299235 216.466522 
L 2369.990753 237.302167 
L 2370.680928 230.027166 
L 2371.37205 221.275313 
L 2372.062538 243.178338 
L 2372.75428 216.261927 
L 2373.445064 240.363322 
L 2374.135794 225.225555 
L 2374.826704 226.190419 
L 2375.517713 239.083823 
L 2376.20843 217.478233 
L 2376.899821 242.67101 
L 2377.590361 220.557728 
L 2378.281622 233.038948 
L 2378.972614 232.086405 
L 2379.663621 221.695006 
L 2380.354307 241.458731 
L 2381.045887 218.535651 
L 2381.736503 239.35018 
L 2382.427466 224.811388 
L 2383.118479 228.878741 
L 2383.809824 235.641151 
L 2384.50051 220.811309 
L 2385.191416 241.084444 
L 2385.883005 220.708405 
L 2386.573193 236.328512 
L 2387.264246 227.988129 
L 2387.956829 226.916113 
L 2388.646472 237.010559 
L 2389.337412 221.421034 
L 2390.028287 239.753448 
L 2390.719145 222.804383 
L 2391.410966 234.548195 
L 2392.101288 229.585264 
L 2392.792347 226.865573 
L 2393.483173 236.644889 
L 2394.174727 222.908888 
L 2394.865278 238.38148 
L 2395.555804 224.25245 
L 2396.247226 234.272219 
L 2396.938233 229.500686 
L 2397.629282 228.370357 
L 2398.320243 235.002995 
L 2399.011584 224.953043 
L 2399.702091 236.99851 
L 2400.392887 225.177115 
L 2401.083897 235.03609 
L 2401.775037 228.218952 
L 2402.466385 231.164181 
L 2403.157036 232.145485 
L 2403.847992 228.006079 
L 2404.539477 234.630657 
L 2405.229901 226.839963 
L 2405.920906 234.951756 
L 2406.612076 227.453031 
L 2407.303075 233.734231 
L 2407.993732 229.093117 
L 2408.685161 231.930502 
L 2409.376061 230.90356 
L 2410.066709 230.295973 
L 2410.757622 232.205603 
L 2411.44926 229.460042 
L 2412.14096 232.568928 
L 2412.830965 229.533347 
L 2413.521855 232.104403 
L 2414.213862 230.258911 
L 2414.903896 231.285386 
L 2416.285806 230.786634 
L 2418.359078 230.869424 
L 2432.869417 230.961929 
L 2493.676742 230.975811 
L 2750.031344 230.976008 
L 2750.031344 230.976008 
" style="fill:none;stroke:#008000;stroke-linecap:square;stroke-width:3;"/>
   </g>
   <g id="line2d_20">
    <path clip-path="url(#pcef7ebd6db)" d="M 210.663031 263.478184 
L 230.702219 263.51206 
L 231.392283 271.855493 
L 232.08372 301.452875 
L 232.774775 303.197219 
L 248.667097 303.202141 
L 648.056364 303.202286 
L 650.820347 582.440312 
L 651.511397 638.242662 
L 652.202445 660.226981 
L 652.89332 660.710226 
L 659.803045 660.72217 
L 1063.337981 660.72217 
L 1064.028911 644.877871 
L 1064.719916 614.891128 
L 1065.411023 614.237053 
L 1128.290508 614.235822 
L 1479.310477 614.235822 
L 1480.001828 652.348625 
L 1482.074327 859.341376 
L 1482.765726 911.945086 
L 1483.456673 937.301263 
L 1484.147601 942.264441 
L 1485.529314 942.338346 
L 1494.512429 942.32358 
L 1500.041925 942.338636 
L 1502.805013 942.340735 
L 1513.859725 942.324883 
L 1520.079382 942.339143 
L 1600.924108 942.322639 
L 1605.069815 942.340663 
L 1616.125684 942.34059 
L 1665.877496 942.322494 
L 1670.713029 942.337405 
L 1678.314659 942.337043 
L 1695.590122 942.330167 
L 1699.73486 942.339143 
L 1875.24443 942.332338 
L 1884.918628 942.33755 
L 1889.064408 942.338057 
L 1894.592186 942.338998 
L 1895.283538 931.314916 
L 1898.737969 422.556713 
L 1899.429367 394.269362 
L 1900.12054 388.813239 
L 1902.19336 388.757357 
L 2310.565288 388.757357 
L 2311.256132 412.680302 
L 2315.402017 832.531483 
L 2316.093034 880.310272 
L 2316.78374 913.962395 
L 2317.475088 939.220489 
L 2318.165941 942.251484 
L 2319.548036 942.337912 
L 2327.148666 942.319526 
L 2331.294422 942.340663 
L 2365.152978 942.331542 
L 2372.75428 942.338925 
L 2374.826704 942.326982 
L 2379.663621 942.338781 
L 2383.118479 942.321553 
L 2390.028287 942.336175 
L 2395.555804 942.322639 
L 2402.466385 942.33936 
L 2418.359078 942.336102 
L 2439.089857 942.336609 
L 2448.071342 942.314749 
L 2450.835047 942.337695 
L 2457.054788 942.330022 
L 2463.963714 942.338491 
L 2470.182312 942.325679 
L 2476.40145 942.33784 
L 2482.620293 942.338346 
L 2519.933322 942.335306 
L 2522.698613 942.340446 
L 2532.370943 942.338057 
L 2565.538191 942.314676 
L 2568.302272 942.337912 
L 2577.284731 942.319599 
L 2581.432423 942.338564 
L 2616.671191 942.335017 
L 2632.563824 942.33755 
L 2638.782884 942.325534 
L 2645.002621 942.336682 
L 2683.697132 942.338346 
L 2685.769739 942.33784 
L 2750.031344 942.337333 
L 2750.031344 942.337333 
" style="fill:none;stroke:#ff0000;stroke-dasharray:9.6,2.4,1.5,2.4;stroke-dashoffset:0;stroke-width:1.5;"/>
   </g>
   <g id="line2d_21">
    <path clip-path="url(#pcef7ebd6db)" d="M 210.663031 263.488192 
L 230.702219 263.491991 
L 231.392283 264.122078 
L 232.08372 305.788966 
L 232.774775 321.275093 
L 233.467316 275.143805 
L 234.156201 322.01315 
L 235.538681 282.482924 
L 236.229559 328.457422 
L 236.920599 283.624888 
L 237.61155 302.934505 
L 238.30226 318.848986 
L 238.993499 278.553115 
L 239.68451 323.211908 
L 240.375507 294.283037 
L 241.066501 293.801329 
L 241.757432 322.33723 
L 242.448455 280.278063 
L 243.139673 319.255675 
L 243.830836 297.528826 
L 244.521338 293.748458 
L 245.212531 320.557615 
L 245.90414 281.987785 
L 246.59437 319.729841 
L 247.28522 294.047565 
L 247.976206 299.797312 
L 248.667097 314.785719 
L 249.357913 284.892688 
L 250.049006 321.193343 
L 250.740225 288.285432 
L 251.431545 309.174748 
L 252.121778 305.305154 
L 252.813533 291.853493 
L 253.503932 318.572131 
L 254.195425 286.255763 
L 254.886333 315.694783 
L 255.577129 296.409141 
L 256.268027 300.722252 
L 256.959027 311.888988 
L 257.650463 289.143883 
L 258.34112 317.100573 
L 259.03186 291.247672 
L 259.722617 308.307659 
L 260.415116 304.068591 
L 261.105499 295.1678 
L 261.795877 314.156258 
L 262.486946 290.738916 
L 263.178091 312.287344 
L 263.868888 297.968462 
L 264.559685 301.724907 
L 265.250705 308.802562 
L 265.941945 293.774338 
L 266.633245 312.181369 
L 267.324206 295.279185 
L 268.015188 306.375023 
L 268.705949 303.591158 
L 269.397019 298.306122 
L 270.087854 309.354215 
L 270.778832 296.034 
L 271.469806 307.839163 
L 272.16031 300.527705 
L 272.851703 302.154387 
L 273.54339 305.784917 
L 274.233715 298.733788 
L 274.925145 306.58838 
L 275.615701 300.237535 
L 276.306712 303.764748 
L 276.997657 303.428806 
L 277.68871 301.251395 
L 278.379707 304.593478 
L 279.070361 301.470826 
L 279.7612 303.417686 
L 281.143568 302.442276 
L 281.835664 302.865167 
L 352.314881 302.829553 
L 648.056364 302.829549 
L 648.74756 345.490216 
L 649.438548 471.933938 
L 650.129311 498.646049 
L 650.820347 557.035282 
L 651.511397 690.7481 
L 652.202445 688.635982 
L 652.89332 606.360614 
L 653.584181 643.282051 
L 654.275179 707.300335 
L 654.966239 632.377347 
L 655.658159 614.634388 
L 656.348218 697.612865 
L 657.040008 669.178236 
L 657.730507 608.30786 
L 658.421096 672.628131 
L 659.112019 692.589338 
L 659.803045 614.69838 
L 660.49399 646.773379 
L 661.18483 700.374101 
L 661.876242 626.675816 
L 662.567113 631.406043 
L 663.259711 699.889681 
L 663.94912 638.892183 
L 664.639914 624.486609 
L 665.331004 696.434083 
L 666.02175 648.220425 
L 666.714265 622.360496 
L 667.403702 693.210092 
L 668.094649 652.662361 
L 668.785895 622.927846 
L 669.476892 691.712585 
L 670.168004 652.07582 
L 670.859201 625.410102 
L 671.549625 691.913464 
L 672.241017 647.12858 
L 672.931879 630.212584 
L 673.622939 692.570711 
L 674.313537 639.288374 
L 675.004751 638.687161 
L 675.695524 691.347105 
L 676.386541 631.309606 
L 677.077723 652.800376 
L 677.768435 684.96158 
L 678.459697 626.252578 
L 679.150508 671.00643 
L 679.842125 669.73546 
L 680.532746 628.0394 
L 681.223577 685.274796 
L 681.914476 647.650006 
L 682.6056 640.884569 
L 683.296632 686.568317 
L 683.987545 631.878738 
L 684.678498 666.053912 
L 685.369391 669.590881 
L 686.060241 631.985767 
L 686.751528 684.592741 
L 687.44252 642.241927 
L 688.135058 653.077394 
L 688.824231 677.552331 
L 689.515363 632.289694 
L 690.206538 680.208569 
L 690.897662 647.991645 
L 691.588399 650.536191 
L 692.279368 677.449799 
L 692.970166 634.236189 
L 693.661405 679.537196 
L 694.352353 646.610738 
L 695.04329 655.668992 
L 695.7342 672.482682 
L 696.425347 637.312113 
L 697.116005 680.632329 
L 697.807188 641.674023 
L 698.498117 665.68465 
L 699.189337 662.65873 
L 699.880214 644.953521 
L 700.571601 677.867124 
L 701.261974 638.738577 
L 701.954317 675.462545 
L 702.644156 649.295378 
L 703.335171 659.829669 
L 704.026186 666.741438 
L 704.718984 644.679086 
L 705.408088 676.298157 
L 706.098798 641.296828 
L 706.789962 673.499383 
L 707.481033 650.054105 
L 708.172214 661.594904 
L 708.86292 663.664263 
L 709.554508 648.717723 
L 710.244977 672.703706 
L 710.937306 643.364906 
L 711.626865 672.902813 
L 712.317986 648.087553 
L 713.008935 664.771135 
L 714.391807 653.65042 
L 715.081829 667.992861 
L 715.772857 646.705418 
L 716.46385 670.827172 
L 717.15484 647.644028 
L 717.845804 666.569874 
L 718.536798 654.553163 
L 719.91882 662.644344 
L 720.610123 651.379791 
L 721.300623 667.06516 
L 721.992421 649.152326 
L 722.682726 666.512865 
L 723.373436 651.995116 
L 724.065086 662.096171 
L 724.75603 657.578678 
L 725.446571 656.362712 
L 726.137657 662.504567 
L 726.829011 652.362611 
L 727.51968 664.566784 
L 728.21129 651.728512 
L 728.901731 663.570739 
L 729.592438 654.018511 
L 730.283275 660.503063 
L 730.974417 657.511938 
L 731.666019 657.070906 
L 732.356355 660.293773 
L 733.047339 654.903805 
L 733.739029 661.409653 
L 734.42945 654.524284 
L 735.12058 661.009834 
L 735.811431 655.428384 
L 736.502497 659.739544 
L 737.193156 656.882654 
L 737.88429 658.289898 
L 738.575524 658.131923 
L 739.266792 657.4107 
L 739.957413 658.518157 
L 740.64839 657.584672 
L 741.338995 657.857925 
L 751.013569 657.91744 
L 802.836921 657.935681 
L 1063.337981 657.935692 
L 1064.028911 657.257237 
L 1064.719916 594.558365 
L 1065.411023 584.172201 
L 1066.102541 648.422117 
L 1066.793042 592.763895 
L 1067.484015 588.401152 
L 1068.17503 647.413163 
L 1068.866033 588.111387 
L 1069.556854 596.404258 
L 1070.247799 644.867609 
L 1070.938883 582.610706 
L 1072.320893 638.044372 
L 1073.012152 579.051402 
L 1073.703201 625.737752 
L 1074.393425 623.6652 
L 1075.08476 580.98567 
L 1075.77552 638.958045 
L 1076.466681 602.85753 
L 1077.158041 592.421715 
L 1077.849109 641.373533 
L 1078.539753 586.494669 
L 1079.230619 615.906858 
L 1079.921625 627.520838 
L 1080.612601 583.935744 
L 1081.303346 636.820305 
L 1081.994673 600.466356 
L 1082.685627 600.646287 
L 1083.376627 635.446743 
L 1084.067581 585.656446 
L 1084.758501 629.69883 
L 1085.449108 608.691942 
L 1086.140319 597.098754 
L 1086.831278 635.483735 
L 1087.522331 587.932427 
L 1088.213223 628.352821 
L 1088.904389 608.00465 
L 1089.596902 600.822735 
L 1090.286519 632.105509 
L 1090.977636 589.25029 
L 1091.668177 631.695336 
L 1092.359716 601.247575 
L 1093.051197 610.78785 
L 1093.741426 624.080112 
L 1094.43219 593.283089 
L 1095.122949 633.41063 
L 1095.814093 594.232124 
L 1096.505306 623.686209 
L 1097.196631 610.517186 
L 1097.887242 605.26798 
L 1098.578313 626.846473 
L 1099.269175 594.291736 
L 1099.960174 630.888071 
L 1100.650914 597.414278 
L 1101.343527 622.12014 
L 1102.032953 610.770894 
L 1102.724838 607.692425 
L 1103.415528 623.724737 
L 1104.105923 597.545907 
L 1104.797223 628.542921 
L 1105.487994 597.817219 
L 1106.180523 623.570943 
L 1106.870108 607.108565 
L 1107.560901 612.213182 
L 1108.251803 618.666276 
L 1108.942876 601.932699 
L 1109.633551 625.088198 
L 1110.32496 599.211471 
L 1111.015814 623.621512 
L 1111.707867 604.545854 
L 1112.398202 615.769114 
L 1113.089108 613.721164 
L 1113.780809 606.790036 
L 1114.470857 620.56016 
L 1115.161836 602.273636 
L 1115.85289 621.797244 
L 1116.543897 603.907398 
L 1117.23497 617.70352 
L 1117.925887 609.589203 
L 1118.617113 611.395234 
L 1119.307994 615.458721 
L 1119.998792 606.546526 
L 1120.690059 618.339898 
L 1121.380789 605.273857 
L 1122.071668 617.718057 
L 1122.762683 607.386323 
L 1123.453708 614.598495 
L 1124.14472 611.130526 
L 1124.835686 610.846232 
L 1125.526645 614.25165 
L 1126.217551 608.416564 
L 1126.910529 615.481386 
L 1127.601298 608.06044 
L 1128.290508 614.918553 
L 1128.981334 609.222334 
L 1129.672688 613.35034 
L 1130.363455 610.897385 
L 1131.05459 611.755252 
L 1131.745648 612.20298 
L 1132.436442 610.903988 
L 1133.127795 612.506614 
L 1133.819315 611.156705 
L 1134.509226 611.81904 
L 1142.110309 611.746807 
L 1166.98583 611.702868 
L 1479.310477 611.701543 
L 1480.001828 633.965518 
L 1480.692809 740.286901 
L 1481.383234 779.575085 
L 1482.074327 847.212504 
L 1482.765726 936.305028 
L 1483.456673 912.212716 
L 1484.147601 949.667053 
L 1484.838226 949.072874 
L 1485.529314 914.24608 
L 1486.220344 963.620645 
L 1486.911489 928.004231 
L 1487.602558 928.969912 
L 1488.293445 962.312205 
L 1488.984549 915.356718 
L 1489.675507 951.785615 
L 1490.366253 944.574456 
L 1491.057303 919.396233 
L 1491.748516 963.282617 
L 1492.439698 922.462163 
L 1493.130482 940.946094 
L 1493.821184 953.502597 
L 1494.512429 917.324382 
L 1495.203707 960.061737 
L 1495.894067 929.533818 
L 1496.585406 934.797387 
L 1497.276371 956.610925 
L 1497.967827 918.045375 
L 1498.658309 957.245984 
L 1499.349526 933.220723 
L 1500.041925 933.202681 
L 1500.731618 956.552268 
L 1501.422562 919.27068 
L 1502.113335 956.298259 
L 1502.805013 933.167004 
L 1503.495105 935.188296 
L 1504.186005 954.437566 
L 1504.877056 920.687803 
L 1505.568193 956.76333 
L 1506.259375 930.141715 
L 1507.641092 950.023408 
L 1508.332136 923.446304 
L 1509.023002 957.071269 
L 1509.714128 925.764851 
L 1510.404817 946.882987 
L 1511.096957 942.866642 
L 1511.78694 929.673654 
L 1512.477792 954.763155 
L 1513.168958 923.347094 
L 1513.859725 952.631744 
L 1514.550687 933.585997 
L 1515.241833 939.31502 
L 1515.932835 948.1839 
L 1516.624187 926.370801 
L 1517.315204 953.987739 
L 1518.005934 926.502371 
L 1518.697002 947.960266 
L 1519.387925 938.467802 
L 1520.079382 934.849231 
L 1520.76985 949.667653 
L 1521.460923 926.222752 
L 1522.152908 951.74759 
L 1522.842934 929.727436 
L 1523.534048 944.31419 
L 1524.22459 940.84137 
L 1524.915798 933.062765 
L 1525.606431 949.028797 
L 1526.297392 927.547471 
L 1526.988548 949.335885 
L 1527.681254 931.668833 
L 1528.370628 942.569623 
L 1529.06167 940.755772 
L 1529.752634 933.622133 
L 1530.44381 947.053899 
L 1531.134644 929.3509 
L 1531.825569 947.457573 
L 1532.516566 932.083305 
L 1533.207435 942.66398 
L 1533.898394 938.701833 
L 1534.589396 935.931336 
L 1535.281254 944.029141 
L 1535.971279 931.809626 
L 1536.662618 945.51636 
L 1537.353509 932.091784 
L 1538.045396 943.533455 
L 1538.735487 935.449792 
L 1539.426367 939.572999 
L 1540.116919 939.355046 
L 1540.80861 936.019276 
L 1541.499269 941.845292 
L 1542.190413 934.324907 
L 1542.881344 942.437271 
L 1543.572791 934.506123 
L 1544.263394 941.606023 
L 1544.954101 935.851698 
L 1545.645003 939.921744 
L 1546.336243 937.628491 
L 1547.718186 938.992371 
L 1548.409207 937.351462 
L 1549.100627 939.334719 
L 1549.792179 937.56323 
L 1550.482176 938.685432 
L 1551.172878 938.448996 
L 1553.246109 938.388581 
L 1576.048354 938.336353 
L 1832.403758 938.33271 
L 1894.592186 938.332305 
L 1895.283538 937.493629 
L 1895.974454 881.51465 
L 1896.665103 701.100717 
L 1897.356442 593.608703 
L 1898.047355 566.611576 
L 1899.429367 292.083961 
L 1900.12054 292.033439 
L 1900.811829 412.994431 
L 1901.502304 489.770709 
L 1902.19336 419.024824 
L 1902.884031 298.756813 
L 1903.575011 301.247525 
L 1904.266059 421.719011 
L 1904.957262 481.969086 
L 1906.339448 296.557059 
L 1907.030156 323.274227 
L 1907.721224 446.935543 
L 1908.412085 466.003208 
L 1909.103024 352.137337 
L 1909.794034 298.323842 
L 1910.485161 369.545176 
L 1911.175972 467.803861 
L 1911.867282 423.261051 
L 1912.557996 314.608742 
L 1913.249054 324.606086 
L 1913.940049 437.442226 
L 1914.630811 454.483399 
L 1915.321778 346.442723 
L 1916.012902 312.155642 
L 1916.703652 401.385542 
L 1917.395222 459.944222 
L 1918.085803 376.266742 
L 1918.777408 313.612295 
L 1919.467831 376.967845 
L 1920.158603 456.191646 
L 1920.849857 393.107109 
L 1921.54061 318.392601 
L 1922.231615 369.506794 
L 1922.922843 451.867285 
L 1923.613616 394.525582 
L 1924.304847 322.152349 
L 1924.997475 375.413921 
L 1925.686805 448.974681 
L 1927.068698 325.58326 
L 1927.759595 393.565402 
L 1928.450877 444.173128 
L 1929.141556 361.871459 
L 1929.832563 333.503031 
L 1930.523654 418.744805 
L 1931.214364 429.885979 
L 1931.906673 341.973724 
L 1932.597627 354.081349 
L 1933.288084 436.921254 
L 1933.978432 395.735741 
L 1934.670384 334.555621 
L 1935.360518 396.625889 
L 1936.05149 433.249455 
L 1936.743016 352.635453 
L 1937.433626 353.116629 
L 1938.124454 431.806492 
L 1938.815782 392.195741 
L 1939.506947 339.976097 
L 1940.197707 407.037716 
L 1940.888475 421.756654 
L 1941.57923 346.217129 
L 1942.270464 375.667894 
L 1942.961397 430.528583 
L 1943.652577 362.262276 
L 1944.343086 357.120013 
L 1945.03405 427.51257 
L 1945.726901 381.076671 
L 1946.416049 349.837923 
L 1947.107219 419.804875 
L 1947.798168 395.572741 
L 1948.489362 348.429631 
L 1949.18027 412.286448 
L 1949.871342 403.266024 
L 1950.563134 349.418946 
L 1951.253239 407.565929 
L 1951.943757 405.463403 
L 1952.635143 350.971976 
L 1953.32614 406.753688 
L 1954.01689 403.4003 
L 1954.708063 352.631837 
L 1955.399087 409.462578 
L 1956.08984 397.269673 
L 1956.780802 355.150703 
L 1957.471809 413.998193 
L 1958.853629 360.305409 
L 1959.544721 417.779912 
L 1960.235984 373.843544 
L 1960.927078 370.744264 
L 1961.617988 417.223032 
L 1962.308686 362.869466 
L 1962.999927 388.530535 
L 1963.690995 408.01649 
L 1964.381654 358.952179 
L 1965.072432 407.387968 
L 1966.454776 366.759904 
L 1967.145854 414.592423 
L 1967.836788 366.853875 
L 1968.527652 389.638892 
L 1969.218818 402.720369 
L 1969.909506 362.864813 
L 1970.600845 410.526174 
L 1971.291806 375.629716 
L 1971.982467 381.782214 
L 1972.673779 405.975269 
L 1973.364685 364.203396 
L 1974.055513 407.849387 
L 1974.74637 377.42875 
L 1975.437653 383.269606 
L 1976.12838 402.962899 
L 1976.819677 366.578716 
L 1977.510579 408.34423 
L 1978.20133 373.228408 
L 1978.892624 391.519956 
L 1979.583599 394.298187 
L 1980.274537 372.554775 
L 1980.965424 407.167616 
L 1981.656536 369.120951 
L 1982.347443 401.865578 
L 1983.038221 381.66407 
L 1983.729153 385.173486 
L 1984.420465 398.529054 
L 1985.111286 372.191221 
L 1985.802179 405.266786 
L 1986.493025 372.597591 
L 1987.184244 398.051232 
L 1987.875091 385.072538 
L 1988.566658 383.283852 
L 1989.257367 398.713954 
L 1989.948308 373.585962 
L 1990.639363 402.504145 
L 1991.33031 375.923977 
L 1992.021182 394.696076 
L 1992.712262 387.505778 
L 1993.402957 382.222872 
L 1994.094276 397.977299 
L 1994.785279 375.750348 
L 1995.476202 399.290382 
L 1996.167179 379.368707 
L 1996.858203 391.6526 
L 1997.549173 389.248421 
L 1998.240536 382.039566 
L 1998.931476 396.356858 
L 1999.621852 378.573751 
L 2000.313116 395.765036 
L 2001.004017 382.746204 
L 2001.695087 389.123987 
L 2002.386202 390.090837 
L 2003.077155 382.894391 
L 2003.76814 393.802123 
L 2004.459475 381.942444 
L 2005.150034 392.064304 
L 2005.840858 385.702693 
L 2006.531732 387.509112 
L 2007.222714 389.695238 
L 2007.914348 384.942302 
L 2008.605268 390.465198 
L 2009.296099 385.654156 
L 2009.986783 388.752085 
L 2010.677915 387.499638 
L 2011.368752 387.35881 
L 2012.05955 388.127354 
L 2012.750567 387.617167 
L 2041.08089 387.69276 
L 2310.565288 387.694455 
L 2311.256132 393.708334 
L 2312.638047 583.992411 
L 2313.3297 602.104842 
L 2314.020023 719.539181 
L 2314.710956 763.793358 
L 2315.402017 790.953249 
L 2316.093034 913.788023 
L 2316.78374 932.846685 
L 2317.475088 885.180859 
L 2318.165941 947.39013 
L 2318.856978 981.080815 
L 2319.548036 901.050733 
L 2320.238662 905.677643 
L 2320.929905 982.226877 
L 2322.311645 891.562688 
L 2323.002832 959.806826 
L 2323.693876 967.643183 
L 2324.384579 895.546523 
L 2325.07579 930.572877 
L 2325.767947 979.071626 
L 2326.458133 908.867897 
L 2327.148666 911.772006 
L 2327.84006 978.577708 
L 2328.530757 924.87338 
L 2329.221739 903.546408 
L 2329.912875 972.834041 
L 2331.294422 901.153414 
L 2331.985642 966.41585 
L 2332.676616 946.67089 
L 2333.36814 901.549785 
L 2334.058587 962.201156 
L 2334.749454 949.455812 
L 2335.440335 902.962638 
L 2336.131962 961.269287 
L 2336.822547 947.89799 
L 2337.513976 904.9497 
L 2338.204244 963.274751 
L 2338.895695 942.424338 
L 2339.586301 908.098069 
L 2340.277208 966.860031 
L 2340.968147 933.43419 
L 2341.659477 913.766666 
L 2342.350344 969.422753 
L 2343.04102 922.675996 
L 2343.732277 924.086433 
L 2344.423345 967.831498 
L 2345.114378 913.938215 
L 2345.805411 940.448858 
L 2346.496235 958.543524 
L 2347.187117 910.841005 
L 2347.878328 957.317939 
L 2348.569006 940.884738 
L 2349.260245 916.981117 
L 2349.952059 965.854732 
L 2350.642122 921.910466 
L 2351.33351 935.127464 
L 2352.02395 959.428384 
L 2352.71498 914.001341 
L 2353.406143 956.265658 
L 2354.78822 921.86557 
L 2355.479444 963.61588 
L 2356.16997 919.625586 
L 2356.861633 944.794903 
L 2357.551986 950.666324 
L 2358.24292 917.89764 
L 2358.934182 961.408369 
L 2359.625011 926.718497 
L 2360.316036 937.29732 
L 2361.006944 955.344738 
L 2361.698243 917.85621 
L 2362.388883 958.459089 
L 2363.079809 931.400434 
L 2363.770956 934.40591 
L 2364.461938 956.140192 
L 2365.152978 918.990412 
L 2365.844163 956.961458 
L 2366.534626 932.396322 
L 2367.22587 935.460433 
L 2367.916889 954.559968 
L 2368.607807 920.316243 
L 2369.299235 957.058213 
L 2369.990753 930.218973 
L 2370.680928 939.556406 
L 2371.37205 950.83345 
L 2372.062538 922.710942 
L 2372.75428 957.322865 
L 2373.445064 926.303644 
L 2374.135794 945.737832 
L 2374.826704 944.490906 
L 2375.517713 927.94238 
L 2376.20843 955.746418 
L 2376.899821 923.357073 
L 2377.590361 951.763206 
L 2378.281622 935.683825 
L 2378.972614 936.910291 
L 2379.663621 950.29138 
L 2380.354307 924.906117 
L 2381.045887 954.3779 
L 2381.736503 927.599056 
L 2382.427466 946.271439 
L 2383.118479 941.029707 
L 2383.809824 932.349854 
L 2384.50051 951.433667 
L 2385.191416 925.383584 
L 2385.883005 951.567793 
L 2386.573193 931.466265 
L 2387.264246 942.178736 
L 2387.956829 943.556287 
L 2388.646472 930.595228 
L 2389.337412 950.645909 
L 2390.028287 927.084276 
L 2390.719145 948.860195 
L 2391.410966 933.748035 
L 2392.101288 940.123746 
L 2392.792347 943.621521 
L 2393.483173 931.06324 
L 2394.174727 948.724322 
L 2394.865278 928.838984 
L 2395.555804 946.991319 
L 2396.247226 934.102104 
L 2396.938233 940.232243 
L 2397.629282 941.684228 
L 2398.320243 933.167009 
L 2399.011584 946.086794 
L 2399.702091 930.609428 
L 2400.392887 945.798516 
L 2401.083897 933.12298 
L 2401.775037 941.880812 
L 2402.466385 938.091844 
L 2403.157036 936.833187 
L 2403.847992 942.153326 
L 2404.539477 933.643915 
L 2405.229901 943.655198 
L 2405.920906 933.231704 
L 2406.612076 942.866118 
L 2407.303075 934.792737 
L 2407.993732 940.755697 
L 2408.685161 937.107792 
L 2409.376061 938.428105 
L 2410.066709 939.207967 
L 2410.757622 936.755459 
L 2411.44926 940.282982 
L 2412.14096 936.288745 
L 2412.830965 940.188949 
L 2413.521855 936.884963 
L 2414.213862 939.256204 
L 2414.903896 937.936845 
L 2416.285806 938.57779 
L 2417.667823 938.48523 
L 2428.723044 938.367206 
L 2462.582082 938.332456 
L 2601.469687 938.334971 
L 2713.409203 938.330678 
L 2750.031344 938.334472 
L 2750.031344 938.334472 
" style="fill:none;stroke:#ff0000;stroke-linecap:square;stroke-width:3;"/>
   </g>
   <g id="patch_3">
    <path d="M 83.694615 1021.480385 
L 83.694615 157.9032 
" style="fill:none;stroke:#000000;stroke-linecap:square;stroke-linejoin:miter;stroke-width:0.8;"/>
   </g>
   <g id="patch_4">
    <path d="M 2876.99976 1021.480385 
L 2876.99976 157.9032 
" style="fill:none;stroke:#000000;stroke-linecap:square;stroke-linejoin:miter;stroke-width:0.8;"/>
   </g>
   <g id="patch_5">
    <path d="M 83.694615 1021.480385 
L 2876.99976 1021.480385 
" style="fill:none;stroke:#000000;stroke-linecap:square;stroke-linejoin:miter;stroke-width:0.8;"/>
   </g>
   <g id="patch_6">
    <path d="M 83.694615 157.9032 
L 2876.99976 157.9032 
" style="fill:none;stroke:#000000;stroke-linecap:square;stroke-linejoin:miter;stroke-width:0.8;"/>
   </g>
   <g id="text_20">
    <!-- Biceps (red) and Triceps (green) -->
    <defs>
     <path d="M 19.671875 34.8125 
L 19.671875 8.109375 
L 35.5 8.109375 
Q 43.453125 8.109375 47.28125 11.40625 
Q 51.125 14.703125 51.125 21.484375 
Q 51.125 28.328125 47.28125 31.5625 
Q 43.453125 34.8125 35.5 34.8125 
z
M 19.671875 64.796875 
L 19.671875 42.828125 
L 34.28125 42.828125 
Q 41.5 42.828125 45.03125 45.53125 
Q 48.578125 48.25 48.578125 53.8125 
Q 48.578125 59.328125 45.03125 62.0625 
Q 41.5 64.796875 34.28125 64.796875 
z
M 9.8125 72.90625 
L 35.015625 72.90625 
Q 46.296875 72.90625 52.390625 68.21875 
Q 58.5 63.53125 58.5 54.890625 
Q 58.5 48.1875 55.375 44.234375 
Q 52.25 40.28125 46.1875 39.3125 
Q 53.46875 37.75 57.5 32.78125 
Q 61.53125 27.828125 61.53125 20.40625 
Q 61.53125 10.640625 54.890625 5.3125 
Q 48.25 0 35.984375 0 
L 9.8125 0 
z
" id="DejaVuSans-66"/>
     <path d="M 48.78125 52.59375 
L 48.78125 44.1875 
Q 44.96875 46.296875 41.140625 47.34375 
Q 37.3125 48.390625 33.40625 48.390625 
Q 24.65625 48.390625 19.8125 42.84375 
Q 14.984375 37.3125 14.984375 27.296875 
Q 14.984375 17.28125 19.8125 11.734375 
Q 24.65625 6.203125 33.40625 6.203125 
Q 37.3125 6.203125 41.140625 7.25 
Q 44.96875 8.296875 48.78125 10.40625 
L 48.78125 2.09375 
Q 45.015625 0.34375 40.984375 -0.53125 
Q 36.96875 -1.421875 32.421875 -1.421875 
Q 20.0625 -1.421875 12.78125 6.34375 
Q 5.515625 14.109375 5.515625 27.296875 
Q 5.515625 40.671875 12.859375 48.328125 
Q 20.21875 56 33.015625 56 
Q 37.15625 56 41.109375 55.140625 
Q 45.0625 54.296875 48.78125 52.59375 
z
" id="DejaVuSans-99"/>
     <path d="M 18.109375 8.203125 
L 18.109375 -20.796875 
L 9.078125 -20.796875 
L 9.078125 54.6875 
L 18.109375 54.6875 
L 18.109375 46.390625 
Q 20.953125 51.265625 25.265625 53.625 
Q 29.59375 56 35.59375 56 
Q 45.5625 56 51.78125 48.09375 
Q 58.015625 40.1875 58.015625 27.296875 
Q 58.015625 14.40625 51.78125 6.484375 
Q 45.5625 -1.421875 35.59375 -1.421875 
Q 29.59375 -1.421875 25.265625 0.953125 
Q 20.953125 3.328125 18.109375 8.203125 
z
M 48.6875 27.296875 
Q 48.6875 37.203125 44.609375 42.84375 
Q 40.53125 48.484375 33.40625 48.484375 
Q 26.265625 48.484375 22.1875 42.84375 
Q 18.109375 37.203125 18.109375 27.296875 
Q 18.109375 17.390625 22.1875 11.75 
Q 26.265625 6.109375 33.40625 6.109375 
Q 40.53125 6.109375 44.609375 11.75 
Q 48.6875 17.390625 48.6875 27.296875 
z
" id="DejaVuSans-112"/>
     <path d="M 31 75.875 
Q 24.46875 64.65625 21.28125 53.65625 
Q 18.109375 42.671875 18.109375 31.390625 
Q 18.109375 20.125 21.3125 9.0625 
Q 24.515625 -2 31 -13.1875 
L 23.1875 -13.1875 
Q 15.875 -1.703125 12.234375 9.375 
Q 8.59375 20.453125 8.59375 31.390625 
Q 8.59375 42.28125 12.203125 53.3125 
Q 15.828125 64.359375 23.1875 75.875 
z
" id="DejaVuSans-40"/>
     <path d="M 41.109375 46.296875 
Q 39.59375 47.171875 37.8125 47.578125 
Q 36.03125 48 33.890625 48 
Q 26.265625 48 22.1875 43.046875 
Q 18.109375 38.09375 18.109375 28.8125 
L 18.109375 0 
L 9.078125 0 
L 9.078125 54.6875 
L 18.109375 54.6875 
L 18.109375 46.1875 
Q 20.953125 51.171875 25.484375 53.578125 
Q 30.03125 56 36.53125 56 
Q 37.453125 56 38.578125 55.875 
Q 39.703125 55.765625 41.0625 55.515625 
z
" id="DejaVuSans-114"/>
     <path d="M 45.40625 46.390625 
L 45.40625 75.984375 
L 54.390625 75.984375 
L 54.390625 0 
L 45.40625 0 
L 45.40625 8.203125 
Q 42.578125 3.328125 38.25 0.953125 
Q 33.9375 -1.421875 27.875 -1.421875 
Q 17.96875 -1.421875 11.734375 6.484375 
Q 5.515625 14.40625 5.515625 27.296875 
Q 5.515625 40.1875 11.734375 48.09375 
Q 17.96875 56 27.875 56 
Q 33.9375 56 38.25 53.625 
Q 42.578125 51.265625 45.40625 46.390625 
z
M 14.796875 27.296875 
Q 14.796875 17.390625 18.875 11.75 
Q 22.953125 6.109375 30.078125 6.109375 
Q 37.203125 6.109375 41.296875 11.75 
Q 45.40625 17.390625 45.40625 27.296875 
Q 45.40625 37.203125 41.296875 42.84375 
Q 37.203125 48.484375 30.078125 48.484375 
Q 22.953125 48.484375 18.875 42.84375 
Q 14.796875 37.203125 14.796875 27.296875 
z
" id="DejaVuSans-100"/>
     <path d="M 8.015625 75.875 
L 15.828125 75.875 
Q 23.140625 64.359375 26.78125 53.3125 
Q 30.421875 42.28125 30.421875 31.390625 
Q 30.421875 20.453125 26.78125 9.375 
Q 23.140625 -1.703125 15.828125 -13.1875 
L 8.015625 -13.1875 
Q 14.5 -2 17.703125 9.0625 
Q 20.90625 20.125 20.90625 31.390625 
Q 20.90625 42.671875 17.703125 53.65625 
Q 14.5 64.65625 8.015625 75.875 
z
" id="DejaVuSans-41"/>
     <path d="M 34.28125 27.484375 
Q 23.390625 27.484375 19.1875 25 
Q 14.984375 22.515625 14.984375 16.5 
Q 14.984375 11.71875 18.140625 8.90625 
Q 21.296875 6.109375 26.703125 6.109375 
Q 34.1875 6.109375 38.703125 11.40625 
Q 43.21875 16.703125 43.21875 25.484375 
L 43.21875 27.484375 
z
M 52.203125 31.203125 
L 52.203125 0 
L 43.21875 0 
L 43.21875 8.296875 
Q 40.140625 3.328125 35.546875 0.953125 
Q 30.953125 -1.421875 24.3125 -1.421875 
Q 15.921875 -1.421875 10.953125 3.296875 
Q 6 8.015625 6 15.921875 
Q 6 25.140625 12.171875 29.828125 
Q 18.359375 34.515625 30.609375 34.515625 
L 43.21875 34.515625 
L 43.21875 35.40625 
Q 43.21875 41.609375 39.140625 45 
Q 35.0625 48.390625 27.6875 48.390625 
Q 23 48.390625 18.546875 47.265625 
Q 14.109375 46.140625 10.015625 43.890625 
L 10.015625 52.203125 
Q 14.9375 54.109375 19.578125 55.046875 
Q 24.21875 56 28.609375 56 
Q 40.484375 56 46.34375 49.84375 
Q 52.203125 43.703125 52.203125 31.203125 
z
" id="DejaVuSans-97"/>
    </defs>
    <g transform="translate(1205.159688 150.832262)scale(0.34 -0.34)">
     <use xlink:href="#DejaVuSans-66"/>
     <use x="68.603516" xlink:href="#DejaVuSans-105"/>
     <use x="96.386719" xlink:href="#DejaVuSans-99"/>
     <use x="151.367188" xlink:href="#DejaVuSans-101"/>
     <use x="212.890625" xlink:href="#DejaVuSans-112"/>
     <use x="276.367188" xlink:href="#DejaVuSans-115"/>
     <use x="328.466797" xlink:href="#DejaVuSans-32"/>
     <use x="360.253906" xlink:href="#DejaVuSans-40"/>
     <use x="399.267578" xlink:href="#DejaVuSans-114"/>
     <use x="440.349609" xlink:href="#DejaVuSans-101"/>
     <use x="501.873047" xlink:href="#DejaVuSans-100"/>
     <use x="565.349609" xlink:href="#DejaVuSans-41"/>
     <use x="604.363281" xlink:href="#DejaVuSans-32"/>
     <use x="636.150391" xlink:href="#DejaVuSans-97"/>
     <use x="697.429688" xlink:href="#DejaVuSans-110"/>
     <use x="760.808594" xlink:href="#DejaVuSans-100"/>
     <use x="824.285156" xlink:href="#DejaVuSans-32"/>
     <use x="856.072266" xlink:href="#DejaVuSans-84"/>
     <use x="916.9375" xlink:href="#DejaVuSans-114"/>
     <use x="958.050781" xlink:href="#DejaVuSans-105"/>
     <use x="985.833984" xlink:href="#DejaVuSans-99"/>
     <use x="1040.814453" xlink:href="#DejaVuSans-101"/>
     <use x="1102.337891" xlink:href="#DejaVuSans-112"/>
     <use x="1165.814453" xlink:href="#DejaVuSans-115"/>
     <use x="1217.914062" xlink:href="#DejaVuSans-32"/>
     <use x="1249.701172" xlink:href="#DejaVuSans-40"/>
     <use x="1288.714844" xlink:href="#DejaVuSans-103"/>
     <use x="1352.191406" xlink:href="#DejaVuSans-114"/>
     <use x="1393.273438" xlink:href="#DejaVuSans-101"/>
     <use x="1454.796875" xlink:href="#DejaVuSans-101"/>
     <use x="1516.320312" xlink:href="#DejaVuSans-110"/>
     <use x="1579.699219" xlink:href="#DejaVuSans-41"/>
    </g>
   </g>
  </g>
  <g id="text_21">
   <!-- Setpoints (- -) and Lenghts () - P80000 I0 D0 -->
   <defs>
    <path d="M 53.515625 70.515625 
L 53.515625 60.890625 
Q 47.90625 63.578125 42.921875 64.890625 
Q 37.9375 66.21875 33.296875 66.21875 
Q 25.25 66.21875 20.875 63.09375 
Q 16.5 59.96875 16.5 54.203125 
Q 16.5 49.359375 19.40625 46.890625 
Q 22.3125 44.4375 30.421875 42.921875 
L 36.375 41.703125 
Q 47.40625 39.59375 52.65625 34.296875 
Q 57.90625 29 57.90625 20.125 
Q 57.90625 9.515625 50.796875 4.046875 
Q 43.703125 -1.421875 29.984375 -1.421875 
Q 24.8125 -1.421875 18.96875 -0.25 
Q 13.140625 0.921875 6.890625 3.21875 
L 6.890625 13.375 
Q 12.890625 10.015625 18.65625 8.296875 
Q 24.421875 6.59375 29.984375 6.59375 
Q 38.421875 6.59375 43.015625 9.90625 
Q 47.609375 13.234375 47.609375 19.390625 
Q 47.609375 24.75 44.3125 27.78125 
Q 41.015625 30.8125 33.5 32.328125 
L 27.484375 33.5 
Q 16.453125 35.6875 11.515625 40.375 
Q 6.59375 45.0625 6.59375 53.421875 
Q 6.59375 63.09375 13.40625 68.65625 
Q 20.21875 74.21875 32.171875 74.21875 
Q 37.3125 74.21875 42.625 73.28125 
Q 47.953125 72.359375 53.515625 70.515625 
z
" id="DejaVuSans-83"/>
    <path d="M 30.609375 48.390625 
Q 23.390625 48.390625 19.1875 42.75 
Q 14.984375 37.109375 14.984375 27.296875 
Q 14.984375 17.484375 19.15625 11.84375 
Q 23.34375 6.203125 30.609375 6.203125 
Q 37.796875 6.203125 41.984375 11.859375 
Q 46.1875 17.53125 46.1875 27.296875 
Q 46.1875 37.015625 41.984375 42.703125 
Q 37.796875 48.390625 30.609375 48.390625 
z
M 30.609375 56 
Q 42.328125 56 49.015625 48.375 
Q 55.71875 40.765625 55.71875 27.296875 
Q 55.71875 13.875 49.015625 6.21875 
Q 42.328125 -1.421875 30.609375 -1.421875 
Q 18.84375 -1.421875 12.171875 6.21875 
Q 5.515625 13.875 5.515625 27.296875 
Q 5.515625 40.765625 12.171875 48.375 
Q 18.84375 56 30.609375 56 
z
" id="DejaVuSans-111"/>
    <path d="M 4.890625 31.390625 
L 31.203125 31.390625 
L 31.203125 23.390625 
L 4.890625 23.390625 
z
" id="DejaVuSans-45"/>
    <path d="M 0 30.90625 
L 100 30.90625 
L 100 23.875 
L 0 23.875 
z
" id="DejaVuSans-8213"/>
    <path d="M 19.671875 64.796875 
L 19.671875 37.40625 
L 32.078125 37.40625 
Q 38.96875 37.40625 42.71875 40.96875 
Q 46.484375 44.53125 46.484375 51.125 
Q 46.484375 57.671875 42.71875 61.234375 
Q 38.96875 64.796875 32.078125 64.796875 
z
M 9.8125 72.90625 
L 32.078125 72.90625 
Q 44.34375 72.90625 50.609375 67.359375 
Q 56.890625 61.8125 56.890625 51.125 
Q 56.890625 40.328125 50.609375 34.8125 
Q 44.34375 29.296875 32.078125 29.296875 
L 19.671875 29.296875 
L 19.671875 0 
L 9.8125 0 
z
" id="DejaVuSans-80"/>
    <path d="M 9.8125 72.90625 
L 19.671875 72.90625 
L 19.671875 0 
L 9.8125 0 
z
" id="DejaVuSans-73"/>
    <path d="M 19.671875 64.796875 
L 19.671875 8.109375 
L 31.59375 8.109375 
Q 46.6875 8.109375 53.6875 14.9375 
Q 60.6875 21.78125 60.6875 36.53125 
Q 60.6875 51.171875 53.6875 57.984375 
Q 46.6875 64.796875 31.59375 64.796875 
z
M 9.8125 72.90625 
L 30.078125 72.90625 
Q 51.265625 72.90625 61.171875 64.09375 
Q 71.09375 55.28125 71.09375 36.53125 
Q 71.09375 17.671875 61.125 8.828125 
Q 51.171875 0 30.078125 0 
L 9.8125 0 
z
" id="DejaVuSans-68"/>
   </defs>
   <g transform="translate(1050.875312 28.834927)scale(0.34 -0.34)">
    <use xlink:href="#DejaVuSans-83"/>
    <use x="63.476562" xlink:href="#DejaVuSans-101"/>
    <use x="125" xlink:href="#DejaVuSans-116"/>
    <use x="164.208984" xlink:href="#DejaVuSans-112"/>
    <use x="227.685547" xlink:href="#DejaVuSans-111"/>
    <use x="288.867188" xlink:href="#DejaVuSans-105"/>
    <use x="316.650391" xlink:href="#DejaVuSans-110"/>
    <use x="380.029297" xlink:href="#DejaVuSans-116"/>
    <use x="419.238281" xlink:href="#DejaVuSans-115"/>
    <use x="471.337891" xlink:href="#DejaVuSans-32"/>
    <use x="503.125" xlink:href="#DejaVuSans-40"/>
    <use x="542.138672" xlink:href="#DejaVuSans-45"/>
    <use x="578.222656" xlink:href="#DejaVuSans-45"/>
    <use x="614.306641" xlink:href="#DejaVuSans-41"/>
    <use x="653.320312" xlink:href="#DejaVuSans-32"/>
    <use x="685.107422" xlink:href="#DejaVuSans-97"/>
    <use x="746.386719" xlink:href="#DejaVuSans-110"/>
    <use x="809.765625" xlink:href="#DejaVuSans-100"/>
    <use x="873.242188" xlink:href="#DejaVuSans-32"/>
    <use x="905.029297" xlink:href="#DejaVuSans-76"/>
    <use x="960.726562" xlink:href="#DejaVuSans-101"/>
    <use x="1022.25" xlink:href="#DejaVuSans-110"/>
    <use x="1085.628906" xlink:href="#DejaVuSans-103"/>
    <use x="1149.105469" xlink:href="#DejaVuSans-104"/>
    <use x="1212.484375" xlink:href="#DejaVuSans-116"/>
    <use x="1251.693359" xlink:href="#DejaVuSans-115"/>
    <use x="1303.792969" xlink:href="#DejaVuSans-32"/>
    <use x="1335.580078" xlink:href="#DejaVuSans-40"/>
    <use x="1374.59375" xlink:href="#DejaVuSans-8213"/>
    <use x="1474.59375" xlink:href="#DejaVuSans-41"/>
    <use x="1513.607422" xlink:href="#DejaVuSans-32"/>
    <use x="1545.394531" xlink:href="#DejaVuSans-45"/>
    <use x="1581.478516" xlink:href="#DejaVuSans-32"/>
    <use x="1613.265625" xlink:href="#DejaVuSans-80"/>
    <use x="1673.568359" xlink:href="#DejaVuSans-56"/>
    <use x="1737.191406" xlink:href="#DejaVuSans-48"/>
    <use x="1800.814453" xlink:href="#DejaVuSans-48"/>
    <use x="1864.4375" xlink:href="#DejaVuSans-48"/>
    <use x="1928.060547" xlink:href="#DejaVuSans-48"/>
    <use x="1991.683594" xlink:href="#DejaVuSans-32"/>
    <use x="2023.470703" xlink:href="#DejaVuSans-73"/>
    <use x="2052.962891" xlink:href="#DejaVuSans-48"/>
    <use x="2116.585938" xlink:href="#DejaVuSans-32"/>
    <use x="2148.373047" xlink:href="#DejaVuSans-68"/>
    <use x="2225.375" xlink:href="#DejaVuSans-48"/>
   </g>
   <!-- Bagfile elbow_left_D from 10s for 367s - Logging Rate 10 - Simulation Rate 800 - 100.00% real time speed -->
   <defs>
    <path d="M 37.109375 75.984375 
L 37.109375 68.5 
L 28.515625 68.5 
Q 23.6875 68.5 21.796875 66.546875 
Q 19.921875 64.59375 19.921875 59.515625 
L 19.921875 54.6875 
L 34.71875 54.6875 
L 34.71875 47.703125 
L 19.921875 47.703125 
L 19.921875 0 
L 10.890625 0 
L 10.890625 47.703125 
L 2.296875 47.703125 
L 2.296875 54.6875 
L 10.890625 54.6875 
L 10.890625 58.5 
Q 10.890625 67.625 15.140625 71.796875 
Q 19.390625 75.984375 28.609375 75.984375 
z
" id="DejaVuSans-102"/>
    <path d="M 9.421875 75.984375 
L 18.40625 75.984375 
L 18.40625 0 
L 9.421875 0 
z
" id="DejaVuSans-108"/>
    <path d="M 48.6875 27.296875 
Q 48.6875 37.203125 44.609375 42.84375 
Q 40.53125 48.484375 33.40625 48.484375 
Q 26.265625 48.484375 22.1875 42.84375 
Q 18.109375 37.203125 18.109375 27.296875 
Q 18.109375 17.390625 22.1875 11.75 
Q 26.265625 6.109375 33.40625 6.109375 
Q 40.53125 6.109375 44.609375 11.75 
Q 48.6875 17.390625 48.6875 27.296875 
z
M 18.109375 46.390625 
Q 20.953125 51.265625 25.265625 53.625 
Q 29.59375 56 35.59375 56 
Q 45.5625 56 51.78125 48.09375 
Q 58.015625 40.1875 58.015625 27.296875 
Q 58.015625 14.40625 51.78125 6.484375 
Q 45.5625 -1.421875 35.59375 -1.421875 
Q 29.59375 -1.421875 25.265625 0.953125 
Q 20.953125 3.328125 18.109375 8.203125 
L 18.109375 0 
L 9.078125 0 
L 9.078125 75.984375 
L 18.109375 75.984375 
z
" id="DejaVuSans-98"/>
    <path d="M 4.203125 54.6875 
L 13.1875 54.6875 
L 24.421875 12.015625 
L 35.59375 54.6875 
L 46.1875 54.6875 
L 57.421875 12.015625 
L 68.609375 54.6875 
L 77.59375 54.6875 
L 63.28125 0 
L 52.6875 0 
L 40.921875 44.828125 
L 29.109375 0 
L 18.5 0 
z
" id="DejaVuSans-119"/>
    <path d="M 50.984375 -16.609375 
L 50.984375 -23.578125 
L -0.984375 -23.578125 
L -0.984375 -16.609375 
z
" id="DejaVuSans-95"/>
    <path d="M 33.015625 40.375 
Q 26.375 40.375 22.484375 35.828125 
Q 18.609375 31.296875 18.609375 23.390625 
Q 18.609375 15.53125 22.484375 10.953125 
Q 26.375 6.390625 33.015625 6.390625 
Q 39.65625 6.390625 43.53125 10.953125 
Q 47.40625 15.53125 47.40625 23.390625 
Q 47.40625 31.296875 43.53125 35.828125 
Q 39.65625 40.375 33.015625 40.375 
z
M 52.59375 71.296875 
L 52.59375 62.3125 
Q 48.875 64.0625 45.09375 64.984375 
Q 41.3125 65.921875 37.59375 65.921875 
Q 27.828125 65.921875 22.671875 59.328125 
Q 17.53125 52.734375 16.796875 39.40625 
Q 19.671875 43.65625 24.015625 45.921875 
Q 28.375 48.1875 33.59375 48.1875 
Q 44.578125 48.1875 50.953125 41.515625 
Q 57.328125 34.859375 57.328125 23.390625 
Q 57.328125 12.15625 50.6875 5.359375 
Q 44.046875 -1.421875 33.015625 -1.421875 
Q 20.359375 -1.421875 13.671875 8.265625 
Q 6.984375 17.96875 6.984375 36.375 
Q 6.984375 53.65625 15.1875 63.9375 
Q 23.390625 74.21875 37.203125 74.21875 
Q 40.921875 74.21875 44.703125 73.484375 
Q 48.484375 72.75 52.59375 71.296875 
z
" id="DejaVuSans-54"/>
    <path d="M 44.390625 34.1875 
Q 47.5625 33.109375 50.5625 29.59375 
Q 53.5625 26.078125 56.59375 19.921875 
L 66.609375 0 
L 56 0 
L 46.6875 18.703125 
Q 43.0625 26.03125 39.671875 28.421875 
Q 36.28125 30.8125 30.421875 30.8125 
L 19.671875 30.8125 
L 19.671875 0 
L 9.8125 0 
L 9.8125 72.90625 
L 32.078125 72.90625 
Q 44.578125 72.90625 50.734375 67.671875 
Q 56.890625 62.453125 56.890625 51.90625 
Q 56.890625 45.015625 53.6875 40.46875 
Q 50.484375 35.9375 44.390625 34.1875 
z
M 19.671875 64.796875 
L 19.671875 38.921875 
L 32.078125 38.921875 
Q 39.203125 38.921875 42.84375 42.21875 
Q 46.484375 45.515625 46.484375 51.90625 
Q 46.484375 58.296875 42.84375 61.546875 
Q 39.203125 64.796875 32.078125 64.796875 
z
" id="DejaVuSans-82"/>
    <path d="M 8.5 21.578125 
L 8.5 54.6875 
L 17.484375 54.6875 
L 17.484375 21.921875 
Q 17.484375 14.15625 20.5 10.265625 
Q 23.53125 6.390625 29.59375 6.390625 
Q 36.859375 6.390625 41.078125 11.03125 
Q 45.3125 15.671875 45.3125 23.6875 
L 45.3125 54.6875 
L 54.296875 54.6875 
L 54.296875 0 
L 45.3125 0 
L 45.3125 8.40625 
Q 42.046875 3.421875 37.71875 1 
Q 33.40625 -1.421875 27.6875 -1.421875 
Q 18.265625 -1.421875 13.375 4.4375 
Q 8.5 10.296875 8.5 21.578125 
z
M 31.109375 56 
z
" id="DejaVuSans-117"/>
    <path d="M 72.703125 32.078125 
Q 68.453125 32.078125 66.03125 28.46875 
Q 63.625 24.859375 63.625 18.40625 
Q 63.625 12.0625 66.03125 8.421875 
Q 68.453125 4.78125 72.703125 4.78125 
Q 76.859375 4.78125 79.265625 8.421875 
Q 81.6875 12.0625 81.6875 18.40625 
Q 81.6875 24.8125 79.265625 28.4375 
Q 76.859375 32.078125 72.703125 32.078125 
z
M 72.703125 38.28125 
Q 80.421875 38.28125 84.953125 32.90625 
Q 89.5 27.546875 89.5 18.40625 
Q 89.5 9.28125 84.9375 3.921875 
Q 80.375 -1.421875 72.703125 -1.421875 
Q 64.890625 -1.421875 60.34375 3.921875 
Q 55.8125 9.28125 55.8125 18.40625 
Q 55.8125 27.59375 60.375 32.9375 
Q 64.9375 38.28125 72.703125 38.28125 
z
M 22.3125 68.015625 
Q 18.109375 68.015625 15.6875 64.375 
Q 13.28125 60.75 13.28125 54.390625 
Q 13.28125 47.953125 15.671875 44.328125 
Q 18.0625 40.71875 22.3125 40.71875 
Q 26.5625 40.71875 28.96875 44.328125 
Q 31.390625 47.953125 31.390625 54.390625 
Q 31.390625 60.6875 28.953125 64.34375 
Q 26.515625 68.015625 22.3125 68.015625 
z
M 66.40625 74.21875 
L 74.21875 74.21875 
L 28.609375 -1.421875 
L 20.796875 -1.421875 
z
M 22.3125 74.21875 
Q 30.03125 74.21875 34.609375 68.875 
Q 39.203125 63.53125 39.203125 54.390625 
Q 39.203125 45.171875 34.640625 39.84375 
Q 30.078125 34.515625 22.3125 34.515625 
Q 14.546875 34.515625 10.03125 39.859375 
Q 5.515625 45.21875 5.515625 54.390625 
Q 5.515625 63.484375 10.046875 68.84375 
Q 14.59375 74.21875 22.3125 74.21875 
z
" id="DejaVuSans-37"/>
   </defs>
   <g transform="translate(533.222656 66.90749)scale(0.34 -0.34)">
    <use xlink:href="#DejaVuSans-66"/>
    <use x="68.603516" xlink:href="#DejaVuSans-97"/>
    <use x="129.882812" xlink:href="#DejaVuSans-103"/>
    <use x="193.359375" xlink:href="#DejaVuSans-102"/>
    <use x="228.564453" xlink:href="#DejaVuSans-105"/>
    <use x="256.347656" xlink:href="#DejaVuSans-108"/>
    <use x="284.130859" xlink:href="#DejaVuSans-101"/>
    <use x="345.654297" xlink:href="#DejaVuSans-32"/>
    <use x="377.441406" xlink:href="#DejaVuSans-101"/>
    <use x="438.964844" xlink:href="#DejaVuSans-108"/>
    <use x="466.748047" xlink:href="#DejaVuSans-98"/>
    <use x="530.224609" xlink:href="#DejaVuSans-111"/>
    <use x="591.40625" xlink:href="#DejaVuSans-119"/>
    <use x="673.193359" xlink:href="#DejaVuSans-95"/>
    <use x="723.193359" xlink:href="#DejaVuSans-108"/>
    <use x="750.976562" xlink:href="#DejaVuSans-101"/>
    <use x="812.5" xlink:href="#DejaVuSans-102"/>
    <use x="847.689453" xlink:href="#DejaVuSans-116"/>
    <use x="886.898438" xlink:href="#DejaVuSans-95"/>
    <use x="936.898438" xlink:href="#DejaVuSans-68"/>
    <use x="1013.900391" xlink:href="#DejaVuSans-32"/>
    <use x="1045.6875" xlink:href="#DejaVuSans-102"/>
    <use x="1080.892578" xlink:href="#DejaVuSans-114"/>
    <use x="1121.974609" xlink:href="#DejaVuSans-111"/>
    <use x="1183.15625" xlink:href="#DejaVuSans-109"/>
    <use x="1280.568359" xlink:href="#DejaVuSans-32"/>
    <use x="1312.355469" xlink:href="#DejaVuSans-49"/>
    <use x="1375.978516" xlink:href="#DejaVuSans-48"/>
    <use x="1439.601562" xlink:href="#DejaVuSans-115"/>
    <use x="1491.701172" xlink:href="#DejaVuSans-32"/>
    <use x="1523.488281" xlink:href="#DejaVuSans-102"/>
    <use x="1558.693359" xlink:href="#DejaVuSans-111"/>
    <use x="1619.875" xlink:href="#DejaVuSans-114"/>
    <use x="1660.988281" xlink:href="#DejaVuSans-32"/>
    <use x="1692.775391" xlink:href="#DejaVuSans-51"/>
    <use x="1756.398438" xlink:href="#DejaVuSans-54"/>
    <use x="1820.021484" xlink:href="#DejaVuSans-55"/>
    <use x="1883.644531" xlink:href="#DejaVuSans-115"/>
    <use x="1935.744141" xlink:href="#DejaVuSans-32"/>
    <use x="1967.53125" xlink:href="#DejaVuSans-45"/>
    <use x="2003.615234" xlink:href="#DejaVuSans-32"/>
    <use x="2035.402344" xlink:href="#DejaVuSans-76"/>
    <use x="2091.099609" xlink:href="#DejaVuSans-111"/>
    <use x="2152.28125" xlink:href="#DejaVuSans-103"/>
    <use x="2215.757812" xlink:href="#DejaVuSans-103"/>
    <use x="2279.234375" xlink:href="#DejaVuSans-105"/>
    <use x="2307.017578" xlink:href="#DejaVuSans-110"/>
    <use x="2370.396484" xlink:href="#DejaVuSans-103"/>
    <use x="2433.873047" xlink:href="#DejaVuSans-32"/>
    <use x="2465.660156" xlink:href="#DejaVuSans-82"/>
    <use x="2535.111328" xlink:href="#DejaVuSans-97"/>
    <use x="2596.390625" xlink:href="#DejaVuSans-116"/>
    <use x="2635.599609" xlink:href="#DejaVuSans-101"/>
    <use x="2697.123047" xlink:href="#DejaVuSans-32"/>
    <use x="2728.910156" xlink:href="#DejaVuSans-49"/>
    <use x="2792.533203" xlink:href="#DejaVuSans-48"/>
    <use x="2856.15625" xlink:href="#DejaVuSans-32"/>
    <use x="2887.943359" xlink:href="#DejaVuSans-45"/>
    <use x="2924.027344" xlink:href="#DejaVuSans-32"/>
    <use x="2955.814453" xlink:href="#DejaVuSans-83"/>
    <use x="3019.291016" xlink:href="#DejaVuSans-105"/>
    <use x="3047.074219" xlink:href="#DejaVuSans-109"/>
    <use x="3144.486328" xlink:href="#DejaVuSans-117"/>
    <use x="3207.865234" xlink:href="#DejaVuSans-108"/>
    <use x="3235.648438" xlink:href="#DejaVuSans-97"/>
    <use x="3296.927734" xlink:href="#DejaVuSans-116"/>
    <use x="3336.136719" xlink:href="#DejaVuSans-105"/>
    <use x="3363.919922" xlink:href="#DejaVuSans-111"/>
    <use x="3425.101562" xlink:href="#DejaVuSans-110"/>
    <use x="3488.480469" xlink:href="#DejaVuSans-32"/>
    <use x="3520.267578" xlink:href="#DejaVuSans-82"/>
    <use x="3589.71875" xlink:href="#DejaVuSans-97"/>
    <use x="3650.998047" xlink:href="#DejaVuSans-116"/>
    <use x="3690.207031" xlink:href="#DejaVuSans-101"/>
    <use x="3751.730469" xlink:href="#DejaVuSans-32"/>
    <use x="3783.517578" xlink:href="#DejaVuSans-56"/>
    <use x="3847.140625" xlink:href="#DejaVuSans-48"/>
    <use x="3910.763672" xlink:href="#DejaVuSans-48"/>
    <use x="3974.386719" xlink:href="#DejaVuSans-32"/>
    <use x="4006.173828" xlink:href="#DejaVuSans-45"/>
    <use x="4042.257812" xlink:href="#DejaVuSans-32"/>
    <use x="4074.044922" xlink:href="#DejaVuSans-49"/>
    <use x="4137.667969" xlink:href="#DejaVuSans-48"/>
    <use x="4201.291016" xlink:href="#DejaVuSans-48"/>
    <use x="4264.914062" xlink:href="#DejaVuSans-46"/>
    <use x="4296.701172" xlink:href="#DejaVuSans-48"/>
    <use x="4360.324219" xlink:href="#DejaVuSans-48"/>
    <use x="4423.947266" xlink:href="#DejaVuSans-37"/>
    <use x="4518.966797" xlink:href="#DejaVuSans-32"/>
    <use x="4550.753906" xlink:href="#DejaVuSans-114"/>
    <use x="4591.835938" xlink:href="#DejaVuSans-101"/>
    <use x="4653.359375" xlink:href="#DejaVuSans-97"/>
    <use x="4714.638672" xlink:href="#DejaVuSans-108"/>
    <use x="4742.421875" xlink:href="#DejaVuSans-32"/>
    <use x="4774.208984" xlink:href="#DejaVuSans-116"/>
    <use x="4813.417969" xlink:href="#DejaVuSans-105"/>
    <use x="4841.201172" xlink:href="#DejaVuSans-109"/>
    <use x="4938.613281" xlink:href="#DejaVuSans-101"/>
    <use x="5000.136719" xlink:href="#DejaVuSans-32"/>
    <use x="5031.923828" xlink:href="#DejaVuSans-115"/>
    <use x="5084.023438" xlink:href="#DejaVuSans-112"/>
    <use x="5147.5" xlink:href="#DejaVuSans-101"/>
    <use x="5209.023438" xlink:href="#DejaVuSans-101"/>
    <use x="5270.546875" xlink:href="#DejaVuSans-100"/>
   </g>
   <!--  -->
   <g transform="translate(1440 105.925677)scale(0.34 -0.34)"/>
  </g>
 </g>
 <defs>
  <clipPath id="pcef7ebd6db">
   <rect height="863.577185" width="2793.305145" x="83.694615" y="157.9032"/>
  </clipPath>
 </defs>
</svg>
