<?xml version="1.0" encoding="utf-8" standalone="no"?>
<!DOCTYPE svg PUBLIC "-//W3C//DTD SVG 1.1//EN"
  "http://www.w3.org/Graphics/SVG/1.1/DTD/svg11.dtd">
<!-- Created with matplotlib (https://matplotlib.org/) -->
<svg height="1080pt" version="1.1" viewBox="0 0 2880 1080" width="2880pt" xmlns="http://www.w3.org/2000/svg" xmlns:xlink="http://www.w3.org/1999/xlink">
 <defs>
  <style type="text/css">
*{stroke-linecap:butt;stroke-linejoin:round;}
  </style>
 </defs>
 <g id="figure_1">
  <g id="patch_1">
   <path d="M 0 1080 
L 2880 1080 
L 2880 0 
L 0 0 
z
" style="fill:#ffffff;"/>
  </g>
  <g id="axes_1">
   <g id="patch_2">
    <path d="M 83.694615 1021.480385 
L 2876.99976 1021.480385 
L 2876.99976 157.9032 
L 83.694615 157.9032 
z
" style="fill:#ffffff;"/>
   </g>
   <g id="matplotlib.axis_1">
    <g id="xtick_1">
     <g id="line2d_1">
      <defs>
       <path d="M 0 0 
L 0 3.5 
" id="m6c435fa378" style="stroke:#000000;stroke-width:0.8;"/>
      </defs>
      <g>
       <use style="stroke:#000000;stroke-width:0.8;" x="141.565184" xlink:href="#m6c435fa378" y="1021.480385"/>
      </g>
     </g>
     <g id="text_1">
      <!-- 0 -->
      <defs>
       <path d="M 31.78125 66.40625 
Q 24.171875 66.40625 20.328125 58.90625 
Q 16.5 51.421875 16.5 36.375 
Q 16.5 21.390625 20.328125 13.890625 
Q 24.171875 6.390625 31.78125 6.390625 
Q 39.453125 6.390625 43.28125 13.890625 
Q 47.125 21.390625 47.125 36.375 
Q 47.125 51.421875 43.28125 58.90625 
Q 39.453125 66.40625 31.78125 66.40625 
z
M 31.78125 74.21875 
Q 44.046875 74.21875 50.515625 64.515625 
Q 56.984375 54.828125 56.984375 36.375 
Q 56.984375 17.96875 50.515625 8.265625 
Q 44.046875 -1.421875 31.78125 -1.421875 
Q 19.53125 -1.421875 13.0625 8.265625 
Q 6.59375 17.96875 6.59375 36.375 
Q 6.59375 54.828125 13.0625 64.515625 
Q 19.53125 74.21875 31.78125 74.21875 
z
" id="DejaVuSans-48"/>
      </defs>
      <g transform="translate(135.202684 1043.67726)scale(0.2 -0.2)">
       <use xlink:href="#DejaVuSans-48"/>
      </g>
     </g>
    </g>
    <g id="xtick_2">
     <g id="line2d_2">
      <g>
       <use style="stroke:#000000;stroke-width:0.8;" x="487.054419" xlink:href="#m6c435fa378" y="1021.480385"/>
      </g>
     </g>
     <g id="text_2">
      <!-- 50 -->
      <defs>
       <path d="M 10.796875 72.90625 
L 49.515625 72.90625 
L 49.515625 64.59375 
L 19.828125 64.59375 
L 19.828125 46.734375 
Q 21.96875 47.46875 24.109375 47.828125 
Q 26.265625 48.1875 28.421875 48.1875 
Q 40.625 48.1875 47.75 41.5 
Q 54.890625 34.8125 54.890625 23.390625 
Q 54.890625 11.625 47.5625 5.09375 
Q 40.234375 -1.421875 26.90625 -1.421875 
Q 22.3125 -1.421875 17.546875 -0.640625 
Q 12.796875 0.140625 7.71875 1.703125 
L 7.71875 11.625 
Q 12.109375 9.234375 16.796875 8.0625 
Q 21.484375 6.890625 26.703125 6.890625 
Q 35.15625 6.890625 40.078125 11.328125 
Q 45.015625 15.765625 45.015625 23.390625 
Q 45.015625 31 40.078125 35.4375 
Q 35.15625 39.890625 26.703125 39.890625 
Q 22.75 39.890625 18.8125 39.015625 
Q 14.890625 38.140625 10.796875 36.28125 
z
" id="DejaVuSans-53"/>
      </defs>
      <g transform="translate(474.329419 1043.67726)scale(0.2 -0.2)">
       <use xlink:href="#DejaVuSans-53"/>
       <use x="63.623047" xlink:href="#DejaVuSans-48"/>
      </g>
     </g>
    </g>
    <g id="xtick_3">
     <g id="line2d_3">
      <g>
       <use style="stroke:#000000;stroke-width:0.8;" x="832.543653" xlink:href="#m6c435fa378" y="1021.480385"/>
      </g>
     </g>
     <g id="text_3">
      <!-- 100 -->
      <defs>
       <path d="M 12.40625 8.296875 
L 28.515625 8.296875 
L 28.515625 63.921875 
L 10.984375 60.40625 
L 10.984375 69.390625 
L 28.421875 72.90625 
L 38.28125 72.90625 
L 38.28125 8.296875 
L 54.390625 8.296875 
L 54.390625 0 
L 12.40625 0 
z
" id="DejaVuSans-49"/>
      </defs>
      <g transform="translate(813.456153 1043.67726)scale(0.2 -0.2)">
       <use xlink:href="#DejaVuSans-49"/>
       <use x="63.623047" xlink:href="#DejaVuSans-48"/>
       <use x="127.246094" xlink:href="#DejaVuSans-48"/>
      </g>
     </g>
    </g>
    <g id="xtick_4">
     <g id="line2d_4">
      <g>
       <use style="stroke:#000000;stroke-width:0.8;" x="1178.032888" xlink:href="#m6c435fa378" y="1021.480385"/>
      </g>
     </g>
     <g id="text_4">
      <!-- 150 -->
      <g transform="translate(1158.945388 1043.67726)scale(0.2 -0.2)">
       <use xlink:href="#DejaVuSans-49"/>
       <use x="63.623047" xlink:href="#DejaVuSans-53"/>
       <use x="127.246094" xlink:href="#DejaVuSans-48"/>
      </g>
     </g>
    </g>
    <g id="xtick_5">
     <g id="line2d_5">
      <g>
       <use style="stroke:#000000;stroke-width:0.8;" x="1523.522123" xlink:href="#m6c435fa378" y="1021.480385"/>
      </g>
     </g>
     <g id="text_5">
      <!-- 200 -->
      <defs>
       <path d="M 19.1875 8.296875 
L 53.609375 8.296875 
L 53.609375 0 
L 7.328125 0 
L 7.328125 8.296875 
Q 12.9375 14.109375 22.625 23.890625 
Q 32.328125 33.6875 34.8125 36.53125 
Q 39.546875 41.84375 41.421875 45.53125 
Q 43.3125 49.21875 43.3125 52.78125 
Q 43.3125 58.59375 39.234375 62.25 
Q 35.15625 65.921875 28.609375 65.921875 
Q 23.96875 65.921875 18.8125 64.3125 
Q 13.671875 62.703125 7.8125 59.421875 
L 7.8125 69.390625 
Q 13.765625 71.78125 18.9375 73 
Q 24.125 74.21875 28.421875 74.21875 
Q 39.75 74.21875 46.484375 68.546875 
Q 53.21875 62.890625 53.21875 53.421875 
Q 53.21875 48.921875 51.53125 44.890625 
Q 49.859375 40.875 45.40625 35.40625 
Q 44.1875 33.984375 37.640625 27.21875 
Q 31.109375 20.453125 19.1875 8.296875 
z
" id="DejaVuSans-50"/>
      </defs>
      <g transform="translate(1504.434623 1043.67726)scale(0.2 -0.2)">
       <use xlink:href="#DejaVuSans-50"/>
       <use x="63.623047" xlink:href="#DejaVuSans-48"/>
       <use x="127.246094" xlink:href="#DejaVuSans-48"/>
      </g>
     </g>
    </g>
    <g id="xtick_6">
     <g id="line2d_6">
      <g>
       <use style="stroke:#000000;stroke-width:0.8;" x="1869.011358" xlink:href="#m6c435fa378" y="1021.480385"/>
      </g>
     </g>
     <g id="text_6">
      <!-- 250 -->
      <g transform="translate(1849.923858 1043.67726)scale(0.2 -0.2)">
       <use xlink:href="#DejaVuSans-50"/>
       <use x="63.623047" xlink:href="#DejaVuSans-53"/>
       <use x="127.246094" xlink:href="#DejaVuSans-48"/>
      </g>
     </g>
    </g>
    <g id="xtick_7">
     <g id="line2d_7">
      <g>
       <use style="stroke:#000000;stroke-width:0.8;" x="2214.500593" xlink:href="#m6c435fa378" y="1021.480385"/>
      </g>
     </g>
     <g id="text_7">
      <!-- 300 -->
      <defs>
       <path d="M 40.578125 39.3125 
Q 47.65625 37.796875 51.625 33 
Q 55.609375 28.21875 55.609375 21.1875 
Q 55.609375 10.40625 48.1875 4.484375 
Q 40.765625 -1.421875 27.09375 -1.421875 
Q 22.515625 -1.421875 17.65625 -0.515625 
Q 12.796875 0.390625 7.625 2.203125 
L 7.625 11.71875 
Q 11.71875 9.328125 16.59375 8.109375 
Q 21.484375 6.890625 26.8125 6.890625 
Q 36.078125 6.890625 40.9375 10.546875 
Q 45.796875 14.203125 45.796875 21.1875 
Q 45.796875 27.640625 41.28125 31.265625 
Q 36.765625 34.90625 28.71875 34.90625 
L 20.21875 34.90625 
L 20.21875 43.015625 
L 29.109375 43.015625 
Q 36.375 43.015625 40.234375 45.921875 
Q 44.09375 48.828125 44.09375 54.296875 
Q 44.09375 59.90625 40.109375 62.90625 
Q 36.140625 65.921875 28.71875 65.921875 
Q 24.65625 65.921875 20.015625 65.03125 
Q 15.375 64.15625 9.8125 62.3125 
L 9.8125 71.09375 
Q 15.4375 72.65625 20.34375 73.4375 
Q 25.25 74.21875 29.59375 74.21875 
Q 40.828125 74.21875 47.359375 69.109375 
Q 53.90625 64.015625 53.90625 55.328125 
Q 53.90625 49.265625 50.4375 45.09375 
Q 46.96875 40.921875 40.578125 39.3125 
z
" id="DejaVuSans-51"/>
      </defs>
      <g transform="translate(2195.413093 1043.67726)scale(0.2 -0.2)">
       <use xlink:href="#DejaVuSans-51"/>
       <use x="63.623047" xlink:href="#DejaVuSans-48"/>
       <use x="127.246094" xlink:href="#DejaVuSans-48"/>
      </g>
     </g>
    </g>
    <g id="xtick_8">
     <g id="line2d_8">
      <g>
       <use style="stroke:#000000;stroke-width:0.8;" x="2559.989827" xlink:href="#m6c435fa378" y="1021.480385"/>
      </g>
     </g>
     <g id="text_8">
      <!-- 350 -->
      <g transform="translate(2540.902327 1043.67726)scale(0.2 -0.2)">
       <use xlink:href="#DejaVuSans-51"/>
       <use x="63.623047" xlink:href="#DejaVuSans-53"/>
       <use x="127.246094" xlink:href="#DejaVuSans-48"/>
      </g>
     </g>
    </g>
    <g id="text_9">
     <!-- Time [s] -->
     <defs>
      <path d="M -0.296875 72.90625 
L 61.375 72.90625 
L 61.375 64.59375 
L 35.5 64.59375 
L 35.5 0 
L 25.59375 0 
L 25.59375 64.59375 
L -0.296875 64.59375 
z
" id="DejaVuSans-84"/>
      <path d="M 9.421875 54.6875 
L 18.40625 54.6875 
L 18.40625 0 
L 9.421875 0 
z
M 9.421875 75.984375 
L 18.40625 75.984375 
L 18.40625 64.59375 
L 9.421875 64.59375 
z
" id="DejaVuSans-105"/>
      <path d="M 52 44.1875 
Q 55.375 50.25 60.0625 53.125 
Q 64.75 56 71.09375 56 
Q 79.640625 56 84.28125 50.015625 
Q 88.921875 44.046875 88.921875 33.015625 
L 88.921875 0 
L 79.890625 0 
L 79.890625 32.71875 
Q 79.890625 40.578125 77.09375 44.375 
Q 74.3125 48.1875 68.609375 48.1875 
Q 61.625 48.1875 57.5625 43.546875 
Q 53.515625 38.921875 53.515625 30.90625 
L 53.515625 0 
L 44.484375 0 
L 44.484375 32.71875 
Q 44.484375 40.625 41.703125 44.40625 
Q 38.921875 48.1875 33.109375 48.1875 
Q 26.21875 48.1875 22.15625 43.53125 
Q 18.109375 38.875 18.109375 30.90625 
L 18.109375 0 
L 9.078125 0 
L 9.078125 54.6875 
L 18.109375 54.6875 
L 18.109375 46.1875 
Q 21.1875 51.21875 25.484375 53.609375 
Q 29.78125 56 35.6875 56 
Q 41.65625 56 45.828125 52.96875 
Q 50 49.953125 52 44.1875 
z
" id="DejaVuSans-109"/>
      <path d="M 56.203125 29.59375 
L 56.203125 25.203125 
L 14.890625 25.203125 
Q 15.484375 15.921875 20.484375 11.0625 
Q 25.484375 6.203125 34.421875 6.203125 
Q 39.59375 6.203125 44.453125 7.46875 
Q 49.3125 8.734375 54.109375 11.28125 
L 54.109375 2.78125 
Q 49.265625 0.734375 44.1875 -0.34375 
Q 39.109375 -1.421875 33.890625 -1.421875 
Q 20.796875 -1.421875 13.15625 6.1875 
Q 5.515625 13.8125 5.515625 26.8125 
Q 5.515625 40.234375 12.765625 48.109375 
Q 20.015625 56 32.328125 56 
Q 43.359375 56 49.78125 48.890625 
Q 56.203125 41.796875 56.203125 29.59375 
z
M 47.21875 32.234375 
Q 47.125 39.59375 43.09375 43.984375 
Q 39.0625 48.390625 32.421875 48.390625 
Q 24.90625 48.390625 20.390625 44.140625 
Q 15.875 39.890625 15.1875 32.171875 
z
" id="DejaVuSans-101"/>
      <path id="DejaVuSans-32"/>
      <path d="M 8.59375 75.984375 
L 29.296875 75.984375 
L 29.296875 69 
L 17.578125 69 
L 17.578125 -6.203125 
L 29.296875 -6.203125 
L 29.296875 -13.1875 
L 8.59375 -13.1875 
z
" id="DejaVuSans-91"/>
      <path d="M 44.28125 53.078125 
L 44.28125 44.578125 
Q 40.484375 46.53125 36.375 47.5 
Q 32.28125 48.484375 27.875 48.484375 
Q 21.1875 48.484375 17.84375 46.4375 
Q 14.5 44.390625 14.5 40.28125 
Q 14.5 37.15625 16.890625 35.375 
Q 19.28125 33.59375 26.515625 31.984375 
L 29.59375 31.296875 
Q 39.15625 29.25 43.1875 25.515625 
Q 47.21875 21.78125 47.21875 15.09375 
Q 47.21875 7.46875 41.1875 3.015625 
Q 35.15625 -1.421875 24.609375 -1.421875 
Q 20.21875 -1.421875 15.453125 -0.5625 
Q 10.6875 0.296875 5.421875 2 
L 5.421875 11.28125 
Q 10.40625 8.6875 15.234375 7.390625 
Q 20.0625 6.109375 24.8125 6.109375 
Q 31.15625 6.109375 34.5625 8.28125 
Q 37.984375 10.453125 37.984375 14.40625 
Q 37.984375 18.0625 35.515625 20.015625 
Q 33.0625 21.96875 24.703125 23.78125 
L 21.578125 24.515625 
Q 13.234375 26.265625 9.515625 29.90625 
Q 5.8125 33.546875 5.8125 39.890625 
Q 5.8125 47.609375 11.28125 51.796875 
Q 16.75 56 26.8125 56 
Q 31.78125 56 36.171875 55.265625 
Q 40.578125 54.546875 44.28125 53.078125 
z
" id="DejaVuSans-115"/>
      <path d="M 30.421875 75.984375 
L 30.421875 -13.1875 
L 9.71875 -13.1875 
L 9.71875 -6.203125 
L 21.390625 -6.203125 
L 21.390625 69 
L 9.71875 69 
L 9.71875 75.984375 
z
" id="DejaVuSans-93"/>
     </defs>
     <g transform="translate(1427.091875 1071.592572)scale(0.26 -0.26)">
      <use xlink:href="#DejaVuSans-84"/>
      <use x="61.037109" xlink:href="#DejaVuSans-105"/>
      <use x="88.820312" xlink:href="#DejaVuSans-109"/>
      <use x="186.232422" xlink:href="#DejaVuSans-101"/>
      <use x="247.755859" xlink:href="#DejaVuSans-32"/>
      <use x="279.542969" xlink:href="#DejaVuSans-91"/>
      <use x="318.556641" xlink:href="#DejaVuSans-115"/>
      <use x="370.65625" xlink:href="#DejaVuSans-93"/>
     </g>
    </g>
   </g>
   <g id="matplotlib.axis_2">
    <g id="ytick_1">
     <g id="line2d_9">
      <defs>
       <path d="M 0 0 
L -3.5 0 
" id="mb87a1430e4" style="stroke:#000000;stroke-width:0.8;"/>
      </defs>
      <g>
       <use style="stroke:#000000;stroke-width:0.8;" x="83.694615" xlink:href="#mb87a1430e4" y="860.500809"/>
      </g>
     </g>
     <g id="text_10">
      <!-- 0.08 -->
      <defs>
       <path d="M 10.6875 12.40625 
L 21 12.40625 
L 21 0 
L 10.6875 0 
z
" id="DejaVuSans-46"/>
       <path d="M 31.78125 34.625 
Q 24.75 34.625 20.71875 30.859375 
Q 16.703125 27.09375 16.703125 20.515625 
Q 16.703125 13.921875 20.71875 10.15625 
Q 24.75 6.390625 31.78125 6.390625 
Q 38.8125 6.390625 42.859375 10.171875 
Q 46.921875 13.96875 46.921875 20.515625 
Q 46.921875 27.09375 42.890625 30.859375 
Q 38.875 34.625 31.78125 34.625 
z
M 21.921875 38.8125 
Q 15.578125 40.375 12.03125 44.71875 
Q 8.5 49.078125 8.5 55.328125 
Q 8.5 64.0625 14.71875 69.140625 
Q 20.953125 74.21875 31.78125 74.21875 
Q 42.671875 74.21875 48.875 69.140625 
Q 55.078125 64.0625 55.078125 55.328125 
Q 55.078125 49.078125 51.53125 44.71875 
Q 48 40.375 41.703125 38.8125 
Q 48.828125 37.15625 52.796875 32.3125 
Q 56.78125 27.484375 56.78125 20.515625 
Q 56.78125 9.90625 50.3125 4.234375 
Q 43.84375 -1.421875 31.78125 -1.421875 
Q 19.734375 -1.421875 13.25 4.234375 
Q 6.78125 9.90625 6.78125 20.515625 
Q 6.78125 27.484375 10.78125 32.3125 
Q 14.796875 37.15625 21.921875 38.8125 
z
M 18.3125 54.390625 
Q 18.3125 48.734375 21.84375 45.5625 
Q 25.390625 42.390625 31.78125 42.390625 
Q 38.140625 42.390625 41.71875 45.5625 
Q 45.3125 48.734375 45.3125 54.390625 
Q 45.3125 60.0625 41.71875 63.234375 
Q 38.140625 66.40625 31.78125 66.40625 
Q 25.390625 66.40625 21.84375 63.234375 
Q 18.3125 60.0625 18.3125 54.390625 
z
" id="DejaVuSans-56"/>
      </defs>
      <g transform="translate(32.163365 868.099246)scale(0.2 -0.2)">
       <use xlink:href="#DejaVuSans-48"/>
       <use x="63.623047" xlink:href="#DejaVuSans-46"/>
       <use x="95.410156" xlink:href="#DejaVuSans-48"/>
       <use x="159.033203" xlink:href="#DejaVuSans-56"/>
      </g>
     </g>
    </g>
    <g id="ytick_2">
     <g id="line2d_10">
      <g>
       <use style="stroke:#000000;stroke-width:0.8;" x="83.694615" xlink:href="#mb87a1430e4" y="668.771074"/>
      </g>
     </g>
     <g id="text_11">
      <!-- 0.10 -->
      <g transform="translate(32.163365 676.369511)scale(0.2 -0.2)">
       <use xlink:href="#DejaVuSans-48"/>
       <use x="63.623047" xlink:href="#DejaVuSans-46"/>
       <use x="95.410156" xlink:href="#DejaVuSans-49"/>
       <use x="159.033203" xlink:href="#DejaVuSans-48"/>
      </g>
     </g>
    </g>
    <g id="ytick_3">
     <g id="line2d_11">
      <g>
       <use style="stroke:#000000;stroke-width:0.8;" x="83.694615" xlink:href="#mb87a1430e4" y="477.041339"/>
      </g>
     </g>
     <g id="text_12">
      <!-- 0.12 -->
      <g transform="translate(32.163365 484.639776)scale(0.2 -0.2)">
       <use xlink:href="#DejaVuSans-48"/>
       <use x="63.623047" xlink:href="#DejaVuSans-46"/>
       <use x="95.410156" xlink:href="#DejaVuSans-49"/>
       <use x="159.033203" xlink:href="#DejaVuSans-50"/>
      </g>
     </g>
    </g>
    <g id="ytick_4">
     <g id="line2d_12">
      <g>
       <use style="stroke:#000000;stroke-width:0.8;" x="83.694615" xlink:href="#mb87a1430e4" y="285.311603"/>
      </g>
     </g>
     <g id="text_13">
      <!-- 0.14 -->
      <defs>
       <path d="M 37.796875 64.3125 
L 12.890625 25.390625 
L 37.796875 25.390625 
z
M 35.203125 72.90625 
L 47.609375 72.90625 
L 47.609375 25.390625 
L 58.015625 25.390625 
L 58.015625 17.1875 
L 47.609375 17.1875 
L 47.609375 0 
L 37.796875 0 
L 37.796875 17.1875 
L 4.890625 17.1875 
L 4.890625 26.703125 
z
" id="DejaVuSans-52"/>
      </defs>
      <g transform="translate(32.163365 292.910041)scale(0.2 -0.2)">
       <use xlink:href="#DejaVuSans-48"/>
       <use x="63.623047" xlink:href="#DejaVuSans-46"/>
       <use x="95.410156" xlink:href="#DejaVuSans-49"/>
       <use x="159.033203" xlink:href="#DejaVuSans-52"/>
      </g>
     </g>
    </g>
    <g id="text_14">
     <!-- Length [m] -->
     <defs>
      <path d="M 9.8125 72.90625 
L 19.671875 72.90625 
L 19.671875 8.296875 
L 55.171875 8.296875 
L 55.171875 0 
L 9.8125 0 
z
" id="DejaVuSans-76"/>
      <path d="M 54.890625 33.015625 
L 54.890625 0 
L 45.90625 0 
L 45.90625 32.71875 
Q 45.90625 40.484375 42.875 44.328125 
Q 39.84375 48.1875 33.796875 48.1875 
Q 26.515625 48.1875 22.3125 43.546875 
Q 18.109375 38.921875 18.109375 30.90625 
L 18.109375 0 
L 9.078125 0 
L 9.078125 54.6875 
L 18.109375 54.6875 
L 18.109375 46.1875 
Q 21.34375 51.125 25.703125 53.5625 
Q 30.078125 56 35.796875 56 
Q 45.21875 56 50.046875 50.171875 
Q 54.890625 44.34375 54.890625 33.015625 
z
" id="DejaVuSans-110"/>
      <path d="M 45.40625 27.984375 
Q 45.40625 37.75 41.375 43.109375 
Q 37.359375 48.484375 30.078125 48.484375 
Q 22.859375 48.484375 18.828125 43.109375 
Q 14.796875 37.75 14.796875 27.984375 
Q 14.796875 18.265625 18.828125 12.890625 
Q 22.859375 7.515625 30.078125 7.515625 
Q 37.359375 7.515625 41.375 12.890625 
Q 45.40625 18.265625 45.40625 27.984375 
z
M 54.390625 6.78125 
Q 54.390625 -7.171875 48.1875 -13.984375 
Q 42 -20.796875 29.203125 -20.796875 
Q 24.46875 -20.796875 20.265625 -20.09375 
Q 16.0625 -19.390625 12.109375 -17.921875 
L 12.109375 -9.1875 
Q 16.0625 -11.328125 19.921875 -12.34375 
Q 23.78125 -13.375 27.78125 -13.375 
Q 36.625 -13.375 41.015625 -8.765625 
Q 45.40625 -4.15625 45.40625 5.171875 
L 45.40625 9.625 
Q 42.625 4.78125 38.28125 2.390625 
Q 33.9375 0 27.875 0 
Q 17.828125 0 11.671875 7.65625 
Q 5.515625 15.328125 5.515625 27.984375 
Q 5.515625 40.671875 11.671875 48.328125 
Q 17.828125 56 27.875 56 
Q 33.9375 56 38.28125 53.609375 
Q 42.625 51.21875 45.40625 46.390625 
L 45.40625 54.6875 
L 54.390625 54.6875 
z
" id="DejaVuSans-103"/>
      <path d="M 18.3125 70.21875 
L 18.3125 54.6875 
L 36.8125 54.6875 
L 36.8125 47.703125 
L 18.3125 47.703125 
L 18.3125 18.015625 
Q 18.3125 11.328125 20.140625 9.421875 
Q 21.96875 7.515625 27.59375 7.515625 
L 36.8125 7.515625 
L 36.8125 0 
L 27.59375 0 
Q 17.1875 0 13.234375 3.875 
Q 9.28125 7.765625 9.28125 18.015625 
L 9.28125 47.703125 
L 2.6875 47.703125 
L 2.6875 54.6875 
L 9.28125 54.6875 
L 9.28125 70.21875 
z
" id="DejaVuSans-116"/>
      <path d="M 54.890625 33.015625 
L 54.890625 0 
L 45.90625 0 
L 45.90625 32.71875 
Q 45.90625 40.484375 42.875 44.328125 
Q 39.84375 48.1875 33.796875 48.1875 
Q 26.515625 48.1875 22.3125 43.546875 
Q 18.109375 38.921875 18.109375 30.90625 
L 18.109375 0 
L 9.078125 0 
L 9.078125 75.984375 
L 18.109375 75.984375 
L 18.109375 46.1875 
Q 21.34375 51.125 25.703125 53.5625 
Q 30.078125 56 35.796875 56 
Q 45.21875 56 50.046875 50.171875 
Q 54.890625 44.34375 54.890625 33.015625 
z
" id="DejaVuSans-104"/>
     </defs>
     <g transform="translate(22.756178 661.697574)rotate(-90)scale(0.26 -0.26)">
      <use xlink:href="#DejaVuSans-76"/>
      <use x="55.697266" xlink:href="#DejaVuSans-101"/>
      <use x="117.220703" xlink:href="#DejaVuSans-110"/>
      <use x="180.599609" xlink:href="#DejaVuSans-103"/>
      <use x="244.076172" xlink:href="#DejaVuSans-116"/>
      <use x="283.285156" xlink:href="#DejaVuSans-104"/>
      <use x="346.664062" xlink:href="#DejaVuSans-32"/>
      <use x="378.451172" xlink:href="#DejaVuSans-91"/>
      <use x="417.464844" xlink:href="#DejaVuSans-109"/>
      <use x="514.876953" xlink:href="#DejaVuSans-93"/>
     </g>
    </g>
   </g>
   <g id="line2d_13">
    <path clip-path="url(#p6b7a511b7c)" d="M 210.663031 832.41313 
L 230.701616 832.379275 
L 231.39261 826.736565 
L 232.083598 794.151244 
L 232.774609 792.409762 
L 248.666962 792.404834 
L 648.073405 792.404834 
L 648.764348 739.953321 
L 650.146643 592.073867 
L 651.52862 480.669392 
L 652.219192 461.868932 
L 652.910523 461.22925 
L 660.510969 461.218965 
L 1063.351397 461.218965 
L 1064.042425 470.341138 
L 1064.733458 501.057699 
L 1065.424445 501.631455 
L 1137.286148 501.632526 
L 1479.321253 501.632526 
L 1480.011313 470.04651 
L 1480.702426 407.011757 
L 1482.085115 309.571491 
L 1482.775349 258.746823 
L 1483.466573 235.825575 
L 1484.15745 232.017057 
L 1487.612217 231.960203 
L 1491.758044 231.971202 
L 1551.182378 231.96106 
L 1576.748251 231.962774 
L 1643.773627 231.967774 
L 1654.138252 231.958632 
L 1680.395484 231.972774 
L 1686.613677 231.960632 
L 1820.663771 231.972202 
L 1826.88264 231.96406 
L 1837.248406 231.974774 
L 1843.466083 231.969345 
L 1851.757756 231.960346 
L 1862.813903 231.971345 
L 1871.796079 231.95906 
L 1892.52646 231.981916 
L 1894.598586 231.959917 
L 1895.289424 237.604198 
L 1898.053806 576.26961 
L 1898.744069 668.655065 
L 1899.435337 703.340493 
L 1900.127955 708.510084 
L 1900.817607 708.631292 
L 2054.905474 708.631792 
L 2310.567539 708.631792 
L 2311.258463 685.755899 
L 2314.022272 423.477481 
L 2316.095095 280.163434 
L 2316.786404 253.848647 
L 2317.47719 235.945283 
L 2318.168376 232.026914 
L 2319.550195 231.960632 
L 2327.842026 231.958917 
L 2352.026264 231.959632 
L 2750.031344 231.96106 
L 2750.031344 231.96106 
" style="fill:none;stroke:#008000;stroke-dasharray:9.6,2.4,1.5,2.4;stroke-dashoffset:0;stroke-width:1.5;"/>
   </g>
   <g id="line2d_14">
    <path clip-path="url(#p6b7a511b7c)" d="M 210.663031 832.455808 
L 230.701616 832.398444 
L 231.39261 832.108161 
L 232.083598 791.097588 
L 232.774609 775.260133 
L 233.465923 819.637075 
L 234.156571 771.703329 
L 234.847429 798.859043 
L 235.538499 807.73427 
L 236.229818 769.036157 
L 236.920626 816.41587 
L 237.611508 780.716923 
L 238.302202 789.36077 
L 238.993635 811.212257 
L 239.68441 769.833054 
L 240.375144 813.823862 
L 241.066381 782.309357 
L 241.757627 790.679619 
L 242.448193 807.951832 
L 243.139161 772.317559 
L 243.830252 814.001688 
L 244.521214 776.947864 
L 245.212259 800.508033 
L 245.903583 796.852626 
L 246.594187 780.695334 
L 247.285151 810.856109 
L 247.976099 773.486625 
L 248.666962 810.914888 
L 249.357617 779.48226 
L 250.049133 800.425003 
L 251.430832 786.681917 
L 252.121993 804.666205 
L 252.812908 777.956617 
L 253.503958 809.456422 
L 254.1949 776.21814 
L 254.885431 808.455333 
L 255.57689 779.579336 
L 256.267917 803.463421 
L 256.958852 785.850967 
L 257.649861 796.631904 
L 258.34057 792.65129 
L 259.031528 789.964391 
L 259.722847 798.599783 
L 260.414003 784.607324 
L 261.104698 802.990675 
L 261.796071 781.206693 
L 262.486668 805.174817 
L 263.177565 780.217468 
L 263.869106 805.028613 
L 264.559738 781.534653 
L 265.250988 802.791093 
L 265.941447 784.652679 
L 266.632312 798.912091 
L 267.323476 788.959581 
L 268.014416 794.35508 
L 268.70521 793.417369 
L 269.396192 790.145804 
L 270.087419 797.068487 
L 270.778408 787.11539 
L 271.469399 799.281076 
L 272.160329 785.736221 
L 272.851574 799.882311 
L 273.542191 785.996607 
L 274.233469 799.001082 
L 274.924147 787.457954 
L 275.614793 796.987598 
L 276.306219 789.66452 
L 276.997434 794.5572 
L 277.688613 791.913047 
L 278.379617 792.530778 
L 279.070009 793.574011 
L 279.761486 791.454944 
L 280.452139 794.280038 
L 281.142876 791.081741 
L 281.834103 794.256624 
L 282.525092 791.408574 
L 283.215963 793.64927 
L 283.907041 792.173735 
L 284.597997 792.817719 
L 285.288759 792.88951 
L 287.361734 792.808901 
L 300.491186 792.718115 
L 359.22397 792.702904 
L 648.073405 792.702893 
L 648.764348 750.555822 
L 649.455276 635.643205 
L 650.146643 612.690416 
L 650.837874 538.657171 
L 651.52862 447.195822 
L 652.219192 477.557912 
L 652.910523 465.352897 
L 653.601074 450.313979 
L 654.29323 484.113977 
L 654.982896 442.129492 
L 655.674231 479.613578 
L 656.365063 458.42275 
L 657.056136 458.237171 
L 657.748611 478.684657 
L 658.437927 443.735503 
L 659.129512 482.777669 
L 659.819714 447.471089 
L 660.510969 472.729005 
L 661.892888 455.511064 
L 662.583861 477.666746 
L 663.274748 445.570828 
L 663.96583 481.059622 
L 664.656907 446.480359 
L 665.347784 476.177968 
L 666.038763 455.506279 
L 666.729634 465.670001 
L 667.421063 466.724673 
L 668.111725 455.18583 
L 668.802754 474.815665 
L 669.493626 448.840623 
L 670.184727 478.092892 
L 670.875519 447.092165 
L 671.566612 477.627489 
L 672.258438 449.018038 
L 672.948606 474.495874 
L 673.639575 453.212612 
L 674.330495 469.633829 
L 675.021508 458.163608 
L 675.712463 464.416232 
L 676.403376 462.81688 
L 677.094417 459.977651 
L 677.78577 466.590124 
L 678.476318 456.723607 
L 679.167365 469.299739 
L 679.858799 454.600086 
L 680.549423 471.047475 
L 681.240456 453.377185 
L 681.931032 472.071887 
L 682.622305 452.786183 
L 683.31299 472.584384 
L 684.0042 452.612513 
L 684.695494 472.624177 
L 685.386164 452.842037 
L 686.077731 472.26906 
L 686.768141 453.411598 
L 687.459634 471.611339 
L 688.150055 454.23731 
L 688.841656 470.760837 
L 689.531772 455.226737 
L 690.223053 469.830065 
L 690.913998 456.295527 
L 691.604993 468.883785 
L 692.295955 457.3494 
L 692.98726 467.914277 
L 693.677825 458.266146 
L 694.368901 467.086574 
L 695.059453 459.024676 
L 695.750528 466.436188 
L 696.441825 459.652417 
L 697.132801 465.921935 
L 697.824108 460.177529 
L 698.514926 465.495581 
L 699.20614 460.623844 
L 699.897264 465.154234 
L 700.587649 460.99337 
L 701.278688 464.895493 
L 701.969651 461.288394 
L 702.660605 464.710988 
L 703.351463 461.519849 
L 704.043037 464.578777 
L 704.733977 461.709031 
L 705.424563 464.461485 
L 706.115524 461.892328 
L 706.806489 464.288602 
L 707.497465 462.13321 
L 708.188354 463.984253 
L 708.87986 462.493596 
L 709.57023 463.574047 
L 710.261124 462.944175 
L 711.643309 463.175274 
L 736.519062 463.142298 
L 1063.351397 463.141916 
L 1064.042425 463.436972 
L 1064.733458 519.025826 
L 1065.424445 528.703708 
L 1066.11566 471.546255 
L 1066.806404 521.035877 
L 1067.496954 524.725539 
L 1068.188266 472.363029 
L 1068.879812 525.428198 
L 1069.570014 517.357595 
L 1070.261366 474.675792 
L 1070.952209 530.425111 
L 1072.33455 480.953004 
L 1073.025183 533.430757 
L 1073.716018 490.09875 
L 1074.407379 494.328625 
L 1075.098067 531.261132 
L 1075.789732 478.921686 
L 1076.479996 513.797993 
L 1077.171014 520.313367 
L 1077.862168 477.684919 
L 1078.55292 527.624798 
L 1079.243585 498.175477 
L 1079.936327 491.270835 
L 1080.62575 528.70356 
L 1081.31707 480.391175 
L 1082.007565 516.684977 
L 1082.698634 512.082109 
L 1083.390145 483.702363 
L 1084.080749 527.969689 
L 1084.771778 485.335455 
L 1085.46295 510.375494 
L 1086.153804 515.011262 
L 1086.844565 483.681598 
L 1087.537249 526.30419 
L 1088.226693 485.728294 
L 1088.917609 512.323762 
L 1089.608626 510.152995 
L 1090.299577 488.210634 
L 1090.992127 524.271434 
L 1091.681235 483.179188 
L 1092.372478 519.304647 
L 1093.064648 497.65716 
L 1093.754249 500.713007 
L 1094.445495 516.270119 
L 1095.136447 486.042882 
L 1095.827369 522.666178 
L 1096.518378 485.29964 
L 1097.209385 517.782686 
L 1097.900106 495.81775 
L 1098.591127 505.025518 
L 1099.282668 509.562368 
L 1099.973314 492.614713 
L 1100.664383 518.141364 
L 1101.354868 486.615433 
L 1102.046378 520.082757 
L 1102.737306 487.064497 
L 1103.428077 517.268605 
L 1104.119162 492.103132 
L 1104.810088 511.250601 
L 1105.501078 499.057599 
L 1106.192593 503.902204 
L 1106.882781 505.795769 
L 1107.574596 497.555029 
L 1108.264902 510.987103 
L 1108.955883 493.19094 
L 1109.64664 514.181635 
L 1110.337982 490.798439 
L 1111.028984 515.61374 
L 1111.719908 489.971443 
L 1112.412123 515.795515 
L 1113.101837 490.176035 
L 1113.792877 515.166209 
L 1114.483471 491.033212 
L 1115.175049 514.042967 
L 1115.86584 492.267384 
L 1116.556803 512.653108 
L 1117.247735 493.786215 
L 1117.938843 511.050475 
L 1118.629997 495.482827 
L 1119.320507 509.323663 
L 1120.011633 497.255474 
L 1120.702318 507.59267 
L 1121.393808 499.004032 
L 1122.084618 505.965139 
L 1122.775665 500.62968 
L 1123.466544 504.532922 
L 1124.157617 502.051975 
L 1124.848522 503.362674 
L 1125.539465 503.206405 
L 1126.230381 502.48727 
L 1126.92139 504.069271 
L 1127.612277 501.872593 
L 1128.302919 504.643101 
L 1128.993969 501.515729 
L 1129.685723 505.021845 
L 1130.376332 501.32065 
L 1131.067433 505.227979 
L 1131.758162 501.265906 
L 1132.448985 505.271744 
L 1133.140258 501.359392 
L 1133.831112 505.194534 
L 1134.522192 501.558595 
L 1135.213371 505.019882 
L 1135.904082 501.840778 
L 1136.595 504.765741 
L 1137.286148 502.183029 
L 1137.977091 504.45867 
L 1138.668082 502.535028 
L 1139.359015 504.150534 
L 1140.050268 502.799656 
L 1140.740997 503.924097 
L 1141.432402 502.997058 
L 1142.123328 503.732287 
L 1142.813949 503.267298 
L 1152.487687 503.387479 
L 1183.581406 503.413736 
L 1479.321253 503.41384 
L 1480.011313 484.907902 
L 1480.702426 397.387125 
L 1481.393381 367.256982 
L 1482.085115 301.010321 
L 1482.775349 249.259558 
L 1483.466573 250.942853 
L 1484.15745 216.193084 
L 1484.848169 250.015796 
L 1485.539196 226.076516 
L 1486.230182 233.360396 
L 1486.921117 244.999532 
L 1487.612217 218.43932 
L 1488.303012 250.456448 
L 1488.994782 220.836567 
L 1489.684633 241.233064 
L 1490.376109 235.874908 
L 1491.067681 225.160237 
L 1491.758044 247.838306 
L 1492.448638 218.340359 
L 1493.140033 247.923111 
L 1493.830947 224.286597 
L 1494.522216 237.414991 
L 1495.21335 237.407312 
L 1495.903483 224.628092 
L 1496.594871 246.861713 
L 1497.285811 219.376051 
L 1497.976621 247.229747 
L 1498.667821 223.402389 
L 1499.35866 239.39691 
L 1500.740799 228.348797 
L 1501.43218 243.424748 
L 1502.122703 221.36331 
L 1502.813717 247.072002 
L 1503.504662 221.040729 
L 1504.195716 244.189577 
L 1504.886626 226.540007 
L 1505.577589 236.161341 
L 1506.268669 235.114791 
L 1506.959601 227.644473 
L 1507.650569 242.706712 
L 1508.341505 222.460443 
L 1509.032323 245.852858 
L 1509.723487 221.696793 
L 1510.414463 244.489828 
L 1511.106372 224.828836 
L 1511.79666 239.255938 
L 1512.487866 230.576926 
L 1513.178375 232.508719 
L 1513.869163 237.053144 
L 1514.560231 226.914286 
L 1515.251193 242.110782 
L 1515.942378 223.644787 
L 1516.633631 244.456107 
L 1517.324579 222.880334 
L 1518.0153 244.068881 
L 1518.707838 224.293012 
L 1519.39763 241.317241 
L 1520.088547 227.355955 
L 1520.779164 237.155838 
L 1521.470268 231.337676 
L 1522.161113 232.79741 
L 1522.852062 235.49784 
L 1523.542872 229.167874 
L 1524.233787 239.086344 
L 1524.92503 226.613678 
L 1525.615995 241.631404 
L 1526.306981 225.16443 
L 1526.998129 242.850526 
L 1527.689398 224.842202 
L 1528.379789 242.675729 
L 1529.070795 225.559528 
L 1529.761623 241.283722 
L 1530.452632 227.165581 
L 1531.143806 239.061839 
L 1531.834818 229.362665 
L 1532.527454 236.411778 
L 1533.216735 231.919139 
L 1533.908004 233.751671 
L 1534.598667 234.535454 
L 1535.289645 231.465818 
L 1535.980664 236.859974 
L 1536.671643 229.721884 
L 1537.362725 238.653524 
L 1538.05392 228.572433 
L 1538.744605 239.817159 
L 1539.435474 228.028518 
L 1540.126753 240.315646 
L 1540.8174 227.961178 
L 1541.508251 240.285056 
L 1542.199212 228.278653 
L 1542.890437 239.877969 
L 1543.581751 228.831826 
L 1544.272627 239.217816 
L 1544.964273 229.550838 
L 1545.655276 238.460034 
L 1546.345697 230.337488 
L 1547.036306 237.71376 
L 1547.727301 231.053671 
L 1548.418286 237.093833 
L 1549.109244 231.66193 
L 1549.800157 236.62537 
L 1550.491213 232.132593 
L 1551.182378 236.29369 
L 1551.873274 232.479133 
L 1552.564159 236.129993 
L 1553.255132 232.68222 
L 1553.945856 236.038335 
L 1554.637493 232.818087 
L 1555.328082 235.984347 
L 1556.0188 232.922279 
L 1556.709766 235.825376 
L 1557.401131 233.129035 
L 1558.091786 235.566606 
L 1558.783297 233.432536 
L 1559.473959 235.21963 
L 1560.164894 233.822263 
L 1560.855966 234.796196 
L 1561.546896 234.27293 
L 1563.620509 234.407001 
L 1624.42588 234.419252 
L 1894.598586 234.420566 
L 1895.289424 234.834438 
L 1895.980345 276.908044 
L 1896.671855 422.174783 
L 1897.362406 512.149077 
L 1898.053806 542.255758 
L 1898.744069 684.931451 
L 1899.435337 793.331648 
L 1900.127955 776.406163 
L 1900.817607 659.712464 
L 1901.508291 635.511695 
L 1902.199815 740.065036 
L 1902.890519 795.098152 
L 1903.581591 726.802047 
L 1904.271483 635.425008 
L 1904.963185 679.317486 
L 1905.653962 781.208446 
L 1906.345116 765.791016 
L 1907.035643 658.164533 
L 1907.726635 652.257352 
L 1908.41806 756.866158 
L 1909.108746 778.235039 
L 1909.799908 683.322306 
L 1910.491084 645.554035 
L 1911.183025 736.474348 
L 1911.872478 778.894746 
L 1912.563928 699.643718 
L 1913.25482 646.745463 
L 1913.945986 726.842784 
L 1914.63704 775.692542 
L 1915.327843 702.386956 
L 1916.018878 650.280658 
L 1916.7098 729.595503 
L 1917.400603 770.950389 
L 1918.091947 692.664491 
L 1918.782748 656.217332 
L 1919.4737 741.596856 
L 1920.164931 762.487702 
L 1920.855655 676.114538 
L 1921.546717 669.116959 
L 1922.237898 756.017965 
L 1922.928618 744.417088 
L 1923.619372 661.937484 
L 1924.310569 697.201915 
L 1925.001547 763.160409 
L 1926.383662 662.26337 
L 1927.074236 738.074133 
L 1927.765817 751.003321 
L 1928.456471 671.257785 
L 1929.147424 691.200841 
L 1929.838484 757.84173 
L 1930.52974 706.723362 
L 1931.220342 668.008945 
L 1931.911453 742.201795 
L 1932.602095 738.790447 
L 1933.293294 668.187069 
L 1933.984598 715.166928 
L 1934.675236 751.154151 
L 1935.366598 680.980753 
L 1936.057007 690.919096 
L 1936.74831 751.789059 
L 1937.439185 698.325631 
L 1938.130073 679.030327 
L 1938.821126 746.981736 
L 1940.203075 674.855869 
L 1940.893794 741.139442 
L 1941.585293 721.881721 
L 1942.276312 674.381901 
L 1942.967031 736.926363 
L 1943.657712 724.733697 
L 1944.349781 675.366079 
L 1945.039991 735.455922 
L 1945.73097 723.235625 
L 1946.421709 677.083255 
L 1947.112824 736.579822 
L 1947.803889 717.587811 
L 1948.494687 680.121724 
L 1949.185558 739.1163 
L 1949.876476 707.604871 
L 1950.567637 686.193794 
L 1951.258279 740.905353 
L 1951.950212 694.918149 
L 1952.640882 697.970028 
L 1953.331759 738.958382 
L 1954.022724 684.67025 
L 1954.713667 716.213921 
L 1955.404277 729.631338 
L 1956.095688 681.734685 
L 1956.787465 732.065013 
L 1957.477237 709.386602 
L 1958.168857 691.208018 
L 1958.860043 736.736001 
L 1959.550462 688.552253 
L 1960.241489 715.684863 
L 1960.932813 724.879014 
L 1961.622939 685.544667 
L 1962.314265 733.569746 
L 1963.005466 696.942408 
L 1963.696367 706.998746 
L 1964.38721 727.795546 
L 1965.079128 686.300706 
L 1965.768984 731.274892 
L 1966.460334 697.880824 
L 1967.151223 708.883574 
L 1967.84215 724.093667 
L 1968.53317 689.042321 
L 1969.224221 731.292751 
L 1969.916913 692.411065 
L 1970.606114 718.957902 
L 1971.297413 712.277545 
L 1971.988211 698.383098 
L 1972.679017 727.377247 
L 1973.369956 689.722382 
L 1974.060887 728.40726 
L 1974.752048 694.805786 
L 1975.443238 718.706431 
L 1976.134078 708.500047 
L 1976.82481 704.453712 
L 1977.516462 720.858313 
L 1978.206665 694.74532 
L 1978.897894 726.340664 
L 1979.589114 692.190622 
L 1980.279894 725.878868 
L 1980.970501 694.951362 
L 1981.662091 721.495265 
L 1982.352977 700.892965 
L 1983.043754 714.945238 
L 1983.734776 707.485831 
L 1984.425739 708.478013 
L 1985.117022 713.166782 
L 1985.807904 703.191037 
L 1986.498712 717.46228 
L 1987.189406 699.532514 
L 1987.880923 720.250029 
L 1988.571853 697.471468 
L 1989.262732 721.662208 
L 1989.953567 696.79565 
L 1990.644997 721.713707 
L 1991.335232 697.395054 
L 1992.027017 720.567859 
L 1992.717418 699.067196 
L 1993.408306 718.396968 
L 1994.099399 701.632075 
L 1994.790227 715.472406 
L 1995.481427 704.738024 
L 1996.172307 712.240829 
L 1996.86306 707.943683 
L 1997.553939 709.160335 
L 1998.24562 710.815444 
L 1998.93599 706.636314 
L 1999.6279 713.008615 
L 2000.318276 704.928353 
L 2001.010162 714.313237 
L 2001.700062 704.156542 
L 2002.391011 714.678522 
L 2003.081814 704.262389 
L 2003.773457 714.257203 
L 2004.464071 705.028149 
L 2005.154958 713.238031 
L 2005.84572 706.26638 
L 2006.537176 711.88538 
L 2007.228903 707.650297 
L 2007.918881 710.59528 
L 2008.610012 708.760427 
L 2009.300804 709.789204 
L 2009.99178 709.372144 
L 2010.682947 709.321148 
L 2011.37416 709.655311 
L 2012.756808 709.548266 
L 2025.884391 709.462232 
L 2092.909417 709.450507 
L 2310.567539 709.450524 
L 2311.258463 704.774195 
L 2312.640468 535.821958 
L 2313.331338 515.674524 
L 2314.022272 411.073446 
L 2314.713477 385.045154 
L 2315.404395 338.485782 
L 2316.095095 246.652935 
L 2317.47719 275.265558 
L 2318.168376 207.979969 
L 2318.859403 209.874758 
L 2319.550195 274.324989 
L 2320.241171 254.408787 
L 2320.932621 197.156708 
L 2321.623532 242.037381 
L 2322.313918 274.88905 
L 2323.005286 218.238509 
L 2323.69609 207.779764 
L 2324.388372 269.25028 
L 2325.078261 251.797561 
L 2325.768886 200.046836 
L 2326.459922 248.206384 
L 2327.150965 267.984975 
L 2327.842026 209.395866 
L 2328.533173 223.014455 
L 2329.224027 270.281182 
L 2329.914669 227.569117 
L 2330.606321 209.085241 
L 2331.296855 265.01734 
L 2331.987853 244.327428 
L 2332.680595 204.747864 
L 2333.36968 256.88417 
L 2334.060852 253.660102 
L 2334.751679 205.120458 
L 2335.442714 249.354117 
L 2336.133479 257.743579 
L 2336.824698 207.010195 
L 2337.515687 244.275419 
L 2338.206708 258.707128 
L 2338.897982 208.597357 
L 2339.589001 242.573386 
L 2340.280028 257.708031 
L 2340.970769 209.193562 
L 2341.661542 244.179465 
L 2342.352556 254.983227 
L 2343.043633 209.211065 
L 2343.734578 248.244463 
L 2344.425482 249.951473 
L 2345.116364 209.903492 
L 2345.80747 253.316377 
L 2346.498431 241.434366 
L 2347.18946 213.291136 
L 2347.880369 257.345787 
L 2348.571261 229.053983 
L 2349.262415 221.925521 
L 2349.953232 257.71405 
L 2350.644621 217.310549 
L 2351.335134 236.778474 
L 2352.026264 251.630174 
L 2352.717113 212.673431 
L 2353.408079 250.731207 
L 2354.790157 219.762556 
L 2355.481153 255.290508 
L 2356.172236 218.461419 
L 2356.863117 239.025678 
L 2357.554119 246.31505 
L 2358.245214 215.517956 
L 2358.936039 252.83212 
L 2359.626997 224.649363 
L 2360.317974 232.77932 
L 2361.008664 248.149815 
L 2361.699818 215.916571 
L 2362.390954 251.032437 
L 2363.081849 225.3247 
L 2363.772985 233.612307 
L 2364.463884 245.74425 
L 2365.154567 217.670041 
L 2365.846159 250.88425 
L 2366.536689 221.692969 
L 2367.228726 239.520997 
L 2367.9196 238.730369 
L 2368.609723 222.748494 
L 2369.300556 249.345694 
L 2369.991721 218.205794 
L 2370.682431 246.627134 
L 2371.375163 227.527554 
L 2372.06475 233.263883 
L 2372.755475 241.864289 
L 2373.446088 221.338728 
L 2374.137789 248.540037 
L 2374.82838 219.570143 
L 2375.519285 245.155039 
L 2376.211458 227.596496 
L 2377.592469 239.59995 
L 2378.283513 223.425971 
L 2378.974767 246.832639 
L 2379.665343 219.932907 
L 2380.356201 246.364233 
L 2381.047777 224.011354 
L 2381.738193 239.044938 
L 2382.429062 232.99903 
L 2383.120334 229.16041 
L 2383.811935 242.061626 
L 2384.502101 222.492805 
L 2385.193505 246.305634 
L 2385.884239 221.083755 
L 2386.575344 245.024619 
L 2387.266193 224.69811 
L 2387.957481 238.95537 
L 2388.647888 231.574936 
L 2389.339557 231.115278 
L 2390.029923 239.038199 
L 2390.720802 225.0876 
L 2391.411841 244.068445 
L 2392.102893 222.240677 
L 2392.793979 245.278801 
L 2393.484733 222.772182 
L 2394.176403 243.047274 
L 2394.866934 226.060329 
L 2395.55819 238.170027 
L 2396.249022 231.001182 
L 2396.939395 232.51844 
L 2397.630816 236.398153 
L 2398.322184 227.840501 
L 2399.012864 240.825555 
L 2399.70385 224.846914 
L 2400.395075 243.362611 
L 2401.08594 223.691383 
L 2401.776613 243.812675 
L 2402.467664 224.154004 
L 2403.158198 242.478028 
L 2403.850634 225.894128 
L 2404.540572 239.772538 
L 2405.23175 228.564277 
L 2405.922508 236.421674 
L 2406.613555 231.813703 
L 2407.304805 233.008088 
L 2407.995396 235.187608 
L 2408.686513 230.051329 
L 2409.377575 238.216882 
L 2410.068406 227.845521 
L 2410.759399 240.460704 
L 2411.450403 226.542048 
L 2412.141381 241.668659 
L 2412.833909 226.078223 
L 2413.523319 241.860662 
L 2414.21413 226.413969 
L 2414.905302 241.179843 
L 2415.596077 227.337618 
L 2416.287208 239.812624 
L 2416.97812 228.760905 
L 2417.66906 238.072896 
L 2418.36028 230.452422 
L 2419.051209 236.228563 
L 2419.742111 232.225542 
L 2420.432884 234.524127 
L 2421.123989 233.895299 
L 2421.815125 233.101442 
L 2422.506037 235.330408 
L 2423.197184 232.027614 
L 2423.887882 236.416881 
L 2424.578995 231.34087 
L 2425.270329 237.135225 
L 2425.961011 230.965068 
L 2426.651777 237.539705 
L 2427.342414 230.852244 
L 2428.034166 237.683131 
L 2428.724707 230.9305 
L 2429.415843 237.622988 
L 2430.106692 231.161927 
L 2430.797785 237.411316 
L 2431.488745 231.516656 
L 2432.179757 237.069934 
L 2432.871196 231.929382 
L 2433.562354 236.670678 
L 2434.25245 232.392223 
L 2434.943711 236.211926 
L 2435.634607 232.840476 
L 2436.325677 235.795699 
L 2437.016602 233.252538 
L 2437.70746 235.409416 
L 2438.39807 233.58322 
L 2439.089399 235.102838 
L 2439.780937 233.866 
L 2440.471005 234.846967 
L 2441.162395 234.134206 
L 2441.853328 234.478479 
L 2461.201204 234.422191 
L 2675.403937 234.418952 
L 2750.031344 234.418717 
L 2750.031344 234.418717 
" style="fill:none;stroke:#008000;stroke-linecap:square;stroke-width:3;"/>
   </g>
   <g id="line2d_15">
    <path clip-path="url(#p6b7a511b7c)" d="M 210.663031 267.102964 
L 230.701616 267.13582 
L 231.39261 272.620109 
L 232.083598 304.573177 
L 232.774609 306.294374 
L 248.666962 306.299231 
L 648.073405 306.299374 
L 648.764348 358.784099 
L 650.146643 513.5052 
L 651.52862 636.893916 
L 652.219192 658.33074 
L 652.910523 659.063345 
L 659.819714 659.07513 
L 1063.351397 659.07513 
L 1064.042425 648.647739 
L 1064.733458 613.852246 
L 1065.424445 613.20685 
L 1128.993969 613.205636 
L 1479.321253 613.205636 
L 1480.011313 648.983864 
L 1480.702426 721.954034 
L 1482.085115 839.199638 
L 1482.775349 902.737222 
L 1483.466573 931.984144 
L 1484.15745 936.881463 
L 1486.921117 936.956673 
L 1524.92503 936.952745 
L 1556.0188 936.955959 
L 1569.147699 936.949888 
L 1586.422482 936.951245 
L 1589.876757 936.934746 
L 1593.331961 936.953959 
L 1600.932651 936.94496 
L 1607.842308 936.955173 
L 1812.371927 936.954316 
L 1814.445201 936.948959 
L 1824.809376 936.952888 
L 1828.955707 936.942746 
L 1834.483622 936.947531 
L 1846.921433 936.955459 
L 1860.740612 936.940389 
L 1865.577343 936.953531 
L 1871.105143 936.940031 
L 1875.941972 936.956388 
L 1894.598586 936.955031 
L 1895.289424 929.700761 
L 1896.671855 730.923644 
L 1898.744069 432.126821 
L 1899.435337 396.158031 
L 1900.127955 390.844162 
L 1900.817607 390.719739 
L 2080.471701 390.719311 
L 2310.567539 390.719168 
L 2311.258463 414.324666 
L 2315.404395 828.604612 
L 2316.095095 875.749398 
L 2316.786404 908.954973 
L 2317.47719 931.830509 
L 2318.168376 936.868678 
L 2319.550195 936.953959 
L 2327.150965 936.935817 
L 2331.296855 936.956673 
L 2349.262415 936.953388 
L 2372.755475 936.953531 
L 2374.82838 936.943174 
L 2381.047777 936.953959 
L 2750.031344 936.953388 
L 2750.031344 936.953388 
" style="fill:none;stroke:#ff0000;stroke-dasharray:9.6,2.4,1.5,2.4;stroke-dashoffset:0;stroke-width:1.5;"/>
   </g>
   <g id="line2d_16">
    <path clip-path="url(#p6b7a511b7c)" d="M 210.663031 267.061534 
L 230.701616 267.11722 
L 231.39261 267.398966 
L 232.083598 307.591981 
L 232.774609 323.318475 
L 233.465923 279.540362 
L 234.156571 326.865423 
L 234.847429 299.927431 
L 235.538499 291.194649 
L 236.229818 329.529495 
L 236.920626 282.688212 
L 237.611508 317.886733 
L 238.302202 309.31179 
L 238.993635 287.782625 
L 239.68441 328.73322 
L 240.375144 285.224526 
L 241.066381 316.304306 
L 241.757627 308.006311 
L 242.448193 290.981087 
L 243.139161 326.252672 
L 243.830252 285.050311 
L 244.521214 321.636783 
L 245.212259 298.30231 
L 245.903583 301.905492 
L 246.594187 317.908805 
L 247.285151 288.131858 
L 247.976099 325.086337 
L 248.666962 288.074531 
L 249.357617 319.114522 
L 250.049133 298.384073 
L 251.430832 311.965832 
L 252.121993 294.209194 
L 252.812908 320.632891 
L 253.503958 289.504675 
L 254.1949 322.363747 
L 254.885431 290.487245 
L 255.57689 319.018037 
L 256.267917 295.39274 
L 256.958852 312.789127 
L 257.649861 302.124077 
L 258.34057 306.055318 
L 259.031528 308.714089 
L 259.722847 300.182229 
L 260.414003 314.023395 
L 261.104698 295.857338 
L 261.796071 317.400387 
L 262.486668 293.709351 
L 263.177565 318.383644 
L 263.869106 293.853201 
L 264.559738 317.074271 
L 265.250988 296.054109 
L 265.941447 313.977986 
L 266.632312 299.87486 
L 267.323476 309.708418 
L 268.014416 304.372061 
L 268.70521 305.298161 
L 269.396192 308.53439 
L 270.087419 301.692715 
L 270.778408 311.535925 
L 271.469399 299.510774 
L 272.160329 312.903285 
L 272.851574 298.918307 
L 273.542191 312.64499 
L 274.233469 299.786932 
L 274.924147 311.196222 
L 275.614793 301.772797 
L 276.306219 309.010525 
L 276.997434 304.17225 
L 277.688613 306.785562 
L 278.379617 306.174882 
L 279.070009 305.14349 
L 279.761486 307.238826 
L 280.452139 304.445902 
L 281.142876 307.608002 
L 281.834103 304.469067 
L 282.525092 307.284636 
L 283.215963 305.069204 
L 283.907041 306.527831 
L 284.597997 305.891121 
L 285.288759 305.820131 
L 287.361734 305.899822 
L 300.491186 305.989579 
L 359.914651 306.004614 
L 648.073405 306.004628 
L 648.764348 348.074397 
L 649.455276 466.872232 
L 650.146643 491.328043 
L 650.837874 571.908296 
L 651.52862 675.188672 
L 652.219192 640.42845 
L 652.910523 654.34542 
L 653.601074 671.596293 
L 654.29323 632.98691 
L 654.982896 681.037013 
L 655.674231 638.092769 
L 656.365063 662.281064 
L 657.056136 662.491633 
L 657.748611 639.149263 
L 658.437927 679.181399 
L 659.129512 634.501793 
L 659.819714 674.872748 
L 660.510969 645.924632 
L 661.892888 665.620541 
L 662.583861 640.306212 
L 663.274748 677.063033 
L 663.96583 636.451346 
L 664.656907 676.014726 
L 665.347784 641.998199 
L 666.038763 665.628048 
L 666.729634 653.980735 
L 667.421063 652.777473 
L 668.111725 665.994173 
L 668.802754 643.549702 
L 669.493626 673.293344 
L 670.184727 639.821456 
L 670.875519 675.308782 
L 671.566612 640.350156 
L 672.258438 673.089922 
L 672.948606 643.91264 
L 673.639575 668.263309 
L 674.330495 649.453984 
L 675.021508 662.578038 
L 675.712463 655.414475 
L 676.403376 657.246266 
L 677.094417 660.496356 
L 677.78577 652.93106 
L 678.476318 664.228655 
L 679.167365 649.836761 
L 679.858799 666.667331 
L 680.549423 647.842864 
L 681.240456 668.072847 
L 681.931032 646.674841 
L 682.622305 668.752441 
L 683.31299 646.090629 
L 684.0042 668.952274 
L 684.695494 646.045146 
L 685.386164 668.688471 
L 686.077731 646.449713 
L 686.768141 668.033759 
L 687.459634 647.199319 
L 688.150055 667.084839 
L 688.841656 648.169015 
L 689.531772 665.948209 
L 690.223053 649.230669 
L 690.913998 664.720961 
L 691.604993 650.31048 
L 692.295955 663.511412 
L 692.98726 651.417309 
L 693.677825 662.459716 
L 694.368901 652.362643 
L 695.059453 661.589857 
L 695.750528 653.105703 
L 696.441825 660.870204 
L 697.132801 653.693403 
L 697.824108 660.268355 
L 698.514926 654.180772 
L 699.20614 659.756924 
L 699.897264 654.571045 
L 700.587649 659.333555 
L 701.278688 654.866921 
L 701.969651 658.995583 
L 702.660605 655.07794 
L 703.351463 658.730456 
L 704.043037 655.229173 
L 704.733977 658.513762 
L 705.424563 655.363357 
L 706.115524 658.303822 
L 706.806489 655.561137 
L 707.497465 658.027969 
L 708.188354 655.909318 
L 708.87986 657.615344 
L 709.57023 656.378661 
L 710.261124 657.099564 
L 711.643309 656.835029 
L 734.445497 656.872576 
L 1063.351397 656.87321 
L 1064.042425 656.535497 
L 1064.733458 593.719385 
L 1065.424445 582.943814 
L 1066.11566 647.272554 
L 1066.806404 591.477229 
L 1067.496954 587.36813 
L 1068.188266 646.341437 
L 1068.879812 586.585072 
L 1069.570014 595.583114 
L 1070.261366 643.706938 
L 1070.952209 581.031113 
L 1072.33455 636.570696 
L 1073.025183 577.696423 
L 1073.716018 626.211622 
L 1074.407379 621.43235 
L 1075.098067 580.103559 
L 1075.789732 638.878598 
L 1076.479996 599.55989 
L 1077.171014 592.284265 
L 1077.862168 640.283646 
L 1078.55292 584.142268 
L 1079.243585 617.097525 
L 1079.936327 624.885074 
L 1080.62575 582.943778 
L 1081.31707 637.209408 
L 1082.007565 596.332918 
L 1082.698634 601.481653 
L 1083.390145 633.451644 
L 1084.080749 583.759173 
L 1084.771778 631.601955 
L 1085.46295 603.391021 
L 1086.153804 598.204797 
L 1086.844565 633.475254 
L 1087.537249 585.611058 
L 1088.226693 631.156883 
L 1088.917609 601.209497 
L 1089.608626 603.642061 
L 1090.299577 628.345388 
L 1090.992127 587.873349 
L 1091.681235 634.045562 
L 1092.372478 593.40852 
L 1093.064648 617.681329 
L 1093.754249 614.238914 
L 1094.445495 596.79776 
L 1095.136447 630.799526 
L 1095.827369 589.661073 
L 1096.518378 631.642149 
L 1097.209385 595.107294 
L 1097.900106 619.754497 
L 1098.591127 609.391578 
L 1099.282668 604.303824 
L 1099.973314 623.367229 
L 1100.664383 594.707682 
L 1101.354868 630.151312 
L 1102.046378 592.540945 
L 1102.737306 629.643406 
L 1103.428077 595.681492 
L 1104.119162 623.946339 
L 1104.810088 602.411122 
L 1105.501078 616.103892 
L 1106.192593 610.653397 
L 1106.882781 608.52848 
L 1107.574596 617.79472 
L 1108.264902 602.707537 
L 1108.955883 622.716771 
L 1109.64664 599.132174 
L 1110.337982 625.419359 
L 1111.028984 597.530907 
L 1111.719908 626.35433 
L 1112.412123 597.327589 
L 1113.101837 626.123213 
L 1113.792877 598.030821 
L 1114.483471 625.154547 
L 1115.175049 599.28664 
L 1115.86584 623.760409 
L 1116.556803 600.841465 
L 1117.247735 622.04573 
L 1117.938843 602.635544 
L 1118.629997 620.131696 
L 1119.320507 604.570112 
L 1120.011633 618.133414 
L 1120.702318 606.510893 
L 1121.393808 616.163823 
L 1122.084618 608.337066 
L 1122.775665 614.334044 
L 1123.466544 609.945206 
L 1124.157617 612.734226 
L 1124.848522 611.25998 
L 1125.539465 611.436435 
L 1126.230381 612.243957 
L 1126.92139 610.466833 
L 1127.612277 612.935119 
L 1128.302919 609.822212 
L 1128.993969 613.336501 
L 1129.685723 609.396828 
L 1130.376332 613.555956 
L 1131.067433 609.165331 
L 1131.758162 613.617564 
L 1132.448985 609.116159 
L 1133.140258 613.512434 
L 1133.831112 609.20282 
L 1134.522192 613.288403 
L 1135.213371 609.398906 
L 1135.904082 612.971076 
L 1136.595 609.68428 
L 1137.286148 612.586248 
L 1137.977091 610.029139 
L 1138.668082 612.190522 
L 1139.359015 610.375239 
L 1140.050268 611.893077 
L 1140.740997 610.629594 
L 1141.432402 611.671232 
L 1142.123328 610.845062 
L 1142.813949 611.367559 
L 1151.796607 611.236362 
L 1177.363244 611.203226 
L 1479.321253 611.20287 
L 1480.011313 632.087061 
L 1480.702426 733.286488 
L 1481.393381 769.105536 
L 1482.085115 849.782269 
L 1482.775349 914.793483 
L 1483.466573 912.652967 
L 1484.15745 957.345265 
L 1484.848169 913.83267 
L 1485.539196 944.543177 
L 1486.230182 935.15006 
L 1486.921117 920.234222 
L 1487.612217 954.427954 
L 1488.303012 913.272045 
L 1488.994782 951.321582 
L 1489.684633 925.047676 
L 1490.376109 931.922876 
L 1491.067681 945.723201 
L 1491.758044 916.609898 
L 1492.448638 954.557132 
L 1493.140033 916.500117 
L 1493.830947 946.856038 
L 1494.522216 929.941355 
L 1495.21335 929.955537 
L 1495.903483 946.411266 
L 1496.594871 917.855846 
L 1497.285811 953.213437 
L 1497.976621 917.384709 
L 1498.667821 947.999402 
L 1499.35866 927.399866 
L 1500.740799 941.606024 
L 1501.43218 922.246892 
L 1502.122703 950.637026 
L 1502.813717 917.58677 
L 1503.504662 951.056189 
L 1504.195716 921.266376 
L 1504.886626 943.944036 
L 1505.577589 931.550714 
L 1506.268669 932.899139 
L 1506.959601 942.514962 
L 1507.650569 923.165203 
L 1508.341505 949.216284 
L 1509.032323 919.143105 
L 1509.723487 950.206052 
L 1510.414463 920.883008 
L 1511.106372 946.154449 
L 1511.79666 927.580713 
L 1512.487866 938.737282 
L 1513.178375 936.246236 
L 1513.869163 930.409788 
L 1514.560231 943.457728 
L 1515.251193 923.927541 
L 1515.942378 947.683697 
L 1516.633631 920.927416 
L 1517.324579 948.67352 
L 1518.0153 921.421345 
L 1518.707838 946.846698 
L 1519.39763 924.940547 
L 1520.088547 942.890203 
L 1520.779164 930.274296 
L 1521.470268 937.757239 
L 1522.161113 935.874897 
L 1522.852062 932.406672 
L 1523.542872 940.55002 
L 1524.233787 927.801417 
L 1524.92503 943.846199 
L 1525.615995 924.540716 
L 1526.306981 945.718874 
L 1526.998129 922.980068 
L 1527.689398 946.135822 
L 1528.379789 923.20298 
L 1529.070795 945.20919 
L 1529.761623 924.983852 
L 1530.452632 943.135366 
L 1531.143806 927.829939 
L 1531.834818 940.301351 
L 1532.527454 931.229595 
L 1533.216735 937.008204 
L 1533.908004 934.647632 
L 1534.598667 933.642875 
L 1535.289645 937.589167 
L 1535.980664 930.657007 
L 1536.671643 939.836079 
L 1537.362725 928.355765 
L 1538.05392 941.318416 
L 1538.744605 926.86385 
L 1539.435474 942.020325 
L 1540.126753 926.224813 
L 1540.8174 942.10745 
L 1541.508251 926.263642 
L 1542.199212 941.698069 
L 1542.890437 926.784892 
L 1543.581751 940.98475 
L 1544.272627 927.630698 
L 1544.964273 940.057844 
L 1545.655276 928.602092 
L 1546.345697 939.044134 
L 1547.036306 929.559212 
L 1547.727301 938.121614 
L 1548.418286 930.354643 
L 1549.109244 937.338378 
L 1549.800157 930.955946 
L 1550.491213 936.732481 
L 1551.182378 931.381812 
L 1551.873274 936.286437 
L 1552.564159 931.592058 
L 1553.255132 936.025035 
L 1553.945856 931.70984 
L 1554.637493 935.850129 
L 1555.328082 931.779265 
L 1556.0188 935.715977 
L 1556.709766 931.983523 
L 1557.401131 935.449907 
L 1558.091786 932.315984 
L 1558.783297 935.059447 
L 1559.473959 932.761803 
L 1560.164894 934.558194 
L 1560.855966 933.305955 
L 1561.546896 933.97873 
L 1563.620509 933.806284 
L 1612.679346 933.789529 
L 1840.702178 933.791125 
L 1894.598586 933.788856 
L 1895.289424 933.256714 
L 1895.980345 879.828343 
L 1896.671855 704.204274 
L 1897.362406 601.406704 
L 1898.053806 567.929 
L 1898.744069 415.179784 
L 1899.435337 305.382653 
L 1900.127955 322.175909 
L 1900.817607 441.489444 
L 1901.508291 467.011413 
L 1902.199815 358.671159 
L 1902.890519 303.637404 
L 1903.581591 372.138781 
L 1904.271483 467.103394 
L 1904.963185 421.011271 
L 1905.653962 317.398099 
L 1906.345116 332.774259 
L 1907.035643 443.113779 
L 1907.726635 449.322601 
L 1908.41806 341.724654 
L 1909.108746 320.355082 
L 1909.799908 416.84995 
L 1910.491084 456.387918 
L 1911.183025 362.309439 
L 1911.872478 319.698662 
L 1912.563928 399.965549 
L 1913.25482 455.130649 
L 1913.945986 372.097518 
L 1914.63704 322.886837 
L 1915.327843 397.139586 
L 1916.018878 451.40391 
L 1916.7098 369.295779 
L 1917.400603 327.616714 
L 1918.091947 407.17067 
L 1918.782748 445.158526 
L 1919.4737 357.120748 
L 1920.164931 336.082751 
L 1920.855655 424.344969 
L 1921.546717 431.644004 
L 1922.237898 342.577052 
L 1922.928618 354.26892 
L 1923.619372 439.156374 
L 1924.310569 402.483795 
L 1925.001547 335.408649 
L 1926.383662 438.814788 
L 1927.074236 360.687676 
L 1927.765817 347.623475 
L 1928.456471 429.408649 
L 1929.147424 408.684384 
L 1929.838484 340.744403 
L 1930.52974 392.67939 
L 1931.220342 432.801852 
L 1931.911453 356.508729 
L 1932.602095 359.961695 
L 1933.293294 432.615747 
L 1933.984598 384.019413 
L 1934.675236 347.471536 
L 1935.366598 419.282178 
L 1936.057007 408.975901 
L 1936.74831 346.832047 
L 1937.439185 401.324598 
L 1938.130073 421.309956 
L 1938.821126 351.679002 
L 1939.512597 385.868649 
L 1940.203075 425.656094 
L 1940.893794 357.583504 
L 1941.585293 377.155393 
L 1942.276312 426.150069 
L 1942.967031 361.851015 
L 1943.657712 374.246272 
L 1944.349781 425.124492 
L 1945.039991 363.342341 
L 1945.73097 375.773902 
L 1946.421709 423.336132 
L 1947.112824 362.202376 
L 1947.803889 381.542295 
L 1948.494687 420.175006 
L 1949.185558 359.631748 
L 1949.876476 391.773762 
L 1950.567637 413.870467 
L 1951.258279 357.820338 
L 1951.950212 404.841633 
L 1952.640882 401.691331 
L 1953.331759 359.79162 
L 1954.022724 415.450837 
L 1954.713667 382.947829 
L 1955.404277 369.259106 
L 1956.095688 418.49868 
L 1956.787465 366.785116 
L 1957.477237 389.944359 
L 1958.168857 408.676967 
L 1958.860043 362.043921 
L 1959.550462 411.426337 
L 1960.241489 383.489245 
L 1960.932813 374.098151 
L 1961.622939 414.543663 
L 1962.314265 365.256675 
L 1963.005466 402.751651 
L 1963.696367 392.396467 
L 1964.38721 371.127194 
L 1965.079128 413.759644 
L 1965.768984 367.588043 
L 1966.460334 401.7834 
L 1967.151223 390.460752 
L 1967.84215 374.89882 
L 1968.53317 410.918708 
L 1969.224221 367.569862 
L 1969.916913 407.432677 
L 1970.606114 380.141756 
L 1971.297413 386.979135 
L 1971.988211 401.265279 
L 1972.679017 371.55308 
L 1973.369956 410.214557 
L 1974.060887 370.504631 
L 1974.752048 404.957684 
L 1975.443238 380.398769 
L 1976.134078 390.854458 
L 1976.82481 395.012773 
L 1977.516462 378.200223 
L 1978.206665 405.020097 
L 1978.897894 372.608782 
L 1979.589114 407.660609 
L 1980.279894 373.079284 
L 1980.970501 404.807303 
L 1981.662091 377.549996 
L 1982.352977 398.678199 
L 1983.043754 384.24635 
L 1983.734776 391.896044 
L 1984.425739 390.877121 
L 1985.117022 386.067817 
L 1985.807904 396.3119 
L 1986.498712 381.67069 
L 1987.189406 400.080142 
L 1987.880923 378.821471 
L 1988.571853 402.205684 
L 1989.262732 377.379509 
L 1989.953567 402.903077 
L 1990.644997 377.326956 
L 1991.335232 402.284538 
L 1992.027017 378.496903 
L 1992.717418 400.559868 
L 1993.408306 380.715062 
L 1994.099399 397.916881 
L 1994.790227 383.706667 
L 1995.481427 394.720345 
L 1996.172307 387.016828 
L 1996.86306 391.425786 
L 1997.553939 390.17664 
L 1998.24562 388.478347 
L 1998.93599 392.76886 
L 1999.6279 386.229905 
L 2000.318276 394.524612 
L 2001.010162 384.893443 
L 2001.700062 395.318454 
L 2002.391011 384.519385 
L 2003.081814 395.20957 
L 2003.773457 384.950839 
L 2004.464071 394.421986 
L 2005.154958 385.994852 
L 2005.84572 393.149027 
L 2006.537176 387.381194 
L 2007.228903 391.727121 
L 2007.918881 388.704198 
L 2008.610012 390.587147 
L 2009.300804 389.531217 
L 2009.99178 389.959224 
L 2010.682947 390.011567 
L 2011.37416 389.668615 
L 2012.756808 389.778469 
L 2025.195132 389.865323 
L 2084.617278 389.878796 
L 2310.567539 389.878782 
L 2311.258463 394.683144 
L 2312.640468 575.045 
L 2313.331338 597.463175 
L 2314.022272 717.186707 
L 2314.713477 747.894615 
L 2315.404395 803.811316 
L 2316.095095 918.11861 
L 2317.47719 881.895207 
L 2318.168376 968.046701 
L 2318.859403 965.570342 
L 2319.550195 883.076202 
L 2320.241171 908.245409 
L 2320.932621 982.226877 
L 2321.623532 924.017269 
L 2322.313918 882.368224 
L 2323.005286 954.692193 
L 2323.69609 968.305067 
L 2324.388372 889.462387 
L 2325.078261 911.566152 
L 2325.768886 978.430313 
L 2326.459922 916.13699 
L 2327.150965 891.058682 
L 2327.842026 966.198063 
L 2328.533173 948.497907 
L 2329.224027 888.16428 
L 2329.914669 942.616696 
L 2330.606321 966.600676 
L 2331.296855 894.803122 
L 2331.987853 921.093439 
L 2332.680595 972.269318 
L 2333.36968 905.099385 
L 2334.060852 909.19697 
L 2334.751679 971.782325 
L 2335.442714 914.674254 
L 2336.133479 904.011509 
L 2336.824698 969.311941 
L 2337.515687 921.155392 
L 2338.206708 902.789637 
L 2338.897982 967.239171 
L 2339.589001 923.331737 
L 2340.280028 904.056527 
L 2340.970769 966.460914 
L 2341.661542 921.278118 
L 2342.352556 907.515381 
L 2343.043633 966.437721 
L 2343.734578 916.088973 
L 2344.425482 913.916735 
L 2345.116364 965.533771 
L 2345.80747 909.631458 
L 2346.498431 924.794156 
L 2347.18946 961.118799 
L 2347.880369 904.51468 
L 2348.571261 940.700942 
L 2349.262415 949.907811 
L 2349.953232 904.048328 
L 2350.644621 955.895735 
L 2351.335134 930.757868 
L 2352.026264 911.778929 
L 2352.717113 961.923961 
L 2353.408079 912.920945 
L 2354.790157 952.710806 
L 2355.481153 907.12424 
L 2356.172236 954.401707 
L 2356.863117 927.87527 
L 2357.554119 918.554257 
L 2358.245214 958.222357 
L 2358.936039 910.248139 
L 2359.626997 946.387499 
L 2360.317974 935.897518 
L 2361.008664 916.212978 
L 2361.699818 957.704534 
L 2362.390954 912.53809 
L 2363.081849 945.514527 
L 2363.772985 934.826047 
L 2364.463884 919.282965 
L 2365.154567 955.426533 
L 2365.846159 912.727151 
L 2366.536689 950.21239 
L 2367.228726 927.240594 
L 2367.9196 928.25847 
L 2368.609723 948.842685 
L 2369.300556 914.687797 
L 2369.991721 954.732212 
L 2370.682431 918.153191 
L 2371.375163 942.669548 
L 2372.06475 935.274337 
L 2372.755475 924.243506 
L 2373.446088 950.66852 
L 2374.137789 915.7145 
L 2374.82838 952.962391 
L 2375.519285 920.032707 
L 2376.211458 942.580453 
L 2377.592469 927.143606 
L 2378.283513 947.966227 
L 2378.974767 917.892767 
L 2379.665343 952.491507 
L 2380.356201 918.48915 
L 2381.047777 947.211664 
L 2381.738193 927.851037 
L 2382.429062 935.619375 
L 2383.120334 940.559296 
L 2383.811935 923.990744 
L 2384.502101 949.174246 
L 2385.193505 918.565136 
L 2385.884239 951.00013 
L 2386.575344 920.199713 
L 2387.266193 946.323549 
L 2387.957481 927.965933 
L 2388.647888 937.452053 
L 2389.339557 938.040135 
L 2390.029923 927.863495 
L 2390.720802 945.817594 
L 2391.411841 921.423455 
L 2392.102893 949.501153 
L 2392.793979 919.875826 
L 2393.484733 948.813981 
L 2394.176403 922.726967 
L 2394.866934 944.563154 
L 2395.55819 928.973065 
L 2396.249022 938.190713 
L 2396.939395 936.233787 
L 2397.630816 931.250539 
L 2398.322184 942.262204 
L 2399.012864 925.572939 
L 2399.70385 946.129025 
L 2400.395075 922.325546 
L 2401.08594 947.623834 
L 2401.776613 921.749257 
L 2402.467664 947.026046 
L 2403.158198 923.455372 
L 2403.850634 944.77739 
L 2404.540572 926.918973 
L 2405.23175 941.331076 
L 2405.922508 931.216767 
L 2406.613555 937.144185 
L 2407.304805 935.603931 
L 2407.995396 932.805057 
L 2408.686513 939.411243 
L 2409.377575 928.91616 
L 2410.068406 942.256031 
L 2410.759399 926.039753 
L 2411.450403 943.939001 
L 2412.141381 924.492483 
L 2412.833909 944.538415 
L 2413.523319 924.246167 
L 2414.21413 944.105121 
L 2414.905302 925.117187 
L 2415.596077 942.912913 
L 2416.287208 926.868031 
L 2416.97812 941.076851 
L 2417.66906 929.098159 
L 2418.36028 938.896653 
L 2419.051209 931.465 
L 2419.742111 936.613502 
L 2420.432884 933.65468 
L 2421.123989 934.465502 
L 2421.815125 935.484146 
L 2422.506037 932.620935 
L 2423.197184 936.866073 
L 2423.887882 931.225425 
L 2424.578995 937.75036 
L 2425.270329 930.303155 
L 2425.961011 938.234461 
L 2426.651777 929.783951 
L 2427.342414 938.379883 
L 2428.034166 929.599784 
L 2428.724707 938.279163 
L 2429.415843 929.676825 
L 2430.106692 937.981149 
L 2430.797785 929.948336 
L 2431.488745 937.524375 
L 2432.179757 930.386378 
L 2432.871196 936.993017 
L 2433.562354 930.898821 
L 2434.25245 936.397283 
L 2434.943711 931.487793 
L 2435.634607 935.82051 
L 2436.325677 932.022281 
L 2437.016602 935.290462 
L 2437.70746 932.51841 
L 2438.39807 934.865225 
L 2439.089399 932.912213 
L 2439.780937 934.501682 
L 2440.471005 933.240909 
L 2441.162395 934.156947 
L 2441.853328 933.714384 
L 2457.746172 933.78635 
L 2593.869092 933.788901 
L 2750.031344 933.791232 
L 2750.031344 933.791232 
" style="fill:none;stroke:#ff0000;stroke-linecap:square;stroke-width:3;"/>
   </g>
   <g id="patch_3">
    <path d="M 83.694615 1021.480385 
L 83.694615 157.9032 
" style="fill:none;stroke:#000000;stroke-linecap:square;stroke-linejoin:miter;stroke-width:0.8;"/>
   </g>
   <g id="patch_4">
    <path d="M 2876.99976 1021.480385 
L 2876.99976 157.9032 
" style="fill:none;stroke:#000000;stroke-linecap:square;stroke-linejoin:miter;stroke-width:0.8;"/>
   </g>
   <g id="patch_5">
    <path d="M 83.694615 1021.480385 
L 2876.99976 1021.480385 
" style="fill:none;stroke:#000000;stroke-linecap:square;stroke-linejoin:miter;stroke-width:0.8;"/>
   </g>
   <g id="patch_6">
    <path d="M 83.694615 157.9032 
L 2876.99976 157.9032 
" style="fill:none;stroke:#000000;stroke-linecap:square;stroke-linejoin:miter;stroke-width:0.8;"/>
   </g>
   <g id="text_15">
    <!-- Biceps (red) and Triceps (green) -->
    <defs>
     <path d="M 19.671875 34.8125 
L 19.671875 8.109375 
L 35.5 8.109375 
Q 43.453125 8.109375 47.28125 11.40625 
Q 51.125 14.703125 51.125 21.484375 
Q 51.125 28.328125 47.28125 31.5625 
Q 43.453125 34.8125 35.5 34.8125 
z
M 19.671875 64.796875 
L 19.671875 42.828125 
L 34.28125 42.828125 
Q 41.5 42.828125 45.03125 45.53125 
Q 48.578125 48.25 48.578125 53.8125 
Q 48.578125 59.328125 45.03125 62.0625 
Q 41.5 64.796875 34.28125 64.796875 
z
M 9.8125 72.90625 
L 35.015625 72.90625 
Q 46.296875 72.90625 52.390625 68.21875 
Q 58.5 63.53125 58.5 54.890625 
Q 58.5 48.1875 55.375 44.234375 
Q 52.25 40.28125 46.1875 39.3125 
Q 53.46875 37.75 57.5 32.78125 
Q 61.53125 27.828125 61.53125 20.40625 
Q 61.53125 10.640625 54.890625 5.3125 
Q 48.25 0 35.984375 0 
L 9.8125 0 
z
" id="DejaVuSans-66"/>
     <path d="M 48.78125 52.59375 
L 48.78125 44.1875 
Q 44.96875 46.296875 41.140625 47.34375 
Q 37.3125 48.390625 33.40625 48.390625 
Q 24.65625 48.390625 19.8125 42.84375 
Q 14.984375 37.3125 14.984375 27.296875 
Q 14.984375 17.28125 19.8125 11.734375 
Q 24.65625 6.203125 33.40625 6.203125 
Q 37.3125 6.203125 41.140625 7.25 
Q 44.96875 8.296875 48.78125 10.40625 
L 48.78125 2.09375 
Q 45.015625 0.34375 40.984375 -0.53125 
Q 36.96875 -1.421875 32.421875 -1.421875 
Q 20.0625 -1.421875 12.78125 6.34375 
Q 5.515625 14.109375 5.515625 27.296875 
Q 5.515625 40.671875 12.859375 48.328125 
Q 20.21875 56 33.015625 56 
Q 37.15625 56 41.109375 55.140625 
Q 45.0625 54.296875 48.78125 52.59375 
z
" id="DejaVuSans-99"/>
     <path d="M 18.109375 8.203125 
L 18.109375 -20.796875 
L 9.078125 -20.796875 
L 9.078125 54.6875 
L 18.109375 54.6875 
L 18.109375 46.390625 
Q 20.953125 51.265625 25.265625 53.625 
Q 29.59375 56 35.59375 56 
Q 45.5625 56 51.78125 48.09375 
Q 58.015625 40.1875 58.015625 27.296875 
Q 58.015625 14.40625 51.78125 6.484375 
Q 45.5625 -1.421875 35.59375 -1.421875 
Q 29.59375 -1.421875 25.265625 0.953125 
Q 20.953125 3.328125 18.109375 8.203125 
z
M 48.6875 27.296875 
Q 48.6875 37.203125 44.609375 42.84375 
Q 40.53125 48.484375 33.40625 48.484375 
Q 26.265625 48.484375 22.1875 42.84375 
Q 18.109375 37.203125 18.109375 27.296875 
Q 18.109375 17.390625 22.1875 11.75 
Q 26.265625 6.109375 33.40625 6.109375 
Q 40.53125 6.109375 44.609375 11.75 
Q 48.6875 17.390625 48.6875 27.296875 
z
" id="DejaVuSans-112"/>
     <path d="M 31 75.875 
Q 24.46875 64.65625 21.28125 53.65625 
Q 18.109375 42.671875 18.109375 31.390625 
Q 18.109375 20.125 21.3125 9.0625 
Q 24.515625 -2 31 -13.1875 
L 23.1875 -13.1875 
Q 15.875 -1.703125 12.234375 9.375 
Q 8.59375 20.453125 8.59375 31.390625 
Q 8.59375 42.28125 12.203125 53.3125 
Q 15.828125 64.359375 23.1875 75.875 
z
" id="DejaVuSans-40"/>
     <path d="M 41.109375 46.296875 
Q 39.59375 47.171875 37.8125 47.578125 
Q 36.03125 48 33.890625 48 
Q 26.265625 48 22.1875 43.046875 
Q 18.109375 38.09375 18.109375 28.8125 
L 18.109375 0 
L 9.078125 0 
L 9.078125 54.6875 
L 18.109375 54.6875 
L 18.109375 46.1875 
Q 20.953125 51.171875 25.484375 53.578125 
Q 30.03125 56 36.53125 56 
Q 37.453125 56 38.578125 55.875 
Q 39.703125 55.765625 41.0625 55.515625 
z
" id="DejaVuSans-114"/>
     <path d="M 45.40625 46.390625 
L 45.40625 75.984375 
L 54.390625 75.984375 
L 54.390625 0 
L 45.40625 0 
L 45.40625 8.203125 
Q 42.578125 3.328125 38.25 0.953125 
Q 33.9375 -1.421875 27.875 -1.421875 
Q 17.96875 -1.421875 11.734375 6.484375 
Q 5.515625 14.40625 5.515625 27.296875 
Q 5.515625 40.1875 11.734375 48.09375 
Q 17.96875 56 27.875 56 
Q 33.9375 56 38.25 53.625 
Q 42.578125 51.265625 45.40625 46.390625 
z
M 14.796875 27.296875 
Q 14.796875 17.390625 18.875 11.75 
Q 22.953125 6.109375 30.078125 6.109375 
Q 37.203125 6.109375 41.296875 11.75 
Q 45.40625 17.390625 45.40625 27.296875 
Q 45.40625 37.203125 41.296875 42.84375 
Q 37.203125 48.484375 30.078125 48.484375 
Q 22.953125 48.484375 18.875 42.84375 
Q 14.796875 37.203125 14.796875 27.296875 
z
" id="DejaVuSans-100"/>
     <path d="M 8.015625 75.875 
L 15.828125 75.875 
Q 23.140625 64.359375 26.78125 53.3125 
Q 30.421875 42.28125 30.421875 31.390625 
Q 30.421875 20.453125 26.78125 9.375 
Q 23.140625 -1.703125 15.828125 -13.1875 
L 8.015625 -13.1875 
Q 14.5 -2 17.703125 9.0625 
Q 20.90625 20.125 20.90625 31.390625 
Q 20.90625 42.671875 17.703125 53.65625 
Q 14.5 64.65625 8.015625 75.875 
z
" id="DejaVuSans-41"/>
     <path d="M 34.28125 27.484375 
Q 23.390625 27.484375 19.1875 25 
Q 14.984375 22.515625 14.984375 16.5 
Q 14.984375 11.71875 18.140625 8.90625 
Q 21.296875 6.109375 26.703125 6.109375 
Q 34.1875 6.109375 38.703125 11.40625 
Q 43.21875 16.703125 43.21875 25.484375 
L 43.21875 27.484375 
z
M 52.203125 31.203125 
L 52.203125 0 
L 43.21875 0 
L 43.21875 8.296875 
Q 40.140625 3.328125 35.546875 0.953125 
Q 30.953125 -1.421875 24.3125 -1.421875 
Q 15.921875 -1.421875 10.953125 3.296875 
Q 6 8.015625 6 15.921875 
Q 6 25.140625 12.171875 29.828125 
Q 18.359375 34.515625 30.609375 34.515625 
L 43.21875 34.515625 
L 43.21875 35.40625 
Q 43.21875 41.609375 39.140625 45 
Q 35.0625 48.390625 27.6875 48.390625 
Q 23 48.390625 18.546875 47.265625 
Q 14.109375 46.140625 10.015625 43.890625 
L 10.015625 52.203125 
Q 14.9375 54.109375 19.578125 55.046875 
Q 24.21875 56 28.609375 56 
Q 40.484375 56 46.34375 49.84375 
Q 52.203125 43.703125 52.203125 31.203125 
z
" id="DejaVuSans-97"/>
    </defs>
    <g transform="translate(1205.159688 150.832262)scale(0.34 -0.34)">
     <use xlink:href="#DejaVuSans-66"/>
     <use x="68.603516" xlink:href="#DejaVuSans-105"/>
     <use x="96.386719" xlink:href="#DejaVuSans-99"/>
     <use x="151.367188" xlink:href="#DejaVuSans-101"/>
     <use x="212.890625" xlink:href="#DejaVuSans-112"/>
     <use x="276.367188" xlink:href="#DejaVuSans-115"/>
     <use x="328.466797" xlink:href="#DejaVuSans-32"/>
     <use x="360.253906" xlink:href="#DejaVuSans-40"/>
     <use x="399.267578" xlink:href="#DejaVuSans-114"/>
     <use x="440.349609" xlink:href="#DejaVuSans-101"/>
     <use x="501.873047" xlink:href="#DejaVuSans-100"/>
     <use x="565.349609" xlink:href="#DejaVuSans-41"/>
     <use x="604.363281" xlink:href="#DejaVuSans-32"/>
     <use x="636.150391" xlink:href="#DejaVuSans-97"/>
     <use x="697.429688" xlink:href="#DejaVuSans-110"/>
     <use x="760.808594" xlink:href="#DejaVuSans-100"/>
     <use x="824.285156" xlink:href="#DejaVuSans-32"/>
     <use x="856.072266" xlink:href="#DejaVuSans-84"/>
     <use x="916.9375" xlink:href="#DejaVuSans-114"/>
     <use x="958.050781" xlink:href="#DejaVuSans-105"/>
     <use x="985.833984" xlink:href="#DejaVuSans-99"/>
     <use x="1040.814453" xlink:href="#DejaVuSans-101"/>
     <use x="1102.337891" xlink:href="#DejaVuSans-112"/>
     <use x="1165.814453" xlink:href="#DejaVuSans-115"/>
     <use x="1217.914062" xlink:href="#DejaVuSans-32"/>
     <use x="1249.701172" xlink:href="#DejaVuSans-40"/>
     <use x="1288.714844" xlink:href="#DejaVuSans-103"/>
     <use x="1352.191406" xlink:href="#DejaVuSans-114"/>
     <use x="1393.273438" xlink:href="#DejaVuSans-101"/>
     <use x="1454.796875" xlink:href="#DejaVuSans-101"/>
     <use x="1516.320312" xlink:href="#DejaVuSans-110"/>
     <use x="1579.699219" xlink:href="#DejaVuSans-41"/>
    </g>
   </g>
  </g>
  <g id="text_16">
   <!-- Setpoints (- -) and Lenghts () - P100000 I0 D0 -->
   <defs>
    <path d="M 53.515625 70.515625 
L 53.515625 60.890625 
Q 47.90625 63.578125 42.921875 64.890625 
Q 37.9375 66.21875 33.296875 66.21875 
Q 25.25 66.21875 20.875 63.09375 
Q 16.5 59.96875 16.5 54.203125 
Q 16.5 49.359375 19.40625 46.890625 
Q 22.3125 44.4375 30.421875 42.921875 
L 36.375 41.703125 
Q 47.40625 39.59375 52.65625 34.296875 
Q 57.90625 29 57.90625 20.125 
Q 57.90625 9.515625 50.796875 4.046875 
Q 43.703125 -1.421875 29.984375 -1.421875 
Q 24.8125 -1.421875 18.96875 -0.25 
Q 13.140625 0.921875 6.890625 3.21875 
L 6.890625 13.375 
Q 12.890625 10.015625 18.65625 8.296875 
Q 24.421875 6.59375 29.984375 6.59375 
Q 38.421875 6.59375 43.015625 9.90625 
Q 47.609375 13.234375 47.609375 19.390625 
Q 47.609375 24.75 44.3125 27.78125 
Q 41.015625 30.8125 33.5 32.328125 
L 27.484375 33.5 
Q 16.453125 35.6875 11.515625 40.375 
Q 6.59375 45.0625 6.59375 53.421875 
Q 6.59375 63.09375 13.40625 68.65625 
Q 20.21875 74.21875 32.171875 74.21875 
Q 37.3125 74.21875 42.625 73.28125 
Q 47.953125 72.359375 53.515625 70.515625 
z
" id="DejaVuSans-83"/>
    <path d="M 30.609375 48.390625 
Q 23.390625 48.390625 19.1875 42.75 
Q 14.984375 37.109375 14.984375 27.296875 
Q 14.984375 17.484375 19.15625 11.84375 
Q 23.34375 6.203125 30.609375 6.203125 
Q 37.796875 6.203125 41.984375 11.859375 
Q 46.1875 17.53125 46.1875 27.296875 
Q 46.1875 37.015625 41.984375 42.703125 
Q 37.796875 48.390625 30.609375 48.390625 
z
M 30.609375 56 
Q 42.328125 56 49.015625 48.375 
Q 55.71875 40.765625 55.71875 27.296875 
Q 55.71875 13.875 49.015625 6.21875 
Q 42.328125 -1.421875 30.609375 -1.421875 
Q 18.84375 -1.421875 12.171875 6.21875 
Q 5.515625 13.875 5.515625 27.296875 
Q 5.515625 40.765625 12.171875 48.375 
Q 18.84375 56 30.609375 56 
z
" id="DejaVuSans-111"/>
    <path d="M 4.890625 31.390625 
L 31.203125 31.390625 
L 31.203125 23.390625 
L 4.890625 23.390625 
z
" id="DejaVuSans-45"/>
    <path d="M 0 30.90625 
L 100 30.90625 
L 100 23.875 
L 0 23.875 
z
" id="DejaVuSans-8213"/>
    <path d="M 19.671875 64.796875 
L 19.671875 37.40625 
L 32.078125 37.40625 
Q 38.96875 37.40625 42.71875 40.96875 
Q 46.484375 44.53125 46.484375 51.125 
Q 46.484375 57.671875 42.71875 61.234375 
Q 38.96875 64.796875 32.078125 64.796875 
z
M 9.8125 72.90625 
L 32.078125 72.90625 
Q 44.34375 72.90625 50.609375 67.359375 
Q 56.890625 61.8125 56.890625 51.125 
Q 56.890625 40.328125 50.609375 34.8125 
Q 44.34375 29.296875 32.078125 29.296875 
L 19.671875 29.296875 
L 19.671875 0 
L 9.8125 0 
z
" id="DejaVuSans-80"/>
    <path d="M 9.8125 72.90625 
L 19.671875 72.90625 
L 19.671875 0 
L 9.8125 0 
z
" id="DejaVuSans-73"/>
    <path d="M 19.671875 64.796875 
L 19.671875 8.109375 
L 31.59375 8.109375 
Q 46.6875 8.109375 53.6875 14.9375 
Q 60.6875 21.78125 60.6875 36.53125 
Q 60.6875 51.171875 53.6875 57.984375 
Q 46.6875 64.796875 31.59375 64.796875 
z
M 9.8125 72.90625 
L 30.078125 72.90625 
Q 51.265625 72.90625 61.171875 64.09375 
Q 71.09375 55.28125 71.09375 36.53125 
Q 71.09375 17.671875 61.125 8.828125 
Q 51.171875 0 30.078125 0 
L 9.8125 0 
z
" id="DejaVuSans-68"/>
   </defs>
   <g transform="translate(1040.059062 28.834927)scale(0.34 -0.34)">
    <use xlink:href="#DejaVuSans-83"/>
    <use x="63.476562" xlink:href="#DejaVuSans-101"/>
    <use x="125" xlink:href="#DejaVuSans-116"/>
    <use x="164.208984" xlink:href="#DejaVuSans-112"/>
    <use x="227.685547" xlink:href="#DejaVuSans-111"/>
    <use x="288.867188" xlink:href="#DejaVuSans-105"/>
    <use x="316.650391" xlink:href="#DejaVuSans-110"/>
    <use x="380.029297" xlink:href="#DejaVuSans-116"/>
    <use x="419.238281" xlink:href="#DejaVuSans-115"/>
    <use x="471.337891" xlink:href="#DejaVuSans-32"/>
    <use x="503.125" xlink:href="#DejaVuSans-40"/>
    <use x="542.138672" xlink:href="#DejaVuSans-45"/>
    <use x="578.222656" xlink:href="#DejaVuSans-45"/>
    <use x="614.306641" xlink:href="#DejaVuSans-41"/>
    <use x="653.320312" xlink:href="#DejaVuSans-32"/>
    <use x="685.107422" xlink:href="#DejaVuSans-97"/>
    <use x="746.386719" xlink:href="#DejaVuSans-110"/>
    <use x="809.765625" xlink:href="#DejaVuSans-100"/>
    <use x="873.242188" xlink:href="#DejaVuSans-32"/>
    <use x="905.029297" xlink:href="#DejaVuSans-76"/>
    <use x="960.726562" xlink:href="#DejaVuSans-101"/>
    <use x="1022.25" xlink:href="#DejaVuSans-110"/>
    <use x="1085.628906" xlink:href="#DejaVuSans-103"/>
    <use x="1149.105469" xlink:href="#DejaVuSans-104"/>
    <use x="1212.484375" xlink:href="#DejaVuSans-116"/>
    <use x="1251.693359" xlink:href="#DejaVuSans-115"/>
    <use x="1303.792969" xlink:href="#DejaVuSans-32"/>
    <use x="1335.580078" xlink:href="#DejaVuSans-40"/>
    <use x="1374.59375" xlink:href="#DejaVuSans-8213"/>
    <use x="1474.59375" xlink:href="#DejaVuSans-41"/>
    <use x="1513.607422" xlink:href="#DejaVuSans-32"/>
    <use x="1545.394531" xlink:href="#DejaVuSans-45"/>
    <use x="1581.478516" xlink:href="#DejaVuSans-32"/>
    <use x="1613.265625" xlink:href="#DejaVuSans-80"/>
    <use x="1673.568359" xlink:href="#DejaVuSans-49"/>
    <use x="1737.191406" xlink:href="#DejaVuSans-48"/>
    <use x="1800.814453" xlink:href="#DejaVuSans-48"/>
    <use x="1864.4375" xlink:href="#DejaVuSans-48"/>
    <use x="1928.060547" xlink:href="#DejaVuSans-48"/>
    <use x="1991.683594" xlink:href="#DejaVuSans-48"/>
    <use x="2055.306641" xlink:href="#DejaVuSans-32"/>
    <use x="2087.09375" xlink:href="#DejaVuSans-73"/>
    <use x="2116.585938" xlink:href="#DejaVuSans-48"/>
    <use x="2180.208984" xlink:href="#DejaVuSans-32"/>
    <use x="2211.996094" xlink:href="#DejaVuSans-68"/>
    <use x="2288.998047" xlink:href="#DejaVuSans-48"/>
   </g>
   <!-- Bagfile elbow_left_D from 10s for 367s - Logging Rate 10 - Simulation Rate 800 - 100.00% real time speed -->
   <defs>
    <path d="M 37.109375 75.984375 
L 37.109375 68.5 
L 28.515625 68.5 
Q 23.6875 68.5 21.796875 66.546875 
Q 19.921875 64.59375 19.921875 59.515625 
L 19.921875 54.6875 
L 34.71875 54.6875 
L 34.71875 47.703125 
L 19.921875 47.703125 
L 19.921875 0 
L 10.890625 0 
L 10.890625 47.703125 
L 2.296875 47.703125 
L 2.296875 54.6875 
L 10.890625 54.6875 
L 10.890625 58.5 
Q 10.890625 67.625 15.140625 71.796875 
Q 19.390625 75.984375 28.609375 75.984375 
z
" id="DejaVuSans-102"/>
    <path d="M 9.421875 75.984375 
L 18.40625 75.984375 
L 18.40625 0 
L 9.421875 0 
z
" id="DejaVuSans-108"/>
    <path d="M 48.6875 27.296875 
Q 48.6875 37.203125 44.609375 42.84375 
Q 40.53125 48.484375 33.40625 48.484375 
Q 26.265625 48.484375 22.1875 42.84375 
Q 18.109375 37.203125 18.109375 27.296875 
Q 18.109375 17.390625 22.1875 11.75 
Q 26.265625 6.109375 33.40625 6.109375 
Q 40.53125 6.109375 44.609375 11.75 
Q 48.6875 17.390625 48.6875 27.296875 
z
M 18.109375 46.390625 
Q 20.953125 51.265625 25.265625 53.625 
Q 29.59375 56 35.59375 56 
Q 45.5625 56 51.78125 48.09375 
Q 58.015625 40.1875 58.015625 27.296875 
Q 58.015625 14.40625 51.78125 6.484375 
Q 45.5625 -1.421875 35.59375 -1.421875 
Q 29.59375 -1.421875 25.265625 0.953125 
Q 20.953125 3.328125 18.109375 8.203125 
L 18.109375 0 
L 9.078125 0 
L 9.078125 75.984375 
L 18.109375 75.984375 
z
" id="DejaVuSans-98"/>
    <path d="M 4.203125 54.6875 
L 13.1875 54.6875 
L 24.421875 12.015625 
L 35.59375 54.6875 
L 46.1875 54.6875 
L 57.421875 12.015625 
L 68.609375 54.6875 
L 77.59375 54.6875 
L 63.28125 0 
L 52.6875 0 
L 40.921875 44.828125 
L 29.109375 0 
L 18.5 0 
z
" id="DejaVuSans-119"/>
    <path d="M 50.984375 -16.609375 
L 50.984375 -23.578125 
L -0.984375 -23.578125 
L -0.984375 -16.609375 
z
" id="DejaVuSans-95"/>
    <path d="M 33.015625 40.375 
Q 26.375 40.375 22.484375 35.828125 
Q 18.609375 31.296875 18.609375 23.390625 
Q 18.609375 15.53125 22.484375 10.953125 
Q 26.375 6.390625 33.015625 6.390625 
Q 39.65625 6.390625 43.53125 10.953125 
Q 47.40625 15.53125 47.40625 23.390625 
Q 47.40625 31.296875 43.53125 35.828125 
Q 39.65625 40.375 33.015625 40.375 
z
M 52.59375 71.296875 
L 52.59375 62.3125 
Q 48.875 64.0625 45.09375 64.984375 
Q 41.3125 65.921875 37.59375 65.921875 
Q 27.828125 65.921875 22.671875 59.328125 
Q 17.53125 52.734375 16.796875 39.40625 
Q 19.671875 43.65625 24.015625 45.921875 
Q 28.375 48.1875 33.59375 48.1875 
Q 44.578125 48.1875 50.953125 41.515625 
Q 57.328125 34.859375 57.328125 23.390625 
Q 57.328125 12.15625 50.6875 5.359375 
Q 44.046875 -1.421875 33.015625 -1.421875 
Q 20.359375 -1.421875 13.671875 8.265625 
Q 6.984375 17.96875 6.984375 36.375 
Q 6.984375 53.65625 15.1875 63.9375 
Q 23.390625 74.21875 37.203125 74.21875 
Q 40.921875 74.21875 44.703125 73.484375 
Q 48.484375 72.75 52.59375 71.296875 
z
" id="DejaVuSans-54"/>
    <path d="M 8.203125 72.90625 
L 55.078125 72.90625 
L 55.078125 68.703125 
L 28.609375 0 
L 18.3125 0 
L 43.21875 64.59375 
L 8.203125 64.59375 
z
" id="DejaVuSans-55"/>
    <path d="M 44.390625 34.1875 
Q 47.5625 33.109375 50.5625 29.59375 
Q 53.5625 26.078125 56.59375 19.921875 
L 66.609375 0 
L 56 0 
L 46.6875 18.703125 
Q 43.0625 26.03125 39.671875 28.421875 
Q 36.28125 30.8125 30.421875 30.8125 
L 19.671875 30.8125 
L 19.671875 0 
L 9.8125 0 
L 9.8125 72.90625 
L 32.078125 72.90625 
Q 44.578125 72.90625 50.734375 67.671875 
Q 56.890625 62.453125 56.890625 51.90625 
Q 56.890625 45.015625 53.6875 40.46875 
Q 50.484375 35.9375 44.390625 34.1875 
z
M 19.671875 64.796875 
L 19.671875 38.921875 
L 32.078125 38.921875 
Q 39.203125 38.921875 42.84375 42.21875 
Q 46.484375 45.515625 46.484375 51.90625 
Q 46.484375 58.296875 42.84375 61.546875 
Q 39.203125 64.796875 32.078125 64.796875 
z
" id="DejaVuSans-82"/>
    <path d="M 8.5 21.578125 
L 8.5 54.6875 
L 17.484375 54.6875 
L 17.484375 21.921875 
Q 17.484375 14.15625 20.5 10.265625 
Q 23.53125 6.390625 29.59375 6.390625 
Q 36.859375 6.390625 41.078125 11.03125 
Q 45.3125 15.671875 45.3125 23.6875 
L 45.3125 54.6875 
L 54.296875 54.6875 
L 54.296875 0 
L 45.3125 0 
L 45.3125 8.40625 
Q 42.046875 3.421875 37.71875 1 
Q 33.40625 -1.421875 27.6875 -1.421875 
Q 18.265625 -1.421875 13.375 4.4375 
Q 8.5 10.296875 8.5 21.578125 
z
M 31.109375 56 
z
" id="DejaVuSans-117"/>
    <path d="M 72.703125 32.078125 
Q 68.453125 32.078125 66.03125 28.46875 
Q 63.625 24.859375 63.625 18.40625 
Q 63.625 12.0625 66.03125 8.421875 
Q 68.453125 4.78125 72.703125 4.78125 
Q 76.859375 4.78125 79.265625 8.421875 
Q 81.6875 12.0625 81.6875 18.40625 
Q 81.6875 24.8125 79.265625 28.4375 
Q 76.859375 32.078125 72.703125 32.078125 
z
M 72.703125 38.28125 
Q 80.421875 38.28125 84.953125 32.90625 
Q 89.5 27.546875 89.5 18.40625 
Q 89.5 9.28125 84.9375 3.921875 
Q 80.375 -1.421875 72.703125 -1.421875 
Q 64.890625 -1.421875 60.34375 3.921875 
Q 55.8125 9.28125 55.8125 18.40625 
Q 55.8125 27.59375 60.375 32.9375 
Q 64.9375 38.28125 72.703125 38.28125 
z
M 22.3125 68.015625 
Q 18.109375 68.015625 15.6875 64.375 
Q 13.28125 60.75 13.28125 54.390625 
Q 13.28125 47.953125 15.671875 44.328125 
Q 18.0625 40.71875 22.3125 40.71875 
Q 26.5625 40.71875 28.96875 44.328125 
Q 31.390625 47.953125 31.390625 54.390625 
Q 31.390625 60.6875 28.953125 64.34375 
Q 26.515625 68.015625 22.3125 68.015625 
z
M 66.40625 74.21875 
L 74.21875 74.21875 
L 28.609375 -1.421875 
L 20.796875 -1.421875 
z
M 22.3125 74.21875 
Q 30.03125 74.21875 34.609375 68.875 
Q 39.203125 63.53125 39.203125 54.390625 
Q 39.203125 45.171875 34.640625 39.84375 
Q 30.078125 34.515625 22.3125 34.515625 
Q 14.546875 34.515625 10.03125 39.859375 
Q 5.515625 45.21875 5.515625 54.390625 
Q 5.515625 63.484375 10.046875 68.84375 
Q 14.59375 74.21875 22.3125 74.21875 
z
" id="DejaVuSans-37"/>
   </defs>
   <g transform="translate(533.222656 66.90749)scale(0.34 -0.34)">
    <use xlink:href="#DejaVuSans-66"/>
    <use x="68.603516" xlink:href="#DejaVuSans-97"/>
    <use x="129.882812" xlink:href="#DejaVuSans-103"/>
    <use x="193.359375" xlink:href="#DejaVuSans-102"/>
    <use x="228.564453" xlink:href="#DejaVuSans-105"/>
    <use x="256.347656" xlink:href="#DejaVuSans-108"/>
    <use x="284.130859" xlink:href="#DejaVuSans-101"/>
    <use x="345.654297" xlink:href="#DejaVuSans-32"/>
    <use x="377.441406" xlink:href="#DejaVuSans-101"/>
    <use x="438.964844" xlink:href="#DejaVuSans-108"/>
    <use x="466.748047" xlink:href="#DejaVuSans-98"/>
    <use x="530.224609" xlink:href="#DejaVuSans-111"/>
    <use x="591.40625" xlink:href="#DejaVuSans-119"/>
    <use x="673.193359" xlink:href="#DejaVuSans-95"/>
    <use x="723.193359" xlink:href="#DejaVuSans-108"/>
    <use x="750.976562" xlink:href="#DejaVuSans-101"/>
    <use x="812.5" xlink:href="#DejaVuSans-102"/>
    <use x="847.689453" xlink:href="#DejaVuSans-116"/>
    <use x="886.898438" xlink:href="#DejaVuSans-95"/>
    <use x="936.898438" xlink:href="#DejaVuSans-68"/>
    <use x="1013.900391" xlink:href="#DejaVuSans-32"/>
    <use x="1045.6875" xlink:href="#DejaVuSans-102"/>
    <use x="1080.892578" xlink:href="#DejaVuSans-114"/>
    <use x="1121.974609" xlink:href="#DejaVuSans-111"/>
    <use x="1183.15625" xlink:href="#DejaVuSans-109"/>
    <use x="1280.568359" xlink:href="#DejaVuSans-32"/>
    <use x="1312.355469" xlink:href="#DejaVuSans-49"/>
    <use x="1375.978516" xlink:href="#DejaVuSans-48"/>
    <use x="1439.601562" xlink:href="#DejaVuSans-115"/>
    <use x="1491.701172" xlink:href="#DejaVuSans-32"/>
    <use x="1523.488281" xlink:href="#DejaVuSans-102"/>
    <use x="1558.693359" xlink:href="#DejaVuSans-111"/>
    <use x="1619.875" xlink:href="#DejaVuSans-114"/>
    <use x="1660.988281" xlink:href="#DejaVuSans-32"/>
    <use x="1692.775391" xlink:href="#DejaVuSans-51"/>
    <use x="1756.398438" xlink:href="#DejaVuSans-54"/>
    <use x="1820.021484" xlink:href="#DejaVuSans-55"/>
    <use x="1883.644531" xlink:href="#DejaVuSans-115"/>
    <use x="1935.744141" xlink:href="#DejaVuSans-32"/>
    <use x="1967.53125" xlink:href="#DejaVuSans-45"/>
    <use x="2003.615234" xlink:href="#DejaVuSans-32"/>
    <use x="2035.402344" xlink:href="#DejaVuSans-76"/>
    <use x="2091.099609" xlink:href="#DejaVuSans-111"/>
    <use x="2152.28125" xlink:href="#DejaVuSans-103"/>
    <use x="2215.757812" xlink:href="#DejaVuSans-103"/>
    <use x="2279.234375" xlink:href="#DejaVuSans-105"/>
    <use x="2307.017578" xlink:href="#DejaVuSans-110"/>
    <use x="2370.396484" xlink:href="#DejaVuSans-103"/>
    <use x="2433.873047" xlink:href="#DejaVuSans-32"/>
    <use x="2465.660156" xlink:href="#DejaVuSans-82"/>
    <use x="2535.111328" xlink:href="#DejaVuSans-97"/>
    <use x="2596.390625" xlink:href="#DejaVuSans-116"/>
    <use x="2635.599609" xlink:href="#DejaVuSans-101"/>
    <use x="2697.123047" xlink:href="#DejaVuSans-32"/>
    <use x="2728.910156" xlink:href="#DejaVuSans-49"/>
    <use x="2792.533203" xlink:href="#DejaVuSans-48"/>
    <use x="2856.15625" xlink:href="#DejaVuSans-32"/>
    <use x="2887.943359" xlink:href="#DejaVuSans-45"/>
    <use x="2924.027344" xlink:href="#DejaVuSans-32"/>
    <use x="2955.814453" xlink:href="#DejaVuSans-83"/>
    <use x="3019.291016" xlink:href="#DejaVuSans-105"/>
    <use x="3047.074219" xlink:href="#DejaVuSans-109"/>
    <use x="3144.486328" xlink:href="#DejaVuSans-117"/>
    <use x="3207.865234" xlink:href="#DejaVuSans-108"/>
    <use x="3235.648438" xlink:href="#DejaVuSans-97"/>
    <use x="3296.927734" xlink:href="#DejaVuSans-116"/>
    <use x="3336.136719" xlink:href="#DejaVuSans-105"/>
    <use x="3363.919922" xlink:href="#DejaVuSans-111"/>
    <use x="3425.101562" xlink:href="#DejaVuSans-110"/>
    <use x="3488.480469" xlink:href="#DejaVuSans-32"/>
    <use x="3520.267578" xlink:href="#DejaVuSans-82"/>
    <use x="3589.71875" xlink:href="#DejaVuSans-97"/>
    <use x="3650.998047" xlink:href="#DejaVuSans-116"/>
    <use x="3690.207031" xlink:href="#DejaVuSans-101"/>
    <use x="3751.730469" xlink:href="#DejaVuSans-32"/>
    <use x="3783.517578" xlink:href="#DejaVuSans-56"/>
    <use x="3847.140625" xlink:href="#DejaVuSans-48"/>
    <use x="3910.763672" xlink:href="#DejaVuSans-48"/>
    <use x="3974.386719" xlink:href="#DejaVuSans-32"/>
    <use x="4006.173828" xlink:href="#DejaVuSans-45"/>
    <use x="4042.257812" xlink:href="#DejaVuSans-32"/>
    <use x="4074.044922" xlink:href="#DejaVuSans-49"/>
    <use x="4137.667969" xlink:href="#DejaVuSans-48"/>
    <use x="4201.291016" xlink:href="#DejaVuSans-48"/>
    <use x="4264.914062" xlink:href="#DejaVuSans-46"/>
    <use x="4296.701172" xlink:href="#DejaVuSans-48"/>
    <use x="4360.324219" xlink:href="#DejaVuSans-48"/>
    <use x="4423.947266" xlink:href="#DejaVuSans-37"/>
    <use x="4518.966797" xlink:href="#DejaVuSans-32"/>
    <use x="4550.753906" xlink:href="#DejaVuSans-114"/>
    <use x="4591.835938" xlink:href="#DejaVuSans-101"/>
    <use x="4653.359375" xlink:href="#DejaVuSans-97"/>
    <use x="4714.638672" xlink:href="#DejaVuSans-108"/>
    <use x="4742.421875" xlink:href="#DejaVuSans-32"/>
    <use x="4774.208984" xlink:href="#DejaVuSans-116"/>
    <use x="4813.417969" xlink:href="#DejaVuSans-105"/>
    <use x="4841.201172" xlink:href="#DejaVuSans-109"/>
    <use x="4938.613281" xlink:href="#DejaVuSans-101"/>
    <use x="5000.136719" xlink:href="#DejaVuSans-32"/>
    <use x="5031.923828" xlink:href="#DejaVuSans-115"/>
    <use x="5084.023438" xlink:href="#DejaVuSans-112"/>
    <use x="5147.5" xlink:href="#DejaVuSans-101"/>
    <use x="5209.023438" xlink:href="#DejaVuSans-101"/>
    <use x="5270.546875" xlink:href="#DejaVuSans-100"/>
   </g>
   <!--  -->
   <g transform="translate(1440 105.925677)scale(0.34 -0.34)"/>
  </g>
 </g>
 <defs>
  <clipPath id="p6b7a511b7c">
   <rect height="863.577185" width="2793.305145" x="83.694615" y="157.9032"/>
  </clipPath>
 </defs>
</svg>
